<svg xmlns="http://www.w3.org/2000/svg" viewBox="0 0 96.53 96.53"><defs><style>.cls-1{fill:#fff;}.cls-2{fill:#2c5872;}.cls-3{fill:#12303f;}.cls-4{fill:#9cc9e8;}.cls-5{fill:#e67365;}.cls-6{fill:#824891;}.cls-7{fill:#905b9c;}.cls-8{fill:#ebeff0;}.cls-9{fill:#2d3e50;}</style></defs><title>vinculacion3</title><g id="Capa_2" data-name="Capa 2"><g id="Capa_1-2" data-name="Capa 1"><circle class="cls-1" cx="48.27" cy="48.27" r="48.27"/><circle class="cls-2" cx="48.27" cy="48.27" r="45.17"/><path class="cls-3" d="M92.71,56.65,74.49,38.43c-1.64,1.82-2.73,1.09-4.19-.18l-.18-.18c-.18-.18-.36-.36-.36-.55l-.36-.36c-1.64-1.64-2.73-2.55-4.19-.55l-.73-.91c-.18-.18-.55,0-.73.18s0,.55.18.73h0v4.74l-2.19-2.19h0L48.45,26,35.15,39.16,38.8,42.8v4.74l.36.36H21.31V70.67L43.9,93.25a36.58,36.58,0,0,0,4.55.18A45.29,45.29,0,0,0,92.71,56.65Z"/><rect class="cls-4" x="37.16" y="59.38" width="4.37" height="4.55"/><rect class="cls-4" x="30.6" y="59.38" width="4.92" height="4.55"/><rect class="cls-4" x="24.59" y="59.38" width="4.37" height="4.55"/><rect class="cls-4" x="24.59" y="53.18" width="4.37" height="4.55"/><rect class="cls-4" x="30.6" y="53.18" width="4.92" height="4.55"/><rect class="cls-4" x="37.16" y="53.18" width="4.37" height="4.55"/><rect class="cls-4" x="55.01" y="59.38" width="4.37" height="4.55"/><rect class="cls-4" x="61.02" y="59.38" width="4.92" height="4.55"/><rect class="cls-4" x="67.57" y="59.38" width="4.37" height="4.55"/><rect class="cls-4" x="67.57" y="53.18" width="4.37" height="4.55"/><rect class="cls-4" x="61.02" y="53.18" width="4.92" height="4.55"/><rect class="cls-4" x="55.01" y="53.18" width="4.37" height="4.55"/><path class="cls-5" d="M74.31,38.43c.18,2.73-2,2.73-2.55,3.1a3.61,3.61,0,0,0,3.28.55c-1.64,2.91-3.82,2.37-5.83.36s-2.91-2.91-4.74,0v-5.1c1.64-2.91,2.73-2,4.74,0C71,39.16,72.31,40.62,74.31,38.43Z"/><polygon class="cls-5" points="61.56 39.16 57.92 39.16 48.27 29.51 38.61 39.16 34.97 39.16 48.27 26.05 61.56 39.16"/><path class="cls-6" d="M57.92,40.25h0v7.47H38.61V40.25h0l9.65-9.65Zm-5.1.55a4.55,4.55,0,1,0-4.55,4.55A4.51,4.51,0,0,0,52.82,40.8Z"/><path class="cls-7" d="M51.55,70.67H21.13V47.9H63.75V36.43h0c-.18-.18-.36-.36-.18-.73.18-.18.36-.36.73-.18.18.18.36.36.18.73l-.18.18h0V47.9H75.41V70.67H51.55Zm-.18,3.1V60.65H45v10m27-6.74V59.38H67.57v4.55Zm0-6.19V53.18H67.57v4.55Zm-6,6.19V59.38H61v4.55Zm0-6.19V53.18H61v4.55Zm-6.56,6.19V59.38H55v4.55Zm0-6.19V53.18H55v4.55ZM41.53,63.93V59.38H37.16v4.55Zm0-6.19V53.18H37.16v4.55Zm-6,6.19V59.38H30.6v4.55Zm0-6.19V53.18H30.6v4.55ZM29,63.93V59.38H24.59v4.55Zm0-6.19V53.18H24.59v4.55Z"/><path class="cls-8" d="M48.27,37.16a3.64,3.64,0,1,1-3.64,3.64A3.65,3.65,0,0,1,48.27,37.16ZM51.55,41a.36.36,0,1,0-.36.36Zm-1.27,1.64v-.36l-1.82-1.64v-3.1a.18.18,0,1,0-.36,0V40.8h0l1.82,1.64c.18.36.18.36.36.18Zm-1.64,1.09a.36.36,0,1,0-.36.36A.39.39,0,0,0,48.63,43.71ZM45.53,41a.36.36,0,1,0-.36.36Z"/><path class="cls-8" d="M48.27,36.25a4.55,4.55,0,1,1-4.55,4.55A4.51,4.51,0,0,1,48.27,36.25Zm4,4.55a4,4,0,1,0-4,4A4,4,0,0,0,52.27,40.8Z"/><path class="cls-6" d="M48.27,36.79a4,4,0,1,1-4,4A4,4,0,0,1,48.27,36.79Zm3.64,4a3.64,3.64,0,1,0-3.64,3.64A3.65,3.65,0,0,0,51.91,40.8Z"/><path class="cls-5" d="M50.27,42.44c.18,0,.18.18,0,.36h-.36l-1.82-1.64h0V37.88a.18.18,0,1,1,.36,0V41Z"/><circle class="cls-9" cx="51.36" cy="40.98" r="0.36"/><circle class="cls-9" cx="48.45" cy="43.71" r="0.36"/><circle class="cls-9" cx="45.17" cy="40.98" r="0.36"/><rect class="cls-3" x="44.81" y="59.01" width="7.1" height="18.03"/></g></g></svg>