<svg xmlns="http://www.w3.org/2000/svg" viewBox="0 0 96.53 96.53"><defs><style>.cls-1{fill:#fff;}.cls-2{fill:#2c5872;}.cls-3{fill:#12303f;}.cls-4{fill:#9d3840;}.cls-5{fill:#e67365;}.cls-6{fill:#55718a;}.cls-7{fill:#0c2046;}.cls-8{fill:#e9622b;}.cls-9{fill:#c1dfe7;}</style></defs><title>vinculacion2</title><g id="Capa_2" data-name="Capa 2"><g id="Capa_1-2" data-name="Capa 1"><circle class="cls-1" cx="48.27" cy="48.27" r="48.27"/><circle class="cls-2" cx="48.27" cy="48.08" r="45.17"/><path class="cls-3" d="M50.82,19.31a5.8,5.8,0,0,0-4.92,0L17.85,35c-1.46.73-1.46,2,0,2.73L31.69,51.55q4.64,4.64,9.29,9.84H26.23c-.91,0-1.82,2.37-1.82,5.1,0,2.91.73,5.1,1.82,5.1,0,0,15.48,13.11,25.5,21.67a45.09,45.09,0,0,0,41.53-45h0L78.68,34.61Z"/><path class="cls-4" d="M17.85,35c-1.46.73-1.46,2,0,2.73L45.9,53a5.8,5.8,0,0,0,4.92,0l28-15.66c1.46-.73,1.46-2,0-2.73l-28-15.3a5.8,5.8,0,0,0-4.92,0Z"/><path class="cls-4" d="M65,51.36c0,5.28-33.33,5.28-33.33,0V37H65Z"/><path class="cls-5" d="M65,51.73c0-5.65-33.33-5.83-33.33,0V37c0-5.28,33.33-5.83,33.33,0Z"/><rect class="cls-6" x="70.31" y="30.6" width="1.09" height="16.21"/><path class="cls-6" d="M73.22,55.92c.55,1.09-5.1,1.09-4.74,0l1.64-7.47H71.4Z"/><circle class="cls-7" cx="70.85" cy="47.36" r="1.09"/><polygon class="cls-8" points="37.16 79.05 39.16 78.14 40.25 80.14 43.53 70.67 40.98 69.76 37.16 79.05"/><polygon class="cls-8" points="47.72 77.77 45.53 76.86 44.44 78.87 41.16 69.39 43.71 68.48 47.72 77.77"/><rect class="cls-1" x="26.41" y="61.2" width="46.08" height="10.2"/><ellipse class="cls-9" cx="26.41" cy="66.3" rx="1.82" ry="5.1"/><ellipse class="cls-1" cx="72.67" cy="66.3" rx="1.82" ry="5.1"/><path class="cls-8" d="M41.89,66.3c0-2.91-.73-5.1-1.82-5.1H43.9c1.09,0,1.82,2.37,1.82,5.1,0,2.91-.73,5.1-1.82,5.1H40.07C41,71.58,41.89,69.21,41.89,66.3Z"/></g></g></svg>