<svg xmlns="http://www.w3.org/2000/svg" viewBox="0 0 96.53 96.53"><defs><style>.cls-1{fill:#fff;}.cls-2{fill:#2c5872;}.cls-3{fill:#12303f;}.cls-4{fill:#9d3840;}.cls-5{fill:#e67365;}.cls-6{fill:#af3e32;}.cls-7{fill:#eb7151;}</style></defs><title>vinculacion4</title><g id="Capa_2" data-name="Capa 2"><g id="Capa_1-2" data-name="Capa 1"><circle class="cls-1" cx="48.27" cy="48.27" r="48.27"/><circle class="cls-2" cx="48.45" cy="48.45" r="45.17"/><path class="cls-3" d="M93.62,48.45V46.81L81.05,31.69l-3.82,3.1-4,.18L54.46,18.21l-3.28,3.28L47,18.4l-.36,8.92L31.69,28v2.37l31.69,14L35.15,40.07,25,58.83,10.75,69.21,62.66,91.43A45.6,45.6,0,0,0,93.62,48.45Z"/><path class="cls-4" d="M80,65.57V35.33h.91V31.69H11.66v3.64h1.09V65.57h-2v3.64H82V65.57ZM27.14,60.83h-10V57h10Zm0-6.37h-10V50.63h10Zm0-6.19h-10V44.44h10Zm0-6.19h-10V38.25h10Zm12,18.76h-10V57h10Zm0-6.37h-10V50.63h10Zm0-6.19h-10V44.44h10Zm0-6.19h-10V38.25h10Zm12.2,23.5H41.53V57h9.84Zm0-11.11h-10V50.63h10Zm0-6.19h-10V44.44h10Zm0-6.19h-10V38.25h10Zm12,18.76h-10V57h10Zm0-6.37h-10V50.63h10Zm0-6.19h-10V44.44h10Zm0-6.19h-10V38.25h10Zm12.2,18.76h-10V57h10Zm0-6.37h-10V50.63h10Zm0-6.19h-10V44.44h10Zm0-6.19h-10V38.25h10Z"/><rect class="cls-3" x="41.53" y="56.83" width="9.84" height="12.39"/><rect class="cls-5" x="17.12" y="56.83" width="10.02" height="3.82"/><rect class="cls-5" x="17.12" y="50.63" width="10.02" height="3.82"/><rect class="cls-5" x="17.12" y="38.07" width="10.02" height="3.82"/><rect class="cls-5" x="17.12" y="44.44" width="10.02" height="3.82"/><rect class="cls-5" x="29.32" y="56.83" width="10.02" height="3.82"/><rect class="cls-5" x="29.32" y="50.63" width="10.02" height="3.82"/><rect class="cls-5" x="29.32" y="38.07" width="10.02" height="3.82"/><rect class="cls-5" x="29.32" y="44.44" width="10.02" height="3.82"/><rect class="cls-5" x="53.55" y="56.83" width="10.02" height="3.82"/><rect class="cls-5" x="53.55" y="50.63" width="10.02" height="3.82"/><rect class="cls-5" x="53.55" y="38.07" width="10.02" height="3.82"/><rect class="cls-5" x="53.55" y="44.44" width="10.02" height="3.82"/><rect class="cls-5" x="65.57" y="56.83" width="10.02" height="3.82"/><rect class="cls-5" x="65.57" y="50.63" width="10.02" height="3.82"/><rect class="cls-5" x="65.57" y="38.07" width="10.02" height="3.82"/><rect class="cls-5" x="65.57" y="44.44" width="10.02" height="3.82"/><rect class="cls-5" x="41.35" y="50.63" width="10.02" height="3.82"/><rect class="cls-5" x="41.35" y="38.07" width="10.02" height="3.82"/><rect class="cls-5" x="41.35" y="44.44" width="10.02" height="3.82"/><path class="cls-6" d="M47.54,18.4a6.67,6.67,0,0,1,3.82-.18c1.09.36,1.82.73,3.1,0V22.4a3.76,3.76,0,0,1-3.64.36,3,3,0,0,0-3.28.18V18.4Z"/><polygon class="cls-7" points="45.72 25.32 45.72 18.4 46.99 18.4 46.99 25.32 45.72 25.32"/><path class="cls-7" d="M30.05,26H62.47v1.64H61.2v2.73H31.51V27.68H30.23L30.05,26Z"/></g></g></svg>