<svg xmlns="http://www.w3.org/2000/svg" viewBox="0 0 96.53 96.53"><defs><style>.cls-1{fill:#fff;}.cls-2{fill:#2c5872;}.cls-3{fill:#12303f;}.cls-4{fill:#883320;}.cls-5{fill:#a03c25;}.cls-6{fill:#e58b1f;}.cls-7{fill:#eaa719;}.cls-8{fill:#662617;}</style></defs><title>vinculacion1</title><g id="Capa_2" data-name="Capa 2"><g id="Capa_1-2" data-name="Capa 1"><circle class="cls-1" cx="48.27" cy="48.27" r="48.27"/><circle class="cls-2" cx="48.45" cy="48.45" r="45.17"/><path class="cls-3" d="M93.62,48.45V46.81L52.09,21.67l-2.37,6.56L37.16,21.86,33.51,51.18,50.82,55,63.2,60.65h4.74v4.74h2.19v4.74H16L62.66,91.25A45.2,45.2,0,0,0,93.62,48.45Z"/><polygon class="cls-4" points="38.25 69.76 42.8 69.76 42.8 42.8 38.25 48.09 38.25 69.76"/><polygon class="cls-5" points="58.65 69.76 42.8 69.76 42.8 42.8 58.65 48.09 58.65 69.76"/><polygon class="cls-6" points="42.8 47.36 58.65 52.82 58.65 69.76 42.8 69.76 38.25 69.76 38.25 52.82 42.8 47.36"/><polygon class="cls-4" points="58.47 69.76 63.02 69.76 63.02 42.8 58.47 48.09 58.47 69.76"/><polygon class="cls-5" points="78.68 69.76 63.02 69.76 63.02 42.8 78.68 48.09 78.68 69.76"/><polygon class="cls-6" points="63.02 47.36 78.68 52.82 78.68 69.76 63.02 69.76 58.47 69.76 58.47 52.82 63.02 47.36"/><polygon class="cls-7" points="63.02 49.18 78.68 54.46 78.68 69.76 63.02 69.76 58.47 69.76 58.47 54.46 63.02 49.18"/><polygon class="cls-7" points="42.8 49.18 58.65 54.46 58.65 69.76 42.8 69.76 38.25 69.76 38.25 54.46 42.8 49.18"/><rect class="cls-7" x="16.03" y="30.23" width="22.22" height="39.71"/><rect class="cls-5" x="33.7" y="30.23" width="2.73" height="39.71"/><rect class="cls-5" x="28.23" y="30.23" width="2.73" height="39.71"/><rect class="cls-5" x="22.95" y="30.23" width="2.73" height="39.71"/><rect class="cls-5" x="17.49" y="30.23" width="2.73" height="39.71"/><polygon class="cls-6" points="16.03 30.42 38.25 30.42 37.34 21.49 17.12 21.49 16.03 30.42"/><polygon class="cls-4" points="44.99 21.67 52.09 21.67 52.09 47.54 44.99 45.17 44.99 45.17 44.99 21.67"/><rect class="cls-8" x="45.35" y="21.86" width="6.19" height="0.73"/><polygon class="cls-4" points="65.75 38.07 72.86 38.07 72.86 47.54 65.75 45.17 65.75 45.17 65.75 38.07"/><rect class="cls-8" x="66.12" y="38.43" width="6.19" height="0.73"/><rect class="cls-5" x="71.58" y="53.37" width="2.19" height="12.39"/><rect class="cls-5" x="67.39" y="53.37" width="2.19" height="12.39"/><rect class="cls-5" x="63.2" y="53.37" width="2.19" height="12.39"/><rect class="cls-5" x="50.82" y="53.37" width="2.19" height="12.39"/><rect class="cls-5" x="46.63" y="53.37" width="2.19" height="12.39"/><rect class="cls-5" x="42.44" y="53.37" width="2.19" height="12.39"/><rect class="cls-6" x="16.03" y="69.21" width="62.84" height="1.46"/></g></g></svg>