<?xml version="1.0" encoding="utf-8"?>
<!-- Generator: Adobe Illustrator 16.0.0, SVG Export Plug-In . SVG Version: 6.00 Build 0)  -->
<!DOCTYPE svg PUBLIC "-//W3C//DTD SVG 1.1//EN" "http://www.w3.org/Graphics/SVG/1.1/DTD/svg11.dtd">
<svg version="1.1" id="Capa_1" xmlns="http://www.w3.org/2000/svg" xmlns:xlink="http://www.w3.org/1999/xlink" x="0px" y="0px"
	 width="482.035px" height="280.134px" viewBox="0 0 482.035 280.134" enable-background="new 0 0 482.035 280.134"
	 xml:space="preserve">
<g>
	<path fill="#3A0048" d="M91.893,22.537c-0.047,0.325-0.186,0.464-0.535,0.418c-0.743-0.093-2.068-0.209-3.044-0.209
		c-0.929,0-1.905,0.209-2.44,3.091l-0.348,1.882c-0.117,0.628-0.163,1.115-0.163,1.511c0,1.487,0.72,1.58,1.534,1.58
		c0.906,0,2.37-0.14,3.113-0.209c0.396-0.047,0.418,0.14,0.372,0.418l-0.65,3.672c-0.047,0.303-0.14,0.372-0.558,0.512
		c-0.791,0.256-1.859,0.441-3.138,0.441c-4.253,0-6.274-2.231-6.274-5.81c0-0.674,0.07-1.371,0.209-2.115l0.349-1.882
		c1.093-5.903,3.812-7.925,8.691-7.925c1.278,0,2.487,0.209,3.114,0.441c0.256,0.093,0.465,0.186,0.418,0.512L91.893,22.537z"/>
	<path fill="#3A0048" d="M106.234,35.411h-4.811c-0.256,0-0.395-0.209-0.395-0.465l0.022-2.603H97.52l-0.859,2.603
		c-0.094,0.256-0.326,0.465-0.582,0.465h-4.856c-0.187,0-0.302-0.093-0.302-0.256c0-0.069,0.023-0.14,0.047-0.209l5.229-14.036
		c0.883-2.371,2.812-2.998,5.646-2.998c2.836,0,4.485,0.627,4.531,2.998l0.303,14.036v0.023
		C106.676,35.226,106.49,35.411,106.234,35.411z M101.052,22.351c-0.186,0-0.186,0.116-0.255,0.303l-1.813,5.414h2.138l0.094-5.414
		c0-0.047,0-0.094,0-0.116C101.215,22.421,101.191,22.351,101.052,22.351z"/>
	<path fill="#3A0048" d="M126.363,18.609l-2.812,15.988c-0.069,0.441-0.278,0.813-0.952,0.813h-3.975
		c-0.349,0-0.535-0.232-0.65-0.512l-2.719-6.391c-0.07-0.186-0.117-0.186-0.163-0.186c-0.023,0-0.023,0-0.023,0
		c-0.069,0-0.14,0.047-0.163,0.209l-1.115,6.414c-0.047,0.256-0.162,0.465-0.58,0.465h-4.254c-0.255,0-0.465-0.116-0.395-0.465
		l2.813-15.988c0.069-0.441,0.348-0.813,0.952-0.813h3.812c0.418,0,0.627,0.325,0.767,0.65l2.766,6.414
		c0.093,0.209,0.163,0.209,0.209,0.209c0.069,0,0.093,0,0.14-0.209l1.162-6.6c0.047-0.256,0.162-0.465,0.558-0.465h4.253
		C126.34,18.145,126.41,18.377,126.363,18.609z"/>
	<path fill="#3A0048" d="M141.172,18.609l-0.604,3.532c-0.047,0.256-0.141,0.465-0.582,0.465h-3.16l-2.161,12.34
		c-0.046,0.256-0.14,0.465-0.558,0.465h-4.531c-0.326,0-0.419-0.232-0.373-0.465l2.162-12.34h-3.254
		c-0.279,0-0.441-0.116-0.371-0.465l0.604-3.532c0.047-0.256,0.303-0.465,0.558-0.465h11.876
		C141.125,18.145,141.219,18.354,141.172,18.609z"/>
	<path fill="#3A0048" d="M148.635,18.609l-2.857,16.337c-0.047,0.256-0.117,0.465-0.559,0.465h-4.531
		c-0.325,0-0.441-0.209-0.395-0.465l2.857-16.337c0.047-0.256,0.187-0.465,0.582-0.465h4.531
		C148.543,18.145,148.682,18.308,148.635,18.609z"/>
	<path fill="#3A0048" d="M164.277,25.721l-0.396,2.114c-1.115,5.903-4.159,7.809-9.017,7.809c-2.51,0-4.253-0.186-5.646-0.441
		c-0.442-0.093-0.675-0.232-0.675-0.674c0-0.093,0-0.209,0.023-0.325l2.626-14.851c0.116-0.697,0.395-0.906,0.977-0.999
		c1.486-0.256,3.276-0.441,5.786-0.441c3.812,0,6.507,1.976,6.507,5.833C164.463,24.35,164.416,25.023,164.277,25.721z
		 M157.119,22.606h-1.022l-1.464,8.343h1.022c1.627,0,2.185-0.534,2.673-3.114l0.395-2.114c0.116-0.628,0.186-1.139,0.186-1.558
		C158.908,22.932,158.352,22.606,157.119,22.606z"/>
	<path fill="#3A0048" d="M179.295,35.411h-4.811c-0.256,0-0.396-0.209-0.396-0.465l0.022-2.603h-3.531l-0.86,2.603
		c-0.093,0.256-0.325,0.465-0.581,0.465h-4.857c-0.186,0-0.302-0.093-0.302-0.256c0-0.069,0.023-0.14,0.047-0.209l5.229-14.036
		c0.884-2.371,2.812-2.998,5.647-2.998c2.835,0,4.484,0.627,4.531,2.998l0.303,14.036v0.023
		C179.736,35.226,179.55,35.411,179.295,35.411z M174.111,22.351c-0.186,0-0.186,0.116-0.255,0.303l-1.813,5.414h2.138l0.093-5.414
		c0-0.047,0-0.094,0-0.116C174.274,22.421,174.252,22.351,174.111,22.351z"/>
	<path fill="#3A0048" d="M197.332,25.721l-0.395,2.114c-1.115,5.903-4.16,7.809-9.018,7.809c-2.51,0-4.252-0.186-5.646-0.441
		c-0.441-0.093-0.674-0.232-0.674-0.674c0-0.093,0-0.209,0.023-0.325l2.625-14.851c0.117-0.697,0.396-0.906,0.977-0.999
		c1.487-0.256,3.277-0.441,5.787-0.441c3.811,0,6.506,1.976,6.506,5.833C197.518,24.35,197.472,25.023,197.332,25.721z
		 M190.175,22.606h-1.022l-1.465,8.343h1.023c1.627,0,2.184-0.534,2.672-3.114l0.395-2.114c0.117-0.628,0.187-1.139,0.187-1.558
		C191.964,22.932,191.406,22.606,190.175,22.606z"/>
	<path fill="#3A0048" d="M219.09,25.721l-0.395,2.114c-1.115,5.903-4.16,7.809-9.018,7.809c-2.51,0-4.252-0.186-5.646-0.441
		c-0.441-0.093-0.674-0.232-0.674-0.674c0-0.093,0-0.209,0.023-0.325l2.625-14.851c0.117-0.697,0.396-0.906,0.977-0.999
		c1.487-0.256,3.277-0.441,5.787-0.441c3.811,0,6.506,1.976,6.506,5.833C219.275,24.35,219.229,25.023,219.09,25.721z
		 M211.933,22.606h-1.022l-1.465,8.343h1.023c1.627,0,2.184-0.534,2.672-3.114l0.395-2.114c0.117-0.628,0.187-1.139,0.187-1.558
		C213.722,22.932,213.164,22.606,211.933,22.606z"/>
	<path fill="#3A0048" d="M233.805,18.633l-0.604,3.509c-0.047,0.256-0.164,0.465-0.559,0.465h-4.671
		c-0.581,0-0.767,0.162-0.884,0.743l-0.231,1.255h5.438c0.279,0,0.442,0.163,0.372,0.465l-0.558,3.277
		c-0.047,0.256-0.302,0.465-0.558,0.465h-5.438l-0.209,1.139c-0.069,0.371-0.069,0.465-0.069,0.558c0,0.325,0.209,0.441,0.674,0.441
		h4.671c0.278,0,0.419,0.163,0.372,0.465l-0.604,3.509c-0.046,0.256-0.116,0.419-0.558,0.465c-0.977,0.116-2.695,0.256-4.718,0.256
		c-2.882,0-5.415-0.999-5.415-4.16c0-0.395,0.023-0.813,0.117-1.277l1.23-6.856c0.93-5.205,4.277-5.438,7.205-5.438
		c2.021,0,3.672,0.14,4.625,0.256C233.712,18.191,233.852,18.33,233.805,18.633z"/>
	<path fill="#3A0048" d="M255.004,23.978l-0.023,0.163c-0.744,5.158-5.252,6.065-8.506,6.065c-0.465,0-0.743-0.023-1.395-0.047
		l-0.836,4.787c-0.047,0.256-0.162,0.465-0.558,0.465h-4.532c-0.162,0-0.395-0.116-0.348-0.372l2.625-14.873
		c0.256-1.44,0.697-1.766,1.976-1.975c1.186-0.187,3.532-0.279,5.136-0.279c3.138,0,6.53,1.231,6.53,5.043
		C255.073,23.28,255.051,23.605,255.004,23.978z M247.846,22.49h-1.417l-0.558,3.138h1.418c1.185,0,2.114-0.488,2.254-1.487
		l0.023-0.163c0.022-0.093,0.022-0.186,0.022-0.279C249.589,22.839,248.915,22.49,247.846,22.49z"/>
	<path fill="#3A0048" d="M269.486,35.411h-4.811c-0.256,0-0.395-0.209-0.395-0.465l0.022-2.603h-3.532l-0.859,2.603
		c-0.094,0.256-0.326,0.465-0.582,0.465h-4.856c-0.187,0-0.302-0.093-0.302-0.256c0-0.069,0.023-0.14,0.047-0.209l5.229-14.036
		c0.883-2.371,2.812-2.998,5.646-2.998c2.836,0,4.485,0.627,4.531,2.998l0.303,14.036v0.023
		C269.928,35.226,269.742,35.411,269.486,35.411z M264.304,22.351c-0.186,0-0.186,0.116-0.255,0.303l-1.813,5.414h2.138l0.094-5.414
		c0-0.047,0-0.094,0-0.116C264.467,22.421,264.443,22.351,264.304,22.351z"/>
	<path fill="#3A0048" d="M284.41,28.672l2.138,6.065c0.023,0.069,0.023,0.14,0.023,0.186c0,0.303-0.163,0.488-0.487,0.488h-4.881
		c-0.256,0-0.303-0.232-0.372-0.465l-1.813-5.461h-0.883l-0.953,5.461c-0.046,0.256-0.163,0.465-0.558,0.465h-4.531
		c-0.256,0-0.465-0.116-0.396-0.465l2.603-14.78c0.256-1.44,0.697-1.766,1.976-1.975c0.813-0.116,3.532-0.279,5.136-0.279
		c4.229,0,6.693,1.534,6.693,4.834C288.105,25.023,286.92,27.695,284.41,28.672z M281.11,22.49h-1.743l-0.512,2.928h1.743
		c1.534,0,1.929-0.859,1.929-1.742C282.527,22.839,282.109,22.49,281.11,22.49z"/>
	<path fill="#3A0048" d="M303.68,18.609l-0.604,3.532c-0.047,0.256-0.141,0.465-0.582,0.465h-3.16l-2.161,12.34
		c-0.046,0.256-0.14,0.465-0.558,0.465h-4.531c-0.326,0-0.419-0.232-0.373-0.465l2.162-12.34h-3.254
		c-0.279,0-0.441-0.116-0.371-0.465l0.604-3.532c0.047-0.256,0.303-0.465,0.558-0.465h11.876
		C303.633,18.145,303.727,18.354,303.68,18.609z"/>
	<path fill="#3A0048" d="M311.143,18.609l-2.857,16.337c-0.047,0.256-0.117,0.465-0.559,0.465h-4.531
		c-0.325,0-0.441-0.209-0.395-0.465l2.857-16.337c0.047-0.256,0.187-0.465,0.582-0.465h4.531
		C311.051,18.145,311.189,18.308,311.143,18.609z"/>
	<path fill="#3A0048" d="M323.787,22.537c-0.046,0.325-0.186,0.464-0.534,0.418c-0.743-0.093-2.068-0.209-3.044-0.209
		c-0.93,0-1.906,0.209-2.44,3.091l-0.349,1.882c-0.116,0.628-0.162,1.115-0.162,1.511c0,1.487,0.72,1.58,1.533,1.58
		c0.906,0,2.371-0.14,3.114-0.209c0.396-0.047,0.418,0.14,0.372,0.418l-0.65,3.672c-0.047,0.303-0.141,0.372-0.559,0.512
		c-0.79,0.256-1.859,0.441-3.137,0.441c-4.253,0-6.275-2.231-6.275-5.81c0-0.674,0.07-1.371,0.209-2.115l0.35-1.882
		c1.092-5.903,3.811-7.925,8.691-7.925c1.277,0,2.486,0.209,3.113,0.441c0.256,0.093,0.465,0.186,0.418,0.512L323.787,22.537z"/>
	<path fill="#3A0048" d="M332.156,18.609l-2.857,16.337c-0.047,0.256-0.117,0.465-0.559,0.465h-4.531
		c-0.325,0-0.441-0.209-0.395-0.465l2.857-16.337c0.047-0.256,0.187-0.465,0.582-0.465h4.531
		C332.064,18.145,332.203,18.308,332.156,18.609z"/>
	<path fill="#3A0048" d="M348.125,23.978l-0.023,0.163c-0.744,5.158-5.252,6.065-8.506,6.065c-0.465,0-0.744-0.023-1.395-0.047
		l-0.836,4.787c-0.047,0.256-0.163,0.465-0.559,0.465h-4.531c-0.162,0-0.395-0.116-0.349-0.372l2.626-14.873
		c0.256-1.44,0.697-1.766,1.975-1.975c1.186-0.187,3.533-0.279,5.137-0.279c3.137,0,6.529,1.231,6.529,5.043
		C348.193,23.28,348.171,23.605,348.125,23.978z M340.967,22.49h-1.418l-0.558,3.138h1.418c1.185,0,2.114-0.488,2.254-1.487
		l0.023-0.163c0.022-0.093,0.022-0.186,0.022-0.279C342.709,22.839,342.035,22.49,340.967,22.49z"/>
	<path fill="#3A0048" d="M362.606,35.411h-4.811c-0.256,0-0.396-0.209-0.396-0.465l0.023-2.603h-3.532l-0.86,2.603
		c-0.092,0.256-0.324,0.465-0.58,0.465h-4.857c-0.186,0-0.303-0.093-0.303-0.256c0-0.069,0.023-0.14,0.047-0.209l5.229-14.036
		c0.884-2.371,2.813-2.998,5.648-2.998c2.834,0,4.484,0.627,4.531,2.998l0.302,14.036v0.023
		C363.048,35.226,362.861,35.411,362.606,35.411z M357.424,22.351c-0.186,0-0.186,0.116-0.256,0.303l-1.813,5.414h2.139l0.093-5.414
		c0-0.047,0-0.094,0-0.116C357.587,22.421,357.563,22.351,357.424,22.351z"/>
	<path fill="#3A0048" d="M382.736,18.609l-2.813,15.988c-0.069,0.441-0.278,0.813-0.952,0.813h-3.974
		c-0.35,0-0.535-0.232-0.651-0.512l-2.719-6.391c-0.069-0.186-0.116-0.186-0.163-0.186c-0.023,0-0.023,0-0.023,0
		c-0.069,0-0.139,0.047-0.162,0.209l-1.115,6.414c-0.047,0.256-0.163,0.465-0.581,0.465h-4.253c-0.256,0-0.465-0.116-0.395-0.465
		l2.812-15.988c0.069-0.441,0.349-0.813,0.952-0.813h3.813c0.418,0,0.627,0.325,0.766,0.65l2.766,6.414
		c0.094,0.209,0.163,0.209,0.209,0.209c0.07,0,0.094,0,0.141-0.209l1.161-6.6c0.047-0.256,0.163-0.465,0.558-0.465h4.253
		C382.713,18.145,382.783,18.377,382.736,18.609z"/>
	<path fill="#3A0048" d="M397.544,18.609l-0.604,3.532c-0.047,0.256-0.139,0.465-0.58,0.465h-3.161l-2.161,12.34
		c-0.047,0.256-0.14,0.465-0.558,0.465h-4.532c-0.325,0-0.418-0.232-0.371-0.465l2.16-12.34h-3.253
		c-0.278,0-0.441-0.116-0.372-0.465l0.604-3.532c0.046-0.256,0.302-0.465,0.558-0.465h11.875
		C397.498,18.145,397.59,18.354,397.544,18.609z"/>
	<path fill="#3A0048" d="M410.678,18.633l-0.604,3.509c-0.047,0.256-0.164,0.465-0.559,0.465h-4.671
		c-0.581,0-0.767,0.162-0.884,0.743l-0.231,1.255h5.438c0.279,0,0.442,0.163,0.372,0.465l-0.558,3.277
		c-0.047,0.256-0.302,0.465-0.558,0.465h-5.438l-0.209,1.139c-0.069,0.371-0.069,0.465-0.069,0.558c0,0.325,0.209,0.441,0.674,0.441
		h4.671c0.278,0,0.419,0.163,0.372,0.465l-0.604,3.509c-0.046,0.256-0.116,0.419-0.558,0.465c-0.977,0.116-2.695,0.256-4.718,0.256
		c-2.882,0-5.415-0.999-5.415-4.16c0-0.395,0.023-0.813,0.117-1.277l1.23-6.856c0.93-5.205,4.277-5.438,7.205-5.438
		c2.021,0,3.672,0.14,4.625,0.256C410.585,18.191,410.725,18.33,410.678,18.633z"/>
	<path fill="#3A0048" d="M425.043,19.027l-0.604,3.463c-0.047,0.278-0.117,0.511-0.535,0.465c-1.208-0.116-3.857-0.349-5.601-0.349
		c-0.278,0-0.558,0.116-0.558,0.395c0,0.21,0.14,0.372,0.744,0.721l2.975,1.743c1.604,0.953,2.23,2.37,2.23,3.765
		c0,4.485-3.834,6.414-7.854,6.414c-1.999,0-3.626-0.302-4.857-0.697c-0.209-0.069-0.464-0.209-0.418-0.465l0.604-3.463
		c0.046-0.278,0.139-0.511,0.58-0.465c0.953,0.094,3.394,0.396,4.928,0.396c0.534,0,0.976-0.232,0.976-0.697
		c0-0.302-0.116-0.488-0.511-0.743l-3.138-2.022c-1.534-0.999-2.022-2.556-2.022-3.881c0-4.322,3.277-5.693,7.158-5.693
		c1.998,0,4.555,0.325,5.531,0.65C424.904,18.633,425.09,18.726,425.043,19.027z"/>
</g>
<g>
	<path fill="#F000A6" d="M30.465,53.919l-0.042,0.224c-0.183,0.98-0.63,1.611-1.569,2.073c0.604,0.435,0.842,1.093,0.842,1.751
		c0,0.042,0,0.07,0,0.112c0,0.084,0,0.182-0.015,0.266l-0.042,0.295c-0.322,2.227-1.793,3.025-4.049,3.025
		c-1.036,0-1.862-0.154-2.633-0.351c-0.112-0.028-0.225-0.112-0.225-0.224c0-0.015,0-0.028,0-0.042l0.154-0.869
		c0.028-0.153,0.141-0.252,0.295-0.252c0,0,0.014,0,0.027,0c1.093,0.099,1.975,0.196,2.647,0.196c1.093,0,1.709-0.603,1.835-1.484
		l0.042-0.295c0.028-0.154,0.028-0.294,0.028-0.434c0-0.547-0.211-0.98-1.064-0.98h-2.479c-0.14,0-0.21-0.084-0.21-0.211
		c0-0.014,0-0.027,0-0.042v-0.014l0.154-0.883c0.027-0.153,0.154-0.266,0.308-0.266h2.479c0.967,0,1.358-0.505,1.527-1.373
		l0.041-0.224c0.028-0.141,0.043-0.28,0.043-0.406c0-0.574-0.322-0.938-1.373-0.938c-0.994,0-1.443,0.084-2.703,0.195
		c-0.015,0-0.029,0-0.029,0c-0.125,0-0.209-0.069-0.209-0.195c0-0.015,0-0.042,0-0.057l0.154-0.868
		c0.027-0.14,0.168-0.238,0.308-0.267c0.826-0.195,1.709-0.35,2.745-0.35c1.682,0,3.068,0.771,3.068,2.325
		C30.521,53.54,30.507,53.723,30.465,53.919z"/>
	<path fill="#F000A6" d="M39.369,55.838l-0.182,1.036c-0.631,3.586-2.046,4.791-4.497,4.791c-1.778,0-2.956-1.121-2.956-3.362
		c0-0.434,0.057-0.91,0.141-1.429l0.182-1.036c0.658-3.712,2.172-4.805,4.496-4.805c1.793,0,2.956,1.009,2.956,3.277
		C39.509,54.773,39.467,55.277,39.369,55.838z M36.273,52.616c-0.967,0-1.821,0.687-2.27,3.222l-0.182,1.036
		c-0.099,0.574-0.141,1.051-0.141,1.443c0,1.358,0.547,1.765,1.289,1.765c0.967,0,1.82-0.673,2.27-3.208l0.182-1.036
		c0.098-0.574,0.141-1.051,0.141-1.443C37.563,53.022,37.016,52.616,36.273,52.616z"/>
	<path fill="#F000A6" d="M48.188,55.838l-0.182,1.036c-0.63,3.586-2.046,4.791-4.497,4.791c-1.778,0-2.955-1.121-2.955-3.362
		c0-0.434,0.057-0.91,0.141-1.429l0.182-1.036c0.658-3.712,2.171-4.805,4.496-4.805c1.793,0,2.955,1.009,2.955,3.277
		C48.328,54.773,48.287,55.277,48.188,55.838z M45.094,52.616c-0.967,0-1.822,0.687-2.27,3.222l-0.183,1.036
		c-0.099,0.574-0.14,1.051-0.14,1.443c0,1.358,0.546,1.765,1.289,1.765c0.966,0,1.82-0.673,2.269-3.208l0.183-1.036
		c0.098-0.574,0.14-1.051,0.14-1.443C46.382,53.022,45.836,52.616,45.094,52.616z"/>
</g>
<g>
	<path fill="#F000A6" d="M28.393,122.226l-1.416,0.841c-1.652,0.994-2.03,1.358-2.283,2.689h4.413c0.153,0,0.267,0.056,0.237,0.252
		l-0.182,1.064c-0.027,0.154-0.07,0.28-0.336,0.28h-5.939c-0.168,0-0.252-0.084-0.225-0.28l0.238-1.373
		c0.337-1.891,1.191-2.843,2.773-3.781l1.556-0.925c0.868-0.519,1.61-0.784,1.61-1.751c0-0.729-0.546-0.883-1.484-0.883
		c-0.826,0-1.975,0.154-2.83,0.21c-0.195,0.015-0.279-0.056-0.238-0.279l0.154-0.841c0.028-0.14,0.154-0.225,0.309-0.267
		c0.756-0.195,1.961-0.35,2.871-0.35c2.031,0,3.04,0.742,3.04,2.143C30.661,120.489,29.919,121.315,28.393,122.226z"/>
	<path fill="#F000A6" d="M39.369,121.638l-0.182,1.036c-0.631,3.586-2.046,4.791-4.497,4.791c-1.778,0-2.956-1.121-2.956-3.362
		c0-0.434,0.057-0.91,0.141-1.429l0.182-1.036c0.658-3.712,2.172-4.805,4.496-4.805c1.793,0,2.956,1.009,2.956,3.277
		C39.509,120.573,39.467,121.077,39.369,121.638z M36.273,118.416c-0.967,0-1.821,0.687-2.27,3.222l-0.182,1.036
		c-0.099,0.574-0.141,1.051-0.141,1.443c0,1.358,0.547,1.765,1.289,1.765c0.967,0,1.82-0.673,2.27-3.208l0.182-1.036
		c0.098-0.574,0.141-1.051,0.141-1.443C37.563,118.822,37.016,118.416,36.273,118.416z"/>
	<path fill="#F000A6" d="M48.188,121.638l-0.182,1.036c-0.63,3.586-2.046,4.791-4.497,4.791c-1.778,0-2.955-1.121-2.955-3.362
		c0-0.434,0.057-0.91,0.141-1.429l0.182-1.036c0.658-3.712,2.171-4.805,4.496-4.805c1.793,0,2.955,1.009,2.955,3.277
		C48.328,120.573,48.287,121.077,48.188,121.638z M45.094,118.416c-0.967,0-1.822,0.687-2.27,3.222l-0.183,1.036
		c-0.099,0.574-0.14,1.051-0.14,1.443c0,1.358,0.546,1.765,1.289,1.765c0.966,0,1.82-0.673,2.269-3.208l0.183-1.036
		c0.098-0.574,0.14-1.051,0.14-1.443C46.382,118.822,45.836,118.416,45.094,118.416z"/>
</g>
<g>
	<path fill="#F000A6" d="M23.279,192.774c-0.154,0-0.266-0.126-0.238-0.28l0.182-1.064c0.028-0.154,0.183-0.252,0.336-0.252h1.878
		l1.204-6.892l-1.933,0.56c-0.07,0.028-0.126,0.028-0.168,0.028c-0.099,0-0.154-0.042-0.126-0.168l0.238-1.316
		c0.014-0.084,0.041-0.126,0.125-0.154l2.62-0.813c0.084-0.028,0.183-0.056,0.336-0.056h0.925c0.154,0,0.238,0.111,0.21,0.266
		l-1.499,8.545h1.877c0.154,0,0.252,0.098,0.225,0.252l-0.182,1.064c-0.029,0.154-0.169,0.28-0.322,0.28H23.279z"/>
	<path fill="#F000A6" d="M39.369,187.06l-0.182,1.036c-0.631,3.586-2.046,4.791-4.497,4.791c-1.778,0-2.956-1.121-2.956-3.362
		c0-0.434,0.057-0.91,0.141-1.429l0.182-1.036c0.658-3.712,2.172-4.805,4.496-4.805c1.793,0,2.956,1.009,2.956,3.277
		C39.509,185.995,39.467,186.499,39.369,187.06z M36.273,183.838c-0.967,0-1.821,0.687-2.27,3.222l-0.182,1.036
		c-0.099,0.574-0.141,1.051-0.141,1.443c0,1.358,0.547,1.765,1.289,1.765c0.967,0,1.82-0.673,2.27-3.208l0.182-1.036
		c0.098-0.574,0.141-1.051,0.141-1.443C37.563,184.244,37.016,183.838,36.273,183.838z"/>
	<path fill="#F000A6" d="M48.188,187.06l-0.182,1.036c-0.63,3.586-2.046,4.791-4.497,4.791c-1.778,0-2.955-1.121-2.955-3.362
		c0-0.434,0.057-0.91,0.141-1.429l0.182-1.036c0.658-3.712,2.171-4.805,4.496-4.805c1.793,0,2.955,1.009,2.955,3.277
		C48.328,185.995,48.287,186.499,48.188,187.06z M45.094,183.838c-0.967,0-1.822,0.687-2.27,3.222l-0.183,1.036
		c-0.099,0.574-0.14,1.051-0.14,1.443c0,1.358,0.546,1.765,1.289,1.765c0.966,0,1.82-0.673,2.269-3.208l0.183-1.036
		c0.098-0.574,0.14-1.051,0.14-1.443C46.382,184.244,45.836,183.838,45.094,183.838z"/>
</g>
<g>
	<path fill="#F000A6" d="M28.393,89.144l-1.416,0.841c-1.652,0.994-2.03,1.358-2.283,2.689h4.413c0.153,0,0.267,0.056,0.237,0.252
		l-0.182,1.064c-0.027,0.154-0.07,0.28-0.336,0.28h-5.939c-0.168,0-0.252-0.084-0.225-0.28l0.238-1.373
		c0.337-1.891,1.191-2.843,2.773-3.781l1.556-0.925c0.868-0.519,1.61-0.784,1.61-1.751c0-0.729-0.546-0.883-1.484-0.883
		c-0.826,0-1.975,0.154-2.83,0.21c-0.195,0.015-0.279-0.056-0.238-0.279l0.154-0.841c0.028-0.14,0.154-0.225,0.309-0.267
		c0.756-0.195,1.961-0.35,2.871-0.35c2.031,0,3.04,0.742,3.04,2.143C30.661,87.407,29.919,88.233,28.393,89.144z"/>
	<path fill="#F000A6" d="M39.439,84.129l-0.197,1.064c-0.027,0.154-0.168,0.267-0.321,0.267h-3.796l-0.617,2.325h0.322
		c2.073,0,3.853,0.49,3.853,2.857c0,2.186-1.247,3.74-4.272,3.74c-0.826,0-1.877-0.141-2.633-0.351
		c-0.168-0.056-0.238-0.112-0.211-0.308l0.141-0.827c0.027-0.153,0.084-0.294,0.322-0.252c1.078,0.141,1.765,0.196,2.563,0.196
		c1.779,0,2.13-1.135,2.13-2.171c0-1.345-1.12-1.359-2.228-1.359h-1.877c-0.154,0-0.182-0.126-0.154-0.21l1.331-4.986
		c0.042-0.141,0.183-0.252,0.322-0.252h5.085c0.14,0,0.238,0.098,0.238,0.224c0,0.014,0,0.014,0,0.028V84.129z"/>
	<path fill="#F000A6" d="M48.188,88.556l-0.182,1.036c-0.63,3.586-2.046,4.791-4.497,4.791c-1.778,0-2.955-1.121-2.955-3.362
		c0-0.434,0.057-0.91,0.141-1.429l0.182-1.036c0.658-3.712,2.171-4.805,4.496-4.805c1.793,0,2.955,1.009,2.955,3.277
		C48.328,87.491,48.287,87.995,48.188,88.556z M45.094,85.334c-0.967,0-1.822,0.687-2.27,3.222l-0.183,1.036
		c-0.099,0.574-0.14,1.051-0.14,1.443c0,1.358,0.546,1.765,1.289,1.765c0.966,0,1.82-0.673,2.269-3.208l0.183-1.036
		c0.098-0.574,0.14-1.051,0.14-1.443C46.382,85.74,45.836,85.334,45.094,85.334z"/>
</g>
<g>
	<path fill="#F000A6" d="M23.279,160.07c-0.154,0-0.266-0.126-0.238-0.28l0.182-1.064c0.028-0.154,0.183-0.252,0.336-0.252h1.878
		l1.204-6.892l-1.933,0.56c-0.07,0.028-0.126,0.028-0.168,0.028c-0.099,0-0.154-0.042-0.126-0.168l0.238-1.316
		c0.014-0.084,0.041-0.126,0.125-0.154l2.62-0.813c0.084-0.028,0.183-0.056,0.336-0.056h0.925c0.154,0,0.238,0.111,0.21,0.266
		l-1.499,8.545h1.877c0.154,0,0.252,0.098,0.225,0.252l-0.182,1.064c-0.029,0.154-0.169,0.28-0.322,0.28H23.279z"/>
	<path fill="#F000A6" d="M39.439,149.929l-0.197,1.064c-0.027,0.154-0.168,0.267-0.321,0.267h-3.796l-0.617,2.325h0.322
		c2.073,0,3.853,0.49,3.853,2.857c0,2.186-1.247,3.74-4.272,3.74c-0.826,0-1.877-0.141-2.633-0.351
		c-0.168-0.056-0.238-0.112-0.211-0.308l0.141-0.827c0.027-0.153,0.084-0.294,0.322-0.252c1.078,0.141,1.765,0.196,2.563,0.196
		c1.779,0,2.13-1.135,2.13-2.171c0-1.345-1.12-1.359-2.228-1.359h-1.877c-0.154,0-0.182-0.126-0.154-0.21l1.331-4.986
		c0.042-0.141,0.183-0.252,0.322-0.252h5.085c0.14,0,0.238,0.098,0.238,0.224c0,0.014,0,0.014,0,0.028V149.929z"/>
	<path fill="#F000A6" d="M48.188,154.355l-0.182,1.036c-0.63,3.586-2.046,4.791-4.497,4.791c-1.778,0-2.955-1.121-2.955-3.362
		c0-0.434,0.057-0.91,0.141-1.429l0.182-1.036c0.658-3.712,2.171-4.805,4.496-4.805c1.793,0,2.955,1.009,2.955,3.277
		C48.328,153.291,48.287,153.795,48.188,154.355z M45.094,151.134c-0.967,0-1.822,0.687-2.27,3.222l-0.183,1.036
		c-0.099,0.574-0.14,1.051-0.14,1.443c0,1.358,0.546,1.765,1.289,1.765c0.966,0,1.82-0.673,2.269-3.208l0.183-1.036
		c0.098-0.574,0.14-1.051,0.14-1.443C46.382,151.54,45.836,151.134,45.094,151.134z"/>
</g>
<g>
	<path fill="#F000A6" d="M35.029,215.351l-0.196,1.064c-0.028,0.154-0.168,0.267-0.322,0.267h-3.796l-0.616,2.325h0.322
		c2.073,0,3.853,0.49,3.853,2.857c0,2.186-1.247,3.74-4.273,3.74c-0.826,0-1.877-0.141-2.633-0.351
		c-0.168-0.056-0.238-0.112-0.21-0.308l0.14-0.827c0.028-0.153,0.084-0.294,0.322-0.252c1.078,0.141,1.766,0.196,2.563,0.196
		c1.778,0,2.13-1.135,2.13-2.171c0-1.345-1.121-1.359-2.229-1.359h-1.877c-0.153,0-0.182-0.126-0.153-0.21l1.331-4.986
		c0.041-0.141,0.182-0.252,0.322-0.252h5.084c0.141,0,0.238,0.098,0.238,0.224c0,0.014,0,0.014,0,0.028V215.351z"/>
	<path fill="#F000A6" d="M43.779,219.777l-0.182,1.036c-0.631,3.586-2.046,4.791-4.497,4.791c-1.778,0-2.956-1.121-2.956-3.362
		c0-0.434,0.057-0.91,0.141-1.429l0.182-1.036c0.658-3.712,2.172-4.805,4.496-4.805c1.793,0,2.956,1.009,2.956,3.277
		C43.919,218.713,43.877,219.217,43.779,219.777z M40.684,216.556c-0.967,0-1.821,0.687-2.27,3.222l-0.182,1.036
		c-0.099,0.574-0.141,1.051-0.141,1.443c0,1.358,0.547,1.765,1.289,1.765c0.967,0,1.82-0.673,2.27-3.208l0.182-1.036
		c0.098-0.574,0.141-1.051,0.141-1.443C41.973,216.962,41.426,216.556,40.684,216.556z"/>
</g>
<g>
	<path fill="#F000A6" d="M39.369,252.481l-0.182,1.036c-0.631,3.586-2.046,4.791-4.497,4.791c-1.778,0-2.956-1.121-2.956-3.362
		c0-0.434,0.057-0.91,0.141-1.429l0.182-1.036c0.658-3.712,2.172-4.805,4.496-4.805c1.793,0,2.956,1.009,2.956,3.277
		C39.509,251.417,39.467,251.921,39.369,252.481z M36.273,249.26c-0.967,0-1.821,0.687-2.27,3.222l-0.182,1.036
		c-0.099,0.574-0.141,1.051-0.141,1.443c0,1.358,0.547,1.765,1.289,1.765c0.967,0,1.82-0.673,2.27-3.208l0.182-1.036
		c0.098-0.574,0.141-1.051,0.141-1.443C37.563,249.666,37.016,249.26,36.273,249.26z"/>
</g>
<line fill="none" stroke="#F000A6" stroke-miterlimit="10" x1="482.035" y1="222.407" x2="58.035" y2="222.407"/>
<line fill="none" stroke="#F000A6" stroke-miterlimit="10" x1="482.035" y1="253.843" x2="58.035" y2="253.843"/>
<line fill="none" stroke="#F000A6" stroke-miterlimit="10" x1="482.035" y1="156.991" x2="58.035" y2="156.991"/>
<line fill="none" stroke="#F000A6" stroke-miterlimit="10" x1="482.035" y1="91.196" x2="58.035" y2="91.196"/>
<line fill="none" stroke="#F000A6" stroke-miterlimit="10" x1="482.035" y1="190.2" x2="58.035" y2="190.2"/>
<line fill="none" stroke="#F000A6" stroke-miterlimit="10" x1="482.035" y1="124.782" x2="58.035" y2="124.782"/>
<line fill="none" stroke="#F000A6" stroke-miterlimit="10" x1="482.035" y1="58.989" x2="58.035" y2="58.989"/>
<rect y="14.395" fill="none" width="482.035" height="265.739"/>
<rect x="88.535" y="168.841" fill="#FF9C00" width="24.5" height="85"/>
<rect x="174.035" y="133.841" fill="#FF9C00" width="24.5" height="120"/>
<rect x="257.785" y="116.636" fill="#FF9C00" width="24.5" height="137.205"/>
<rect x="341.535" y="87.841" fill="#FF9C00" width="24.5" height="166"/>
<rect x="428.15" y="126.841" fill="#FF9C00" width="24.5" height="127"/>
<g>
	<path fill="#F000A6" d="M84.613,269.426l-1.415,0.841c-1.653,0.994-2.031,1.358-2.283,2.689h4.413c0.153,0,0.266,0.056,0.237,0.252
		l-0.183,1.064c-0.027,0.154-0.069,0.28-0.336,0.28h-5.939c-0.168,0-0.252-0.084-0.224-0.28l0.238-1.373
		c0.337-1.891,1.19-2.843,2.773-3.781l1.556-0.925c0.867-0.519,1.61-0.784,1.61-1.751c0-0.729-0.546-0.883-1.485-0.883
		c-0.826,0-1.975,0.154-2.829,0.21c-0.196,0.015-0.28-0.056-0.238-0.279l0.154-0.841c0.028-0.14,0.153-0.225,0.308-0.267
		c0.757-0.195,1.961-0.35,2.872-0.35c2.031,0,3.04,0.742,3.04,2.143C86.883,267.689,86.141,268.516,84.613,269.426z"/>
	<path fill="#F000A6" d="M95.59,268.838l-0.182,1.036c-0.631,3.586-2.045,4.791-4.496,4.791c-1.779,0-2.956-1.121-2.956-3.362
		c0-0.434,0.056-0.91,0.14-1.429l0.183-1.036c0.658-3.712,2.171-4.805,4.496-4.805c1.793,0,2.956,1.009,2.956,3.277
		C95.73,267.773,95.688,268.277,95.59,268.838z M92.494,265.616c-0.967,0-1.82,0.687-2.27,3.222l-0.182,1.036
		c-0.098,0.574-0.141,1.051-0.141,1.443c0,1.358,0.547,1.765,1.289,1.765c0.967,0,1.821-0.673,2.27-3.208l0.182-1.036
		c0.099-0.574,0.141-1.051,0.141-1.443C93.783,266.022,93.236,265.616,92.494,265.616z"/>
	<path fill="#F000A6" d="M97.141,274.553c-0.154,0-0.267-0.126-0.238-0.28l0.182-1.064c0.027-0.154,0.182-0.252,0.336-0.252h1.877
		l1.205-6.892l-1.934,0.56c-0.07,0.028-0.125,0.028-0.168,0.028c-0.098,0-0.154-0.042-0.126-0.168l0.238-1.316
		c0.015-0.084,0.042-0.126,0.126-0.154l2.619-0.813c0.084-0.028,0.183-0.056,0.336-0.056h0.926c0.153,0,0.237,0.111,0.209,0.266
		l-1.498,8.545h1.877c0.154,0,0.252,0.098,0.225,0.252l-0.183,1.064c-0.028,0.154-0.169,0.28-0.322,0.28H97.141z"/>
	<path fill="#F000A6" d="M105.96,274.553c-0.154,0-0.267-0.126-0.238-0.28l0.183-1.064c0.027-0.154,0.182-0.252,0.336-0.252h1.877
		l1.205-6.892l-1.934,0.56c-0.07,0.028-0.126,0.028-0.168,0.028c-0.098,0-0.154-0.042-0.127-0.168l0.238-1.316
		c0.015-0.084,0.043-0.126,0.127-0.154l2.619-0.813c0.084-0.028,0.182-0.056,0.336-0.056h0.925c0.153,0,0.237,0.111,0.21,0.266
		l-1.499,8.545h1.878c0.153,0,0.252,0.098,0.224,0.252l-0.183,1.064c-0.027,0.154-0.168,0.28-0.322,0.28H105.96z"/>
</g>
<g>
	<g>
		<path fill="#FFFFFF" d="M90.884,181.188c-0.121,0-0.21-0.099-0.188-0.22l0.144-0.837c0.021-0.12,0.143-0.197,0.264-0.197h1.475
			l0.945-5.413l-1.518,0.44c-0.055,0.021-0.1,0.021-0.133,0.021c-0.076,0-0.12-0.033-0.098-0.132l0.187-1.034
			c0.011-0.066,0.032-0.099,0.099-0.121l2.058-0.638c0.065-0.022,0.144-0.044,0.264-0.044h0.727c0.12,0,0.187,0.088,0.165,0.209
			l-1.178,6.711h1.475c0.121,0,0.197,0.077,0.176,0.197l-0.143,0.837c-0.022,0.121-0.133,0.22-0.254,0.22H90.884z"/>
		<path fill="#FFFFFF" d="M103.457,175.191l-0.033,0.176c-0.143,0.771-0.494,1.266-1.232,1.629c0.474,0.341,0.66,0.858,0.66,1.375
			c0,0.033,0,0.055,0,0.088c0,0.066,0,0.144-0.011,0.209l-0.032,0.231c-0.254,1.749-1.408,2.376-3.18,2.376
			c-0.814,0-1.463-0.121-2.068-0.275c-0.088-0.021-0.176-0.088-0.176-0.176c0-0.011,0-0.021,0-0.033l0.121-0.682
			c0.021-0.121,0.109-0.198,0.23-0.198c0,0,0.011,0,0.021,0c0.858,0.077,1.552,0.154,2.08,0.154c0.857,0,1.342-0.474,1.441-1.166
			l0.032-0.231c0.022-0.121,0.022-0.23,0.022-0.341c0-0.429-0.165-0.771-0.836-0.771h-1.947c-0.11,0-0.166-0.065-0.166-0.165
			c0-0.011,0-0.021,0-0.032v-0.012l0.121-0.692c0.022-0.121,0.121-0.209,0.242-0.209h1.947c0.76,0,1.067-0.396,1.199-1.079
			l0.033-0.176c0.021-0.109,0.033-0.22,0.033-0.318c0-0.451-0.253-0.737-1.078-0.737c-0.781,0-1.133,0.065-2.123,0.153
			c-0.012,0-0.022,0-0.022,0c-0.099,0-0.165-0.055-0.165-0.153c0-0.012,0-0.033,0-0.044l0.121-0.683
			c0.021-0.109,0.132-0.187,0.242-0.209c0.648-0.154,1.342-0.274,2.156-0.274c1.32,0,2.409,0.604,2.409,1.826
			C103.501,174.895,103.49,175.038,103.457,175.191z"/>
		<path fill="#FFFFFF" d="M110.453,176.699l-0.143,0.813c-0.496,2.816-1.606,3.763-3.531,3.763c-1.398,0-2.322-0.88-2.322-2.641
			c0-0.341,0.045-0.715,0.11-1.122l0.144-0.813c0.517-2.916,1.705-3.773,3.531-3.773c1.408,0,2.321,0.792,2.321,2.574
			C110.563,175.862,110.53,176.259,110.453,176.699z M108.021,174.169c-0.759,0-1.43,0.539-1.781,2.53l-0.144,0.813
			c-0.077,0.451-0.11,0.825-0.11,1.134c0,1.066,0.43,1.386,1.012,1.386c0.76,0,1.431-0.528,1.783-2.52l0.143-0.813
			c0.077-0.451,0.11-0.825,0.11-1.134C109.034,174.487,108.605,174.169,108.021,174.169z"/>
	</g>
</g>
<g>
	<path fill="#F000A6" d="M259.619,269.426l-1.414,0.841c-1.653,0.994-2.031,1.358-2.283,2.689h4.412
		c0.154,0,0.266,0.056,0.238,0.252l-0.183,1.064c-0.028,0.154-0.069,0.28-0.336,0.28h-5.939c-0.168,0-0.252-0.084-0.224-0.28
		l0.238-1.373c0.336-1.891,1.19-2.843,2.773-3.781l1.555-0.925c0.868-0.519,1.611-0.784,1.611-1.751
		c0-0.729-0.547-0.883-1.485-0.883c-0.827,0-1.976,0.154-2.829,0.21c-0.197,0.015-0.281-0.056-0.238-0.279l0.154-0.841
		c0.027-0.14,0.153-0.225,0.308-0.267c0.757-0.195,1.961-0.35,2.872-0.35c2.03,0,3.039,0.742,3.039,2.143
		C261.889,267.689,261.146,268.516,259.619,269.426z"/>
	<path fill="#F000A6" d="M270.597,268.838l-0.183,1.036c-0.63,3.586-2.045,4.791-4.496,4.791c-1.779,0-2.955-1.121-2.955-3.362
		c0-0.434,0.056-0.91,0.14-1.429l0.183-1.036c0.658-3.712,2.17-4.805,4.496-4.805c1.793,0,2.955,1.009,2.955,3.277
		C270.736,267.773,270.694,268.277,270.597,268.838z M267.501,265.616c-0.967,0-1.821,0.687-2.27,3.222l-0.183,1.036
		c-0.098,0.574-0.14,1.051-0.14,1.443c0,1.358,0.546,1.765,1.289,1.765c0.966,0,1.821-0.673,2.269-3.208l0.183-1.036
		c0.099-0.574,0.14-1.051,0.14-1.443C268.789,266.022,268.243,265.616,267.501,265.616z"/>
	<path fill="#F000A6" d="M272.146,274.553c-0.154,0-0.266-0.126-0.238-0.28l0.182-1.064c0.028-0.154,0.183-0.252,0.336-0.252h1.878
		l1.204-6.892l-1.933,0.56c-0.07,0.028-0.126,0.028-0.168,0.028c-0.099,0-0.154-0.042-0.126-0.168l0.238-1.316
		c0.014-0.084,0.041-0.126,0.125-0.154l2.62-0.813c0.084-0.028,0.183-0.056,0.336-0.056h0.925c0.154,0,0.238,0.111,0.21,0.266
		l-1.499,8.545h1.877c0.154,0,0.252,0.098,0.225,0.252l-0.182,1.064c-0.029,0.154-0.169,0.28-0.322,0.28H272.146z"/>
	<path fill="#F000A6" d="M288.152,266.919l-0.043,0.224c-0.182,0.98-0.63,1.611-1.568,2.073c0.603,0.435,0.841,1.093,0.841,1.751
		c0,0.042,0,0.07,0,0.112c0,0.084,0,0.182-0.015,0.266l-0.041,0.295c-0.322,2.227-1.793,3.025-4.049,3.025
		c-1.037,0-1.863-0.154-2.633-0.351c-0.113-0.028-0.225-0.112-0.225-0.224c0-0.015,0-0.028,0-0.042l0.154-0.869
		c0.027-0.153,0.14-0.252,0.294-0.252c0,0,0.015,0,0.028,0c1.092,0.099,1.975,0.196,2.646,0.196c1.094,0,1.709-0.603,1.836-1.484
		l0.041-0.295c0.029-0.154,0.029-0.294,0.029-0.434c0-0.547-0.211-0.98-1.065-0.98h-2.479c-0.14,0-0.21-0.084-0.21-0.211
		c0-0.014,0-0.027,0-0.042v-0.014l0.154-0.883c0.028-0.153,0.154-0.266,0.308-0.266h2.48c0.966,0,1.358-0.505,1.526-1.373
		l0.042-0.224c0.027-0.141,0.042-0.28,0.042-0.406c0-0.574-0.322-0.938-1.373-0.938c-0.994,0-1.442,0.084-2.703,0.195
		c-0.015,0-0.028,0-0.028,0c-0.126,0-0.21-0.069-0.21-0.195c0-0.015,0-0.042,0-0.057l0.154-0.868
		c0.028-0.14,0.168-0.238,0.308-0.267c0.826-0.195,1.709-0.35,2.746-0.35c1.681,0,3.067,0.771,3.067,2.325
		C288.208,266.54,288.193,266.723,288.152,266.919z"/>
</g>
<g>
	<g>
		<path fill="#FFFFFF" d="M264.434,125.752l-1.11,0.66c-1.298,0.781-1.595,1.066-1.794,2.112h3.467c0.12,0,0.209,0.044,0.187,0.198
			l-0.144,0.836c-0.021,0.121-0.055,0.22-0.264,0.22h-4.664c-0.133,0-0.199-0.066-0.177-0.22l0.187-1.078
			c0.265-1.485,0.936-2.233,2.179-2.971l1.222-0.727c0.682-0.406,1.265-0.615,1.265-1.375c0-0.572-0.429-0.693-1.166-0.693
			c-0.649,0-1.552,0.121-2.222,0.165c-0.154,0.012-0.221-0.044-0.188-0.22l0.121-0.66c0.021-0.109,0.121-0.176,0.242-0.209
			c0.594-0.154,1.54-0.274,2.255-0.274c1.595,0,2.388,0.583,2.388,1.683C266.217,124.388,265.633,125.037,264.434,125.752z"/>
		<path fill="#FFFFFF" d="M267.349,129.778c-0.121,0-0.21-0.099-0.188-0.22l0.144-0.836c0.021-0.121,0.143-0.198,0.264-0.198h1.475
			l0.945-5.413l-1.518,0.44c-0.055,0.021-0.1,0.021-0.133,0.021c-0.076,0-0.12-0.033-0.098-0.132l0.187-1.034
			c0.011-0.066,0.032-0.099,0.099-0.121l2.058-0.638c0.065-0.022,0.144-0.044,0.264-0.044h0.727c0.12,0,0.187,0.088,0.165,0.209
			l-1.178,6.711h1.475c0.121,0,0.197,0.077,0.176,0.198l-0.143,0.836c-0.022,0.121-0.133,0.22-0.254,0.22H267.349z"/>
		<path fill="#FFFFFF" d="M279.988,125.29l-0.143,0.813c-0.496,2.816-1.606,3.763-3.531,3.763c-1.398,0-2.322-0.88-2.322-2.641
			c0-0.341,0.045-0.715,0.11-1.122l0.144-0.813c0.517-2.916,1.705-3.773,3.531-3.773c1.408,0,2.321,0.792,2.321,2.574
			C280.099,124.453,280.065,124.85,279.988,125.29z M277.557,122.76c-0.759,0-1.43,0.539-1.781,2.53l-0.144,0.813
			c-0.077,0.451-0.11,0.825-0.11,1.134c0,1.066,0.43,1.386,1.012,1.386c0.76,0,1.431-0.528,1.783-2.52l0.143-0.813
			c0.077-0.451,0.11-0.825,0.11-1.134C278.569,123.078,278.141,122.76,277.557,122.76z"/>
	</g>
</g>
<g>
	<path fill="#F000A6" d="M175.565,269.426l-1.415,0.841c-1.652,0.994-2.031,1.358-2.283,2.689h4.412
		c0.154,0,0.267,0.056,0.238,0.252l-0.182,1.064c-0.028,0.154-0.07,0.28-0.336,0.28h-5.939c-0.168,0-0.252-0.084-0.225-0.28
		l0.238-1.373c0.336-1.891,1.191-2.843,2.773-3.781l1.555-0.925c0.869-0.519,1.611-0.784,1.611-1.751
		c0-0.729-0.547-0.883-1.484-0.883c-0.827,0-1.976,0.154-2.83,0.21c-0.196,0.015-0.28-0.056-0.238-0.279l0.154-0.841
		c0.027-0.14,0.154-0.225,0.309-0.267c0.756-0.195,1.961-0.35,2.871-0.35c2.031,0,3.039,0.742,3.039,2.143
		C177.834,267.689,177.092,268.516,175.565,269.426z"/>
	<path fill="#F000A6" d="M186.542,268.838l-0.182,1.036c-0.63,3.586-2.046,4.791-4.497,4.791c-1.778,0-2.955-1.121-2.955-3.362
		c0-0.434,0.057-0.91,0.141-1.429l0.182-1.036c0.658-3.712,2.171-4.805,4.496-4.805c1.793,0,2.955,1.009,2.955,3.277
		C186.682,267.773,186.641,268.277,186.542,268.838z M183.447,265.616c-0.967,0-1.822,0.687-2.27,3.222l-0.183,1.036
		c-0.099,0.574-0.14,1.051-0.14,1.443c0,1.358,0.546,1.765,1.289,1.765c0.966,0,1.82-0.673,2.269-3.208l0.183-1.036
		c0.098-0.574,0.14-1.051,0.14-1.443C184.735,266.022,184.189,265.616,183.447,265.616z"/>
	<path fill="#F000A6" d="M188.092,274.553c-0.154,0-0.266-0.126-0.238-0.28l0.183-1.064c0.028-0.154,0.183-0.252,0.336-0.252h1.878
		l1.204-6.892l-1.933,0.56c-0.07,0.028-0.127,0.028-0.168,0.028c-0.099,0-0.154-0.042-0.127-0.168l0.238-1.316
		c0.014-0.084,0.042-0.126,0.126-0.154l2.62-0.813c0.084-0.028,0.182-0.056,0.336-0.056h0.924c0.154,0,0.238,0.111,0.211,0.266
		l-1.5,8.545h1.878c0.153,0,0.252,0.098,0.224,0.252l-0.182,1.064c-0.028,0.154-0.168,0.28-0.322,0.28H188.092z"/>
	<path fill="#F000A6" d="M202.025,269.426l-1.416,0.841c-1.652,0.994-2.03,1.358-2.283,2.689h4.413c0.153,0,0.267,0.056,0.237,0.252
		l-0.182,1.064c-0.027,0.154-0.07,0.28-0.336,0.28h-5.939c-0.168,0-0.252-0.084-0.225-0.28l0.238-1.373
		c0.337-1.891,1.191-2.843,2.773-3.781l1.556-0.925c0.868-0.519,1.61-0.784,1.61-1.751c0-0.729-0.546-0.883-1.484-0.883
		c-0.826,0-1.975,0.154-2.83,0.21c-0.195,0.015-0.279-0.056-0.238-0.279l0.154-0.841c0.028-0.14,0.154-0.225,0.309-0.267
		c0.756-0.195,1.961-0.35,2.871-0.35c2.031,0,3.04,0.742,3.04,2.143C204.294,267.689,203.552,268.516,202.025,269.426z"/>
</g>
<g>
	<g>
		<path fill="#FFFFFF" d="M176.203,147.264c-0.121,0-0.21-0.099-0.188-0.22l0.143-0.836c0.021-0.121,0.143-0.198,0.264-0.198h1.475
			l0.946-5.413l-1.519,0.44c-0.055,0.021-0.099,0.021-0.132,0.021c-0.077,0-0.121-0.033-0.099-0.132l0.188-1.034
			c0.01-0.066,0.032-0.099,0.098-0.121l2.059-0.638c0.065-0.022,0.143-0.044,0.264-0.044h0.727c0.12,0,0.187,0.088,0.164,0.209
			l-1.177,6.711h1.474c0.121,0,0.198,0.077,0.176,0.198l-0.143,0.836c-0.021,0.121-0.132,0.22-0.253,0.22H176.203z"/>
		<path fill="#FFFFFF" d="M187.588,143.006c0.462,0.353,0.715,0.858,0.715,1.452c0,2.035-1.441,2.894-3.301,2.894h-0.109
			c-1.221,0-2.432-0.649-2.432-1.937c0-1.243,0.583-1.979,1.375-2.409c-0.473-0.352-0.682-0.813-0.682-1.331
			c0-1.947,1.419-2.673,3.201-2.673h0.077c1.298,0,2.476,0.506,2.476,1.87C188.908,141.862,188.457,142.5,187.588,143.006z
			 M185.838,143.589h-0.451c-0.924,0-1.418,0.76-1.418,1.606c0,0.649,0.285,1.013,1.121,1.013h0.11c1.101,0,1.606-0.693,1.606-1.662
			C186.807,144.073,186.576,143.589,185.838,143.589z M186.234,140.124h-0.076c-0.969,0-1.585,0.527-1.585,1.484
			c0,0.507,0.286,0.858,1.013,0.858h0.451c0.857,0,1.43-0.627,1.43-1.463C187.467,140.442,187.07,140.124,186.234,140.124z"/>
		<path fill="#FFFFFF" d="M195.673,144.305l-0.132,0.77c-0.021,0.121-0.132,0.22-0.253,0.22h-0.813l-0.309,1.75
			c-0.021,0.121-0.121,0.22-0.242,0.22h-1.133c-0.1,0-0.154-0.077-0.154-0.165c0-0.022,0-0.033,0-0.055l0.309-1.75h-3.301
			c-0.11,0-0.188-0.076-0.188-0.187c0-0.011,0-0.022,0-0.033l0.154-0.891c0.021-0.121,0.088-0.242,0.188-0.353l4.191-4.544
			c0.099-0.109,0.197-0.197,0.352-0.197h1.002c0.109,0,0.176,0.077,0.176,0.176c0,0.021,0,0.033,0,0.044l-0.836,4.774h0.813
			c0.11,0,0.176,0.077,0.176,0.176C195.673,144.282,195.673,144.293,195.673,144.305z M193.638,141.224
			c-0.022,0-0.055,0.033-0.088,0.066l-2.398,2.673c-0.032,0.033-0.044,0.056-0.044,0.077c0,0.033,0.021,0.044,0.077,0.044h1.979
			l0.496-2.794c0-0.012,0-0.022,0-0.033C193.66,141.234,193.648,141.224,193.638,141.224z"/>
	</g>
</g>
<g>
	<path fill="#F000A6" d="M344.193,269.426l-1.414,0.841c-1.653,0.994-2.031,1.358-2.283,2.689h4.412
		c0.154,0,0.266,0.056,0.238,0.252l-0.183,1.064c-0.028,0.154-0.069,0.28-0.336,0.28h-5.939c-0.168,0-0.252-0.084-0.224-0.28
		l0.238-1.373c0.336-1.891,1.19-2.843,2.773-3.781l1.555-0.925c0.868-0.519,1.611-0.784,1.611-1.751
		c0-0.729-0.547-0.883-1.485-0.883c-0.827,0-1.976,0.154-2.829,0.21c-0.197,0.015-0.281-0.056-0.238-0.279l0.154-0.841
		c0.027-0.14,0.153-0.225,0.308-0.267c0.757-0.195,1.961-0.35,2.872-0.35c2.03,0,3.039,0.742,3.039,2.143
		C346.463,267.689,345.721,268.516,344.193,269.426z"/>
	<path fill="#F000A6" d="M355.171,268.838l-0.183,1.036c-0.63,3.586-2.045,4.791-4.496,4.791c-1.779,0-2.955-1.121-2.955-3.362
		c0-0.434,0.056-0.91,0.14-1.429l0.183-1.036c0.658-3.712,2.17-4.805,4.496-4.805c1.793,0,2.955,1.009,2.955,3.277
		C355.311,267.773,355.269,268.277,355.171,268.838z M352.075,265.616c-0.967,0-1.821,0.687-2.27,3.222l-0.183,1.036
		c-0.098,0.574-0.14,1.051-0.14,1.443c0,1.358,0.546,1.765,1.289,1.765c0.966,0,1.821-0.673,2.269-3.208l0.183-1.036
		c0.099-0.574,0.14-1.051,0.14-1.443C353.363,266.022,352.817,265.616,352.075,265.616z"/>
	<path fill="#F000A6" d="M356.721,274.553c-0.154,0-0.266-0.126-0.238-0.28l0.182-1.064c0.028-0.154,0.183-0.252,0.336-0.252h1.878
		l1.204-6.892l-1.933,0.56c-0.07,0.028-0.126,0.028-0.168,0.028c-0.099,0-0.154-0.042-0.126-0.168l0.238-1.316
		c0.014-0.084,0.041-0.126,0.125-0.154l2.62-0.813c0.084-0.028,0.183-0.056,0.336-0.056h0.925c0.154,0,0.238,0.111,0.21,0.266
		l-1.499,8.545h1.877c0.154,0,0.252,0.098,0.225,0.252l-0.182,1.064c-0.029,0.154-0.169,0.28-0.322,0.28H356.721z"/>
	<path fill="#F000A6" d="M372.684,270.785l-0.168,0.98c-0.027,0.153-0.168,0.279-0.322,0.279h-1.036l-0.392,2.228
		c-0.028,0.154-0.154,0.28-0.309,0.28h-1.443c-0.125,0-0.195-0.098-0.195-0.21c0-0.028,0-0.042,0-0.07l0.393-2.228h-4.203
		c-0.14,0-0.238-0.098-0.238-0.237c0-0.015,0-0.028,0-0.042l0.196-1.135c0.028-0.154,0.112-0.309,0.238-0.448l5.337-5.785
		c0.126-0.141,0.252-0.252,0.448-0.252h1.274c0.141,0,0.225,0.098,0.225,0.224c0,0.028,0,0.042,0,0.056l-1.064,6.08h1.036
		c0.14,0,0.224,0.098,0.224,0.224C372.684,270.757,372.684,270.771,372.684,270.785z M370.093,266.862
		c-0.028,0-0.069,0.042-0.112,0.084l-3.053,3.404c-0.043,0.042-0.057,0.07-0.057,0.098c0,0.042,0.027,0.057,0.098,0.057h2.521
		l0.631-3.559c0-0.014,0-0.027,0-0.042C370.121,266.877,370.107,266.862,370.093,266.862z"/>
</g>
<g>
	<g>
		<path fill="#FFFFFF" d="M349.008,96.355l-1.11,0.66c-1.298,0.781-1.595,1.066-1.794,2.112h3.467c0.12,0,0.209,0.044,0.187,0.198
			l-0.144,0.836c-0.021,0.121-0.055,0.22-0.264,0.22h-4.664c-0.133,0-0.199-0.066-0.177-0.22l0.187-1.078
			c0.265-1.485,0.936-2.233,2.179-2.971l1.222-0.727c0.682-0.406,1.265-0.615,1.265-1.375c0-0.572-0.429-0.693-1.166-0.693
			c-0.649,0-1.552,0.121-2.222,0.165c-0.154,0.012-0.221-0.044-0.188-0.22l0.121-0.66c0.021-0.109,0.121-0.176,0.242-0.209
			c0.594-0.154,1.54-0.274,2.255-0.274c1.595,0,2.388,0.583,2.388,1.683C350.791,94.991,350.207,95.641,349.008,96.355z"/>
		<path fill="#FFFFFF" d="M357.688,92.417l-0.154,0.836c-0.021,0.121-0.132,0.209-0.253,0.209h-2.981l-0.484,1.826h0.254
			c1.628,0,3.025,0.385,3.025,2.244c0,1.717-0.979,2.938-3.355,2.938c-0.649,0-1.475-0.11-2.068-0.275
			c-0.133-0.044-0.188-0.088-0.166-0.241l0.111-0.649c0.021-0.121,0.065-0.231,0.252-0.198c0.848,0.11,1.387,0.154,2.014,0.154
			c1.397,0,1.672-0.892,1.672-1.705c0-1.057-0.88-1.067-1.749-1.067h-1.474c-0.121,0-0.144-0.099-0.121-0.165l1.045-3.917
			c0.033-0.109,0.143-0.197,0.253-0.197h3.993c0.11,0,0.188,0.077,0.188,0.176c0,0.011,0,0.011,0,0.021V92.417z"/>
		<path fill="#FFFFFF" d="M364.617,92.417l-0.154,0.836c-0.021,0.121-0.131,0.209-0.252,0.209h-2.982l-0.483,1.826h0.253
			c1.629,0,3.025,0.385,3.025,2.244c0,1.717-0.979,2.938-3.355,2.938c-0.648,0-1.475-0.11-2.068-0.275
			c-0.132-0.044-0.188-0.088-0.165-0.241l0.11-0.649c0.021-0.121,0.066-0.231,0.253-0.198c0.847,0.11,1.386,0.154,2.013,0.154
			c1.398,0,1.673-0.892,1.673-1.705c0-1.057-0.88-1.067-1.749-1.067h-1.475c-0.121,0-0.143-0.099-0.121-0.165l1.045-3.917
			c0.033-0.109,0.144-0.197,0.254-0.197h3.993c0.11,0,0.187,0.077,0.187,0.176c0,0.011,0,0.011,0,0.021V92.417z"/>
	</g>
</g>
<g>
	<path fill="#F000A6" d="M427.973,269.426l-1.415,0.841c-1.653,0.994-2.031,1.358-2.283,2.689h4.413
		c0.153,0,0.266,0.056,0.237,0.252l-0.183,1.064c-0.027,0.154-0.069,0.28-0.336,0.28h-5.939c-0.168,0-0.252-0.084-0.224-0.28
		l0.238-1.373c0.337-1.891,1.19-2.843,2.773-3.781l1.556-0.925c0.867-0.519,1.61-0.784,1.61-1.751c0-0.729-0.546-0.883-1.485-0.883
		c-0.826,0-1.975,0.154-2.829,0.21c-0.196,0.015-0.28-0.056-0.238-0.279l0.154-0.841c0.028-0.14,0.153-0.225,0.308-0.267
		c0.757-0.195,1.961-0.35,2.872-0.35c2.031,0,3.04,0.742,3.04,2.143C430.242,267.689,429.5,268.516,427.973,269.426z"/>
	<path fill="#F000A6" d="M438.949,268.838l-0.182,1.036c-0.631,3.586-2.045,4.791-4.496,4.791c-1.779,0-2.956-1.121-2.956-3.362
		c0-0.434,0.056-0.91,0.14-1.429l0.183-1.036c0.658-3.712,2.171-4.805,4.496-4.805c1.793,0,2.956,1.009,2.956,3.277
		C439.09,267.773,439.047,268.277,438.949,268.838z M435.854,265.616c-0.967,0-1.82,0.687-2.27,3.222l-0.182,1.036
		c-0.098,0.574-0.141,1.051-0.141,1.443c0,1.358,0.547,1.765,1.289,1.765c0.967,0,1.821-0.673,2.27-3.208l0.182-1.036
		c0.099-0.574,0.141-1.051,0.141-1.443C437.143,266.022,436.596,265.616,435.854,265.616z"/>
	<path fill="#F000A6" d="M440.5,274.553c-0.154,0-0.267-0.126-0.238-0.28l0.182-1.064c0.027-0.154,0.182-0.252,0.336-0.252h1.877
		l1.205-6.892l-1.934,0.56c-0.07,0.028-0.125,0.028-0.168,0.028c-0.098,0-0.154-0.042-0.126-0.168l0.238-1.316
		c0.015-0.084,0.042-0.126,0.126-0.154l2.619-0.813c0.084-0.028,0.183-0.056,0.336-0.056h0.926c0.153,0,0.237,0.111,0.209,0.266
		l-1.498,8.545h1.877c0.154,0,0.252,0.098,0.225,0.252l-0.183,1.064c-0.028,0.154-0.169,0.28-0.322,0.28H440.5z"/>
	<path fill="#F000A6" d="M456.659,264.411l-0.196,1.064c-0.027,0.154-0.168,0.267-0.322,0.267h-3.796l-0.616,2.325h0.322
		c2.073,0,3.852,0.49,3.852,2.857c0,2.186-1.246,3.74-4.271,3.74c-0.826,0-1.877-0.141-2.634-0.351
		c-0.168-0.056-0.238-0.112-0.21-0.308l0.14-0.827c0.028-0.153,0.085-0.294,0.322-0.252c1.079,0.141,1.765,0.196,2.563,0.196
		c1.779,0,2.129-1.135,2.129-2.171c0-1.345-1.12-1.359-2.227-1.359h-1.877c-0.154,0-0.183-0.126-0.154-0.21l1.33-4.986
		c0.043-0.141,0.183-0.252,0.322-0.252h5.085c0.14,0,0.238,0.098,0.238,0.224c0,0.014,0,0.014,0,0.028V264.411z"/>
</g>
<g>
	<g>
		<path fill="#FFFFFF" d="M431.141,140.112c-0.121,0-0.209-0.099-0.187-0.22l0.143-0.837c0.022-0.12,0.144-0.197,0.265-0.197h1.474
			l0.946-5.413l-1.518,0.44c-0.056,0.021-0.1,0.021-0.133,0.021c-0.076,0-0.121-0.033-0.099-0.132l0.187-1.034
			c0.012-0.066,0.033-0.099,0.1-0.121l2.057-0.638c0.066-0.022,0.144-0.044,0.264-0.044h0.727c0.121,0,0.188,0.088,0.165,0.209
			l-1.177,6.711h1.475c0.121,0,0.197,0.077,0.176,0.197l-0.144,0.837c-0.022,0.121-0.132,0.22-0.253,0.22H431.141z"/>
		<path fill="#FFFFFF" d="M437.851,139.98c-0.154-0.033-0.242-0.066-0.209-0.231l0.121-0.682c0.022-0.154,0.077-0.265,0.286-0.231
			c0.406,0.066,1.354,0.144,2.014,0.144c1.11,0,1.617-0.551,1.902-2.003c-0.363,0.066-0.936,0.121-1.386,0.121
			c-1.497,0-2.464-0.594-2.464-2.09c0-1.926,1.319-3.169,3.365-3.169c1.343,0,2.377,0.671,2.377,2.365
			c0,0.386-0.033,0.727-0.088,1.034l-0.221,1.266c-0.473,2.75-1.65,3.686-3.695,3.686
			C438.896,140.189,438.203,140.058,437.851,139.98z M440.92,135.986c0.319,0,0.902-0.055,1.243-0.121l0.11-0.627
			c0.076-0.418,0.109-0.759,0.109-1.022c0-1.002-0.352-1.188-1.111-1.188c-0.979,0-1.66,0.715-1.66,1.969
			C439.611,135.7,440.04,135.986,440.92,135.986z"/>
		<path fill="#FFFFFF" d="M450.744,132.06c0.153,0.032,0.242,0.065,0.209,0.23l-0.121,0.683c-0.022,0.153-0.078,0.264-0.287,0.23
			c-0.406-0.065-1.353-0.143-2.013-0.143c-1.111,0-1.617,0.55-1.903,2.002c0.363-0.066,0.936-0.121,1.387-0.121
			c1.496,0,2.464,0.595,2.464,2.091c0,1.925-1.32,3.168-3.366,3.168c-1.342,0-2.377-0.803-2.377-2.486
			c0-0.264,0.033-0.605,0.088-0.913l0.221-1.265c0.473-2.751,1.65-3.686,3.696-3.686
			C449.698,131.851,450.392,131.982,450.744,132.06z M447.674,136.053c-0.318,0-0.902,0.055-1.242,0.121l-0.111,0.627
			c-0.076,0.418-0.109,0.759-0.109,0.913c0,1.111,0.439,1.298,1.111,1.298c0.979,0,1.661-0.715,1.661-1.969
			C448.983,136.339,448.555,136.053,447.674,136.053z"/>
	</g>
</g>
</svg>
