<?xml version="1.0" encoding="utf-8"?>
<!-- Generator: Adobe Illustrator 19.2.1, SVG Export Plug-In . SVG Version: 6.00 Build 0)  -->
<svg version="1.1" id="Capa_1" xmlns="http://www.w3.org/2000/svg" xmlns:xlink="http://www.w3.org/1999/xlink" x="0px" y="0px"
	 viewBox="0 0 716.7 312.7" style="enable-background:new 0 0 716.7 312.7;" xml:space="preserve">
<style type="text/css">
	.st0{fill:#8D00D7;}
	.st1{fill:#F000A6;}
</style>
<g>
	<g>
		<path class="st0" d="M86.1,50.5l0,0.2c-0.8,5.8-5.9,6.8-9.6,6.8c-0.5,0-0.8,0-1.6-0.1L74,62.9c-0.1,0.3-0.2,0.5-0.6,0.5h-5.1
			c-0.2,0-0.4-0.1-0.4-0.4l3-16.8c0.3-1.6,0.8-2,2.2-2.2c1.3-0.2,4-0.3,5.8-0.3c3.5,0,7.4,1.4,7.4,5.7
			C86.2,49.7,86.2,50.1,86.1,50.5z M78,48.8h-1.6l-0.6,3.5h1.6c1.3,0,2.4-0.6,2.5-1.7l0-0.2c0-0.1,0-0.2,0-0.3
			C80,49.2,79.3,48.8,78,48.8z"/>
		<path class="st0" d="M97.6,47.7c0.4,0,0.6,0.1,0.6,0.5l-0.7,3.7c-0.1,0.3-0.1,0.5-0.6,0.5h-0.2c-1.6,0-2.4,0.1-3,0.4l-1.8,10
			c-0.1,0.3-0.2,0.6-0.6,0.6h-4.7c-0.3,0-0.6-0.1-0.5-0.6l2.5-14.4c0.1-0.3,0.2-0.5,0.6-0.5h4.1c0.3,0,0.5,0.2,0.4,0.5l-0.2,0.8
			c1-1.2,2.5-1.5,3.8-1.5H97.6z"/>
		<path class="st0" d="M112.9,55.1l-0.2,1.2c-1,5.6-4,7.4-8.5,7.4c-3.9,0-6.1-2.1-6.1-5.6c0-0.6,0.1-1.2,0.2-1.8l0.2-1.2
			c0.9-5.5,4-7.4,8.5-7.4c3.9,0,6.1,1.9,6.1,5.5C113,53.8,113,54.4,112.9,55.1z M106.1,52.5c-0.9,0-1.5,0.8-1.8,2.6l-0.2,1.2
			c-0.1,0.5-0.1,0.9-0.1,1.2c0,1,0.4,1.3,1.1,1.3c0.9,0,1.5-0.5,1.8-2.6l0.2-1.2c0.1-0.5,0.1-0.9,0.1-1.2
			C107.2,52.8,106.8,52.5,106.1,52.5z"/>
		<path class="st0" d="M126,48.1c0.3,0.1,0.5,0.2,0.4,0.5l-0.6,3.6c-0.1,0.3-0.3,0.6-0.6,0.6h0c-0.8,0-1.8-0.2-2.8-0.2
			c-1.1,0-1.5,0.7-1.8,2.2l-0.3,1.7c-0.1,0.4-0.1,0.8-0.1,1c0,0.8,0.3,1.2,1.1,1.2c1,0,2-0.1,2.9-0.2c0.5,0,0.6,0.2,0.5,0.6
			l-0.6,3.6c-0.1,0.3-0.3,0.4-0.6,0.5c-1.1,0.2-2.3,0.4-3.8,0.4c-3.6,0-5.3-2.3-5.3-5.4c0-0.6,0.1-1.1,0.2-1.7l0.3-1.7
			c0.9-4.8,3.4-7.1,7.7-7.1C123.9,47.7,125.3,47.9,126,48.1z"/>
		<path class="st0" d="M141,55l-0.3,1.6c-0.1,0.3-0.3,0.6-0.7,0.6h-7.9c0,0.2-0.1,0.4-0.1,0.6c0,0.8,0.5,1.1,2,1.1
			c1.1,0,4-0.1,5-0.2c0.4,0,0.6,0.1,0.5,0.5l-0.5,2.8c-0.1,0.4-0.2,0.6-0.6,0.8c-1.4,0.6-4.1,1-6.2,1c-3.4,0-6-1.8-6-5.5
			c0-0.5,0.1-1,0.2-1.6l0.3-1.6c1-5.4,4.1-7.4,8.6-7.4c4.1,0,5.8,2.4,5.8,5.6C141.2,53.8,141.1,54.4,141,55z M134.5,52.1
			c-1.1,0-1.6,0.7-1.8,2.2h3c0.1-0.3,0.1-0.6,0.1-0.9C135.8,52.6,135.4,52.1,134.5,52.1z"/>
		<path class="st0" d="M155.6,48.9l-0.6,3.4c-0.1,0.4-0.1,0.7-0.6,0.6c-0.8-0.1-3.6-0.5-4.6-0.5c-0.2,0-0.6,0-0.6,0.3
			c0,0.2,0.1,0.3,0.6,0.6l2.1,1.1c2.3,1.2,2.6,2.6,2.6,4c0,3.8-3.1,5.3-7.7,5.3c-2.3,0-3.8-0.3-4.8-0.7c-0.3-0.1-0.4-0.3-0.4-0.6
			l0.6-3.3c0.1-0.4,0.2-0.7,0.8-0.6c1.7,0.3,3.5,0.5,4.5,0.5c0.4,0,1,0,1-0.6c0-0.2-0.1-0.3-0.5-0.5l-2.3-1.3
			c-1.5-0.9-2.3-2.1-2.3-3.7c0-4.2,3.4-5.2,7-5.2c1.9,0,3.8,0.4,4.9,0.7C155.5,48.5,155.7,48.6,155.6,48.9z"/>
		<path class="st0" d="M171.3,55.1l-0.2,1.2c-1,5.6-4,7.4-8.5,7.4c-3.9,0-6.1-2.1-6.1-5.6c0-0.6,0.1-1.2,0.2-1.8l0.2-1.2
			c0.9-5.5,4-7.4,8.5-7.4c3.9,0,6.1,1.9,6.1,5.5C171.5,53.8,171.4,54.4,171.3,55.1z M164.5,52.5c-0.9,0-1.5,0.8-1.8,2.6l-0.2,1.2
			c-0.1,0.5-0.1,0.9-0.1,1.2c0,1,0.4,1.3,1.1,1.3c0.9,0,1.5-0.5,1.8-2.6l0.2-1.2c0.1-0.5,0.1-0.9,0.1-1.2
			C165.6,52.8,165.2,52.5,164.5,52.5z"/>
	</g>
	<g>
		<path class="st0" d="M83.2,86.9l-0.2,1.2c-1,5.6-4,7.4-8.5,7.4c-3.9,0-6.1-2.1-6.1-5.6c0-0.6,0.1-1.2,0.2-1.8l0.2-1.2
			c0.9-5.5,4-7.4,8.5-7.4c3.9,0,6.1,1.9,6.1,5.5C83.3,85.6,83.3,86.2,83.2,86.9z M76.4,84.3c-0.9,0-1.5,0.8-1.8,2.6l-0.2,1.2
			c-0.1,0.5-0.1,0.9-0.1,1.2c0,1,0.4,1.3,1.1,1.3c0.9,0,1.5-0.5,1.8-2.6l0.2-1.2c0.1-0.5,0.1-0.9,0.1-1.2
			C77.5,84.6,77.1,84.3,76.4,84.3z"/>
		<path class="st0" d="M100.1,85.5l-1.6,9.1c-0.1,0.3-0.1,0.6-0.7,0.6h-4.7c-0.3,0-0.6-0.2-0.5-0.6l1.6-9.1c0-0.2,0-0.3,0-0.5
			c0-0.5-0.5-0.8-1.1-0.8c-0.5,0-1,0.1-1.5,0.4l-1.8,10c-0.1,0.3-0.1,0.6-0.6,0.6h-4.7c-0.3,0-0.6-0.2-0.5-0.6l2.5-14.4
			c0.1-0.3,0.3-0.5,0.6-0.5h4.3c0.4,0,0.5,0.2,0.4,0.5L91.8,81c1.4-1,2.6-1.5,4.5-1.5c3.2,0,4,2,4,4.2
			C100.3,84.3,100.2,84.9,100.1,85.5z"/>
		<path class="st0" d="M110.4,75.3L107,94.6c-0.1,0.3-0.2,0.6-0.7,0.6h-4.7c-0.3,0-0.6-0.2-0.5-0.6l3.4-19.3
			c0.1-0.3,0.2-0.6,0.7-0.6h4.7C110.3,74.8,110.5,74.9,110.4,75.3z"/>
		<path class="st0" d="M109.7,94.6l2.5-14.3c0.1-0.3,0.2-0.6,0.7-0.6h4.7c0.5,0,0.5,0.2,0.5,0.6l-2.5,14.3c-0.1,0.3-0.2,0.6-0.7,0.6
			h-4.7C109.9,95.2,109.6,94.9,109.7,94.6z M118.6,74.8c0.3,0,0.6,0.1,0.5,0.6l-0.5,2.7c-0.1,0.3-0.2,0.6-0.7,0.6h-5
			c-0.5,0-0.6-0.3-0.5-0.6l0.5-2.7c0.1-0.3,0.2-0.6,0.7-0.6H118.6z"/>
		<path class="st0" d="M134.3,85.5l-1.6,9.1c-0.1,0.3-0.1,0.6-0.7,0.6h-4.7c-0.3,0-0.6-0.2-0.5-0.6l1.6-9.1c0-0.2,0-0.3,0-0.5
			c0-0.5-0.5-0.8-1.1-0.8c-0.5,0-1,0.1-1.5,0.4l-1.8,10c-0.1,0.3-0.1,0.6-0.6,0.6h-4.7c-0.3,0-0.6-0.2-0.5-0.6l2.5-14.4
			c0.1-0.3,0.3-0.5,0.6-0.5h4.3c0.4,0,0.5,0.2,0.4,0.5L126,81c1.4-1,2.6-1.5,4.5-1.5c3.2,0,4,2,4,4.2
			C134.5,84.3,134.4,84.9,134.3,85.5z"/>
		<path class="st0" d="M150.6,86.8l-0.3,1.6c-0.1,0.3-0.3,0.6-0.7,0.6h-7.9c0,0.2-0.1,0.4-0.1,0.6c0,0.8,0.5,1.1,2,1.1
			c1.1,0,4-0.1,5-0.2c0.4,0,0.6,0.1,0.5,0.5l-0.5,2.8c-0.1,0.4-0.2,0.6-0.6,0.8c-1.4,0.6-4.1,1-6.2,1c-3.4,0-6-1.8-6-5.5
			c0-0.5,0.1-1,0.2-1.6l0.3-1.6c1-5.4,4.1-7.4,8.6-7.4c4.1,0,5.8,2.4,5.8,5.6C150.7,85.6,150.7,86.2,150.6,86.8z M144.1,83.9
			c-1.1,0-1.6,0.7-1.8,2.2h3c0.1-0.3,0.1-0.6,0.1-0.9C145.3,84.3,145,83.9,144.1,83.9z"/>
	</g>
	<g>
		<path class="st0" d="M270.1,48.9c-0.1,0.4-0.2,0.5-0.6,0.5c-0.8-0.1-2.3-0.2-3.4-0.2c-1,0-2.2,0.2-2.8,3.5l-0.4,2.1
			c-0.1,0.7-0.2,1.3-0.2,1.7c0,1.7,0.8,1.8,1.7,1.8c1,0,2.7-0.2,3.5-0.2c0.4-0.1,0.5,0.2,0.4,0.5l-0.7,4.1c-0.1,0.3-0.2,0.4-0.6,0.6
			c-0.9,0.3-2.1,0.5-3.5,0.5c-4.8,0-7.1-2.5-7.1-6.6c0-0.8,0.1-1.5,0.2-2.4l0.4-2.1c1.2-6.7,4.3-8.9,9.8-8.9c1.4,0,2.8,0.2,3.5,0.5
			c0.3,0.1,0.5,0.2,0.5,0.6L270.1,48.9z"/>
		<path class="st0" d="M286.5,49.2l-2.4,13.7c-0.1,0.3-0.2,0.5-0.5,0.5h-3.8c-0.5,0-0.6-0.2-0.5-0.5l0.1-0.7c-1.2,1-2.2,1.5-4.3,1.5
			c-2.8,0-4.6-1.8-4.6-4.8c0-0.9,0.1-1.3,0.1-1.8l0.4-2.4c1-5.7,4.2-7,8.5-7c2,0,4.1,0.3,6.1,0.6C286.2,48.4,286.6,48.6,286.5,49.2z
			 M278.9,52.5c-1.1,0-1.7,0.4-2,2.2l-0.5,2.5c-0.1,0.3-0.1,0.6-0.1,0.8c0,0.8,0.4,0.9,1,0.9c0.5,0,1.2-0.2,1.6-0.4l1-5.9
			C279.6,52.5,279.2,52.5,278.9,52.5z"/>
		<path class="st0" d="M302.6,54.7l-0.4,2c-0.8,4.7-3.6,7-8.4,7c-0.3,0-1-0.1-1.4-0.2l-0.8,4.3c-0.1,0.3-0.3,0.6-0.6,0.6h-4.7
			c-0.3,0-0.6-0.1-0.5-0.6l3.3-18.6c0.1-0.4,0.3-0.7,1.2-0.9c1.3-0.2,3.6-0.6,6.3-0.6c3.9,0,6.1,2.2,6.1,5.5
			C302.7,53.7,302.7,54.2,302.6,54.7z M295.7,52.5c-0.7,0-0.9,0-1.4,0.1l-1.1,6.2c0.4,0,0.8,0.1,1.4,0.1c1.1,0,1.5-0.7,1.8-2.2
			l0.4-2c0.1-0.4,0.1-0.7,0.1-1C296.9,52.9,296.6,52.5,295.7,52.5z"/>
		<path class="st0" d="M320,49.2l-2.4,13.7c-0.1,0.3-0.2,0.5-0.5,0.5h-3.8c-0.5,0-0.6-0.2-0.5-0.5l0.1-0.7c-1.2,1-2.2,1.5-4.3,1.5
			c-2.8,0-4.6-1.8-4.6-4.8c0-0.9,0.1-1.3,0.1-1.8l0.4-2.4c1-5.7,4.2-7,8.5-7c2,0,4.1,0.3,6.1,0.6C319.7,48.4,320.1,48.6,320,49.2z
			 M312.4,52.5c-1.1,0-1.7,0.4-2,2.2l-0.5,2.5c-0.1,0.3-0.1,0.6-0.1,0.8c0,0.8,0.4,0.9,1,0.9c0.5,0,1.2-0.2,1.6-0.4l1-5.9
			C313.1,52.5,312.7,52.5,312.4,52.5z"/>
		<path class="st0" d="M332.5,48.1c0.3,0.1,0.5,0.2,0.4,0.5l-0.6,3.6c-0.1,0.3-0.3,0.6-0.6,0.6h0c-0.8,0-1.8-0.2-2.8-0.2
			c-1.1,0-1.5,0.7-1.8,2.2l-0.3,1.7c-0.1,0.4-0.1,0.8-0.1,1c0,0.8,0.3,1.2,1.1,1.2c1,0,2-0.1,2.9-0.2c0.5,0,0.6,0.2,0.5,0.6
			l-0.6,3.6c-0.1,0.3-0.3,0.4-0.6,0.5c-1.1,0.2-2.3,0.4-3.8,0.4c-3.6,0-5.3-2.3-5.3-5.4c0-0.6,0.1-1.1,0.2-1.7l0.3-1.7
			c0.9-4.8,3.4-7.1,7.7-7.1C330.4,47.7,331.8,47.9,332.5,48.1z"/>
		<path class="st0" d="M332.7,62.8l2.5-14.3c0.1-0.3,0.2-0.6,0.7-0.6h4.7c0.5,0,0.5,0.2,0.5,0.6l-2.5,14.3c-0.1,0.3-0.2,0.6-0.7,0.6
			h-4.7C332.9,63.4,332.7,63.2,332.7,62.8z M341.6,43c0.3,0,0.6,0.1,0.5,0.6l-0.5,2.7c-0.1,0.3-0.2,0.6-0.7,0.6h-5
			c-0.5,0-0.6-0.3-0.5-0.6l0.5-2.7c0.1-0.3,0.2-0.6,0.7-0.6H341.6z"/>
		<path class="st0" d="M352.8,47.9c0.4,0,0.6,0.1,0.6,0.6l-0.6,3.2c-0.1,0.3-0.2,0.6-0.7,0.6h-1.9l-1.1,6.4c0,0.2-0.1,0.3-0.1,0.4
			c0,0.3,0.1,0.4,0.5,0.4h1.3c0.4,0,0.5,0.1,0.4,0.6l-0.5,2.9c-0.1,0.3-0.1,0.5-0.7,0.6c-1.1,0.2-1.7,0.3-2.8,0.3
			c-1.8,0-4.1-0.8-4.1-3.8c0-0.4,0.1-0.8,0.1-1.3l1.1-6.3L343,52c-0.3-0.1-0.6-0.2-0.5-0.6l0.5-2.9c0.1-0.3,0.2-0.6,0.7-0.6h1.5
			l0.4-2.2c0.1-0.3,0.2-0.5,0.7-0.6l4.7-0.8c0.6-0.1,0.7,0.1,0.7,0.5l-0.5,3H352.8z"/>
		<path class="st0" d="M369.4,49.2l-2.4,13.7c-0.1,0.3-0.2,0.5-0.5,0.5h-3.8c-0.5,0-0.6-0.2-0.5-0.5l0.1-0.7c-1.2,1-2.2,1.5-4.3,1.5
			c-2.8,0-4.6-1.8-4.6-4.8c0-0.9,0.1-1.3,0.1-1.8l0.4-2.4c1-5.7,4.2-7,8.5-7c2,0,4.1,0.3,6.1,0.6C369.2,48.4,369.5,48.6,369.4,49.2z
			 M361.9,52.5c-1.1,0-1.7,0.4-2,2.2l-0.5,2.5c-0.1,0.3-0.1,0.6-0.1,0.8c0,0.8,0.4,0.9,1,0.9c0.5,0,1.2-0.2,1.6-0.4l1-5.9
			C362.6,52.5,362.2,52.5,361.9,52.5z"/>
		<path class="st0" d="M382,48.1c0.3,0.1,0.5,0.2,0.4,0.5l-0.6,3.6c-0.1,0.3-0.3,0.6-0.6,0.6h0c-0.8,0-1.8-0.2-2.8-0.2
			c-1.1,0-1.5,0.7-1.8,2.2l-0.3,1.7c-0.1,0.4-0.1,0.8-0.1,1c0,0.8,0.3,1.2,1.1,1.2c1,0,2-0.1,2.9-0.2c0.5,0,0.6,0.2,0.5,0.6
			l-0.6,3.6c-0.1,0.3-0.3,0.4-0.6,0.5c-1.1,0.2-2.3,0.4-3.8,0.4c-3.6,0-5.3-2.3-5.3-5.4c0-0.6,0.1-1.1,0.2-1.7l0.3-1.7
			c0.9-4.8,3.4-7.1,7.7-7.1C379.9,47.7,381.3,47.9,382,48.1z"/>
		<path class="st0" d="M382.2,62.8l2.5-14.3c0.1-0.3,0.2-0.6,0.7-0.6h4.7c0.5,0,0.5,0.2,0.5,0.6l-2.5,14.3c-0.1,0.3-0.2,0.6-0.7,0.6
			h-4.7C382.4,63.4,382.2,63.2,382.2,62.8z M391.1,43c0.3,0,0.6,0.1,0.5,0.6l-0.5,2.7c-0.1,0.3-0.2,0.6-0.7,0.6h-5
			c-0.5,0-0.6-0.3-0.5-0.6l0.5-2.7c0.1-0.3,0.2-0.6,0.7-0.6H391.1z"/>
		<path class="st0" d="M406.2,55.1l-0.2,1.2c-1,5.6-4,7.4-8.5,7.4c-3.9,0-6.1-2.1-6.1-5.6c0-0.6,0.1-1.2,0.2-1.8l0.2-1.2
			c0.9-5.5,4-7.4,8.5-7.4c3.9,0,6.1,1.9,6.1,5.5C406.3,53.8,406.3,54.4,406.2,55.1z M399.4,52.5c-0.9,0-1.5,0.8-1.8,2.6l-0.2,1.2
			c-0.1,0.5-0.1,0.9-0.1,1.2c0,1,0.4,1.3,1.1,1.3c0.9,0,1.5-0.5,1.8-2.6l0.2-1.2c0.1-0.5,0.1-0.9,0.1-1.2
			C400.5,52.8,400.1,52.5,399.4,52.5z M406.3,43.4l-4,3.1c-0.2,0.2-0.3,0.3-0.7,0.3h-4c-0.1,0-0.2-0.1-0.2-0.2
			c0-0.1,0.1-0.2,0.2-0.3l2.8-2.9c0.3-0.3,0.4-0.4,0.8-0.4h5c0.2,0,0.3,0.1,0.3,0.2C406.4,43.2,406.4,43.3,406.3,43.4z"/>
		<path class="st0" d="M423.1,53.8l-1.6,9.1c-0.1,0.3-0.1,0.6-0.7,0.6h-4.7c-0.3,0-0.6-0.2-0.5-0.6l1.6-9.1c0-0.2,0-0.3,0-0.5
			c0-0.5-0.5-0.8-1.1-0.8c-0.5,0-1,0.1-1.5,0.4l-1.8,10c-0.1,0.3-0.1,0.6-0.6,0.6h-4.7c-0.3,0-0.6-0.2-0.5-0.6l2.5-14.4
			c0.1-0.3,0.3-0.5,0.6-0.5h4.3c0.4,0,0.5,0.2,0.4,0.5l-0.1,0.7c1.4-1,2.6-1.5,4.5-1.5c3.2,0,4,2,4,4.2
			C423.3,52.5,423.2,53.2,423.1,53.8z"/>
	</g>
	<g>
		<path class="st0" d="M271.4,86.4l-0.4,2c-0.8,4.7-3.6,7-8.4,7c-0.3,0-1-0.1-1.4-0.2l-0.8,4.3c-0.1,0.3-0.3,0.6-0.6,0.6h-4.7
			c-0.3,0-0.6-0.1-0.5-0.6l3.3-18.6c0.1-0.4,0.3-0.7,1.2-0.9c1.3-0.2,3.6-0.6,6.3-0.6c3.9,0,6.1,2.2,6.1,5.5
			C271.5,85.5,271.5,85.9,271.4,86.4z M264.5,84.3c-0.7,0-0.9,0-1.4,0.1l-1.1,6.2c0.4,0,0.8,0.1,1.4,0.1c1.1,0,1.5-0.7,1.8-2.2
			l0.4-2c0.1-0.4,0.1-0.7,0.1-1C265.7,84.7,265.3,84.3,264.5,84.3z"/>
		<path class="st0" d="M283.7,79.5c0.4,0,0.6,0.1,0.6,0.5l-0.7,3.7c-0.1,0.3-0.1,0.5-0.6,0.5h-0.2c-1.6,0-2.4,0.1-3,0.4l-1.8,10
			c-0.1,0.3-0.2,0.6-0.6,0.6h-4.7c-0.3,0-0.6-0.1-0.5-0.6l2.5-14.4c0.1-0.3,0.2-0.5,0.6-0.5h4.1c0.3,0,0.5,0.2,0.4,0.5l-0.2,0.8
			c1-1.2,2.5-1.5,3.8-1.5H283.7z"/>
		<path class="st0" d="M298.7,86.8l-0.3,1.6c-0.1,0.3-0.3,0.6-0.7,0.6h-7.9c0,0.2-0.1,0.4-0.1,0.6c0,0.8,0.5,1.1,2,1.1
			c1.1,0,4-0.1,5-0.2c0.4,0,0.6,0.1,0.5,0.5l-0.5,2.8c-0.1,0.4-0.2,0.6-0.6,0.8c-1.4,0.6-4.1,1-6.2,1c-3.4,0-6-1.8-6-5.5
			c0-0.5,0.1-1,0.2-1.6l0.3-1.6c1-5.4,4.1-7.4,8.6-7.4c4.1,0,5.8,2.4,5.8,5.6C298.8,85.6,298.8,86.2,298.7,86.8z M292.2,83.9
			c-1.1,0-1.6,0.7-1.8,2.2h3c0.1-0.3,0.1-0.6,0.1-0.9C293.4,84.3,293.1,83.9,292.2,83.9z"/>
		<path class="st0" d="M313.3,80.7l-0.6,3.4c-0.1,0.4-0.1,0.7-0.6,0.6c-0.8-0.1-3.6-0.5-4.6-0.5c-0.2,0-0.6,0-0.6,0.3
			c0,0.2,0.1,0.3,0.6,0.6l2.1,1.1c2.3,1.2,2.6,2.6,2.6,4c0,3.8-3.1,5.3-7.7,5.3c-2.3,0-3.8-0.3-4.8-0.7c-0.3-0.1-0.4-0.3-0.4-0.6
			l0.6-3.3c0.1-0.4,0.2-0.7,0.8-0.6c1.7,0.3,3.5,0.5,4.5,0.5c0.4,0,1,0,1-0.6c0-0.2-0.1-0.3-0.5-0.5l-2.3-1.3
			c-1.5-0.9-2.3-2.1-2.3-3.7c0-4.2,3.4-5.2,7-5.2c1.9,0,3.8,0.4,4.9,0.7C313.2,80.3,313.3,80.4,313.3,80.7z"/>
		<path class="st0" d="M328.8,86.8l-0.3,1.6c-0.1,0.3-0.3,0.6-0.7,0.6h-7.9c0,0.2-0.1,0.4-0.1,0.6c0,0.8,0.5,1.1,2,1.1
			c1.1,0,4-0.1,5-0.2c0.4,0,0.6,0.1,0.5,0.5l-0.5,2.8c-0.1,0.4-0.2,0.6-0.6,0.8c-1.4,0.6-4.1,1-6.2,1c-3.4,0-6-1.8-6-5.5
			c0-0.5,0.1-1,0.2-1.6l0.3-1.6c1-5.4,4.1-7.4,8.6-7.4c4.1,0,5.8,2.4,5.8,5.6C328.9,85.6,328.9,86.2,328.8,86.8z M322.3,83.9
			c-1.1,0-1.6,0.7-1.8,2.2h3c0.1-0.3,0.1-0.6,0.1-0.9C323.5,84.3,323.1,83.9,322.3,83.9z"/>
		<path class="st0" d="M345.7,85.5l-1.6,9.1c-0.1,0.3-0.1,0.6-0.7,0.6h-4.7c-0.3,0-0.6-0.2-0.5-0.6l1.6-9.1c0-0.2,0-0.3,0-0.5
			c0-0.5-0.5-0.8-1.1-0.8c-0.5,0-1,0.1-1.5,0.4l-1.8,10c-0.1,0.3-0.1,0.6-0.6,0.6h-4.7c-0.3,0-0.6-0.2-0.5-0.6l2.5-14.4
			c0.1-0.3,0.3-0.5,0.6-0.5h4.3c0.4,0,0.5,0.2,0.4,0.5l-0.1,0.7c1.4-1,2.6-1.5,4.5-1.5c3.2,0,4,2,4,4.2
			C345.9,84.3,345.8,84.9,345.7,85.5z"/>
		<path class="st0" d="M359,79.9c0.3,0.1,0.5,0.2,0.4,0.5l-0.6,3.6c-0.1,0.3-0.3,0.6-0.6,0.6h0c-0.8,0-1.8-0.2-2.8-0.2
			c-1.1,0-1.5,0.7-1.8,2.2l-0.3,1.7c-0.1,0.4-0.1,0.8-0.1,1c0,0.8,0.3,1.2,1.1,1.2c1,0,2-0.1,2.9-0.2c0.5,0,0.6,0.2,0.5,0.6
			l-0.6,3.6c-0.1,0.3-0.3,0.4-0.6,0.5c-1.1,0.2-2.3,0.4-3.8,0.4c-3.6,0-5.3-2.3-5.3-5.4c0-0.6,0.1-1.1,0.2-1.7l0.3-1.7
			c0.9-4.8,3.4-7.1,7.7-7.1C356.9,79.5,358.3,79.7,359,79.9z"/>
		<path class="st0" d="M359.3,94.6l2.5-14.3c0.1-0.3,0.2-0.6,0.7-0.6h4.7c0.5,0,0.5,0.2,0.5,0.6l-2.5,14.3c-0.1,0.3-0.2,0.6-0.7,0.6
			h-4.7C359.4,95.2,359.2,94.9,359.3,94.6z M368.2,74.8c0.3,0,0.6,0.1,0.5,0.6l-0.5,2.7c-0.1,0.3-0.2,0.6-0.7,0.6h-5
			c-0.5,0-0.6-0.3-0.5-0.6l0.5-2.7c0.1-0.3,0.2-0.6,0.7-0.6H368.2z"/>
		<path class="st0" d="M384.4,81L382,94.7c-0.1,0.3-0.2,0.5-0.5,0.5h-3.8c-0.5,0-0.6-0.2-0.5-0.5l0.1-0.7c-1.2,1-2.2,1.5-4.3,1.5
			c-2.8,0-4.6-1.8-4.6-4.8c0-0.9,0.1-1.3,0.1-1.8l0.4-2.4c1-5.7,4.2-7,8.5-7c2,0,4.1,0.3,6.1,0.6C384.2,80.2,384.5,80.4,384.4,81z
			 M376.9,84.3c-1.1,0-1.7,0.4-2,2.2l-0.5,2.5c-0.1,0.3-0.1,0.6-0.1,0.8c0,0.8,0.4,0.9,1,0.9c0.5,0,1.2-0.2,1.6-0.4l1-5.9
			C377.6,84.3,377.2,84.3,376.9,84.3z"/>
		<path class="st0" d="M393.9,75.3l-3.4,19.3c-0.1,0.3-0.2,0.6-0.7,0.6h-4.7c-0.3,0-0.6-0.2-0.5-0.6l3.4-19.3
			c0.1-0.3,0.2-0.6,0.7-0.6h4.7C393.8,74.8,394,74.9,393.9,75.3z"/>
	</g>
	<g>
		<path class="st0" d="M528.7,57.7l-0.7,4c-0.1,0.3-0.2,0.5-0.6,0.5h-5.3c-0.7,0-0.9,0.2-1,0.8l-0.3,1.4h6.1c0.3,0,0.5,0.2,0.4,0.5
			l-0.6,3.7c-0.1,0.3-0.3,0.5-0.6,0.5H520l-0.2,1.3c-0.1,0.4-0.1,0.5-0.1,0.6c0,0.4,0.2,0.5,0.8,0.5h5.3c0.3,0,0.5,0.2,0.4,0.5
			l-0.7,4c-0.1,0.3-0.1,0.5-0.6,0.5c-1.1,0.1-3,0.3-5.3,0.3c-3.3,0-6.1-1.1-6.1-4.7c0-0.4,0-0.9,0.1-1.4l1.4-7.7
			c1-5.9,4.8-6.1,8.1-6.1c2.3,0,4.1,0.2,5.2,0.3C528.6,57.2,528.7,57.4,528.7,57.7z"/>
		<path class="st0" d="M546.1,61.8l-5.4,11.9c-1.4,3.2-3.5,3.3-5.4,3.3c-1.9,0-4-0.1-4.3-3.3l-1.2-11.9v0c0-0.3,0.1-0.5,0.6-0.5h5
			c0.4,0,0.5,0.3,0.5,0.6l0.2,8.8c0,0.2,0,0.4,0.2,0.4c0.1,0,0.2-0.2,0.3-0.4l3.3-8.8c0.1-0.3,0.2-0.6,0.7-0.6h5.2
			C546.1,61.2,546.3,61.4,546.1,61.8z"/>
		<path class="st0" d="M561.3,62.5l-2.4,13.7c-0.1,0.3-0.2,0.5-0.5,0.5h-3.8c-0.5,0-0.6-0.2-0.5-0.5l0.1-0.7c-1.2,1-2.2,1.5-4.3,1.5
			c-2.8,0-4.6-1.8-4.6-4.8c0-0.9,0.1-1.3,0.1-1.8l0.4-2.4c1-5.7,4.2-7,8.5-7c2,0,4.1,0.3,6.1,0.6C561,61.7,561.4,61.9,561.3,62.5z
			 M553.7,65.8c-1.1,0-1.7,0.4-2,2.2l-0.5,2.5c-0.1,0.3-0.1,0.6-0.1,0.8c0,0.8,0.4,0.9,1,0.9c0.5,0,1.2-0.2,1.6-0.4l1-5.9
			C554.4,65.8,554,65.8,553.7,65.8z"/>
		<path class="st0" d="M570.8,56.8l-3.4,19.3c-0.1,0.3-0.2,0.6-0.7,0.6H562c-0.3,0-0.6-0.2-0.5-0.6l3.4-19.3
			c0.1-0.3,0.2-0.6,0.7-0.6h4.7C570.6,56.3,570.9,56.4,570.8,56.8z"/>
		<path class="st0" d="M587,61.8l-2.5,14.4c-0.1,0.3-0.2,0.5-0.6,0.5h-4.3c-0.3,0-0.5-0.1-0.4-0.5l0.1-0.7c-1.2,0.9-2.2,1.5-4.4,1.5
			c-3,0-4.1-2.1-4.1-4.5c0-0.5,0.1-1.1,0.2-1.6l1.6-9.1c0.1-0.3,0.3-0.6,0.7-0.6h4.7c0.3,0,0.6,0.2,0.5,0.6l-1.5,8.7
			c-0.1,0.3-0.1,0.7-0.1,0.8c0,0.7,0.5,0.9,1.1,0.9c0.5,0,1-0.1,1.5-0.4l1.8-10c0.1-0.3,0.2-0.6,0.6-0.6h4.7
			C586.8,61.2,587.1,61.3,587,61.8z"/>
		<path class="st0" d="M603.7,62.5l-2.4,13.7c-0.1,0.3-0.2,0.5-0.5,0.5H597c-0.5,0-0.6-0.2-0.5-0.5l0.1-0.7c-1.2,1-2.2,1.5-4.3,1.5
			c-2.8,0-4.6-1.8-4.6-4.8c0-0.9,0.1-1.3,0.1-1.8l0.4-2.4c1-5.7,4.2-7,8.5-7c2,0,4.1,0.3,6.1,0.6C603.4,61.7,603.8,61.9,603.7,62.5z
			 M596.1,65.8c-1.1,0-1.7,0.4-2,2.2l-0.5,2.5c-0.1,0.3-0.1,0.6-0.1,0.8c0,0.8,0.4,0.9,1,0.9c0.5,0,1.2-0.2,1.6-0.4l1-5.9
			C596.8,65.8,596.5,65.8,596.1,65.8z"/>
		<path class="st0" d="M616.2,61.4c0.3,0.1,0.5,0.2,0.4,0.5l-0.6,3.6c-0.1,0.3-0.3,0.6-0.6,0.6h0c-0.8,0-1.8-0.2-2.8-0.2
			c-1.1,0-1.5,0.7-1.8,2.2l-0.3,1.7c-0.1,0.4-0.1,0.8-0.1,1c0,0.8,0.3,1.2,1.1,1.2c1,0,2-0.1,2.9-0.2c0.5,0,0.6,0.2,0.5,0.6
			l-0.6,3.6c-0.1,0.3-0.3,0.4-0.6,0.5c-1.1,0.2-2.3,0.4-3.8,0.4c-3.6,0-5.3-2.3-5.3-5.4c0-0.6,0.1-1.1,0.2-1.7l0.3-1.7
			c0.9-4.8,3.4-7.1,7.7-7.1C614.1,60.9,615.5,61.2,616.2,61.4z"/>
		<path class="st0" d="M616.5,76.1l2.5-14.3c0.1-0.3,0.2-0.6,0.7-0.6h4.7c0.5,0,0.5,0.2,0.5,0.6l-2.5,14.3c-0.1,0.3-0.2,0.6-0.7,0.6
			H617C616.6,76.7,616.4,76.4,616.5,76.1z M625.4,56.3c0.3,0,0.6,0.1,0.5,0.6l-0.5,2.7c-0.1,0.3-0.2,0.6-0.7,0.6h-5
			c-0.5,0-0.6-0.3-0.5-0.6l0.5-2.7c0.1-0.3,0.2-0.6,0.7-0.6H625.4z"/>
		<path class="st0" d="M640.4,68.3l-0.2,1.2c-1,5.6-4,7.4-8.5,7.4c-3.9,0-6.1-2.1-6.1-5.6c0-0.6,0.1-1.2,0.2-1.8l0.2-1.2
			c0.9-5.5,4-7.4,8.5-7.4c3.9,0,6.1,1.9,6.1,5.5C640.6,67.1,640.5,67.7,640.4,68.3z M633.6,65.8c-0.9,0-1.5,0.8-1.8,2.6l-0.2,1.2
			c-0.1,0.5-0.1,0.9-0.1,1.2c0,1,0.4,1.3,1.1,1.3c0.9,0,1.5-0.5,1.8-2.6l0.2-1.2c0.1-0.5,0.1-0.9,0.1-1.2
			C634.7,66.1,634.3,65.8,633.6,65.8z M640.5,56.6l-4,3.1c-0.2,0.2-0.3,0.3-0.7,0.3h-4c-0.1,0-0.2-0.1-0.2-0.2
			c0-0.1,0.1-0.2,0.2-0.3l2.8-2.9c0.3-0.3,0.4-0.4,0.8-0.4h5c0.2,0,0.3,0.1,0.3,0.2C640.7,56.5,640.6,56.6,640.5,56.6z"/>
		<path class="st0" d="M657.4,67l-1.6,9.1c-0.1,0.3-0.1,0.6-0.7,0.6h-4.7c-0.3,0-0.6-0.2-0.5-0.6l1.6-9.1c0-0.2,0-0.3,0-0.5
			c0-0.5-0.5-0.8-1.1-0.8c-0.5,0-1,0.1-1.5,0.4l-1.8,10c-0.1,0.3-0.1,0.6-0.6,0.6h-4.7c-0.3,0-0.6-0.2-0.5-0.6l2.5-14.4
			c0.1-0.3,0.3-0.5,0.6-0.5h4.3c0.4,0,0.5,0.2,0.4,0.5l-0.1,0.7c1.4-1,2.6-1.5,4.5-1.5c3.2,0,4,2,4,4.2
			C657.5,65.8,657.5,66.4,657.4,67z"/>
	</g>
	<g>
		<path class="st0" d="M228.5,79.5h-11.3v11.2c0,0.9-0.4,1.6-1.3,1.6h-10.3c-0.9,0-1.3-0.7-1.3-1.6V79.5h-11.2
			c-0.9,0-1.6-0.4-1.6-1.3V67.9c0-0.9,0.7-1.3,1.6-1.3h11.2V55.3c0-0.9,0.4-1.6,1.3-1.6H216c0.9,0,1.3,0.7,1.3,1.6v11.3h11.3
			c0.9,0,1.6,0.4,1.6,1.3v10.3C230.1,79.1,229.4,79.5,228.5,79.5z"/>
	</g>
	<g>
		<path class="st0" d="M485.7,79.5h-11.3v11.2c0,0.9-0.4,1.6-1.3,1.6h-10.3c-0.9,0-1.3-0.7-1.3-1.6V79.5h-11.2
			c-0.9,0-1.6-0.4-1.6-1.3V67.9c0-0.9,0.7-1.3,1.6-1.3h11.2V55.3c0-0.9,0.4-1.6,1.3-1.6h10.3c0.9,0,1.3,0.7,1.3,1.6v11.3h11.3
			c0.9,0,1.6,0.4,1.6,1.3v10.3C487.3,79.1,486.5,79.5,485.7,79.5z"/>
	</g>
	<g>
		<g>
			<path class="st0" d="M304.4,223.9l-0.4,2.4c-1.3,6.7-4.7,8.8-10.2,8.8c-2.8,0-4.8-0.2-6.4-0.5c-0.5-0.1-0.8-0.3-0.8-0.8
				c0-0.1,0-0.2,0-0.4l3-16.8c0.1-0.8,0.4-1,1.1-1.1c1.7-0.3,3.7-0.5,6.5-0.5c4.3,0,7.3,2.2,7.3,6.6
				C304.6,222.3,304.5,223.1,304.4,223.9z M296.3,220.4h-1.2l-1.7,9.4h1.2c1.8,0,2.5-0.6,3-3.5l0.4-2.4c0.1-0.7,0.2-1.3,0.2-1.8
				C298.3,220.7,297.7,220.4,296.3,220.4z"/>
			<path class="st0" d="M323.1,223.9l-0.4,2.3c-1.2,7.1-5.6,8.9-9.9,8.9c-3.8,0-7-2-7-6.7c0-0.7,0.1-1.4,0.2-2.2l0.4-2.3
				c1.2-7.1,5.6-8.9,9.9-8.9c3.8,0,7,1.9,7,6.7C323.3,222.4,323.3,223.2,323.1,223.9z M315.4,220.5c-1.5,0-2.3,0.9-2.7,3.4l-0.4,2.3
				c-0.1,0.6-0.2,1.1-0.2,1.5c0,1.3,0.5,1.9,1.6,1.9c1.5,0,2.3-0.9,2.7-3.4l0.4-2.3c0.1-0.6,0.2-1.1,0.2-1.5
				C317,221.1,316.5,220.5,315.4,220.5z"/>
			<path class="st0" d="M338.3,220.3c-0.1,0.4-0.2,0.5-0.6,0.5c-0.8-0.1-2.3-0.2-3.4-0.2c-1,0-2.2,0.2-2.8,3.5l-0.4,2.1
				c-0.1,0.7-0.2,1.3-0.2,1.7c0,1.7,0.8,1.8,1.7,1.8c1,0,2.7-0.2,3.5-0.2c0.4-0.1,0.5,0.2,0.4,0.5l-0.7,4.1
				c-0.1,0.3-0.2,0.4-0.6,0.6c-0.9,0.3-2.1,0.5-3.5,0.5c-4.8,0-7.1-2.5-7.1-6.6c0-0.8,0.1-1.5,0.2-2.4l0.4-2.1
				c1.2-6.7,4.3-8.9,9.8-8.9c1.4,0,2.8,0.2,3.5,0.5c0.3,0.1,0.5,0.2,0.5,0.6L338.3,220.3z"/>
			<path class="st0" d="M354.1,215.9l-0.7,4c-0.1,0.3-0.2,0.5-0.6,0.5h-5.3c-0.7,0-0.9,0.2-1,0.8l-0.3,1.4h6.1
				c0.3,0,0.5,0.2,0.4,0.5l-0.6,3.7c-0.1,0.3-0.3,0.5-0.6,0.5h-6.1l-0.2,1.3c-0.1,0.4-0.1,0.5-0.1,0.6c0,0.4,0.2,0.5,0.8,0.5h5.3
				c0.3,0,0.5,0.2,0.4,0.5l-0.7,4c-0.1,0.3-0.1,0.5-0.6,0.5c-1.1,0.1-3,0.3-5.3,0.3c-3.3,0-6.1-1.1-6.1-4.7c0-0.4,0-0.9,0.1-1.4
				l1.4-7.7c1-5.9,4.8-6.1,8.1-6.1c2.3,0,4.1,0.2,5.2,0.3C354,215.4,354.2,215.5,354.1,215.9z"/>
			<path class="st0" d="M374,215.9l-3.2,18c-0.1,0.5-0.3,0.9-1.1,0.9h-4.5c-0.4,0-0.6-0.3-0.7-0.6l-3.1-7.2
				c-0.1-0.2-0.1-0.2-0.2-0.2c0,0,0,0,0,0c-0.1,0-0.2,0.1-0.2,0.2l-1.3,7.2c-0.1,0.3-0.2,0.5-0.7,0.5h-4.8c-0.3,0-0.5-0.1-0.4-0.5
				l3.2-18c0.1-0.5,0.4-0.9,1.1-0.9h4.3c0.5,0,0.7,0.4,0.9,0.7l3.1,7.2c0.1,0.2,0.2,0.2,0.2,0.2c0.1,0,0.1,0,0.2-0.2l1.3-7.4
				c0.1-0.3,0.2-0.5,0.6-0.5h4.8C374,215.3,374.1,215.6,374,215.9z"/>
			<path class="st0" d="M390.7,215.9l-0.7,4c-0.1,0.3-0.2,0.5-0.7,0.5h-3.6l-2.4,13.9c-0.1,0.3-0.2,0.5-0.6,0.5h-5.1
				c-0.4,0-0.5-0.3-0.4-0.5l2.4-13.9H376c-0.3,0-0.5-0.1-0.4-0.5l0.7-4c0.1-0.3,0.3-0.5,0.6-0.5h13.4
				C390.7,215.3,390.8,215.6,390.7,215.9z"/>
			<path class="st0" d="M405.5,215.9l-0.7,4c-0.1,0.3-0.2,0.5-0.6,0.5H399c-0.7,0-0.9,0.2-1,0.8l-0.3,1.4h6.1c0.3,0,0.5,0.2,0.4,0.5
				l-0.6,3.7c-0.1,0.3-0.3,0.5-0.6,0.5h-6.1l-0.2,1.3c-0.1,0.4-0.1,0.5-0.1,0.6c0,0.4,0.2,0.5,0.8,0.5h5.3c0.3,0,0.5,0.2,0.4,0.5
				l-0.7,4c-0.1,0.3-0.1,0.5-0.6,0.5c-1.1,0.1-3,0.3-5.3,0.3c-3.3,0-6.1-1.1-6.1-4.7c0-0.4,0-0.9,0.1-1.4l1.4-7.7
				c1-5.9,4.8-6.1,8.1-6.1c2.3,0,4.1,0.2,5.2,0.3C405.4,215.4,405.6,215.5,405.5,215.9z"/>
		</g>
	</g>
	<g>
		<g>
			<path class="st0" d="M285.1,247.1c0.4,0,0.6,0.2,0.5,0.5l-3.2,18.4c-0.1,0.3-0.2,0.5-0.6,0.5h-5.1c-0.3,0-0.5-0.2-0.4-0.5
				l1.2-6.7h-4.5l-1.2,6.7c-0.1,0.3-0.2,0.5-0.6,0.5H266c-0.3,0-0.5-0.2-0.4-0.5l3.2-18.4c0.1-0.3,0.2-0.5,0.7-0.5h5.1
				c0.3,0,0.5,0.1,0.4,0.5l-1.1,6.5h4.5l1.1-6.5c0.1-0.3,0.2-0.5,0.7-0.5H285.1z"/>
			<path class="st0" d="M301.6,266.6h-5.4c-0.3,0-0.4-0.2-0.4-0.5l0-2.9h-4l-1,2.9c-0.1,0.3-0.4,0.5-0.7,0.5h-5.5
				c-0.2,0-0.3-0.1-0.3-0.3c0-0.1,0-0.2,0.1-0.2l5.9-15.8c1-2.7,3.2-3.4,6.4-3.4c3.2,0,5.1,0.7,5.1,3.4l0.3,15.8v0
				C302.1,266.4,301.9,266.6,301.6,266.6z M295.7,251.9c-0.2,0-0.2,0.1-0.3,0.3l-2,6.1h2.4l0.1-6.1c0-0.1,0-0.1,0-0.1
				C295.9,252,295.9,251.9,295.7,251.9z"/>
			<path class="st0" d="M319.8,256.6c0.8,0.7,1.3,1.7,1.3,3.1c0,6.1-5.8,7.1-10.1,7.1c-0.9,0-3.8-0.1-5.2-0.3
				c-1.1-0.2-1.5-0.5-1.5-1.4c0-0.2,0.1-0.6,0.1-0.9l2.6-14.8c0.3-1.6,0.8-2,2.3-2.3c1.3-0.2,4.4-0.3,5.3-0.3c4.7,0,7.9,1.2,7.9,5
				C322.4,253.7,321.6,255.8,319.8,256.6z M313.5,258.8h-2.2l-0.6,3.1h2.2c1.6,0,2.2-1,2.2-1.8C315.1,259.2,314.7,258.8,313.5,258.8
				z M314.7,251.8h-2.2l-0.5,2.9h2.2c1.7,0,2.1-0.9,2.1-1.8C316.3,252.3,315.9,251.8,314.7,251.8z"/>
			<path class="st0" d="M332.1,247.7l-3.2,18.4c-0.1,0.3-0.1,0.5-0.6,0.5h-5.1c-0.4,0-0.5-0.2-0.4-0.5l3.2-18.4
				c0.1-0.3,0.2-0.5,0.7-0.5h5.1C332,247.1,332.1,247.3,332.1,247.7z"/>
			<path class="st0" d="M344.1,262.1l-0.7,4c-0.1,0.3-0.2,0.4-0.6,0.5c-1.1,0.2-2.6,0.3-4,0.3c-3,0-6.1-0.8-6.1-4.6
				c0-0.5,0-1,0.1-1.5l2.3-13.1c0.1-0.3,0.2-0.5,0.7-0.5h5.1c0.3,0,0.5,0.1,0.4,0.5l-2.3,13.1c0,0.1,0,0.2,0,0.3
				c0,0.4,0.2,0.5,0.8,0.5h4C344,261.6,344.1,261.7,344.1,262.1z"/>
			<path class="st0" d="M355,247.7l-3.2,18.4c-0.1,0.3-0.1,0.5-0.6,0.5h-5.1c-0.4,0-0.5-0.2-0.4-0.5l3.2-18.4
				c0.1-0.3,0.2-0.5,0.7-0.5h5.1C354.9,247.1,355.1,247.3,355,247.7z"/>
			<path class="st0" d="M371.8,247.7l-0.7,4c-0.1,0.3-0.2,0.5-0.7,0.5h-3.6l-2.4,13.9c-0.1,0.3-0.2,0.5-0.6,0.5h-5.1
				c-0.4,0-0.5-0.3-0.4-0.5l2.4-13.9H357c-0.3,0-0.5-0.1-0.4-0.5l0.7-4c0.1-0.3,0.3-0.5,0.6-0.5h13.4
				C371.7,247.1,371.8,247.4,371.8,247.7z"/>
			<path class="st0" d="M386.9,266.6h-5.4c-0.3,0-0.4-0.2-0.4-0.5l0-2.9h-4l-1,2.9c-0.1,0.3-0.4,0.5-0.7,0.5H370
				c-0.2,0-0.3-0.1-0.3-0.3c0-0.1,0-0.2,0.1-0.2l5.9-15.8c1-2.7,3.2-3.4,6.4-3.4s5.1,0.7,5.1,3.4l0.3,15.8v0
				C387.4,266.4,387.2,266.6,386.9,266.6z M381.1,251.9c-0.2,0-0.2,0.1-0.3,0.3l-2,6.1h2.4l0.1-6.1c0-0.1,0-0.1,0-0.1
				C381.3,252,381.2,251.9,381.1,251.9z"/>
			<path class="st0" d="M407.3,255.7l-0.4,2.4c-1.3,6.7-4.7,8.8-10.2,8.8c-2.8,0-4.8-0.2-6.4-0.5c-0.5-0.1-0.8-0.3-0.8-0.8
				c0-0.1,0-0.2,0-0.4l3-16.8c0.1-0.8,0.4-1,1.1-1.1c1.7-0.3,3.7-0.5,6.5-0.5c4.3,0,7.3,2.2,7.3,6.6
				C407.5,254.1,407.4,254.9,407.3,255.7z M399.2,252.2H398l-1.7,9.4h1.2c1.8,0,2.5-0.6,3-3.5l0.4-2.4c0.1-0.7,0.2-1.3,0.2-1.8
				C401.2,252.5,400.6,252.2,399.2,252.2z"/>
			<path class="st0" d="M426,255.7l-0.4,2.3c-1.2,7.1-5.6,8.9-9.9,8.9c-3.8,0-7-2-7-6.7c0-0.7,0.1-1.4,0.2-2.2l0.4-2.3
				c1.2-7.1,5.6-8.9,9.9-8.9c3.8,0,7,1.9,7,6.7C426.2,254.2,426.2,254.9,426,255.7z M418.3,252.3c-1.5,0-2.3,0.9-2.7,3.4l-0.4,2.3
				c-0.1,0.6-0.2,1.1-0.2,1.5c0,1.3,0.5,1.9,1.6,1.9c1.5,0,2.3-0.9,2.7-3.4l0.4-2.3c0.1-0.6,0.2-1.1,0.2-1.5
				C419.9,252.8,419.4,252.3,418.3,252.3z"/>
		</g>
	</g>
	<g>
		<g>
			<path class="st0" d="M310.5,285.5l0,0.2c-0.8,5.8-5.9,6.8-9.6,6.8c-0.5,0-0.8,0-1.6-0.1l-0.9,5.4c-0.1,0.3-0.2,0.5-0.6,0.5h-5.1
				c-0.2,0-0.4-0.1-0.4-0.4l3-16.8c0.3-1.6,0.8-2,2.2-2.2c1.3-0.2,4-0.3,5.8-0.3c3.5,0,7.4,1.4,7.4,5.7
				C310.5,284.7,310.5,285.1,310.5,285.5z M302.4,283.8h-1.6l-0.6,3.5h1.6c1.3,0,2.4-0.6,2.5-1.7l0-0.2c0-0.1,0-0.2,0-0.3
				C304.4,284.2,303.6,283.8,302.4,283.8z"/>
			<path class="st0" d="M328.6,287.5l-0.4,2.3c-1.2,7.1-5.6,8.9-9.9,8.9c-3.8,0-7-2-7-6.7c0-0.7,0.1-1.4,0.2-2.2l0.4-2.3
				c1.2-7.1,5.6-8.9,9.9-8.9c3.8,0,7,1.9,7,6.7C328.8,286,328.7,286.7,328.6,287.5z M320.9,284.1c-1.5,0-2.3,0.9-2.7,3.4l-0.4,2.3
				c-0.1,0.6-0.2,1.1-0.2,1.5c0,1.3,0.5,1.9,1.6,1.9c1.5,0,2.3-0.9,2.7-3.4l0.4-2.3c0.1-0.6,0.2-1.1,0.2-1.5
				C322.5,284.6,322,284.1,320.9,284.1z"/>
			<path class="st0" d="M343.6,290.8l2.4,6.8c0,0.1,0,0.2,0,0.2c0,0.3-0.2,0.6-0.6,0.6H340c-0.3,0-0.3-0.3-0.4-0.5l-2-6.2h-1
				l-1.1,6.2c-0.1,0.3-0.2,0.5-0.6,0.5h-5.1c-0.3,0-0.5-0.1-0.4-0.5l2.9-16.7c0.3-1.6,0.8-2,2.2-2.2c0.9-0.1,4-0.3,5.8-0.3
				c4.8,0,7.6,1.7,7.6,5.5C347.8,286.7,346.5,289.7,343.6,290.8z M339.9,283.8h-2l-0.6,3.3h2c1.7,0,2.2-1,2.2-2
				C341.5,284.2,341,283.8,339.9,283.8z"/>
			<path class="st0" d="M370.8,298.4h-5.4c-0.3,0-0.4-0.2-0.4-0.5l0-2.9h-4l-1,2.9c-0.1,0.3-0.4,0.5-0.7,0.5h-5.5
				c-0.2,0-0.3-0.1-0.3-0.3c0-0.1,0-0.2,0.1-0.2l5.9-15.8c1-2.7,3.2-3.4,6.4-3.4c3.2,0,5.1,0.7,5.1,3.4l0.3,15.8v0
				C371.3,298.2,371.1,298.4,370.8,298.4z M364.9,283.7c-0.2,0-0.2,0.1-0.3,0.3l-2,6.1h2.4l0.1-6.1c0-0.1,0-0.1,0-0.1
				C365.1,283.7,365.1,283.7,364.9,283.7z"/>
			<path class="st0" d="M382.8,279.4l-3.2,18.4c-0.1,0.3-0.1,0.5-0.6,0.5h-5.1c-0.4,0-0.5-0.2-0.4-0.5l3.2-18.4
				c0.1-0.3,0.2-0.5,0.7-0.5h5.1C382.7,278.9,382.9,279.1,382.8,279.4z"/>
			<path class="st0" d="M399.5,279.4l-0.7,4c-0.1,0.3-0.2,0.5-0.7,0.5h-3.6l-2.4,13.9c-0.1,0.3-0.2,0.5-0.6,0.5h-5.1
				c-0.4,0-0.5-0.3-0.4-0.5l2.4-13.9h-3.7c-0.3,0-0.5-0.1-0.4-0.5l0.7-4c0.1-0.3,0.3-0.5,0.6-0.5h13.4
				C399.5,278.9,399.6,279.2,399.5,279.4z"/>
		</g>
	</g>
	<path class="st1" d="M345.2,198.2h26.3c27.8-39.1,48.2-45.7,100.1-45.7h149.1c61.4,0,80.4-23.6,80.4-90.6V28c0-8.1-5.1-14-12.4-14
		h-5.8c-7.3,0-11.7,5.9-11.7,14v33.9c0,49.4-8,58.2-50.4,58.2H471.6c-51.9,0-84,9.6-114,47.2c-28.5-36.1-60.7-47.2-112.5-47.2H96
		c-42.4,0-50.4-8.8-50.4-58.2V28c0-8.1-4.4-14-11.7-14H28c-7.3,0-12.4,5.9-12.4,14v33.9c0,68.5,19,90.6,80.4,90.6h149.1
		C297,152.5,317.4,159.2,345.2,198.2"/>
</g>
</svg>
