<?xml version="1.0" encoding="utf-8"?>
<!-- Generator: Adobe Illustrator 19.2.1, SVG Export Plug-In . SVG Version: 6.00 Build 0)  -->
<svg version="1.1" id="Capa_1" xmlns="http://www.w3.org/2000/svg" xmlns:xlink="http://www.w3.org/1999/xlink" x="0px" y="0px"
	 viewBox="0 0 716.7 179.1" style="enable-background:new 0 0 716.7 179.1;" xml:space="preserve">
<style type="text/css">
	.st0{fill:#3A0048;}
	.st1{fill:#FFFFFE;}
	.st2{fill:#F000A6;}
	.st3{fill:#FFFC00;}
	.st4{clip-path:url(#SVGID_2_);fill:none;stroke:#FFFFFF;}
	.st5{fill:none;stroke:#FFFFFF;}
	.st6{clip-path:url(#SVGID_4_);fill:none;stroke:#FFFFFF;}
	.st7{clip-path:url(#SVGID_6_);fill:none;stroke:#FFFFFF;}
</style>
<g>
	<rect x="8.2" y="57" class="st0" width="706" height="104.6"/>
	<rect x="8.2" y="150.9" class="st0" width="706" height="21.4"/>
	<g>
		<path class="st1" d="M39.4,79.6c-1.1,0-2-0.9-2-2c0-1.1,0.9-2,2-2s2,0.9,2,2C41.3,78.7,40.5,79.6,39.4,79.6z"/>
	</g>
	<g>
		<path class="st1" d="M61.5,73.2c0.2,0,0.2,0.1,0.2,0.3l-0.1,0.8c0,0.2,0,0.3-0.3,0.3c-0.4,0-1.2-0.1-1.9-0.1
			c-1.2,0-1.9,0.6-2.1,2.2L57,78.4c0,0.3-0.1,0.6-0.1,0.8c0,1.1,0.5,1.5,1.4,1.5c0.6,0,1.5-0.1,1.9-0.1c0.3,0,0.3,0.1,0.2,0.3
			l-0.1,0.8c0,0.2-0.1,0.2-0.3,0.3c-0.2,0-1,0.2-1.9,0.2c-1.4,0-2.8-0.7-2.8-2.8c0-0.3,0-0.6,0.1-0.9l0.3-1.8c0.6-3.2,2.3-3.7,4-3.7
			C60.6,73,61.3,73.2,61.5,73.2z"/>
		<path class="st1" d="M64.2,75.3c0.1,0,0.2,0,0.2,0.2l-1.1,6.3c0,0.1-0.1,0.3-0.3,0.3h-1.1c-0.1,0-0.2-0.1-0.2-0.3l1.1-6.3
			c0-0.1,0.1-0.2,0.3-0.2H64.2z M64.6,72.8c0.1,0,0.2,0.1,0.2,0.2l-0.2,1.1c0,0.1-0.1,0.2-0.3,0.2h-1.2c-0.1,0-0.2-0.1-0.2-0.2
			l0.2-1.1c0-0.1,0.1-0.2,0.3-0.2H64.6z"/>
		<path class="st1" d="M70.1,75.4c0.1,0,0.2,0.1,0.2,0.3l-0.1,0.7c0,0.2-0.1,0.3-0.3,0.2c-0.3,0-1.2-0.1-1.9-0.1
			c-0.4,0-0.9,0-0.9,0.5c0,0.2,0,0.3,0.4,0.6l1.4,1c0.7,0.5,0.9,1,0.9,1.5c0,1.5-1.2,2.1-2.7,2.1c-0.4,0-1.4,0-2.2-0.2
			c-0.2,0-0.2-0.1-0.2-0.3l0.1-0.7c0-0.1,0.1-0.2,0.3-0.2c0.6,0.1,1.6,0.1,1.9,0.1c0.6,0,1-0.1,1-0.7c0-0.2-0.1-0.4-0.4-0.6
			l-1.3-0.9c-0.7-0.5-1-0.9-1-1.7c0-1.4,1.4-1.8,2.5-1.8C68.7,75.2,69.4,75.3,70.1,75.4z"/>
		<path class="st1" d="M75.9,75.3c0.2,0,0.2,0.1,0.2,0.3L76,76.4c0,0.1-0.1,0.2-0.3,0.2c-0.4,0-0.8-0.1-1.5-0.1
			c-0.6,0-1.2,0.3-1.4,1.6l-0.2,1.1c0,0.2-0.1,0.4-0.1,0.6c0,0.8,0.4,1,0.9,1c0.8,0,1.1,0,1.6-0.1c0.2,0,0.2,0,0.2,0.2l-0.1,0.8
			c0,0.2-0.1,0.3-0.3,0.3c-0.3,0.1-0.8,0.2-1.6,0.2c-1.4,0-2.3-0.9-2.3-2.3c0-0.2,0-0.4,0.1-0.6l0.2-1.1c0.4-2.3,1.7-2.9,3.3-2.9
			C75.2,75.2,75.7,75.3,75.9,75.3z"/>
		<path class="st1" d="M82.3,78.2l-0.2,1c-0.4,2-1.5,3-3.4,3c-1.6,0-2.4-1.2-2.4-2.4c0-0.2,0-0.4,0-0.6l0.2-1c0.4-2,1.5-3,3.4-3
			c1.6,0,2.4,1.1,2.4,2.4C82.4,77.7,82.4,78,82.3,78.2z M79.8,76.5c-0.7,0-1.4,0.4-1.6,1.6l-0.2,1c0,0.2,0,0.4,0,0.5
			c0,0.7,0.3,1.1,1.1,1.1c0.8,0,1.4-0.5,1.6-1.6l0.2-1c0-0.2,0-0.4,0-0.5C80.8,76.9,80.5,76.5,79.8,76.5z"/>
	</g>
	<g>
		<path class="st1" d="M39.4,95.6c-1.1,0-2-0.9-2-2c0-1.1,0.9-2,2-2s2,0.9,2,2C41.3,94.7,40.5,95.6,39.4,95.6z"/>
	</g>
	<g>
		<path class="st1" d="M62.4,92.8l-0.3,1.6c-0.5,2.8-2,3.7-4.1,3.7c-1.7,0-2.8-1-2.8-2.8c0-0.3,0-0.6,0.1-0.9l0.3-1.6
			c0.5-2.8,2-3.7,4.1-3.7c1.7,0,2.8,1,2.8,2.9C62.5,92.1,62.5,92.4,62.4,92.8z M59.4,90.5c-1.2,0-1.9,0.7-2.1,2.3L57,94.4
			c-0.1,0.3-0.1,0.6-0.1,0.9c0,1,0.5,1.4,1.4,1.4c1.3,0,1.9-0.7,2.1-2.3l0.3-1.6c0.1-0.3,0.1-0.6,0.1-0.9
			C60.8,90.8,60.3,90.5,59.4,90.5z"/>
		<path class="st1" d="M67.5,91.4l-0.2,0.9c0,0.1-0.1,0.2-0.3,0.2c-0.4,0-0.9,0-1.7,0.4l-0.9,4.8c0,0.1-0.1,0.3-0.3,0.3h-1.1
			c-0.1,0-0.2-0.1-0.2-0.3l1.1-6.3c0-0.1,0.1-0.2,0.3-0.2h1c0.2,0,0.2,0.1,0.2,0.2l0,0.3c0.7-0.5,1.3-0.6,1.8-0.6
			C67.5,91.2,67.5,91.3,67.5,91.4C67.5,91.4,67.5,91.4,67.5,91.4z"/>
		<path class="st1" d="M73.4,91.5c0.2,0.1,0.3,0.1,0.3,0.3l-1,6c0,0.1-0.2,0.2-0.3,0.2h-1c-0.1,0-0.2-0.1-0.2-0.2l0-0.3
			c-0.7,0.5-1.3,0.7-1.9,0.7c-1.1,0-2-0.7-2-2.1c0-0.3,0-0.7,0.1-1l0.1-0.9c0.3-1.9,1.5-3,3.4-3C71.8,91.2,72.7,91.3,73.4,91.5z
			 M70.8,92.5c-1,0-1.4,0.7-1.6,1.7l-0.2,1C69,95.6,69,95.8,69,96c0,0.7,0.3,0.9,0.8,0.9c0.5,0,1-0.2,1.5-0.5l0.7-3.8
			C71.8,92.5,71.3,92.5,70.8,92.5z"/>
		<path class="st1" d="M79.3,91.3c0.2,0,0.2,0.1,0.2,0.3l-0.1,0.8c0,0.1-0.1,0.2-0.3,0.2c-0.4,0-0.8-0.1-1.5-0.1
			c-0.6,0-1.2,0.3-1.4,1.6l-0.2,1.1c0,0.2-0.1,0.4-0.1,0.6c0,0.8,0.4,1,0.9,1c0.8,0,1.1,0,1.6-0.1c0.2,0,0.2,0,0.2,0.2l-0.1,0.8
			c0,0.2-0.1,0.3-0.3,0.3c-0.3,0.1-0.8,0.2-1.6,0.2c-1.4,0-2.3-0.9-2.3-2.3c0-0.2,0-0.4,0.1-0.6l0.2-1.1c0.4-2.3,1.7-2.9,3.3-2.9
			C78.5,91.2,79.1,91.3,79.3,91.3z"/>
		<path class="st1" d="M82.7,88.9c0.1,0,0.2,0.1,0.2,0.2l-1.5,8.6c0,0.1-0.1,0.3-0.3,0.3H80c-0.1,0-0.2-0.1-0.2-0.3l1.5-8.6
			c0-0.1,0.1-0.2,0.3-0.2H82.7z"/>
		<path class="st1" d="M89.1,94.3L89,94.9c0,0.2-0.1,0.3-0.3,0.3h-3.9c0,0.2-0.1,0.3-0.1,0.5c0,0.6,0.3,1.1,1.2,1.1
			c0.9,0,1.7-0.1,2.2-0.1c0.2,0,0.3,0,0.2,0.2l-0.1,0.8c0,0.2-0.1,0.3-0.3,0.3c-0.8,0.1-1.3,0.2-2.4,0.2c-1.1,0-2.4-0.6-2.4-2.4
			c0-0.2,0-0.5,0.1-0.7l0.1-0.7c0.4-2.2,1.6-3.1,3.4-3.1c1.6,0,2.4,1.1,2.4,2.5C89.2,93.8,89.1,94.1,89.1,94.3z M86.6,92.5
			c-1,0-1.4,0.6-1.6,1.5h2.5c0-0.2,0-0.3,0-0.5C87.6,92.9,87.2,92.5,86.6,92.5z"/>
	</g>
	<g>
		<path class="st1" d="M39.4,111.6c-1.1,0-2-0.9-2-2c0-1.1,0.9-2,2-2s2,0.9,2,2C41.3,110.7,40.5,111.6,39.4,111.6z"/>
	</g>
	<g>
		<path class="st1" d="M63.7,105.1c0.3,0,0.4,0.2,0.4,0.5l-1.5,8.3c0,0.1-0.1,0.2-0.2,0.2h-1.2c-0.1,0-0.2-0.1-0.1-0.2l1-5.6
			c0-0.1,0-0.1,0-0.1c0,0,0,0,0,0c0,0,0,0-0.1,0.1l-1.5,2.3c-0.1,0.1-0.2,0.2-0.4,0.2h-1.2c-0.2,0-0.3-0.1-0.3-0.2l-0.8-2.3
			c0,0,0-0.1,0-0.1c0,0,0,0,0,0.1l-1,5.6c0,0.1-0.1,0.2-0.2,0.2h-1.2c-0.1,0-0.2-0.1-0.2-0.2l1.5-8.3c0-0.3,0.3-0.5,0.6-0.5h0.9
			c0.3,0,0.3,0.1,0.4,0.3l1.2,3.7c0,0.1,0,0.2,0.1,0.2c0.1,0,0.1-0.1,0.2-0.2l2.5-3.7c0.1-0.2,0.3-0.3,0.5-0.3H63.7z"/>
		<path class="st1" d="M66.8,107.2c0.1,0,0.2,0,0.2,0.2l-1.1,6.3c0,0.1-0.1,0.3-0.3,0.3h-1.1c-0.1,0-0.2-0.1-0.2-0.3l1.1-6.3
			c0-0.1,0.1-0.2,0.3-0.2H66.8z M67.3,104.8c0.1,0,0.2,0.1,0.2,0.2l-0.2,1.1c0,0.1-0.1,0.2-0.3,0.2h-1.2c-0.1,0-0.2-0.1-0.2-0.2
			l0.2-1.1c0-0.1,0.1-0.2,0.3-0.2H67.3z"/>
		<path class="st1" d="M72.8,107.3c0.2,0,0.2,0.1,0.2,0.3l-0.1,0.8c0,0.1-0.1,0.2-0.3,0.2c-0.4,0-0.8-0.1-1.5-0.1
			c-0.6,0-1.2,0.3-1.4,1.6l-0.2,1.1c0,0.2-0.1,0.4-0.1,0.6c0,0.8,0.4,1,0.9,1c0.8,0,1.1,0,1.6-0.1c0.2,0,0.2,0,0.2,0.2l-0.1,0.8
			c0,0.2-0.1,0.3-0.3,0.3c-0.3,0.1-0.8,0.2-1.6,0.2c-1.4,0-2.3-0.9-2.3-2.3c0-0.2,0-0.4,0.1-0.6l0.2-1.1c0.4-2.3,1.7-2.9,3.3-2.9
			C72,107.2,72.5,107.2,72.8,107.3z"/>
		<path class="st1" d="M77.7,107.4l-0.2,0.9c0,0.1-0.1,0.2-0.3,0.2c-0.4,0-0.9,0-1.7,0.4l-0.9,4.8c0,0.1-0.1,0.3-0.3,0.3h-1.1
			c-0.1,0-0.2-0.1-0.2-0.3l1.1-6.3c0-0.1,0.1-0.2,0.3-0.2h1c0.2,0,0.2,0.1,0.2,0.2l0,0.3c0.7-0.5,1.3-0.6,1.8-0.6
			C77.7,107.2,77.7,107.2,77.7,107.4C77.7,107.4,77.7,107.4,77.7,107.4z"/>
		<path class="st1" d="M83.6,110.1l-0.2,1c-0.4,2-1.5,3-3.4,3c-1.6,0-2.4-1.2-2.4-2.4c0-0.2,0-0.4,0-0.6l0.2-1c0.4-2,1.5-3,3.4-3
			c1.6,0,2.4,1.1,2.4,2.4C83.7,109.7,83.7,109.9,83.6,110.1z M81.1,108.5c-0.7,0-1.4,0.4-1.6,1.6l-0.2,1c0,0.2,0,0.4,0,0.5
			c0,0.7,0.3,1.1,1.1,1.1c0.8,0,1.4-0.5,1.6-1.6l0.2-1c0-0.2,0-0.4,0-0.5C82.1,108.9,81.8,108.5,81.1,108.5z"/>
		<path class="st1" d="M89.6,107.4c0.1,0,0.2,0.1,0.2,0.3l-0.1,0.7c0,0.2-0.1,0.3-0.3,0.2c-0.3,0-1.2-0.1-1.9-0.1
			c-0.4,0-0.9,0-0.9,0.5c0,0.2,0,0.3,0.4,0.6l1.4,1c0.7,0.5,0.9,1,0.9,1.5c0,1.5-1.2,2.1-2.7,2.1c-0.4,0-1.4,0-2.2-0.2
			c-0.2,0-0.2-0.1-0.2-0.3l0.1-0.7c0-0.1,0.1-0.2,0.3-0.2c0.6,0.1,1.6,0.1,1.9,0.1c0.6,0,1-0.1,1-0.7c0-0.2-0.1-0.4-0.4-0.6
			l-1.3-0.9c-0.7-0.5-1-0.9-1-1.7c0-1.4,1.4-1.8,2.5-1.8C88.2,107.2,88.9,107.2,89.6,107.4z"/>
		<path class="st1" d="M96.4,110.1l-0.2,1c-0.4,2-1.5,3-3.4,3c-1.6,0-2.4-1.2-2.4-2.4c0-0.2,0-0.4,0-0.6l0.2-1c0.4-2,1.5-3,3.4-3
			c1.6,0,2.4,1.1,2.4,2.4C96.5,109.7,96.4,109.9,96.4,110.1z M93.8,108.5c-0.7,0-1.4,0.4-1.6,1.6l-0.2,1c0,0.2,0,0.4,0,0.5
			c0,0.7,0.3,1.1,1.1,1.1c0.8,0,1.4-0.5,1.6-1.6l0.2-1c0-0.2,0-0.4,0-0.5C94.9,108.9,94.5,108.5,93.8,108.5z"/>
		<path class="st1" d="M102,104.8c0.2,0,0.2,0.1,0.2,0.2l-0.1,0.7c0,0.1-0.1,0.2-0.2,0.2h-0.5c-0.6,0-0.7,0.1-0.8,0.7l-0.1,0.6h1.2
			c0.2,0,0.2,0.1,0.2,0.2l-0.1,0.7c0,0.1-0.1,0.2-0.3,0.2h-1.2l-1,5.6c-0.3,1.7-1.2,1.9-2.3,1.9c-0.3,0-0.6,0-0.8-0.1
			c-0.1,0-0.2-0.1-0.2-0.2l0.1-0.7c0-0.1,0.1-0.2,0.2-0.2h0.5c0.6,0,0.7-0.1,0.8-0.7l1-5.6l-1-0.2c-0.1,0-0.2-0.1-0.2-0.2l0.1-0.6
			c0-0.1,0.1-0.2,0.3-0.2h1.1l0.1-0.6c0.3-1.7,1.2-1.9,2.2-1.9C101.5,104.7,101.9,104.8,102,104.8z"/>
		<path class="st1" d="M105.2,105.8c0.2,0,0.2,0.1,0.2,0.2l-0.2,1.2h1.1c0.1,0,0.2,0,0.2,0.2l-0.1,0.7c0,0.2-0.1,0.2-0.3,0.2H105
			l-0.7,3.8c0,0.2-0.1,0.3-0.1,0.4c0,0.2,0.1,0.3,0.4,0.3h0.6c0.1,0,0.2,0,0.2,0.2l-0.1,0.8c0,0.1-0.1,0.2-0.3,0.2
			c-0.3,0-0.6,0.1-0.8,0.1c-1.1,0-1.6-0.4-1.6-1.3c0-0.2,0-0.4,0.1-0.6l0.7-3.8l-1.1-0.2c-0.2,0-0.2-0.1-0.2-0.2l0.1-0.5
			c0-0.1,0.1-0.2,0.3-0.2h1.1l0.2-1c0-0.1,0.1-0.2,0.3-0.2L105.2,105.8z"/>
	</g>
	<g>
		<path class="st1" d="M39.4,127.6c-1.1,0-2-0.9-2-2c0-1.1,0.9-2,2-2s2,0.9,2,2C41.3,126.7,40.5,127.6,39.4,127.6z"/>
	</g>
	<g>
		<path class="st1" d="M61.5,121.2c0.2,0,0.2,0.1,0.2,0.3l-0.1,0.8c0,0.2,0,0.3-0.3,0.3c-0.4,0-1.2-0.1-1.9-0.1
			c-1.2,0-1.9,0.6-2.1,2.2l-0.3,1.8c0,0.3-0.1,0.6-0.1,0.8c0,1.1,0.5,1.5,1.4,1.5c0.6,0,1.5-0.1,1.9-0.1c0.3,0,0.3,0.1,0.2,0.3
			l-0.1,0.8c0,0.2-0.1,0.2-0.3,0.3c-0.2,0-1,0.2-1.9,0.2c-1.4,0-2.8-0.7-2.8-2.8c0-0.3,0-0.6,0.1-0.9l0.3-1.8c0.6-3.2,2.3-3.7,4-3.7
			C60.6,121,61.3,121.1,61.5,121.2z"/>
		<path class="st1" d="M67.8,126.1l-0.2,1c-0.4,2-1.5,3-3.4,3c-1.6,0-2.4-1.2-2.4-2.4c0-0.2,0-0.4,0-0.6l0.2-1c0.4-2,1.5-3,3.4-3
			c1.6,0,2.4,1.1,2.4,2.4C67.9,125.7,67.8,125.9,67.8,126.1z M65.2,124.5c-0.7,0-1.4,0.4-1.6,1.6l-0.2,1c0,0.2,0,0.4,0,0.5
			c0,0.7,0.3,1.1,1.1,1.1c0.8,0,1.4-0.5,1.6-1.6l0.2-1c0-0.2,0-0.4,0-0.5C66.3,124.9,65.9,124.5,65.2,124.5z"/>
		<path class="st1" d="M77.9,125.7l-0.7,4.1c0,0.1-0.1,0.3-0.3,0.3h-1.1c-0.1,0-0.2-0.1-0.2-0.3l0.7-4.1c0-0.2,0.1-0.4,0.1-0.6
			c0-0.5-0.2-0.6-0.7-0.6c-0.2,0-0.7,0.1-1.2,0.3c0,0.3,0,0.6-0.1,0.9l-0.7,4.1c0,0.1-0.1,0.3-0.3,0.3h-1.1c-0.1,0-0.2-0.1-0.2-0.3
			l0.7-4.1c0-0.2,0.1-0.4,0.1-0.6c0-0.4-0.2-0.6-0.7-0.6c-0.3,0-0.6,0.1-1.2,0.4l-0.9,4.8c0,0.1-0.1,0.3-0.3,0.3h-1.1
			c-0.1,0-0.2-0.1-0.2-0.3l1.1-6.3c0-0.1,0.1-0.2,0.3-0.2h1c0.2,0,0.2,0.1,0.2,0.2l0,0.3c0.6-0.3,1.1-0.6,1.8-0.6
			c0.7,0,1.1,0.3,1.3,0.6c0.6-0.4,1.3-0.6,2.1-0.6c1.1,0,1.7,0.7,1.7,1.8C77.9,125.2,77.9,125.4,77.9,125.7z"/>
		<path class="st1" d="M84.9,126.2l-0.2,0.9c-0.3,2.1-1.5,3-3.4,3c-0.3,0-0.7,0-1.1-0.1l-0.4,2.1c0,0.1-0.1,0.2-0.3,0.2h-1.1
			c-0.1,0-0.2-0.1-0.2-0.2l1.5-8.3c0-0.2,0.1-0.3,0.4-0.3c0.8-0.2,1.7-0.3,2.5-0.3c1.6,0,2.4,0.9,2.4,2.3
			C85,125.7,85,125.9,84.9,126.2z M82.4,124.5c-0.4,0-0.9,0-1.2,0.1l-0.7,4.2c0.3,0,0.9,0.1,1.1,0.1c1,0,1.4-0.8,1.6-1.7l0.2-0.9
			c0-0.3,0.1-0.5,0.1-0.7C83.4,124.8,83.1,124.5,82.4,124.5z"/>
		<path class="st1" d="M89.1,129.8c0,0.1-0.1,0.2-0.3,0.2h-1.2c-0.1,0-0.2-0.1-0.2-0.2l1.3-7.3h-2.1c-0.1,0-0.2,0-0.2-0.2l0.2-0.9
			c0-0.2,0.1-0.2,0.3-0.2h5.9c0.2,0,0.2,0.1,0.2,0.2l-0.2,0.9c0,0.2-0.1,0.2-0.3,0.2h-2.1L89.1,129.8z"/>
		<path class="st1" d="M95.6,121.1c0.2,0,0.2,0.1,0.2,0.2l-1.5,8.4c0,0.1-0.1,0.2-0.3,0.2h-1.2c-0.2,0-0.2-0.1-0.2-0.2l1.5-8.4
			c0-0.1,0.1-0.2,0.3-0.2H95.6z"/>
		<path class="st1" d="M102.5,130h-1.2c-0.2,0-0.2-0.1-0.2-0.2l-0.1-2.3h-2.8l-1,2.3c0,0.1-0.1,0.2-0.3,0.2h-1.3
			c-0.1,0-0.2-0.1-0.2-0.2c0,0,0-0.1,0-0.1l3.3-7.5c0.5-1.1,1.2-1.2,1.9-1.2c0.6,0,1.4,0.2,1.5,1.2l0.6,7.5c0,0,0,0,0,0
			C102.8,129.9,102.7,130,102.5,130z M100.6,122.6c0-0.1,0-0.2-0.2-0.2c-0.1,0-0.2,0-0.2,0.2l-1.5,3.6h2.1L100.6,122.6z"/>
	</g>
	<g>
		<path class="st1" d="M39.4,143.6c-1.1,0-2-0.9-2-2c0-1.1,0.9-2,2-2s2,0.9,2,2C41.3,142.7,40.5,143.6,39.4,143.6z"/>
	</g>
	<g>
		<path class="st1" d="M62.4,140.7l-0.3,1.6c-0.5,2.8-2,3.7-4.1,3.7c-1.7,0-2.8-1-2.8-2.8c0-0.3,0-0.6,0.1-0.9l0.3-1.6
			c0.5-2.8,2-3.7,4.1-3.7c1.7,0,2.8,1,2.8,2.9C62.5,140.1,62.5,140.4,62.4,140.7z M59.4,138.4c-1.2,0-1.9,0.7-2.1,2.3l-0.3,1.6
			c-0.1,0.3-0.1,0.6-0.1,0.9c0,1,0.5,1.4,1.4,1.4c1.3,0,1.9-0.7,2.1-2.3l0.3-1.6c0.1-0.3,0.1-0.6,0.1-0.9
			C60.8,138.8,60.3,138.4,59.4,138.4z"/>
		<path class="st1" d="M66.5,137.8c0.2,0,0.2,0.1,0.2,0.2l-0.2,1.2h1.1c0.1,0,0.2,0,0.2,0.2l-0.1,0.7c0,0.2-0.1,0.2-0.3,0.2h-1.1
			l-0.7,3.8c0,0.2-0.1,0.3-0.1,0.4c0,0.2,0.1,0.3,0.4,0.3h0.6c0.1,0,0.2,0,0.2,0.2l-0.1,0.8c0,0.1-0.1,0.2-0.3,0.2
			c-0.3,0-0.6,0.1-0.8,0.1c-1.1,0-1.6-0.4-1.6-1.3c0-0.2,0-0.4,0.1-0.6l0.7-3.8l-1.1-0.2c-0.2,0-0.2-0.1-0.2-0.2l0.1-0.5
			c0-0.1,0.1-0.2,0.3-0.2h1.1l0.2-1c0-0.1,0.1-0.2,0.3-0.2L66.5,137.8z"/>
		<path class="st1" d="M72.4,139.4l-0.2,0.9c0,0.1-0.1,0.2-0.3,0.2c-0.4,0-0.9,0-1.7,0.4l-0.9,4.8c0,0.1-0.1,0.3-0.3,0.3H68
			c-0.1,0-0.2-0.1-0.2-0.3l1.1-6.3c0-0.1,0.1-0.2,0.3-0.2h1c0.2,0,0.2,0.1,0.2,0.2l0,0.3c0.7-0.5,1.3-0.6,1.8-0.6
			C72.4,139.2,72.4,139.2,72.4,139.4C72.4,139.4,72.4,139.4,72.4,139.4z"/>
		<path class="st1" d="M78.3,142.1l-0.2,1c-0.4,2-1.5,3-3.4,3c-1.6,0-2.4-1.2-2.4-2.4c0-0.2,0-0.4,0-0.6l0.2-1c0.4-2,1.5-3,3.4-3
			c1.6,0,2.4,1.1,2.4,2.4C78.4,141.7,78.3,141.9,78.3,142.1z M75.7,140.5c-0.7,0-1.4,0.4-1.6,1.6l-0.2,1c0,0.2,0,0.4,0,0.5
			c0,0.7,0.3,1.1,1.1,1.1c0.8,0,1.4-0.5,1.6-1.6l0.2-1c0-0.2,0-0.4,0-0.5C76.8,140.9,76.4,140.5,75.7,140.5z"/>
		<path class="st1" d="M84.3,139.4c0.1,0,0.2,0.1,0.2,0.3l-0.1,0.7c0,0.2-0.1,0.3-0.3,0.2c-0.3,0-1.2-0.1-1.9-0.1
			c-0.4,0-0.9,0-0.9,0.5c0,0.2,0,0.3,0.4,0.6l1.4,1c0.7,0.5,0.9,1,0.9,1.5c0,1.5-1.2,2.1-2.7,2.1c-0.4,0-1.4,0-2.2-0.2
			c-0.2,0-0.2-0.1-0.2-0.3l0.1-0.7c0-0.1,0.1-0.2,0.3-0.2c0.6,0.1,1.6,0.1,1.9,0.1c0.6,0,1-0.1,1-0.7c0-0.2-0.1-0.4-0.4-0.6
			l-1.3-0.9c-0.7-0.5-1-0.9-1-1.7c0-1.4,1.4-1.8,2.5-1.8C82.9,139.2,83.6,139.2,84.3,139.4z"/>
	</g>
	<g>
		<path class="st1" d="M92.4,137.4c-0.9,1.2-1.8,2.9-2.2,5.2l0,0.2c-0.1,0.8-0.2,1.5-0.2,2.1c0,1.3,0.2,2.3,0.5,3.1c0,0,0,0.1,0,0.1
			c0,0.1,0,0.2-0.2,0.2h-0.7c-0.2,0-0.3,0-0.4-0.2c-0.6-1-0.8-2.4-0.8-3.7c0-0.5,0-1.1,0.1-1.6l0-0.2c0.4-2.3,1.2-3.9,2.5-5.3
			c0.1-0.1,0.3-0.2,0.4-0.2h0.9c0.1,0,0.1,0,0.1,0.1C92.5,137.2,92.4,137.3,92.4,137.4z"/>
		<path class="st1" d="M97.4,142.3l1.3,3.5c0.1,0.2,0,0.2-0.2,0.2h-1.4c-0.1,0-0.2-0.1-0.2-0.2l-1.1-3.2h-0.2c-0.3,0-0.7,0-1.1,0
			l-0.6,3.3c0,0.1-0.1,0.2-0.3,0.2h-1.2c-0.1,0-0.2-0.1-0.2-0.2l1.5-8.3c0-0.2,0.2-0.3,0.4-0.4c0.6-0.1,1.5-0.2,2.4-0.2
			c1.8,0,3,0.7,3,2.3C99.5,140.6,98.8,141.8,97.4,142.3z M96.2,138.4c-0.3,0-0.9,0-1.1,0l-0.5,2.7c0.2,0,0.9,0,1.1,0
			c1.2,0,2.1-0.5,2.1-1.8C97.8,138.7,97.3,138.4,96.2,138.4z"/>
		<path class="st1" d="M105.8,142.3l-0.1,0.6c0,0.2-0.1,0.3-0.3,0.3h-3.9c0,0.2-0.1,0.3-0.1,0.5c0,0.6,0.3,1.1,1.2,1.1
			c0.9,0,1.7-0.1,2.2-0.1c0.2,0,0.3,0,0.2,0.2l-0.1,0.8c0,0.2-0.1,0.3-0.3,0.3c-0.8,0.1-1.3,0.2-2.4,0.2c-1.1,0-2.4-0.6-2.4-2.4
			c0-0.2,0-0.5,0.1-0.7l0.1-0.7c0.4-2.2,1.6-3.1,3.4-3.1c1.6,0,2.4,1.1,2.4,2.5C105.9,141.8,105.8,142.1,105.8,142.3z M103.3,140.5
			c-1,0-1.4,0.6-1.6,1.5h2.5c0-0.2,0-0.3,0-0.5C104.3,140.9,103.9,140.5,103.3,140.5z"/>
		<path class="st1" d="M113.2,136.9c0.1,0,0.2,0,0.2,0.2l-1.5,8.3c0,0.2-0.1,0.3-0.4,0.3c-0.8,0.2-1.7,0.3-2.5,0.3
			c-1.7,0-2.4-1-2.4-2.4c0-0.2,0-0.4,0.1-0.7l0.2-0.9c0.4-2.2,1.5-3,3.4-3c0.3,0,0.7,0,1.1,0.1l0.4-2.1c0-0.1,0.1-0.2,0.3-0.2H113.2
			z M110.1,140.5c-1,0-1.4,0.6-1.6,1.7l-0.2,0.9c0,0.3-0.1,0.5-0.1,0.7c0,0.7,0.3,1,1.1,1c0.4,0,0.9,0,1.2-0.1l0.7-4.2
			C110.9,140.5,110.4,140.5,110.1,140.5z"/>
	</g>
	<g>
		<path class="st1" d="M124.8,137.1c0.2,0,0.2,0.1,0.2,0.2l-1.5,8.4c0,0.1-0.1,0.2-0.3,0.2h-1.2c-0.1,0-0.2-0.1-0.2-0.2l0.6-3.7
			h-3.4l-0.6,3.7c0,0.1-0.1,0.2-0.3,0.2H117c-0.1,0-0.2-0.1-0.2-0.2l1.5-8.4c0-0.1,0.1-0.2,0.3-0.2h1.2c0.2,0,0.2,0.1,0.2,0.2
			l-0.6,3.3h3.4l0.6-3.3c0-0.1,0.1-0.2,0.3-0.2H124.8z"/>
		<path class="st1" d="M131.3,139.5c0.2,0.1,0.3,0.1,0.3,0.3l-1,6c0,0.1-0.2,0.2-0.3,0.2h-1c-0.1,0-0.2-0.1-0.2-0.2l0-0.3
			c-0.7,0.5-1.3,0.7-1.9,0.7c-1.1,0-2-0.7-2-2.1c0-0.3,0-0.7,0.1-1l0.1-0.9c0.3-1.9,1.5-3,3.4-3
			C129.7,139.2,130.6,139.3,131.3,139.5z M128.7,140.5c-1,0-1.4,0.7-1.6,1.7l-0.2,1c-0.1,0.4-0.1,0.6-0.1,0.8c0,0.7,0.3,0.9,0.8,0.9
			c0.5,0,1-0.2,1.5-0.5l0.7-3.8C129.6,140.5,129.2,140.5,128.7,140.5z"/>
		<path class="st1" d="M135.3,137.8c0.2,0,0.2,0.1,0.2,0.2l-0.2,1.2h1.1c0.1,0,0.2,0,0.2,0.2l-0.1,0.7c0,0.2-0.1,0.2-0.3,0.2h-1.1
			l-0.7,3.8c0,0.2-0.1,0.3-0.1,0.4c0,0.2,0.1,0.3,0.4,0.3h0.6c0.1,0,0.2,0,0.2,0.2l-0.1,0.8c0,0.1-0.1,0.2-0.3,0.2
			c-0.3,0-0.6,0.1-0.8,0.1c-1.1,0-1.6-0.4-1.6-1.3c0-0.2,0-0.4,0.1-0.6l0.7-3.8l-1.1-0.2c-0.2,0-0.2-0.1-0.2-0.2l0.1-0.5
			c0-0.1,0.1-0.2,0.3-0.2h1.1l0.2-1c0-0.1,0.1-0.2,0.3-0.2L135.3,137.8z"/>
		<path class="st1" d="M139.7,142.6l0,0.2c-0.4,2.3-1.1,3.9-2.4,5.3c-0.1,0.1-0.3,0.2-0.4,0.2h-1c-0.1,0-0.1,0-0.1-0.1
			c0-0.1,0-0.2,0.1-0.2c0.9-1.2,1.9-2.9,2.3-5.2l0-0.2c0.1-0.7,0.2-1.3,0.2-1.9c0-1.4-0.3-2.4-0.6-3.3c0,0,0-0.1,0-0.1
			c0-0.1,0-0.2,0.2-0.2h0.9c0.2,0,0.3,0,0.4,0.2c0.5,1,0.7,2.2,0.7,3.5C139.8,141.4,139.8,142,139.7,142.6z"/>
	</g>
	<g>
		<path class="st2" d="M101,165.8c0,0.2-0.1,0.3-0.3,0.3h-1.4c-0.2,0-0.3-0.1-0.2-0.3l1.5-8.5h-2.5c-0.2,0-0.3-0.1-0.2-0.3l0.2-1.1
			c0-0.2,0.2-0.3,0.3-0.3h6.8c0.2,0,0.3,0.1,0.2,0.3l-0.2,1.1c0,0.2-0.2,0.3-0.3,0.3h-2.5L101,165.8z"/>
		<path class="st2" d="M110.9,161.5l-0.2,1.1c-0.4,2.3-1.8,3.5-3.9,3.5c-1.9,0-2.8-1.3-2.8-2.8c0-0.2,0-0.4,0.1-0.7l0.2-1.1
			c0.4-2.3,1.8-3.5,4-3.5c1.9,0,2.8,1.3,2.8,2.8C111,161.1,111,161.3,110.9,161.5z M107.9,159.7c-0.9,0-1.6,0.5-1.8,1.9l-0.2,1.1
			c0,0.2-0.1,0.4-0.1,0.6c0,0.8,0.4,1.3,1.2,1.3c1,0,1.6-0.6,1.8-1.9l0.2-1.1c0-0.2,0.1-0.4,0.1-0.6
			C109.1,160.1,108.7,159.7,107.9,159.7z"/>
		<path class="st2" d="M115.6,156.5c0.2,0,0.3,0.1,0.3,0.2l-0.3,1.4h1.3c0.2,0,0.3,0,0.2,0.3l-0.1,0.8c0,0.2-0.1,0.3-0.3,0.3h-1.3
			l-0.8,4.4c0,0.2-0.1,0.4-0.1,0.5c0,0.3,0.1,0.3,0.5,0.3h0.7c0.1,0,0.3,0,0.3,0.2l-0.2,0.9c0,0.1-0.1,0.2-0.3,0.3
			c-0.3,0.1-0.7,0.1-1,0.1c-1.2,0-1.9-0.4-1.9-1.5c0-0.2,0-0.4,0.1-0.7l0.8-4.4l-1.3-0.2c-0.2,0-0.3-0.1-0.2-0.3l0.1-0.6
			c0-0.2,0.1-0.3,0.3-0.3h1.3l0.2-1.1c0-0.2,0.2-0.3,0.3-0.3L115.6,156.5z"/>
		<path class="st2" d="M124.2,158.4c0.3,0.1,0.3,0.1,0.3,0.4l-1.2,7c0,0.2-0.2,0.3-0.3,0.3h-1.1c-0.2,0-0.3-0.1-0.2-0.3l0.1-0.4
			c-0.8,0.6-1.5,0.8-2.2,0.8c-1.3,0-2.3-0.8-2.3-2.5c0-0.4,0.1-0.8,0.1-1.1l0.2-1c0.4-2.2,1.7-3.5,4-3.5
			C122.3,158.1,123.3,158.2,124.2,158.4z M121.2,159.6c-1.2,0-1.7,0.9-1.9,2l-0.2,1.2c-0.1,0.5-0.1,0.7-0.1,0.9c0,0.8,0.4,1,1,1
			c0.5,0,1.1-0.2,1.8-0.6l0.8-4.4C122.2,159.6,121.7,159.6,121.2,159.6z"/>
		<path class="st2" d="M128.4,155.4c0.2,0,0.3,0.1,0.2,0.3l-1.8,10.1c0,0.2-0.1,0.3-0.3,0.3h-1.3c-0.2,0-0.3-0.1-0.2-0.3l1.8-10.1
			c0-0.2,0.1-0.3,0.3-0.3H128.4z"/>
	</g>
	<g>
		<path class="st1" d="M268.8,82.1c-0.1,0-0.2-0.1-0.2-0.2l0.2-0.9c0-0.1,0.2-0.2,0.3-0.2h1.6l1-5.9l-1.7,0.5c-0.1,0-0.1,0-0.1,0
			c-0.1,0-0.1,0-0.1-0.1L270,74c0-0.1,0-0.1,0.1-0.1l2.2-0.7c0.1,0,0.2,0,0.3,0h0.8c0.1,0,0.2,0.1,0.2,0.2l-1.3,7.3h1.6
			c0.1,0,0.2,0.1,0.2,0.2l-0.2,0.9c0,0.1-0.1,0.2-0.3,0.2H268.8z"/>
	</g>
	<g>
		<path class="st1" d="M273.2,93.7l-1.2,0.7c-1.4,0.9-1.7,1.2-2,2.3h3.8c0.1,0,0.2,0,0.2,0.2l-0.2,0.9c0,0.1-0.1,0.2-0.3,0.2h-5.1
			c-0.1,0-0.2-0.1-0.2-0.2l0.2-1.2c0.3-1.6,1-2.4,2.4-3.2l1.3-0.8c0.7-0.4,1.4-0.7,1.4-1.5c0-0.6-0.5-0.8-1.3-0.8
			c-0.7,0-1.7,0.1-2.4,0.2c-0.2,0-0.2,0-0.2-0.2l0.1-0.7c0-0.1,0.1-0.2,0.3-0.2c0.6-0.2,1.7-0.3,2.5-0.3c1.7,0,2.6,0.6,2.6,1.8
			C275.2,92.2,274.5,92.9,273.2,93.7z"/>
	</g>
	<g>
		<path class="st1" d="M268.8,114c-0.1,0-0.2-0.1-0.2-0.2l0.2-0.9c0-0.1,0.2-0.2,0.3-0.2h1.6l1-5.9l-1.7,0.5c-0.1,0-0.1,0-0.1,0
			c-0.1,0-0.1,0-0.1-0.1l0.2-1.1c0-0.1,0-0.1,0.1-0.1l2.2-0.7c0.1,0,0.2,0,0.3,0h0.8c0.1,0,0.2,0.1,0.2,0.2l-1.3,7.3h1.6
			c0.1,0,0.2,0.1,0.2,0.2l-0.2,0.9c0,0.1-0.1,0.2-0.3,0.2H268.8z"/>
	</g>
	<g>
		<path class="st1" d="M273.2,126l-0.1,0.8c0,0.1-0.1,0.2-0.3,0.2h-2.3c-0.1,0-0.2-0.1-0.2-0.2c0,0,0,0,0,0l0.1-0.8
			c0-0.1,0.1-0.2,0.3-0.2h2.4C273.1,125.7,273.2,125.8,273.2,126C273.2,126,273.2,126,273.2,126z"/>
	</g>
	<g>
		<path class="st1" d="M273.2,142l-0.1,0.8c0,0.1-0.1,0.2-0.3,0.2h-2.3c-0.1,0-0.2-0.1-0.2-0.2c0,0,0,0,0,0l0.1-0.8
			c0-0.1,0.1-0.2,0.3-0.2h2.4C273.1,141.7,273.2,141.8,273.2,142C273.2,141.9,273.2,142,273.2,142z"/>
	</g>
	<g>
		<path class="st1" d="M387.7,73.4l-0.2,0.9c0,0.1-0.1,0.2-0.3,0.2H384l-0.5,2h0.3c1.8,0,3.3,0.4,3.3,2.4c0,1.9-1.1,3.2-3.7,3.2
			c-0.7,0-1.6-0.1-2.3-0.3c-0.1,0-0.2-0.1-0.2-0.3l0.1-0.7c0-0.1,0.1-0.3,0.3-0.2c0.9,0.1,1.5,0.2,2.2,0.2c1.5,0,1.8-1,1.8-1.9
			c0-1.2-1-1.2-1.9-1.2h-1.6c-0.1,0-0.2-0.1-0.1-0.2l1.1-4.3c0-0.1,0.2-0.2,0.3-0.2h4.4C387.6,73.1,387.7,73.2,387.7,73.4
			C387.7,73.3,387.7,73.3,387.7,73.4L387.7,73.4z"/>
	</g>
	<g>
		<path class="st1" d="M387.6,91.5l0,0.2c-0.2,0.8-0.5,1.4-1.3,1.8c0.5,0.4,0.7,0.9,0.7,1.5c0,0,0,0.1,0,0.1c0,0.1,0,0.2,0,0.2
			l0,0.3c-0.3,1.9-1.5,2.6-3.5,2.6c-0.9,0-1.6-0.1-2.3-0.3c-0.1,0-0.2-0.1-0.2-0.2c0,0,0,0,0,0l0.1-0.7c0-0.1,0.1-0.2,0.3-0.2
			c0,0,0,0,0,0c0.9,0.1,1.7,0.2,2.3,0.2c0.9,0,1.5-0.5,1.6-1.3l0-0.3c0-0.1,0-0.3,0-0.4c0-0.5-0.2-0.8-0.9-0.8h-2.1
			c-0.1,0-0.2-0.1-0.2-0.2c0,0,0,0,0,0v0l0.1-0.8c0-0.1,0.1-0.2,0.3-0.2h2.1c0.8,0,1.2-0.4,1.3-1.2l0-0.2c0-0.1,0-0.2,0-0.3
			c0-0.5-0.3-0.8-1.2-0.8c-0.9,0-1.2,0.1-2.3,0.2c0,0,0,0,0,0c-0.1,0-0.2-0.1-0.2-0.2c0,0,0,0,0,0l0.1-0.7c0-0.1,0.1-0.2,0.3-0.2
			c0.7-0.2,1.5-0.3,2.4-0.3c1.4,0,2.6,0.7,2.6,2C387.6,91.2,387.6,91.3,387.6,91.5z"/>
	</g>
	<g>
		<path class="st1" d="M381.4,114c-0.1,0-0.2-0.1-0.2-0.2l0.2-0.9c0-0.1,0.2-0.2,0.3-0.2h1.6l1-5.9l-1.7,0.5c-0.1,0-0.1,0-0.1,0
			c-0.1,0-0.1,0-0.1-0.1l0.2-1.1c0-0.1,0-0.1,0.1-0.1l2.2-0.7c0.1,0,0.2,0,0.3,0h0.8c0.1,0,0.2,0.1,0.2,0.2l-1.3,7.3h1.6
			c0.1,0,0.2,0.1,0.2,0.2l-0.2,0.9c0,0.1-0.1,0.2-0.3,0.2H381.4z"/>
	</g>
	<g>
		<path class="st1" d="M385.8,125.6l-1.2,0.7c-1.4,0.9-1.7,1.2-2,2.3h3.8c0.1,0,0.2,0,0.2,0.2l-0.2,0.9c0,0.1-0.1,0.2-0.3,0.2h-5.1
			c-0.1,0-0.2-0.1-0.2-0.2l0.2-1.2c0.3-1.6,1-2.4,2.4-3.2l1.3-0.8c0.7-0.4,1.4-0.7,1.4-1.5c0-0.6-0.5-0.8-1.3-0.8
			c-0.7,0-1.7,0.1-2.4,0.2c-0.2,0-0.2,0-0.2-0.2l0.1-0.7c0-0.1,0.1-0.2,0.3-0.2c0.6-0.2,1.7-0.3,2.5-0.3c1.7,0,2.6,0.6,2.6,1.8
			C387.7,124.2,387.1,124.9,385.8,125.6z"/>
	</g>
	<g>
		<path class="st1" d="M381.4,146c-0.1,0-0.2-0.1-0.2-0.2l0.2-0.9c0-0.1,0.2-0.2,0.3-0.2h1.6l1-5.9l-1.7,0.5c-0.1,0-0.1,0-0.1,0
			c-0.1,0-0.1,0-0.1-0.1l0.2-1.1c0-0.1,0-0.1,0.1-0.1l2.2-0.7c0.1,0,0.2,0,0.3,0h0.8c0.1,0,0.2,0.1,0.2,0.2l-1.3,7.3h1.6
			c0.1,0,0.2,0.1,0.2,0.2l-0.2,0.9c0,0.1-0.1,0.2-0.3,0.2H381.4z"/>
	</g>
	<g>
		<path class="st1" d="M510.3,74.5c-0.2,0-0.2-0.1-0.2-0.2l0.2-0.9c0-0.1,0.1-0.2,0.3-0.2h5c0.3,0,0.5,0.1,0.4,0.5l-0.1,0.5
			c0,0.1-0.1,0.3-0.3,0.7l-4.5,7c-0.1,0.2-0.2,0.2-0.4,0.2h-1.3c-0.1,0-0.1-0.1-0.1-0.1c0,0,0-0.1,0-0.1l4.7-7.2c0-0.1,0-0.1,0-0.1
			H510.3z"/>
	</g>
	<g>
		<path class="st1" d="M510,93.6l-1.2,0.7c-1.4,0.9-1.7,1.2-2,2.3h3.8c0.1,0,0.2,0,0.2,0.2l-0.2,0.9c0,0.1-0.1,0.2-0.3,0.2h-5.1
			c-0.1,0-0.2-0.1-0.2-0.2l0.2-1.2c0.3-1.6,1-2.4,2.4-3.2l1.3-0.8c0.7-0.4,1.4-0.7,1.4-1.5c0-0.6-0.5-0.8-1.3-0.8
			c-0.7,0-1.7,0.1-2.4,0.2c-0.2,0-0.2,0-0.2-0.2l0.1-0.7c0-0.1,0.1-0.2,0.3-0.2c0.6-0.2,1.7-0.3,2.5-0.3c1.7,0,2.6,0.6,2.6,1.8
			C511.9,92.2,511.3,92.9,510,93.6z"/>
		<path class="st1" d="M519.3,94.8l-0.1,0.8c0,0.1-0.1,0.2-0.3,0.2h-0.9l-0.3,1.9c0,0.1-0.1,0.2-0.3,0.2h-1.2
			c-0.1,0-0.2-0.1-0.2-0.2c0,0,0,0,0-0.1l0.3-1.9h-3.6c-0.1,0-0.2-0.1-0.2-0.2c0,0,0,0,0,0l0.2-1c0-0.1,0.1-0.3,0.2-0.4l4.6-5
			c0.1-0.1,0.2-0.2,0.4-0.2h1.1c0.1,0,0.2,0.1,0.2,0.2c0,0,0,0,0,0l-0.9,5.2h0.9C519.2,94.6,519.3,94.6,519.3,94.8
			C519.3,94.8,519.3,94.8,519.3,94.8z M517,91.4C517,91.4,517,91.5,517,91.4l-2.7,3c0,0,0,0.1,0,0.1c0,0,0,0,0.1,0h2.2L517,91.4
			C517.1,91.5,517.1,91.5,517,91.4C517.1,91.5,517,91.4,517,91.4z"/>
	</g>
	<g>
		<path class="st1" d="M505.6,114c-0.1,0-0.2-0.1-0.2-0.2l0.2-0.9c0-0.1,0.2-0.2,0.3-0.2h1.6l1-5.9l-1.7,0.5c-0.1,0-0.1,0-0.1,0
			c-0.1,0-0.1,0-0.1-0.1l0.2-1.1c0-0.1,0-0.1,0.1-0.1l2.2-0.7c0.1,0,0.2,0,0.3,0h0.8c0.1,0,0.2,0.1,0.2,0.2l-1.3,7.3h1.6
			c0.1,0,0.2,0.1,0.2,0.2l-0.2,0.9c0,0.1-0.1,0.2-0.3,0.2H505.6z"/>
		<path class="st1" d="M519.4,105.3l-0.2,0.9c0,0.1-0.1,0.2-0.3,0.2h-3.3l-0.5,2h0.3c1.8,0,3.3,0.4,3.3,2.4c0,1.9-1.1,3.2-3.7,3.2
			c-0.7,0-1.6-0.1-2.3-0.3c-0.1,0-0.2-0.1-0.2-0.3l0.1-0.7c0-0.1,0.1-0.3,0.3-0.2c0.9,0.1,1.5,0.2,2.2,0.2c1.5,0,1.8-1,1.8-1.9
			c0-1.2-1-1.2-1.9-1.2h-1.6c-0.1,0-0.2-0.1-0.1-0.2l1.1-4.3c0-0.1,0.2-0.2,0.3-0.2h4.4C519.3,105.1,519.4,105.2,519.4,105.3
			C519.4,105.3,519.4,105.3,519.4,105.3L519.4,105.3z"/>
	</g>
	<g>
		<path class="st1" d="M513.7,126l-0.1,0.8c0,0.1-0.1,0.2-0.3,0.2H511c-0.1,0-0.2-0.1-0.2-0.2c0,0,0,0,0,0l0.1-0.8
			c0-0.1,0.1-0.2,0.3-0.2h2.4C513.6,125.7,513.7,125.8,513.7,126C513.7,125.9,513.7,125.9,513.7,126z"/>
	</g>
	<g>
		<path class="st1" d="M513.7,142l-0.1,0.8c0,0.1-0.1,0.2-0.3,0.2H511c-0.1,0-0.2-0.1-0.2-0.2c0,0,0,0,0,0l0.1-0.8
			c0-0.1,0.1-0.2,0.3-0.2h2.4C513.6,141.7,513.7,141.8,513.7,142C513.7,141.9,513.7,141.9,513.7,142z"/>
	</g>
	<g>
		<path class="st1" d="M640.5,78.8l-0.1,0.8c0,0.1-0.1,0.2-0.3,0.2h-0.9l-0.3,1.9c0,0.1-0.1,0.2-0.3,0.2h-1.2
			c-0.1,0-0.2-0.1-0.2-0.2c0,0,0,0,0-0.1l0.3-1.9H634c-0.1,0-0.2-0.1-0.2-0.2c0,0,0,0,0,0l0.2-1c0-0.1,0.1-0.3,0.2-0.4l4.6-5
			c0.1-0.1,0.2-0.2,0.4-0.2h1.1c0.1,0,0.2,0.1,0.2,0.2c0,0,0,0,0,0l-0.9,5.2h0.9C640.5,78.6,640.5,78.6,640.5,78.8
			C640.5,78.8,640.5,78.8,640.5,78.8z M638.3,75.4C638.3,75.4,638.3,75.5,638.3,75.4l-2.7,3c0,0,0,0.1,0,0.1c0,0,0,0,0.1,0h2.2
			L638.3,75.4C638.3,75.5,638.3,75.5,638.3,75.4C638.3,75.4,638.3,75.4,638.3,75.4z"/>
		<path class="st1" d="M641.7,81.9c-0.2,0-0.3-0.1-0.2-0.3l0.1-0.7c0-0.2,0.1-0.3,0.3-0.3c0.4,0.1,1.5,0.2,2.2,0.2
			c1.2,0,1.8-0.6,2.1-2.2c-0.4,0.1-1,0.1-1.5,0.1c-1.6,0-2.7-0.6-2.7-2.3c0-2.1,1.4-3.5,3.7-3.5c1.5,0,2.6,0.7,2.6,2.6
			c0,0.4,0,0.8-0.1,1.1l-0.2,1.4c-0.5,3-1.8,4-4,4C642.9,82.1,642.1,82,641.7,81.9z M645.1,77.5c0.3,0,1-0.1,1.4-0.1l0.1-0.7
			c0.1-0.5,0.1-0.8,0.1-1.1c0-1.1-0.4-1.3-1.2-1.3c-1.1,0-1.8,0.8-1.8,2.1C643.7,77.2,644.1,77.5,645.1,77.5z"/>
	</g>
	<g>
		<path class="st1" d="M640.5,94.8l-0.1,0.8c0,0.1-0.1,0.2-0.3,0.2h-0.9l-0.3,1.9c0,0.1-0.1,0.2-0.3,0.2h-1.2
			c-0.1,0-0.2-0.1-0.2-0.2c0,0,0,0,0-0.1l0.3-1.9H634c-0.1,0-0.2-0.1-0.2-0.2c0,0,0,0,0,0l0.2-1c0-0.1,0.1-0.3,0.2-0.4l4.6-5
			c0.1-0.1,0.2-0.2,0.4-0.2h1.1c0.1,0,0.2,0.1,0.2,0.2c0,0,0,0,0,0l-0.9,5.2h0.9C640.5,94.5,640.5,94.6,640.5,94.8
			C640.5,94.8,640.5,94.8,640.5,94.8z M638.3,91.4C638.3,91.4,638.3,91.5,638.3,91.4l-2.7,3c0,0,0,0.1,0,0.1c0,0,0,0,0.1,0h2.2
			L638.3,91.4C638.3,91.5,638.3,91.5,638.3,91.4C638.3,91.4,638.3,91.4,638.3,91.4z"/>
		<path class="st1" d="M648.1,94.8l-0.1,0.8c0,0.1-0.1,0.2-0.3,0.2h-0.9l-0.3,1.9c0,0.1-0.1,0.2-0.3,0.2H645c-0.1,0-0.2-0.1-0.2-0.2
			c0,0,0,0,0-0.1l0.3-1.9h-3.6c-0.1,0-0.2-0.1-0.2-0.2c0,0,0,0,0,0l0.2-1c0-0.1,0.1-0.3,0.2-0.4l4.6-5c0.1-0.1,0.2-0.2,0.4-0.2h1.1
			c0.1,0,0.2,0.1,0.2,0.2c0,0,0,0,0,0l-0.9,5.2h0.9C648,94.5,648.1,94.6,648.1,94.8C648.1,94.8,648.1,94.8,648.1,94.8z M645.9,91.4
			C645.9,91.4,645.8,91.5,645.9,91.4l-2.7,3c0,0,0,0.1,0,0.1c0,0,0,0,0.1,0h2.2L645.9,91.4C645.9,91.5,645.9,91.5,645.9,91.4
			C645.9,91.4,645.9,91.4,645.9,91.4z"/>
	</g>
	<g>
		<path class="st1" d="M634.4,114c-0.1,0-0.2-0.1-0.2-0.2l0.2-0.9c0-0.1,0.2-0.2,0.3-0.2h1.6l1-5.9l-1.7,0.5c-0.1,0-0.1,0-0.1,0
			c-0.1,0-0.1,0-0.1-0.1l0.2-1.1c0-0.1,0-0.1,0.1-0.1l2.2-0.7c0.1,0,0.2,0,0.3,0h0.8c0.1,0,0.2,0.1,0.2,0.2l-1.3,7.3h1.6
			c0.1,0,0.2,0.1,0.2,0.2l-0.2,0.9c0,0.1-0.1,0.2-0.3,0.2H634.4z"/>
		<path class="st1" d="M642.9,106.5c-0.2,0-0.2-0.1-0.2-0.2l0.2-0.9c0-0.1,0.1-0.2,0.3-0.2h5c0.3,0,0.5,0.1,0.4,0.5l-0.1,0.5
			c0,0.1-0.1,0.3-0.3,0.7l-4.5,7c-0.1,0.2-0.2,0.2-0.4,0.2H642c-0.1,0-0.1-0.1-0.1-0.1c0,0,0-0.1,0-0.1l4.7-7.2c0-0.1,0-0.1,0-0.1
			H642.9z"/>
	</g>
	<g>
		<path class="st1" d="M638.8,125.6l-1.2,0.7c-1.4,0.9-1.7,1.2-2,2.3h3.8c0.1,0,0.2,0,0.2,0.2l-0.2,0.9c0,0.1-0.1,0.2-0.3,0.2h-5.1
			c-0.1,0-0.2-0.1-0.2-0.2l0.2-1.2c0.3-1.6,1-2.4,2.4-3.2l1.3-0.8c0.7-0.4,1.4-0.7,1.4-1.5c0-0.6-0.5-0.8-1.3-0.8
			c-0.7,0-1.7,0.1-2.4,0.2c-0.2,0-0.2,0-0.2-0.2l0.1-0.7c0-0.1,0.1-0.2,0.3-0.2c0.6-0.2,1.7-0.3,2.5-0.3c1.7,0,2.6,0.6,2.6,1.8
			C640.7,124.1,640.1,124.8,638.8,125.6z"/>
		<path class="st1" d="M642,130c-0.1,0-0.2-0.1-0.2-0.2l0.2-0.9c0-0.1,0.2-0.2,0.3-0.2h1.6l1-5.9l-1.7,0.5c-0.1,0-0.1,0-0.1,0
			c-0.1,0-0.1,0-0.1-0.1l0.2-1.1c0-0.1,0-0.1,0.1-0.1l2.2-0.7c0.1,0,0.2,0,0.3,0h0.8c0.1,0,0.2,0.1,0.2,0.2l-1.3,7.3h1.6
			c0.1,0,0.2,0.1,0.2,0.2l-0.2,0.9c0,0.1-0.1,0.2-0.3,0.2H642z"/>
	</g>
	<g>
		<path class="st1" d="M634.4,146c-0.1,0-0.2-0.1-0.2-0.2l0.2-0.9c0-0.1,0.2-0.2,0.3-0.2h1.6l1-5.9l-1.7,0.5c-0.1,0-0.1,0-0.1,0
			c-0.1,0-0.1,0-0.1-0.1l0.2-1.1c0-0.1,0-0.1,0.1-0.1l2.2-0.7c0.1,0,0.2,0,0.3,0h0.8c0.1,0,0.2,0.1,0.2,0.2l-1.3,7.3h1.6
			c0.1,0,0.2,0.1,0.2,0.2l-0.2,0.9c0,0.1-0.1,0.2-0.3,0.2H634.4z"/>
		<path class="st1" d="M641.7,145.9c-0.2,0-0.3-0.1-0.2-0.3l0.1-0.7c0-0.2,0.1-0.3,0.3-0.3c0.4,0.1,1.5,0.2,2.2,0.2
			c1.2,0,1.8-0.6,2.1-2.2c-0.4,0.1-1,0.1-1.5,0.1c-1.6,0-2.7-0.6-2.7-2.3c0-2.1,1.4-3.5,3.7-3.5c1.5,0,2.6,0.7,2.6,2.6
			c0,0.4,0,0.8-0.1,1.1l-0.2,1.4c-0.5,3-1.8,4-4,4C642.9,146.1,642.1,145.9,641.7,145.9z M645.1,141.5c0.3,0,1-0.1,1.4-0.1l0.1-0.7
			c0.1-0.5,0.1-0.8,0.1-1.1c0-1.1-0.4-1.3-1.2-1.3c-1.1,0-1.8,0.8-1.8,2.1C643.7,141.2,644.1,141.5,645.1,141.5z"/>
	</g>
	<g>
		<path class="st2" d="M321.5,166.4c-0.2,0-0.3-0.1-0.2-0.3l0.2-1.1c0-0.2,0.2-0.3,0.3-0.3h1.9l1.2-6.9l-1.9,0.6c-0.1,0-0.1,0-0.2,0
			c-0.1,0-0.2,0-0.1-0.2l0.2-1.3c0-0.1,0-0.1,0.1-0.2l2.6-0.8c0.1,0,0.2-0.1,0.3-0.1h0.9c0.2,0,0.2,0.1,0.2,0.3l-1.5,8.5h1.9
			c0.2,0,0.3,0.1,0.2,0.3l-0.2,1.1c0,0.2-0.2,0.3-0.3,0.3H321.5z"/>
		<path class="st2" d="M337.6,156.1c0.2,0,0.3,0.1,0.3,0.3l-0.2,0.9c0,0.2-0.1,0.3-0.4,0.3c-0.5-0.1-1.7-0.2-2.6-0.2
			c-1.4,0-2.1,0.7-2.4,2.5c0.5-0.1,1.2-0.2,1.8-0.2c1.9,0,3.1,0.8,3.1,2.7c0,2.5-1.7,4-4.3,4c-1.7,0-3-1-3-3.2c0-0.3,0-0.8,0.1-1.2
			l0.3-1.6c0.6-3.5,2.1-4.7,4.7-4.7C336.3,155.9,337.1,156,337.6,156.1z M333.7,161.2c-0.4,0-1.1,0.1-1.6,0.2l-0.1,0.8
			c-0.1,0.5-0.1,1-0.1,1.2c0,1.4,0.6,1.7,1.4,1.7c1.2,0,2.1-0.9,2.1-2.5C335.3,161.6,334.8,161.2,333.7,161.2z"/>
	</g>
	<g>
		<path class="st2" d="M563,166.4c-0.2,0-0.3-0.1-0.2-0.3l0.2-1.1c0-0.2,0.2-0.3,0.3-0.3h1.9l1.2-6.9l-1.9,0.6c-0.1,0-0.1,0-0.2,0
			c-0.1,0-0.2,0-0.1-0.2l0.2-1.3c0-0.1,0-0.1,0.1-0.2l2.6-0.8c0.1,0,0.2-0.1,0.3-0.1h0.9c0.2,0,0.2,0.1,0.2,0.3l-1.5,8.5h1.9
			c0.2,0,0.3,0.1,0.2,0.3l-0.2,1.1c0,0.2-0.2,0.3-0.3,0.3H563z"/>
		<path class="st2" d="M571.6,166.2c-0.2,0-0.3-0.1-0.3-0.3l0.2-0.9c0-0.2,0.1-0.3,0.4-0.3c0.5,0.1,1.7,0.2,2.6,0.2
			c1.4,0,2.1-0.7,2.4-2.5c-0.5,0.1-1.2,0.2-1.8,0.2c-1.9,0-3.1-0.8-3.1-2.7c0-2.5,1.7-4,4.3-4c1.7,0,3,0.9,3,3c0,0.5,0,0.9-0.1,1.3
			l-0.3,1.6c-0.6,3.5-2.1,4.7-4.7,4.7C572.9,166.5,572,166.3,571.6,166.2z M575.5,161.1c0.4,0,1.1-0.1,1.6-0.2l0.1-0.8
			c0.1-0.5,0.1-1,0.1-1.3c0-1.3-0.4-1.5-1.4-1.5c-1.2,0-2.1,0.9-2.1,2.5C573.8,160.8,574.3,161.1,575.5,161.1z"/>
		<path class="st2" d="M588,156.1c0.2,0,0.3,0.1,0.3,0.3l-0.2,0.9c0,0.2-0.1,0.3-0.4,0.3c-0.5-0.1-1.7-0.2-2.6-0.2
			c-1.4,0-2.1,0.7-2.4,2.5c0.5-0.1,1.2-0.2,1.8-0.2c1.9,0,3.1,0.8,3.1,2.7c0,2.5-1.7,4-4.3,4c-1.7,0-3-1-3-3.2c0-0.3,0-0.8,0.1-1.2
			l0.3-1.6c0.6-3.5,2.1-4.7,4.7-4.7C586.6,155.9,587.5,156,588,156.1z M584.1,161.2c-0.4,0-1.1,0.1-1.6,0.2l-0.1,0.8
			c-0.1,0.5-0.1,1-0.1,1.2c0,1.4,0.6,1.7,1.4,1.7c1.2,0,2.1-0.9,2.1-2.5C585.7,161.6,585.2,161.2,584.1,161.2z"/>
	</g>
	<rect x="8.2" y="7.9" class="st0" width="706" height="54"/>
	<g>
		<path class="st3" d="M44.4,25.6c0.3,0.1,0.4,0.2,0.3,0.4l-0.2,1.2c0,0.2-0.1,0.4-0.5,0.4c-0.6-0.1-1.8-0.1-2.8-0.1
			c-1.8,0-2.8,0.9-3.2,3.4l-0.5,2.6c-0.1,0.5-0.1,0.8-0.1,1.2c0,1.7,0.7,2.2,2.1,2.2c1,0,2.2-0.1,2.8-0.1c0.4,0,0.4,0.1,0.3,0.4
			l-0.2,1.2c-0.1,0.3-0.2,0.3-0.5,0.4c-0.3,0.1-1.5,0.3-2.9,0.3c-2.1,0-4.3-1-4.3-4.2c0-0.4,0.1-0.8,0.1-1.3l0.4-2.6
			c0.8-4.8,3.5-5.5,6.1-5.5C43,25.3,44.2,25.5,44.4,25.6z"/>
		<path class="st3" d="M53.9,33l-0.3,1.5c-0.6,3-2.3,4.5-5.1,4.5c-2.4,0-3.6-1.7-3.6-3.6c0-0.3,0-0.6,0.1-0.9l0.3-1.5
			c0.5-3,2.3-4.5,5.1-4.5c2.5,0,3.6,1.7,3.6,3.5C54,32.4,53.9,32.7,53.9,33z M50,30.6c-1.1,0-2,0.6-2.4,2.4l-0.3,1.5
			c-0.1,0.3-0.1,0.6-0.1,0.8c0,1.1,0.5,1.6,1.6,1.6c1.3,0,2-0.8,2.3-2.4l0.3-1.5c0.1-0.3,0.1-0.6,0.1-0.8
			C51.6,31.2,51.1,30.6,50,30.6z"/>
		<path class="st3" d="M64.3,32.6l-1,5.9c0,0.2-0.1,0.4-0.4,0.4h-1.7c-0.2,0-0.3-0.1-0.3-0.4l1-5.9c0.1-0.5,0.1-0.8,0.1-1.1
			c0-0.7-0.3-0.9-1.1-0.9c-0.8,0-1.5,0.3-2.3,0.6l-1.3,7.2c0,0.2-0.1,0.4-0.4,0.4h-1.7c-0.2,0-0.3-0.1-0.3-0.4l1.7-9.4
			c0-0.2,0.2-0.4,0.5-0.4h1.4c0.2,0,0.4,0,0.3,0.4l-0.1,0.4c1.2-0.7,2.1-0.9,3-0.9c2,0,2.6,1.2,2.6,2.7
			C64.4,31.7,64.4,32.1,64.3,32.6z"/>
		<path class="st3" d="M74.9,28.7c0.3,0,0.3,0.2,0.3,0.4l-3.7,8.2c-0.6,1.3-1.6,1.7-2.5,1.7c-0.9,0-1.8-0.4-1.9-1.7l-0.8-8.2
			c0-0.3,0.1-0.4,0.3-0.4h1.7c0.2,0,0.3,0.1,0.3,0.4l0.4,7.5c0,0.3,0.1,0.5,0.3,0.5c0.1,0,0.3-0.1,0.4-0.5l3.1-7.5
			c0.1-0.3,0.3-0.4,0.5-0.4H74.9z"/>
		<path class="st3" d="M83.9,33.3l-0.1,0.9c-0.1,0.3-0.2,0.5-0.4,0.5h-5.9c0,0.3-0.1,0.5-0.1,0.7c0,1,0.5,1.6,1.8,1.6
			c1.3,0,2.6-0.1,3.3-0.2c0.2,0,0.4,0,0.3,0.3l-0.2,1.2c-0.1,0.3-0.1,0.4-0.5,0.5c-1.2,0.2-2,0.3-3.6,0.3c-1.6,0-3.5-0.9-3.5-3.6
			c0-0.3,0-0.7,0.1-1.1l0.2-1.1c0.6-3.4,2.4-4.6,5.1-4.6c2.4,0,3.5,1.6,3.5,3.7C84,32.6,84,32.9,83.9,33.3z M80.1,30.6
			c-1.4,0-2.1,1-2.3,2.3h3.8c0-0.2,0.1-0.5,0.1-0.7C81.7,31.2,81.1,30.6,80.1,30.6z"/>
		<path class="st3" d="M94.4,32.6l-1,5.9c0,0.2-0.1,0.4-0.4,0.4h-1.7c-0.2,0-0.3-0.1-0.3-0.4l1-5.9c0.1-0.5,0.1-0.8,0.1-1.1
			c0-0.7-0.3-0.9-1.1-0.9c-0.8,0-1.5,0.3-2.3,0.6l-1.3,7.2c0,0.2-0.1,0.4-0.4,0.4h-1.7c-0.2,0-0.3-0.1-0.3-0.4l1.7-9.4
			c0-0.2,0.2-0.4,0.5-0.4h1.4c0.2,0,0.4,0,0.3,0.4l-0.1,0.4c1.2-0.7,2.1-0.9,3-0.9c2,0,2.6,1.2,2.6,2.7
			C94.5,31.7,94.5,32.1,94.4,32.6z"/>
		<path class="st3" d="M99.5,28.7c0.2,0,0.4,0.1,0.3,0.4l-1.7,9.4c0,0.2-0.1,0.4-0.4,0.4h-1.7c-0.2,0-0.3-0.1-0.3-0.4l1.7-9.4
			c0-0.2,0.2-0.4,0.4-0.4H99.5z M100.2,25c0.2,0,0.3,0.1,0.3,0.4l-0.3,1.6c0,0.2-0.2,0.4-0.4,0.4h-1.7c-0.2,0-0.4-0.2-0.3-0.4
			l0.3-1.6c0-0.2,0.2-0.4,0.4-0.4H100.2z"/>
		<path class="st3" d="M109.8,33l-0.3,1.5c-0.6,3-2.3,4.5-5.1,4.5c-2.4,0-3.6-1.7-3.6-3.6c0-0.3,0-0.6,0.1-0.9l0.3-1.5
			c0.5-3,2.3-4.5,5.1-4.5c2.5,0,3.6,1.7,3.6,3.5C109.9,32.4,109.8,32.7,109.8,33z M105.9,30.6c-1.1,0-2,0.6-2.4,2.4l-0.3,1.5
			c-0.1,0.3-0.1,0.6-0.1,0.8c0,1.1,0.5,1.6,1.6,1.6c1.3,0,2-0.8,2.3-2.4l0.3-1.5c0.1-0.3,0.1-0.6,0.1-0.8
			C107.5,31.2,107,30.6,105.9,30.6z"/>
	</g>
	<g>
		<path class="st3" d="M236.5,42c0.2,0.1,0.3,0.1,0.2,0.3l-0.2,0.9c0,0.2-0.1,0.3-0.3,0.3c-0.4,0-1.3-0.1-2-0.1
			c-1.3,0-2,0.7-2.3,2.4l-0.3,1.9c-0.1,0.3-0.1,0.6-0.1,0.9c0,1.2,0.5,1.6,1.5,1.6c0.7,0,1.6-0.1,2-0.1c0.3,0,0.3,0.1,0.2,0.3
			l-0.2,0.9c0,0.2-0.2,0.2-0.3,0.3c-0.2,0.1-1.1,0.2-2.1,0.2c-1.5,0-3.1-0.7-3.1-3c0-0.3,0-0.6,0.1-0.9l0.3-1.9c0.6-3.5,2.5-4,4.4-4
			C235.4,41.8,236.3,42,236.5,42z"/>
		<path class="st3" d="M243.2,44.5c0.2,0.1,0.3,0.1,0.3,0.4l-1.1,6.5c0,0.1-0.2,0.3-0.3,0.3h-1c-0.2,0-0.2-0.1-0.2-0.3l0.1-0.4
			c-0.7,0.6-1.4,0.7-2,0.7c-1.2,0-2.1-0.8-2.1-2.3c0-0.4,0.1-0.8,0.1-1l0.2-0.9c0.3-2,1.6-3.3,3.7-3.3
			C241.5,44.1,242.4,44.3,243.2,44.5z M240.4,45.5c-1.1,0-1.5,0.8-1.7,1.9l-0.2,1.1c-0.1,0.4-0.1,0.7-0.1,0.8c0,0.7,0.4,0.9,0.9,0.9
			c0.5,0,1-0.2,1.6-0.5l0.7-4.1C241.4,45.6,240.9,45.5,240.4,45.5z"/>
		<path class="st3" d="M250.6,47.4l-0.2,1c-0.4,2.3-1.6,3.3-3.7,3.3c-0.3,0-0.8,0-1.2-0.1l-0.4,2.3c0,0.1-0.1,0.3-0.3,0.3h-1.2
			c-0.1,0-0.2-0.1-0.2-0.3l1.6-9c0-0.2,0.1-0.3,0.4-0.4c0.8-0.2,1.8-0.3,2.7-0.3c1.7,0,2.6,1,2.6,2.5
			C250.7,46.9,250.7,47.1,250.6,47.4z M247.9,45.5c-0.5,0-1,0-1.3,0.1l-0.8,4.5c0.4,0.1,0.9,0.1,1.2,0.1c1.1,0,1.5-0.9,1.7-1.9
			l0.2-1c0.1-0.3,0.1-0.5,0.1-0.8C249,45.9,248.7,45.5,247.9,45.5z"/>
		<path class="st3" d="M258,44.5c0.2,0.1,0.3,0.1,0.3,0.4l-1.1,6.5c0,0.1-0.2,0.3-0.3,0.3h-1c-0.2,0-0.2-0.1-0.2-0.3l0.1-0.4
			c-0.7,0.6-1.4,0.7-2,0.7c-1.2,0-2.1-0.8-2.1-2.3c0-0.4,0.1-0.8,0.1-1l0.2-0.9c0.3-2,1.6-3.3,3.7-3.3
			C256.3,44.1,257.2,44.3,258,44.5z M255.2,45.5c-1.1,0-1.5,0.8-1.7,1.9l-0.2,1.1c-0.1,0.4-0.1,0.7-0.1,0.8c0,0.7,0.4,0.9,0.9,0.9
			c0.5,0,1-0.2,1.6-0.5l0.7-4.1C256.2,45.6,255.6,45.5,255.2,45.5z"/>
		<path class="st3" d="M264.4,44.3c0.2,0.1,0.3,0.1,0.2,0.3l-0.2,0.8c0,0.1-0.1,0.2-0.3,0.2c-0.4-0.1-0.8-0.1-1.7-0.1
			c-0.6,0-1.3,0.4-1.5,1.7l-0.2,1.2c-0.1,0.2-0.1,0.5-0.1,0.6c0,0.9,0.5,1.1,1,1.1c0.8,0,1.2,0,1.7-0.1c0.2,0,0.3,0,0.2,0.2
			l-0.2,0.8c0,0.2-0.1,0.3-0.3,0.3c-0.3,0.1-0.9,0.2-1.7,0.2c-1.5,0-2.5-1-2.5-2.5c0-0.2,0-0.4,0.1-0.7l0.2-1.2
			c0.5-2.5,1.8-3.2,3.5-3.2C263.5,44.1,264.1,44.2,264.4,44.3z"/>
		<path class="st3" d="M267.5,44.2c0.1,0,0.3,0.1,0.2,0.3l-1.2,6.8c0,0.1-0.1,0.3-0.3,0.3H265c-0.2,0-0.2-0.1-0.2-0.3l1.2-6.8
			c0-0.1,0.1-0.3,0.3-0.3H267.5z M268,41.6c0.2,0,0.2,0.1,0.2,0.3L268,43c0,0.1-0.2,0.3-0.3,0.3h-1.3c-0.1,0-0.3-0.1-0.2-0.3
			l0.2-1.1c0-0.1,0.1-0.3,0.3-0.3H268z"/>
		<path class="st3" d="M272.1,42.7c0.2,0,0.3,0.1,0.2,0.2l-0.2,1.3h1.2c0.1,0,0.3,0,0.2,0.3l-0.1,0.8c0,0.2-0.1,0.3-0.3,0.3h-1.2
			l-0.7,4.1c0,0.2-0.1,0.4-0.1,0.5c0,0.2,0.1,0.3,0.4,0.3h0.7c0.1,0,0.3,0,0.2,0.2l-0.1,0.8c0,0.1-0.1,0.2-0.3,0.2
			c-0.3,0.1-0.6,0.1-0.9,0.1c-1.1,0-1.8-0.4-1.8-1.4c0-0.2,0-0.4,0.1-0.6l0.7-4.1l-1.2-0.2c-0.2,0-0.2-0.1-0.2-0.3l0.1-0.6
			c0-0.1,0.1-0.3,0.3-0.3h1.2l0.2-1.1c0-0.1,0.2-0.2,0.3-0.3L272.1,42.7z"/>
		<path class="st3" d="M280.1,44.5c0.2,0.1,0.3,0.1,0.3,0.4l-1.1,6.5c0,0.1-0.2,0.3-0.3,0.3h-1c-0.2,0-0.2-0.1-0.2-0.3l0.1-0.4
			c-0.7,0.6-1.4,0.7-2,0.7c-1.2,0-2.1-0.8-2.1-2.3c0-0.4,0.1-0.8,0.1-1l0.2-0.9c0.3-2,1.6-3.3,3.7-3.3
			C278.4,44.1,279.3,44.3,280.1,44.5z M277.3,45.5c-1.1,0-1.5,0.8-1.7,1.9l-0.2,1.1c-0.1,0.4-0.1,0.7-0.1,0.8c0,0.7,0.4,0.9,0.9,0.9
			c0.5,0,1-0.2,1.6-0.5l0.7-4.1C278.3,45.6,277.8,45.5,277.3,45.5z"/>
		<path class="st3" d="M286.5,44.3c0.2,0.1,0.3,0.1,0.2,0.3l-0.2,0.8c0,0.1-0.1,0.2-0.3,0.2c-0.4-0.1-0.8-0.1-1.7-0.1
			c-0.6,0-1.3,0.4-1.5,1.7l-0.2,1.2c-0.1,0.2-0.1,0.5-0.1,0.6c0,0.9,0.5,1.1,1,1.1c0.8,0,1.2,0,1.7-0.1c0.2,0,0.3,0,0.2,0.2
			l-0.2,0.8c0,0.2-0.1,0.3-0.3,0.3c-0.3,0.1-0.9,0.2-1.7,0.2c-1.5,0-2.5-1-2.5-2.5c0-0.2,0-0.4,0.1-0.7l0.2-1.2
			c0.5-2.5,1.8-3.2,3.5-3.2C285.6,44.1,286.2,44.2,286.5,44.3z"/>
		<path class="st3" d="M289.6,44.2c0.1,0,0.3,0.1,0.2,0.3l-1.2,6.8c0,0.1-0.1,0.3-0.3,0.3h-1.2c-0.2,0-0.2-0.1-0.2-0.3l1.2-6.8
			c0-0.1,0.1-0.3,0.3-0.3H289.6z M290.1,41.6c0.2,0,0.2,0.1,0.2,0.3l-0.2,1.1c0,0.1-0.2,0.3-0.3,0.3h-1.3c-0.1,0-0.3-0.1-0.2-0.3
			l0.2-1.1c0-0.1,0.1-0.3,0.3-0.3H290.1z"/>
		<path class="st3" d="M297.1,47.4l-0.2,1.1c-0.4,2.1-1.6,3.2-3.7,3.2c-1.8,0-2.6-1.2-2.6-2.6c0-0.2,0-0.4,0.1-0.6l0.2-1.1
			c0.4-2.1,1.6-3.2,3.7-3.2c1.8,0,2.6,1.2,2.6,2.6C297.1,46.9,297.1,47.2,297.1,47.4z M294.3,45.6c-0.8,0-1.5,0.5-1.7,1.8l-0.2,1.1
			c0,0.2-0.1,0.4-0.1,0.6c0,0.8,0.4,1.2,1.1,1.2c0.9,0,1.5-0.5,1.7-1.8l0.2-1.1c0-0.2,0.1-0.4,0.1-0.6C295.4,46,295,45.6,294.3,45.6
			z M297,41.6l-1.8,1.6c-0.1,0.1-0.2,0.2-0.3,0.2h-1.2c-0.1,0-0.1,0-0.1-0.1c0,0,0-0.1,0.1-0.1l1.5-1.6c0.1-0.1,0.2-0.2,0.4-0.2h1.5
			c0.1,0,0.1,0,0.1,0.1C297.1,41.6,297,41.6,297,41.6z"/>
		<path class="st3" d="M304.6,47.1l-0.7,4.2c0,0.1-0.1,0.3-0.3,0.3h-1.2c-0.1,0-0.2-0.1-0.2-0.3l0.7-4.2c0.1-0.3,0.1-0.6,0.1-0.8
			c0-0.5-0.2-0.7-0.8-0.7c-0.6,0-1.1,0.2-1.7,0.5l-0.9,5.2c0,0.1-0.1,0.3-0.3,0.3H298c-0.1,0-0.2-0.1-0.2-0.3l1.2-6.8
			c0-0.1,0.1-0.3,0.4-0.3h1c0.2,0,0.3,0,0.2,0.3l-0.1,0.3c0.8-0.5,1.5-0.6,2.2-0.6c1.4,0,1.9,0.8,1.9,1.9
			C304.7,46.4,304.7,46.7,304.6,47.1z"/>
	</g>
	<g>
		<path class="st3" d="M477,42c0.2,0.1,0.3,0.1,0.2,0.3l-0.2,0.9c0,0.2-0.1,0.3-0.3,0.3c-0.4,0-1.3-0.1-2-0.1c-1.3,0-2,0.7-2.3,2.4
			l-0.3,1.9c-0.1,0.3-0.1,0.6-0.1,0.9c0,1.2,0.5,1.6,1.5,1.6c0.7,0,1.6-0.1,2-0.1c0.3,0,0.3,0.1,0.2,0.3l-0.2,0.9
			c0,0.2-0.2,0.2-0.3,0.3c-0.2,0.1-1.1,0.2-2.1,0.2c-1.5,0-3.1-0.7-3.1-3c0-0.3,0-0.6,0.1-0.9l0.3-1.9c0.6-3.5,2.5-4,4.4-4
			C475.9,41.8,476.8,42,477,42z"/>
		<path class="st3" d="M483.7,44.5c0.2,0.1,0.3,0.1,0.3,0.4l-1.1,6.5c0,0.1-0.2,0.3-0.3,0.3h-1c-0.2,0-0.2-0.1-0.2-0.3l0.1-0.4
			c-0.7,0.6-1.4,0.7-2,0.7c-1.2,0-2.1-0.8-2.1-2.3c0-0.4,0.1-0.8,0.1-1l0.2-0.9c0.3-2,1.6-3.3,3.7-3.3
			C482,44.1,482.9,44.3,483.7,44.5z M480.9,45.5c-1.1,0-1.5,0.8-1.7,1.9l-0.2,1.1c-0.1,0.4-0.1,0.7-0.1,0.8c0,0.7,0.4,0.9,0.9,0.9
			c0.5,0,1-0.2,1.6-0.5l0.7-4.1C481.9,45.6,481.4,45.5,480.9,45.5z"/>
		<path class="st3" d="M491.2,47.4l-0.2,1c-0.4,2.3-1.6,3.3-3.7,3.3c-0.3,0-0.8,0-1.2-0.1l-0.4,2.3c0,0.1-0.1,0.3-0.3,0.3h-1.2
			c-0.1,0-0.2-0.1-0.2-0.3l1.6-9c0-0.2,0.1-0.3,0.4-0.4c0.8-0.2,1.8-0.3,2.7-0.3c1.7,0,2.6,1,2.6,2.5
			C491.2,46.9,491.2,47.1,491.2,47.4z M488.4,45.5c-0.5,0-1,0-1.3,0.1l-0.8,4.5c0.4,0.1,0.9,0.1,1.2,0.1c1.1,0,1.5-0.9,1.7-1.9
			l0.2-1c0.1-0.3,0.1-0.5,0.1-0.8C489.5,45.9,489.2,45.5,488.4,45.5z"/>
		<path class="st3" d="M498.5,44.5c0.2,0.1,0.3,0.1,0.3,0.4l-1.1,6.5c0,0.1-0.2,0.3-0.3,0.3h-1c-0.2,0-0.2-0.1-0.2-0.3l0.1-0.4
			c-0.7,0.6-1.4,0.7-2,0.7c-1.2,0-2.1-0.8-2.1-2.3c0-0.4,0.1-0.8,0.1-1l0.2-0.9c0.3-2,1.6-3.3,3.7-3.3
			C496.8,44.1,497.7,44.3,498.5,44.5z M495.7,45.5c-1.1,0-1.5,0.8-1.7,1.9l-0.2,1.1c-0.1,0.4-0.1,0.7-0.1,0.8c0,0.7,0.4,0.9,0.9,0.9
			c0.5,0,1-0.2,1.6-0.5l0.7-4.1C496.7,45.6,496.2,45.5,495.7,45.5z"/>
		<path class="st3" d="M504.9,44.3c0.2,0.1,0.3,0.1,0.2,0.3l-0.2,0.8c0,0.1-0.1,0.2-0.3,0.2c-0.4-0.1-0.8-0.1-1.7-0.1
			c-0.6,0-1.3,0.4-1.5,1.7l-0.2,1.2c-0.1,0.2-0.1,0.5-0.1,0.6c0,0.9,0.5,1.1,1,1.1c0.8,0,1.2,0,1.7-0.1c0.2,0,0.3,0,0.2,0.2
			l-0.2,0.8c0,0.2-0.1,0.3-0.3,0.3c-0.3,0.1-0.9,0.2-1.7,0.2c-1.5,0-2.5-1-2.5-2.5c0-0.2,0-0.4,0.1-0.7l0.2-1.2
			c0.5-2.5,1.8-3.2,3.5-3.2C504,44.1,504.6,44.2,504.9,44.3z"/>
		<path class="st3" d="M508,44.2c0.1,0,0.3,0.1,0.2,0.3l-1.2,6.8c0,0.1-0.1,0.3-0.3,0.3h-1.2c-0.2,0-0.2-0.1-0.2-0.3l1.2-6.8
			c0-0.1,0.1-0.3,0.3-0.3H508z M508.5,41.6c0.2,0,0.2,0.1,0.2,0.3l-0.2,1.1c0,0.1-0.2,0.3-0.3,0.3H507c-0.1,0-0.3-0.1-0.2-0.3
			l0.2-1.1c0-0.1,0.1-0.3,0.3-0.3H508.5z"/>
		<path class="st3" d="M512.6,42.7c0.2,0,0.3,0.1,0.2,0.2l-0.2,1.3h1.2c0.1,0,0.3,0,0.2,0.3l-0.1,0.8c0,0.2-0.1,0.3-0.3,0.3h-1.2
			l-0.7,4.1c0,0.2-0.1,0.4-0.1,0.5c0,0.2,0.1,0.3,0.4,0.3h0.7c0.1,0,0.3,0,0.2,0.2l-0.1,0.8c0,0.1-0.1,0.2-0.3,0.2
			c-0.3,0.1-0.6,0.1-0.9,0.1c-1.1,0-1.8-0.4-1.8-1.4c0-0.2,0-0.4,0.1-0.6l0.7-4.1l-1.2-0.2c-0.2,0-0.2-0.1-0.2-0.3l0.1-0.6
			c0-0.1,0.1-0.3,0.3-0.3h1.2l0.2-1.1c0-0.1,0.2-0.2,0.3-0.3L512.6,42.7z"/>
		<path class="st3" d="M520.6,44.5c0.2,0.1,0.3,0.1,0.3,0.4l-1.1,6.5c0,0.1-0.2,0.3-0.3,0.3h-1c-0.2,0-0.2-0.1-0.2-0.3l0.1-0.4
			c-0.7,0.6-1.4,0.7-2,0.7c-1.2,0-2.1-0.8-2.1-2.3c0-0.4,0.1-0.8,0.1-1l0.2-0.9c0.3-2,1.6-3.3,3.7-3.3
			C518.9,44.1,519.8,44.3,520.6,44.5z M517.8,45.5c-1.1,0-1.5,0.8-1.7,1.9l-0.2,1.1c-0.1,0.4-0.1,0.7-0.1,0.8c0,0.7,0.4,0.9,0.9,0.9
			c0.5,0,1-0.2,1.6-0.5l0.7-4.1C518.8,45.6,518.3,45.5,517.8,45.5z"/>
		<path class="st3" d="M527,44.3c0.2,0.1,0.3,0.1,0.2,0.3l-0.2,0.8c0,0.1-0.1,0.2-0.3,0.2c-0.4-0.1-0.8-0.1-1.7-0.1
			c-0.6,0-1.3,0.4-1.5,1.7l-0.2,1.2c-0.1,0.2-0.1,0.5-0.1,0.6c0,0.9,0.5,1.1,1,1.1c0.8,0,1.2,0,1.7-0.1c0.2,0,0.3,0,0.2,0.2
			l-0.2,0.8c0,0.2-0.1,0.3-0.3,0.3c-0.3,0.1-0.9,0.2-1.7,0.2c-1.5,0-2.5-1-2.5-2.5c0-0.2,0-0.4,0.1-0.7l0.2-1.2
			c0.5-2.5,1.8-3.2,3.5-3.2C526.1,44.1,526.7,44.2,527,44.3z"/>
		<path class="st3" d="M530.1,44.2c0.1,0,0.3,0.1,0.2,0.3l-1.2,6.8c0,0.1-0.1,0.3-0.3,0.3h-1.2c-0.2,0-0.2-0.1-0.2-0.3l1.2-6.8
			c0-0.1,0.1-0.3,0.3-0.3H530.1z M530.6,41.6c0.2,0,0.2,0.1,0.2,0.3l-0.2,1.1c0,0.1-0.2,0.3-0.3,0.3h-1.3c-0.1,0-0.3-0.1-0.2-0.3
			l0.2-1.1c0-0.1,0.1-0.3,0.3-0.3H530.6z"/>
		<path class="st3" d="M537.6,47.4l-0.2,1.1c-0.4,2.1-1.6,3.2-3.7,3.2c-1.8,0-2.6-1.2-2.6-2.6c0-0.2,0-0.4,0.1-0.6l0.2-1.1
			c0.4-2.1,1.6-3.2,3.7-3.2c1.8,0,2.6,1.2,2.6,2.6C537.6,46.9,537.6,47.2,537.6,47.4z M534.8,45.6c-0.8,0-1.5,0.5-1.7,1.8l-0.2,1.1
			c0,0.2-0.1,0.4-0.1,0.6c0,0.8,0.4,1.2,1.1,1.2c0.9,0,1.5-0.5,1.7-1.8l0.2-1.1c0-0.2,0.1-0.4,0.1-0.6
			C535.9,46,535.5,45.6,534.8,45.6z M537.5,41.6l-1.8,1.6c-0.1,0.1-0.2,0.2-0.3,0.2h-1.2c-0.1,0-0.1,0-0.1-0.1c0,0,0-0.1,0.1-0.1
			l1.5-1.6c0.1-0.1,0.2-0.2,0.4-0.2h1.5c0.1,0,0.1,0,0.1,0.1C537.6,41.6,537.5,41.6,537.5,41.6z"/>
		<path class="st3" d="M545.1,47.1l-0.7,4.2c0,0.1-0.1,0.3-0.3,0.3h-1.2c-0.1,0-0.2-0.1-0.2-0.3l0.7-4.2c0.1-0.3,0.1-0.6,0.1-0.8
			c0-0.5-0.2-0.7-0.8-0.7c-0.6,0-1.1,0.2-1.7,0.5l-0.9,5.2c0,0.1-0.1,0.3-0.3,0.3h-1.2c-0.1,0-0.2-0.1-0.2-0.3l1.2-6.8
			c0-0.1,0.1-0.3,0.4-0.3h1c0.2,0,0.3,0,0.2,0.3l-0.1,0.3c0.8-0.5,1.5-0.6,2.2-0.6c1.4,0,1.9,0.8,1.9,1.9
			C545.2,46.4,545.2,46.7,545.1,47.1z"/>
	</g>
	<g>
		<path class="st3" d="M353.5,42c0.2,0.1,0.3,0.1,0.2,0.3l-0.2,0.9c0,0.2-0.1,0.3-0.3,0.3c-0.4,0-1.3-0.1-2-0.1
			c-1.3,0-2,0.7-2.3,2.4l-0.3,1.9c-0.1,0.3-0.1,0.6-0.1,0.9c0,1.2,0.5,1.6,1.5,1.6c0.7,0,1.6-0.1,2-0.1c0.3,0,0.3,0.1,0.2,0.3
			l-0.2,0.9c0,0.2-0.2,0.2-0.3,0.3c-0.2,0.1-1.1,0.2-2.1,0.2c-1.5,0-3.1-0.7-3.1-3c0-0.3,0-0.6,0.1-0.9l0.3-1.9c0.6-3.5,2.5-4,4.4-4
			C352.4,41.8,353.3,42,353.5,42z"/>
		<path class="st3" d="M360.2,47.5l-0.1,0.6c0,0.2-0.1,0.3-0.3,0.3h-4.2c0,0.2-0.1,0.4-0.1,0.5c0,0.7,0.4,1.2,1.3,1.2
			c0.9,0,1.8-0.1,2.4-0.1c0.2,0,0.3,0,0.2,0.2l-0.2,0.9c0,0.2-0.1,0.3-0.3,0.3c-0.9,0.2-1.4,0.2-2.6,0.2c-1.2,0-2.6-0.7-2.6-2.6
			c0-0.2,0-0.5,0.1-0.8l0.1-0.8c0.4-2.4,1.7-3.3,3.7-3.3c1.7,0,2.5,1.1,2.5,2.7C360.3,47,360.3,47.3,360.2,47.5z M357.5,45.6
			c-1,0-1.5,0.7-1.7,1.7h2.8c0-0.2,0.1-0.3,0.1-0.5C358.6,46,358.2,45.6,357.5,45.6z"/>
		<path class="st3" d="M366,44.4l-0.2,0.9c0,0.1-0.1,0.3-0.3,0.3c-0.4,0-1,0-1.9,0.5l-0.9,5.2c0,0.1-0.1,0.3-0.3,0.3h-1.2
			c-0.2,0-0.2-0.1-0.2-0.3l1.2-6.8c0-0.1,0.1-0.3,0.3-0.3h1.1c0.2,0,0.3,0.1,0.2,0.3l-0.1,0.3c0.7-0.6,1.4-0.6,2-0.6
			C366,44.1,366,44.2,366,44.4C366,44.4,366,44.4,366,44.4z"/>
		<path class="st3" d="M369.8,42.7c0.2,0,0.3,0.1,0.2,0.2l-0.2,1.3h1.2c0.1,0,0.3,0,0.2,0.3l-0.1,0.8c0,0.2-0.1,0.3-0.3,0.3h-1.2
			l-0.7,4.1c0,0.2-0.1,0.4-0.1,0.5c0,0.2,0.1,0.3,0.4,0.3h0.7c0.1,0,0.3,0,0.2,0.2l-0.1,0.8c0,0.1-0.1,0.2-0.3,0.2
			c-0.3,0.1-0.6,0.1-0.9,0.1c-1.1,0-1.8-0.4-1.8-1.4c0-0.2,0-0.4,0.1-0.6l0.7-4.1l-1.2-0.2c-0.2,0-0.2-0.1-0.2-0.3l0.1-0.6
			c0-0.1,0.1-0.3,0.3-0.3h1.2l0.2-1.1c0-0.1,0.2-0.2,0.3-0.3L369.8,42.7z"/>
		<path class="st3" d="M373.9,44.2c0.1,0,0.3,0.1,0.2,0.3l-1.2,6.8c0,0.1-0.1,0.3-0.3,0.3h-1.2c-0.2,0-0.2-0.1-0.2-0.3l1.2-6.8
			c0-0.1,0.1-0.3,0.3-0.3H373.9z M374.4,41.6c0.2,0,0.2,0.1,0.2,0.3l-0.2,1.1c0,0.1-0.2,0.3-0.3,0.3h-1.3c-0.1,0-0.3-0.1-0.2-0.3
			l0.2-1.1c0-0.1,0.1-0.3,0.3-0.3H374.4z"/>
		<path class="st3" d="M382.6,44.2c0.1,0,0.3,0.1,0.2,0.3l-1.2,6.8c0,0.1-0.1,0.3-0.3,0.3h-1.2c-0.2,0-0.2-0.1-0.2-0.3l1-5.8h-2.7
			l-1.1,6.1c-0.3,1.8-1.3,2.1-2.5,2.1c-0.3,0-0.6,0-0.8-0.1c-0.1,0-0.2-0.1-0.2-0.2l0.1-0.8c0-0.2,0.1-0.2,0.2-0.2h0.6
			c0.6,0,0.8-0.1,0.9-0.8l1.1-6.1l-1.1-0.2c-0.1,0-0.2-0.1-0.2-0.2l0.1-0.6c0-0.1,0.1-0.3,0.3-0.3h1.2l0.1-0.6
			c0.3-1.9,1.2-2.1,2.4-2.1c0.4,0,0.9,0.1,1,0.1c0.2,0,0.2,0.1,0.2,0.2l-0.1,0.8c0,0.2-0.1,0.2-0.2,0.2h-0.6c-0.6,0-0.8,0.1-0.9,0.8
			l-0.1,0.6H382.6z M383.1,41.6c0.2,0,0.2,0.1,0.2,0.3l-0.2,1.1c0,0.1-0.2,0.3-0.3,0.3h-1.3c-0.1,0-0.3-0.1-0.2-0.3l0.2-1.1
			c0-0.1,0.1-0.3,0.3-0.3H383.1z"/>
		<path class="st3" d="M389,44.3c0.2,0.1,0.3,0.1,0.2,0.3l-0.2,0.8c0,0.1-0.1,0.2-0.3,0.2c-0.4-0.1-0.8-0.1-1.7-0.1
			c-0.6,0-1.3,0.4-1.5,1.7l-0.2,1.2c-0.1,0.2-0.1,0.5-0.1,0.6c0,0.9,0.5,1.1,1,1.1c0.8,0,1.2,0,1.7-0.1c0.2,0,0.3,0,0.2,0.2
			l-0.2,0.8c0,0.2-0.1,0.3-0.3,0.3c-0.3,0.1-0.9,0.2-1.7,0.2c-1.5,0-2.5-1-2.5-2.5c0-0.2,0-0.4,0.1-0.7l0.2-1.2
			c0.5-2.5,1.8-3.2,3.5-3.2C388.1,44.1,388.7,44.2,389,44.3z"/>
		<path class="st3" d="M396,44.5c0.2,0.1,0.3,0.1,0.3,0.4l-1.1,6.5c0,0.1-0.2,0.3-0.3,0.3h-1c-0.2,0-0.2-0.1-0.2-0.3l0.1-0.4
			c-0.7,0.6-1.4,0.7-2,0.7c-1.2,0-2.1-0.8-2.1-2.3c0-0.4,0.1-0.8,0.1-1l0.2-0.9c0.3-2,1.6-3.3,3.7-3.3
			C394.2,44.1,395.2,44.3,396,44.5z M393.2,45.5c-1.1,0-1.5,0.8-1.7,1.9l-0.2,1.1c-0.1,0.4-0.1,0.7-0.1,0.8c0,0.7,0.4,0.9,0.9,0.9
			c0.5,0,1-0.2,1.6-0.5l0.7-4.1C394.2,45.6,393.6,45.5,393.2,45.5z"/>
		<path class="st3" d="M402.3,44.3c0.2,0.1,0.3,0.1,0.2,0.3l-0.2,0.8c0,0.1-0.1,0.2-0.3,0.2c-0.4-0.1-0.8-0.1-1.7-0.1
			c-0.6,0-1.3,0.4-1.5,1.7l-0.2,1.2c-0.1,0.2-0.1,0.5-0.1,0.6c0,0.9,0.5,1.1,1,1.1c0.8,0,1.2,0,1.7-0.1c0.2,0,0.3,0,0.2,0.2
			l-0.2,0.8c0,0.2-0.1,0.3-0.3,0.3c-0.3,0.1-0.9,0.2-1.7,0.2c-1.5,0-2.5-1-2.5-2.5c0-0.2,0-0.4,0.1-0.7l0.2-1.2
			c0.5-2.5,1.8-3.2,3.5-3.2C401.5,44.1,402.1,44.2,402.3,44.3z"/>
		<path class="st3" d="M405.5,44.2c0.1,0,0.3,0.1,0.2,0.3l-1.2,6.8c0,0.1-0.1,0.3-0.3,0.3H403c-0.2,0-0.2-0.1-0.2-0.3l1.2-6.8
			c0-0.1,0.1-0.3,0.3-0.3H405.5z M406,41.6c0.2,0,0.2,0.1,0.2,0.3L406,43c0,0.1-0.2,0.3-0.3,0.3h-1.3c-0.1,0-0.3-0.1-0.2-0.3
			l0.2-1.1c0-0.1,0.1-0.3,0.3-0.3H406z"/>
		<path class="st3" d="M412.9,47.4l-0.2,1.1c-0.4,2.1-1.6,3.2-3.7,3.2c-1.8,0-2.6-1.2-2.6-2.6c0-0.2,0-0.4,0.1-0.6l0.2-1.1
			c0.4-2.1,1.6-3.2,3.7-3.2c1.8,0,2.6,1.2,2.6,2.6C413,46.9,413,47.2,412.9,47.4z M410.1,45.6c-0.8,0-1.5,0.5-1.7,1.8l-0.2,1.1
			c0,0.2-0.1,0.4-0.1,0.6c0,0.8,0.4,1.2,1.1,1.2c0.9,0,1.5-0.5,1.7-1.8l0.2-1.1c0-0.2,0.1-0.4,0.1-0.6
			C411.3,46,410.9,45.6,410.1,45.6z M412.9,41.6l-1.8,1.6c-0.1,0.1-0.2,0.2-0.3,0.2h-1.2c-0.1,0-0.1,0-0.1-0.1c0,0,0-0.1,0.1-0.1
			l1.5-1.6c0.1-0.1,0.2-0.2,0.4-0.2h1.5c0.1,0,0.1,0,0.1,0.1C412.9,41.6,412.9,41.6,412.9,41.6z"/>
		<path class="st3" d="M420.5,47.1l-0.7,4.2c0,0.1-0.1,0.3-0.3,0.3h-1.2c-0.1,0-0.2-0.1-0.2-0.3l0.7-4.2c0.1-0.3,0.1-0.6,0.1-0.8
			c0-0.5-0.2-0.7-0.8-0.7c-0.6,0-1.1,0.2-1.7,0.5l-0.9,5.2c0,0.1-0.1,0.3-0.3,0.3h-1.2c-0.1,0-0.2-0.1-0.2-0.3l1.2-6.8
			c0-0.1,0.1-0.3,0.4-0.3h1c0.2,0,0.3,0,0.2,0.3l-0.1,0.3c0.8-0.5,1.5-0.6,2.2-0.6c1.4,0,1.9,0.8,1.9,1.9
			C420.5,46.4,420.5,46.7,420.5,47.1z"/>
	</g>
	<g>
		<path class="st3" d="M599.6,42c0.2,0.1,0.3,0.1,0.2,0.3l-0.2,0.9c0,0.2-0.1,0.3-0.3,0.3c-0.4,0-1.3-0.1-2-0.1
			c-1.3,0-2,0.7-2.3,2.4l-0.3,1.9c-0.1,0.3-0.1,0.6-0.1,0.9c0,1.2,0.5,1.6,1.5,1.6c0.7,0,1.6-0.1,2-0.1c0.3,0,0.3,0.1,0.2,0.3
			l-0.2,0.9c0,0.2-0.2,0.2-0.3,0.3c-0.2,0.1-1.1,0.2-2.1,0.2c-1.5,0-3.1-0.7-3.1-3c0-0.3,0-0.6,0.1-0.9l0.3-1.9c0.6-3.5,2.5-4,4.4-4
			C598.6,41.8,599.5,42,599.6,42z"/>
		<path class="st3" d="M606.4,47.5l-0.1,0.6c0,0.2-0.1,0.3-0.3,0.3h-4.2c0,0.2-0.1,0.4-0.1,0.5c0,0.7,0.4,1.2,1.3,1.2
			c0.9,0,1.8-0.1,2.4-0.1c0.2,0,0.3,0,0.2,0.2l-0.2,0.9c0,0.2-0.1,0.3-0.3,0.3c-0.9,0.2-1.4,0.2-2.6,0.2c-1.2,0-2.6-0.7-2.6-2.6
			c0-0.2,0-0.5,0.1-0.8l0.1-0.8c0.4-2.4,1.7-3.3,3.7-3.3c1.7,0,2.5,1.1,2.5,2.7C606.5,47,606.5,47.3,606.4,47.5z M603.7,45.6
			c-1,0-1.5,0.7-1.7,1.7h2.8c0-0.2,0.1-0.3,0.1-0.5C604.8,46,604.4,45.6,603.7,45.6z"/>
		<path class="st3" d="M612.2,44.4l-0.2,0.9c0,0.1-0.1,0.3-0.3,0.3c-0.4,0-1,0-1.9,0.5l-0.9,5.2c0,0.1-0.1,0.3-0.3,0.3h-1.2
			c-0.2,0-0.2-0.1-0.2-0.3l1.2-6.8c0-0.1,0.1-0.3,0.3-0.3h1.1c0.2,0,0.3,0.1,0.2,0.3l-0.1,0.3c0.7-0.6,1.4-0.6,2-0.6
			C612.2,44.1,612.2,44.2,612.2,44.4C612.2,44.4,612.2,44.4,612.2,44.4z"/>
		<path class="st3" d="M616,42.7c0.2,0,0.3,0.1,0.2,0.2l-0.2,1.3h1.2c0.1,0,0.3,0,0.2,0.3l-0.1,0.8c0,0.2-0.1,0.3-0.3,0.3h-1.2
			l-0.7,4.1c0,0.2-0.1,0.4-0.1,0.5c0,0.2,0.1,0.3,0.4,0.3h0.7c0.1,0,0.3,0,0.2,0.2l-0.1,0.8c0,0.1-0.1,0.2-0.3,0.2
			c-0.3,0.1-0.6,0.1-0.9,0.1c-1.1,0-1.8-0.4-1.8-1.4c0-0.2,0-0.4,0.1-0.6l0.7-4.1l-1.2-0.2c-0.2,0-0.2-0.1-0.2-0.3l0.1-0.6
			c0-0.1,0.1-0.3,0.3-0.3h1.2l0.2-1.1c0-0.1,0.2-0.2,0.3-0.3L616,42.7z"/>
		<path class="st3" d="M620.1,44.2c0.1,0,0.3,0.1,0.2,0.3l-1.2,6.8c0,0.1-0.1,0.3-0.3,0.3h-1.2c-0.2,0-0.2-0.1-0.2-0.3l1.2-6.8
			c0-0.1,0.1-0.3,0.3-0.3H620.1z M620.6,41.6c0.2,0,0.2,0.1,0.2,0.3l-0.2,1.1c0,0.1-0.2,0.3-0.3,0.3h-1.3c-0.1,0-0.3-0.1-0.2-0.3
			l0.2-1.1c0-0.1,0.1-0.3,0.3-0.3H620.6z"/>
		<path class="st3" d="M628.7,44.2c0.1,0,0.3,0.1,0.2,0.3l-1.2,6.8c0,0.1-0.1,0.3-0.3,0.3h-1.2c-0.2,0-0.2-0.1-0.2-0.3l1-5.8h-2.7
			l-1.1,6.1c-0.3,1.8-1.3,2.1-2.5,2.1c-0.3,0-0.6,0-0.8-0.1c-0.1,0-0.2-0.1-0.2-0.2l0.1-0.8c0-0.2,0.1-0.2,0.2-0.2h0.6
			c0.6,0,0.8-0.1,0.9-0.8l1.1-6.1l-1.1-0.2c-0.1,0-0.2-0.1-0.2-0.2l0.1-0.6c0-0.1,0.1-0.3,0.3-0.3h1.2l0.1-0.6
			c0.3-1.9,1.2-2.1,2.4-2.1c0.4,0,0.9,0.1,1,0.1c0.2,0,0.2,0.1,0.2,0.2l-0.1,0.8c0,0.2-0.1,0.2-0.2,0.2h-0.6c-0.6,0-0.8,0.1-0.9,0.8
			l-0.1,0.6H628.7z M629.2,41.6c0.2,0,0.2,0.1,0.2,0.3l-0.2,1.1c0,0.1-0.2,0.3-0.3,0.3h-1.3c-0.1,0-0.3-0.1-0.2-0.3l0.2-1.1
			c0-0.1,0.1-0.3,0.3-0.3H629.2z"/>
		<path class="st3" d="M635.2,44.3c0.2,0.1,0.3,0.1,0.2,0.3l-0.2,0.8c0,0.1-0.1,0.2-0.3,0.2c-0.4-0.1-0.8-0.1-1.7-0.1
			c-0.6,0-1.3,0.4-1.5,1.7l-0.2,1.2c-0.1,0.2-0.1,0.5-0.1,0.6c0,0.9,0.5,1.1,1,1.1c0.8,0,1.2,0,1.7-0.1c0.2,0,0.3,0,0.2,0.2
			l-0.2,0.8c0,0.2-0.1,0.3-0.3,0.3c-0.3,0.1-0.9,0.2-1.7,0.2c-1.5,0-2.5-1-2.5-2.5c0-0.2,0-0.4,0.1-0.7l0.2-1.2
			c0.5-2.5,1.8-3.2,3.5-3.2C634.3,44.1,634.9,44.2,635.2,44.3z"/>
		<path class="st3" d="M642.1,44.5c0.2,0.1,0.3,0.1,0.3,0.4l-1.1,6.5c0,0.1-0.2,0.3-0.3,0.3h-1c-0.2,0-0.2-0.1-0.2-0.3l0.1-0.4
			c-0.7,0.6-1.4,0.7-2,0.7c-1.2,0-2.1-0.8-2.1-2.3c0-0.4,0.1-0.8,0.1-1l0.2-0.9c0.3-2,1.6-3.3,3.7-3.3
			C640.4,44.1,641.4,44.3,642.1,44.5z M639.4,45.5c-1.1,0-1.5,0.8-1.7,1.9l-0.2,1.1c-0.1,0.4-0.1,0.7-0.1,0.8c0,0.7,0.4,0.9,0.9,0.9
			c0.5,0,1-0.2,1.6-0.5l0.7-4.1C640.3,45.6,639.8,45.5,639.4,45.5z"/>
		<path class="st3" d="M648.5,44.3c0.2,0.1,0.3,0.1,0.2,0.3l-0.2,0.8c0,0.1-0.1,0.2-0.3,0.2c-0.4-0.1-0.8-0.1-1.7-0.1
			c-0.6,0-1.3,0.4-1.5,1.7l-0.2,1.2c-0.1,0.2-0.1,0.5-0.1,0.6c0,0.9,0.5,1.1,1,1.1c0.8,0,1.2,0,1.7-0.1c0.2,0,0.3,0,0.2,0.2
			l-0.2,0.8c0,0.2-0.1,0.3-0.3,0.3c-0.3,0.1-0.9,0.2-1.7,0.2c-1.5,0-2.5-1-2.5-2.5c0-0.2,0-0.4,0.1-0.7l0.2-1.2
			c0.5-2.5,1.8-3.2,3.5-3.2C647.7,44.1,648.2,44.2,648.5,44.3z"/>
		<path class="st3" d="M651.7,44.2c0.1,0,0.3,0.1,0.2,0.3l-1.2,6.8c0,0.1-0.1,0.3-0.3,0.3h-1.2c-0.2,0-0.2-0.1-0.2-0.3l1.2-6.8
			c0-0.1,0.1-0.3,0.3-0.3H651.7z M652.2,41.6c0.2,0,0.2,0.1,0.2,0.3l-0.2,1.1c0,0.1-0.2,0.3-0.3,0.3h-1.3c-0.1,0-0.3-0.1-0.2-0.3
			l0.2-1.1c0-0.1,0.1-0.3,0.3-0.3H652.2z"/>
		<path class="st3" d="M659.1,47.4l-0.2,1.1c-0.4,2.1-1.6,3.2-3.7,3.2c-1.8,0-2.6-1.2-2.6-2.6c0-0.2,0-0.4,0.1-0.6l0.2-1.1
			c0.4-2.1,1.6-3.2,3.7-3.2c1.8,0,2.6,1.2,2.6,2.6C659.2,46.9,659.2,47.2,659.1,47.4z M656.3,45.6c-0.8,0-1.5,0.5-1.7,1.8l-0.2,1.1
			c0,0.2-0.1,0.4-0.1,0.6c0,0.8,0.4,1.2,1.1,1.2c0.9,0,1.5-0.5,1.7-1.8l0.2-1.1c0-0.2,0.1-0.4,0.1-0.6
			C657.4,46,657.1,45.6,656.3,45.6z M659,41.6l-1.8,1.6c-0.1,0.1-0.2,0.2-0.3,0.2h-1.2c-0.1,0-0.1,0-0.1-0.1c0,0,0-0.1,0.1-0.1
			l1.5-1.6c0.1-0.1,0.2-0.2,0.4-0.2h1.5c0.1,0,0.1,0,0.1,0.1C659.1,41.6,659.1,41.6,659,41.6z"/>
		<path class="st3" d="M666.6,47.1l-0.7,4.2c0,0.1-0.1,0.3-0.3,0.3h-1.2c-0.1,0-0.2-0.1-0.2-0.3l0.7-4.2c0.1-0.3,0.1-0.6,0.1-0.8
			c0-0.5-0.2-0.7-0.8-0.7c-0.6,0-1.1,0.2-1.7,0.5l-0.9,5.2c0,0.1-0.1,0.3-0.3,0.3h-1.2c-0.1,0-0.2-0.1-0.2-0.3l1.2-6.8
			c0-0.1,0.1-0.3,0.4-0.3h1c0.2,0,0.3,0,0.2,0.3l-0.1,0.3c0.8-0.5,1.5-0.6,2.2-0.6c1.4,0,1.9,0.8,1.9,1.9
			C666.7,46.4,666.7,46.7,666.6,47.1z"/>
	</g>
	<g>
		<path class="st3" d="M290.7,17.8c0,0.2-0.1,0.3-0.3,0.3c-0.4-0.1-1.2-0.1-1.8-0.1c-0.6,0-1.1,0.1-1.5,1.9l-0.2,1.1
			c-0.1,0.4-0.1,0.7-0.1,0.9c0,0.9,0.4,1,0.9,1c0.5,0,1.4-0.1,1.9-0.1c0.2,0,0.3,0.1,0.2,0.3l-0.4,2.2c0,0.2-0.1,0.2-0.3,0.3
			c-0.5,0.2-1.1,0.3-1.9,0.3c-2.6,0-3.8-1.3-3.8-3.5c0-0.4,0-0.8,0.1-1.3l0.2-1.1c0.7-3.6,2.3-4.8,5.2-4.8c0.8,0,1.5,0.1,1.9,0.3
			c0.2,0.1,0.3,0.1,0.3,0.3L290.7,17.8z"/>
		<path class="st3" d="M301.1,15.2c0.2,0,0.3,0.1,0.2,0.3l-1.1,6.1c-0.6,3.3-2.3,4.1-5.1,4.1c-1.9,0-3.8-0.9-3.8-3.3
			c0-0.3,0-0.6,0.1-1l1.1-6c0-0.2,0.2-0.3,0.4-0.3h2.7c0.2,0,0.3,0.1,0.2,0.3l-1.1,6.1c0,0.2-0.1,0.4-0.1,0.5c0,0.7,0.3,0.8,1,0.8
			c0.7,0,1.1-0.2,1.3-1.3l1.1-6.1c0-0.2,0.1-0.3,0.3-0.3H301.1z"/>
		<path class="st3" d="M308.9,21.5l1.3,3.7c0,0,0,0.1,0,0.1c0,0.2-0.1,0.3-0.3,0.3h-2.9c-0.2,0-0.2-0.1-0.2-0.3l-1.1-3.3h-0.5
			l-0.6,3.3c0,0.2-0.1,0.3-0.3,0.3h-2.7c-0.2,0-0.3-0.1-0.2-0.3l1.6-8.9c0.2-0.9,0.4-1.1,1.2-1.2c0.5-0.1,2.1-0.2,3.1-0.2
			c2.5,0,4,0.9,4,2.9C311.1,19.3,310.4,20.9,308.9,21.5z M306.9,17.8h-1.1l-0.3,1.8h1.1c0.9,0,1.2-0.5,1.2-1.1
			C307.7,18,307.5,17.8,306.9,17.8z"/>
		<path class="st3" d="M320.3,15.7l-0.4,2.1c0,0.2-0.1,0.3-0.3,0.3c-0.7-0.1-2.3-0.2-3.4-0.2c-0.2,0-0.3,0.1-0.3,0.2
			c0,0.1,0.1,0.2,0.4,0.4l1.8,1.1c1,0.6,1.3,1.4,1.3,2.3c0,2.7-2.3,3.9-4.7,3.9c-1.2,0-2.2-0.2-2.9-0.4c-0.1,0-0.3-0.1-0.3-0.3
			l0.4-2.1c0-0.2,0.1-0.3,0.4-0.3c0.6,0.1,2,0.2,3,0.2c0.3,0,0.6-0.1,0.6-0.4c0-0.2-0.1-0.3-0.3-0.4l-1.9-1.2
			c-0.9-0.6-1.2-1.5-1.2-2.3c0-2.6,2-3.4,4.3-3.4c1.2,0,2.7,0.2,3.3,0.4C320.2,15.5,320.3,15.5,320.3,15.7z"/>
		<path class="st3" d="M329.8,19.8l-0.2,1.2c-0.7,3.8-3,4.7-5.3,4.7c-2,0-3.7-1-3.7-3.6c0-0.4,0-0.7,0.1-1.2l0.2-1.2
			c0.7-3.8,3-4.7,5.3-4.7c2,0,3.7,1,3.7,3.6C329.9,19,329.9,19.4,329.8,19.8z M325.7,18c-0.8,0-1.2,0.5-1.4,1.8l-0.2,1.2
			c-0.1,0.3-0.1,0.6-0.1,0.8c0,0.7,0.3,1,0.9,1c0.8,0,1.2-0.5,1.4-1.8l0.2-1.2c0.1-0.3,0.1-0.6,0.1-0.8
			C326.6,18.2,326.3,18,325.7,18z"/>
		<path class="st3" d="M339,15.7l-0.4,2.1c0,0.2-0.1,0.3-0.3,0.3c-0.7-0.1-2.3-0.2-3.4-0.2c-0.2,0-0.3,0.1-0.3,0.2
			c0,0.1,0.1,0.2,0.4,0.4l1.8,1.1c1,0.6,1.3,1.4,1.3,2.3c0,2.7-2.3,3.9-4.7,3.9c-1.2,0-2.2-0.2-2.9-0.4c-0.1,0-0.3-0.1-0.3-0.3
			l0.4-2.1c0-0.2,0.1-0.3,0.4-0.3c0.6,0.1,2,0.2,3,0.2c0.3,0,0.6-0.1,0.6-0.4c0-0.2-0.1-0.3-0.3-0.4l-1.9-1.2
			c-0.9-0.6-1.2-1.5-1.2-2.3c0-2.6,2-3.4,4.3-3.4c1.2,0,2.7,0.2,3.3,0.4C338.9,15.5,339.1,15.5,339,15.7z"/>
	</g>
	<g>
		<path class="st3" d="M487.3,17.8c0,0.2-0.1,0.3-0.3,0.3c-0.4-0.1-1.2-0.1-1.8-0.1c-0.6,0-1.1,0.1-1.5,1.9l-0.2,1.1
			c-0.1,0.4-0.1,0.7-0.1,0.9c0,0.9,0.4,1,0.9,1c0.5,0,1.4-0.1,1.9-0.1c0.2,0,0.3,0.1,0.2,0.3l-0.4,2.2c0,0.2-0.1,0.2-0.3,0.3
			c-0.5,0.2-1.1,0.3-1.9,0.3c-2.6,0-3.8-1.3-3.8-3.5c0-0.4,0-0.8,0.1-1.3l0.2-1.1c0.7-3.6,2.3-4.8,5.2-4.8c0.8,0,1.5,0.1,1.9,0.3
			c0.2,0.1,0.3,0.1,0.3,0.3L487.3,17.8z"/>
		<path class="st3" d="M495.9,25.6H493c-0.2,0-0.2-0.1-0.2-0.3l0-1.6h-2.1l-0.5,1.6c-0.1,0.2-0.2,0.3-0.3,0.3h-2.9
			c-0.1,0-0.2-0.1-0.2-0.2c0,0,0-0.1,0-0.1l3.2-8.5c0.5-1.4,1.7-1.8,3.4-1.8c1.7,0,2.7,0.4,2.7,1.8l0.2,8.5v0
			C496.2,25.5,496.1,25.6,495.9,25.6z M492.8,17.7c-0.1,0-0.1,0.1-0.2,0.2l-1.1,3.3h1.3l0.1-3.3c0,0,0-0.1,0-0.1
			C492.9,17.8,492.9,17.7,492.8,17.7z"/>
		<path class="st3" d="M508,15.5l-1.7,9.6c0,0.3-0.2,0.5-0.6,0.5h-2.4c-0.2,0-0.3-0.1-0.4-0.3l-1.6-3.9c0-0.1-0.1-0.1-0.1-0.1
			c0,0,0,0,0,0c0,0-0.1,0-0.1,0.1l-0.7,3.9c0,0.2-0.1,0.3-0.4,0.3h-2.6c-0.2,0-0.3-0.1-0.2-0.3l1.7-9.6c0-0.3,0.2-0.5,0.6-0.5h2.3
			c0.3,0,0.4,0.2,0.5,0.4l1.7,3.9c0.1,0.1,0.1,0.1,0.1,0.1c0,0,0.1,0,0.1-0.1l0.7-4c0-0.2,0.1-0.3,0.3-0.3h2.6
			C508,15.2,508.1,15.3,508,15.5z"/>
		<path class="st3" d="M516.7,15.5l-0.4,2.1c0,0.2-0.1,0.3-0.4,0.3h-1.9l-1.3,7.4c0,0.2-0.1,0.3-0.3,0.3h-2.7
			c-0.2,0-0.3-0.1-0.2-0.3l1.3-7.4h-2c-0.2,0-0.3-0.1-0.2-0.3l0.4-2.1c0-0.2,0.2-0.3,0.3-0.3h7.2C516.7,15.2,516.7,15.3,516.7,15.5z
			"/>
		<path class="st3" d="M521.2,15.5l-1.7,9.8c0,0.2-0.1,0.3-0.3,0.3h-2.7c-0.2,0-0.3-0.1-0.2-0.3l1.7-9.8c0-0.2,0.1-0.3,0.4-0.3h2.7
			C521.1,15.2,521.2,15.3,521.2,15.5z"/>
		<path class="st3" d="M530.6,19.7l-0.2,1.3c-0.7,3.6-2.5,4.7-5.4,4.7c-1.5,0-2.6-0.1-3.4-0.3c-0.3-0.1-0.4-0.1-0.4-0.4
			c0-0.1,0-0.1,0-0.2l1.6-9c0.1-0.4,0.2-0.5,0.6-0.6c0.9-0.2,2-0.3,3.5-0.3c2.3,0,3.9,1.2,3.9,3.5C530.7,18.9,530.7,19.3,530.6,19.7
			z M526.3,17.9h-0.6l-0.9,5h0.6c1,0,1.3-0.3,1.6-1.9l0.2-1.3c0.1-0.4,0.1-0.7,0.1-0.9C527.4,18.1,527,17.9,526.3,17.9z"/>
		<path class="st3" d="M539.4,25.6h-2.9c-0.2,0-0.2-0.1-0.2-0.3l0-1.6h-2.1l-0.5,1.6c-0.1,0.2-0.2,0.3-0.3,0.3h-2.9
			c-0.1,0-0.2-0.1-0.2-0.2c0,0,0-0.1,0-0.1l3.2-8.5c0.5-1.4,1.7-1.8,3.4-1.8c1.7,0,2.7,0.4,2.7,1.8l0.2,8.5v0
			C539.7,25.5,539.6,25.6,539.4,25.6z M536.3,17.7c-0.1,0-0.1,0.1-0.2,0.2l-1.1,3.3h1.3l0.1-3.3c0,0,0-0.1,0-0.1
			C536.4,17.8,536.4,17.7,536.3,17.7z"/>
		<path class="st3" d="M550.3,19.7l-0.2,1.3c-0.7,3.6-2.5,4.7-5.4,4.7c-1.5,0-2.6-0.1-3.4-0.3c-0.3-0.1-0.4-0.1-0.4-0.4
			c0-0.1,0-0.1,0-0.2l1.6-9c0.1-0.4,0.2-0.5,0.6-0.6c0.9-0.2,2-0.3,3.5-0.3c2.3,0,3.9,1.2,3.9,3.5C550.4,18.9,550.4,19.3,550.3,19.7
			z M546,17.9h-0.6l-0.9,5h0.6c1,0,1.3-0.3,1.6-1.9l0.2-1.3c0.1-0.4,0.1-0.7,0.1-0.9C547.1,18.1,546.7,17.9,546,17.9z"/>
		<path class="st3" d="M563.4,19.7l-0.2,1.3c-0.7,3.6-2.5,4.7-5.4,4.7c-1.5,0-2.6-0.1-3.4-0.3c-0.3-0.1-0.4-0.1-0.4-0.4
			c0-0.1,0-0.1,0-0.2l1.6-9c0.1-0.4,0.2-0.5,0.6-0.6c0.9-0.2,2-0.3,3.5-0.3c2.3,0,3.9,1.2,3.9,3.5C563.5,18.9,563.5,19.3,563.4,19.7
			z M559.1,17.9h-0.6l-0.9,5h0.6c1,0,1.3-0.3,1.6-1.9l0.2-1.3c0.1-0.4,0.1-0.7,0.1-0.9C560.2,18.1,559.8,17.9,559.1,17.9z"/>
		<path class="st3" d="M572.3,15.5l-0.4,2.1c0,0.2-0.1,0.3-0.3,0.3h-2.8c-0.4,0-0.5,0.1-0.5,0.4l-0.1,0.8h3.3c0.2,0,0.3,0.1,0.2,0.3
			l-0.3,2c0,0.2-0.2,0.3-0.3,0.3h-3.3l-0.1,0.7c0,0.2,0,0.3,0,0.3c0,0.2,0.1,0.3,0.4,0.3h2.8c0.2,0,0.3,0.1,0.2,0.3l-0.4,2.1
			c0,0.2-0.1,0.3-0.3,0.3c-0.6,0.1-1.6,0.2-2.8,0.2c-1.7,0-3.3-0.6-3.3-2.5c0-0.2,0-0.5,0.1-0.8l0.7-4.1c0.6-3.1,2.6-3.3,4.3-3.3
			c1.2,0,2.2,0.1,2.8,0.2C572.2,15.2,572.3,15.3,572.3,15.5z"/>
		<path class="st3" d="M585,18.7L585,18.7c-0.5,3.2-3.2,3.8-5.1,3.8c-0.3,0-0.4,0-0.8,0l-0.5,2.9c0,0.2-0.1,0.3-0.3,0.3h-2.7
			c-0.1,0-0.2-0.1-0.2-0.2l1.6-9c0.2-0.9,0.4-1.1,1.2-1.2c0.7-0.1,2.1-0.2,3.1-0.2c1.9,0,3.9,0.7,3.9,3
			C585.1,18.3,585.1,18.5,585,18.7z M580.7,17.8h-0.9l-0.3,1.9h0.9c0.7,0,1.3-0.3,1.4-0.9l0-0.1c0-0.1,0-0.1,0-0.2
			C581.8,18,581.4,17.8,580.7,17.8z"/>
		<path class="st3" d="M593,25.6h-2.9c-0.2,0-0.2-0.1-0.2-0.3l0-1.6h-2.1l-0.5,1.6c-0.1,0.2-0.2,0.3-0.3,0.3H584
			c-0.1,0-0.2-0.1-0.2-0.2c0,0,0-0.1,0-0.1l3.2-8.5c0.5-1.4,1.7-1.8,3.4-1.8c1.7,0,2.7,0.4,2.7,1.8l0.2,8.5v0
			C593.3,25.5,593.2,25.6,593,25.6z M589.9,17.7c-0.1,0-0.1,0.1-0.2,0.2l-1.1,3.3h1.3l0.1-3.3c0,0,0-0.1,0-0.1
			C590,17.8,590,17.7,589.9,17.7z"/>
		<path class="st3" d="M602,21.5l1.3,3.7c0,0,0,0.1,0,0.1c0,0.2-0.1,0.3-0.3,0.3h-2.9c-0.2,0-0.2-0.1-0.2-0.3l-1.1-3.3h-0.5
			l-0.6,3.3c0,0.2-0.1,0.3-0.3,0.3h-2.7c-0.2,0-0.3-0.1-0.2-0.3l1.6-8.9c0.2-0.9,0.4-1.1,1.2-1.2c0.5-0.1,2.1-0.2,3.1-0.2
			c2.5,0,4,0.9,4,2.9C604.2,19.3,603.5,20.9,602,21.5z M600,17.8h-1l-0.3,1.8h1.1c0.9,0,1.2-0.5,1.2-1.1
			C600.9,18,600.6,17.8,600,17.8z"/>
		<path class="st3" d="M613.3,15.5l-0.4,2.1c0,0.2-0.1,0.3-0.4,0.3h-1.9l-1.3,7.4c0,0.2-0.1,0.3-0.3,0.3h-2.7
			c-0.2,0-0.3-0.1-0.2-0.3l1.3-7.4h-2c-0.2,0-0.3-0.1-0.2-0.3l0.4-2.1c0-0.2,0.2-0.3,0.3-0.3h7.2C613.3,15.2,613.3,15.3,613.3,15.5z
			"/>
		<path class="st3" d="M617.8,15.5l-1.7,9.8c0,0.2-0.1,0.3-0.3,0.3H613c-0.2,0-0.3-0.1-0.2-0.3l1.7-9.8c0-0.2,0.1-0.3,0.4-0.3h2.7
			C617.7,15.2,617.8,15.3,617.8,15.5z"/>
		<path class="st3" d="M625.4,17.8c0,0.2-0.1,0.3-0.3,0.3c-0.4-0.1-1.2-0.1-1.8-0.1c-0.6,0-1.1,0.1-1.5,1.9l-0.2,1.1
			c-0.1,0.4-0.1,0.7-0.1,0.9c0,0.9,0.4,1,0.9,1c0.5,0,1.4-0.1,1.9-0.1c0.2,0,0.3,0.1,0.2,0.3l-0.4,2.2c0,0.2-0.1,0.2-0.3,0.3
			c-0.5,0.2-1.1,0.3-1.9,0.3c-2.6,0-3.8-1.3-3.8-3.5c0-0.4,0-0.8,0.1-1.3l0.2-1.1c0.7-3.6,2.3-4.8,5.2-4.8c0.8,0,1.5,0.1,1.9,0.3
			c0.2,0.1,0.3,0.1,0.3,0.3L625.4,17.8z"/>
		<path class="st3" d="M630.4,15.5l-1.7,9.8c0,0.2-0.1,0.3-0.3,0.3h-2.7c-0.2,0-0.3-0.1-0.2-0.3l1.7-9.8c0-0.2,0.1-0.3,0.4-0.3h2.7
			C630.4,15.2,630.5,15.3,630.4,15.5z"/>
		<path class="st3" d="M640,18.7L640,18.7c-0.5,3.2-3.2,3.8-5.1,3.8c-0.3,0-0.4,0-0.8,0l-0.5,2.9c0,0.2-0.1,0.3-0.3,0.3h-2.7
			c-0.1,0-0.2-0.1-0.2-0.2l1.6-9c0.2-0.9,0.4-1.1,1.2-1.2c0.7-0.1,2.1-0.2,3.1-0.2c1.9,0,3.9,0.7,3.9,3
			C640.1,18.3,640.1,18.5,640,18.7z M635.7,17.8h-0.9l-0.3,1.9h0.9c0.7,0,1.3-0.3,1.4-0.9l0-0.1c0-0.1,0-0.1,0-0.2
			C636.8,18,636.4,17.8,635.7,17.8z"/>
		<path class="st3" d="M648,25.6h-2.9c-0.2,0-0.2-0.1-0.2-0.3l0-1.6h-2.1l-0.5,1.6c-0.1,0.2-0.2,0.3-0.3,0.3H639
			c-0.1,0-0.2-0.1-0.2-0.2c0,0,0-0.1,0-0.1l3.2-8.5c0.5-1.4,1.7-1.8,3.4-1.8s2.7,0.4,2.7,1.8l0.2,8.5v0
			C648.3,25.5,648.2,25.6,648,25.6z M644.9,17.7c-0.1,0-0.1,0.1-0.2,0.2l-1.1,3.3h1.3l0.1-3.3c0,0,0-0.1,0-0.1
			C645,17.8,645,17.7,644.9,17.7z"/>
		<path class="st3" d="M660.2,15.5l-1.7,9.6c0,0.3-0.2,0.5-0.6,0.5h-2.4c-0.2,0-0.3-0.1-0.4-0.3l-1.6-3.9c0-0.1-0.1-0.1-0.1-0.1
			c0,0,0,0,0,0c0,0-0.1,0-0.1,0.1l-0.7,3.9c0,0.2-0.1,0.3-0.3,0.3h-2.6c-0.2,0-0.3-0.1-0.2-0.3l1.7-9.6c0-0.3,0.2-0.5,0.6-0.5h2.3
			c0.3,0,0.4,0.2,0.5,0.4l1.7,3.9c0.1,0.1,0.1,0.1,0.1,0.1c0,0,0.1,0,0.1-0.1l0.7-4c0-0.2,0.1-0.3,0.3-0.3h2.6
			C660.2,15.2,660.2,15.3,660.2,15.5z"/>
		<path class="st3" d="M668.8,15.5l-0.4,2.1c0,0.2-0.1,0.3-0.4,0.3h-1.9l-1.3,7.4c0,0.2-0.1,0.3-0.3,0.3h-2.7
			c-0.2,0-0.3-0.1-0.2-0.3l1.3-7.4h-2c-0.2,0-0.3-0.1-0.2-0.3l0.4-2.1c0-0.2,0.2-0.3,0.3-0.3h7.2C668.8,15.2,668.8,15.3,668.8,15.5z
			"/>
		<path class="st3" d="M676.5,15.5l-0.4,2.1c0,0.2-0.1,0.3-0.3,0.3h-2.8c-0.4,0-0.5,0.1-0.5,0.4l-0.1,0.8h3.3c0.2,0,0.3,0.1,0.2,0.3
			l-0.3,2c0,0.2-0.2,0.3-0.3,0.3h-3.3l-0.1,0.7c0,0.2,0,0.3,0,0.3c0,0.2,0.1,0.3,0.4,0.3h2.8c0.2,0,0.3,0.1,0.2,0.3l-0.4,2.1
			c0,0.2-0.1,0.3-0.3,0.3c-0.6,0.1-1.6,0.2-2.8,0.2c-1.7,0-3.3-0.6-3.3-2.5c0-0.2,0-0.5,0.1-0.8l0.7-4.1c0.6-3.1,2.6-3.3,4.3-3.3
			c1.2,0,2.2,0.1,2.8,0.2C676.4,15.2,676.5,15.3,676.5,15.5z"/>
		<path class="st3" d="M685.1,15.7l-0.4,2.1c0,0.2-0.1,0.3-0.3,0.3c-0.7-0.1-2.3-0.2-3.4-0.2c-0.2,0-0.3,0.1-0.3,0.2
			c0,0.1,0.1,0.2,0.4,0.4l1.8,1.1c1,0.6,1.3,1.4,1.3,2.3c0,2.7-2.3,3.9-4.7,3.9c-1.2,0-2.2-0.2-2.9-0.4c-0.1,0-0.3-0.1-0.3-0.3
			l0.4-2.1c0-0.2,0.1-0.3,0.4-0.3c0.6,0.1,2,0.2,3,0.2c0.3,0,0.6-0.1,0.6-0.4c0-0.2-0.1-0.3-0.3-0.4l-1.9-1.2
			c-0.9-0.6-1.2-1.5-1.2-2.3c0-2.6,2-3.4,4.3-3.4c1.2,0,2.7,0.2,3.3,0.4C685,15.5,685.1,15.5,685.1,15.7z"/>
	</g>
	<g>
		<defs>
			<rect id="SVGID_1_" x="2.5" y="6.9" width="706.7" height="165.4"/>
		</defs>
		<clipPath id="SVGID_2_">
			<use xlink:href="#SVGID_1_"  style="overflow:visible;"/>
		</clipPath>
		<line class="st4" x1="216.2" y1="34.6" x2="216.2" y2="172.3"/>
	</g>
	<line class="st5" x1="703.4" y1="35.1" x2="216.5" y2="35.1"/>
	<g>
		<defs>
			<rect id="SVGID_3_" x="2.5" y="6.9" width="706.7" height="165.4"/>
		</defs>
		<clipPath id="SVGID_4_">
			<use xlink:href="#SVGID_3_"  style="overflow:visible;"/>
		</clipPath>
		<line class="st6" x1="450.4" y1="34.6" x2="450.4" y2="172.3"/>
	</g>
	<line class="st5" x1="328" y1="34.6" x2="328" y2="150.9"/>
	<line class="st5" x1="573.9" y1="35" x2="573.9" y2="150.9"/>
	<g>
		<defs>
			<rect id="SVGID_5_" x="2.5" y="6.9" width="706.7" height="165.4"/>
		</defs>
		<clipPath id="SVGID_6_">
			<use xlink:href="#SVGID_5_"  style="overflow:visible;"/>
		</clipPath>
		<line class="st7" x1="703" y1="35.1" x2="703" y2="172.3"/>
	</g>
</g>
</svg>
