<?xml version="1.0" encoding="utf-8"?>
<!-- Generator: Adobe Illustrator 19.2.1, SVG Export Plug-In . SVG Version: 6.00 Build 0)  -->
<svg version="1.1" id="Capa_1" xmlns="http://www.w3.org/2000/svg" xmlns:xlink="http://www.w3.org/1999/xlink" x="0px" y="0px"
	 viewBox="0 0 716.7 401.8" style="enable-background:new 0 0 716.7 401.8;" xml:space="preserve">
<style type="text/css">
	.st0{fill:#3A0048;}
	.st1{fill:#F000A6;}
	.st2{fill:none;stroke:#F000A6;stroke-width:1.3955;stroke-miterlimit:10;}
	.st3{fill:none;}
	.st4{fill:#FF9C00;}
	.st5{fill:#FFFFFF;}
</style>
<g>
	<g>
		<path class="st0" d="M150.2,26.9c-0.1,0.5-0.3,0.6-0.7,0.6c-1-0.1-2.9-0.3-4.2-0.3c-1.3,0-2.7,0.3-3.4,4.3l-0.5,2.6
			c-0.2,0.9-0.2,1.6-0.2,2.1c0,2.1,1,2.2,2.1,2.2c1.3,0,3.3-0.2,4.3-0.3c0.6-0.1,0.6,0.2,0.5,0.6l-0.9,5.1c-0.1,0.4-0.2,0.5-0.8,0.7
			c-1.1,0.4-2.6,0.6-4.4,0.6c-5.9,0-8.8-3.1-8.8-8.1c0-0.9,0.1-1.9,0.3-3l0.5-2.6c1.5-8.2,5.3-11.1,12.1-11.1c1.8,0,3.5,0.3,4.3,0.6
			c0.4,0.1,0.6,0.3,0.6,0.7L150.2,26.9z"/>
		<path class="st0" d="M170.2,44.8h-6.7c-0.4,0-0.6-0.3-0.6-0.6l0-3.6h-4.9l-1.2,3.6c-0.1,0.4-0.5,0.6-0.8,0.6h-6.8
			c-0.3,0-0.4-0.1-0.4-0.4c0-0.1,0-0.2,0.1-0.3l7.3-19.6c1.2-3.3,3.9-4.2,7.9-4.2c4,0,6.3,0.9,6.3,4.2l0.4,19.6v0
			C170.9,44.6,170.6,44.8,170.2,44.8z M163,26.6c-0.3,0-0.3,0.2-0.4,0.4l-2.5,7.6h3l0.1-7.6c0-0.1,0-0.1,0-0.2
			C163.2,26.7,163.2,26.6,163,26.6z"/>
		<path class="st0" d="M198.3,21.4l-3.9,22.3c-0.1,0.6-0.4,1.1-1.3,1.1h-5.5c-0.5,0-0.7-0.3-0.9-0.7l-3.8-8.9
			c-0.1-0.3-0.2-0.3-0.2-0.3c0,0,0,0,0,0c-0.1,0-0.2,0.1-0.2,0.3l-1.6,9c-0.1,0.4-0.2,0.6-0.8,0.6H174c-0.4,0-0.6-0.2-0.6-0.6
			l3.9-22.3c0.1-0.6,0.5-1.1,1.3-1.1h5.3c0.6,0,0.9,0.5,1.1,0.9l3.9,9c0.1,0.3,0.2,0.3,0.3,0.3c0.1,0,0.1,0,0.2-0.3l1.6-9.2
			c0.1-0.4,0.2-0.6,0.8-0.6h5.9C198.3,20.7,198.4,21,198.3,21.4z"/>
		<path class="st0" d="M219,21.4l-0.8,4.9c-0.1,0.4-0.2,0.6-0.8,0.6h-4.4l-3,17.2c-0.1,0.4-0.2,0.6-0.8,0.6h-6.3
			c-0.5,0-0.6-0.3-0.5-0.6l3-17.2h-4.5c-0.4,0-0.6-0.2-0.5-0.6l0.8-4.9c0.1-0.4,0.4-0.6,0.8-0.6h16.6C218.9,20.7,219.1,21,219,21.4z
			"/>
		<path class="st0" d="M229.4,21.4l-4,22.8c-0.1,0.4-0.2,0.6-0.8,0.6h-6.3c-0.5,0-0.6-0.3-0.6-0.6l4-22.8c0.1-0.4,0.3-0.6,0.8-0.6
			h6.3C229.3,20.7,229.5,21,229.4,21.4z"/>
		<path class="st0" d="M251.2,31.3l-0.6,3c-1.6,8.2-5.8,10.9-12.6,10.9c-3.5,0-5.9-0.3-7.9-0.6c-0.6-0.1-0.9-0.3-0.9-0.9
			c0-0.1,0-0.3,0-0.5l3.7-20.7c0.2-1,0.6-1.3,1.4-1.4c2.1-0.4,4.6-0.6,8.1-0.6c5.3,0,9.1,2.8,9.1,8.1
			C251.5,29.4,251.4,30.3,251.2,31.3z M241.3,26.9h-1.4l-2,11.6h1.4c2.3,0,3-0.7,3.7-4.3l0.6-3c0.2-0.9,0.3-1.6,0.3-2.2
			C243.8,27.4,243,26.9,241.3,26.9z"/>
		<path class="st0" d="M272.2,44.8h-6.7c-0.4,0-0.6-0.3-0.6-0.6l0-3.6H260l-1.2,3.6c-0.1,0.4-0.5,0.6-0.8,0.6h-6.8
			c-0.3,0-0.4-0.1-0.4-0.4c0-0.1,0-0.2,0.1-0.3l7.3-19.6c1.2-3.3,3.9-4.2,7.9-4.2c4,0,6.3,0.9,6.3,4.2l0.4,19.6v0
			C272.8,44.6,272.6,44.8,272.2,44.8z M265,26.6c-0.3,0-0.3,0.2-0.4,0.4l-2.5,7.6h3l0.1-7.6c0-0.1,0-0.1,0-0.2
			C265.2,26.7,265.2,26.6,265,26.6z"/>
		<path class="st0" d="M297.4,31.3l-0.6,3c-1.6,8.2-5.8,10.9-12.6,10.9c-3.5,0-5.9-0.3-7.9-0.6c-0.6-0.1-0.9-0.3-0.9-0.9
			c0-0.1,0-0.3,0-0.5l3.7-20.7c0.2-1,0.6-1.3,1.4-1.4c2.1-0.4,4.6-0.6,8.1-0.6c5.3,0,9.1,2.8,9.1,8.1
			C297.6,29.4,297.6,30.3,297.4,31.3z M287.4,26.9H286l-2,11.6h1.4c2.3,0,3-0.7,3.7-4.3l0.6-3c0.2-0.9,0.3-1.6,0.3-2.2
			C289.9,27.4,289.1,26.9,287.4,26.9z"/>
		<path class="st0" d="M327.7,31.3l-0.6,3c-1.6,8.2-5.8,10.9-12.6,10.9c-3.5,0-5.9-0.3-7.9-0.6c-0.6-0.1-0.9-0.3-0.9-0.9
			c0-0.1,0-0.3,0-0.5l3.7-20.7c0.2-1,0.6-1.3,1.4-1.4c2.1-0.4,4.6-0.6,8.1-0.6c5.3,0,9.1,2.8,9.1,8.1
			C328,29.4,327.9,30.3,327.7,31.3z M317.7,26.9h-1.4l-2,11.6h1.4c2.3,0,3-0.7,3.7-4.3l0.6-3c0.2-0.9,0.3-1.6,0.3-2.2
			C320.2,27.4,319.5,26.9,317.7,26.9z"/>
		<path class="st0" d="M348.3,21.4l-0.8,4.9c-0.1,0.4-0.2,0.6-0.8,0.6h-6.5c-0.8,0-1.1,0.2-1.2,1l-0.3,1.8h7.6
			c0.4,0,0.6,0.2,0.5,0.6l-0.8,4.6c-0.1,0.4-0.4,0.6-0.8,0.6h-7.6l-0.3,1.6c-0.1,0.5-0.1,0.6-0.1,0.8c0,0.5,0.3,0.6,0.9,0.6h6.5
			c0.4,0,0.6,0.2,0.5,0.6l-0.8,4.9c-0.1,0.4-0.2,0.6-0.8,0.6c-1.4,0.2-3.8,0.4-6.6,0.4c-4,0-7.6-1.4-7.6-5.8c0-0.6,0-1.1,0.2-1.8
			l1.7-9.6c1.3-7.3,6-7.6,10.1-7.6c2.8,0,5.1,0.2,6.5,0.4C348.1,20.8,348.3,21,348.3,21.4z"/>
		<path class="st0" d="M377.9,28.9l0,0.2c-1,7.2-7.3,8.5-11.9,8.5c-0.6,0-1,0-1.9-0.1l-1.2,6.7c-0.1,0.4-0.2,0.6-0.8,0.6h-6.3
			c-0.2,0-0.6-0.2-0.5-0.5l3.7-20.8c0.4-2,1-2.5,2.8-2.8c1.7-0.3,4.9-0.4,7.2-0.4c4.4,0,9.1,1.7,9.1,7
			C377.9,27.9,377.9,28.3,377.9,28.9z M367.9,26.8h-2l-0.8,4.4h2c1.7,0,3-0.7,3.1-2.1l0-0.2c0-0.1,0-0.3,0-0.4
			C370.3,27.3,369.4,26.8,367.9,26.8z"/>
		<path class="st0" d="M398.1,44.8h-6.7c-0.4,0-0.6-0.3-0.6-0.6l0-3.6h-4.9l-1.2,3.6c-0.1,0.4-0.5,0.6-0.8,0.6h-6.8
			c-0.3,0-0.4-0.1-0.4-0.4c0-0.1,0-0.2,0.1-0.3l7.3-19.6c1.2-3.3,3.9-4.2,7.9-4.2c4,0,6.3,0.9,6.3,4.2l0.4,19.6v0
			C398.7,44.6,398.4,44.8,398.1,44.8z M390.8,26.6c-0.3,0-0.3,0.2-0.4,0.4l-2.5,7.6h3l0.1-7.6c0-0.1,0-0.1,0-0.2
			C391.1,26.7,391,26.6,390.8,26.6z"/>
		<path class="st0" d="M418.9,35.4l3,8.5c0,0.1,0,0.2,0,0.3c0,0.4-0.2,0.7-0.7,0.7h-6.8c-0.4,0-0.4-0.3-0.5-0.6l-2.5-7.6h-1.2
			l-1.3,7.6c-0.1,0.4-0.2,0.6-0.8,0.6h-6.3c-0.4,0-0.6-0.2-0.6-0.6l3.6-20.6c0.4-2,1-2.5,2.8-2.8c1.1-0.2,4.9-0.4,7.2-0.4
			c5.9,0,9.3,2.1,9.3,6.7C424,30.3,422.4,34.1,418.9,35.4z M414.3,26.8h-2.4l-0.7,4.1h2.4c2.1,0,2.7-1.2,2.7-2.4
			C416.3,27.3,415.7,26.8,414.3,26.8z"/>
		<path class="st0" d="M445.8,21.4l-0.8,4.9c-0.1,0.4-0.2,0.6-0.8,0.6h-4.4l-3,17.2c-0.1,0.4-0.2,0.6-0.8,0.6h-6.3
			c-0.5,0-0.6-0.3-0.5-0.6l3-17.2h-4.5c-0.4,0-0.6-0.2-0.5-0.6l0.8-4.9c0.1-0.4,0.4-0.6,0.8-0.6h16.6
			C445.7,20.7,445.8,21,445.8,21.4z"/>
		<path class="st0" d="M456.2,21.4l-4,22.8c-0.1,0.4-0.2,0.6-0.8,0.6h-6.3c-0.5,0-0.6-0.3-0.6-0.6l4-22.8c0.1-0.4,0.3-0.6,0.8-0.6
			h6.3C456.1,20.7,456.3,21,456.2,21.4z"/>
		<path class="st0" d="M473.8,26.9c-0.1,0.5-0.3,0.6-0.7,0.6c-1-0.1-2.9-0.3-4.2-0.3c-1.3,0-2.7,0.3-3.4,4.3l-0.5,2.6
			c-0.2,0.9-0.2,1.6-0.2,2.1c0,2.1,1,2.2,2.1,2.2c1.3,0,3.3-0.2,4.3-0.3c0.6-0.1,0.6,0.2,0.5,0.6l-0.9,5.1c-0.1,0.4-0.2,0.5-0.8,0.7
			c-1.1,0.4-2.6,0.6-4.4,0.6c-5.9,0-8.8-3.1-8.8-8.1c0-0.9,0.1-1.9,0.3-3l0.5-2.6c1.5-8.2,5.3-11.1,12.1-11.1c1.8,0,3.5,0.3,4.3,0.6
			c0.4,0.1,0.6,0.3,0.6,0.7L473.8,26.9z"/>
		<path class="st0" d="M485.5,21.4l-4,22.8c-0.1,0.4-0.2,0.6-0.8,0.6h-6.3c-0.5,0-0.6-0.3-0.6-0.6l4-22.8c0.1-0.4,0.3-0.6,0.8-0.6
			h6.3C485.4,20.7,485.6,21,485.5,21.4z"/>
		<path class="st0" d="M507.8,28.9l0,0.2c-1,7.2-7.3,8.5-11.9,8.5c-0.6,0-1,0-1.9-0.1l-1.2,6.7c-0.1,0.4-0.2,0.6-0.8,0.6h-6.3
			c-0.2,0-0.6-0.2-0.5-0.5l3.7-20.8c0.4-2,1-2.5,2.8-2.8c1.7-0.3,4.9-0.4,7.2-0.4c4.4,0,9.1,1.7,9.1,7
			C507.9,27.9,507.9,28.3,507.8,28.9z M497.8,26.8h-2l-0.8,4.4h2c1.7,0,3-0.7,3.1-2.1l0-0.2c0-0.1,0-0.3,0-0.4
			C500.2,27.3,499.3,26.8,497.8,26.8z"/>
		<path class="st0" d="M528,44.8h-6.7c-0.4,0-0.6-0.3-0.6-0.6l0-3.6h-4.9l-1.2,3.6c-0.1,0.4-0.5,0.6-0.8,0.6h-6.8
			c-0.3,0-0.4-0.1-0.4-0.4c0-0.1,0-0.2,0.1-0.3l7.3-19.6c1.2-3.3,3.9-4.2,7.9-4.2c4,0,6.3,0.9,6.3,4.2l0.4,19.6v0
			C528.6,44.6,528.4,44.8,528,44.8z M520.8,26.6c-0.3,0-0.3,0.2-0.4,0.4l-2.5,7.6h3L521,27c0-0.1,0-0.1,0-0.2
			C521,26.7,521,26.6,520.8,26.6z"/>
		<path class="st0" d="M556.1,21.4l-3.9,22.3c-0.1,0.6-0.4,1.1-1.3,1.1h-5.5c-0.5,0-0.7-0.3-0.9-0.7l-3.8-8.9
			c-0.1-0.3-0.2-0.3-0.2-0.3c0,0,0,0,0,0c-0.1,0-0.2,0.1-0.2,0.3l-1.6,9c-0.1,0.4-0.2,0.6-0.8,0.6h-5.9c-0.4,0-0.6-0.2-0.6-0.6
			l3.9-22.3c0.1-0.6,0.5-1.1,1.3-1.1h5.3c0.6,0,0.9,0.5,1.1,0.9l3.9,9c0.1,0.3,0.2,0.3,0.3,0.3c0.1,0,0.1,0,0.2-0.3l1.6-9.2
			c0.1-0.4,0.2-0.6,0.8-0.6h5.9C556.1,20.7,556.2,21,556.1,21.4z"/>
		<path class="st0" d="M576.8,21.4l-0.8,4.9c-0.1,0.4-0.2,0.6-0.8,0.6h-4.4l-3,17.2c-0.1,0.4-0.2,0.6-0.8,0.6h-6.3
			c-0.5,0-0.6-0.3-0.5-0.6l3-17.2h-4.5c-0.4,0-0.6-0.2-0.5-0.6l0.8-4.9c0.1-0.4,0.4-0.6,0.8-0.6h16.6
			C576.7,20.7,576.8,21,576.8,21.4z"/>
		<path class="st0" d="M595.1,21.4l-0.8,4.9c-0.1,0.4-0.2,0.6-0.8,0.6h-6.5c-0.8,0-1.1,0.2-1.2,1l-0.3,1.8h7.6
			c0.4,0,0.6,0.2,0.5,0.6l-0.8,4.6c-0.1,0.4-0.4,0.6-0.8,0.6h-7.6l-0.3,1.6c-0.1,0.5-0.1,0.6-0.1,0.8c0,0.5,0.3,0.6,0.9,0.6h6.5
			c0.4,0,0.6,0.2,0.5,0.6l-0.8,4.9c-0.1,0.4-0.2,0.6-0.8,0.6c-1.4,0.2-3.8,0.4-6.6,0.4c-4,0-7.6-1.4-7.6-5.8c0-0.6,0-1.1,0.2-1.8
			l1.7-9.6c1.3-7.3,6-7.6,10.1-7.6c2.8,0,5.1,0.2,6.5,0.4C595,20.8,595.2,21,595.1,21.4z"/>
		<path class="st0" d="M615.1,22l-0.8,4.8c-0.1,0.4-0.2,0.7-0.7,0.6c-1.7-0.2-5.4-0.5-7.8-0.5c-0.4,0-0.8,0.2-0.8,0.6
			c0,0.3,0.2,0.5,1,1l4.2,2.4c2.2,1.3,3.1,3.3,3.1,5.3c0,6.3-5.4,9-11,9c-2.8,0-5.1-0.4-6.8-1c-0.3-0.1-0.6-0.3-0.6-0.6l0.8-4.8
			c0.1-0.4,0.2-0.7,0.8-0.6c1.3,0.1,4.7,0.6,6.9,0.6c0.7,0,1.4-0.3,1.4-1c0-0.4-0.2-0.7-0.7-1l-4.4-2.8c-2.1-1.4-2.8-3.6-2.8-5.4
			c0-6,4.6-7.9,10-7.9c2.8,0,6.4,0.5,7.7,0.9C614.9,21.4,615.2,21.5,615.1,22z"/>
	</g>
	<g>
		<path class="st1" d="M64.5,70.6L64.5,71c-0.3,1.4-0.9,2.2-2.2,2.9c0.8,0.6,1.2,1.5,1.2,2.4c0,0.1,0,0.1,0,0.2c0,0.1,0,0.3,0,0.4
			l-0.1,0.4c-0.4,3.1-2.5,4.2-5.6,4.2c-1.4,0-2.6-0.2-3.7-0.5c-0.2,0-0.3-0.2-0.3-0.3c0,0,0,0,0-0.1l0.2-1.2c0-0.2,0.2-0.4,0.4-0.4
			c0,0,0,0,0,0c1.5,0.1,2.8,0.3,3.7,0.3c1.5,0,2.4-0.8,2.6-2.1l0.1-0.4c0-0.2,0-0.4,0-0.6c0-0.8-0.3-1.4-1.5-1.4h-3.5
			c-0.2,0-0.3-0.1-0.3-0.3c0,0,0,0,0-0.1v0l0.2-1.2c0-0.2,0.2-0.4,0.4-0.4h3.5c1.3,0,1.9-0.7,2.1-1.9l0.1-0.3c0-0.2,0.1-0.4,0.1-0.6
			c0-0.8-0.4-1.3-1.9-1.3c-1.4,0-2,0.1-3.8,0.3c0,0,0,0,0,0c-0.2,0-0.3-0.1-0.3-0.3c0,0,0-0.1,0-0.1l0.2-1.2c0-0.2,0.2-0.3,0.4-0.4
			c1.2-0.3,2.4-0.5,3.8-0.5c2.3,0,4.3,1.1,4.3,3.2C64.6,70.1,64.6,70.4,64.5,70.6z"/>
		<path class="st1" d="M76.9,73.3l-0.3,1.4c-0.9,5-2.9,6.7-6.3,6.7c-2.5,0-4.1-1.6-4.1-4.7c0-0.6,0.1-1.3,0.2-2l0.3-1.4
			c0.9-5.2,3-6.7,6.3-6.7c2.5,0,4.1,1.4,4.1,4.6C77.1,71.8,77.1,72.5,76.9,73.3z M72.6,68.8c-1.3,0-2.5,1-3.2,4.5l-0.3,1.4
			c-0.1,0.8-0.2,1.5-0.2,2c0,1.9,0.8,2.5,1.8,2.5c1.3,0,2.5-0.9,3.2-4.5l0.3-1.4c0.1-0.8,0.2-1.5,0.2-2
			C74.4,69.4,73.7,68.8,72.6,68.8z"/>
		<path class="st1" d="M89.2,73.3L89,74.8c-0.9,5-2.9,6.7-6.3,6.7c-2.5,0-4.1-1.6-4.1-4.7c0-0.6,0.1-1.3,0.2-2l0.3-1.4
			c0.9-5.2,3-6.7,6.3-6.7c2.5,0,4.1,1.4,4.1,4.6C89.4,71.8,89.4,72.5,89.2,73.3z M84.9,68.8c-1.3,0-2.5,1-3.2,4.5l-0.3,1.4
			c-0.1,0.8-0.2,1.5-0.2,2c0,1.9,0.8,2.5,1.8,2.5c1.3,0,2.5-0.9,3.2-4.5l0.3-1.4c0.1-0.8,0.2-1.5,0.2-2C86.7,69.4,86,68.8,84.9,68.8
			z"/>
	</g>
	<g>
		<path class="st1" d="M61.6,166l-2,1.2c-2.3,1.4-2.8,1.9-3.2,3.8h6.2c0.2,0,0.4,0.1,0.3,0.4l-0.3,1.5c0,0.2-0.1,0.4-0.5,0.4h-8.3
			c-0.2,0-0.4-0.1-0.3-0.4l0.3-1.9c0.5-2.6,1.7-4,3.9-5.3l2.2-1.3c1.2-0.7,2.2-1.1,2.2-2.4c0-1-0.8-1.2-2.1-1.2
			c-1.2,0-2.8,0.2-3.9,0.3c-0.3,0-0.4-0.1-0.3-0.4l0.2-1.2c0-0.2,0.2-0.3,0.4-0.4c1.1-0.3,2.7-0.5,4-0.5c2.8,0,4.2,1,4.2,3
			C64.8,163.5,63.8,164.7,61.6,166z"/>
		<path class="st1" d="M76.9,165.1l-0.3,1.4c-0.9,5-2.9,6.7-6.3,6.7c-2.5,0-4.1-1.6-4.1-4.7c0-0.6,0.1-1.3,0.2-2l0.3-1.4
			c0.9-5.2,3-6.7,6.3-6.7c2.5,0,4.1,1.4,4.1,4.6C77.1,163.7,77.1,164.4,76.9,165.1z M72.6,160.6c-1.3,0-2.5,1-3.2,4.5l-0.3,1.4
			c-0.1,0.8-0.2,1.5-0.2,2c0,1.9,0.8,2.5,1.8,2.5c1.3,0,2.5-0.9,3.2-4.5l0.3-1.4c0.1-0.8,0.2-1.5,0.2-2
			C74.4,161.2,73.7,160.6,72.6,160.6z"/>
		<path class="st1" d="M89.2,165.1l-0.3,1.4c-0.9,5-2.9,6.7-6.3,6.7c-2.5,0-4.1-1.6-4.1-4.7c0-0.6,0.1-1.3,0.2-2l0.3-1.4
			c0.9-5.2,3-6.7,6.3-6.7c2.5,0,4.1,1.4,4.1,4.6C89.4,163.7,89.4,164.4,89.2,165.1z M84.9,160.6c-1.3,0-2.5,1-3.2,4.5l-0.3,1.4
			c-0.1,0.8-0.2,1.5-0.2,2c0,1.9,0.8,2.5,1.8,2.5c1.3,0,2.5-0.9,3.2-4.5l0.3-1.4c0.1-0.8,0.2-1.5,0.2-2
			C86.7,161.2,86,160.6,84.9,160.6z"/>
	</g>
	<g>
		<path class="st1" d="M54.5,264.4c-0.2,0-0.4-0.2-0.3-0.4l0.3-1.5c0-0.2,0.3-0.4,0.5-0.4h2.6l1.7-9.6l-2.7,0.8c-0.1,0-0.2,0-0.2,0
			c-0.1,0-0.2-0.1-0.2-0.2l0.3-1.8c0-0.1,0.1-0.2,0.2-0.2l3.7-1.1c0.1,0,0.3-0.1,0.5-0.1H62c0.2,0,0.3,0.2,0.3,0.4l-2.1,11.9h2.6
			c0.2,0,0.4,0.1,0.3,0.4l-0.3,1.5c0,0.2-0.2,0.4-0.4,0.4H54.5z"/>
		<path class="st1" d="M76.9,256.4l-0.3,1.4c-0.9,5-2.9,6.7-6.3,6.7c-2.5,0-4.1-1.6-4.1-4.7c0-0.6,0.1-1.3,0.2-2l0.3-1.4
			c0.9-5.2,3-6.7,6.3-6.7c2.5,0,4.1,1.4,4.1,4.6C77.1,255,77.1,255.7,76.9,256.4z M72.6,251.9c-1.3,0-2.5,1-3.2,4.5l-0.3,1.4
			c-0.1,0.8-0.2,1.5-0.2,2c0,1.9,0.8,2.5,1.8,2.5c1.3,0,2.5-0.9,3.2-4.5l0.3-1.4c0.1-0.8,0.2-1.5,0.2-2
			C74.4,252.5,73.7,251.9,72.6,251.9z"/>
		<path class="st1" d="M89.2,256.4l-0.3,1.4c-0.9,5-2.9,6.7-6.3,6.7c-2.5,0-4.1-1.6-4.1-4.7c0-0.6,0.1-1.3,0.2-2l0.3-1.4
			c0.9-5.2,3-6.7,6.3-6.7c2.5,0,4.1,1.4,4.1,4.6C89.4,255,89.4,255.7,89.2,256.4z M84.9,251.9c-1.3,0-2.5,1-3.2,4.5l-0.3,1.4
			c-0.1,0.8-0.2,1.5-0.2,2c0,1.9,0.8,2.5,1.8,2.5c1.3,0,2.5-0.9,3.2-4.5l0.3-1.4c0.1-0.8,0.2-1.5,0.2-2
			C86.7,252.5,86,251.9,84.9,251.9z"/>
	</g>
	<g>
		<path class="st1" d="M61.6,119.8l-2,1.2c-2.3,1.4-2.8,1.9-3.2,3.8h6.2c0.2,0,0.4,0.1,0.3,0.4l-0.3,1.5c0,0.2-0.1,0.4-0.5,0.4h-8.3
			c-0.2,0-0.4-0.1-0.3-0.4l0.3-1.9c0.5-2.6,1.7-4,3.9-5.3l2.2-1.3c1.2-0.7,2.2-1.1,2.2-2.4c0-1-0.8-1.2-2.1-1.2
			c-1.2,0-2.8,0.2-3.9,0.3c-0.3,0-0.4-0.1-0.3-0.4l0.2-1.2c0-0.2,0.2-0.3,0.4-0.4c1.1-0.3,2.7-0.5,4-0.5c2.8,0,4.2,1,4.2,3
			C64.8,117.4,63.8,118.5,61.6,119.8z"/>
		<path class="st1" d="M77,112.8l-0.3,1.5c0,0.2-0.2,0.4-0.4,0.4H71l-0.9,3.2h0.4c2.9,0,5.4,0.7,5.4,4c0,3-1.7,5.2-6,5.2
			c-1.2,0-2.6-0.2-3.7-0.5c-0.2-0.1-0.3-0.2-0.3-0.4l0.2-1.2c0-0.2,0.1-0.4,0.4-0.4c1.5,0.2,2.5,0.3,3.6,0.3c2.5,0,3-1.6,3-3
			c0-1.9-1.6-1.9-3.1-1.9h-2.6c-0.2,0-0.3-0.2-0.2-0.3l1.9-7c0.1-0.2,0.3-0.4,0.4-0.4h7.1C76.9,112.4,77,112.6,77,112.8
			C77,112.8,77,112.8,77,112.8L77,112.8z"/>
		<path class="st1" d="M89.2,119l-0.3,1.4c-0.9,5-2.9,6.7-6.3,6.7c-2.5,0-4.1-1.6-4.1-4.7c0-0.6,0.1-1.3,0.2-2L79,119
			c0.9-5.2,3-6.7,6.3-6.7c2.5,0,4.1,1.4,4.1,4.6C89.4,117.5,89.4,118.2,89.2,119z M84.9,114.5c-1.3,0-2.5,1-3.2,4.5l-0.3,1.4
			c-0.1,0.8-0.2,1.5-0.2,2c0,1.9,0.8,2.5,1.8,2.5c1.3,0,2.5-0.9,3.2-4.5l0.3-1.4c0.1-0.8,0.2-1.5,0.2-2
			C86.7,115.1,86,114.5,84.9,114.5z"/>
	</g>
	<g>
		<path class="st1" d="M54.5,218.8c-0.2,0-0.4-0.2-0.3-0.4l0.3-1.5c0-0.2,0.3-0.4,0.5-0.4h2.6l1.7-9.6l-2.7,0.8c-0.1,0-0.2,0-0.2,0
			c-0.1,0-0.2-0.1-0.2-0.2l0.3-1.8c0-0.1,0.1-0.2,0.2-0.2l3.7-1.1c0.1,0,0.3-0.1,0.5-0.1H62c0.2,0,0.3,0.2,0.3,0.4l-2.1,11.9h2.6
			c0.2,0,0.4,0.1,0.3,0.4l-0.3,1.5c0,0.2-0.2,0.4-0.4,0.4H54.5z"/>
		<path class="st1" d="M77,204.6l-0.3,1.5c0,0.2-0.2,0.4-0.4,0.4H71l-0.9,3.2h0.4c2.9,0,5.4,0.7,5.4,4c0,3-1.7,5.2-6,5.2
			c-1.2,0-2.6-0.2-3.7-0.5c-0.2-0.1-0.3-0.2-0.3-0.4l0.2-1.2c0-0.2,0.1-0.4,0.4-0.4c1.5,0.2,2.5,0.3,3.6,0.3c2.5,0,3-1.6,3-3
			c0-1.9-1.6-1.9-3.1-1.9h-2.6c-0.2,0-0.3-0.2-0.2-0.3l1.9-7c0.1-0.2,0.3-0.4,0.4-0.4h7.1C76.9,204.3,77,204.4,77,204.6
			C77,204.6,77,204.6,77,204.6L77,204.6z"/>
		<path class="st1" d="M89.2,210.8l-0.3,1.4c-0.9,5-2.9,6.7-6.3,6.7c-2.5,0-4.1-1.6-4.1-4.7c0-0.6,0.1-1.3,0.2-2l0.3-1.4
			c0.9-5.2,3-6.7,6.3-6.7c2.5,0,4.1,1.4,4.1,4.6C89.4,209.3,89.4,210,89.2,210.8z M84.9,206.3c-1.3,0-2.5,1-3.2,4.5l-0.3,1.4
			c-0.1,0.8-0.2,1.5-0.2,2c0,1.9,0.8,2.5,1.8,2.5c1.3,0,2.5-0.9,3.2-4.5l0.3-1.4c0.1-0.8,0.2-1.5,0.2-2
			C86.7,206.9,86,206.3,84.9,206.3z"/>
	</g>
	<g>
		<path class="st1" d="M70.9,295.9l-0.3,1.5c0,0.2-0.2,0.4-0.4,0.4h-5.3L64,301h0.4c2.9,0,5.4,0.7,5.4,4c0,3-1.7,5.2-6,5.2
			c-1.2,0-2.6-0.2-3.7-0.5c-0.2-0.1-0.3-0.2-0.3-0.4l0.2-1.2c0-0.2,0.1-0.4,0.4-0.4c1.5,0.2,2.5,0.3,3.6,0.3c2.5,0,3-1.6,3-3
			c0-1.9-1.6-1.9-3.1-1.9h-2.6c-0.2,0-0.3-0.2-0.2-0.3l1.9-7c0.1-0.2,0.3-0.4,0.4-0.4h7.1C70.7,295.5,70.9,295.7,70.9,295.9
			C70.9,295.9,70.9,295.9,70.9,295.9L70.9,295.9z"/>
		<path class="st1" d="M83.1,302.1l-0.3,1.4c-0.9,5-2.9,6.7-6.3,6.7c-2.5,0-4.1-1.6-4.1-4.7c0-0.6,0.1-1.3,0.2-2l0.3-1.4
			c0.9-5.2,3-6.7,6.3-6.7c2.5,0,4.1,1.4,4.1,4.6C83.3,300.6,83.2,301.3,83.1,302.1z M78.8,297.6c-1.3,0-2.5,1-3.2,4.5l-0.3,1.4
			c-0.1,0.8-0.2,1.5-0.2,2c0,1.9,0.8,2.5,1.8,2.5c1.3,0,2.5-0.9,3.2-4.5l0.3-1.4c0.1-0.8,0.2-1.5,0.2-2
			C80.6,298.2,79.8,297.6,78.8,297.6z"/>
	</g>
	<g>
		<path class="st1" d="M76.9,347.7l-0.3,1.4c-0.9,5-2.9,6.7-6.3,6.7c-2.5,0-4.1-1.6-4.1-4.7c0-0.6,0.1-1.3,0.2-2l0.3-1.4
			c0.9-5.2,3-6.7,6.3-6.7c2.5,0,4.1,1.4,4.1,4.6C77.1,346.2,77.1,347,76.9,347.7z M72.6,343.2c-1.3,0-2.5,1-3.2,4.5l-0.3,1.4
			c-0.1,0.8-0.2,1.5-0.2,2c0,1.9,0.8,2.5,1.8,2.5c1.3,0,2.5-0.9,3.2-4.5l0.3-1.4c0.1-0.8,0.2-1.5,0.2-2
			C74.4,343.8,73.7,343.2,72.6,343.2z"/>
	</g>
	<line class="st2" x1="694.7" y1="305.8" x2="103" y2="305.8"/>
	<line class="st2" x1="694.7" y1="349.6" x2="103" y2="349.6"/>
	<line class="st2" x1="694.7" y1="214.5" x2="103" y2="214.5"/>
	<line class="st2" x1="694.7" y1="122.7" x2="103" y2="122.7"/>
	<line class="st2" x1="694.7" y1="260.8" x2="103" y2="260.8"/>
	<line class="st2" x1="694.7" y1="169.5" x2="103" y2="169.5"/>
	<line class="st2" x1="694.7" y1="77.7" x2="103" y2="77.7"/>
	<rect x="22" y="15.5" class="st3" width="672.7" height="370.8"/>
	<rect x="145.5" y="231" class="st4" width="34.2" height="118.6"/>
	<rect x="264.9" y="182.2" class="st4" width="34.2" height="167.5"/>
	<rect x="381.7" y="158.2" class="st4" width="34.2" height="191.5"/>
	<rect x="498.6" y="118" class="st4" width="34.2" height="231.6"/>
	<rect x="619.5" y="172.4" class="st4" width="34.2" height="177.2"/>
	<g>
		<path class="st1" d="M140.1,371.4l-2,1.2c-2.3,1.4-2.8,1.9-3.2,3.8h6.2c0.2,0,0.4,0.1,0.3,0.4l-0.3,1.5c0,0.2-0.1,0.4-0.5,0.4
			h-8.3c-0.2,0-0.4-0.1-0.3-0.4l0.3-1.9c0.5-2.6,1.7-4,3.9-5.3l2.2-1.3c1.2-0.7,2.2-1.1,2.2-2.4c0-1-0.8-1.2-2.1-1.2
			c-1.2,0-2.8,0.2-3.9,0.3c-0.3,0-0.4-0.1-0.3-0.4l0.2-1.2c0-0.2,0.2-0.3,0.4-0.4c1.1-0.3,2.7-0.5,4-0.5c2.8,0,4.2,1,4.2,3
			C143.2,369,142.2,370.1,140.1,371.4z"/>
		<path class="st1" d="M155.4,370.6l-0.3,1.4c-0.9,5-2.9,6.7-6.3,6.7c-2.5,0-4.1-1.6-4.1-4.7c0-0.6,0.1-1.3,0.2-2l0.3-1.4
			c0.9-5.2,3-6.7,6.3-6.7c2.5,0,4.1,1.4,4.1,4.6C155.6,369.1,155.5,369.8,155.4,370.6z M151.1,366.1c-1.3,0-2.5,1-3.2,4.5l-0.3,1.4
			c-0.1,0.8-0.2,1.5-0.2,2c0,1.9,0.8,2.5,1.8,2.5c1.3,0,2.5-0.9,3.2-4.5l0.3-1.4c0.1-0.8,0.2-1.5,0.2-2
			C152.9,366.6,152.1,366.1,151.1,366.1z"/>
		<path class="st1" d="M157.6,378.5c-0.2,0-0.4-0.2-0.3-0.4l0.3-1.5c0-0.2,0.3-0.4,0.5-0.4h2.6l1.7-9.6l-2.7,0.8c-0.1,0-0.2,0-0.2,0
			c-0.1,0-0.2-0.1-0.2-0.2l0.3-1.8c0-0.1,0.1-0.2,0.2-0.2l3.7-1.1c0.1,0,0.3-0.1,0.5-0.1h1.3c0.2,0,0.3,0.2,0.3,0.4l-2.1,11.9h2.6
			c0.2,0,0.4,0.1,0.3,0.4l-0.3,1.5c0,0.2-0.2,0.4-0.4,0.4H157.6z"/>
		<path class="st1" d="M169.9,378.5c-0.2,0-0.4-0.2-0.3-0.4l0.3-1.5c0-0.2,0.3-0.4,0.5-0.4h2.6l1.7-9.6l-2.7,0.8c-0.1,0-0.2,0-0.2,0
			c-0.1,0-0.2-0.1-0.2-0.2l0.3-1.8c0-0.1,0.1-0.2,0.2-0.2l3.7-1.1c0.1,0,0.3-0.1,0.5-0.1h1.3c0.2,0,0.3,0.2,0.3,0.4l-2.1,11.9h2.6
			c0.2,0,0.4,0.1,0.3,0.4l-0.3,1.5c0,0.2-0.2,0.4-0.4,0.4H169.9z"/>
	</g>
	<g>
		<g>
			<path class="st5" d="M148.8,248.2c-0.2,0-0.3-0.1-0.3-0.3l0.2-1.2c0-0.2,0.2-0.3,0.4-0.3h2.1l1.3-7.6l-2.1,0.6
				c-0.1,0-0.1,0-0.2,0c-0.1,0-0.2,0-0.1-0.2l0.3-1.4c0-0.1,0-0.1,0.1-0.2l2.9-0.9c0.1,0,0.2-0.1,0.4-0.1h1c0.2,0,0.3,0.1,0.2,0.3
				l-1.6,9.4h2.1c0.2,0,0.3,0.1,0.2,0.3l-0.2,1.2c0,0.2-0.2,0.3-0.4,0.3H148.8z"/>
			<path class="st5" d="M166.4,239.9l0,0.2c-0.2,1.1-0.7,1.8-1.7,2.3c0.7,0.5,0.9,1.2,0.9,1.9c0,0,0,0.1,0,0.1c0,0.1,0,0.2,0,0.3
				l0,0.3c-0.4,2.4-2,3.3-4.4,3.3c-1.1,0-2-0.2-2.9-0.4c-0.1,0-0.2-0.1-0.2-0.2c0,0,0,0,0,0l0.2-1c0-0.2,0.2-0.3,0.3-0.3
				c0,0,0,0,0,0c1.2,0.1,2.2,0.2,2.9,0.2c1.2,0,1.9-0.7,2-1.6l0-0.3c0-0.2,0-0.3,0-0.5c0-0.6-0.2-1.1-1.2-1.1h-2.7
				c-0.2,0-0.2-0.1-0.2-0.2c0,0,0,0,0,0v0l0.2-1c0-0.2,0.2-0.3,0.3-0.3h2.7c1.1,0,1.5-0.6,1.7-1.5l0-0.2c0-0.2,0-0.3,0-0.4
				c0-0.6-0.4-1-1.5-1c-1.1,0-1.6,0.1-3,0.2c0,0,0,0,0,0c-0.1,0-0.2-0.1-0.2-0.2c0,0,0,0,0-0.1l0.2-1c0-0.2,0.2-0.3,0.3-0.3
				c0.9-0.2,1.9-0.4,3-0.4c1.8,0,3.4,0.8,3.4,2.5C166.4,239.5,166.4,239.7,166.4,239.9z"/>
			<path class="st5" d="M176.1,242l-0.2,1.1c-0.7,3.9-2.2,5.3-4.9,5.3c-2,0-3.2-1.2-3.2-3.7c0-0.5,0.1-1,0.2-1.6l0.2-1.1
				c0.7-4.1,2.4-5.3,4.9-5.3c2,0,3.2,1.1,3.2,3.6C176.3,240.8,176.2,241.4,176.1,242z M172.7,238.5c-1.1,0-2,0.8-2.5,3.5l-0.2,1.1
				c-0.1,0.6-0.2,1.2-0.2,1.6c0,1.5,0.6,1.9,1.4,1.9c1.1,0,2-0.7,2.5-3.5l0.2-1.1c0.1-0.6,0.2-1.2,0.2-1.6
				C174.2,238.9,173.6,238.5,172.7,238.5z"/>
		</g>
	</g>
	<g>
		<path class="st1" d="M384.3,371.4l-2,1.2c-2.3,1.4-2.8,1.9-3.2,3.8h6.2c0.2,0,0.4,0.1,0.3,0.4l-0.3,1.5c0,0.2-0.1,0.4-0.5,0.4
			h-8.3c-0.2,0-0.4-0.1-0.3-0.4l0.3-1.9c0.5-2.6,1.7-4,3.9-5.3l2.2-1.3c1.2-0.7,2.2-1.1,2.2-2.4c0-1-0.8-1.2-2.1-1.2
			c-1.2,0-2.8,0.2-3.9,0.3c-0.3,0-0.4-0.1-0.3-0.4l0.2-1.2c0-0.2,0.2-0.3,0.4-0.4c1.1-0.3,2.7-0.5,4-0.5c2.8,0,4.2,1,4.2,3
			C387.5,369,386.4,370.1,384.3,371.4z"/>
		<path class="st1" d="M399.6,370.6l-0.3,1.4c-0.9,5-2.9,6.7-6.3,6.7c-2.5,0-4.1-1.6-4.1-4.7c0-0.6,0.1-1.3,0.2-2l0.3-1.4
			c0.9-5.2,3-6.7,6.3-6.7c2.5,0,4.1,1.4,4.1,4.6C399.8,369.1,399.7,369.8,399.6,370.6z M395.3,366.1c-1.3,0-2.5,1-3.2,4.5l-0.3,1.4
			c-0.1,0.8-0.2,1.5-0.2,2c0,1.9,0.8,2.5,1.8,2.5c1.3,0,2.5-0.9,3.2-4.5l0.3-1.4c0.1-0.8,0.2-1.5,0.2-2
			C397.1,366.6,396.3,366.1,395.3,366.1z"/>
		<path class="st1" d="M401.8,378.5c-0.2,0-0.4-0.2-0.3-0.4l0.3-1.5c0-0.2,0.3-0.4,0.5-0.4h2.6l1.7-9.6l-2.7,0.8c-0.1,0-0.2,0-0.2,0
			c-0.1,0-0.2-0.1-0.2-0.2l0.3-1.8c0-0.1,0.1-0.2,0.2-0.2l3.7-1.1c0.1,0,0.3-0.1,0.5-0.1h1.3c0.2,0,0.3,0.2,0.3,0.4l-2.1,11.9h2.6
			c0.2,0,0.4,0.1,0.3,0.4l-0.3,1.5c0,0.2-0.2,0.4-0.4,0.4H401.8z"/>
		<path class="st1" d="M424.1,367.9l-0.1,0.3c-0.3,1.4-0.9,2.2-2.2,2.9c0.8,0.6,1.2,1.5,1.2,2.4c0,0.1,0,0.1,0,0.2
			c0,0.1,0,0.3,0,0.4l-0.1,0.4c-0.4,3.1-2.5,4.2-5.6,4.2c-1.4,0-2.6-0.2-3.7-0.5c-0.2,0-0.3-0.2-0.3-0.3c0,0,0,0,0-0.1l0.2-1.2
			c0-0.2,0.2-0.4,0.4-0.4c0,0,0,0,0,0c1.5,0.1,2.8,0.3,3.7,0.3c1.5,0,2.4-0.8,2.6-2.1l0.1-0.4c0-0.2,0-0.4,0-0.6
			c0-0.8-0.3-1.4-1.5-1.4h-3.5c-0.2,0-0.3-0.1-0.3-0.3c0,0,0,0,0-0.1v0l0.2-1.2c0-0.2,0.2-0.4,0.4-0.4h3.5c1.3,0,1.9-0.7,2.1-1.9
			l0.1-0.3c0-0.2,0.1-0.4,0.1-0.6c0-0.8-0.4-1.3-1.9-1.3c-1.4,0-2,0.1-3.8,0.3c0,0,0,0,0,0c-0.2,0-0.3-0.1-0.3-0.3c0,0,0-0.1,0-0.1
			l0.2-1.2c0-0.2,0.2-0.3,0.4-0.4c1.2-0.3,2.4-0.5,3.8-0.5c2.3,0,4.3,1.1,4.3,3.2C424.2,367.4,424.2,367.6,424.1,367.9z"/>
	</g>
	<g>
		<g>
			<path class="st5" d="M391,170.9l-1.5,0.9c-1.8,1.1-2.2,1.5-2.5,2.9h4.8c0.2,0,0.3,0.1,0.3,0.3l-0.2,1.2c0,0.2-0.1,0.3-0.4,0.3
				H385c-0.2,0-0.3-0.1-0.2-0.3l0.3-1.5c0.4-2.1,1.3-3.1,3-4.1l1.7-1c1-0.6,1.8-0.9,1.8-1.9c0-0.8-0.6-1-1.6-1
				c-0.9,0-2.2,0.2-3.1,0.2c-0.2,0-0.3-0.1-0.3-0.3l0.2-0.9c0-0.2,0.2-0.2,0.3-0.3c0.8-0.2,2.1-0.4,3.1-0.4c2.2,0,3.3,0.8,3.3,2.3
				C393.5,169,392.7,169.9,391,170.9z"/>
			<path class="st5" d="M395.1,176.5c-0.2,0-0.3-0.1-0.3-0.3l0.2-1.2c0-0.2,0.2-0.3,0.4-0.3h2.1l1.3-7.6l-2.1,0.6
				c-0.1,0-0.1,0-0.2,0c-0.1,0-0.2,0-0.1-0.2l0.3-1.4c0-0.1,0-0.1,0.1-0.2l2.9-0.9c0.1,0,0.2-0.1,0.4-0.1h1c0.2,0,0.3,0.1,0.2,0.3
				l-1.6,9.4h2.1c0.2,0,0.3,0.1,0.2,0.3l-0.2,1.2c0,0.2-0.2,0.3-0.4,0.3H395.1z"/>
			<path class="st5" d="M412.7,170.2l-0.2,1.1c-0.7,3.9-2.2,5.3-4.9,5.3c-2,0-3.2-1.2-3.2-3.7c0-0.5,0.1-1,0.2-1.6l0.2-1.1
				c0.7-4.1,2.4-5.3,4.9-5.3c2,0,3.2,1.1,3.2,3.6C412.9,169.1,412.8,169.6,412.7,170.2z M409.3,166.7c-1.1,0-2,0.8-2.5,3.5l-0.2,1.1
				c-0.1,0.6-0.2,1.2-0.2,1.6c0,1.5,0.6,1.9,1.4,1.9c1.1,0,2-0.7,2.5-3.5l0.2-1.1c0.1-0.6,0.2-1.2,0.2-1.6
				C410.7,167.2,410.1,166.7,409.3,166.7z"/>
		</g>
	</g>
	<g>
		<path class="st1" d="M267,371.4l-2,1.2c-2.3,1.4-2.8,1.9-3.2,3.8h6.2c0.2,0,0.4,0.1,0.3,0.4l-0.3,1.5c0,0.2-0.1,0.4-0.5,0.4h-8.3
			c-0.2,0-0.4-0.1-0.3-0.4l0.3-1.9c0.5-2.6,1.7-4,3.9-5.3l2.2-1.3c1.2-0.7,2.2-1.1,2.2-2.4c0-1-0.8-1.2-2.1-1.2
			c-1.2,0-2.8,0.2-3.9,0.3c-0.3,0-0.4-0.1-0.3-0.4l0.2-1.2c0-0.2,0.2-0.3,0.4-0.4c1.1-0.3,2.7-0.5,4-0.5c2.8,0,4.2,1,4.2,3
			C270.2,369,269.1,370.1,267,371.4z"/>
		<path class="st1" d="M282.3,370.6l-0.3,1.4c-0.9,5-2.9,6.7-6.3,6.7c-2.5,0-4.1-1.6-4.1-4.7c0-0.6,0.1-1.3,0.2-2l0.3-1.4
			c0.9-5.2,3-6.7,6.3-6.7c2.5,0,4.1,1.4,4.1,4.6C282.5,369.1,282.5,369.8,282.3,370.6z M278,366.1c-1.3,0-2.5,1-3.2,4.5l-0.3,1.4
			c-0.1,0.8-0.2,1.5-0.2,2c0,1.9,0.8,2.5,1.8,2.5c1.3,0,2.5-0.9,3.2-4.5l0.3-1.4c0.1-0.8,0.2-1.5,0.2-2
			C279.8,366.6,279,366.1,278,366.1z"/>
		<path class="st1" d="M284.5,378.5c-0.2,0-0.4-0.2-0.3-0.4l0.3-1.5c0-0.2,0.3-0.4,0.5-0.4h2.6l1.7-9.6l-2.7,0.8c-0.1,0-0.2,0-0.2,0
			c-0.1,0-0.2-0.1-0.2-0.2l0.3-1.8c0-0.1,0.1-0.2,0.2-0.2l3.7-1.1c0.1,0,0.3-0.1,0.5-0.1h1.3c0.2,0,0.3,0.2,0.3,0.4l-2.1,11.9h2.6
			c0.2,0,0.4,0.1,0.3,0.4l-0.3,1.5c0,0.2-0.2,0.4-0.4,0.4H284.5z"/>
		<path class="st1" d="M303.9,371.4l-2,1.2c-2.3,1.4-2.8,1.9-3.2,3.8h6.2c0.2,0,0.4,0.1,0.3,0.4l-0.3,1.5c0,0.2-0.1,0.4-0.5,0.4
			h-8.3c-0.2,0-0.4-0.1-0.3-0.4l0.3-1.9c0.5-2.6,1.7-4,3.9-5.3l2.2-1.3c1.2-0.7,2.2-1.1,2.2-2.4c0-1-0.8-1.2-2.1-1.2
			c-1.2,0-2.8,0.2-3.9,0.3c-0.3,0-0.4-0.1-0.3-0.4l0.2-1.2c0-0.2,0.2-0.3,0.4-0.4c1.1-0.3,2.7-0.5,4-0.5c2.8,0,4.2,1,4.2,3
			C307.1,369,306.1,370.1,303.9,371.4z"/>
	</g>
	<g>
		<g>
			<path class="st5" d="M267.9,200.9c-0.2,0-0.3-0.1-0.3-0.3l0.2-1.2c0-0.2,0.2-0.3,0.4-0.3h2.1l1.3-7.6l-2.1,0.6
				c-0.1,0-0.1,0-0.2,0c-0.1,0-0.2,0-0.1-0.2l0.3-1.4c0-0.1,0-0.1,0.1-0.2l2.9-0.9c0.1,0,0.2-0.1,0.4-0.1h1c0.2,0,0.3,0.1,0.2,0.3
				l-1.6,9.4h2.1c0.2,0,0.3,0.1,0.2,0.3l-0.2,1.2c0,0.2-0.2,0.3-0.4,0.3H267.9z"/>
			<path class="st5" d="M283.8,195c0.6,0.5,1,1.2,1,2c0,2.8-2,4-4.6,4H280c-1.7,0-3.4-0.9-3.4-2.7c0-1.7,0.8-2.8,1.9-3.4
				c-0.7-0.5-1-1.1-1-1.9c0-2.7,2-3.7,4.5-3.7h0.1c1.8,0,3.5,0.7,3.5,2.6C285.6,193.4,285,194.3,283.8,195z M281.3,195.8h-0.6
				c-1.3,0-2,1.1-2,2.2c0,0.9,0.4,1.4,1.6,1.4h0.2c1.5,0,2.2-1,2.2-2.3C282.7,196.5,282.4,195.8,281.3,195.8z M281.9,190.9h-0.1
				c-1.4,0-2.2,0.7-2.2,2.1c0,0.7,0.4,1.2,1.4,1.2h0.6c1.2,0,2-0.9,2-2C283.6,191.4,283.1,190.9,281.9,190.9z"/>
			<path class="st5" d="M295.1,196.8l-0.2,1.1c0,0.2-0.2,0.3-0.4,0.3h-1.1l-0.4,2.4c0,0.2-0.2,0.3-0.3,0.3H291
				c-0.1,0-0.2-0.1-0.2-0.2c0,0,0,0,0-0.1l0.4-2.4h-4.6c-0.2,0-0.3-0.1-0.3-0.3c0,0,0,0,0,0l0.2-1.2c0-0.2,0.1-0.3,0.3-0.5l5.8-6.3
				c0.1-0.2,0.3-0.3,0.5-0.3h1.4c0.2,0,0.2,0.1,0.2,0.2c0,0,0,0,0,0.1l-1.2,6.7h1.1C295,196.5,295.1,196.6,295.1,196.8
				C295.1,196.7,295.1,196.8,295.1,196.8z M292.2,192.5c0,0-0.1,0-0.1,0.1l-3.3,3.7c0,0-0.1,0.1-0.1,0.1c0,0,0,0.1,0.1,0.1h2.8
				L292.2,192.5C292.2,192.6,292.2,192.5,292.2,192.5C292.2,192.5,292.2,192.5,292.2,192.5z"/>
		</g>
	</g>
	<g>
		<path class="st1" d="M502.3,371.4l-2,1.2c-2.3,1.4-2.8,1.9-3.2,3.8h6.2c0.2,0,0.4,0.1,0.3,0.4l-0.3,1.5c0,0.2-0.1,0.4-0.5,0.4
			h-8.3c-0.2,0-0.4-0.1-0.3-0.4l0.3-1.9c0.5-2.6,1.7-4,3.9-5.3l2.2-1.3c1.2-0.7,2.2-1.1,2.2-2.4c0-1-0.8-1.2-2.1-1.2
			c-1.2,0-2.8,0.2-3.9,0.3c-0.3,0-0.4-0.1-0.3-0.4l0.2-1.2c0-0.2,0.2-0.3,0.4-0.4c1.1-0.3,2.7-0.5,4-0.5c2.8,0,4.2,1,4.2,3
			C505.5,369,504.4,370.1,502.3,371.4z"/>
		<path class="st1" d="M517.6,370.6l-0.3,1.4c-0.9,5-2.9,6.7-6.3,6.7c-2.5,0-4.1-1.6-4.1-4.7c0-0.6,0.1-1.3,0.2-2l0.3-1.4
			c0.9-5.2,3-6.7,6.3-6.7c2.5,0,4.1,1.4,4.1,4.6C517.8,369.1,517.8,369.8,517.6,370.6z M513.3,366.1c-1.3,0-2.5,1-3.2,4.5l-0.3,1.4
			c-0.1,0.8-0.2,1.5-0.2,2c0,1.9,0.8,2.5,1.8,2.5c1.3,0,2.5-0.9,3.2-4.5l0.3-1.4c0.1-0.8,0.2-1.5,0.2-2
			C515.1,366.6,514.3,366.1,513.3,366.1z"/>
		<path class="st1" d="M519.8,378.5c-0.2,0-0.4-0.2-0.3-0.4l0.3-1.5c0-0.2,0.3-0.4,0.5-0.4h2.6l1.7-9.6l-2.7,0.8c-0.1,0-0.2,0-0.2,0
			c-0.1,0-0.2-0.1-0.2-0.2l0.3-1.8c0-0.1,0.1-0.2,0.2-0.2l3.7-1.1c0.1,0,0.3-0.1,0.5-0.1h1.3c0.2,0,0.3,0.2,0.3,0.4l-2.1,11.9h2.6
			c0.2,0,0.4,0.1,0.3,0.4l-0.3,1.5c0,0.2-0.2,0.4-0.4,0.4H519.8z"/>
		<path class="st1" d="M542.1,373.3l-0.2,1.4c0,0.2-0.2,0.4-0.4,0.4h-1.4l-0.5,3.1c0,0.2-0.2,0.4-0.4,0.4h-2c-0.2,0-0.3-0.1-0.3-0.3
			c0,0,0-0.1,0-0.1l0.5-3.1h-5.9c-0.2,0-0.3-0.1-0.3-0.3c0,0,0,0,0-0.1l0.3-1.6c0-0.2,0.2-0.4,0.3-0.6l7.4-8.1
			c0.2-0.2,0.4-0.4,0.6-0.4h1.8c0.2,0,0.3,0.1,0.3,0.3c0,0,0,0.1,0,0.1l-1.5,8.5h1.4C542,372.9,542.1,373,542.1,373.3
			C542.1,373.2,542.1,373.3,542.1,373.3z M538.5,367.8c0,0-0.1,0.1-0.2,0.1l-4.3,4.8c-0.1,0.1-0.1,0.1-0.1,0.1c0,0.1,0,0.1,0.1,0.1
			h3.5l0.9-5C538.5,367.9,538.5,367.9,538.5,367.8C538.5,367.8,538.5,367.8,538.5,367.8z"/>
	</g>
	<g>
		<g>
			<path class="st5" d="M509,129.9l-1.5,0.9c-1.8,1.1-2.2,1.5-2.5,2.9h4.8c0.2,0,0.3,0.1,0.3,0.3l-0.2,1.2c0,0.2-0.1,0.3-0.4,0.3
				H503c-0.2,0-0.3-0.1-0.2-0.3l0.3-1.5c0.4-2.1,1.3-3.1,3-4.1l1.7-1c1-0.6,1.8-0.9,1.8-1.9c0-0.8-0.6-1-1.6-1
				c-0.9,0-2.2,0.2-3.1,0.2c-0.2,0-0.3-0.1-0.3-0.3l0.2-0.9c0-0.2,0.2-0.2,0.3-0.3c0.8-0.2,2.1-0.4,3.1-0.4c2.2,0,3.3,0.8,3.3,2.3
				C511.5,128,510.7,128.9,509,129.9z"/>
			<path class="st5" d="M521.1,124.4l-0.2,1.2c0,0.2-0.2,0.3-0.4,0.3h-4.2l-0.7,2.5h0.4c2.3,0,4.2,0.5,4.2,3.1
				c0,2.4-1.4,4.1-4.7,4.1c-0.9,0-2.1-0.2-2.9-0.4c-0.2-0.1-0.3-0.1-0.2-0.3l0.2-0.9c0-0.2,0.1-0.3,0.4-0.3c1.2,0.2,1.9,0.2,2.8,0.2
				c2,0,2.3-1.2,2.3-2.4c0-1.5-1.2-1.5-2.4-1.5h-2.1c-0.2,0-0.2-0.1-0.2-0.2l1.5-5.5c0-0.2,0.2-0.3,0.4-0.3h5.6
				C521,124.1,521.1,124.2,521.1,124.4C521.1,124.3,521.1,124.3,521.1,124.4L521.1,124.4z"/>
			<path class="st5" d="M530.8,124.4l-0.2,1.2c0,0.2-0.2,0.3-0.4,0.3h-4.2l-0.7,2.5h0.4c2.3,0,4.2,0.5,4.2,3.1
				c0,2.4-1.4,4.1-4.7,4.1c-0.9,0-2.1-0.2-2.9-0.4c-0.2-0.1-0.3-0.1-0.2-0.3l0.2-0.9c0-0.2,0.1-0.3,0.4-0.3c1.2,0.2,1.9,0.2,2.8,0.2
				c2,0,2.3-1.2,2.3-2.4c0-1.5-1.2-1.5-2.4-1.5h-2.1c-0.2,0-0.2-0.1-0.2-0.2l1.5-5.5c0-0.2,0.2-0.3,0.4-0.3h5.6
				C530.7,124.1,530.8,124.2,530.8,124.4C530.8,124.3,530.8,124.3,530.8,124.4L530.8,124.4z"/>
		</g>
	</g>
	<g>
		<path class="st1" d="M619.2,371.4l-2,1.2c-2.3,1.4-2.8,1.9-3.2,3.8h6.2c0.2,0,0.4,0.1,0.3,0.4l-0.3,1.5c0,0.2-0.1,0.4-0.5,0.4
			h-8.3c-0.2,0-0.4-0.1-0.3-0.4l0.3-1.9c0.5-2.6,1.7-4,3.9-5.3l2.2-1.3c1.2-0.7,2.2-1.1,2.2-2.4c0-1-0.8-1.2-2.1-1.2
			c-1.2,0-2.8,0.2-3.9,0.3c-0.3,0-0.4-0.1-0.3-0.4l0.2-1.2c0-0.2,0.2-0.3,0.4-0.4c1.1-0.3,2.7-0.5,4-0.5c2.8,0,4.2,1,4.2,3
			C622.4,369,621.4,370.1,619.2,371.4z"/>
		<path class="st1" d="M634.5,370.6l-0.3,1.4c-0.9,5-2.9,6.7-6.3,6.7c-2.5,0-4.1-1.6-4.1-4.7c0-0.6,0.1-1.3,0.2-2l0.3-1.4
			c0.9-5.2,3-6.7,6.3-6.7c2.5,0,4.1,1.4,4.1,4.6C634.7,369.1,634.7,369.8,634.5,370.6z M630.2,366.1c-1.3,0-2.5,1-3.2,4.5l-0.3,1.4
			c-0.1,0.8-0.2,1.5-0.2,2c0,1.9,0.8,2.5,1.8,2.5c1.3,0,2.5-0.9,3.2-4.5l0.3-1.4c0.1-0.8,0.2-1.5,0.2-2
			C632,366.6,631.3,366.1,630.2,366.1z"/>
		<path class="st1" d="M636.7,378.5c-0.2,0-0.4-0.2-0.3-0.4l0.3-1.5c0-0.2,0.3-0.4,0.5-0.4h2.6l1.7-9.6l-2.7,0.8c-0.1,0-0.2,0-0.2,0
			c-0.1,0-0.2-0.1-0.2-0.2l0.3-1.8c0-0.1,0.1-0.2,0.2-0.2l3.7-1.1c0.1,0,0.3-0.1,0.5-0.1h1.3c0.2,0,0.3,0.2,0.3,0.4l-2.1,11.9h2.6
			c0.2,0,0.4,0.1,0.3,0.4l-0.3,1.5c0,0.2-0.2,0.4-0.4,0.4H636.7z"/>
		<path class="st1" d="M659.3,364.4l-0.3,1.5c0,0.2-0.2,0.4-0.4,0.4h-5.3l-0.9,3.2h0.4c2.9,0,5.4,0.7,5.4,4c0,3-1.7,5.2-6,5.2
			c-1.2,0-2.6-0.2-3.7-0.5c-0.2-0.1-0.3-0.2-0.3-0.4l0.2-1.2c0-0.2,0.1-0.4,0.4-0.4c1.5,0.2,2.5,0.3,3.6,0.3c2.5,0,3-1.6,3-3
			c0-1.9-1.6-1.9-3.1-1.9h-2.6c-0.2,0-0.3-0.2-0.2-0.3l1.9-7c0.1-0.2,0.3-0.4,0.4-0.4h7.1C659.1,364,659.3,364.1,659.3,364.4
			C659.3,364.3,659.3,364.3,659.3,364.4L659.3,364.4z"/>
	</g>
	<g>
		<g>
			<path class="st5" d="M623.6,190.9c-0.2,0-0.3-0.1-0.3-0.3l0.2-1.2c0-0.2,0.2-0.3,0.4-0.3h2.1l1.3-7.6l-2.1,0.6
				c-0.1,0-0.1,0-0.2,0c-0.1,0-0.2,0-0.1-0.2l0.3-1.4c0-0.1,0-0.1,0.1-0.2l2.9-0.9c0.1,0,0.2-0.1,0.4-0.1h1c0.2,0,0.3,0.1,0.2,0.3
				l-1.6,9.4h2.1c0.2,0,0.3,0.1,0.2,0.3l-0.2,1.2c0,0.2-0.2,0.3-0.4,0.3H623.6z"/>
			<path class="st5" d="M633,190.7c-0.2,0-0.3-0.1-0.3-0.3l0.2-1c0-0.2,0.1-0.4,0.4-0.3c0.6,0.1,1.9,0.2,2.8,0.2
				c1.5,0,2.3-0.8,2.7-2.8c-0.5,0.1-1.3,0.2-1.9,0.2c-2.1,0-3.4-0.8-3.4-2.9c0-2.7,1.8-4.4,4.7-4.4c1.9,0,3.3,0.9,3.3,3.3
				c0,0.5,0,1-0.1,1.4l-0.3,1.8c-0.7,3.8-2.3,5.1-5.2,5.1C634.5,191,633.5,190.8,633,190.7z M637.3,185.2c0.4,0,1.3-0.1,1.7-0.2
				l0.2-0.9c0.1-0.6,0.2-1.1,0.2-1.4c0-1.4-0.5-1.7-1.6-1.7c-1.4,0-2.3,1-2.3,2.7C635.5,184.8,636.1,185.2,637.3,185.2z"/>
			<path class="st5" d="M651,179.7c0.2,0,0.3,0.1,0.3,0.3l-0.2,1c0,0.2-0.1,0.4-0.4,0.3c-0.6-0.1-1.9-0.2-2.8-0.2
				c-1.6,0-2.3,0.8-2.7,2.8c0.5-0.1,1.3-0.2,1.9-0.2c2.1,0,3.4,0.8,3.4,2.9c0,2.7-1.8,4.4-4.7,4.4c-1.9,0-3.3-1.1-3.3-3.5
				c0-0.4,0-0.8,0.1-1.3l0.3-1.8c0.7-3.8,2.3-5.1,5.2-5.1C649.5,179.4,650.5,179.6,651,179.7z M646.7,185.3c-0.4,0-1.3,0.1-1.7,0.2
				l-0.2,0.9c-0.1,0.6-0.2,1.1-0.2,1.3c0,1.6,0.6,1.8,1.6,1.8c1.4,0,2.3-1,2.3-2.7C648.5,185.7,647.9,185.3,646.7,185.3z"/>
		</g>
	</g>
</g>
</svg>
