<?xml version="1.0" encoding="utf-8"?>
<!-- Generator: Adobe Illustrator 20.1.0, SVG Export Plug-In . SVG Version: 6.00 Build 0)  -->
<svg version="1.1" id="Capa_1" xmlns="http://www.w3.org/2000/svg" xmlns:xlink="http://www.w3.org/1999/xlink" x="0px" y="0px"
	 viewBox="0 0 716.7 309.8" style="enable-background:new 0 0 716.7 309.8;" xml:space="preserve">
<style type="text/css">
	.st0{fill:#F000A6;}
	.st1{fill:#8D00D7;}
</style>
<g>
	<path class="st0" d="M493.9,233.8l3.2-18.2l-7.4,2.3c-0.4,0.1-0.6,0.2-0.8,0.2c-0.4,0-0.5-0.2-0.5-0.7l1.8-9.9
		c0.1-0.6,0.4-0.9,1-1.2l11.3-4c0.5-0.2,0.8-0.3,1.3-0.3h8.2c0.6,0,1.1,0.5,0.9,1.2l-5.4,30.6h7.1c0.6,0,1.1,0.5,1,1.2l-1.6,9.3
		c-0.1,0.6-0.8,1.2-1.4,1.2h-27.9c-0.6,0-1.2-0.5-1.1-1.2l1.6-9.3c0.1-0.6,0.8-1.2,1.5-1.2L493.9,233.8L493.9,233.8z"/>
	<path class="st0" d="M559.2,203.2l-1.5,8.6c-0.1,0.6-0.6,1.2-1.4,1.2h-15.9l-1.2,4.7h2.6c10.8,0,13.8,5.3,13.8,10.5
		c0,13-7.9,17.8-20.3,17.8c-4.3,0-8.5-0.8-11.7-2.2c-0.5-0.2-1.1-0.5-1.1-1c0-0.1,0-0.1,0-0.2l1.2-7c0.2-0.9,0.6-1.2,1.3-1.2
		c0.1,0,0.1,0,0.2,0c3.3,0.3,7.6,0.6,9.3,0.6c4,0,6.8-0.5,6.8-4.7c0-1.6-1-2.4-4.2-2.4h-10.7c-0.6,0-1.1-0.4-1.1-1.1
		c0-0.1,0-0.2,0.1-0.3l5.8-23.4c0.2-0.6,0.8-1.2,1.4-1.2h25.6c0.6,0,0.9,0.4,0.9,0.9C559.2,203,559.2,203.1,559.2,203.2L559.2,203.2
		z"/>
	<path class="st0" d="M597.6,220.5l-1.1,6.4c-2.3,13-9.3,19.1-20.1,19.1c-9.1,0-13.9-4.3-13.9-13.3c0-1.8,0.2-3.7,0.5-5.8l1.1-6.4
		c2.3-13,9.3-19.1,20.1-19.1c9,0,13.9,4.3,13.9,13.3C598.2,216.5,598,218.4,597.6,220.5z M582.2,213.2c-1.8,0-3.1,0.9-4.2,7.4
		l-1.1,6.4c-0.3,1.9-0.5,3.3-0.5,4.4c0,2.6,0.9,3,2.1,3c1.8,0,3.1-0.9,4.2-7.4l1.1-6.4c0.3-1.9,0.5-3.3,0.5-4.4
		C584.3,213.6,583.4,213.2,582.2,213.2z"/>
</g>
<g>
	<path class="st1" d="M77.9,123.5l-6.2,35.4H76c0.9,0,1.5,0.6,1.5,1.5c0,0.1,0,0.2,0,0.3l-2.1,12c-0.2,1-1.1,1.8-2.1,1.8H69
		L67.1,185c-0.2,1-1.1,1.8-2.1,1.8H47.9c-0.9,0-1.4-0.6-1.4-1.4c0-0.2,0-0.3,0-0.4l1.8-10.7H24.9c-0.9,0-1.4-0.6-1.4-1.4
		c0-0.2,0-0.3,0-0.4l1.9-11.4c0.2-0.9,0.6-1.7,1.3-2.5L62.3,122c0.3-0.3,0.8-0.4,1.2-0.4c0.3,0,0.5,0,0.8,0h12.2
		c0.9,0,1.4,0.6,1.4,1.4C77.9,123.2,77.9,123.4,77.9,123.5z M40.8,158.9H52l2.5-14.2L40.8,158.9z"/>
</g>
<g>
	<path class="st1" d="M101.7,158.4c0.5,0.1,0.9,0.3,0.8,0.9l-1.2,6.6c-0.1,0.5-0.6,1-1.2,1l0,0c-1.6,0-3.3-0.3-5.2-0.3
		c-2,0-2.8,1.3-3.3,4.1l-0.6,3.2c-0.1,0.7-0.2,1.4-0.2,1.9c0,1.5,0.6,2.2,2,2.2c1.9,0,3.7-0.2,5.3-0.3c0.9,0,1,0.4,0.9,1l-1.2,6.6
		c-0.1,0.6-0.6,0.8-1.2,0.9c-2,0.4-4.2,0.8-7,0.8c-6.8,0-9.8-4.3-9.8-10c0-1,0.1-2.1,0.3-3.2l0.6-3.2c1.6-9,6.2-13.2,14.2-13.2
		C97.9,157.6,100.4,158.1,101.7,158.4z"/>
	<path class="st1" d="M133.6,159.2l-4.7,26.7c-0.1,0.5-0.3,1-1.1,1h-8c-0.5,0-1-0.2-0.8-1l0.2-1.4c-2.3,1.6-4.1,2.8-8.1,2.8
		c-5.5,0-7.6-3.8-7.6-8.3c0-1,0.1-2,0.3-3l3-16.8c0.1-0.6,0.6-1.1,1.2-1.1h8.8c0.6,0,1,0.3,0.9,1.1l-2.8,16.1
		c-0.1,0.5-0.2,1.3-0.2,1.5c0,1.3,0.9,1.7,2.1,1.7c0.9,0,1.8-0.2,2.8-0.7l3.3-18.5c0.1-0.6,0.3-1.1,1.2-1.1h8.8
		C133.2,158.1,133.7,158.3,133.6,159.2z"/>
	<path class="st1" d="M155.2,157.6c0.8,0,1.2,0.2,1,1l-1.2,6.9c-0.1,0.5-0.2,1-1.1,1h-0.3c-3,0-4.5,0.2-5.6,0.8l-3.3,18.5
		c-0.1,0.6-0.3,1.1-1.2,1.1h-8.8c-0.6,0-1.1-0.2-0.9-1.1l4.7-26.7c0.1-0.5,0.3-1,1.1-1h7.7c0.6,0,1,0.3,0.8,1l-0.3,1.4
		c1.9-2.3,4.7-2.9,7-2.9H155.2z"/>
	<path class="st1" d="M180.9,159.9l-1.1,6.3c-0.1,0.7-0.2,1.2-1.2,1c-1.5-0.2-6.6-0.9-8.5-0.9c-0.4,0-1.1,0-1.1,0.5
		c0,0.4,0.1,0.5,1.1,1.1l3.8,2c4.3,2.3,4.9,4.8,4.9,7.4c0,7-5.8,9.8-14.3,9.8c-4.2,0-7.1-0.6-8.9-1.3c-0.6-0.2-0.8-0.5-0.7-1.1
		l1.1-6.1c0.1-0.8,0.4-1.3,1.5-1.1c3.2,0.5,6.6,0.9,8.3,0.9c0.8,0,1.9,0,1.9-1.1c0-0.3-0.1-0.5-0.9-1l-4.3-2.4
		c-2.9-1.6-4.3-3.8-4.3-6.9c0-7.8,6.3-9.7,13-9.7c3.6,0,7,0.7,9.1,1.3C180.8,159.1,181,159.3,180.9,159.9z"/>
	<path class="st1" d="M210,171.3l-0.4,2.2c-1.8,10.3-7.5,13.7-15.8,13.7c-7.3,0-11.2-3.9-11.2-10.4c0-1,0.1-2.1,0.3-3.3l0.4-2.2
		c1.8-10.2,7.5-13.7,15.8-13.7c7.2,0,11.3,3.6,11.3,10.3C210.3,168.9,210.2,170.1,210,171.3z M197.4,166.6c-1.7,0-2.8,1.4-3.4,4.8
		l-0.4,2.2c-0.1,0.9-0.2,1.7-0.2,2.3c0,1.9,0.7,2.5,2,2.5c1.7,0,2.7-1,3.4-4.8l0.4-2.2c0.1-0.9,0.2-1.7,0.2-2.3
		C199.4,167.1,198.7,166.6,197.4,166.6z"/>
	<path class="st1" d="M237.4,159.9l-1.1,6.3c-0.1,0.7-0.2,1.2-1.2,1c-1.5-0.2-6.6-0.9-8.5-0.9c-0.4,0-1.1,0-1.1,0.5
		c0,0.4,0.1,0.5,1.1,1.1l3.8,2c4.3,2.3,4.9,4.8,4.9,7.4c0,7-5.8,9.8-14.3,9.8c-4.2,0-7.1-0.6-8.9-1.3c-0.6-0.2-0.8-0.5-0.7-1.1
		l1.1-6.1c0.1-0.8,0.4-1.3,1.5-1.1c3.2,0.5,6.6,0.9,8.3,0.9c0.8,0,1.9,0,1.9-1.1c0-0.3-0.1-0.5-0.9-1l-4.3-2.4
		c-2.9-1.6-4.3-3.8-4.3-6.9c0-7.8,6.3-9.7,13-9.7c3.6,0,7,0.7,9.1,1.3C237.2,159.1,237.5,159.3,237.4,159.9z"/>
</g>
<g>
	<path class="st1" d="M407.5,169.4l4.7-27.2l-11,3.4c-0.5,0.2-0.9,0.3-1.1,0.3c-0.6,0-0.8-0.3-0.7-1L402,130
		c0.2-0.9,0.6-1.4,1.5-1.8l17-6c0.7-0.3,1.2-0.4,2-0.4h12.3c1,0,1.6,0.8,1.4,1.8l-8.1,45.9h10.6c1,0,1.7,0.8,1.5,1.8l-2.5,13.9
		c-0.2,1-1.1,1.8-2.1,1.8h-41.8c-1,0-1.8-0.8-1.6-1.8l2.5-13.9c0.2-1,1.2-1.8,2.2-1.8h10.6V169.4z"/>
	<path class="st1" d="M505.5,138.8c-1.7,9.5-8.1,14.5-18.6,20.1c-7,3.7-12.5,6.7-14.9,10.5h25.1c0.9,0,1.6,0.6,1.6,1.5
		c0,0.1,0,0.2,0,0.3l-2.5,13.9c-0.2,1-1.2,1.8-2.2,1.8h-42.6c-0.9,0-1.5-0.6-1.5-1.5c0-0.1,0-0.2,0-0.3l1.7-9.6
		c2.4-13.7,11.3-20.7,20.7-26.4c10.9-6.6,11.8-6.4,12.4-9.2c0-0.3,0.1-0.5,0.1-0.7c0-1.3-1.1-1.9-6.9-1.9c-5.7,0-11.6,0.9-17.1,0.9
		h-0.1c-0.8,0-1.3-0.6-1.3-1.4c0-0.1,0-0.2,0-0.3v-0.1l1.8-10.1c0.2-1,1.1-1.4,2-1.8c6-2.1,13.5-3.7,21.5-3.7
		c15.5,0,21.2,6.3,21.2,14.5C505.9,136.4,505.7,137.6,505.5,138.8z"/>
</g>
<g>
	<path class="st1" d="M527.4,158.4c0.5,0.1,0.9,0.3,0.8,0.9L527,166c-0.1,0.5-0.6,1-1.2,1l0,0c-1.6,0-3.3-0.3-5.2-0.3
		c-2,0-2.8,1.3-3.3,4.1l-0.6,3.2c-0.1,0.7-0.2,1.4-0.2,1.9c0,1.5,0.6,2.2,2,2.2c1.9,0,3.7-0.2,5.3-0.3c0.9,0,1,0.4,0.9,1l-1.2,6.6
		c-0.1,0.6-0.6,0.8-1.2,0.9c-2,0.4-4.2,0.8-7,0.8c-6.8,0-9.8-4.3-9.8-10c0-1,0.1-2.1,0.3-3.2l0.6-3.2c1.6-9,6.2-13.2,14.2-13.2
		C523.5,157.6,526.1,158.1,527.4,158.4z"/>
	<path class="st1" d="M559.2,159.2l-4.7,26.7c-0.1,0.5-0.3,1-1.1,1h-8c-0.5,0-1-0.2-0.8-1l0.2-1.4c-2.3,1.6-4.1,2.8-8.1,2.8
		c-5.5,0-7.6-3.8-7.6-8.3c0-1,0.1-2,0.3-3l3-16.8c0.1-0.6,0.6-1.1,1.2-1.1h8.8c0.6,0,1,0.3,0.9,1.1l-2.8,16.1
		c-0.1,0.5-0.2,1.3-0.2,1.5c0,1.3,0.9,1.7,2.1,1.7c0.9,0,1.8-0.2,2.8-0.7l3.3-18.5c0.1-0.6,0.3-1.1,1.2-1.1h8.8
		C558.8,158.1,559.3,158.3,559.2,159.2z"/>
	<path class="st1" d="M580.8,157.6c0.8,0,1.2,0.2,1,1l-1.2,6.9c-0.1,0.5-0.2,1-1.1,1h-0.3c-3,0-4.5,0.2-5.6,0.8l-3.3,18.5
		c-0.1,0.6-0.3,1.1-1.2,1.1h-8.8c-0.6,0-1.1-0.2-0.9-1.1l4.7-26.7c0.1-0.5,0.3-1,1.1-1h7.7c0.6,0,1,0.3,0.8,1l-0.3,1.4
		c1.9-2.3,4.7-2.9,7-2.9H580.8z"/>
	<path class="st1" d="M606.5,159.9l-1.1,6.3c-0.1,0.7-0.2,1.2-1.2,1c-1.5-0.2-6.6-0.9-8.5-0.9c-0.4,0-1.1,0-1.1,0.5
		c0,0.4,0.1,0.5,1.1,1.1l3.8,2c4.3,2.3,4.9,4.8,4.9,7.4c0,7-5.8,9.8-14.3,9.8c-4.2,0-7.1-0.6-8.9-1.3c-0.6-0.2-0.8-0.5-0.7-1.1
		l1.1-6.1c0.1-0.8,0.4-1.3,1.5-1.1c3.2,0.5,6.6,0.9,8.3,0.9c0.8,0,1.9,0,1.9-1.1c0-0.3-0.1-0.5-0.9-1l-4.3-2.4
		c-2.9-1.6-4.3-3.8-4.3-6.9c0-7.8,6.3-9.7,13-9.7c3.6,0,7,0.7,9.1,1.3C606.4,159.1,606.6,159.3,606.5,159.9z"/>
	<path class="st1" d="M635.6,171.3l-0.4,2.2c-1.8,10.3-7.5,13.7-15.8,13.7c-7.3,0-11.2-3.9-11.2-10.4c0-1,0.1-2.1,0.3-3.3l0.4-2.2
		c1.8-10.2,7.5-13.7,15.8-13.7c7.2,0,11.3,3.6,11.3,10.3C635.9,168.9,635.8,170.1,635.6,171.3z M623,166.6c-1.7,0-2.8,1.4-3.4,4.8
		l-0.4,2.2c-0.1,0.9-0.2,1.7-0.2,2.3c0,1.9,0.7,2.5,2,2.5c1.7,0,2.7-1,3.4-4.8l0.4-2.2c0.1-0.9,0.2-1.7,0.2-2.3
		C625,167.1,624.3,166.6,623,166.6z"/>
	<path class="st1" d="M663,159.9l-1.1,6.3c-0.1,0.7-0.2,1.2-1.2,1c-1.5-0.2-6.6-0.9-8.5-0.9c-0.4,0-1.1,0-1.1,0.5
		c0,0.4,0.1,0.5,1.1,1.1l3.8,2c4.3,2.3,4.9,4.8,4.9,7.4c0,7-5.8,9.8-14.3,9.8c-4.2,0-7.1-0.6-8.9-1.3c-0.6-0.2-0.8-0.5-0.7-1.1
		l1.1-6.1c0.1-0.8,0.4-1.3,1.5-1.1c3.2,0.5,6.6,0.9,8.3,0.9c0.8,0,1.9,0,1.9-1.1c0-0.3-0.1-0.5-0.9-1l-4.3-2.4
		c-2.9-1.6-4.3-3.8-4.3-6.9c0-7.8,6.3-9.7,13-9.7c3.6,0,7,0.7,9.1,1.3C662.8,159.1,663.1,159.3,663,159.9z"/>
</g>
<g>
	<path class="st0" d="M45.3,22.3c-0.1,0.6-0.4,0.9-1,0.8c-1.4-0.2-4-0.4-5.9-0.4c-1.8,0-3.7,0.4-4.7,6L33,32.4
		c-0.2,1.2-0.3,2.2-0.3,2.9c0,2.9,1.4,3.1,3,3.1c1.8,0,4.6-0.3,6.1-0.4c0.8-0.1,0.8,0.3,0.7,0.8L41.1,46c-0.1,0.6-0.3,0.7-1.1,1
		c-1.5,0.5-3.6,0.9-6.1,0.9c-8.3,0-12.2-4.3-12.2-11.3c0-1.3,0.1-2.7,0.4-4.1l0.7-3.7c2.1-11.5,7.4-15.4,16.9-15.4
		c2.5,0,4.8,0.4,6.1,0.9c0.5,0.2,0.9,0.4,0.8,1L45.3,22.3z"/>
	<path class="st0" d="M74.2,21.7l-4.4,24.8c-0.1,0.5-0.3,0.9-1,0.9h-7.5c-0.5,0-0.9-0.2-0.8-0.9l0.2-1.3c-2.1,1.5-3.8,2.6-7.5,2.6
		c-5.2,0-7.1-3.6-7.1-7.7c0-0.9,0.1-1.9,0.3-2.8l2.8-15.7c0.1-0.5,0.6-1,1.1-1h8.1c0.6,0,0.9,0.3,0.8,1l-2.6,14.9
		c-0.1,0.5-0.2,1.2-0.2,1.4c0,1.2,0.8,1.6,1.9,1.6c0.8,0,1.7-0.2,2.6-0.7l3-17.2c0.1-0.5,0.3-1,1.1-1h8.1
		C73.9,20.7,74.3,20.8,74.2,21.7z"/>
	<path class="st0" d="M94.3,20.2c0.8,0,1.1,0.2,1,0.9l-1.1,6.4c-0.1,0.5-0.2,0.9-1,0.9h-0.3c-2.8,0-4.2,0.2-5.2,0.8l-3,17.2
		c-0.1,0.5-0.3,1-1.1,1h-8.1c-0.5,0-1-0.2-0.9-1L79,21.6c0.1-0.5,0.3-0.9,1-0.9h7.1c0.5,0,0.9,0.3,0.8,0.9l-0.3,1.3
		c1.8-2.1,4.4-2.7,6.5-2.7H94.3z"/>
	<path class="st0" d="M118.2,22.4l-1,5.9c-0.1,0.6-0.2,1.1-1.1,0.9c-1.4-0.2-6.2-0.8-7.9-0.8c-0.4,0-1,0-1,0.5c0,0.4,0.1,0.5,1,1
		l3.6,1.9c4,2.1,4.5,4.5,4.5,6.9c0,6.5-5.4,9.1-13.3,9.1c-3.9,0-6.6-0.6-8.2-1.2c-0.6-0.2-0.8-0.5-0.7-1l1-5.7
		c0.1-0.7,0.4-1.2,1.4-1c2.9,0.5,6.1,0.9,7.7,0.9c0.7,0,1.8,0,1.8-1c0-0.3-0.1-0.5-0.9-0.9l-4-2.2c-2.7-1.5-4-3.6-4-6.4
		c0-7.2,5.9-9,12.1-9c3.3,0,6.5,0.7,8.4,1.2C118.1,21.6,118.3,21.8,118.2,22.4z"/>
	<path class="st0" d="M145.2,33l-0.4,2.1c-1.7,9.6-7,12.8-14.7,12.8c-6.8,0-10.4-3.6-10.4-9.7c0-0.9,0.1-2,0.3-3.1l0.4-2.1
		c1.6-9.5,7-12.8,14.7-12.8c6.7,0,10.5,3.3,10.5,9.5C145.5,30.8,145.4,31.8,145.2,33z M133.5,28.5c-1.5,0-2.6,1.3-3.2,4.4L130,35
		c-0.1,0.9-0.2,1.5-0.2,2.1c0,1.8,0.7,2.3,1.9,2.3c1.5,0,2.5-0.9,3.2-4.4l0.4-2.1c0.1-0.9,0.2-1.5,0.2-2.1
		C135.4,29.1,134.7,28.5,133.5,28.5z"/>
	<path class="st0" d="M170.7,22.4l-1,5.9c-0.1,0.6-0.2,1.1-1.1,0.9c-1.4-0.2-6.2-0.8-7.9-0.8c-0.4,0-1,0-1,0.5c0,0.4,0.1,0.5,1,1
		l3.6,1.9c4,2.1,4.5,4.5,4.5,6.9c0,6.5-5.4,9.1-13.3,9.1c-3.9,0-6.6-0.6-8.2-1.2c-0.6-0.2-0.8-0.5-0.7-1l1-5.7
		c0.1-0.7,0.4-1.2,1.4-1c2.9,0.5,6.1,0.9,7.7,0.9c0.7,0,1.8,0,1.8-1c0-0.3-0.1-0.5-0.9-0.9l-4-2.2c-2.7-1.5-4-3.6-4-6.4
		c0-7.2,5.9-9,12.1-9c3.3,0,6.5,0.7,8.4,1.2C170.6,21.6,170.8,21.8,170.7,22.4z"/>
	<path class="st0" d="M210.8,12.1c0.5,0,1,0.2,0.9,1l-5.7,32c-0.1,0.8-0.5,1.3-2.1,1.6c-2.2,0.4-6.2,1.1-10.9,1.1
		c-6.6,0-10.5-4.2-10.5-9.8c0-0.7,0.1-1.5,0.2-2.3l0.6-3.5c1.5-8.6,6.2-12,14.1-12c1,0,2.3,0.1,2.9,0.3l1.3-7.4c0.1-0.5,0.3-1,1-1
		C202.6,12.1,210.8,12.1,210.8,12.1z M196.4,28.5c-1.9,0-2.6,1.1-3,3.7l-0.6,3.5c-0.1,0.7-0.2,1.2-0.2,1.7c0,1.4,0.5,2,1.9,2
		c1.2,0,1.6,0,2.4-0.1l1.9-10.7C198.2,28.6,197.5,28.5,196.4,28.5z"/>
	<path class="st0" d="M236.6,32.9l-0.5,2.8c-0.1,0.5-0.6,1-1.1,1h-13.7c0,0.4-0.1,0.7-0.1,1c0,1.4,0.9,1.9,3.5,1.9
		c1.9,0,6.9-0.2,8.6-0.3c0.7,0,1,0.1,0.9,0.8l-0.9,4.8c-0.1,0.8-0.4,1-1.1,1.3c-2.5,0.9-7,1.7-10.7,1.7c-5.8,0-10.3-3.2-10.3-9.4
		c0-0.9,0.1-1.8,0.3-2.7L212,33c1.7-9.4,7.1-12.7,14.8-12.7c7.1,0,10,4.2,10,9.6C236.9,30.8,236.8,31.9,236.6,32.9z M225.4,27.8
		c-1.9,0-2.7,1.2-3.2,3.8h5.1c0.1-0.6,0.2-1.1,0.2-1.5C227.5,28.6,226.9,27.8,225.4,27.8z"/>
</g>
<g>
	<path class="st0" d="M41.3,63.3c0.5,0.1,0.8,0.3,0.7,0.9l-1.1,6.2c-0.1,0.5-0.6,1-1.1,1l0,0c-1.4,0-3-0.3-4.8-0.3
		c-1.9,0-2.6,1.2-3.1,3.8l-0.5,3c-0.1,0.7-0.2,1.3-0.2,1.8c0,1.4,0.5,2,1.9,2c1.8,0,3.5-0.2,4.9-0.3c0.8,0,1,0.4,0.9,1l-1.1,6.2
		c-0.1,0.5-0.5,0.7-1.1,0.9c-1.9,0.4-3.9,0.8-6.5,0.8c-6.3,0-9.1-4-9.1-9.3c0-1,0.1-1.9,0.3-3l0.5-3c1.5-8.3,5.8-12.3,13.2-12.3
		C37.7,62.5,40.1,63,41.3,63.3z"/>
	<path class="st0" d="M70.2,65.2l-4.1,23.6c-0.1,0.5-0.3,0.9-0.9,0.9h-6.5c-0.8,0-1-0.4-0.9-0.9l0.2-1.3c-2.1,1.8-3.8,2.6-7.4,2.6
		c-4.9,0-8-3.1-8-8.3c0-1.5,0.1-2.3,0.2-3.1l0.7-4.2c1.7-9.8,7.3-12,14.7-12c3.4,0,7,0.5,10.4,1.1C69.7,63.8,70.4,64.1,70.2,65.2z
		 M57.2,70.8c-1.9,0-2.9,0.7-3.5,3.7l-0.8,4.4c-0.1,0.5-0.1,1-0.1,1.3c0,1.4,0.6,1.6,1.8,1.6c0.9,0,2-0.4,2.8-0.7L59.1,71
		C58.4,70.9,57.7,70.8,57.2,70.8z"/>
	<path class="st0" d="M98,74.6l-0.6,3.5c-1.4,8.1-6.2,12-14.5,12c-0.5,0-1.8-0.1-2.4-0.3l-1.3,7.4c-0.1,0.5-0.5,1-1,1H70
		c-0.5,0-1-0.2-0.9-1l5.7-32.1c0.1-0.8,0.5-1.3,2.1-1.6c2.2-0.4,6.2-1.1,10.9-1.1c6.6,0,10.5,3.8,10.5,9.5
		C98.2,72.9,98.2,73.7,98,74.6z M86.2,70.8c-1.2,0-1.6,0-2.4,0.1l-1.9,10.7c0.7,0,1.4,0.1,2.4,0.1c1.9,0,2.6-1.2,3-3.7l0.6-3.5
		c0.1-0.6,0.2-1.2,0.2-1.7C88.2,71.5,87.6,70.8,86.2,70.8z"/>
	<path class="st0" d="M128,65.2l-4.1,23.6c-0.1,0.5-0.3,0.9-0.9,0.9h-6.5c-0.8,0-1-0.4-0.9-0.9l0.2-1.3c-2.1,1.8-3.8,2.6-7.4,2.6
		c-4.9,0-8-3.1-8-8.3c0-1.5,0.1-2.3,0.2-3.1l0.7-4.2c1.7-9.8,7.3-12,14.7-12c3.4,0,7,0.5,10.4,1.1C127.6,63.8,128.2,64.1,128,65.2z
		 M115,70.8c-1.9,0-2.9,0.7-3.5,3.7l-0.8,4.4c-0.1,0.5-0.1,1-0.1,1.3c0,1.4,0.6,1.6,1.8,1.6c0.9,0,2-0.4,2.8-0.7l1.8-10.2
		C116.2,70.9,115.5,70.8,115,70.8z"/>
	<path class="st0" d="M149.7,63.3c0.5,0.1,0.8,0.3,0.7,0.9l-1.1,6.2c-0.1,0.5-0.6,1-1.1,1l0,0c-1.4,0-3-0.3-4.8-0.3
		c-1.9,0-2.6,1.2-3.1,3.8l-0.5,3c-0.1,0.7-0.2,1.3-0.2,1.8c0,1.4,0.5,2,1.9,2c1.8,0,3.5-0.2,4.9-0.3c0.8,0,1,0.4,0.9,1l-1.1,6.2
		c-0.1,0.5-0.5,0.7-1.1,0.9c-1.9,0.4-3.9,0.8-6.5,0.8c-6.3,0-9.1-4-9.1-9.3c0-1,0.1-1.9,0.3-3l0.5-3c1.5-8.3,5.8-12.3,13.2-12.3
		C146,62.5,148.4,63,149.7,63.3z"/>
	<path class="st0" d="M150.1,88.7l4.3-24.7c0.1-0.5,0.4-1,1.2-1h8.1c0.9,0,0.9,0.4,0.8,1l-4.3,24.7c-0.1,0.5-0.4,1-1.2,1h-8.1
		C150.4,89.7,150,89.2,150.1,88.7z M165.4,54.4c0.5,0,1,0.1,0.9,1l-0.8,4.6c-0.1,0.5-0.4,1-1.2,1h-8.5c-0.8,0-1-0.5-0.9-1l0.8-4.6
		c0.1-0.5,0.4-1,1.2-1H165.4z"/>
	<path class="st0" d="M184.7,63c0.8,0,1.1,0.2,1,1l-1,5.5c-0.1,0.5-0.3,1-1.1,1h-3.3l-1.9,11.1c0,0.3-0.1,0.5-0.1,0.7
		c0,0.5,0.2,0.6,0.8,0.6h2.2c0.6,0,0.9,0.1,0.8,1l-0.9,4.9c-0.1,0.5-0.2,0.9-1.1,1c-1.9,0.3-2.8,0.5-4.9,0.5c-3.2,0-7.1-1.3-7.1-6.6
		c0-0.7,0.1-1.4,0.2-2.3l1.9-10.9l-2.5-0.5c-0.5-0.1-1-0.3-0.8-1l0.9-5c0.1-0.5,0.4-1,1.2-1h2.6l0.6-3.7c0.1-0.5,0.3-0.8,1.2-0.9
		l8.1-1.4c1-0.1,1.3,0.2,1.1,0.9l-0.9,5.1L184.7,63L184.7,63z"/>
	<path class="st0" d="M213.4,65.2l-4.1,23.6c-0.1,0.5-0.3,0.9-0.9,0.9h-6.5c-0.8,0-1-0.4-0.9-0.9l0.2-1.3c-2.1,1.8-3.8,2.6-7.4,2.6
		c-4.9,0-8-3.1-8-8.3c0-1.5,0.1-2.3,0.2-3.1l0.7-4.2c1.7-9.8,7.3-12,14.7-12c3.4,0,7,0.5,10.4,1.1C212.9,63.8,213.5,64.1,213.4,65.2
		z M200.3,70.8c-1.9,0-2.9,0.7-3.5,3.7l-0.8,4.4c-0.1,0.5-0.1,1-0.1,1.3c0,1.4,0.6,1.6,1.8,1.6c0.9,0,2-0.4,2.8-0.7l1.8-10.2
		C201.6,70.9,200.9,70.8,200.3,70.8z"/>
	<path class="st0" d="M235,63.3c0.5,0.1,0.8,0.3,0.7,0.9l-1.1,6.2c-0.1,0.5-0.6,1-1.1,1l0,0c-1.4,0-3-0.3-4.8-0.3
		c-1.9,0-2.6,1.2-3.1,3.8l-0.5,3c-0.1,0.7-0.2,1.3-0.2,1.8c0,1.4,0.5,2,1.9,2c1.8,0,3.5-0.2,4.9-0.3c0.8,0,1,0.4,0.9,1l-1.1,6.2
		c-0.1,0.5-0.5,0.7-1.1,0.9c-1.9,0.4-3.9,0.8-6.5,0.8c-6.3,0-9.1-4-9.1-9.3c0-1,0.1-1.9,0.3-3l0.5-3c1.5-8.3,5.8-12.3,13.2-12.3
		C231.4,62.5,233.8,63,235,63.3z"/>
	<path class="st0" d="M235.4,88.7l4.3-24.7c0.1-0.5,0.4-1,1.2-1h8.1c0.9,0,0.9,0.4,0.8,1l-4.3,24.7c-0.1,0.5-0.4,1-1.2,1h-8.1
		C235.7,89.7,235.3,89.2,235.4,88.7z M250.7,54.4c0.5,0,1,0.1,0.9,1l-0.8,4.6c-0.1,0.5-0.4,1-1.2,1H241c-0.8,0-0.9-0.5-0.9-1
		l0.8-4.6c0.1-0.5,0.4-1,1.2-1H250.7z"/>
	<path class="st0" d="M276.7,75.3l-0.4,2.1c-1.7,9.6-7,12.8-14.7,12.8c-6.8,0-10.4-3.6-10.4-9.7c0-0.9,0.1-2,0.3-3.1l0.4-2.1
		c1.6-9.5,7-12.8,14.7-12.8c6.7,0,10.5,3.3,10.5,9.5C277,73.1,276.9,74.1,276.7,75.3z M265,70.8c-1.5,0-2.6,1.3-3.2,4.4l-0.4,2.1
		c-0.1,0.9-0.2,1.5-0.2,2.1c0,1.8,0.7,2.3,1.9,2.3c1.5,0,2.5-0.9,3.2-4.4l0.4-2.1c0.1-0.9,0.2-1.5,0.2-2.1
		C266.9,71.4,266.2,70.8,265,70.8z M276.9,55.1l-6.8,5.4c-0.4,0.3-0.5,0.5-1.2,0.5h-7c-0.2,0-0.4-0.1-0.4-0.3c0-0.1,0.1-0.3,0.3-0.5
		l4.8-5.1c0.5-0.5,0.7-0.7,1.4-0.7h8.6c0.3,0,0.5,0.1,0.5,0.3C277.2,54.8,277.1,55,276.9,55.1z"/>
	<path class="st0" d="M305.9,73l-2.8,15.7c-0.1,0.5-0.2,1-1.1,1h-8.1c-0.6,0-0.9-0.3-0.8-1l2.8-15.7c0-0.3,0-0.5,0-0.8
		c0-0.9-0.8-1.4-1.9-1.4c-0.8,0-1.7,0.2-2.6,0.7l-3,17.2c-0.1,0.5-0.2,1-1.1,1h-8.1c-0.5,0-1-0.3-0.9-1l4.4-24.8
		c0.1-0.5,0.5-0.9,1-0.9h7.5c0.7,0,0.9,0.4,0.8,0.9l-0.2,1.3c2.4-1.7,4.5-2.6,7.7-2.6c5.6,0,6.9,3.5,6.9,7.3
		C306.3,70.9,306.1,72,305.9,73z"/>
</g>
<g>
	<path class="st0" d="M51.7,268.4v0.3c-1.4,10-10.2,11.8-16.6,11.8c-0.9,0-1.4,0-2.7-0.1l-1.6,9.3c-0.1,0.5-0.3,0.9-1.1,0.9h-8.8
		c-0.3,0-0.8-0.2-0.7-0.7l5.1-29c0.5-2.8,1.4-3.4,3.8-3.8c2.3-0.4,6.9-0.5,10-0.5c6.1,0,12.7,2.4,12.7,9.8
		C51.9,267.1,51.8,267.7,51.7,268.4z M37.8,265.5H35l-1.1,6.1h2.8c2.3,0,4.1-1,4.4-2.9v-0.3c0-0.2,0-0.4,0-0.5
		C41.2,266.2,39.9,265.5,37.8,265.5z"/>
	<path class="st0" d="M79.4,266.2l-4.1,23.6c-0.1,0.5-0.3,0.9-0.9,0.9h-6.5c-0.8,0-1-0.4-0.9-0.9l0.2-1.3c-2.1,1.8-3.8,2.6-7.4,2.6
		c-4.9,0-8-3.1-8-8.3c0-1.5,0.1-2.3,0.2-3.1l0.7-4.2c1.7-9.8,7.3-12,14.7-12c3.4,0,7,0.5,10.4,1.1C78.9,264.8,79.6,265.1,79.4,266.2
		z M66.3,271.9c-1.9,0-2.9,0.7-3.5,3.7L62,280c-0.1,0.5-0.1,1-0.1,1.3c0,1.4,0.6,1.6,1.8,1.6c0.9,0,2-0.4,2.8-0.7l1.8-10.2
		C67.6,271.9,66.9,271.9,66.3,271.9z"/>
	<path class="st0" d="M99.7,263.5c0.8,0,1.1,0.2,1,0.9l-1.1,6.4c-0.1,0.5-0.2,0.9-1,0.9h-0.3c-2.8,0-4.2,0.2-5.2,0.8l-3,17.2
		c-0.1,0.5-0.3,1-1.1,1h-8.1c-0.5,0-1-0.2-0.9-1l4.4-24.8c0.1-0.5,0.3-0.9,1-0.9h7.1c0.5,0,0.9,0.3,0.8,0.9l-0.3,1.3
		c1.8-2.1,4.4-2.7,6.5-2.7L99.7,263.5L99.7,263.5z"/>
	<path class="st0" d="M119.6,264c0.8,0,1.1,0.2,1,1l-1,5.5c-0.1,0.5-0.3,1-1.1,1h-3.3l-1.9,11.1c0,0.3-0.1,0.5-0.1,0.7
		c0,0.5,0.2,0.6,0.8,0.6h2.2c0.6,0,0.9,0.1,0.8,1l-0.9,4.9c-0.1,0.5-0.2,0.9-1.1,1c-1.9,0.3-2.9,0.5-4.9,0.5c-3.2,0-7.1-1.3-7.1-6.6
		c0-0.7,0.1-1.4,0.2-2.3l1.9-10.9l-2.5-0.5c-0.5-0.1-0.9-0.3-0.8-1l0.9-5c0.1-0.5,0.4-1,1.2-1h2.6l0.6-3.7c0.1-0.5,0.3-0.8,1.2-1
		l8.1-1.4c0.9-0.1,1.3,0.2,1.1,0.9l-0.9,5.1L119.6,264L119.6,264z"/>
	<path class="st0" d="M119.7,289.7L124,265c0.1-0.5,0.4-1,1.2-1h8.1c0.9,0,0.9,0.4,0.8,1l-4.3,24.7c-0.1,0.5-0.4,1-1.2,1h-8.1
		C120,290.7,119.6,290.2,119.7,289.7z M135,255.4c0.5,0,1,0.1,0.9,1l-0.8,4.6c-0.1,0.5-0.4,1-1.2,1h-8.5c-0.8,0-1-0.5-0.9-1l0.8-4.6
		c0.1-0.5,0.4-1,1.2-1H135z"/>
	<path class="st0" d="M155.7,264.3c0.5,0.1,0.8,0.3,0.7,0.9l-1.1,6.2c-0.1,0.5-0.6,1-1.1,1l0,0c-1.4,0-3-0.3-4.8-0.3
		c-1.9,0-2.6,1.2-3.1,3.8l-0.5,3c-0.1,0.7-0.2,1.3-0.2,1.8c0,1.4,0.5,2,1.9,2c1.8,0,3.5-0.2,4.9-0.3c0.8,0,1,0.4,0.9,1l-1.1,6.2
		c-0.1,0.5-0.5,0.7-1.1,0.9c-1.9,0.4-3.9,0.8-6.5,0.8c-6.3,0-9.1-4-9.1-9.3c0-1,0.1-1.9,0.3-3l0.5-3c1.5-8.3,5.8-12.3,13.2-12.3
		C152.1,263.5,154.4,264,155.7,264.3z"/>
	<path class="st0" d="M156.1,289.7l4.3-24.7c0.1-0.5,0.4-1,1.2-1h8.1c0.9,0,0.9,0.4,0.8,1l-4.3,24.7c-0.1,0.5-0.4,1-1.2,1h-8.1
		C156.4,290.7,156,290.2,156.1,289.7z M171.4,255.4c0.5,0,1,0.1,0.9,1l-0.8,4.6c-0.1,0.5-0.4,1-1.2,1h-8.5c-0.8,0-0.9-0.5-0.9-1
		l0.8-4.6c0.1-0.5,0.4-1,1.2-1H171.4z"/>
	<path class="st0" d="M198.3,275.6l-0.6,3.5c-1.4,8.1-6.2,12-14.5,12c-0.5,0-1.8-0.1-2.4-0.3l-1.3,7.4c-0.1,0.5-0.5,1-1,1h-8.1
		c-0.5,0-1-0.2-0.9-1l5.7-32.1c0.1-0.8,0.5-1.3,2.1-1.6c2.2-0.4,6.2-1.1,10.9-1.1c6.6,0,10.5,3.8,10.5,9.5
		C198.5,273.9,198.4,274.7,198.3,275.6z M186.4,271.9c-1.2,0-1.6,0-2.4,0.1l-1.9,10.7c0.7,0,1.4,0.1,2.4,0.1c1.9,0,2.6-1.2,3-3.7
		l0.6-3.5c0.1-0.6,0.2-1.2,0.2-1.7C188.4,272.5,187.8,271.9,186.4,271.9z"/>
	<path class="st0" d="M228.2,266.2l-4.1,23.6c-0.1,0.5-0.3,0.9-0.9,0.9h-6.5c-0.8,0-1-0.4-0.9-0.9l0.2-1.3c-2.1,1.8-3.8,2.6-7.4,2.6
		c-4.9,0-8-3.1-8-8.3c0-1.5,0.1-2.3,0.2-3.1l0.7-4.2c1.7-9.8,7.3-12,14.7-12c3.4,0,7,0.5,10.4,1.1
		C227.8,264.8,228.4,265.1,228.2,266.2z M215.2,271.9c-1.9,0-2.9,0.7-3.5,3.7l-0.8,4.4c-0.1,0.5-0.1,1-0.1,1.3
		c0,1.4,0.6,1.6,1.8,1.6c0.9,0,2-0.4,2.8-0.7l1.8-10.2C216.4,271.9,215.8,271.9,215.2,271.9z"/>
	<path class="st0" d="M256.4,274l-2.8,15.7c-0.1,0.5-0.2,1-1.1,1h-8.1c-0.6,0-0.9-0.3-0.8-1l2.8-15.7c0-0.3,0-0.5,0-0.8
		c0-0.9-0.8-1.4-1.9-1.4c-0.8,0-1.7,0.2-2.6,0.7l-3,17.2c-0.1,0.5-0.2,1-1.1,1h-8.1c-0.5,0-1-0.3-0.9-1l4.4-24.8
		c0.1-0.5,0.5-0.9,1-0.9h7.5c0.7,0,0.9,0.4,0.8,0.9l-0.2,1.3c2.4-1.7,4.5-2.6,7.7-2.6c5.6,0,6.9,3.5,6.9,7.3
		C256.7,271.9,256.6,273,256.4,274z"/>
	<path class="st0" d="M278.1,264c0.8,0,1.1,0.2,1,1l-1,5.5c-0.1,0.5-0.3,1-1.1,1h-3.3l-1.9,11.1c0,0.3-0.1,0.5-0.1,0.7
		c0,0.5,0.2,0.6,0.8,0.6h2.2c0.6,0,0.9,0.1,0.8,1l-0.9,4.9c-0.1,0.5-0.2,0.9-1.1,1c-1.9,0.3-2.8,0.5-4.9,0.5c-3.2,0-7.1-1.3-7.1-6.6
		c0-0.7,0.1-1.4,0.2-2.3l1.9-10.9l-2.5-0.5c-0.5-0.1-1-0.3-0.8-1l0.9-5c0.1-0.5,0.4-1,1.2-1h2.6l0.6-3.7c0.1-0.5,0.3-0.8,1.2-1
		l8.1-1.4c1-0.1,1.3,0.2,1.1,0.9l-1,5.2H278.1z"/>
	<path class="st0" d="M304.4,276.2l-0.5,2.8c-0.1,0.5-0.6,1-1.1,1h-13.7c0,0.4-0.1,0.7-0.1,1c0,1.4,0.9,1.9,3.5,1.9
		c1.9,0,6.9-0.2,8.5-0.3c0.7,0,1,0.1,0.9,0.8l-0.9,4.8c-0.1,0.8-0.4,1-1.1,1.3c-2.5,0.9-7,1.7-10.7,1.7c-5.8,0-10.3-3.2-10.3-9.4
		c0-0.9,0.1-1.8,0.3-2.7l0.5-2.8c1.7-9.4,7.1-12.7,14.8-12.7c7.1,0,10,4.2,10,9.6C304.6,274.2,304.5,275.2,304.4,276.2z
		 M293.1,271.1c-1.9,0-2.7,1.2-3.2,3.8h5.1c0.1-0.6,0.2-1.1,0.2-1.5C295.3,271.9,294.7,271.1,293.1,271.1z"/>
	<path class="st0" d="M329.5,265.7l-1,5.9c-0.1,0.6-0.2,1.1-1.1,0.9c-1.4-0.2-6.2-0.8-7.9-0.8c-0.4,0-1,0-1,0.5c0,0.4,0.1,0.5,1,1
		l3.6,1.9c4,2.1,4.5,4.5,4.5,6.9c0,6.5-5.4,9.1-13.3,9.1c-3.9,0-6.6-0.6-8.2-1.2c-0.6-0.2-0.8-0.5-0.7-1l1-5.7
		c0.1-0.7,0.4-1.2,1.4-1c2.9,0.5,6.1,0.9,7.7,0.9c0.7,0,1.8,0,1.8-1c0-0.3-0.1-0.5-0.9-0.9l-4-2.2c-2.7-1.5-4-3.6-4-6.4
		c0-7.2,5.9-9,12.1-9c3.3,0,6.5,0.7,8.4,1.2C329.4,264.9,329.6,265.1,329.5,265.7z"/>
</g>
<g>
	<path class="st0" d="M418.7,268.4v0.3c-1.4,10-10.2,11.8-16.6,11.8c-0.9,0-1.4,0-2.7-0.1l-1.6,9.3c-0.1,0.5-0.3,0.9-1.1,0.9h-8.8
		c-0.3,0-0.8-0.2-0.7-0.7l5.1-29c0.5-2.8,1.4-3.4,3.8-3.8c2.3-0.4,6.9-0.5,10-0.5c6.1,0,12.7,2.4,12.7,9.8
		C418.8,267.1,418.8,267.7,418.7,268.4z M404.7,265.5H402l-1.1,6.1h2.8c2.3,0,4.1-1,4.4-2.9v-0.3c0-0.2,0-0.4,0-0.5
		C408.1,266.2,406.8,265.5,404.7,265.5z"/>
	<path class="st0" d="M446.3,266.2l-4.1,23.6c-0.1,0.5-0.3,0.9-0.9,0.9h-6.5c-0.8,0-1-0.4-0.9-0.9l0.2-1.3c-2.1,1.8-3.8,2.6-7.4,2.6
		c-4.9,0-8-3.1-8-8.3c0-1.5,0.1-2.3,0.2-3.1l0.7-4.2c1.7-9.8,7.3-12,14.7-12c3.4,0,7,0.5,10.4,1.1
		C445.9,264.8,446.5,265.1,446.3,266.2z M433.3,271.9c-1.9,0-2.9,0.7-3.5,3.7L429,280c-0.1,0.5-0.1,1-0.1,1.3c0,1.4,0.6,1.6,1.8,1.6
		c0.9,0,2-0.4,2.8-0.7l1.8-10.2C434.5,271.9,433.8,271.9,433.3,271.9z"/>
	<path class="st0" d="M466.6,263.5c0.8,0,1.1,0.2,1,0.9l-1.1,6.4c-0.1,0.5-0.2,0.9-1,0.9h-0.3c-2.8,0-4.2,0.2-5.2,0.8l-3,17.2
		c-0.1,0.5-0.3,1-1.1,1h-8.1c-0.5,0-1-0.2-0.9-1l4.4-24.8c0.1-0.5,0.3-0.9,1-0.9h7.1c0.5,0,0.9,0.3,0.8,0.9l-0.3,1.3
		c1.8-2.1,4.4-2.7,6.5-2.7L466.6,263.5L466.6,263.5z"/>
	<path class="st0" d="M486.5,264c0.8,0,1.1,0.2,1,1l-1,5.5c-0.1,0.5-0.3,1-1.1,1h-3.3l-1.9,11.1c0,0.3-0.1,0.5-0.1,0.7
		c0,0.5,0.2,0.6,0.8,0.6h2.2c0.6,0,0.9,0.1,0.8,1l-0.9,4.9c-0.1,0.5-0.2,0.9-1.1,1c-1.9,0.3-2.8,0.5-4.9,0.5c-3.2,0-7.1-1.3-7.1-6.6
		c0-0.7,0.1-1.4,0.2-2.3l1.9-10.9l-2.5-0.5c-0.5-0.1-0.9-0.3-0.8-1l0.9-5c0.1-0.5,0.4-1,1.2-1h2.6l0.6-3.7c0.1-0.5,0.3-0.8,1.2-1
		l8.1-1.4c0.9-0.1,1.3,0.2,1.1,0.9l-0.9,5.1L486.5,264L486.5,264z"/>
	<path class="st0" d="M486.6,289.7l4.3-24.7c0.1-0.5,0.4-1,1.2-1h8.1c0.9,0,0.9,0.4,0.8,1l-4.3,24.7c-0.1,0.5-0.4,1-1.2,1h-8.1
		C487,290.7,486.6,290.2,486.6,289.7z M502,255.4c0.5,0,1,0.1,0.9,1l-0.8,4.6c-0.1,0.5-0.4,1-1.2,1h-8.5c-0.8,0-0.9-0.5-0.9-1
		l0.8-4.6c0.1-0.5,0.4-1,1.2-1H502z"/>
	<path class="st0" d="M522.6,264.3c0.5,0.1,0.8,0.3,0.7,0.9l-1.1,6.2c-0.1,0.5-0.6,1-1.1,1l0,0c-1.4,0-3-0.3-4.8-0.3
		c-1.9,0-2.6,1.2-3.1,3.8l-0.5,3c-0.1,0.7-0.2,1.3-0.2,1.8c0,1.4,0.5,2,1.9,2c1.8,0,3.5-0.2,4.9-0.3c0.8,0,1,0.4,0.9,1l-1.1,6.2
		c-0.1,0.5-0.5,0.7-1.1,0.9c-1.9,0.4-3.9,0.8-6.5,0.8c-6.3,0-9.1-4-9.1-9.3c0-1,0.1-1.9,0.3-3l0.5-3c1.5-8.3,5.8-12.3,13.2-12.3
		C519,263.5,521.4,264,522.6,264.3z"/>
	<path class="st0" d="M523,289.7l4.3-24.7c0.1-0.5,0.4-1,1.2-1h8.1c0.9,0,0.9,0.4,0.8,1l-4.3,24.7c-0.1,0.5-0.4,1-1.2,1h-8.1
		C523.3,290.7,522.9,290.2,523,289.7z M538.4,255.4c0.5,0,1,0.1,0.9,1l-0.8,4.6c-0.1,0.5-0.4,1-1.2,1h-8.6c-0.8,0-0.9-0.5-0.9-1
		l0.8-4.6c0.1-0.5,0.4-1,1.2-1H538.4z"/>
	<path class="st0" d="M565.2,275.6l-0.6,3.5c-1.4,8.1-6.2,12-14.5,12c-0.5,0-1.8-0.1-2.4-0.3l-1.3,7.4c-0.1,0.5-0.5,1-1,1h-8.1
		c-0.5,0-1-0.2-0.9-1l5.7-32.1c0.1-0.8,0.5-1.3,2.1-1.6c2.2-0.4,6.2-1.1,10.9-1.1c6.7,0,10.5,3.8,10.5,9.5
		C565.4,273.9,565.3,274.7,565.2,275.6z M553.4,271.9c-1.2,0-1.6,0-2.4,0.1l-1.9,10.7c0.7,0,1.4,0.1,2.4,0.1c1.9,0,2.6-1.2,3-3.7
		l0.6-3.5c0.1-0.6,0.2-1.2,0.2-1.7C555.3,272.5,554.8,271.9,553.4,271.9z"/>
	<path class="st0" d="M595.2,266.2l-4.1,23.6c-0.1,0.5-0.3,0.9-0.9,0.9h-6.5c-0.8,0-1-0.4-0.9-0.9l0.2-1.3c-2.1,1.8-3.8,2.6-7.4,2.6
		c-4.9,0-8-3.1-8-8.3c0-1.5,0.1-2.3,0.2-3.1l0.7-4.2c1.7-9.8,7.3-12,14.7-12c3.4,0,7,0.5,10.4,1.1
		C594.7,264.8,595.4,265.1,595.2,266.2z M582.2,271.9c-1.9,0-2.9,0.7-3.5,3.7l-0.8,4.4c-0.1,0.5-0.1,1-0.1,1.3
		c0,1.4,0.6,1.6,1.8,1.6c0.9,0,2-0.4,2.8-0.7l1.8-10.2C583.4,271.9,582.7,271.9,582.2,271.9z"/>
	<path class="st0" d="M623.3,274l-2.8,15.7c-0.1,0.5-0.2,1-1.1,1h-8.1c-0.6,0-1-0.3-0.8-1l2.8-15.7c0-0.3,0-0.5,0-0.8
		c0-0.9-0.8-1.4-1.9-1.4c-0.8,0-1.7,0.2-2.6,0.7l-3,17.2c-0.1,0.5-0.2,1-1.1,1h-8.1c-0.5,0-1-0.3-0.9-1l4.4-24.8
		c0.1-0.5,0.5-0.9,1-0.9h7.5c0.7,0,0.9,0.4,0.8,0.9l-0.2,1.3c2.4-1.7,4.5-2.6,7.7-2.6c5.6,0,6.9,3.5,6.9,7.3
		C623.7,271.9,623.5,273,623.3,274z"/>
	<path class="st0" d="M645,264c0.8,0,1.1,0.2,1,1l-1,5.5c-0.1,0.5-0.3,1-1.1,1h-3.3l-1.9,11.1c0,0.3-0.1,0.5-0.1,0.7
		c0,0.5,0.2,0.6,0.8,0.6h2.2c0.6,0,0.9,0.1,0.8,1l-0.9,4.9c-0.1,0.5-0.2,0.9-1.1,1c-1.9,0.3-2.8,0.5-4.9,0.5c-3.2,0-7.1-1.3-7.1-6.6
		c0-0.7,0.1-1.4,0.2-2.3l1.9-10.9L628,271c-0.5-0.1-1-0.3-0.8-1l0.9-5c0.1-0.5,0.4-1,1.2-1h2.6l0.6-3.7c0.1-0.5,0.3-0.8,1.2-1
		l8.1-1.4c1-0.1,1.3,0.2,1.1,0.9l-0.9,5.1L645,264L645,264z"/>
	<path class="st0" d="M671.3,276.2l-0.5,2.8c-0.1,0.5-0.6,1-1.1,1H656c0,0.4-0.1,0.7-0.1,1c0,1.4,0.9,1.9,3.5,1.9
		c1.9,0,6.9-0.2,8.5-0.3c0.7,0,1,0.1,0.9,0.8l-0.9,4.8c-0.1,0.8-0.4,1-1.1,1.3c-2.5,0.9-7,1.7-10.7,1.7c-5.8,0-10.3-3.2-10.3-9.4
		c0-0.9,0.1-1.8,0.3-2.7l0.5-2.8c1.7-9.4,7.1-12.7,14.8-12.7c7.1,0,10,4.2,10,9.6C671.6,274.2,671.5,275.2,671.3,276.2z
		 M660.1,271.1c-1.9,0-2.7,1.2-3.2,3.8h5.1c0.1-0.6,0.2-1.1,0.2-1.5C662.2,271.9,661.6,271.1,660.1,271.1z"/>
	<path class="st0" d="M696.5,265.7l-1,5.9c-0.1,0.6-0.2,1.1-1.1,0.9c-1.4-0.2-6.2-0.8-7.9-0.8c-0.4,0-1,0-1,0.5c0,0.4,0.1,0.5,1,1
		l3.6,1.9c4,2.1,4.5,4.5,4.5,6.9c0,6.5-5.4,9.1-13.3,9.1c-3.9,0-6.6-0.6-8.2-1.2c-0.6-0.2-0.8-0.5-0.7-1l1-5.7
		c0.1-0.7,0.4-1.2,1.4-1c2.9,0.5,6.1,0.9,7.7,0.9c0.7,0,1.8,0,1.8-1c0-0.3-0.1-0.5-0.9-0.9l-4-2.2c-2.7-1.5-4-3.6-4-6.4
		c0-7.2,5.9-9,12.1-9c3.3,0,6.5,0.7,8.4,1.2C696.3,264.9,696.6,265.1,696.5,265.7z"/>
</g>
<g>
	<path class="st0" d="M412.2,22.3c-0.1,0.6-0.4,0.9-1,0.8c-1.4-0.2-4-0.4-5.9-0.4c-1.8,0-3.7,0.4-4.8,6l-0.7,3.7
		c-0.2,1.2-0.3,2.2-0.3,2.9c0,2.9,1.4,3.1,3,3.1c1.8,0,4.6-0.3,6.1-0.4c0.8-0.1,0.8,0.3,0.7,0.8L408,46c-0.1,0.6-0.3,0.7-1.1,1
		c-1.5,0.5-3.6,0.9-6.1,0.9c-8.3,0-12.2-4.3-12.2-11.3c0-1.3,0.1-2.7,0.4-4.1l0.7-3.7c2.1-11.5,7.4-15.4,16.9-15.4
		c2.5,0,4.8,0.4,6.1,0.9c0.5,0.2,0.9,0.4,0.8,1L412.2,22.3z"/>
	<path class="st0" d="M441.1,21.7l-4.4,24.8c-0.1,0.5-0.3,0.9-1,0.9h-7.5c-0.5,0-0.9-0.2-0.8-0.9l0.2-1.3c-2.1,1.5-3.8,2.6-7.5,2.6
		c-5.2,0-7.1-3.6-7.1-7.7c0-0.9,0.1-1.9,0.3-2.8l2.8-15.7c0.1-0.5,0.6-1,1.1-1h8.1c0.6,0,1,0.3,0.8,1l-2.6,14.9
		c-0.1,0.5-0.2,1.2-0.2,1.4c0,1.2,0.8,1.6,1.9,1.6c0.8,0,1.7-0.2,2.6-0.7l3-17.2c0.1-0.5,0.3-1,1.1-1h8.1
		C440.8,20.7,441.2,20.8,441.1,21.7z"/>
	<path class="st0" d="M461.2,20.2c0.8,0,1.1,0.2,1,0.9l-1.1,6.4c-0.1,0.5-0.2,0.9-1,0.9h-0.3c-2.8,0-4.2,0.2-5.2,0.8l-3,17.2
		c-0.1,0.5-0.3,1-1.1,1h-8.1c-0.5,0-1-0.2-0.9-1l4.4-24.8c0.1-0.5,0.3-0.9,1-0.9h7.1c0.5,0,0.9,0.3,0.8,0.9l-0.3,1.3
		c1.8-2.1,4.4-2.7,6.5-2.7H461.2z"/>
	<path class="st0" d="M485.1,22.4l-1,5.9c-0.1,0.6-0.2,1.1-1.1,0.9c-1.4-0.2-6.2-0.8-7.9-0.8c-0.4,0-1,0-1,0.5c0,0.4,0.1,0.5,1,1
		l3.6,1.9c4,2.1,4.5,4.5,4.5,6.9c0,6.5-5.4,9.1-13.3,9.1c-3.9,0-6.6-0.6-8.2-1.2c-0.6-0.2-0.8-0.5-0.7-1l1-5.7
		c0.1-0.7,0.4-1.2,1.4-1c2.9,0.5,6.1,0.9,7.7,0.9c0.7,0,1.8,0,1.8-1c0-0.3-0.1-0.5-0.9-0.9l-4-2.2c-2.7-1.5-4-3.6-4-6.4
		c0-7.2,5.9-9,12.1-9c3.3,0,6.5,0.7,8.4,1.2C485,21.6,485.2,21.8,485.1,22.4z"/>
	<path class="st0" d="M512.2,33l-0.4,2.1c-1.7,9.6-7,12.8-14.7,12.8c-6.8,0-10.5-3.6-10.5-9.7c0-0.9,0.1-2,0.3-3.1l0.4-2.1
		c1.6-9.5,7-12.8,14.7-12.8c6.7,0,10.5,3.3,10.5,9.5C512.5,30.8,512.3,31.8,512.2,33z M500.5,28.5c-1.5,0-2.6,1.3-3.2,4.4L497,35
		c-0.1,0.9-0.2,1.5-0.2,2.1c0,1.8,0.7,2.3,1.9,2.3c1.5,0,2.5-0.9,3.2-4.4l0.4-2.1c0.1-0.9,0.2-1.5,0.2-2.1
		C502.3,29.1,501.7,28.5,500.5,28.5z"/>
	<path class="st0" d="M537.6,22.4l-1,5.9c-0.1,0.6-0.2,1.1-1.1,0.9c-1.4-0.2-6.2-0.8-7.9-0.8c-0.4,0-1,0-1,0.5c0,0.4,0.1,0.5,1,1
		l3.6,1.9c4,2.1,4.5,4.5,4.5,6.9c0,6.5-5.4,9.1-13.3,9.1c-3.9,0-6.6-0.6-8.2-1.2c-0.6-0.2-0.8-0.5-0.7-1l1-5.7
		c0.1-0.7,0.4-1.2,1.4-1c2.9,0.5,6.1,0.9,7.7,0.9c0.7,0,1.8,0,1.8-1c0-0.3-0.1-0.5-0.9-0.9l-4-2.2c-2.7-1.5-4-3.6-4-6.4
		c0-7.2,5.9-9,12.1-9c3.3,0,6.5,0.7,8.4,1.2C537.5,21.6,537.7,21.8,537.6,22.4z"/>
	<path class="st0" d="M577.7,12.1c0.5,0,1,0.2,0.9,1l-5.6,32c-0.1,0.8-0.5,1.3-2.1,1.6c-2.2,0.4-6.2,1.1-10.9,1.1
		c-6.6,0-10.5-4.2-10.5-9.8c0-0.7,0.1-1.5,0.2-2.3l0.6-3.5c1.5-8.6,6.2-12,14.1-12c1,0,2.3,0.1,2.9,0.3l1.3-7.4c0.1-0.5,0.3-1,1-1
		C569.6,12.1,577.7,12.1,577.7,12.1z M563.4,28.5c-1.9,0-2.6,1.1-3,3.7l-0.6,3.5c-0.1,0.7-0.2,1.2-0.2,1.7c0,1.4,0.5,2,1.9,2
		c1.2,0,1.6,0,2.4-0.1l1.9-10.7C565.1,28.6,564.4,28.5,563.4,28.5z"/>
	<path class="st0" d="M603.6,32.9l-0.5,2.8c-0.1,0.5-0.6,1-1.1,1h-13.7c0,0.4-0.1,0.7-0.1,1c0,1.4,0.9,1.9,3.5,1.9
		c1.9,0,6.9-0.2,8.5-0.3c0.7,0,1,0.1,0.9,0.8l-0.9,4.8c-0.1,0.8-0.4,1-1.1,1.3c-2.5,0.9-7,1.7-10.7,1.7c-5.8,0-10.3-3.2-10.3-9.4
		c0-0.9,0.1-1.8,0.3-2.7l0.5-2.8c1.7-9.4,7.1-12.7,14.8-12.7c7.1,0,10,4.2,10,9.6C603.8,30.8,603.7,31.9,603.6,32.9z M592.3,27.8
		c-1.9,0-2.7,1.2-3.2,3.8h5.1c0.1-0.6,0.2-1.1,0.2-1.5C594.5,28.6,593.9,27.8,592.3,27.8z"/>
</g>
<g>
	<path class="st0" d="M408.2,63.3c0.5,0.1,0.8,0.3,0.7,0.9l-1.1,6.2c-0.1,0.5-0.6,1-1.1,1l0,0c-1.4,0-3-0.3-4.8-0.3
		c-1.9,0-2.6,1.2-3.1,3.8l-0.5,3c-0.1,0.7-0.2,1.3-0.2,1.8c0,1.4,0.5,2,1.9,2c1.8,0,3.5-0.2,4.9-0.3c0.8,0,1,0.4,0.9,1l-1.1,6.2
		c-0.1,0.5-0.5,0.7-1.1,0.9c-1.9,0.4-3.9,0.8-6.5,0.8c-6.3,0-9.1-4-9.1-9.3c0-1,0.1-1.9,0.3-3l0.5-3c1.5-8.3,5.8-12.3,13.2-12.3
		C404.6,62.5,407,63,408.2,63.3z"/>
	<path class="st0" d="M434.1,75.2l-0.5,2.8c-0.1,0.5-0.6,1-1.1,1h-13.7c0,0.4-0.1,0.7-0.1,1c0,1.4,0.9,1.9,3.5,1.9
		c1.9,0,6.9-0.2,8.6-0.3c0.7,0,1,0.1,0.9,0.8l-0.9,4.8c-0.1,0.8-0.4,1-1.1,1.3c-2.5,0.9-7,1.7-10.7,1.7c-5.8,0-10.3-3.2-10.3-9.4
		c0-0.9,0.1-1.8,0.3-2.7l0.5-2.8c1.7-9.4,7.1-12.7,14.8-12.7c7.1,0,10,4.2,10,9.6C434.4,73.2,434.3,74.2,434.1,75.2z M422.9,70.1
		c-1.9,0-2.7,1.2-3.2,3.8h5.1c0.1-0.6,0.2-1.1,0.2-1.5C425.1,70.9,424.5,70.1,422.9,70.1z"/>
	<path class="st0" d="M455.5,62.5c0.8,0,1.1,0.2,1,0.9l-1.1,6.4c-0.1,0.5-0.2,0.9-1,0.9H454c-2.8,0-4.2,0.2-5.2,0.8l-3,17.2
		c-0.1,0.5-0.3,1-1.1,1h-8.1c-0.5,0-1-0.2-0.9-1l4.4-24.8c0.1-0.5,0.3-0.9,1-0.9h7.1c0.5,0,0.9,0.3,0.8,0.9l-0.3,1.3
		c1.8-2.1,4.4-2.7,6.5-2.7L455.5,62.5L455.5,62.5z"/>
	<path class="st0" d="M475.4,63c0.8,0,1.1,0.2,1,1l-1,5.5c-0.1,0.5-0.3,1-1.1,1H471l-1.9,11.1c0,0.3-0.1,0.5-0.1,0.7
		c0,0.5,0.2,0.6,0.8,0.6h2.2c0.6,0,0.9,0.1,0.8,1l-0.9,4.9c-0.1,0.5-0.2,0.9-1.1,1c-1.9,0.3-2.9,0.5-4.9,0.5c-3.2,0-7.1-1.3-7.1-6.6
		c0-0.7,0.1-1.4,0.2-2.3l1.9-10.9l-2.5-0.5c-0.5-0.1-0.9-0.3-0.8-1l0.9-5c0.1-0.5,0.4-1,1.2-1h2.6l0.6-3.7c0.1-0.5,0.3-0.8,1.2-0.9
		l8.1-1.4c0.9-0.1,1.3,0.2,1.1,0.9l-0.9,5.1L475.4,63L475.4,63z"/>
	<path class="st0" d="M475.6,88.7l4.3-24.7c0.1-0.5,0.4-1,1.2-1h8.1c0.9,0,0.9,0.4,0.8,1l-4.3,24.7c-0.1,0.5-0.4,1-1.2,1h-8.1
		C475.9,89.7,475.5,89.2,475.6,88.7z M490.9,54.4c0.5,0,1,0.1,0.9,1L491,60c-0.1,0.5-0.4,1-1.2,1h-8.5c-0.8,0-0.9-0.5-0.9-1l0.8-4.6
		c0.1-0.5,0.4-1,1.2-1H490.9z"/>
	<path class="st0" d="M509.8,88.7l3.2-18.3h-7.2l-3.3,18.9c-1.3,7.5-4.6,8.9-10.2,8.9c-1.2,0-3-0.2-4.3-0.5c-0.7-0.1-0.9-0.5-0.8-1
		l0.9-4.9c0.1-0.5,0.3-0.9,1.1-0.9h1.3c1.1,0,1.5,0,1.8-1.5l3.3-18.9l-2.9-0.4c-0.5,0-1-0.3-0.8-1l0.9-5.1c0.1-0.5,0.4-1,1.2-1h3
		l0.1-0.6c1.1-7.5,4.6-8.8,10.2-8.8c1.2,0,3.3,0.2,4.5,0.5c0.9,0.2,0.9,0.5,0.8,0.9l-0.9,4.9c-0.1,0.5-0.3,1-1.1,1H509
		c-1.1,0-1.5,0-1.8,1.5l-0.1,0.5h16.3c0.9,0,0.9,0.4,0.8,1l-4.3,24.7c-0.1,0.5-0.4,1-1.2,1h-8.1C510.1,89.7,509.7,89.2,509.8,88.7z
		 M525.1,54.4c0.5,0,1,0.1,0.9,1l-0.8,4.6c-0.1,0.5-0.4,1-1.2,1h-8.6c-0.8,0-1-0.5-0.9-1l0.8-4.6c0.1-0.5,0.4-1,1.2-1H525.1z"/>
	<path class="st0" d="M545.7,63.3c0.5,0.1,0.8,0.3,0.7,0.9l-1.1,6.2c-0.1,0.5-0.6,1-1.1,1l0,0c-1.4,0-3-0.3-4.8-0.3
		c-1.9,0-2.6,1.2-3.1,3.8l-0.5,3c-0.1,0.7-0.2,1.3-0.2,1.8c0,1.4,0.5,2,1.9,2c1.8,0,3.5-0.2,4.9-0.3c0.8,0,1,0.4,0.9,1l-1.1,6.2
		c-0.1,0.5-0.5,0.7-1.1,0.9c-1.9,0.4-3.9,0.8-6.5,0.8c-6.3,0-9.1-4-9.1-9.3c0-1,0.1-1.9,0.3-3l0.5-3c1.5-8.3,5.8-12.3,13.2-12.3
		C542.1,62.5,544.5,63,545.7,63.3z"/>
	<path class="st0" d="M574.6,65.2l-4.1,23.6c-0.1,0.5-0.3,0.9-0.9,0.9h-6.5c-0.8,0-1-0.4-0.9-0.9l0.2-1.3c-2.1,1.8-3.8,2.6-7.4,2.6
		c-4.9,0-8-3.1-8-8.3c0-1.5,0.1-2.3,0.2-3.1l0.7-4.2c1.7-9.8,7.3-12,14.7-12c3.4,0,7,0.5,10.4,1.1C574.2,63.8,574.8,64.1,574.6,65.2
		z M561.6,70.8c-1.9,0-2.9,0.7-3.5,3.7l-0.8,4.4c-0.1,0.5-0.1,1-0.1,1.3c0,1.4,0.6,1.6,1.8,1.6c0.9,0,2-0.4,2.8-0.7l1.8-10.2
		C562.8,70.9,562.2,70.8,561.6,70.8z"/>
	<path class="st0" d="M596.3,63.3c0.5,0.1,0.8,0.3,0.7,0.9l-1.1,6.2c-0.1,0.5-0.6,1-1.1,1l0,0c-1.4,0-3-0.3-4.8-0.3
		c-1.9,0-2.6,1.2-3.1,3.8l-0.5,3c-0.1,0.7-0.2,1.3-0.2,1.8c0,1.4,0.5,2,1.9,2c1.8,0,3.5-0.2,4.9-0.3c0.8,0,1,0.4,0.9,1l-1.1,6.2
		c-0.1,0.5-0.5,0.7-1.1,0.9c-1.9,0.4-3.9,0.8-6.5,0.8c-6.3,0-9.1-4-9.1-9.3c0-1,0.1-1.9,0.3-3l0.5-3c1.5-8.3,5.8-12.3,13.2-12.3
		C592.7,62.5,595.1,63,596.3,63.3z"/>
	<path class="st0" d="M596.7,88.7L601,64c0.1-0.5,0.4-1,1.2-1h8.1c0.9,0,0.9,0.4,0.8,1l-4.3,24.7c-0.1,0.5-0.4,1-1.2,1h-8.1
		C597,89.7,596.6,89.2,596.7,88.7z M612,54.4c0.5,0,1,0.1,0.9,1l-0.8,4.6c-0.1,0.5-0.4,1-1.2,1h-8.6c-0.8,0-0.9-0.5-0.9-1l0.8-4.6
		c0.1-0.5,0.4-1,1.2-1H612z"/>
	<path class="st0" d="M638,75.3l-0.4,2.1c-1.7,9.6-7,12.8-14.7,12.8c-6.8,0-10.4-3.6-10.4-9.7c0-0.9,0.1-2,0.3-3.1l0.4-2.1
		c1.6-9.5,7-12.8,14.7-12.8c6.7,0,10.5,3.3,10.5,9.5C638.3,73.1,638.2,74.1,638,75.3z M626.3,70.8c-1.5,0-2.6,1.3-3.2,4.4l-0.4,2.1
		c-0.1,0.9-0.2,1.5-0.2,2.1c0,1.8,0.7,2.3,1.9,2.3c1.5,0,2.5-0.9,3.2-4.4l0.4-2.1c0.1-0.9,0.2-1.5,0.2-2.1
		C628.2,71.4,627.5,70.8,626.3,70.8z M638.2,55.1l-6.8,5.4c-0.4,0.3-0.5,0.5-1.2,0.5h-7c-0.2,0-0.4-0.1-0.4-0.3
		c0-0.1,0.1-0.3,0.3-0.5l4.8-5.1c0.5-0.5,0.7-0.7,1.4-0.7h8.6c0.3,0,0.5,0.1,0.5,0.3C638.4,54.8,638.4,55,638.2,55.1z"/>
	<path class="st0" d="M667.2,73l-2.8,15.7c-0.1,0.5-0.2,1-1.1,1h-8.1c-0.6,0-1-0.3-0.8-1l2.8-15.7c0-0.3,0-0.5,0-0.8
		c0-0.9-0.8-1.4-1.9-1.4c-0.8,0-1.7,0.2-2.6,0.7l-3,17.2c-0.1,0.5-0.2,1-1.1,1h-8.1c-0.5,0-1-0.3-0.9-1l4.4-24.8
		c0.1-0.5,0.5-0.9,1-0.9h7.5c0.7,0,0.9,0.4,0.8,0.9l-0.2,1.3c2.4-1.7,4.5-2.6,7.7-2.6c5.6,0,6.9,3.5,6.9,7.3
		C667.5,70.9,667.4,72,667.2,73z"/>
</g>
<g>
	<path class="st0" d="M157.3,228.7l-1.2,6.6c-0.1,0.6-0.8,1.2-1.4,1.2h-3.3l-1.3,7.8c-0.1,0.6-0.8,1.2-1.4,1.2h-9.5
		c-0.6,0-0.9-0.4-0.9-0.9c0-0.1,0-0.2,0-0.2l1.3-7.8h-16.1c-0.6,0-0.9-0.4-0.9-0.9c0-0.1,0-0.2,0-0.2l1.2-6.5
		c0.1-0.6,0.4-1.2,0.9-1.7l22.9-24c0.5-0.5,0.9-0.5,1.5-0.5h7.1c0.6,0,0.9,0.4,0.9,0.9c0,0.1,0,0.2,0,0.2l-4.2,23.9h3.3
		c0.6,0,1,0.4,1,1C157.3,228.6,157.3,228.6,157.3,228.7z M143.6,216.4C143.5,216.4,143.5,216.4,143.6,216.4l-10,10.6
		c-0.1,0.1-0.2,0.3-0.2,0.5c0,0.1,0,0.1,0.1,0.1h8.3l1.9-10.8c0-0.1,0-0.1,0-0.1C143.6,216.5,143.6,216.4,143.6,216.4z"/>
	<path class="st0" d="M197.3,204.8l-1.1,6.1c-0.1,0.8-0.5,1.2-1.2,1.2c-0.1,0-0.2,0-0.3,0c-2.7-0.4-6.8-0.8-10.2-0.8
		c-4.7,0-6.5,1.2-7.4,6.6l-0.1,0.3c1.2-0.2,4-0.6,5.7-0.6c7.6,0,12.4,3.6,12.4,10.2c0,11.4-7,18-18.4,18c-8.3,0-13.5-5-13.5-12.6
		c0-1,0.1-2.3,0.3-3.5l1.9-11c2.3-13,9.4-16.9,19.1-16.9c5.4,0,9.1,0.8,11.8,1.5c0.7,0.2,1.1,0.5,1.1,1.1
		C197.3,204.6,197.3,204.7,197.3,204.8z M179.7,225.6c-1.4,0-3.1,0.2-4.1,0.3l-0.6,3.9c-0.2,1.5-0.3,2.5-0.3,3.5
		c0,3.1,1.2,3.9,3.3,3.9c4.5,0,5.6-4.8,5.6-8.5C183.5,226.2,182.1,225.6,179.7,225.6z"/>
</g>
</svg>
