<?xml version="1.0" encoding="utf-8"?>
<!-- Generator: Adobe Illustrator 19.2.1, SVG Export Plug-In . SVG Version: 6.00 Build 0)  -->
<svg version="1.1" id="Capa_1" xmlns="http://www.w3.org/2000/svg" xmlns:xlink="http://www.w3.org/1999/xlink" x="0px" y="0px"
	 viewBox="0 0 716.7 223.3" style="enable-background:new 0 0 716.7 223.3;" xml:space="preserve">
<style type="text/css">
	.st0{display:none;fill:#C4122E;}
	.st1{fill:#F000A6;}
	.st2{fill:url(#SVGID_1_);}
	.st3{fill:none;}
	.st4{fill:#FFFFFF;}
	.st5{fill:#E52A1B;}
	.st6{fill:#92BCCB;}
	.st7{fill:#007C9A;}
	.st8{fill:#C9DDE4;}
	.st9{fill:#005D83;}
	.st10{fill:#E30613;}
	.st11{fill:#1D1D1B;}
</style>
<path class="st0" d="M116.1,103c5.4,0.1,9.7-3.9,9.8-9.5c0.1-5.4-4.3-9.6-9.7-9.6c-5.8,0-9.8,4.4-9.8,9.6
	C106.4,98.8,110.6,103.1,116.1,103z M70,98.5c0,1.1,0,2.3,0,3.5c0,0.2,0.3,0.5,0.5,0.5c0.7,0.1,1.4,0.2,2.1,0.3c2,0.2,4,0.2,5.9-0.4
	c4.3-1.4,5.2-6.2,2.9-8.9c-1-1.1-2.3-1.7-3.6-2.1c-0.7-0.2-1.5-0.4-2.1-0.8c-0.4-0.3-0.8-0.9-0.8-1.3s0.6-1,1-1.1
	c0.9-0.2,1.9-0.3,2.8-0.3s1.7,0.3,2.7,0.4c0-1.1,0-2.1,0-3.1c0-0.6-0.2-0.8-0.7-0.9c-1.9-0.3-3.9-0.6-5.9-0.2
	c-3.3,0.6-5.4,3.4-4.8,6.7c0.5,2.4,2.2,3.5,4.3,4.2c0.8,0.3,1.6,0.5,2.4,0.9c0.6,0.3,1.1,0.8,1,1.5c-0.1,0.8-0.6,1.1-1.2,1.3
	c-0.4,0.1-0.8,0.2-1.2,0.2C73.5,98.8,71.8,98.7,70,98.5z M101.3,89.3c0-1.5,0-2.9,0-4.3c0-0.2-0.3-0.6-0.5-0.7
	c-2.3-0.7-4.6-0.8-6.9-0.1c-3.7,1.2-6,3.8-6.5,7.7c-0.5,3.4,0.5,6.4,3.1,8.6c3.2,2.7,6.9,2.8,10.8,1.7c0-1.6,0-3.2,0-4.6
	c-1.4,0.2-2.8,0.5-4.2,0.6c-2.3,0.1-4.5-1.8-4.7-3.9c-0.4-2.9,1-5.2,3.6-5.8C97.8,88.1,99.5,88.5,101.3,89.3z M52.4,97.8
	c-1.5,0.2-2.9,0.5-4.3,0.5c-3,0.1-5.3-3-4.7-5.9c0.7-3.3,3.6-4.4,6.3-3.9c0.9,0.1,1.7,0.5,2.7,0.7c0-1.5,0-2.9,0-4.3
	c0-0.2-0.3-0.5-0.6-0.6c-1.7-0.5-3.5-0.6-5.3-0.4c-5.9,0.8-9.5,6.3-7.8,12.3c1.7,6.1,8.2,7.8,13.3,6.2c0.1,0,0.3-0.3,0.3-0.4
	C52.4,100.5,52.4,99.1,52.4,97.8z M110,61.3c0-4.1,0-8.2,0-12.3c0-1.6-1.5-2.7-3-2.2c-1,0.3-1.6,1.3-1.6,2.7c0,7.9,0,15.8,0,23.7
	c0,0.2,0,0.4,0,0.5c0.2,1.4,1.2,2.3,2.4,2.2c1.3-0.1,2.1-1,2.1-2.5C110,69.4,110,65.3,110,61.3z M58.8,61.3L58.8,61.3
	c0-4.2,0-8.3,0-12.5c0-1.1-0.7-1.9-1.9-2.1c-1-0.2-2,0.4-2.4,1.3c-0.2,0.5-0.2,1.1-0.2,1.7c0,6.9,0,13.9,0,20.8c0,1,0,2,0,3.1
	c0.1,1.5,1,2.4,2.3,2.3c1.2,0,2.3-1,2.2-2.5C58.7,69.4,58.8,65.4,58.8,61.3z M63.4,102.6c0-6.2,0-12.2,0-18.3c-1.5,0-3,0-4.5,0
	c0,6.1,0,12.2,0,18.3C60.5,102.6,62,102.6,63.4,102.6z M46,63.4c0-1.9,0-3.7,0-5.6c0-1.3-0.8-2.2-2-2.4c-1-0.2-2.1,0.6-2.4,1.7
	c-0.1,0.6-0.2,1.2-0.2,1.8c0,3.3,0,6.6,0,9.9c0,1.4,1.1,2.6,2.3,2.6c1.1-0.1,2.3-0.9,2.3-2.6C46,67,46,65.2,46,63.4z M122.7,63.4
	c0-1.9,0-3.8,0-5.7c0-1.1-0.5-1.7-1.5-2.1c-0.9-0.3-1.9-0.2-2.5,0.7c-0.4,0.6-0.6,1.3-0.6,2c-0.1,3.4,0,6.8,0,10.1
	c0,0.3,0,0.6,0.1,0.9c0.2,1.2,1.3,2.1,2.4,2c1.2-0.1,2.1-1,2.1-2.3C122.7,67.1,122.7,65.2,122.7,63.4z M92.6,63.4c0,1.8,0,3.6,0,5.4
	c0,1.5,1,2.6,2.3,2.6s2.3-1.1,2.3-2.6c0-3.6,0-7.2,0-10.8c0-1.5-1-2.6-2.3-2.5c-1.3,0-2.3,1.1-2.3,2.6
	C92.6,59.8,92.6,61.6,92.6,63.4z M71.6,63.4C71.6,63.4,71.5,63.4,71.6,63.4c0-2,0-4,0-6c0-1.1-1.2-2-2.3-1.9c-1.1,0.1-2.1,1-2.1,2.1
	c0,3.9,0,7.8,0,11.7c0,0.8,0.4,1.4,1.1,1.8c1.5,0.8,3.2-0.1,3.3-1.8C71.6,67.3,71.6,65.3,71.6,63.4z M79.8,66.6c0,0.8,0,1.7,0,2.5
	c0,1.2,0.9,2.1,2.1,2.3c1,0.1,2.2-0.7,2.3-1.8c0.1-1.9,0.2-3.9,0-5.8c-0.1-1.3-1.2-2-2.5-1.8c-1.1,0.1-1.9,1.1-1.9,2.3
	C79.8,65,79.8,65.8,79.8,66.6z M33.3,66.6c0-0.8,0-1.6,0-2.4c0-1.4-1-2.3-2.3-2.3s-2.3,0.9-2.3,2.3c0,1.6,0,3.2,0,4.7
	c0,1.3,1.1,2.4,2.3,2.4c1.2,0,2.3-1.1,2.3-2.4C33.3,68.2,33.3,67.4,33.3,66.6z M135.5,66.5L135.5,66.5c0-0.9,0-1.8,0-2.7
	c-0.1-1.2-1-2-2.2-2s-2.2,0.9-2.2,2c0,1.8,0,3.5,0,5.3c0,1.2,1,2.1,2.2,2.2c1.1,0,2.2-0.9,2.2-2.1C135.5,68.3,135.5,67.4,135.5,66.5
	z M133.2,102.4C133.2,102.4,133.3,102.4,133.2,102.4c0.1-0.5,0.2-1,0.2-1.8c0.3,0.8,0.6,1.4,0.9,2.2c0.3-0.8,0.6-1.3,0.8-1.9
	c0.1,0,0.1,0,0.2,0c0,0.5,0,1,0,1.5h0.1c0-0.7,0-1.4,0-2.1c-0.1,0-0.2,0-0.2-0.1c-0.3,0.6-0.5,1.3-0.8,1.9c-0.3-0.7-0.6-1.3-0.8-2
	c-0.1,0-0.2,0.1-0.3,0.1C133.2,101.1,133.2,101.8,133.2,102.4z M132.3,100.4c-0.2,0-0.7,0-1.3,0c0.4,0.1,0.6,0.2,0.9,0.2
	c0,0.7,0,1.3,0,2h0.1C132,101.8,132.2,101.1,132.3,100.4z"/>
<g>
	<path class="st1" d="M43.3,191.4l2.4-14l-5.7,1.8c-0.3,0.1-0.5,0.1-0.6,0.1c-0.3,0-0.4-0.2-0.4-0.5l1.4-7.6
		c0.1-0.4,0.3-0.7,0.8-0.9l8.7-3.1c0.4-0.1,0.6-0.2,1-0.2h6.3c0.5,0,0.8,0.4,0.7,0.9l-4.1,23.6h5.4c0.5,0,0.9,0.4,0.8,0.9l-1.3,7.2
		c-0.1,0.5-0.6,0.9-1.1,0.9H36.2c-0.5,0-0.9-0.4-0.8-0.9l1.3-7.2c0.1-0.5,0.6-0.9,1.1-0.9h5.5V191.4z"/>
	<path class="st1" d="M93.3,169l-1,5.6c-0.1,0.6-0.5,0.9-1,0.9c0,0-0.1,0-0.2,0c-2.1-0.3-5.7-0.6-8.3-0.6c-2.9,0-3.7,0.5-4.4,3.8
		v0.2c0.6-0.1,2.6-0.3,3.4-0.3c5.8,0,9.9,2.2,9.9,7.8c0,9.3-5.3,14.4-14.8,14.4c-7.4,0-10.8-4.5-10.8-9.7c0-0.7,0-1.4,0.2-2.2
		l1.8-10.3c1.8-10.1,8.4-12.2,14.8-12.2c4.3,0,7.3,0.6,9.7,1.4c0.5,0.2,0.8,0.4,0.8,0.9C93.3,168.8,93.3,169,93.3,169z M79.4,185.5
		c-0.9,0-1.8,0.1-2.2,0.1l-0.6,3.3c-0.1,0.8-0.2,1.4-0.2,1.9c0,1.8,0.7,2.2,1.7,2.2c2.4,0,3.1-2.6,3.1-5.6
		C81.2,186,80.6,185.5,79.4,185.5z"/>
	<path class="st1" d="M119.8,183.1c1.4,1.3,2.3,3.6,2.3,5.6c0,8.5-7.1,12.1-14.7,12.1h-0.5c-7.9,0-11.3-4.4-11.3-8.6
		c0-4,2-7,4.9-9.1c-1.6-1.5-2.2-3.6-2.2-5.3c0-8.7,6.6-11.3,14.4-11.3h0.5c8,0,11.1,4,11.1,8.1C124.3,178.2,122.7,181.1,119.8,183.1
		z M109.7,186.7h-0.5c-2.3,0-3.2,2.3-3.2,4.3c0,1.3,0.8,2.2,2.1,2.2h0.5c2.3,0,3.2-2.4,3.2-4.4C111.8,187.4,111.1,186.7,109.7,186.7
		z M112,174.2h-0.5c-2.1,0-3.1,1.5-3.1,3.6c0,1.3,0.9,2,2.1,2h0.5c2.1,0,3-1.4,3-3.3C114,175.3,113.6,174.2,112,174.2z"/>
</g>
<g>
	<path class="st1" d="M409.2,169l-1,5.6c-0.1,0.6-0.4,0.9-1,0.9c0,0-0.1,0-0.2,0c-2.1-0.3-5.7-0.6-8.3-0.6c-2.9,0-3.7,0.5-4.4,3.8
		v0.2c0.6-0.1,2.6-0.3,3.4-0.3c5.8,0,9.9,2.2,9.9,7.8c0,9.3-5.3,14.4-14.8,14.4c-7.4,0-10.8-4.5-10.8-9.7c0-0.7,0-1.4,0.2-2.2
		l1.8-10.3c1.8-10.1,8.4-12.2,14.8-12.2c4.3,0,7.3,0.6,9.7,1.4c0.5,0.2,0.8,0.4,0.8,0.9C409.3,168.8,409.2,169,409.2,169z
		 M395.4,185.5c-0.9,0-1.8,0.1-2.2,0.1l-0.6,3.3c-0.1,0.8-0.2,1.4-0.2,1.9c0,1.8,0.7,2.2,1.7,2.2c2.4,0,3.1-2.6,3.1-5.6
		C397.1,186,396.5,185.5,395.4,185.5z"/>
	<path class="st1" d="M439.4,169l-1,5.6c-0.1,0.6-0.4,0.9-1,0.9c0,0-0.1,0-0.2,0c-2.1-0.3-5.7-0.6-8.3-0.6c-2.9,0-3.7,0.5-4.4,3.8
		v0.2c0.6-0.1,2.6-0.3,3.4-0.3c5.8,0,9.9,2.2,9.9,7.8c0,9.3-5.3,14.4-14.8,14.4c-7.4,0-10.8-4.5-10.8-9.7c0-0.7,0-1.4,0.2-2.2
		l1.8-10.3c1.8-10.1,8.4-12.2,14.8-12.2c4.3,0,7.3,0.6,9.7,1.4c0.5,0.2,0.8,0.4,0.8,0.9C439.4,168.8,439.4,169,439.4,169z
		 M425.5,185.5c-0.9,0-1.8,0.1-2.2,0.1l-0.6,3.3c-0.1,0.8-0.2,1.4-0.2,1.9c0,1.8,0.7,2.2,1.7,2.2c2.4,0,3.1-2.6,3.1-5.6
		C427.3,186,426.6,185.5,425.5,185.5z"/>
</g>
<g>
	<path class="st1" d="M247.5,167.8l-3.2,18.2h2.3c0.5,0,0.8,0.3,0.8,0.8v0.1l-1.1,6.2c-0.1,0.5-0.6,0.9-1.1,0.9H243l-0.9,5.5
		c-0.1,0.5-0.6,0.9-1.1,0.9h-8.8c-0.4,0-0.7-0.3-0.7-0.7c0-0.1,0-0.1,0-0.2l0.9-5.5h-12.1c-0.5,0-0.7-0.3-0.7-0.7c0-0.1,0-0.1,0-0.2
		l1-5.8c0.1-0.5,0.3-0.9,0.7-1.3l18.3-18.8c0.2-0.2,0.4-0.2,0.6-0.2c0.1,0,0.3,0,0.4,0h6.3c0.5,0,0.7,0.3,0.7,0.7
		C247.5,167.7,247.5,167.8,247.5,167.8z M228.4,186h5.8l1.3-7.3L228.4,186z"/>
	<path class="st1" d="M258.5,191.4l2.4-14l-5.7,1.8c-0.3,0.1-0.5,0.1-0.6,0.1c-0.3,0-0.4-0.2-0.4-0.5l1.4-7.6
		c0.1-0.4,0.3-0.7,0.8-0.9l8.7-3.1c0.4-0.1,0.6-0.2,1-0.2h6.3c0.5,0,0.8,0.4,0.7,0.9l-4.1,23.6h5.4c0.5,0,0.9,0.4,0.8,0.9l-1.3,7.2
		c-0.1,0.5-0.6,0.9-1.1,0.9h-21.5c-0.5,0-0.9-0.4-0.8-0.9l1.3-7.2c0.1-0.5,0.6-0.9,1.1-0.9h5.6V191.4z"/>
</g>
<g>
	<path class="st1" d="M570.2,191.4l2.4-14l-5.7,1.8c-0.3,0.1-0.5,0.1-0.6,0.1c-0.3,0-0.4-0.2-0.4-0.5l1.4-7.6
		c0.1-0.4,0.3-0.7,0.8-0.9l8.7-3.1c0.4-0.1,0.6-0.2,1-0.2h6.3c0.5,0,0.8,0.4,0.7,0.9l-4.1,23.6h5.4c0.5,0,0.9,0.4,0.8,0.9l-1.3,7.2
		c-0.1,0.5-0.6,0.9-1.1,0.9H563c-0.5,0-0.9-0.4-0.8-0.9l1.3-7.2c0.1-0.5,0.6-0.9,1.1-0.9h5.6V191.4z"/>
	<path class="st1" d="M619.9,178.4l-1.8,10.3c-1.8,10.1-8.4,12.2-14.8,12.2c-4.3,0-7.3-0.6-9.7-1.4c-0.5-0.2-0.8-0.4-0.8-0.9
		c0-0.1,0-0.2,0-0.3l1-5.6c0.1-0.6,0.5-0.9,1-0.9c0,0,0.1,0,0.2,0c2.1,0.3,5.7,0.6,8.3,0.6c2.9,0,3.7-0.5,4.4-3.8v-0.2
		c-0.6,0.1-2.6,0.3-3.4,0.3c-5.8,0-9.9-2.2-9.9-7.8c0-9.3,5.3-14.4,14.8-14.4c7.4,0,10.8,4.5,10.8,9.7
		C620.1,176.9,620,177.6,619.9,178.4z M608,174.3c-2.4,0-3.1,2.6-3.1,5.6c0,1.4,0.6,1.9,1.8,1.9c0.9,0,1.8-0.1,2.2-0.1l0.6-3.3
		c0.1-0.8,0.2-1.4,0.2-1.9C609.7,174.7,609,174.3,608,174.3z"/>
</g>
<path class="st1" d="M76,132.3h4.9c5.1,7.1,8.9,8.4,18.5,8.4h27.5c11.3,0,14.8,4.3,14.8,16.6v6.2c0,1.5-0.9,2.6-2.3,2.6h-1.1
	c-1.3,0-2.2-1.1-2.2-2.6v-6.2c0-9-1.5-10.6-9.3-10.6H99.3c-9.6,0-15.5-1.8-21-8.6c-5.3,6.6-11.2,8.6-20.8,8.6H30
	c-7.8,0-9.3,1.6-9.3,10.6v6.2c0,1.5-0.8,2.6-2.2,2.6h-1.1c-1.3,0-2.3-1.1-2.3-2.6v-6.2c0-12.5,3.5-16.6,14.8-16.6h27.5
	C67.1,140.6,70.8,139.4,76,132.3"/>
<path class="st1" d="M244.7,132.3h4.9c5.1,7.1,8.9,8.4,18.5,8.4h27.5c11.3,0,14.8,4.3,14.8,16.6v6.2c0,1.5-0.9,2.6-2.3,2.6H307
	c-1.3,0-2.2-1.1-2.2-2.6v-6.2c0-9-1.5-10.6-9.3-10.6H268c-9.6,0-15.5-1.8-21-8.6c-5.3,6.6-11.2,8.6-20.8,8.6h-27.5
	c-7.8,0-9.3,1.6-9.3,10.6v6.2c0,1.5-0.8,2.6-2.2,2.6h-1.1c-1.3,0-2.3-1.1-2.3-2.6v-6.2c0-12.5,3.5-16.6,14.8-16.6h27.5
	C235.8,140.6,239.6,139.4,244.7,132.3"/>
<path class="st1" d="M410.8,132.3h4.9c5.1,7.1,8.9,8.4,18.5,8.4h27.5c11.3,0,14.8,4.3,14.8,16.6v6.2c0,1.5-0.9,2.6-2.3,2.6H473
	c-1.3,0-2.2-1.1-2.2-2.6v-6.2c0-9-1.5-10.6-9.3-10.6H434c-9.6,0-15.5-1.8-21-8.6c-5.3,6.6-11.2,8.6-20.8,8.6h-27.5
	c-7.8,0-9.3,1.6-9.3,10.6v6.2c0,1.5-0.8,2.6-2.2,2.6h-1.1c-1.3,0-2.3-1.1-2.3-2.6v-6.2c0-12.5,3.5-16.6,14.8-16.6h27.5
	C401.9,140.6,405.6,139.4,410.8,132.3"/>
<path class="st1" d="M597.7,132.3h4.9c5.1,7.1,8.9,8.4,18.5,8.4h27.5c11.3,0,14.8,4.3,14.8,16.6v6.2c0,1.5-0.9,2.6-2.3,2.6H660
	c-1.3,0-2.2-1.1-2.2-2.6v-6.2c0-9-1.5-10.6-9.3-10.6H621c-9.6,0-15.5-1.8-21-8.6c-5.3,6.6-11.2,8.6-20.8,8.6h-27.5
	c-7.8,0-9.3,1.6-9.3,10.6v6.2c0,1.5-0.8,2.6-2.2,2.6h-1.1c-1.3,0-2.3-1.1-2.3-2.6v-6.2c0-12.5,3.5-16.6,14.8-16.6h27.5
	C588.8,140.6,592.6,139.4,597.7,132.3"/>
<g>
	
		<linearGradient id="SVGID_1_" gradientUnits="userSpaceOnUse" x1="565.09" y1="-4683.0249" x2="621.7382" y2="-4626.3765" gradientTransform="matrix(-1 0 0 -1 672.8145 -4575.5303)">
		<stop  offset="0" style="stop-color:#52C2F0"/>
		<stop  offset="0.1077" style="stop-color:#49BCEC"/>
		<stop  offset="0.2849" style="stop-color:#30AAE1"/>
		<stop  offset="0.5086" style="stop-color:#088ECF"/>
		<stop  offset="0.5476" style="stop-color:#0089CC"/>
		<stop  offset="1" style="stop-color:#006B99"/>
	</linearGradient>
	<path class="st2" d="M50.1,53.2c0-1.8,1.5-3.4,3.4-3.4h51.8c1.9,0,3.4,1.5,3.4,3.4v51.9c0,1.8-1.5,3.4-3.4,3.4H53.5
		c-1.9,0-3.4-1.5-3.4-3.4V53.2z"/>
	<g>
		<polygon class="st3" points="57.6,100.3 60.3,100.3 59,96.9 		"/>
		<path class="st3" d="M80,100c-0.1-1-0.6-1.6-1.5-1.6c-0.8,0-1.4,0.6-1.5,1.6H80z"/>
		<path class="st3" d="M78.9,93.7c1,0,1.5-0.7,1.5-2c0-1.2-0.6-2-1.5-2c-1,0-1.5,0.7-1.5,2C77.3,92.9,77.9,93.7,78.9,93.7z"/>
		<path class="st3" d="M66.1,91.4c-0.1-1-0.6-1.6-1.5-1.6c-0.8,0-1.4,0.6-1.5,1.6H66.1z"/>
		<path class="st3" d="M73.5,98.4c-0.9,0-1.5,0.7-1.5,2c0,1.2,0.5,1.9,1.5,1.9c0.7,0,1.5-0.5,1.5-1.9C75,99.1,74.4,98.4,73.5,98.4z"
			/>
		<path class="st3" d="M70.1,100.2l-1.1,0.2c-1.1,0.2-1.3,0.5-1.3,1c0,0.5,0.4,0.8,1.1,0.8c0.7,0,1.4-0.5,1.4-1.3V100.2z"/>
		<path class="st3" d="M97.3,89.8c-0.9,0-1.5,0.7-1.5,1.8c0,1.1,0.6,1.8,1.5,1.8c0.9,0,1.5-0.6,1.5-1.8
			C98.8,90.5,98.2,89.8,97.3,89.8z"/>
		<polygon class="st4" points="57.3,88.6 61,94.1 61,94.1 61.7,94.1 61.7,87.6 61.1,87.6 61.1,93.1 57.5,87.7 57.4,87.6 56.7,87.6 
			56.7,94.1 57.3,94.1 		"/>
		<path class="st4" d="M64.6,89.2c-1.3,0-2.2,1-2.2,2.5c0,1.5,0.9,2.5,2.2,2.5c1,0,1.7-0.5,2-1.4l0-0.1h-0.7l0,0.1
			c-0.2,0.6-0.7,0.9-1.3,0.9c-1,0-1.6-0.7-1.6-1.7h3.7v-0.1C66.8,90.2,66,89.2,64.6,89.2z M64.6,89.8c0.9,0,1.4,0.6,1.5,1.6h-3
			C63.2,90.4,63.8,89.8,64.6,89.8z"/>
		<path class="st4" d="M67.9,93.1c0,0.7,0.4,1.1,1.1,1.1c0.2,0,0.4,0,0.6-0.1l0.1,0v-0.5l-0.1,0c-0.2,0.1-0.4,0.1-0.5,0.1
			c-0.3,0-0.5-0.2-0.5-0.6v-3.2h1.1v-0.6h-1.1v-1.1h-0.6l0,1.1h-0.7v0.6h0.7V93.1z"/>
		<polygon class="st4" points="73.2,90.2 74.4,94 74.4,94.1 75.1,94.1 76.4,89.4 75.8,89.4 74.7,93.2 73.6,89.4 73.5,89.4 
			72.8,89.4 71.7,93.3 70.5,89.4 70.5,89.4 69.9,89.4 71.3,94.1 72,94.1 		"/>
		<path class="st4" d="M78.9,89.2c-1.3,0-2.2,1-2.2,2.5c0,1.5,0.9,2.5,2.2,2.5c1.3,0,2.2-1,2.2-2.5C81,90.2,80.2,89.2,78.9,89.2z
			 M78.9,89.8c1,0,1.5,0.7,1.5,2c0,1.2-0.6,2-1.5,2c-0.9,0-1.5-0.7-1.5-2C77.3,90.5,77.9,89.8,78.9,89.8z"/>
		<path class="st4" d="M82.5,91.5c0-1,0.5-1.7,1.2-1.7c0.2,0,0.3,0,0.5,0.1l0.1,0v-0.6l0,0c-0.1,0-0.3-0.1-0.5-0.1
			c-0.5,0-1,0.3-1.2,0.8l-0.1-0.6h-0.5v4.7h0.6V91.5z"/>
		<polygon class="st4" points="86,91.4 88.5,89.4 87.6,89.4 85.5,91.1 85.5,87.6 84.9,87.6 84.9,94.1 85.5,94.1 85.5,91.8 
			87.9,94.1 87.9,94.1 88.7,94.1 		"/>
		<rect x="89.2" y="89.4" class="st4" width="0.6" height="4.7"/>
		<rect x="89.1" y="87.6" class="st4" width="0.7" height="0.8"/>
		<path class="st4" d="M92.9,89.2c-0.6,0-1.1,0.3-1.5,0.7l0-0.6h-0.5v4.7h0.6v-2.9c0-0.9,0.7-1.4,1.3-1.4c0.7,0,1.1,0.4,1.1,1.1v3.2
			h0.6v-3.2C94.5,89.9,93.9,89.2,92.9,89.2z"/>
		<path class="st4" d="M98.8,89.4L98.8,90c-0.3-0.5-0.9-0.8-1.5-0.8c-1.2,0-2,1-2,2.4c0,1.6,1,2.3,2,2.3c0.6,0,1.2-0.3,1.5-0.7V94
			c0,0.8-0.5,1.3-1.4,1.3c-0.4,0-1.2-0.1-1.3-0.8l0-0.1h-0.7l0,0.1c0.2,0.9,0.9,1.3,2,1.3c1.2,0,2-0.7,2-1.8v-4.6H98.8z M98.8,91.6
			c0,1.1-0.5,1.8-1.5,1.8c-0.9,0-1.5-0.7-1.5-1.8c0-1.1,0.5-1.8,1.5-1.8C98.2,89.8,98.8,90.5,98.8,91.6z"/>
		<path class="st4" d="M58.6,96.2l-2.6,6.4l0,0.1h0.7l0.7-1.8h3.1l0.7,1.8h0.7l-2.6-6.5H58.6z M60.3,100.3h-2.6l1.3-3.4L60.3,100.3z
			"/>
		<path class="st4" d="M65.6,101.2c-0.1,0.6-0.6,1-1.3,1c-0.7,0-1.5-0.5-1.5-1.9c0-1.2,0.6-2,1.5-2c0.6,0,1.1,0.4,1.2,0.9l0,0.1h0.7
			l0-0.1c-0.2-0.9-0.9-1.5-1.9-1.5c-1.3,0-2.1,1-2.1,2.5c0,1.5,0.8,2.4,2.1,2.4c1,0,1.8-0.6,2-1.5l0-0.1L65.6,101.2L65.6,101.2z"/>
		<path class="st4" d="M68.9,97.8c-1,0-1.8,0.6-1.8,1.4l0,0.1h0.6l0-0.1c0.1-0.5,0.5-0.9,1.2-0.9c0.7,0,1.2,0.4,1.2,1v0.3l-1.3,0.2
			c-1.3,0.2-1.8,0.7-1.8,1.5c0,0.8,0.6,1.4,1.6,1.4c0.8,0,1.3-0.4,1.6-0.7l0.1,0.6h0.5v-3.3C70.7,98.4,70,97.8,68.9,97.8z
			 M68.7,102.2c-0.7,0-1.1-0.3-1.1-0.8c0-0.5,0.2-0.8,1.3-1l1.1-0.2v0.8C70.1,101.7,69.3,102.2,68.7,102.2z"/>
		<path class="st4" d="M74.9,98.6c-0.3-0.5-0.9-0.7-1.5-0.7c-1,0-2,0.7-2,2.5c0,1.5,0.8,2.4,2,2.4c0.7,0,1.2-0.3,1.6-0.8l0.1,0.7
			h0.5v-6.5h-0.6V98.6z M73.5,102.2c-0.9,0-1.5-0.7-1.5-1.9c0-1.2,0.5-2,1.5-2c0.9,0,1.5,0.7,1.5,1.9
			C75,101.7,74.2,102.2,73.5,102.2z"/>
		<path class="st4" d="M78.5,97.8c-1.3,0-2.2,1-2.2,2.5s0.9,2.5,2.2,2.5c1,0,1.7-0.5,2-1.4l0-0.1h-0.7l0,0.1
			c-0.2,0.6-0.7,0.9-1.3,0.9c-1,0-1.6-0.7-1.6-1.7h3.7v-0.1C80.6,98.8,79.8,97.8,78.5,97.8z M78.5,98.4c0.9,0,1.4,0.6,1.5,1.6h-3
			C77.1,99,77.6,98.4,78.5,98.4z"/>
		<path class="st4" d="M86.2,97.8c-0.6,0-1.2,0.3-1.5,0.8c-0.2-0.5-0.7-0.8-1.4-0.8c-0.6,0-1,0.3-1.3,0.7l0-0.5h-0.5v4.7H82v-2.9
			c0-0.8,0.5-1.4,1.2-1.4c0.7,0,1,0.4,1,1.1v3.2h0.6v-2.9c0-0.8,0.5-1.4,1.2-1.4c0.7,0,1,0.4,1,1.1v3.2h0.6v-3.2
			C87.7,98.4,87.1,97.8,86.2,97.8z"/>
		<path class="st4" d="M90.4,102l-1.6-4l0,0h-0.7l1.9,4.7l0,0h0.1c-0.3,0.9-0.4,1.2-0.7,1.2c-0.1,0-0.3,0-0.4-0.1l-0.1,0v0.5l0.1,0
			c0.2,0.1,0.3,0.1,0.5,0.1c0.7,0,0.9-0.5,1.3-1.7l1.6-4.6l0-0.1h-0.6L90.4,102z"/>
	</g>
	<g>
		<path class="st4" d="M83.6,59.3c0-0.3-0.3-0.6-0.6-0.6c-0.3,0-0.6,0.3-0.6,0.6v1.2c0,0.3,0.3,0.6,0.6,0.6c0.3,0,0.6-0.3,0.6-0.6
			V59.3z M80.4,57.7c0-0.3-0.3-0.6-0.6-0.6c-0.3,0-0.6,0.3-0.6,0.6v2.8c0,0.3,0.3,0.6,0.6,0.6c0.3,0,0.6-0.3,0.6-0.6V57.7z
			 M77.1,55.5c0-0.3-0.3-0.6-0.6-0.6c-0.3,0-0.6,0.3-0.6,0.6v6.2c0,0.3,0.3,0.6,0.6,0.6c0.3,0,0.6-0.3,0.6-0.6V55.5z M73.9,57.7
			c0-0.3-0.3-0.6-0.6-0.6c-0.3,0-0.6,0.3-0.6,0.6v2.8c0,0.3,0.3,0.6,0.6,0.6c0.3,0,0.6-0.3,0.6-0.6V57.7z M70.7,59.3
			c0-0.3-0.3-0.6-0.6-0.6c-0.3,0-0.6,0.3-0.6,0.6v1.2c0,0.3,0.3,0.6,0.6,0.6c0.3,0,0.6-0.3,0.6-0.6V59.3z M67.5,57.7
			c0-0.3-0.3-0.6-0.6-0.6c-0.3,0-0.6,0.3-0.6,0.6v2.8c0,0.3,0.3,0.6,0.6,0.6c0.3,0,0.6-0.3,0.6-0.6V57.7z M64.3,55.5
			c0-0.3-0.3-0.6-0.6-0.6c-0.3,0-0.6,0.3-0.6,0.6v6.2c0,0.3,0.3,0.6,0.6,0.6c0.3,0,0.6-0.3,0.6-0.6V55.5z M61,57.7
			c0-0.3-0.3-0.6-0.6-0.6c-0.3,0-0.6,0.3-0.6,0.6v2.8c0,0.3,0.3,0.6,0.6,0.6c0.3,0,0.6-0.3,0.6-0.6V57.7z M57.8,60.5
			c0,0.3-0.3,0.6-0.6,0.6c-0.3,0-0.6-0.3-0.6-0.6v-1.2c0-0.3,0.3-0.6,0.6-0.6c0.3,0,0.6,0.3,0.6,0.6V60.5z"/>
		<path class="st4" d="M69.9,64.4c0,0-0.6-0.1-1.1-0.1c-1.1,0-1.7,0.6-1.7,1.5c0,0.8,0.6,1.2,1.2,1.4c0.1,0,0.2,0.1,0.3,0.1
			c0.3,0.1,0.5,0.2,0.5,0.5c0,0.3-0.3,0.4-0.9,0.4c-0.5,0-1-0.1-1.1-0.2V69c0.1,0,0.6,0.1,1.3,0.1c0.9,0,1.9-0.4,1.9-1.6
			c0-0.6-0.3-1.1-1.1-1.3l-0.3-0.1c-0.2-0.1-0.5-0.2-0.5-0.4c0-0.2,0.3-0.4,0.7-0.4c0.4,0,0.9,0.1,0.9,0.1V64.4z M79.9,66.7
			c0,0.7-0.5,1.2-1.2,1.2c-0.7,0-1.2-0.6-1.2-1.2c0-0.7,0.5-1.2,1.2-1.2C79.4,65.4,79.9,66,79.9,66.7 M78.7,64.2
			c-1.4,0-2.5,1.1-2.5,2.4c0,1.3,1,2.4,2.5,2.4c1.4,0,2.5-1.1,2.5-2.4C81.2,65.3,80.1,64.2,78.7,64.2 M62.6,64.4
			c-0.1,0-0.5-0.2-1.1-0.2c-1.4,0-2.5,1-2.5,2.4c0,1.5,1.2,2.4,2.5,2.4c0.5,0,0.9-0.1,1.1-0.2v-1.3c-0.1,0-0.4,0.2-1,0.2
			c-0.8,0-1.3-0.6-1.3-1.2c0-0.7,0.5-1.2,1.3-1.2c0.6,0,0.9,0.2,1,0.2V64.4z M75,64.4c-0.1,0-0.5-0.2-1.1-0.2c-1.4,0-2.5,1-2.5,2.4
			c0,1.5,1.2,2.4,2.5,2.4c0.5,0,0.9-0.1,1.1-0.2v-1.3c-0.1,0-0.4,0.2-1,0.2c-0.8,0-1.3-0.6-1.3-1.2c0-0.7,0.5-1.2,1.3-1.2
			c0.6,0,0.9,0.2,1,0.2V64.4z M65.5,69h-1.2v-4.7h1.2V69z"/>
	</g>
</g>
<g>
	<path class="st5" d="M270.3,50.8h-45.2c-3.9,0-5.8,2-5.8,5.8v35.5c0,4.7,3.5,6.1,5.1,6.7l22,9.5l1.4,0.6l1.4-0.6l22-9.5
		c1.5-0.6,5-2.1,5-6.7V56.6C276.1,52.8,274.1,50.8,270.3,50.8z"/>
	<g>
		<path class="st4" d="M225.6,95.8c-1-0.4-1.8-0.8-2.3-1.4l0,0c-0.5-0.6-0.8-1.4-0.8-2.4l0,0V69.3c0-1,0.1-1.6,0.5-2.1l0,0
			c0.5-0.4,1.1-0.5,2.1-0.5l0,0h45.2c1,0,1.6,0.1,2.1,0.5l0,0c0.4,0.5,0.5,1.1,0.5,2.1l0,0v22.8c0,1-0.3,1.8-0.8,2.4l0,0
			c-0.5,0.6-1.3,1-2.3,1.4l0,0l-22.1,9.6L225.6,95.8L225.6,95.8z"/>
	</g>
	<g>
		<path class="st4" d="M235,62.7c-1.9,0-3.3-1.3-3.3-3c0-1.7,1.5-3,3.3-3c1.9,0,3.3,1.3,3.3,3C238.3,61.4,236.8,62.7,235,62.7z
			 M235,57.9c-1.2,0-2.1,0.8-2.1,1.8c0,1,0.9,1.8,2.1,1.8c1.2,0,2.1-0.8,2.1-1.8C237.1,58.7,236.2,57.9,235,57.9z"/>
		<path class="st4" d="M246.9,62.7c-0.7,0-1.2-0.6-1.2-1.2V59c0-0.6-0.5-1.1-1.2-1.1c-0.6,0-1.1,0.5-1.1,1.1c0,0,0,0,0,3.7
			c-0.7,0-1.2-0.5-1.2-1.2V59c0-0.6-0.5-1.1-1.2-1.1c-0.6,0-1.1,0.5-1.1,1.1v2.5c0,0.7-0.5,1.2-1.2,1.2V59c0-1.3,1.1-2.3,2.4-2.3
			c0.7,0,1.3,0.3,1.8,0.8c0.4-0.5,1.1-0.8,1.8-0.8c1.3,0,2.4,1,2.4,2.3V62.7z"/>
		<path class="st4" d="M250.8,62.7c-0.3,0-0.6,0-0.9-0.1c-0.6-0.2-1-0.8-0.8-1.5c0-0.1,0.1-0.2,0.1-0.2l0,0c0.3,0.4,0.9,0.6,1.6,0.6
			c1.1,0,2-0.8,2-1.8c0-1-0.9-1.8-2-1.8c-1,0-2.1,0.6-2.1,1.9v3.9c0,0.7-0.6,1.2-1.2,1.2v-5.1c0-1.8,1.4-3.1,3.3-3.1
			c0.8,0,1.6,0.3,2.2,0.9c0.6,0.6,0.9,1.3,0.9,2.2C254,61.4,252.6,62.7,250.8,62.7z"/>
		<path class="st4" d="M259.4,55.6h-2.6v7.2h-0.1c-0.6,0-1.2-0.6-1.2-1.2v-5.9H253c-0.7,0-1.2-0.5-1.2-1.2h8.8
			C260.6,55.1,260.1,55.6,259.4,55.6z"/>
		<path class="st4" d="M269.8,62l-0.6-1.4h-4.3l-0.6,1.4c-0.3,0.6-1.1,0.7-1.7,0.7l3.5-7.7c0.2-0.4,0.6-0.7,1-0.7
			c0.4,0,0.8,0.3,1,0.7l3.5,7.6C270.7,62.7,270,62.5,269.8,62z M267.1,55.6l-1.7,3.8h3.2l-1.7-3.8L267.1,55.6z"/>
		<path class="st4" d="M230.3,56.7c-0.7-0.7-1.6-1.1-2.7-1.1c-1.9,0-3.4,1.4-3.4,3c0,1.7,1.5,3,3.4,3c0.9,0,1.7-0.3,2.4-0.9
			c0.4-0.4,1.1-0.3,1.5,0c-0.3,0.5-0.8,0.9-1.3,1.3c-0.8,0.5-1.7,0.7-2.6,0.7c-2.5,0-4.6-1.9-4.6-4.2c0-2.3,2.1-4.2,4.6-4.2
			c1.8,0,3.4,1,4.2,2.5C231.3,57.1,230.7,57.1,230.3,56.7z"/>
		<g>
			<path class="st4" d="M271.8,62.3c-0.4,0-0.6-0.3-0.6-0.6c0-0.3,0.3-0.6,0.6-0.6s0.6,0.3,0.6,0.6C272.5,62,272.2,62.3,271.8,62.3z
				 M271.8,61.3c-0.3,0-0.5,0.2-0.5,0.4c0,0.2,0.2,0.4,0.5,0.4c0.3,0,0.5-0.2,0.5-0.4C272.3,61.5,272.1,61.3,271.8,61.3z
				 M272.1,61.8C272.1,61.8,272,61.8,272.1,61.8c-0.1,0,0,0.1,0.1,0.2l0,0c0,0-0.1,0-0.2,0c-0.1-0.2-0.1-0.2-0.1-0.2s0,0-0.2,0v0
				c0-0.1,0.1-0.1,0.1-0.1h0.1c0.1,0,0.1,0,0.1,0c0,0,0,0,0,0c0,0,0-0.1-0.1-0.1c-0.2,0-0.2,0-0.2,0s0,0,0,0.4
				c0,0.1-0.1,0.1-0.1,0.1h0v-0.6c0-0.1,0.1-0.1,0.1-0.1h0.2c0.3,0,0.3,0.2,0.3,0.2C272.2,61.7,272.1,61.7,272.1,61.8z"/>
		</g>
		<path class="st4" d="M261,54.4v7.2c0,0.6,0.6,1.2,1.2,1.2v-7.2C262.2,54.9,261.7,54.4,261,54.4z"/>
	</g>
	<g>
		<path class="st6" d="M247.7,104.8l-21.9-9.5l0,0c-1-0.4-1.7-0.8-2.1-1.2l0,0l1.4-1.3l22.6,9.8V104.8z"/>
	</g>
	<path class="st7" d="M223.7,94.1L223.7,94.1c-0.4-0.5-0.6-1-0.6-2V69.3l0,0c0-1,0.1-1.5,0.4-1.7l0,0l1.7,1.7v23.5L223.7,94.1z"/>
	<path class="st6" d="M272,67.6L272,67.6c0.2,0.2,0.4,0.7,0.4,1.7v22.8l0,0c0,0.9-0.2,1.5-0.7,2l0,0l-1.4-1.3V69.3L272,67.6z"/>
	<path class="st8" d="M271.7,94.1L271.7,94.1c-0.4,0.5-1.1,0.9-2.1,1.2l-21.9,9.5v-2.2l22.6-9.8L271.7,94.1z"/>
	<path class="st9" d="M270.3,69.3l1.7-1.7l0,0c-0.2-0.2-0.7-0.4-1.7-0.4l0,0h-45.2c0,0,0,0-0.1,0l0,0c-0.9,0-1.4,0.1-1.6,0.4l0,0
		l1.7,1.7v23.5l22.6,9.8l22.6-9.8V69.3z"/>
	<g>
		<path class="st4" d="M228.6,76h0.7l2,4.6h-0.9l-0.5-1.1h-2.2l-0.5,1.1h-0.8L228.6,76z M229.8,78.8l-0.8-1.8l-0.8,1.8H229.8z"/>
		<path class="st4" d="M231.6,78.6V76h0.8v2.6c0,0.9,0.4,1.3,1.2,1.3c0.7,0,1.2-0.4,1.2-1.3V76h0.8v2.6c0,1.4-0.8,2.1-2,2.1
			C232.4,80.7,231.6,80,231.6,78.6z"/>
		<path class="st4" d="M237.4,76.7H236V76h3.7v0.7h-1.5v3.8h-0.8V76.7z"/>
		<path class="st4" d="M240.2,76h0.8v1.9h2.2V76h0.8v4.6h-0.8v-1.9H241v1.9h-0.8V76z"/>
		<path class="st4" d="M244.7,78.3L244.7,78.3c0-1.3,1-2.4,2.4-2.4c1.4,0,2.4,1.1,2.4,2.4v0c0,1.3-1,2.4-2.4,2.4
			C245.7,80.7,244.7,79.6,244.7,78.3z M248.7,78.3L248.7,78.3c0-0.9-0.6-1.6-1.6-1.6c-0.9,0-1.5,0.7-1.5,1.6v0
			c0,0.9,0.6,1.6,1.6,1.6C248,79.9,248.7,79.2,248.7,78.3z"/>
		<path class="st4" d="M250.2,76h2c0.6,0,1,0.2,1.3,0.5c0.2,0.2,0.4,0.6,0.4,1v0c0,0.8-0.5,1.2-1.1,1.4l1.2,1.7h-1L252,79h-1v1.6
			h-0.8V76z M252.1,78.3c0.6,0,0.9-0.3,0.9-0.8v0c0-0.5-0.4-0.8-1-0.8H251v1.5H252.1z"/>
		<path class="st4" d="M254.6,76h0.8v4.6h-0.8V76z"/>
		<path class="st4" d="M256.2,80l2.7-3.3h-2.6V76h3.7v0.6l-2.7,3.3h2.7v0.7h-3.8V80z"/>
		<path class="st4" d="M260.6,76h3.4v0.7h-2.6v1.2h2.3v0.7h-2.3v1.2h2.6v0.7h-3.4V76z"/>
		<path class="st4" d="M264.7,76h1.7c1.4,0,2.4,1,2.4,2.3v0c0,1.3-1,2.3-2.4,2.3h-1.7V76z M265.5,76.7v3.1h0.9c1,0,1.6-0.7,1.6-1.5
			v0c0-0.9-0.6-1.6-1.6-1.6H265.5z"/>
		<path class="st4" d="M233.6,84.2h0.7l2,4.6h-0.9l-0.5-1.1h-2.2l-0.5,1.1h-0.8L233.6,84.2z M234.7,87l-0.8-1.8l-0.8,1.8H234.7z"/>
		<path class="st4" d="M236.3,86.5L236.3,86.5c0-1.3,1-2.4,2.4-2.4c0.8,0,1.4,0.3,1.8,0.7l-0.5,0.6c-0.4-0.3-0.8-0.6-1.3-0.6
			c-0.9,0-1.5,0.7-1.5,1.6v0c0,0.9,0.6,1.6,1.5,1.6c0.6,0,0.9-0.2,1.3-0.6l0.5,0.5c-0.5,0.5-1,0.8-1.9,0.8
			C237.3,88.9,236.3,87.8,236.3,86.5z"/>
		<path class="st4" d="M242.7,84.2h0.7l2,4.6h-0.9l-0.5-1.1h-2.2l-0.5,1.1h-0.8L242.7,84.2z M243.8,87l-0.8-1.8l-0.8,1.8H243.8z"/>
		<path class="st4" d="M245.9,84.2h1.7c1.4,0,2.4,1,2.4,2.3v0c0,1.3-1,2.3-2.4,2.3h-1.7V84.2z M246.7,85v3.1h0.9
			c1,0,1.6-0.6,1.6-1.5v0c0-0.9-0.6-1.6-1.6-1.6H246.7z"/>
		<path class="st4" d="M250.7,84.2h3.4v0.7h-2.6v1.2h2.3v0.7h-2.3v1.2h2.6v0.7h-3.4V84.2z"/>
		<path class="st4" d="M254.8,84.2h0.9l1.4,2.2l1.4-2.2h0.9v4.6h-0.8v-3.3l-1.5,2.2h0l-1.4-2.2v3.3h-0.8V84.2z"/>
		<path class="st4" d="M261.5,87l-1.8-2.8h1l1.3,2l1.3-2h0.9l-1.8,2.8v1.8h-0.8V87z"/>
	</g>
</g>
<g>
	<rect x="364" y="69.1" class="st10" width="100.4" height="22.9"/>
	<g>
		<g>
			<g>
				<g>
					<g>
						<g>
							<g>
								<path class="st4" d="M408.1,82.3h5.9l-3.1-5l-5.7,9l-2.6,0l6.9-10.9c0.3-0.4,0.8-0.7,1.4-0.7c0.5,0,1,0.3,1.3,0.7l7,10.9
									l-2.6,0l-1.2-2h-6L408.1,82.3z M435,84.3v-9.4h-2.2v10.4c0,0.3,0.1,0.5,0.3,0.8c0.2,0.2,0.5,0.3,0.8,0.3h10l1.3-2H435z
									 M398.6,82.6c2.1,0,3.9-1.7,3.9-3.9c0-2.1-1.7-3.9-3.9-3.9H389v11.4h2.2v-9.4h7.3c1,0,1.9,0.8,1.9,1.8c0,1-0.8,1.8-1.9,1.8
									h-6.2l6.6,5.7h3.2l-4.4-3.7H398.6z M375.4,86.3c-3.2,0-5.7-2.6-5.7-5.7c0-3.2,2.6-5.7,5.7-5.7h6.7c3.2,0,5.7,2.6,5.7,5.7
									c0,3.2-2.6,5.7-5.7,5.7L375.4,86.3z M381.9,84.3c2.1,0,3.7-1.7,3.7-3.7c0-2-1.7-3.7-3.7-3.7h-6.3c-2,0-3.7,1.7-3.7,3.7
									c0,2.1,1.7,3.7,3.7,3.7H381.9z M423.7,86.3c-3.2,0-5.7-2.6-5.7-5.7c0-3.2,2.6-5.7,5.7-5.7h7.9l-1.3,2h-6.5
									c-2,0-3.7,1.7-3.7,3.7c0,2.1,1.7,3.7,3.7,3.7h7.9l-1.3,2H423.7z M450.7,84.3c-1.7,0-3.1-1.1-3.6-2.7h9.4l1.3-2h-10.7
									c0.4-1.6,1.9-2.7,3.6-2.7h6.5l1.3-2h-7.9c-3.2,0-5.7,2.6-5.7,5.7c0,3.2,2.6,5.7,5.7,5.7h6.8l1.3-2H450.7z"/>
								<path class="st4" d="M459.6,76.1c0-0.5,0.5-1,1-1c0.6,0,1,0.5,1,1c0,0.6-0.5,1-1,1C460,77.1,459.6,76.7,459.6,76.1z
									 M460.6,77.4c0.7,0,1.3-0.6,1.3-1.3c0-0.7-0.6-1.3-1.3-1.3c-0.7,0-1.3,0.6-1.3,1.3C459.3,76.8,459.9,77.4,460.6,77.4z
									 M460.5,75.3c0.2,0,0.3,0,0.4,0c0.3,0.1,0.3,0.3,0.3,0.4c0,0,0,0.1,0,0.1c0,0.1-0.1,0.2-0.2,0.3c0,0,0,0-0.1,0l0.3,0.6h-0.3
									l-0.3-0.6h-0.2v0.6h-0.3v-1.4H460.5z M460.6,76c0.1,0,0.2,0,0.2-0.1c0,0,0-0.1,0-0.1c0-0.1,0-0.1-0.1-0.2
									c-0.1,0-0.1,0-0.3,0h-0.1V76H460.6z"/>
							</g>
						</g>
					</g>
				</g>
			</g>
		</g>
	</g>
</g>
<g>
	<path class="st11" d="M577.3,69.6h-1.1v9h1.1V69.6L577.3,69.6z M588.5,74.7c0-1.8-0.7-2.6-2.1-2.6c-1,0-1.7,0.4-2.1,1.3
		c-0.1-0.4-0.4-0.8-0.7-1c-0.3-0.2-0.7-0.4-1.1-0.4c-0.9,0-1.5,0.4-2,1.2h0v-1h-1v6.5h1V75c0-0.6,0.1-1.1,0.4-1.5
		c0.3-0.4,0.7-0.6,1.1-0.6c1,0,1.5,0.6,1.5,1.9v3.8h1V75c0-0.6,0.2-1,0.5-1.4s0.7-0.6,1.1-0.6c0.5,0,0.9,0.2,1.1,0.5
		c0.2,0.3,0.3,0.8,0.3,1.6v3.7h1V74.7L588.5,74.7z M594.9,74.5c0-1.6-0.8-2.4-2.3-2.4c-0.4,0-0.8,0.1-1.2,0.2
		c-0.5,0.1-0.8,0.3-1,0.4v1.1c0.6-0.5,1.3-0.8,2.1-0.8c0.9,0,1.3,0.5,1.3,1.6l-1.9,0.3c-1.4,0.2-2.1,0.9-2.1,2.1
		c0,0.6,0.2,1,0.6,1.4c0.4,0.3,0.9,0.5,1.5,0.5c0.9,0,1.5-0.4,2-1.2h0v1h1V74.5L594.9,74.5z M593.8,76.1c0,0.5-0.2,1-0.5,1.4
		c-0.3,0.4-0.8,0.5-1.3,0.5c-0.4,0-0.7-0.1-0.9-0.3c-0.2-0.2-0.3-0.5-0.3-0.8c0-0.4,0.1-0.7,0.3-0.9c0.2-0.2,0.6-0.3,1.1-0.4
		l1.6-0.2V76.1L593.8,76.1z M602.1,72.2h-1v0.9h0c-0.4-0.7-1.1-1-1.9-1c-0.9,0-1.6,0.3-2.2,1c-0.5,0.6-0.8,1.5-0.8,2.6
		c0,0.6,0.1,1.2,0.3,1.7c0.2,0.5,0.5,0.9,0.9,1.1c0.4,0.3,0.9,0.4,1.4,0.4c1,0,1.7-0.4,2.2-1.2h0v0.7c0,1.7-0.8,2.5-2.4,2.5
		c-0.7,0-1.4-0.2-2.1-0.6v1c0.6,0.3,1.3,0.4,2.1,0.4c2.3,0,3.4-1.2,3.4-3.6V72.2L602.1,72.2z M600.5,77.3c-0.4,0.4-0.8,0.6-1.4,0.6
		c-0.6,0-1-0.2-1.4-0.6c-0.3-0.4-0.5-1-0.5-1.7c0-0.8,0.2-1.5,0.5-1.9c0.4-0.5,0.9-0.7,1.5-0.7c0.5,0,0.9,0.2,1.3,0.5
		c0.4,0.4,0.5,0.8,0.5,1.3v1C601.1,76.4,600.9,76.9,600.5,77.3L600.5,77.3z M605,69.4c-0.1-0.1-0.3-0.2-0.5-0.2
		c-0.2,0-0.4,0.1-0.5,0.2c-0.1,0.1-0.2,0.3-0.2,0.5c0,0.2,0.1,0.4,0.2,0.5c0.1,0.1,0.3,0.2,0.5,0.2c0.2,0,0.3-0.1,0.5-0.2
		c0.1-0.1,0.2-0.3,0.2-0.5C605.2,69.7,605.1,69.6,605,69.4L605,69.4z M605,72.2h-1v6.5h1V72.2L605,72.2z M612.3,74.7
		c0-0.8-0.2-1.5-0.6-2c-0.4-0.5-0.9-0.7-1.6-0.7c-0.9,0-1.6,0.4-2.1,1.2h0v-1.1h-1v6.5h1V75c0-0.6,0.2-1.1,0.5-1.5
		c0.3-0.4,0.8-0.6,1.3-0.6c1,0,1.5,0.7,1.5,2.1v3.7h1V74.7L612.3,74.7z M619.2,75.2c0-1-0.2-1.7-0.7-2.3c-0.5-0.5-1.1-0.8-2-0.8
		c-0.6,0-1.1,0.1-1.5,0.4c-0.5,0.3-0.8,0.7-1.1,1.2c-0.3,0.5-0.4,1.1-0.4,1.7c0,1.1,0.3,1.9,0.8,2.5c0.5,0.6,1.2,0.9,2.2,0.9
		c0.9,0,1.7-0.2,2.2-0.6v-1c-0.6,0.5-1.3,0.7-2,0.7c-0.7,0-1.2-0.2-1.5-0.6c-0.4-0.4-0.6-0.9-0.6-1.7h4.6V75.2L619.2,75.2z
		 M614.6,74.8c0.1-0.6,0.3-1,0.6-1.4c0.3-0.3,0.8-0.5,1.2-0.5c0.5,0,0.9,0.2,1.2,0.5c0.3,0.3,0.4,0.8,0.4,1.4H614.6L614.6,74.8z
		 M627,69.6h-1.1l-3.5,9h1.2l0.9-2.5h3.8l1,2.5h1.2L627,69.6L627,69.6z M624.9,75.2l1.4-3.8c0.1-0.1,0.1-0.3,0.1-0.6h0
		c0.1,0.3,0.1,0.5,0.1,0.6l1.4,3.8H624.9L624.9,75.2z M635.8,77.4c-0.5,0.4-1,0.6-1.6,0.6c-0.7,0-1.2-0.2-1.6-0.7
		c-0.4-0.4-0.6-1-0.6-1.8c0-0.8,0.2-1.4,0.6-1.9c0.4-0.5,1-0.7,1.6-0.7c0.5,0,1.1,0.2,1.5,0.5v-1.1c-0.4-0.2-0.9-0.3-1.5-0.3
		c-1,0-1.8,0.3-2.4,1c-0.6,0.6-0.9,1.5-0.9,2.6c0,0.6,0.1,1.2,0.4,1.7c0.3,0.5,0.6,0.9,1.1,1.2s1,0.4,1.6,0.4c0.7,0,1.3-0.2,1.8-0.5
		V77.4L635.8,77.4z M641.8,74.5c0-1.6-0.8-2.4-2.3-2.4c-0.4,0-0.8,0.1-1.2,0.2c-0.5,0.1-0.8,0.3-1,0.4v1.1c0.6-0.5,1.3-0.8,2.1-0.8
		c0.9,0,1.3,0.5,1.3,1.6l-1.9,0.3c-1.4,0.2-2.1,0.9-2.1,2.1c0,0.6,0.2,1,0.6,1.4c0.4,0.3,0.9,0.5,1.5,0.5c0.9,0,1.5-0.4,2-1.2h0v1h1
		V74.5L641.8,74.5z M640.7,76.1c0,0.5-0.2,1-0.5,1.4c-0.3,0.4-0.8,0.5-1.3,0.5c-0.4,0-0.7-0.1-0.9-0.3c-0.2-0.2-0.3-0.5-0.3-0.8
		c0-0.4,0.1-0.7,0.3-0.9c0.2-0.2,0.6-0.3,1.1-0.4l1.6-0.2V76.1L640.7,76.1z M649,69.1h-1v4h0c-0.4-0.7-1.1-1-1.9-1
		c-0.9,0-1.6,0.3-2.2,1c-0.5,0.6-0.8,1.5-0.8,2.6c0,1,0.2,1.8,0.7,2.3c0.5,0.6,1.1,0.9,1.9,0.9c1,0,1.7-0.4,2.2-1.3h0v1.1h1V69.1
		L649,69.1z M647.4,77.3c-0.4,0.4-0.8,0.6-1.4,0.6c-0.6,0-1-0.2-1.4-0.6c-0.3-0.4-0.5-1-0.5-1.8c0-0.8,0.2-1.5,0.5-1.9
		c0.4-0.5,0.9-0.7,1.5-0.7c0.5,0,0.9,0.2,1.3,0.5c0.4,0.4,0.5,0.8,0.5,1.3v1C647.9,76.4,647.8,76.9,647.4,77.3L647.4,77.3z
		 M656,75.2c0-1-0.2-1.7-0.7-2.3c-0.5-0.5-1.1-0.8-2-0.8c-0.6,0-1.1,0.1-1.5,0.4c-0.5,0.3-0.8,0.7-1.1,1.2c-0.3,0.5-0.4,1.1-0.4,1.7
		c0,1.1,0.3,1.9,0.8,2.5c0.5,0.6,1.2,0.9,2.2,0.9c0.9,0,1.7-0.2,2.2-0.6v-1c-0.6,0.5-1.3,0.7-2,0.7c-0.7,0-1.2-0.2-1.5-0.6
		c-0.4-0.4-0.6-0.9-0.6-1.7h4.6V75.2L656,75.2z M651.5,74.8c0.1-0.6,0.3-1,0.6-1.4c0.3-0.3,0.8-0.5,1.2-0.5c0.5,0,0.9,0.2,1.2,0.5
		c0.3,0.3,0.4,0.8,0.4,1.4H651.5L651.5,74.8z M666.5,74.7c0-1.8-0.7-2.6-2.1-2.6c-1,0-1.7,0.4-2.1,1.3c-0.1-0.4-0.4-0.8-0.7-1
		c-0.3-0.2-0.7-0.4-1.1-0.4c-0.9,0-1.5,0.4-2,1.2h0v-1h-1v6.5h1V75c0-0.6,0.1-1.1,0.4-1.5c0.3-0.4,0.7-0.6,1.1-0.6
		c1,0,1.5,0.6,1.5,1.9v3.8h1V75c0-0.6,0.2-1,0.5-1.4s0.7-0.6,1.1-0.6c0.5,0,0.9,0.2,1.1,0.5c0.2,0.3,0.3,0.8,0.3,1.6v3.7h1V74.7
		L666.5,74.7z M672.3,72.2l-1.8,5c-0.1,0.2-0.1,0.4-0.1,0.5h0l-0.1-0.5l-1.7-5h-1.2l2.5,6.4l-0.5,1.2c-0.3,0.6-0.7,0.9-1.2,0.9
		c-0.2,0-0.4,0-0.6-0.1v0.9c0.2,0.1,0.4,0.1,0.7,0.1c1,0,1.7-0.7,2.2-2l3-7.5H672.3L672.3,72.2z"/>
	<path class="st11" d="M531.1,69.6h-1.3l-2.8,6.3c-0.1,0.2-0.2,0.5-0.4,1.1h0c-0.1-0.2-0.2-0.6-0.4-1.1l-2.8-6.3h-1.4v9h1v-6.1
		c0-0.8,0-1.4-0.1-1.8h0c0.1,0.4,0.2,0.7,0.3,0.9l3.1,6.9h0.5l3.1-7c0.1-0.2,0.2-0.5,0.3-0.9h0c-0.1,0.7-0.1,1.3-0.1,1.8v6.1h1.1
		V69.6L531.1,69.6z M534.1,69.4c-0.1-0.1-0.3-0.2-0.5-0.2c-0.2,0-0.4,0.1-0.5,0.2c-0.1,0.1-0.2,0.3-0.2,0.5c0,0.2,0.1,0.4,0.2,0.5
		c0.1,0.1,0.3,0.2,0.5,0.2c0.2,0,0.3-0.1,0.5-0.2c0.1-0.1,0.2-0.3,0.2-0.5C534.3,69.7,534.2,69.6,534.1,69.4L534.1,69.4z
		 M534.1,72.2h-1v6.5h1V72.2L534.1,72.2z M540.4,77.4c-0.5,0.4-1,0.6-1.6,0.6c-0.7,0-1.2-0.2-1.6-0.7c-0.4-0.4-0.6-1-0.6-1.8
		c0-0.8,0.2-1.4,0.6-1.9c0.4-0.5,1-0.7,1.6-0.7c0.5,0,1.1,0.2,1.5,0.5v-1.1c-0.4-0.2-0.9-0.3-1.5-0.3c-1,0-1.8,0.3-2.4,1
		c-0.6,0.6-0.9,1.5-0.9,2.6c0,0.6,0.1,1.2,0.4,1.7c0.3,0.5,0.6,0.9,1.1,1.2s1,0.4,1.6,0.4c0.7,0,1.3-0.2,1.8-0.5V77.4L540.4,77.4z
		 M545.1,72.2c-0.1-0.1-0.3-0.1-0.6-0.1c-0.4,0-0.7,0.1-1,0.4c-0.3,0.3-0.5,0.6-0.7,1.1h0v-1.3h-1v6.5h1v-3.3c0-0.7,0.1-1.2,0.4-1.7
		c0.3-0.4,0.7-0.6,1.1-0.6c0.3,0,0.6,0.1,0.8,0.2V72.2L545.1,72.2z M550.9,73c-0.5-0.6-1.3-0.9-2.3-0.9c-1,0-1.8,0.3-2.4,0.9
		c-0.6,0.6-0.9,1.5-0.9,2.5c0,1,0.3,1.8,0.9,2.4c0.6,0.6,1.3,0.9,2.3,0.9c1,0,1.8-0.3,2.3-0.9c0.6-0.6,0.9-1.4,0.9-2.5
		C551.8,74.4,551.5,73.6,550.9,73L550.9,73z M550.2,77.3c-0.4,0.4-0.9,0.6-1.5,0.6c-0.7,0-1.2-0.2-1.6-0.7c-0.4-0.4-0.6-1-0.6-1.8
		c0-0.8,0.2-1.4,0.6-1.9c0.4-0.4,0.9-0.7,1.6-0.7c0.7,0,1.2,0.2,1.5,0.6c0.4,0.4,0.5,1.1,0.5,1.9C550.7,76.3,550.5,76.9,550.2,77.3
		L550.2,77.3z M556.3,75.9c-0.2-0.3-0.7-0.6-1.3-0.8c-0.5-0.2-0.8-0.4-1-0.5c-0.2-0.2-0.2-0.4-0.2-0.7c0-0.3,0.1-0.5,0.3-0.6
		c0.2-0.2,0.5-0.3,0.8-0.3c0.6,0,1,0.2,1.5,0.5v-1c-0.4-0.2-0.9-0.3-1.4-0.3c-0.7,0-1.2,0.2-1.6,0.5c-0.4,0.4-0.6,0.8-0.6,1.3
		c0,0.5,0.1,0.8,0.4,1.1c0.2,0.3,0.6,0.5,1.2,0.8c0.6,0.3,0.9,0.5,1.1,0.6s0.2,0.4,0.2,0.6c0,0.6-0.4,0.9-1.2,0.9
		c-0.6,0-1.2-0.2-1.7-0.6v1.1c0.5,0.3,1,0.4,1.6,0.4c0.7,0,1.3-0.2,1.7-0.5c0.4-0.3,0.6-0.8,0.6-1.4
		C556.7,76.5,556.6,76.2,556.3,75.9L556.3,75.9z M563.1,73c-0.5-0.6-1.3-0.9-2.3-0.9c-1,0-1.8,0.3-2.4,0.9c-0.6,0.6-0.9,1.5-0.9,2.5
		c0,1,0.3,1.8,0.9,2.4c0.6,0.6,1.3,0.9,2.3,0.9c1,0,1.8-0.3,2.3-0.9c0.6-0.6,0.9-1.4,0.9-2.5C563.9,74.4,563.6,73.6,563.1,73
		L563.1,73z M562.3,77.3c-0.4,0.4-0.9,0.6-1.5,0.6c-0.7,0-1.2-0.2-1.6-0.7c-0.4-0.4-0.6-1-0.6-1.8c0-0.8,0.2-1.4,0.6-1.9
		c0.4-0.4,0.9-0.7,1.6-0.7c0.7,0,1.2,0.2,1.5,0.6c0.4,0.4,0.5,1.1,0.5,1.9C562.8,76.3,562.6,76.9,562.3,77.3L562.3,77.3z
		 M568.2,69.1c-0.2-0.1-0.4-0.1-0.8-0.1c-0.6,0-1.1,0.2-1.5,0.6c-0.4,0.4-0.6,0.9-0.6,1.6v1h-1.1v0.9h1.1v5.6h1v-5.6h1.5v-0.9h-1.5
		v-1c0-0.9,0.4-1.4,1.1-1.4c0.3,0,0.5,0.1,0.7,0.2V69.1L568.2,69.1z M572.1,77.7c-0.2,0.1-0.4,0.2-0.7,0.2c-0.3,0-0.6-0.1-0.7-0.3
		c-0.1-0.2-0.2-0.5-0.2-0.9v-3.6h1.6v-0.9h-1.6v-1.9l-1,0.3v1.6h-1.1v0.9h1.1v3.8c0,1.3,0.6,1.9,1.7,1.9c0.4,0,0.7-0.1,1-0.2V77.7
		L572.1,77.7z"/>
	<path class="st11" d="M525.2,84.3c-0.4-0.4-1-0.5-1.7-0.5h-1.9v7h0.8v-2.6h0.9c0.8,0,1.4-0.2,1.8-0.6c0.5-0.4,0.7-1,0.7-1.6
		C525.8,85.2,525.6,84.7,525.2,84.3L525.2,84.3z M524.5,87c-0.3,0.3-0.7,0.4-1.3,0.4h-0.9v-2.9h1c1.1,0,1.6,0.5,1.6,1.4
		C525,86.4,524.8,86.7,524.5,87L524.5,87z M529.5,85.7c-0.1,0-0.3-0.1-0.5-0.1c-0.3,0-0.6,0.1-0.8,0.3c-0.2,0.2-0.4,0.5-0.5,0.8h0
		v-1h-0.8v5h0.8v-2.5c0-0.5,0.1-1,0.3-1.3c0.2-0.3,0.5-0.5,0.9-0.5c0.3,0,0.5,0.1,0.6,0.2V85.7L529.5,85.7z M534,86.3
		c-0.4-0.5-1-0.7-1.7-0.7c-0.8,0-1.4,0.2-1.9,0.7c-0.5,0.5-0.7,1.1-0.7,2c0,0.8,0.2,1.4,0.7,1.8c0.4,0.5,1,0.7,1.8,0.7
		c0.8,0,1.4-0.2,1.8-0.7c0.4-0.5,0.7-1.1,0.7-1.9C534.6,87.4,534.4,86.8,534,86.3L534,86.3z M533.4,89.7c-0.3,0.3-0.7,0.5-1.2,0.5
		c-0.5,0-0.9-0.2-1.2-0.5c-0.3-0.3-0.4-0.8-0.4-1.4c0-0.6,0.1-1.1,0.4-1.4c0.3-0.3,0.7-0.5,1.2-0.5c0.5,0,0.9,0.2,1.2,0.5
		c0.3,0.3,0.4,0.8,0.4,1.4C533.8,88.9,533.6,89.4,533.4,89.7L533.4,89.7z M539.9,85.8h-0.8v0.7h0c-0.3-0.5-0.8-0.8-1.5-0.8
		c-0.7,0-1.2,0.2-1.7,0.7c-0.4,0.5-0.6,1.2-0.6,2c0,0.5,0.1,0.9,0.3,1.3c0.2,0.4,0.4,0.7,0.7,0.9c0.3,0.2,0.7,0.3,1.1,0.3
		c0.8,0,1.3-0.3,1.7-1h0v0.5c0,1.3-0.6,1.9-1.8,1.9c-0.5,0-1-0.2-1.6-0.5v0.8c0.5,0.2,1,0.3,1.6,0.3c1.8,0,2.6-0.9,2.6-2.7V85.8
		L539.9,85.8z M538.7,89.7c-0.3,0.3-0.6,0.5-1.1,0.5c-0.4,0-0.8-0.2-1.1-0.5c-0.3-0.3-0.4-0.8-0.4-1.3c0-0.6,0.1-1.1,0.4-1.5
		c0.3-0.4,0.7-0.5,1.2-0.5c0.4,0,0.7,0.1,1,0.4c0.3,0.3,0.4,0.6,0.4,1v0.7C539.1,89,538.9,89.4,538.7,89.7L538.7,89.7z M543.9,85.7
		c-0.1,0-0.3-0.1-0.5-0.1c-0.3,0-0.6,0.1-0.8,0.3c-0.2,0.2-0.4,0.5-0.5,0.8h0v-1h-0.8v5h0.8v-2.5c0-0.5,0.1-1,0.3-1.3
		c0.2-0.3,0.5-0.5,0.9-0.5c0.3,0,0.5,0.1,0.6,0.2V85.7L543.9,85.7z M548.2,87.5c0-1.2-0.6-1.9-1.8-1.9c-0.3,0-0.6,0.1-0.9,0.2
		c-0.4,0.1-0.6,0.2-0.7,0.3v0.8c0.5-0.4,1-0.6,1.6-0.6c0.7,0,1,0.4,1,1.3l-1.5,0.2c-1.1,0.2-1.6,0.7-1.6,1.6c0,0.4,0.1,0.8,0.4,1.1
		c0.3,0.3,0.7,0.4,1.2,0.4c0.7,0,1.2-0.3,1.5-0.9h0v0.8h0.8V87.5L548.2,87.5z M547.4,88.7c0,0.4-0.1,0.8-0.4,1
		c-0.3,0.3-0.6,0.4-1,0.4c-0.3,0-0.5-0.1-0.7-0.2s-0.3-0.4-0.3-0.6c0-0.3,0.1-0.5,0.2-0.7c0.2-0.1,0.5-0.2,0.9-0.3l1.2-0.2V88.7
		L547.4,88.7z M556.6,87.7c0-1.4-0.5-2-1.6-2c-0.7,0-1.3,0.3-1.7,1c-0.1-0.3-0.3-0.6-0.5-0.8c-0.3-0.2-0.6-0.3-0.9-0.3
		c-0.7,0-1.2,0.3-1.5,0.9h0v-0.8h-0.8v5h0.8v-2.8c0-0.5,0.1-0.8,0.3-1.1c0.2-0.3,0.5-0.4,0.9-0.4c0.8,0,1.1,0.5,1.1,1.5v3h0.8v-2.8
		c0-0.4,0.1-0.8,0.4-1.1c0.2-0.3,0.5-0.5,0.9-0.5c0.4,0,0.7,0.1,0.9,0.4c0.2,0.2,0.3,0.6,0.3,1.2v2.9h0.8V87.7L556.6,87.7z
		 M567.4,83.8h-1l-2.2,4.8c-0.1,0.1-0.2,0.4-0.3,0.9h0c0-0.2-0.2-0.5-0.3-0.8l-2.1-4.9h-1.1v7h0.8v-4.7c0-0.6,0-1.1,0-1.4h0
		c0.1,0.3,0.1,0.6,0.2,0.7l2.4,5.3h0.4l2.4-5.4c0.1-0.1,0.1-0.4,0.2-0.7h0c0,0.5-0.1,1-0.1,1.4v4.7h0.8V83.8L567.4,83.8z M572.9,88
		c0-0.8-0.2-1.3-0.5-1.8c-0.4-0.4-0.9-0.6-1.5-0.6c-0.4,0-0.8,0.1-1.2,0.3c-0.3,0.2-0.6,0.5-0.8,0.9c-0.2,0.4-0.3,0.9-0.3,1.3
		c0,0.8,0.2,1.4,0.6,1.9c0.4,0.5,1,0.7,1.7,0.7c0.7,0,1.3-0.2,1.7-0.5v-0.7c-0.5,0.4-1,0.5-1.5,0.5c-0.5,0-0.9-0.1-1.2-0.4
		c-0.3-0.3-0.4-0.7-0.4-1.3h3.5V88L572.9,88z M569.4,87.8c0.1-0.4,0.2-0.8,0.5-1.1c0.3-0.3,0.6-0.4,0.9-0.4c0.4,0,0.7,0.1,0.9,0.4
		c0.2,0.3,0.3,0.6,0.3,1.1H569.4L569.4,87.8z M581,87.7c0-1.4-0.5-2-1.6-2c-0.7,0-1.3,0.3-1.7,1c-0.1-0.3-0.3-0.6-0.5-0.8
		c-0.3-0.2-0.6-0.3-0.9-0.3c-0.7,0-1.2,0.3-1.5,0.9h0v-0.8h-0.8v5h0.8v-2.8c0-0.5,0.1-0.8,0.3-1.1c0.2-0.3,0.5-0.4,0.9-0.4
		c0.8,0,1.1,0.5,1.1,1.5v3h0.8v-2.8c0-0.4,0.1-0.8,0.4-1.1c0.2-0.3,0.5-0.5,0.9-0.5c0.4,0,0.7,0.1,0.9,0.4c0.2,0.2,0.3,0.6,0.3,1.2
		v2.9h0.8V87.7L581,87.7z M586.4,86.3c-0.4-0.4-0.9-0.7-1.5-0.7c-0.8,0-1.3,0.3-1.7,1h0v-3.3h-0.8v7.4h0.8V90h0
		c0.3,0.6,0.8,0.8,1.5,0.8c0.7,0,1.2-0.3,1.7-0.8c0.4-0.5,0.6-1.2,0.6-2C586.9,87.3,586.7,86.7,586.4,86.3L586.4,86.3z M585.7,89.6
		c-0.3,0.4-0.7,0.6-1.1,0.6c-0.4,0-0.7-0.1-1-0.4c-0.3-0.3-0.4-0.6-0.4-1.1V88c0-0.5,0.1-0.9,0.4-1.2s0.7-0.5,1.1-0.5
		c0.4,0,0.8,0.2,1,0.5c0.3,0.3,0.4,0.8,0.4,1.3C586.1,88.7,586,89.3,585.7,89.6L585.7,89.6z M592,88c0-0.8-0.2-1.3-0.5-1.8
		c-0.4-0.4-0.9-0.6-1.5-0.6c-0.4,0-0.8,0.1-1.2,0.3c-0.3,0.2-0.6,0.5-0.8,0.9c-0.2,0.4-0.3,0.9-0.3,1.3c0,0.8,0.2,1.4,0.6,1.9
		c0.4,0.5,1,0.7,1.7,0.7c0.7,0,1.3-0.2,1.7-0.5v-0.7c-0.5,0.4-1,0.5-1.5,0.5c-0.5,0-0.9-0.1-1.2-0.4c-0.3-0.3-0.4-0.7-0.4-1.3h3.5
		V88L592,88z M588.5,87.8c0.1-0.4,0.2-0.8,0.5-1.1c0.3-0.3,0.6-0.4,0.9-0.4c0.4,0,0.7,0.1,0.9,0.4c0.2,0.3,0.3,0.6,0.3,1.1H588.5
		L588.5,87.8z M595.6,85.7c-0.1,0-0.3-0.1-0.5-0.1c-0.3,0-0.6,0.1-0.8,0.3c-0.2,0.2-0.4,0.5-0.5,0.8h0v-1H593v5h0.8v-2.5
		c0-0.5,0.1-1,0.3-1.3c0.2-0.3,0.5-0.5,0.9-0.5c0.3,0,0.5,0.1,0.6,0.2V85.7L595.6,85.7z"/>
</g>
</svg>
