<?xml version="1.0" encoding="utf-8"?>
<!-- Generator: Adobe Illustrator 20.0.0, SVG Export Plug-In . SVG Version: 6.00 Build 0)  -->
<svg version="1.1" id="Capa_1" xmlns="http://www.w3.org/2000/svg" xmlns:xlink="http://www.w3.org/1999/xlink" x="0px" y="0px"
	 viewBox="0 0 716.7 373.3" style="enable-background:new 0 0 716.7 373.3;" xml:space="preserve">
<style type="text/css">
	.st0{fill:#3A0048;}
	.st1{fill:#FF9C00;}
	.st2{fill:#FFFFFE;}
	.st3{fill:#FFFFFF;}
</style>
<g>
	<g>
		<path class="st0" d="M693.4,134.2C652.5,69.1,524.1,21.5,372,21.5c-0.3,0-0.6,0-0.9,0v128.7L693.4,134.2z"/>
		<path class="st1" d="M357.4,166.2V37.5c-184.6,0.2-334,70.5-334,157.1c0,86.8,150,157.1,335,157.1s335-70.4,335-157.1
			c0-15.4-4.8-30.3-13.6-44.4L357.4,166.2z"/>
	</g>
	<g>
		<path class="st2" d="M166.7,214.3l-0.6,3.4c-0.1,0.5-0.5,0.9-1,0.9h-12.2l-2,7.4h1c6.6,0,12.3,1.6,12.3,9.2c0,7-4,12-13.7,12
			c-2.6,0-6-0.4-8.4-1.1c-0.5-0.2-0.8-0.4-0.7-1l0.4-2.6c0.1-0.5,0.3-0.9,1-0.8c3.5,0.4,5.7,0.6,8.2,0.6c5.7,0,6.8-3.6,6.8-7
			c0-4.3-3.6-4.4-7.1-4.4h-6c-0.5,0-0.6-0.4-0.5-0.7l4.3-16c0.1-0.4,0.6-0.8,1-0.8H166c0.4,0,0.8,0.3,0.8,0.7
			C166.7,214.2,166.7,214.2,166.7,214.3L166.7,214.3z"/>
		<path class="st2" d="M200.6,228.5l-0.6,3.3c-2,11.5-6.6,15.3-14.4,15.3c-5.7,0-9.5-3.6-9.5-10.8c0-1.4,0.2-2.9,0.4-4.6l0.6-3.3
			c2.1-11.9,7-15.4,14.4-15.4c5.7,0,9.5,3.2,9.5,10.5C201,225.1,200.9,226.7,200.6,228.5z M190.7,218.2c-3.1,0-5.8,2.2-7.3,10.3
			l-0.6,3.3c-0.3,1.8-0.4,3.4-0.4,4.6c0,4.4,1.7,5.7,4.1,5.7c3.1,0,5.8-2.2,7.3-10.3l0.6-3.3c0.3-1.8,0.4-3.4,0.4-4.6
			C194.8,219.5,193,218.2,190.7,218.2z"/>
		<path class="st2" d="M229.1,214.3l-0.6,3.4c-0.1,0.5-0.5,0.9-1,0.9h-12.2l-2,7.4h1c6.6,0,12.3,1.6,12.3,9.2c0,7-4,12-13.7,12
			c-2.6,0-6-0.4-8.4-1.1c-0.5-0.2-0.8-0.4-0.7-1l0.4-2.6c0.1-0.5,0.3-0.9,1-0.8c3.5,0.4,5.7,0.6,8.2,0.6c5.7,0,6.8-3.6,6.8-7
			c0-4.3-3.6-4.4-7.1-4.4h-6c-0.5,0-0.6-0.4-0.5-0.7l4.3-16c0.1-0.4,0.6-0.8,1-0.8h16.3c0.4,0,0.8,0.3,0.8,0.7
			C229.1,214.2,229.1,214.2,229.1,214.3L229.1,214.3z"/>
		<path class="st2" d="M256.7,234.7l-0.5,3.1c-0.1,0.5-0.5,0.9-1,0.9h-3.4l-1.3,7.1c-0.1,0.5-0.5,0.9-1,0.9h-4.6
			c-0.4,0-0.6-0.3-0.6-0.7c0-0.1,0-0.1,0-0.2l1.3-7.1h-13.5c-0.4,0-0.8-0.3-0.8-0.8v-0.1l0.6-3.6c0.1-0.5,0.4-1,0.8-1.4l17.1-18.5
			c0.4-0.4,0.8-0.8,1.4-0.8h4.1c0.4,0,0.7,0.3,0.7,0.7c0,0.1,0,0.1,0,0.2l-3.4,19.5h3.3c0.4,0,0.7,0.3,0.7,0.7
			C256.7,234.6,256.7,234.7,256.7,234.7z M248.4,222.2c-0.1,0-0.2,0.1-0.4,0.3l-9.8,10.9c-0.1,0.1-0.2,0.2-0.2,0.3s0.1,0.2,0.3,0.2
			h8.1l2-11.4v-0.1C248.5,222.2,248.4,222.2,248.4,222.2z"/>
	</g>
	<g>
		<path class="st2" d="M160.3,255.4c0.3,0,0.6,0.1,0.5,0.6l-3.5,19.9c-0.1,0.6-0.7,1.2-1.4,1.2h-2.7c-0.7,0-1.3,0-1.6-1l-4.2-14.2
			c-0.1-0.2-0.1-0.2-0.2-0.2c-0.1,0-0.2,0.1-0.2,0.2l-2.6,14.6c-0.1,0.3-0.1,0.6-0.7,0.6h-2.5c-0.3,0-0.6-0.1-0.5-0.6l3.5-19.9
			c0.1-0.6,0.7-1.2,1.4-1.2h2.9c0.6,0,0.9,0.2,1.1,0.9l4.4,14.9c0,0.1,0.1,0.2,0.2,0.2c0.1,0,0.2-0.1,0.2-0.3l2.7-15.3
			c0.1-0.3,0.2-0.6,0.6-0.6h2.6V255.4z"/>
		<path class="st2" d="M179.6,264.3l-0.7,3.9c-1.2,6.8-4.8,9.1-9.9,9.1c-4.2,0-6.9-2.3-6.9-6.8c0-0.7,0.1-1.4,0.2-2.2l0.7-3.9
			c1.2-6.8,4.8-9.1,9.9-9.1c4.2,0,6.9,2.5,6.9,6.9C179.8,262.8,179.7,263.5,179.6,264.3z M172.3,258.7c-3,0-4.5,1.6-5.2,5.6
			l-0.7,3.9c-0.1,0.8-0.2,1.6-0.2,2.2c0,2.5,1.2,3.4,3.4,3.4c3.1,0,4.6-1.8,5.2-5.6l0.7-3.9c0.1-0.8,0.2-1.5,0.2-2.2
			C175.7,259.6,174.6,258.7,172.3,258.7z"/>
		<path class="st2" d="M208.4,255.4c0.5,0,0.5,0.3,0.4,0.6l-8,18.2c-1.2,2.7-3.3,3-4.6,3s-3.3-0.3-3.5-3l-1.6-18.2
			c0-0.5,0.3-0.6,0.6-0.6h3c0.3,0,0.4,0.1,0.5,0.5l1.1,17.5c0,0.3,0.1,0.5,0.4,0.5c0.3,0,0.4-0.1,0.6-0.5l7.3-17.5
			c0.1-0.3,0.3-0.5,0.6-0.5H208.4z"/>
		<path class="st2" d="M215.2,255.4c0.4,0,0.6,0.1,0.5,0.6l-3.6,20.5c-0.1,0.3-0.1,0.6-0.7,0.6h-2.9c-0.4,0-0.5-0.3-0.5-0.6
			l3.6-20.5c0.1-0.3,0.2-0.6,0.7-0.6H215.2z"/>
	</g>
	<g>
		<path class="st2" d="M236,255.4c0.3,0,0.6,0.1,0.5,0.6l-3.5,19.9c-0.1,0.6-0.7,1.2-1.4,1.2h-2.7c-0.7,0-1.3,0-1.6-1l-4.2-14.2
			c-0.1-0.2-0.1-0.2-0.2-0.2s-0.2,0.1-0.2,0.2l-2.6,14.6c-0.1,0.3-0.1,0.6-0.7,0.6h-2.5c-0.3,0-0.6-0.1-0.5-0.6l3.5-19.9
			c0.1-0.6,0.7-1.2,1.4-1.2h2.9c0.6,0,0.9,0.2,1.1,0.9l4.4,14.9c0,0.1,0.1,0.2,0.2,0.2c0.1,0,0.2-0.1,0.2-0.3l2.7-15.3
			c0.1-0.3,0.2-0.6,0.6-0.6h2.6V255.4z"/>
	</g>
	<g>
		<path class="st2" d="M253.1,255.7c0.5,0.1,0.6,0.3,0.5,0.7l-0.3,1.9c-0.1,0.4-0.1,0.7-0.8,0.6c-1-0.1-3-0.2-4.5-0.2
			c-2.8,0-4.5,1.5-5.2,5.4l-0.7,4.3c-0.1,0.7-0.2,1.4-0.2,1.9c0,2.7,1.2,3.5,3.4,3.5c1.5,0,3.5-0.1,4.6-0.2c0.6-0.1,0.6,0.2,0.5,0.6
			l-0.4,1.9c-0.1,0.4-0.3,0.6-0.8,0.7s-2.4,0.5-4.7,0.5c-3.5,0-6.9-1.7-6.9-6.8c0-0.6,0.1-1.4,0.2-2.1l0.7-4.3
			c1.3-7.8,5.6-8.9,9.8-8.9C250.8,255.2,252.7,255.5,253.1,255.7z"/>
		<path class="st2" d="M272.7,255.4c0.4,0,0.5,0.2,0.5,0.6l-2.3,13.1c-1.2,6.5-4.6,8.2-9.4,8.2c-4.1,0-6.8-1.9-6.8-6.1
			c0-0.6,0-1.4,0.2-2.1l2.3-13.1c0.1-0.3,0.3-0.6,0.7-0.6h2.9c0.4,0,0.6,0.1,0.5,0.6l-2.3,13.1c-0.1,0.8-0.2,1.6-0.2,2.2
			c0,1.9,0.9,2.7,3.3,2.7c3.1,0,4.2-1.5,4.8-4.9l2.3-13.1c0.1-0.3,0.2-0.6,0.7-0.6L272.7,255.4L272.7,255.4z"/>
		<path class="st2" d="M286.3,274.4l-0.3,1.9c-0.1,0.4-0.3,0.5-0.7,0.6c-0.9,0.2-3.5,0.4-5,0.4c-2.6,0-5.8-0.9-5.8-4.6
			c0-0.4,0-0.9,0.1-1.4l2.7-15.3c0.1-0.3,0.2-0.6,0.7-0.6h2.9c0.3,0,0.5,0.2,0.5,0.6l-2.7,15.3c-0.1,0.4-0.1,0.7-0.1,1
			c0,1.1,0.6,1.5,1.9,1.5h5.3c0.3,0,0.5,0.2,0.5,0.5V274.4z"/>
		<path class="st2" d="M304.2,277h-3c-0.4,0-0.4-0.2-0.5-0.5l-0.3-5.5h-6.7l-2.3,5.5c-0.1,0.3-0.3,0.5-0.6,0.5h-3.2
			c-0.3,0-0.4-0.1-0.4-0.4c0-0.1,0-0.2,0.1-0.3l8-18.2c1.2-2.7,3-3,4.6-3c1.5,0,3.3,0.5,3.5,3l1.6,18.2c0,0,0,0,0,0.1
			C304.8,276.8,304.7,277,304.2,277z M299.6,259.1c0-0.3-0.1-0.5-0.4-0.5s-0.4,0.1-0.6,0.5l-3.6,8.6h5.1L299.6,259.1z"/>
		<path class="st2" d="M325.3,264.1l-0.7,4.3c-1,6-4.5,8.9-10.7,8.9c-2.1,0-4.8-0.2-5.7-0.3c-0.4-0.1-0.6-0.3-0.6-0.7
			c0-0.1,0-0.1,0-0.2l3.5-19.6c0.1-0.6,0.4-0.8,0.9-0.9c0.9-0.1,3.7-0.3,5.8-0.3c4.9,0,7.7,2.6,7.7,6.9
			C325.5,262.7,325.4,263.4,325.3,264.1z M317.2,258.6c-1.1,0-1.9,0.1-2.5,0.1l-2.6,15.1c0.6,0,1.3,0.1,2.4,0.1
			c2.9,0,5.4-1.3,6.1-5.5l0.7-4.3c0.1-0.7,0.2-1.3,0.2-1.8C321.5,259.3,319.8,258.6,317.2,258.6z"/>
		<path class="st2" d="M345,264.3l-0.7,3.9c-1.2,6.8-4.8,9.1-9.9,9.1c-4.2,0-6.9-2.3-6.9-6.8c0-0.7,0.1-1.4,0.2-2.2l0.7-3.9
			c1.2-6.8,4.8-9.1,9.9-9.1c4.2,0,6.9,2.5,6.9,6.9C345.3,262.8,345.2,263.5,345,264.3z M337.8,258.7c-3,0-4.5,1.6-5.2,5.6l-0.7,3.9
			c-0.1,0.8-0.2,1.6-0.2,2.2c0,2.5,1.2,3.4,3.4,3.4c3.1,0,4.6-1.8,5.2-5.6l0.7-3.9c0.1-0.8,0.2-1.5,0.2-2.2
			C341.2,259.6,340,258.7,337.8,258.7z"/>
		<path class="st2" d="M362.3,255.7c0.3,0.1,0.5,0.2,0.4,0.6l-0.4,2.2c-0.1,0.4-0.1,0.6-0.6,0.5c-1.9-0.2-3.5-0.3-5.7-0.3
			c-1.6,0-3.4,0.5-3.4,2.2c0,1,0.5,1.6,1.9,2.5l3.1,1.9c2.4,1.5,3.1,3.1,3.1,5.2c0,4.8-4,6.8-8.8,6.8c-2.2,0-3.7-0.2-5.1-0.5
			c-0.3-0.1-0.5-0.2-0.5-0.6l0.4-2.1c0.1-0.3,0.1-0.6,0.7-0.6c1.2,0.1,4,0.3,5.1,0.3c2,0,3.8-0.7,3.8-2.7c0-1.1-0.5-1.7-2-2.8
			L351,266c-2-1.3-2.6-3.3-2.6-4.9c0-4.7,4.2-5.9,8.3-5.9C358.7,255.2,361.3,255.5,362.3,255.7z"/>
	</g>
	<g>
		<path class="st3" d="M398.2,86.6c0.5,0,0.5,0.3,0.4,0.6l-7.3,18.5c-1.1,2.7-3.2,3.1-4.5,3.1s-3.3-0.1-3.6-2.8L381,87.8
			c0-0.5,0.2-0.6,0.6-0.7l3-0.1c0.3,0,0.4,0.1,0.5,0.5l1.7,17.4c0,0.3,0.1,0.5,0.4,0.5s0.4-0.1,0.5-0.5l6.7-17.7
			c0.1-0.3,0.3-0.5,0.6-0.5L398.2,86.6z"/>
		<path class="st3" d="M405.1,86.4c0.4,0,0.6,0.1,0.5,0.5l-2.9,20.6c0,0.3-0.1,0.6-0.7,0.6l-2.9,0.1c-0.4,0-0.5-0.3-0.5-0.6
			l2.9-20.6c0-0.3,0.2-0.6,0.6-0.6H405.1z"/>
	</g>
	<g>
		<path class="st3" d="M425.8,85.6c0.3,0,0.6,0.1,0.5,0.5l-2.8,20c-0.1,0.6-0.7,1.2-1.3,1.2l-2.7,0.1c-0.7,0-1.3,0-1.6-1l-4.6-14
			c-0.1-0.2-0.1-0.2-0.2-0.2s-0.2,0.1-0.2,0.2l-2,14.7c0,0.3-0.1,0.6-0.6,0.6l-2.5,0.1c-0.3,0-0.6-0.1-0.5-0.6l2.8-20
			c0.1-0.6,0.7-1.2,1.3-1.2l2.9-0.1c0.6,0,0.9,0.1,1.1,0.9l4.9,14.8c0,0.1,0.1,0.2,0.2,0.2s0.2-0.1,0.2-0.3l2.2-15.4
			c0-0.3,0.2-0.6,0.6-0.6L425.8,85.6z"/>
	</g>
	<g>
		<path class="st3" d="M442.9,85.3c0.5,0.1,0.6,0.3,0.5,0.7l-0.3,2c0,0.4-0.1,0.7-0.7,0.6c-1-0.1-3-0.1-4.5-0.1
			c-2.8,0.1-4.5,1.6-5,5.6l-0.6,4.3c-0.1,0.7-0.1,1.4-0.1,1.9c0.1,2.7,1.3,3.5,3.6,3.4c1.5-0.1,3.5-0.3,4.6-0.4
			c0.6-0.1,0.6,0.2,0.5,0.6l-0.3,2c-0.1,0.4-0.3,0.6-0.7,0.7c-0.5,0.1-2.4,0.5-4.6,0.6c-3.5,0.1-6.9-1.4-7.1-6.5
			c0-0.6,0-1.4,0.1-2.1l0.6-4.3c1.1-7.8,5.3-9.1,9.5-9.2C440.6,84.9,442.5,85.2,442.9,85.3z"/>
		<path class="st3" d="M462.5,84.4c0.4,0,0.5,0.2,0.5,0.5L461.1,98c-0.9,6.5-4.3,8.4-9.1,8.5c-4.1,0.1-6.9-1.7-7-5.9
			c0-0.6,0-1.4,0.1-2.1l1.9-13.1c0-0.3,0.3-0.6,0.6-0.6l2.9-0.1c0.4,0,0.6,0.1,0.5,0.5l-1.9,13.1c-0.1,0.8-0.2,1.6-0.2,2.2
			c0.1,1.9,1,2.7,3.4,2.6c3.1-0.1,4.1-1.6,4.6-5l1.9-13.1c0-0.3,0.2-0.6,0.6-0.6H462.5z"/>
		<path class="st3" d="M476.8,102.8l-0.3,1.9c0,0.4-0.2,0.5-0.7,0.6c-0.9,0.2-3.4,0.5-5,0.6c-2.6,0.1-5.8-0.7-5.9-4.4
			c0-0.4,0-0.9,0-1.4l2.1-15.4c0-0.3,0.2-0.6,0.7-0.6l2.9-0.1c0.4,0,0.5,0.2,0.5,0.6L469,100c0,0.4-0.1,0.7-0.1,1
			c0,1.1,0.6,1.5,2,1.4l5.3-0.2c0.3,0,0.5,0.2,0.5,0.4C476.8,102.8,476.8,102.8,476.8,102.8z"/>
		<path class="st3" d="M494.7,104.8l-3,0.1c-0.4,0-0.4-0.2-0.5-0.5l-0.5-5.5l-6.7,0.2l-2.1,5.6c-0.1,0.3-0.2,0.5-0.6,0.5l-3.2,0.1
			c-0.3,0-0.4-0.1-0.4-0.4c0-0.1,0-0.2,0-0.3l7.3-18.5c1.1-2.7,2.9-3.1,4.5-3.1c1.5-0.1,3.3,0.4,3.6,2.8l2.2,18.2c0,0,0,0,0,0.1
			C495.3,104.6,495.2,104.8,494.7,104.8z M489.5,87c0-0.3-0.1-0.5-0.4-0.5s-0.4,0.1-0.5,0.5l-3.3,8.8l5.1-0.2L489.5,87z"/>
		<path class="st3" d="M515.4,91.2l-0.6,4.3c-0.8,6-4.2,9-10.4,9.3c-2.1,0.1-4.8,0-5.7-0.2c-0.4,0-0.6-0.2-0.7-0.6
			c0-0.1,0-0.1,0-0.2l2.8-19.7c0.1-0.6,0.4-0.8,0.9-0.9c0.9-0.2,3.7-0.5,5.8-0.5c4.9-0.2,7.8,2.3,8,6.6
			C515.5,89.8,515.5,90.5,515.4,91.2z M507,86c-1.1,0-1.9,0.1-2.5,0.2l-2.1,15.2c0.6,0,1.3,0,2.4,0c2.9-0.1,5.4-1.5,5.9-5.7l0.6-4.3
			c0.1-0.7,0.1-1.3,0.1-1.8C511.4,86.5,509.6,85.9,507,86z"/>
		<path class="st3" d="M535.1,90.7l-0.5,3.9c-0.9,6.8-4.5,9.2-9.6,9.4c-4.2,0.1-7-2.1-7.1-6.6c0-0.7,0-1.4,0.1-2.2l0.5-3.9
			c0.9-6.8,4.5-9.2,9.6-9.4c4.2-0.1,7,2.2,7.1,6.7C535.3,89.2,535.2,89.9,535.1,90.7z M527.6,85.4c-3,0.1-4.5,1.8-5,5.7l-0.5,3.9
			c-0.1,0.8-0.1,1.6-0.1,2.2c0.1,2.5,1.3,3.3,3.5,3.3c3.1-0.1,4.5-1.9,5-5.7l0.5-3.9c0.1-0.8,0.1-1.5,0.1-2.2
			C531.1,86.1,529.9,85.3,527.6,85.4z"/>
		<path class="st3" d="M552,81.5c0.3,0,0.5,0.2,0.5,0.5l-0.3,2.2c0,0.4-0.1,0.6-0.6,0.5c-1.9-0.1-3.6-0.2-5.7-0.1
			c-1.6,0.1-3.4,0.6-3.4,2.3c0,1,0.5,1.6,2,2.4l3.2,1.8c2.4,1.4,3.2,2.9,3.3,5.1c0.2,4.8-3.8,6.9-8.5,7.1c-2.2,0.1-3.7-0.1-5.1-0.3
			c-0.3,0-0.5-0.2-0.5-0.6l0.3-2.1c0-0.3,0.1-0.6,0.7-0.6c1.2,0.1,4,0.2,5.1,0.1c2-0.1,3.8-0.8,3.7-2.8c0-1.1-0.5-1.7-2.1-2.7
			l-3.5-2.2c-2-1.2-2.7-3.2-2.7-4.8c-0.2-4.7,3.9-6.1,8.1-6.2C548.4,81.1,551,81.3,552,81.5z"/>
	</g>
	<g>
		<path class="st3" d="M385.7,79.1c-0.3,0-0.6-0.2-0.5-0.6l0.3-2.2c0-0.3,0.4-0.5,0.7-0.5l3.9-0.1l2-14.4l-4,1.3
			c-0.1,0.1-0.3,0.1-0.3,0.1c-0.2,0-0.3-0.1-0.3-0.3l0.4-2.7c0-0.2,0.1-0.3,0.3-0.3l5.4-1.9c0.2-0.1,0.4-0.1,0.7-0.1l1.9-0.1
			c0.3,0,0.5,0.2,0.5,0.5l-2.5,17.8l3.9-0.1c0.3,0,0.5,0.2,0.5,0.5l-0.3,2.2c0,0.3-0.3,0.6-0.6,0.6L385.7,79.1z"/>
		<path class="st3" d="M426.5,70.1l-0.3,2c0,0.3-0.3,0.6-0.6,0.6l-2.1,0.1l-0.7,4.6c0,0.3-0.3,0.6-0.6,0.6l-3,0.1
			c-0.3,0-0.4-0.2-0.4-0.4c0-0.1,0-0.1,0-0.1l0.7-4.6l-8.7,0.3c-0.3,0-0.5-0.2-0.5-0.5v-0.1l0.3-2.4c0-0.3,0.2-0.6,0.5-0.9L421.6,57
			c0.3-0.3,0.5-0.5,0.9-0.6l2.6-0.1c0.3,0,0.5,0.2,0.5,0.4c0,0.1,0,0.1,0,0.1l-1.8,12.7l2.1-0.1c0.3,0,0.5,0.2,0.5,0.4
			C426.5,70.1,426.5,70.1,426.5,70.1z M420.8,62.2c-0.1,0-0.1,0.1-0.2,0.2l-6.1,7.3c-0.1,0.1-0.1,0.2-0.1,0.2c0,0.1,0.1,0.1,0.2,0.1
			l5.2-0.2l1-7.4C420.9,62.3,420.9,62.3,420.8,62.2C420.9,62.2,420.8,62.2,420.8,62.2z"/>
		<path class="st3" d="M429.6,77.5c-0.4-0.1-0.6-0.2-0.6-0.6l0.3-1.8c0-0.4,0.2-0.7,0.7-0.6c1.1,0.1,3.6,0.3,5.3,0.2
			c2.9-0.1,4.2-1.6,4.8-5.5c-1,0.2-2.5,0.4-3.6,0.4c-4,0.1-6.6-1.3-6.7-5.3c-0.2-5.1,3.2-8.5,8.6-8.7c3.5-0.1,6.3,1.6,6.5,6
			c0,1,0,1.9-0.1,2.7l-0.5,3.4c-1,7.3-4,9.9-9.4,10.1C432.4,77.9,430.6,77.6,429.6,77.5z M437.4,66.6c0.8,0,2.4-0.2,3.3-0.4l0.2-1.7
			c0.2-1.1,0.2-2,0.2-2.7c-0.1-2.6-1-3.1-3-3c-2.6,0.1-4.3,2-4.2,5.4C433.9,66,435.1,66.7,437.4,66.6z"/>
		<path class="st3" d="M463,55.4c0.4,0.1,0.6,0.2,0.6,0.6l-0.3,1.8c0,0.4-0.2,0.7-0.7,0.6c-1.1-0.1-3.6-0.3-5.3-0.2
			c-2.9,0.1-4.2,1.6-4.8,5.5c1-0.2,2.5-0.4,3.6-0.4c4-0.1,6.6,1.3,6.7,5.3c0.2,5.1-3.2,8.5-8.6,8.7c-3.5,0.1-6.3-1.9-6.5-6.3
			c0-0.7,0-1.6,0.1-2.4l0.5-3.4c1-7.3,4-9.9,9.4-10.1C460.2,54.9,462,55.2,463,55.4z M455.2,66.2c-0.8,0-2.4,0.2-3.3,0.4l-0.2,1.7
			c-0.2,1.1-0.2,2-0.2,2.4c0.1,2.9,1.3,3.4,3.1,3.3c2.6-0.1,4.3-2,4.2-5.4C458.7,66.8,457.6,66.1,455.2,66.2z"/>
	</g>
	<g>
		<path class="st3" d="M396.1,139.7l-3,0.1c-0.4,0-0.4-0.2-0.5-0.5l-0.5-5.5l-6.7,0.2l-2.1,5.6c-0.1,0.3-0.2,0.5-0.6,0.5l-3.2,0.1
			c-0.3,0-0.4-0.1-0.4-0.4c0-0.1,0-0.2,0-0.3l7.3-18.5c1.1-2.7,2.9-3.1,4.5-3.1c1.5-0.1,3.3,0.4,3.6,2.8l2.2,18.2c0,0,0,0,0,0.1
			C396.7,139.4,396.6,139.7,396.1,139.7z M390.9,121.9c0-0.3-0.1-0.5-0.4-0.5s-0.4,0.1-0.5,0.5l-3.3,8.8l5.1-0.2L390.9,121.9z"/>
		<path class="st3" d="M414,117.7c0.5,0.1,0.6,0.3,0.5,0.6l-0.3,2c0,0.4-0.1,0.7-0.7,0.6c-1-0.1-3-0.1-4.5-0.1
			c-2.8,0.1-4.4,1.6-5,5.6l-0.6,4.3c-0.1,0.7-0.1,1.4-0.1,1.9c0.1,2.7,1.3,3.5,3.6,3.4c1.5-0.1,3.5-0.3,4.6-0.4
			c0.6-0.1,0.6,0.2,0.5,0.6l-0.3,2c-0.1,0.4-0.3,0.6-0.7,0.7c-0.5,0.1-2.4,0.5-4.6,0.6c-3.5,0.1-6.9-1.4-7.1-6.5
			c0-0.6,0-1.4,0.1-2.1l0.6-4.3c1.1-7.8,5.3-9.1,9.5-9.2C411.7,117.3,413.6,117.6,414,117.7z"/>
		<path class="st3" d="M432.3,125.7l-0.5,3.9c-0.9,6.8-4.5,9.2-9.6,9.4c-4.2,0.1-7-2.1-7.1-6.6c0-0.7,0-1.4,0.1-2.2l0.5-3.9
			c0.9-6.8,4.5-9.2,9.6-9.4c4.2-0.1,7,2.2,7.1,6.7C432.5,124.2,432.4,124.9,432.3,125.7z M424.9,120.4c-3,0.1-4.5,1.8-5,5.7
			l-0.5,3.9c-0.1,0.8-0.1,1.6-0.1,2.2c0.1,2.5,1.3,3.3,3.5,3.3c3.1-0.1,4.5-1.9,5-5.7l0.5-3.9c0.1-0.8,0.1-1.5,0.1-2.2
			C428.3,121.2,427.2,120.3,424.9,120.4z"/>
	</g>
	<g>
		<path class="st3" d="M453.1,116.1c0.3,0,0.6,0.1,0.5,0.5l-2.8,20c-0.1,0.6-0.7,1.2-1.3,1.2l-2.7,0.1c-0.7,0-1.3,0-1.6-1l-4.6-14
			c-0.1-0.2-0.1-0.2-0.2-0.2s-0.2,0.1-0.2,0.2l-2,14.7c0,0.3-0.1,0.6-0.6,0.6l-2.5,0.1c-0.3,0-0.6-0.1-0.5-0.6l2.8-20
			c0.1-0.6,0.7-1.2,1.3-1.2l2.9-0.1c0.6,0,0.9,0.1,1.1,0.9l4.9,14.8c0,0.1,0.1,0.2,0.2,0.2s0.2-0.1,0.2-0.3l2.2-15.4
			c0-0.3,0.2-0.6,0.6-0.6L453.1,116.1z"/>
	</g>
	<g>
		<path class="st3" d="M473,115.4c0.5,0,0.5,0.3,0.4,0.6l-7.3,18.5c-1.1,2.7-3.2,3.1-4.5,3.1c-1.2,0-3.3-0.1-3.6-2.8l-2.2-18.2
			c0-0.5,0.2-0.6,0.6-0.7l3-0.1c0.3,0,0.4,0.1,0.5,0.5l1.7,17.4c0,0.3,0.1,0.5,0.4,0.5s0.4-0.1,0.5-0.5l6.7-17.7
			c0.1-0.3,0.3-0.5,0.6-0.5L473,115.4z"/>
	</g>
	<g>
		<path class="st3" d="M487.5,115.1c0.5,0.1,0.5,0.2,0.5,0.6l-0.3,1.9c0,0.3-0.1,0.6-0.7,0.6l-5.9,0.2c-1.7,0.1-2.4,0.7-2.6,2.6
			l-0.4,3.2l7.9-0.3c0.3,0,0.6,0.1,0.5,0.6l-0.3,2.1c0,0.3-0.2,0.6-0.7,0.6l-7.9,0.3l-0.5,3.8c0,0.4-0.1,0.7-0.1,1
			c0,1.2,0.6,1.5,2,1.5l5.9-0.2c0.3,0,0.6,0.1,0.5,0.6l-0.3,1.9c0,0.4-0.2,0.6-0.7,0.6c-1,0.2-2.1,0.5-5.6,0.6
			c-3.3,0.1-5.8-1.1-5.9-4.4c0-0.4,0-0.9,0.1-1.4l1.4-10.2c0.7-5.3,3.6-6.1,7.6-6.2C485.5,114.7,486.6,115,487.5,115.1z"/>
		<path class="st3" d="M507.8,114.2c0.3,0,0.6,0.1,0.5,0.5l-2.8,20c-0.1,0.6-0.7,1.2-1.3,1.2l-2.7,0.1c-0.7,0-1.3,0-1.6-1l-4.6-14
			c-0.1-0.2-0.1-0.2-0.2-0.2s-0.2,0.1-0.2,0.2l-2,14.7c0,0.3-0.1,0.6-0.6,0.6l-2.5,0.1c-0.3,0-0.6-0.1-0.5-0.6l2.8-20
			c0.1-0.6,0.7-1.2,1.3-1.2l2.9-0.1c0.6,0,0.9,0.1,1.1,0.9l4.9,14.8c0,0.1,0.1,0.2,0.2,0.2s0.2-0.1,0.2-0.3l2.2-15.4
			c0-0.3,0.2-0.6,0.6-0.6L507.8,114.2z"/>
	</g>
	<g>
		<path class="st3" d="M516.2,113.9c0.4,0,0.6,0.1,0.5,0.5l-2.9,20.6c0,0.3-0.1,0.6-0.7,0.6l-2.9,0.1c-0.4,0-0.5-0.3-0.5-0.6
			l2.9-20.6c0-0.3,0.2-0.6,0.6-0.6L516.2,113.9z"/>
		<path class="st3" d="M535.9,122.1l-0.5,3.9c-0.9,6.8-4.5,9.2-9.6,9.4c-4.2,0.1-7-2.1-7.1-6.6c0-0.7,0-1.4,0.1-2.2l0.5-3.9
			c0.9-6.8,4.5-9.2,9.6-9.4c4.2-0.1,7,2.2,7.1,6.7C536,120.6,536,121.3,535.9,122.1z M528.4,116.8c-3,0.1-4.5,1.8-5,5.7l-0.5,3.9
			c-0.1,0.8-0.1,1.6-0.1,2.2c0.1,2.5,1.3,3.3,3.5,3.3c3.1-0.1,4.5-1.9,5-5.7l0.5-3.9c0.1-0.8,0.1-1.5,0.1-2.2
			C531.9,117.5,530.7,116.7,528.4,116.8z"/>
		<path class="st3" d="M552.8,112.9c0.3,0,0.5,0.2,0.5,0.5l-0.3,2.2c0,0.4-0.1,0.6-0.6,0.5c-1.9-0.1-3.6-0.2-5.7-0.1
			c-1.6,0.1-3.4,0.6-3.4,2.3c0,1,0.5,1.6,2,2.4l3.2,1.8c2.4,1.4,3.2,2.9,3.3,5.1c0.2,4.8-3.8,6.9-8.5,7.1c-2.2,0.1-3.7-0.1-5.1-0.3
			c-0.3,0-0.5-0.2-0.5-0.6l0.3-2.1c0-0.3,0.1-0.6,0.7-0.6c1.2,0.1,4,0.2,5.1,0.1c2-0.1,3.8-0.8,3.7-2.8c0-1.1-0.5-1.7-2.1-2.7
			l-3.5-2.2c-2-1.2-2.7-3.2-2.7-4.8c-0.2-4.7,3.9-6.1,8.1-6.2C549.2,112.5,551.8,112.7,552.8,112.9z"/>
	</g>
	<g>
		<path class="st3" d="M577.7,133.4l-3,0.1c-0.4,0-0.4-0.2-0.5-0.5l-0.5-5.5l-6.7,0.2l-2.1,5.6c-0.1,0.3-0.2,0.5-0.6,0.5l-3.2,0.1
			c-0.3,0-0.4-0.1-0.4-0.4c0-0.1,0-0.2,0-0.3l7.3-18.5c1.1-2.7,2.9-3.1,4.5-3.1c1.5-0.1,3.3,0.4,3.6,2.8l2.2,18.2c0,0,0,0,0,0.1
			C578.3,133.1,578.2,133.3,577.7,133.4z M572.5,115.6c0-0.3-0.1-0.5-0.4-0.5c-0.3,0-0.4,0.1-0.5,0.5l-3.3,8.8l5.1-0.2L572.5,115.6z
			"/>
		<path class="st3" d="M587.4,111.4c0.4,0,0.6,0.1,0.5,0.5l-2.9,20.6c0,0.3-0.1,0.6-0.7,0.6l-2.9,0.1c-0.4,0-0.5-0.3-0.5-0.6
			l2.9-20.6c0-0.3,0.2-0.6,0.6-0.6L587.4,111.4z"/>
	</g>
	<g>
		<g>
			<path class="st3" d="M597.7,132.1c0,0.3-0.2,0.6-0.7,0.6l-2.9,0.1c-0.3,0-0.5-0.2-0.5-0.6l2.5-17.7l-5.1,0.2
				c-0.3,0-0.6-0.1-0.5-0.5l0.3-2.3c0.1-0.5,0.3-0.6,0.6-0.6l14.2-0.5c0.5,0,0.6,0.2,0.5,0.5l-0.3,2.3c-0.1,0.4-0.3,0.5-0.6,0.5
				l-5.1,0.2L597.7,132.1z"/>
		</g>
	</g>
</g>
<g>
	<path class="st3" d="M171.7,248h-3.4c-0.3,0-0.6-0.3-0.6-0.6v-3.7c0-0.3,0.3-0.6,0.6-0.6h3.4c0.3,0,0.6,0.2,0.6,0.6v3.7
		C172.2,247.7,172,248,171.7,248z"/>
</g>
<g>
	<path class="st3" d="M406.1,78.8h-3.4c-0.3,0-0.6-0.3-0.6-0.6v-3.7c0-0.3,0.3-0.6,0.6-0.6h3.4c0.3,0,0.6,0.2,0.6,0.6v3.7
		C406.7,78.5,406.4,78.8,406.1,78.8z"/>
</g>
</svg>
