<?xml version="1.0" encoding="utf-8"?>
<!-- Generator: Adobe Illustrator 19.2.1, SVG Export Plug-In . SVG Version: 6.00 Build 0)  -->
<svg version="1.1" id="Capa_1" xmlns="http://www.w3.org/2000/svg" xmlns:xlink="http://www.w3.org/1999/xlink" x="0px" y="0px"
	 viewBox="0 0 716.7 433.3" style="enable-background:new 0 0 716.7 433.3;" xml:space="preserve">
<style type="text/css">
	.st0{fill:#FF9B00;}
	.st1{fill:#FF9B00;stroke:#FF6800;stroke-width:2.1778;}
	.st2{fill:none;stroke:#FF6800;stroke-width:2.1778;}
	.st3{fill:#FFFFFD;}
</style>
<g>
	<polygon class="st0" points="419.9,67.9 482.2,20.4 658.3,20.4 658.3,256.7 597.5,302.2 504.2,265.6 	"/>
	<rect x="420.3" y="67.9" class="st1" width="176.5" height="233.8"/>
	<polyline class="st0" points="221,148 283.3,100.1 458.2,100.1 458.2,337.2 398.3,382.7 	"/>
	<polyline class="st2" points="221,148 283.3,100.1 458.2,100.1 458.2,337.2 398.3,382.7 	"/>
	<polyline class="st2" points="419.9,67.4 482.2,19.5 657.2,19.5 657.2,256.7 597.2,302.2 	"/>
	<line class="st2" x1="656.9" y1="19.6" x2="596.9" y2="67.9"/>
	<line class="st2" x1="457.9" y1="100.2" x2="392.7" y2="153.7"/>
	<rect x="221.4" y="148.4" class="st1" width="176.5" height="233.8"/>
	<g>
		<path class="st0" d="M46.3,25.5c0.5,0.1,0.6,0.3,0.5,0.7l-0.3,1.9c-0.1,0.4-0.1,0.7-0.7,0.6c-1-0.1-2.9-0.2-4.4-0.2
			c-2.8,0-4.4,1.5-5.1,5.3L35.5,38c-0.1,0.7-0.2,1.3-0.2,1.9c0,2.7,1.2,3.4,3.4,3.4c1.5,0,3.4-0.1,4.5-0.2c0.6-0.1,0.6,0.2,0.5,0.6
			l-0.3,1.9c-0.1,0.4-0.3,0.5-0.7,0.7c-0.5,0.1-2.4,0.5-4.6,0.5c-3.4,0-6.7-1.6-6.7-6.6c0-0.6,0.1-1.3,0.2-2.1l0.7-4.2
			c1.3-7.6,5.5-8.7,9.6-8.7C44.1,25.1,45.9,25.4,46.3,25.5z"/>
		<path class="st0" d="M64,33.9l-0.7,3.8c-1.1,6.6-4.7,8.9-9.7,8.9c-4.1,0-6.8-2.3-6.8-6.7c0-0.7,0.1-1.4,0.2-2.2l0.7-3.8
			c1.1-6.7,4.7-8.9,9.7-8.9c4.1,0,6.8,2.4,6.8,6.8C64.2,32.5,64.1,33.2,64,33.9z M56.8,28.5c-3,0-4.4,1.6-5.1,5.4L51,37.8
			c-0.1,0.8-0.2,1.5-0.2,2.1c0,2.5,1.1,3.3,3.4,3.3c3,0,4.5-1.7,5.1-5.4l0.7-3.8c0.1-0.8,0.2-1.5,0.2-2.1
			C60.2,29.4,59.1,28.5,56.8,28.5z"/>
		<path class="st0" d="M75.2,25.1c5.1,0,7.9,1.6,7.9,5.3c0,2.1-0.9,4.3-3.6,5.4c1.4,0.7,2.1,2.1,2.1,3.5c0,5.4-3.8,7.4-9.9,7.4
			c-2.3,0-4-0.1-4.9-0.3c-0.8-0.1-1.2-0.4-1.2-1.1c0-0.1,0-0.3,0.1-0.5l3.2-18c0.2-1,0.6-1.4,1.6-1.5C71.2,25.2,73,25.1,75.2,25.1z
			 M69.9,43.3c1.5,0,1.7,0.1,2.3,0.1c3.6,0,5.4-0.9,5.4-4c0-1.3-0.7-2.4-3-2.4H71L69.9,43.3z M71.5,34.2h3.6c3.1,0,4-1.7,4-3.7
			c0-1.6-1.2-2.2-4.5-2.2c-0.7,0-1.5,0-2.1,0.1L71.5,34.2z"/>
		<path class="st0" d="M99.6,25.5c0.5,0.1,0.5,0.2,0.5,0.6l-0.3,1.8c-0.1,0.3-0.1,0.6-0.7,0.6h-5.8c-1.7,0-2.3,0.6-2.7,2.5L90.1,34
			h7.7c0.3,0,0.6,0.1,0.5,0.6l-0.4,2.1c-0.1,0.3-0.2,0.6-0.7,0.6h-7.7l-0.6,3.7c-0.1,0.4-0.1,0.7-0.1,0.9c0,1.1,0.6,1.5,1.9,1.5h5.8
			c0.3,0,0.5,0.1,0.5,0.6l-0.3,1.8c-0.1,0.4-0.3,0.5-0.7,0.6c-0.9,0.1-2.1,0.4-5.5,0.4c-3.2,0-5.7-1.3-5.7-4.5c0-0.4,0-0.9,0.1-1.3
			l1.7-9.9c0.9-5.1,3.7-5.8,7.6-5.8C97.7,25.1,98.8,25.3,99.6,25.5z"/>
		<path class="st0" d="M112.8,37.6l3,8.3c0.1,0.4-0.1,0.6-0.4,0.6h-3.3c-0.3,0-0.4-0.2-0.5-0.6l-2.7-7.6h-0.6
			c-0.7,0-1.6-0.1-2.5-0.1l-1.3,7.7c-0.1,0.3-0.1,0.6-0.7,0.6h-2.9c-0.3,0-0.5-0.2-0.5-0.6l3.4-19.6c0.1-0.6,0.5-0.8,1.1-0.9
			c1.5-0.2,3.6-0.4,5.6-0.4c4.3,0,7.2,1.7,7.2,5.5C117.8,33.6,116.1,36.5,112.8,37.6z M110,28.4c-0.6,0-2,0.1-2.5,0.1l-1.1,6.4
			c0.5,0,2.1,0.1,2.5,0.1c2.9,0,5-1.1,5-4.3C113.8,29,112.5,28.4,110,28.4z"/>
		<path class="st0" d="M126.2,45.9c-0.1,0.3-0.2,0.6-0.7,0.6h-2.8c-0.3,0-0.5-0.2-0.5-0.6l3.1-17.3h-5c-0.3,0-0.5-0.1-0.5-0.5
			l0.4-2.3c0.1-0.5,0.3-0.5,0.7-0.5h13.9c0.5,0,0.5,0.2,0.5,0.5l-0.4,2.3c-0.1,0.4-0.3,0.5-0.7,0.5h-5L126.2,45.9z"/>
		<path class="st0" d="M153.2,25.3c0.4,0,0.5,0.2,0.5,0.5l-2.3,12.8c-1.1,6.4-4.5,8.1-9.2,8.1c-4,0-6.7-1.9-6.7-6
			c0-0.6,0-1.3,0.2-2.1l2.3-12.8c0.1-0.3,0.3-0.5,0.7-0.5h2.8c0.4,0,0.5,0.1,0.5,0.5l-2.3,12.8c-0.1,0.8-0.2,1.5-0.2,2.1
			c0,1.9,0.9,2.6,3.3,2.6c3.1,0,4.1-1.4,4.7-4.8l2.3-12.8c0.1-0.3,0.2-0.5,0.7-0.5H153.2z"/>
		<path class="st0" d="M166.6,37.6l3,8.3c0.1,0.4-0.1,0.6-0.4,0.6h-3.3c-0.3,0-0.4-0.2-0.5-0.6l-2.7-7.6h-0.6
			c-0.7,0-1.6-0.1-2.5-0.1l-1.3,7.7c-0.1,0.3-0.1,0.6-0.7,0.6h-2.8c-0.3,0-0.5-0.2-0.5-0.6l3.4-19.6c0.1-0.6,0.5-0.8,1.1-0.9
			c1.5-0.2,3.6-0.4,5.6-0.4c4.3,0,7.2,1.7,7.2,5.5C171.6,33.6,169.9,36.5,166.6,37.6z M163.8,28.4c-0.6,0-2,0.1-2.5,0.1l-1.1,6.4
			c0.5,0,2.1,0.1,2.5,0.1c2.9,0,5-1.1,5-4.3C167.6,29,166.3,28.4,163.8,28.4z"/>
		<path class="st0" d="M188,46.5h-2.9c-0.4,0-0.4-0.2-0.5-0.5l-0.3-5.4h-6.6l-2.3,5.4c-0.1,0.3-0.3,0.5-0.6,0.5h-3.1
			c-0.3,0-0.4-0.1-0.4-0.4c0-0.1,0-0.2,0.1-0.3l7.8-17.9c1.2-2.7,2.9-2.9,4.5-2.9c1.5,0,3.2,0.5,3.4,2.9l1.5,17.9c0,0,0,0,0,0.1
			C188.6,46.2,188.5,46.5,188,46.5z M183.5,28.8c0-0.3-0.1-0.5-0.4-0.5c-0.3,0-0.4,0.1-0.5,0.5l-3.5,8.5h5L183.5,28.8z"/>
		<path class="st0" d="M216.3,33.8l-0.7,4.2c-1,5.9-4.4,8.7-10.5,8.7c-2,0-4.7-0.2-5.6-0.3c-0.4-0.1-0.6-0.3-0.6-0.7
			c0-0.1,0-0.1,0-0.2l3.4-19.2c0.1-0.6,0.4-0.8,0.9-0.9c0.9-0.1,3.6-0.3,5.7-0.3c4.8,0,7.6,2.5,7.6,6.8
			C216.5,32.4,216.4,33.1,216.3,33.8z M208.4,28.4c-1.1,0-1.8,0.1-2.4,0.1l-2.6,14.8c0.6,0,1.3,0.1,2.4,0.1c2.9,0,5.3-1.3,6-5.4
			l0.7-4.2c0.1-0.7,0.2-1.3,0.2-1.8C212.6,29.1,210.9,28.4,208.4,28.4z"/>
		<path class="st0" d="M235.7,33.9l-0.7,3.8c-1.1,6.6-4.7,8.9-9.7,8.9c-4.1,0-6.8-2.3-6.8-6.7c0-0.7,0.1-1.4,0.2-2.2l0.7-3.8
			c1.1-6.7,4.7-8.9,9.7-8.9c4.1,0,6.8,2.4,6.8,6.8C235.9,32.5,235.8,33.2,235.7,33.9z M228.5,28.5c-3,0-4.4,1.6-5.1,5.4l-0.7,3.8
			c-0.1,0.8-0.2,1.5-0.2,2.1c0,2.5,1.1,3.3,3.4,3.3c3,0,4.5-1.7,5.1-5.4l0.7-3.8c0.1-0.8,0.2-1.5,0.2-2.1
			C231.9,29.4,230.8,28.5,228.5,28.5z"/>
	</g>
	<g>
		<path class="st0" d="M252.9,25.5c0.5,0.1,0.6,0.3,0.5,0.7l-0.3,1.9c-0.1,0.4-0.1,0.7-0.7,0.6c-1-0.1-2.9-0.2-4.4-0.2
			c-2.8,0-4.4,1.5-5.1,5.3l-0.7,4.2c-0.1,0.7-0.2,1.3-0.2,1.9c0,2.7,1.2,3.4,3.4,3.4c1.5,0,3.4-0.1,4.5-0.2c0.6-0.1,0.6,0.2,0.5,0.6
			l-0.3,1.9c-0.1,0.4-0.3,0.5-0.7,0.7c-0.5,0.1-2.4,0.5-4.6,0.5c-3.4,0-6.7-1.6-6.7-6.6c0-0.6,0.1-1.3,0.2-2.1l0.7-4.2
			c1.3-7.6,5.5-8.7,9.6-8.7C250.6,25.1,252.5,25.4,252.9,25.5z"/>
	</g>
	<g>
		<path class="st0" d="M269,25.5c0.5,0.1,0.5,0.2,0.5,0.6l-0.3,1.8c-0.1,0.3-0.1,0.6-0.7,0.6h-5.8c-1.7,0-2.3,0.6-2.7,2.5l-0.5,3.1
			h7.7c0.3,0,0.6,0.1,0.5,0.6l-0.4,2.1c-0.1,0.3-0.2,0.6-0.7,0.6h-7.7l-0.6,3.7c-0.1,0.4-0.1,0.7-0.1,0.9c0,1.1,0.6,1.5,1.9,1.5h5.8
			c0.3,0,0.5,0.1,0.5,0.6l-0.3,1.8c-0.1,0.4-0.3,0.5-0.7,0.6c-0.9,0.1-2.1,0.4-5.5,0.4c-3.2,0-5.7-1.3-5.7-4.5c0-0.4,0-0.9,0.1-1.3
			l1.7-9.9c0.9-5.1,3.7-5.8,7.6-5.8C267.1,25.1,268.2,25.3,269,25.5z"/>
		<path class="st0" d="M289,25.3c0.3,0,0.5,0.1,0.5,0.5L286,45.3c-0.1,0.6-0.7,1.1-1.3,1.1H282c-0.7,0-1.3,0-1.6-1l-4.1-13.9
			c-0.1-0.2-0.1-0.2-0.2-0.2c-0.1,0-0.2,0.1-0.2,0.2l-2.5,14.3c-0.1,0.3-0.1,0.6-0.7,0.6h-2.4c-0.3,0-0.5-0.1-0.5-0.6l3.4-19.5
			c0.1-0.6,0.7-1.1,1.3-1.1h2.9c0.6,0,0.9,0.2,1.1,0.9l4.3,14.6c0,0.1,0.1,0.2,0.2,0.2c0.1,0,0.2-0.1,0.2-0.3l2.7-15
			c0.1-0.3,0.2-0.5,0.6-0.5H289z"/>
		<path class="st0" d="M297.4,45.9c-0.1,0.3-0.2,0.6-0.7,0.6h-2.8c-0.3,0-0.5-0.2-0.5-0.6l3.1-17.3h-5c-0.3,0-0.5-0.1-0.5-0.5
			l0.4-2.3c0.1-0.5,0.3-0.5,0.7-0.5H306c0.5,0,0.5,0.2,0.5,0.5l-0.4,2.3c-0.1,0.4-0.3,0.5-0.7,0.5h-5L297.4,45.9z"/>
		<path class="st0" d="M320.8,25.5c0.5,0.1,0.5,0.2,0.5,0.6l-0.3,1.8c-0.1,0.3-0.1,0.6-0.7,0.6h-5.8c-1.7,0-2.3,0.6-2.7,2.5
			l-0.5,3.1h7.7c0.3,0,0.6,0.1,0.5,0.6l-0.4,2.1c-0.1,0.3-0.2,0.6-0.7,0.6h-7.7l-0.6,3.7c-0.1,0.4-0.1,0.7-0.1,0.9
			c0,1.1,0.6,1.5,1.9,1.5h5.8c0.3,0,0.5,0.1,0.5,0.6l-0.3,1.8c-0.1,0.4-0.3,0.5-0.7,0.6c-0.9,0.1-2.1,0.4-5.5,0.4
			c-3.2,0-5.7-1.3-5.7-4.5c0-0.4,0-0.9,0.1-1.3l1.7-9.9c0.9-5.1,3.7-5.8,7.6-5.8C318.8,25.1,319.9,25.3,320.8,25.5z"/>
		<path class="st0" d="M336.9,25.6c0.3,0.1,0.5,0.2,0.4,0.5l-0.4,2.1c-0.1,0.4-0.1,0.6-0.6,0.5c-1.9-0.2-3.5-0.3-5.6-0.3
			c-1.6,0-3.4,0.5-3.4,2.1c0,1,0.5,1.5,1.9,2.4l3.1,1.9c2.3,1.4,3,3,3,5.1c0,4.7-3.9,6.6-8.6,6.6c-2.1,0-3.6-0.2-5-0.5
			c-0.3-0.1-0.5-0.2-0.5-0.6l0.4-2.1c0.1-0.3,0.1-0.6,0.7-0.5c1.1,0.1,4,0.3,5,0.3c2,0,3.8-0.7,3.8-2.7c0-1.1-0.5-1.7-1.9-2.7
			l-3.4-2.3c-1.9-1.3-2.5-3.2-2.5-4.8c0-4.6,4.1-5.8,8.1-5.8C333.4,25.1,336,25.3,336.9,25.6z"/>
	</g>
	<g>
		<path class="st0" d="M46.3,54c0.5,0.1,0.6,0.3,0.5,0.7l-0.3,1.9c-0.1,0.4-0.1,0.7-0.7,0.6c-1-0.1-2.9-0.2-4.4-0.2
			c-2.8,0-4.4,1.5-5.1,5.3l-0.7,4.2c-0.1,0.7-0.2,1.3-0.2,1.9c0,2.7,1.2,3.4,3.4,3.4c1.5,0,3.4-0.1,4.5-0.2c0.6-0.1,0.6,0.2,0.5,0.6
			l-0.3,1.9c-0.1,0.4-0.3,0.5-0.7,0.7c-0.5,0.1-2.4,0.5-4.6,0.5c-3.4,0-6.7-1.6-6.7-6.6c0-0.6,0.1-1.3,0.2-2.1l0.7-4.2
			c1.3-7.6,5.5-8.7,9.6-8.7C44.1,53.6,45.9,53.9,46.3,54z"/>
	</g>
	<g>
		<path class="st0" d="M62.5,54C63,54,63,54.2,63,54.6l-0.3,1.8C62.6,56.7,62.5,57,62,57h-5.8c-1.7,0-2.3,0.6-2.7,2.5l-0.5,3.1h7.7
			c0.3,0,0.6,0.1,0.5,0.6l-0.4,2.1c-0.1,0.3-0.2,0.6-0.7,0.6h-7.7l-0.6,3.7c-0.1,0.4-0.1,0.7-0.1,0.9c0,1.1,0.6,1.5,1.9,1.5h5.8
			c0.3,0,0.5,0.1,0.5,0.6l-0.3,1.8c-0.1,0.4-0.3,0.5-0.7,0.6c-0.9,0.1-2.1,0.4-5.5,0.4c-3.2,0-5.7-1.3-5.7-4.5c0-0.4,0-0.9,0.1-1.3
			l1.7-9.9c0.9-5.1,3.7-5.8,7.6-5.8C60.5,53.6,61.6,53.8,62.5,54z"/>
		<path class="st0" d="M75.6,66.1l3,8.3c0.1,0.4-0.1,0.6-0.4,0.6H75c-0.3,0-0.4-0.2-0.5-0.6l-2.7-7.6h-0.6c-0.7,0-1.6-0.1-2.5-0.1
			l-1.3,7.7c-0.1,0.3-0.1,0.6-0.7,0.6h-2.9c-0.3,0-0.5-0.2-0.5-0.6l3.4-19.6c0.1-0.6,0.5-0.8,1.1-0.9c1.5-0.2,3.6-0.4,5.6-0.4
			c4.3,0,7.2,1.7,7.2,5.5C80.7,62.1,79,65,75.6,66.1z M72.9,57c-0.6,0-2,0.1-2.5,0.1l-1.1,6.4c0.5,0,2.1,0.1,2.5,0.1
			c2.9,0,5-1.1,5-4.3C76.7,57.5,75.4,57,72.9,57z"/>
		<path class="st0" d="M89,74.4C89,74.7,88.8,75,88.3,75h-2.8c-0.3,0-0.5-0.2-0.5-0.6l3.1-17.3h-5c-0.3,0-0.5-0.1-0.5-0.5l0.4-2.3
			c0.1-0.5,0.3-0.5,0.7-0.5h13.9c0.5,0,0.5,0.2,0.5,0.5l-0.4,2.3c-0.1,0.4-0.3,0.5-0.7,0.5h-5L89,74.4z"/>
		<path class="st0" d="M104.4,53.8c0.4,0,0.5,0.1,0.5,0.5l-3.5,20.1c-0.1,0.3-0.1,0.6-0.7,0.6h-2.8c-0.4,0-0.5-0.3-0.5-0.6l3.5-20.1
			c0.1-0.3,0.2-0.5,0.7-0.5H104.4z"/>
		<path class="st0" d="M121.3,54c0.5,0.1,0.5,0.2,0.5,0.6l-0.3,1.8c-0.1,0.3-0.2,0.6-0.7,0.6h-5.8c-1.7,0-2.3,0.6-2.7,2.5l-0.5,3.1
			h7.7c0.5,0,0.5,0.3,0.5,0.6l-0.4,2.1c-0.1,0.3-0.2,0.6-0.7,0.6h-7.7l-1.5,8.7c-0.1,0.3-0.4,0.6-0.7,0.6h-2.8
			c-0.3,0-0.5-0.2-0.5-0.5c0-0.1,0-0.1,0-0.1l2.6-15c0.9-4.8,3.4-5.8,7.6-5.8C118.8,53.6,120,53.8,121.3,54z"/>
		<path class="st0" d="M129.1,53.8c0.4,0,0.5,0.1,0.5,0.5L126,74.4c-0.1,0.3-0.1,0.6-0.7,0.6h-2.8c-0.4,0-0.5-0.3-0.5-0.6l3.5-20.1
			c0.1-0.3,0.2-0.5,0.7-0.5H129.1z"/>
	</g>
	<g>
		<path class="st0" d="M145.9,54c0.5,0.1,0.6,0.3,0.5,0.7l-0.3,1.9c-0.1,0.4-0.1,0.7-0.7,0.6c-1-0.1-2.9-0.2-4.4-0.2
			c-2.8,0-4.4,1.5-5.1,5.3l-0.7,4.2c-0.1,0.7-0.2,1.3-0.2,1.9c0,2.7,1.2,3.4,3.4,3.4c1.5,0,3.4-0.1,4.5-0.2c0.6-0.1,0.6,0.2,0.5,0.6
			l-0.3,1.9c-0.1,0.4-0.3,0.5-0.7,0.7c-0.5,0.1-2.4,0.5-4.6,0.5c-3.4,0-6.7-1.6-6.7-6.6c0-0.6,0.1-1.3,0.2-2.1l0.7-4.2
			c1.3-7.6,5.5-8.7,9.6-8.7C143.7,53.6,145.5,53.9,145.9,54z"/>
	</g>
	<g>
		<path class="st0" d="M161.6,75h-2.9c-0.4,0-0.4-0.2-0.5-0.5l-0.3-5.4h-6.6l-2.3,5.4c-0.1,0.3-0.3,0.5-0.6,0.5h-3.1
			c-0.3,0-0.4-0.1-0.4-0.4c0-0.1,0-0.2,0.1-0.3l7.8-17.9c1.2-2.7,2.9-2.9,4.5-2.9c1.5,0,3.2,0.5,3.4,2.9l1.5,17.9c0,0,0,0,0,0.1
			C162.2,74.7,162.1,75,161.6,75z M157.2,57.4c0-0.3-0.1-0.5-0.4-0.5c-0.3,0-0.4,0.1-0.5,0.5l-3.5,8.5h5L157.2,57.4z"/>
		<path class="st0" d="M182.4,62.3l-0.7,4.2c-1,5.9-4.4,8.7-10.5,8.7c-2,0-4.7-0.2-5.6-0.3c-0.4-0.1-0.6-0.3-0.6-0.7
			c0-0.1,0-0.1,0-0.2l3.4-19.2c0.1-0.6,0.4-0.8,0.9-0.9c0.9-0.1,3.6-0.3,5.7-0.3c4.8,0,7.6,2.5,7.6,6.8
			C182.5,60.9,182.5,61.6,182.4,62.3z M174.4,56.9c-1.1,0-1.8,0.1-2.4,0.1l-2.6,14.8c0.6,0,1.3,0.1,2.4,0.1c2.8,0,5.3-1.3,6-5.4
			l0.7-4.2c0.1-0.7,0.2-1.3,0.2-1.8C178.6,57.6,176.9,56.9,174.4,56.9z"/>
		<path class="st0" d="M201.7,62.5l-0.7,3.8c-1.1,6.6-4.7,8.9-9.7,8.9c-4.1,0-6.8-2.3-6.8-6.7c0-0.7,0.1-1.4,0.2-2.2l0.7-3.8
			c1.1-6.7,4.7-8.9,9.7-8.9c4.1,0,6.8,2.4,6.8,6.8C201.9,61,201.8,61.7,201.7,62.5z M194.6,57c-3,0-4.4,1.6-5.1,5.4l-0.7,3.8
			c-0.1,0.8-0.2,1.5-0.2,2.1c0,2.5,1.1,3.3,3.4,3.3c3,0,4.5-1.7,5.1-5.4l0.7-3.8c0.1-0.8,0.2-1.5,0.2-2.1
			C197.9,57.9,196.8,57,194.6,57z"/>
		<path class="st0" d="M218.6,54.1c0.3,0.1,0.5,0.2,0.4,0.5l-0.4,2.1c-0.1,0.4-0.1,0.6-0.6,0.5c-1.9-0.2-3.5-0.3-5.6-0.3
			c-1.6,0-3.4,0.5-3.4,2.1c0,1,0.5,1.5,1.9,2.4l3.1,1.9c2.3,1.4,3,3,3,5.1c0,4.7-3.9,6.6-8.6,6.6c-2.1,0-3.6-0.2-5-0.5
			c-0.3-0.1-0.5-0.2-0.5-0.6l0.4-2.1c0.1-0.3,0.1-0.6,0.7-0.5c1.1,0.1,4,0.3,5,0.3c2,0,3.8-0.7,3.8-2.7c0-1.1-0.5-1.7-1.9-2.7
			l-3.4-2.3c-1.9-1.3-2.5-3.2-2.5-4.8c0-4.6,4.1-5.8,8.1-5.8C215.1,53.6,217.6,53.8,218.6,54.1z"/>
	</g>
	<g>
		<path class="st0" d="M242.8,54c0.5,0.1,0.6,0.3,0.5,0.7l-0.3,1.9c-0.1,0.4-0.1,0.7-0.7,0.6c-1-0.1-2.9-0.2-4.4-0.2
			c-2.8,0-4.4,1.5-5.1,5.3l-0.7,4.2c-0.1,0.7-0.2,1.3-0.2,1.9c0,2.7,1.2,3.4,3.4,3.4c1.5,0,3.4-0.1,4.5-0.2c0.6-0.1,0.6,0.2,0.5,0.6
			l-0.3,1.9c-0.1,0.4-0.3,0.5-0.7,0.7c-0.5,0.1-2.4,0.5-4.6,0.5c-3.4,0-6.7-1.6-6.7-6.6c0-0.6,0.1-1.3,0.2-2.1l0.7-4.2
			c1.3-7.6,5.5-8.7,9.6-8.7C240.5,53.6,242.4,53.9,242.8,54z"/>
	</g>
	<g>
		<path class="st0" d="M250.4,53.8c0.4,0,0.5,0.1,0.5,0.5l-3.5,20.1c-0.1,0.3-0.1,0.6-0.7,0.6h-2.8c-0.4,0-0.5-0.3-0.5-0.6l3.5-20.1
			c0.1-0.3,0.2-0.5,0.7-0.5H250.4z"/>
		<path class="st0" d="M266.9,54.1c0.3,0.1,0.5,0.2,0.4,0.5l-0.4,2.1c-0.1,0.4-0.1,0.6-0.6,0.5c-1.9-0.2-3.5-0.3-5.6-0.3
			c-1.6,0-3.4,0.5-3.4,2.1c0,1,0.5,1.5,1.9,2.4l3.1,1.9c2.3,1.4,3,3,3,5.1c0,4.7-3.9,6.6-8.6,6.6c-2.1,0-3.6-0.2-5-0.5
			c-0.3-0.1-0.5-0.2-0.5-0.6l0.4-2.1c0.1-0.3,0.1-0.6,0.7-0.5c1.1,0.1,4,0.3,5,0.3c2,0,3.8-0.7,3.8-2.7c0-1.1-0.5-1.7-1.9-2.7
			l-3.4-2.3c-1.9-1.3-2.5-3.2-2.5-4.8c0-4.6,4.1-5.8,8.1-5.8C263.4,53.6,266,53.8,266.9,54.1z"/>
	</g>
	<g>
		<path class="st0" d="M283.4,54c0.5,0.1,0.6,0.3,0.5,0.7l-0.3,1.9c-0.1,0.4-0.1,0.7-0.7,0.6c-1-0.1-2.9-0.2-4.4-0.2
			c-2.8,0-4.4,1.5-5.1,5.3l-0.7,4.2c-0.1,0.7-0.2,1.3-0.2,1.9c0,2.7,1.2,3.4,3.4,3.4c1.5,0,3.4-0.1,4.5-0.2c0.6-0.1,0.6,0.2,0.5,0.6
			l-0.3,1.9c-0.1,0.4-0.3,0.5-0.7,0.7c-0.5,0.1-2.4,0.5-4.6,0.5c-3.4,0-6.7-1.6-6.7-6.6c0-0.6,0.1-1.3,0.2-2.1l0.7-4.2
			c1.3-7.6,5.5-8.7,9.6-8.7C281.2,53.6,283,53.9,283.4,54z"/>
	</g>
	<g>
		<path class="st0" d="M301.1,62.5l-0.7,3.8c-1.1,6.6-4.7,8.9-9.7,8.9c-4.1,0-6.8-2.3-6.8-6.7c0-0.7,0.1-1.4,0.2-2.2l0.7-3.8
			c1.1-6.7,4.7-8.9,9.7-8.9c4.1,0,6.8,2.4,6.8,6.8C301.3,61,301.2,61.7,301.1,62.5z M293.9,57c-3,0-4.4,1.6-5.1,5.4l-0.7,3.8
			c-0.1,0.8-0.2,1.5-0.2,2.1c0,2.5,1.1,3.3,3.4,3.3c3,0,4.5-1.7,5.1-5.4l0.7-3.8c0.1-0.8,0.2-1.5,0.2-2.1
			C297.3,57.9,296.2,57,293.9,57z"/>
		<path class="st0" d="M322.1,64.5l-2.9,1.7c-3.4,2-4.1,2.8-4.6,5.5h9c0.3,0,0.5,0.1,0.5,0.5l-0.4,2.2c-0.1,0.3-0.1,0.6-0.7,0.6
			h-12.1c-0.3,0-0.5-0.2-0.5-0.6l0.5-2.8c0.7-3.8,2.4-5.8,5.6-7.7l3.2-1.9c1.8-1.1,3.3-1.6,3.3-3.6c0-1.5-1.1-1.8-3-1.8
			c-1.7,0-4,0.3-5.8,0.4c-0.4,0-0.6-0.1-0.5-0.6l0.3-1.7c0.1-0.3,0.3-0.5,0.6-0.5c1.5-0.4,4-0.7,5.8-0.7c4.1,0,6.2,1.5,6.2,4.4
			C326.7,61,325.2,62.7,322.1,64.5z"/>
		<path class="st0" d="M344.5,63.3l-0.4,2.1c-1.3,7.3-4.2,9.7-9.2,9.7c-3.6,0-6-2.3-6-6.8c0-0.9,0.1-1.9,0.3-2.9l0.4-2.1
			c1.3-7.6,4.4-9.8,9.1-9.8c3.6,0,6,2.1,6,6.7C344.8,61.2,344.7,62.2,344.5,63.3z M338.2,56.8c-2,0-3.7,1.4-4.6,6.6l-0.4,2.1
			c-0.2,1.2-0.3,2.1-0.3,2.9c0,2.8,1.1,3.6,2.6,3.6c2,0,3.7-1.4,4.6-6.5l0.4-2.1c0.2-1.2,0.3-2.1,0.3-2.9
			C340.8,57.6,339.7,56.8,338.2,56.8z"/>
		<path class="st0" d="M347.6,75c-0.3,0-0.5-0.3-0.5-0.6l0.4-2.2c0.1-0.3,0.4-0.5,0.7-0.5h3.8l2.5-14l-3.9,1.1
			c-0.1,0.1-0.3,0.1-0.3,0.1c-0.2,0-0.3-0.1-0.3-0.3l0.5-2.7c0-0.2,0.1-0.3,0.3-0.3l5.3-1.7c0.2-0.1,0.4-0.1,0.7-0.1h1.9
			c0.3,0,0.5,0.2,0.4,0.5l-3,17.4h3.8c0.3,0,0.5,0.2,0.5,0.5l-0.4,2.2c-0.1,0.3-0.3,0.6-0.7,0.6H347.6z"/>
		<path class="st0" d="M380.5,54.3l-0.4,2.2c-0.1,0.3-0.3,0.5-0.7,0.5h-7.7l-1.3,4.7h0.7c4.2,0,7.8,1,7.8,5.8c0,4.4-2.5,7.6-8.7,7.6
			c-1.7,0-3.8-0.3-5.4-0.7c-0.3-0.1-0.5-0.2-0.4-0.6l0.3-1.7c0.1-0.3,0.2-0.6,0.7-0.5c2.2,0.3,3.6,0.4,5.2,0.4
			c3.6,0,4.3-2.3,4.3-4.4c0-2.7-2.3-2.8-4.5-2.8h-3.8c-0.3,0-0.4-0.3-0.3-0.4l2.7-10.1c0.1-0.3,0.4-0.5,0.7-0.5h10.3
			C380.3,53.8,380.5,54,380.5,54.3C380.5,54.3,380.5,54.3,380.5,54.3L380.5,54.3z"/>
	</g>
	<g>
		<path class="st3" d="M278.3,245c1.8,1.4,2.8,3.4,2.8,5.7c0,8.1-5.7,11.5-13.1,11.5h-0.4c-4.8,0-9.6-2.6-9.6-7.7
			c0-4.9,2.3-7.8,5.4-9.5c-1.9-1.4-2.7-3.2-2.7-5.3c0-7.7,5.6-10.6,12.7-10.6h0.3c5.1,0,9.8,2,9.8,7.4
			C283.5,240.5,281.7,243,278.3,245z M271.4,247.3h-1.8c-3.7,0-5.6,3-5.6,6.4c0,2.6,1.1,4,4.4,4h0.4c4.4,0,6.4-2.7,6.4-6.6
			C275.2,249.2,274.3,247.3,271.4,247.3z M272.9,233.6h-0.3c-3.8,0-6.3,2.1-6.3,5.9c0,2,1.1,3.4,4,3.4h1.8c3.4,0,5.7-2.5,5.7-5.8
			C277.8,234.9,276.2,233.6,272.9,233.6z"/>
		<path class="st3" d="M291.6,234.5c-0.6,0-0.8-0.3-0.7-0.8l0.6-3.4c0.1-0.5,0.3-0.8,1-0.8h18.2c1.3,0,1.7,0.5,1.4,1.7l-0.3,2
			c-0.1,0.4-0.3,1-1.2,2.4L294.2,261c-0.4,0.7-0.7,0.8-1.3,0.8h-4.7c-0.3,0-0.5-0.2-0.5-0.5c0-0.2,0-0.3,0.2-0.5l17.1-26
			c0.1-0.2,0-0.3-0.2-0.3H291.6z"/>
		<path class="st3" d="M328.5,236.6l-0.6,3.6c-0.9,5.2-3.3,7.3-7.5,7.3c-3.3,0-5.1-2.1-5.1-5.4c0-0.6,0-1.2,0.2-1.9l0.6-3.6
			c0.9-5.4,3.6-7.3,7.5-7.3c3.3,0,5.1,2,5.1,5.4C328.7,235.3,328.6,235.9,328.5,236.6z M344.6,230.4l-23.6,30.7
			c-0.5,0.6-0.7,0.9-1.2,0.9h-3.7c-0.3,0-0.3-0.1-0.3-0.3c0-0.2,0.1-0.4,0.3-0.6l23.6-30.7c0.5-0.7,0.7-0.9,1.2-0.9h3.7
			c0.2,0,0.3,0.1,0.3,0.3C344.9,229.9,344.8,230.1,344.6,230.4z M323.1,232.5c-1.6,0-2.7,1-3.3,4.1l-0.6,3.6
			c-0.1,0.7-0.2,1.2-0.2,1.7c0,1.8,0.7,2.4,2,2.4c1.6,0,2.7-1,3.2-4.1l0.6-3.6c0.1-0.7,0.2-1.3,0.2-1.7
			C325,233.1,324.3,232.5,323.1,232.5z M345.5,251.3l-0.6,3.6c-0.9,5.2-3.3,7.3-7.5,7.3c-3.3,0-5.1-2.2-5.1-5.5c0-0.6,0-1.2,0.2-1.8
			l0.6-3.6c0.9-5.4,3.6-7.3,7.5-7.3c3.3,0,5.1,2,5.1,5.4C345.6,250,345.6,250.7,345.5,251.3z M340,247.3c-1.6,0-2.7,1-3.3,4.1
			l-0.6,3.6c-0.1,0.7-0.2,1.2-0.2,1.7c0,1.8,0.7,2.4,2,2.4c1.6,0,2.7-1,3.2-4.1l0.6-3.6c0.1-0.7,0.2-1.3,0.2-1.8
			C341.9,247.9,341.2,247.3,340,247.3z"/>
	</g>
	<g>
		<g>
			<path class="st3" d="M497.8,154.9c1.8,1.4,2.8,3.4,2.8,5.7c0,8.1-5.7,11.5-13.1,11.5h-0.4c-4.8,0-9.6-2.6-9.6-7.7
				c0-4.9,2.3-7.8,5.4-9.5c-1.9-1.4-2.7-3.2-2.7-5.3c0-7.7,5.6-10.6,12.7-10.6h0.3c5.1,0,9.8,2,9.8,7.4
				C503,150.3,501.2,152.9,497.8,154.9z M490.8,157.2H489c-3.7,0-5.6,3-5.6,6.4c0,2.6,1.1,4,4.4,4h0.4c4.4,0,6.4-2.7,6.4-6.6
				C494.7,159.1,493.8,157.2,490.8,157.2z M492.4,143.5h-0.3c-3.8,0-6.3,2.1-6.3,5.9c0,2,1.1,3.4,4,3.4h1.8c3.4,0,5.7-2.5,5.7-5.8
				C497.3,144.7,495.7,143.5,492.4,143.5z"/>
			<path class="st3" d="M506.7,171.2c-0.6-0.1-1-0.3-0.8-0.9l0.5-2.7c0.1-0.6,0.3-1,1.1-0.9c1.6,0.3,5.4,0.6,8,0.6
				c4.4,0,6.4-2.2,7.5-7.9c-1.4,0.3-3.7,0.5-5.5,0.5c-5.9,0-9.8-2.4-9.8-8.3c0-7.6,5.2-12.5,13.3-12.5c5.3,0,9.4,2.7,9.4,9.4
				c0,1.5-0.1,2.9-0.3,4.1l-0.9,5c-1.9,10.9-6.5,14.6-14.6,14.6C510.8,172,508.1,171.5,506.7,171.2z M518.8,155.4
				c1.3,0,3.6-0.2,4.9-0.5l0.4-2.5c0.3-1.7,0.4-3,0.4-4.1c0-4-1.4-4.7-4.4-4.7c-3.9,0-6.6,2.8-6.6,7.8
				C513.7,154.3,515.4,155.4,518.8,155.4z"/>
			<path class="st3" d="M548,146.4l-0.6,3.6c-0.9,5.2-3.3,7.3-7.5,7.3c-3.3,0-5.1-2.1-5.1-5.4c0-0.6,0-1.2,0.2-1.9l0.6-3.6
				c0.9-5.4,3.6-7.3,7.5-7.3c3.3,0,5.1,2,5.1,5.4C548.2,145.1,548.1,145.8,548,146.4z M564.1,140.2l-23.6,30.7
				c-0.5,0.6-0.7,0.9-1.2,0.9h-3.7c-0.3,0-0.3-0.1-0.3-0.3c0-0.2,0.1-0.4,0.3-0.6l23.6-30.7c0.5-0.7,0.7-0.9,1.2-0.9h3.7
				c0.2,0,0.3,0.1,0.3,0.3C564.4,139.8,564.3,140,564.1,140.2z M542.5,142.4c-1.6,0-2.7,1-3.3,4.1l-0.6,3.6
				c-0.1,0.7-0.2,1.2-0.2,1.7c0,1.8,0.7,2.4,2,2.4c1.6,0,2.7-1,3.2-4.1l0.6-3.6c0.1-0.7,0.2-1.3,0.2-1.7
				C544.4,143,543.8,142.4,542.5,142.4z M564.9,161.2l-0.6,3.6c-0.9,5.2-3.3,7.3-7.5,7.3c-3.3,0-5.1-2.2-5.1-5.5
				c0-0.6,0-1.2,0.2-1.8l0.6-3.6c0.9-5.4,3.6-7.3,7.5-7.3c3.3,0,5.1,2,5.1,5.4C565.1,159.9,565.1,160.5,564.9,161.2z M559.5,157.1
				c-1.6,0-2.7,1-3.3,4.1l-0.6,3.6c-0.1,0.7-0.2,1.2-0.2,1.7c0,1.8,0.7,2.4,2,2.4c1.6,0,2.7-1,3.2-4.1l0.6-3.6
				c0.1-0.7,0.2-1.3,0.2-1.8C561.4,157.7,560.7,157.1,559.5,157.1z"/>
		</g>
	</g>
	<g>
		<g>
			<path class="st0" d="M476.8,311.1c1.5-0.2,3.6-0.4,5.6-0.4c4.9,0,7.2,2,7.2,5.8c0,4.4-2.9,7.7-9.5,7.7c-0.7,0-1.9-0.1-2.5-0.1
				l-1.3,7.4c-0.1,0.3-0.2,0.6-0.7,0.6h-2.9c-0.5,0-0.5-0.3-0.5-0.6l3.4-19.6C475.9,311.4,476.2,311.2,476.8,311.1z M478.2,320.9
				c0.5,0,2.1,0.1,2.5,0.1c3.4,0,5-1.9,5-4.5c0-1.9-1.2-2.5-3.8-2.5c-0.6,0-2.1,0.1-2.6,0.1L478.2,320.9z"/>
			<path class="st0" d="M500.8,316.4l-0.4,2.1c-0.1,0.3-0.2,0.6-0.7,0.6c-0.9,0-2.2,0.1-4.1,1l-2,11.5c-0.1,0.3-0.1,0.6-0.7,0.6
				h-2.6c-0.3,0-0.5-0.2-0.5-0.6l2.6-14.9c0.1-0.3,0.2-0.6,0.7-0.6h2.5c0.4,0,0.6,0.1,0.5,0.6l-0.1,0.6c1.6-1.3,3.1-1.4,4.3-1.4
				c0.4,0,0.5,0.2,0.5,0.5C500.8,316.4,500.8,316.4,500.8,316.4z"/>
			<path class="st0" d="M506.6,316c0.3,0,0.6,0.1,0.5,0.6l-2.6,14.9c-0.1,0.3-0.2,0.6-0.7,0.6h-2.6c-0.3,0-0.5-0.2-0.5-0.6l2.6-14.9
				c0.1-0.3,0.3-0.6,0.7-0.6H506.6z M507.7,310.3c0.3,0,0.5,0.2,0.5,0.6l-0.5,2.5c-0.1,0.3-0.3,0.6-0.7,0.6h-2.8
				c-0.3,0-0.6-0.3-0.5-0.6l0.5-2.5c0.1-0.3,0.3-0.6,0.7-0.6H507.7z"/>
			<path class="st0" d="M530.4,321.8l-1.7,9.7c-0.1,0.3-0.1,0.6-0.7,0.6h-2.6c-0.3,0-0.5-0.2-0.5-0.6l1.7-9.7c0.1-0.5,0.1-1,0.1-1.3
				c0-1.1-0.5-1.5-1.7-1.5c-0.5,0-1.7,0.2-2.9,0.7c0,0.6,0,1.3-0.1,2.1l-1.7,9.7c-0.1,0.3-0.2,0.6-0.7,0.6H517
				c-0.3,0-0.5-0.2-0.5-0.6l1.7-9.7c0.1-0.6,0.1-1,0.1-1.4c0-1.1-0.5-1.4-1.6-1.4c-0.6,0-1.5,0.3-2.8,0.9l-2,11.5
				c-0.1,0.3-0.2,0.6-0.7,0.6h-2.6c-0.3,0-0.5-0.2-0.5-0.6l2.6-14.9c0.1-0.3,0.3-0.6,0.7-0.6h2.5c0.4,0,0.5,0.3,0.5,0.6l-0.1,0.6
				c1.3-0.8,2.5-1.4,4.2-1.4c1.6,0,2.6,0.7,3,1.4c1.5-0.9,3.1-1.4,5-1.4c2.7,0,3.9,1.6,3.9,4.2C530.6,320.6,530.5,321.2,530.4,321.8
				z"/>
			<path class="st0" d="M546.8,316.6c0.5,0.1,0.7,0.3,0.6,0.8l-2.5,14.2c-0.1,0.3-0.4,0.6-0.7,0.6H542c-0.3,0-0.5-0.3-0.5-0.6
				l0.1-0.8c-1.6,1.2-3,1.6-4.4,1.6c-2.6,0-4.6-1.7-4.6-5c0-0.8,0.1-1.7,0.2-2.3l0.3-2c0.7-4.4,3.5-7.2,8.1-7.2
				C543.1,315.8,545.1,316.1,546.8,316.6z M540.7,318.9c-2.5,0-3.4,1.7-3.8,4.1l-0.4,2.4c-0.2,1-0.2,1.5-0.2,1.8
				c0,1.6,0.8,2.1,1.9,2.1c1.1,0,2.3-0.5,3.6-1.2l1.6-8.9C542.9,319,541.7,318.9,540.7,318.9z"/>
			<path class="st0" d="M563.7,316c0.5,0,0.5,0.4,0.4,0.7l-5.9,13c-0.9,2.1-2.6,2.7-4,2.7c-1.5,0-2.9-0.6-3.1-2.7l-1.3-13
				c-0.1-0.5,0.2-0.7,0.5-0.7h2.7c0.3,0,0.5,0.2,0.5,0.6l0.6,11.9c0,0.5,0.2,0.7,0.4,0.7c0.2,0,0.4-0.2,0.7-0.7l4.8-11.9
				c0.2-0.5,0.5-0.6,0.8-0.6H563.7z"/>
			<path class="st0" d="M578.7,323.3l-0.2,1.4c-0.1,0.5-0.3,0.7-0.7,0.7h-9.3c-0.1,0.4-0.1,0.8-0.1,1.2c0,1.5,0.8,2.6,2.9,2.6
				c2.1,0,4-0.2,5.3-0.3c0.4,0,0.6,0.1,0.5,0.4l-0.3,1.9c-0.1,0.5-0.2,0.7-0.7,0.7c-1.9,0.3-3.2,0.5-5.7,0.5c-2.5,0-5.6-1.4-5.6-5.7
				c0-0.5,0-1.1,0.1-1.7l0.3-1.8c0.9-5.3,3.8-7.3,8.1-7.3c3.8,0,5.6,2.5,5.6,5.8C578.8,322.2,578.8,322.8,578.7,323.3z M572.7,319.1
				c-2.3,0-3.3,1.5-3.7,3.6h6c0.1-0.4,0.1-0.7,0.1-1.1C575.1,320,574.2,319.1,572.7,319.1z"/>
			<path class="st0" d="M591.4,316.4l-0.4,2.1c-0.1,0.3-0.2,0.6-0.7,0.6c-0.9,0-2.2,0.1-4.1,1l-2,11.5c-0.1,0.3-0.1,0.6-0.7,0.6
				h-2.6c-0.3,0-0.5-0.2-0.5-0.6l2.6-14.9c0.1-0.3,0.2-0.6,0.7-0.6h2.5c0.4,0,0.6,0.1,0.5,0.6l-0.1,0.6c1.6-1.3,3.1-1.4,4.3-1.4
				c0.4,0,0.5,0.2,0.5,0.5C591.4,316.4,591.4,316.4,591.4,316.4z"/>
			<path class="st0" d="M605.6,316.6c0.5,0.1,0.7,0.3,0.6,0.8l-2.5,14.2c-0.1,0.3-0.4,0.6-0.7,0.6h-2.3c-0.3,0-0.5-0.3-0.5-0.6
				l0.1-0.8c-1.6,1.2-3,1.6-4.4,1.6c-2.6,0-4.6-1.7-4.6-5c0-0.8,0.1-1.7,0.2-2.3l0.3-2c0.7-4.4,3.5-7.2,8.1-7.2
				C601.8,315.8,603.9,316.1,605.6,316.6z M599.5,318.9c-2.5,0-3.4,1.7-3.8,4.1l-0.4,2.4c-0.2,1-0.2,1.5-0.2,1.8
				c0,1.6,0.8,2.1,1.9,2.1c1.1,0,2.3-0.5,3.6-1.2l1.6-8.9C601.6,319,600.5,318.9,599.5,318.9z"/>
			<path class="st0" d="M626.9,321.7l-2.9,1.7c-3.4,2-4.1,2.8-4.6,5.5h9c0.3,0,0.5,0.1,0.5,0.5l-0.4,2.2c-0.1,0.3-0.1,0.6-0.7,0.6
				h-12.1c-0.3,0-0.5-0.2-0.5-0.6l0.5-2.8c0.7-3.8,2.4-5.8,5.6-7.7l3.2-1.9c1.8-1.1,3.3-1.6,3.3-3.6c0-1.5-1.1-1.8-3-1.8
				c-1.7,0-4,0.3-5.8,0.4c-0.4,0-0.6-0.1-0.5-0.6l0.3-1.7c0.1-0.3,0.3-0.5,0.6-0.5c1.5-0.4,4-0.7,5.8-0.7c4.1,0,6.2,1.5,6.2,4.4
				C631.5,318.1,630,319.8,626.9,321.7z"/>
			<path class="st0" d="M649.3,320.5l-0.4,2.1c-1.3,7.3-4.2,9.7-9.1,9.7c-3.6,0-6-2.3-6-6.8c0-0.9,0.1-1.9,0.3-2.9l0.4-2.1
				c1.3-7.6,4.4-9.8,9.1-9.8c3.6,0,6,2.1,6,6.7C649.5,318.3,649.5,319.3,649.3,320.5z M643,313.9c-2,0-3.7,1.4-4.6,6.6l-0.4,2.1
				c-0.2,1.2-0.3,2.1-0.3,2.9c0,2.8,1.1,3.6,2.6,3.6c2,0,3.7-1.4,4.6-6.5l0.4-2.1c0.2-1.2,0.3-2.1,0.3-2.9
				C645.6,314.8,644.5,313.9,643,313.9z"/>
			<path class="st0" d="M652.4,332.1c-0.3,0-0.5-0.3-0.5-0.6l0.4-2.2c0.1-0.3,0.4-0.5,0.7-0.5h3.8l2.5-14l-3.9,1.1
				c-0.1,0.1-0.3,0.1-0.3,0.1c-0.2,0-0.3-0.1-0.3-0.3l0.5-2.7c0-0.2,0.1-0.3,0.3-0.3l5.3-1.7c0.2-0.1,0.4-0.1,0.7-0.1h1.9
				c0.3,0,0.5,0.2,0.4,0.5l-3,17.4h3.8c0.3,0,0.5,0.2,0.5,0.5l-0.4,2.2c-0.1,0.3-0.3,0.6-0.7,0.6H652.4z"/>
			<path class="st0" d="M685.3,311.5l-0.4,2.2c-0.1,0.3-0.3,0.5-0.7,0.5h-7.7l-1.3,4.7h0.7c4.2,0,7.8,1,7.8,5.8
				c0,4.4-2.5,7.6-8.7,7.6c-1.7,0-3.8-0.3-5.4-0.7c-0.3-0.1-0.5-0.2-0.4-0.6l0.3-1.7c0.1-0.3,0.2-0.6,0.7-0.5
				c2.2,0.3,3.6,0.4,5.2,0.4c3.6,0,4.3-2.3,4.3-4.4c0-2.7-2.3-2.8-4.5-2.8h-3.8c-0.3,0-0.4-0.3-0.3-0.4l2.7-10.1
				c0.1-0.3,0.4-0.5,0.7-0.5h10.3C685.1,310.9,685.3,311.1,685.3,311.5C685.3,311.4,685.3,311.4,685.3,311.5L685.3,311.5z"/>
		</g>
	</g>
	<g>
		<g>
			<path class="st0" d="M251.1,401l-0.7,3.8c-1.1,6.6-4.7,8.9-9.7,8.9c-4.1,0-6.8-2.3-6.8-6.7c0-0.7,0.1-1.4,0.2-2.2l0.7-3.8
				c1.1-6.7,4.7-8.9,9.7-8.9c4.1,0,6.8,2.4,6.8,6.8C251.3,399.6,251.2,400.3,251.1,401z M244,395.6c-3,0-4.4,1.6-5.1,5.4l-0.7,3.8
				c-0.1,0.8-0.2,1.5-0.2,2.1c0,2.5,1.1,3.3,3.4,3.3c3,0,4.5-1.7,5.1-5.4l0.7-3.8c0.1-0.8,0.2-1.5,0.2-2.1
				C247.3,396.5,246.2,395.6,244,395.6z"/>
			<path class="st0" d="M260.9,394.1c0.4-0.1,0.6,0.2,0.5,0.4l-0.5,2.9h2.6c0.3,0,0.6,0.1,0.5,0.6l-0.3,1.7
				c-0.1,0.4-0.2,0.6-0.7,0.6h-2.6l-1.6,8.9c-0.1,0.4-0.1,0.8-0.1,1c0,0.5,0.3,0.6,1,0.6h1.5c0.3,0,0.6,0,0.5,0.4l-0.3,1.8
				c-0.1,0.3-0.3,0.5-0.6,0.5c-0.7,0.1-1.3,0.2-2,0.2c-2.5,0-3.9-0.9-3.9-3.1c0-0.4,0.1-0.9,0.1-1.4l1.6-8.9l-2.6-0.4
				c-0.4-0.1-0.5-0.3-0.5-0.6l0.2-1.3c0.1-0.3,0.2-0.6,0.7-0.6h2.7l0.4-2.3c0.1-0.3,0.3-0.5,0.7-0.6L260.9,394.1z"/>
			<path class="st0" d="M278.6,404.4l-0.4,2.3c-0.9,4.7-3.6,7.1-8,7.1c-3.9,0-5.7-2.7-5.7-5.7c0-0.5,0-0.9,0.1-1.4l0.4-2.3
				c0.9-4.7,3.6-7.1,8.1-7.1c3.9,0,5.7,2.6,5.7,5.6C278.8,403.4,278.7,403.9,278.6,404.4z M272.5,400.5c-1.7,0-3.2,1-3.7,3.8
				l-0.4,2.3c-0.1,0.5-0.1,0.9-0.1,1.3c0,1.7,0.8,2.6,2.5,2.6c2,0,3.2-1.2,3.7-3.8l0.4-2.3c0.1-0.5,0.1-0.9,0.1-1.3
				C275,401.4,274.2,400.5,272.5,400.5z"/>
			<path class="st0" d="M295.1,403.7l-1.6,9.3c-0.1,0.3-0.4,0.6-0.7,0.6h-2.6c-0.3,0-0.5-0.2-0.5-0.5c0,0,0-0.1,0-0.1l1.6-9.3
				c0.1-0.7,0.2-1.3,0.2-1.7c0-1.1-0.5-1.5-2.1-1.5c-1,0-2.1,0.4-3.4,1l-2,11.5c-0.1,0.3-0.4,0.6-0.7,0.6h-2.6
				c-0.3,0-0.5-0.2-0.5-0.5c0,0,0-0.1,0-0.1l2.6-14.9c0.1-0.3,0.3-0.6,0.7-0.6h2.5c0.3,0,0.5,0.2,0.5,0.5c0,0,0,0,0,0.1v0l-0.1,0.6
				c1.8-1.1,3.1-1.4,4.7-1.4c3.1,0,4.1,1.9,4.1,4.3C295.3,402.2,295.3,402.9,295.1,403.7z M295.9,391.9l-0.1,0.6
				c-0.4,2.2-1.3,3.3-3.5,3.3c-0.6,0-1.5-0.2-2.1-0.7l-1.1-0.9c-0.4-0.3-0.7-0.6-1.1-0.6c-0.5,0-0.8,0.2-1,1l-0.1,0.6
				c-0.1,0.3-0.2,0.5-0.5,0.5h-1.6c-0.2,0-0.4-0.1-0.4-0.3c0-0.1,0-0.1,0-0.1l0.1-0.6c0.4-2.3,1.6-3.3,3.6-3.3c0.6,0,1.4,0.2,2,0.7
				l1.1,0.9c0.4,0.4,0.8,0.6,1.1,0.6c0.5,0,0.8-0.2,0.9-0.9l0.1-0.6c0.1-0.3,0.2-0.5,0.5-0.5h1.6c0.2,0,0.3,0.1,0.3,0.3
				C295.9,391.7,295.9,391.8,295.9,391.9z"/>
			<path class="st0" d="M311.8,404.4l-0.4,2.3c-0.9,4.7-3.6,7.1-8,7.1c-3.9,0-5.7-2.7-5.7-5.7c0-0.5,0-0.9,0.1-1.4l0.4-2.3
				c0.9-4.7,3.6-7.1,8.1-7.1c3.9,0,5.7,2.6,5.7,5.6C312,403.4,311.9,403.9,311.8,404.4z M305.7,400.5c-1.7,0-3.2,1-3.7,3.8l-0.4,2.3
				c-0.1,0.5-0.1,0.9-0.1,1.3c0,1.7,0.8,2.6,2.5,2.6c2,0,3.2-1.2,3.7-3.8l0.4-2.3c0.1-0.5,0.1-0.9,0.1-1.3
				C308.2,401.4,307.4,400.5,305.7,400.5z"/>
			<path class="st0" d="M333.3,403.1l-2.9,1.7c-3.4,2-4.1,2.8-4.6,5.5h9c0.3,0,0.5,0.1,0.5,0.5l-0.4,2.2c-0.1,0.3-0.1,0.6-0.7,0.6
				h-12.1c-0.3,0-0.5-0.2-0.5-0.6l0.5-2.8c0.7-3.8,2.4-5.8,5.6-7.7l3.2-1.9c1.8-1.1,3.3-1.6,3.3-3.6c0-1.5-1.1-1.8-3-1.8
				c-1.7,0-4,0.3-5.8,0.4c-0.4,0-0.6-0.1-0.5-0.6l0.3-1.7c0.1-0.3,0.3-0.5,0.6-0.5c1.5-0.4,4-0.7,5.8-0.7c4.1,0,6.2,1.5,6.2,4.4
				C337.9,399.6,336.4,401.3,333.3,403.1z"/>
			<path class="st0" d="M355.7,401.9l-0.4,2.1c-1.3,7.3-4.2,9.7-9.1,9.7c-3.6,0-6-2.3-6-6.8c0-0.9,0.1-1.9,0.3-2.9l0.4-2.1
				c1.3-7.6,4.4-9.8,9.1-9.8c3.6,0,6,2.1,6,6.7C355.9,399.8,355.9,400.8,355.7,401.9z M349.4,395.4c-2,0-3.7,1.4-4.6,6.6l-0.4,2.1
				c-0.2,1.2-0.3,2.1-0.3,2.9c0,2.8,1.1,3.6,2.6,3.6c2,0,3.7-1.4,4.6-6.5l0.4-2.1c0.2-1.2,0.3-2.1,0.3-2.9
				C352,396.2,350.9,395.4,349.4,395.4z"/>
			<path class="st0" d="M358.8,413.5c-0.3,0-0.5-0.3-0.5-0.6l0.4-2.2c0.1-0.3,0.4-0.5,0.7-0.5h3.8l2.4-14l-3.9,1.1
				c-0.1,0.1-0.3,0.1-0.3,0.1c-0.2,0-0.3-0.1-0.3-0.3l0.5-2.7c0-0.2,0.1-0.3,0.3-0.3l5.3-1.7c0.2-0.1,0.4-0.1,0.7-0.1h1.9
				c0.3,0,0.5,0.2,0.4,0.5l-3.1,17.4h3.8c0.3,0,0.5,0.2,0.5,0.5l-0.4,2.2c-0.1,0.3-0.3,0.6-0.7,0.6H358.8z"/>
			<path class="st0" d="M391.7,392.9l-0.4,2.2c-0.1,0.3-0.3,0.5-0.7,0.5h-7.7l-1.3,4.7h0.7c4.2,0,7.8,1,7.8,5.8
				c0,4.4-2.5,7.6-8.7,7.6c-1.7,0-3.8-0.3-5.4-0.7c-0.3-0.1-0.5-0.2-0.4-0.6l0.3-1.7c0.1-0.3,0.2-0.6,0.7-0.5
				c2.2,0.3,3.6,0.4,5.2,0.4c3.6,0,4.3-2.3,4.3-4.4c0-2.7-2.3-2.8-4.5-2.8h-3.8c-0.3,0-0.4-0.3-0.3-0.4l2.7-10.1
				c0.1-0.3,0.4-0.5,0.7-0.5h10.3C391.5,392.4,391.7,392.6,391.7,392.9C391.7,392.9,391.7,392.9,391.7,392.9L391.7,392.9z"/>
		</g>
	</g>
</g>
</svg>
