<?xml version="1.0" encoding="utf-8"?>
<!-- Generator: Adobe Illustrator 19.2.1, SVG Export Plug-In . SVG Version: 6.00 Build 0)  -->
<svg version="1.1" id="Capa_1" xmlns="http://www.w3.org/2000/svg" xmlns:xlink="http://www.w3.org/1999/xlink" x="0px" y="0px"
	 viewBox="0 0 716.7 368.7" style="enable-background:new 0 0 716.7 368.7;" xml:space="preserve">
<style type="text/css">
	.st0{fill:#8D00D7;}
	.st1{fill:#6D00D7;}
	.st2{fill:#F000A6;}
</style>
<g>
	<g>
		<path class="st0" d="M49.2,23.7l0,0.3c-1.2,8.3-8.4,9.7-13.6,9.7c-0.7,0-1.2,0-2.2-0.1L32,41.3c-0.1,0.4-0.3,0.7-0.9,0.7h-7.3
			c-0.3,0-0.6-0.2-0.6-0.6l4.2-23.8c0.4-2.3,1.1-2.8,3.2-3.2c1.9-0.3,5.7-0.4,8.2-0.4c5,0,10.5,2,10.5,8.1
			C49.3,22.6,49.3,23.1,49.2,23.7z M37.7,21.4h-2.3l-0.9,5h2.3c1.9,0,3.4-0.8,3.6-2.4l0-0.3c0-0.1,0-0.3,0-0.4
			C40.5,21.9,39.4,21.4,37.7,21.4z"/>
		<path class="st0" d="M71.9,21.9l-3.4,19.4c-0.1,0.4-0.2,0.7-0.7,0.7h-5.3c-0.7,0-0.8-0.3-0.7-0.7l0.1-1c-1.7,1.5-3.2,2.2-6.1,2.2
			c-4,0-6.5-2.5-6.5-6.8c0-1.2,0.1-1.9,0.2-2.5l0.6-3.5c1.4-8,6-9.9,12.1-9.9c2.8,0,5.8,0.4,8.6,0.9C71.5,20.8,72.1,21,71.9,21.9z
			 M61.2,26.6c-1.6,0-2.4,0.6-2.9,3.1l-0.7,3.6c-0.1,0.4-0.1,0.8-0.1,1.1c0,1.1,0.5,1.3,1.5,1.3c0.7,0,1.7-0.3,2.3-0.6l1.5-8.4
			C62.2,26.6,61.6,26.6,61.2,26.6z"/>
		<path class="st0" d="M88.6,19.7c0.6,0,0.9,0.2,0.8,0.7l-0.9,5.2c-0.1,0.4-0.2,0.7-0.9,0.7h-0.3c-2.3,0-3.4,0.2-4.3,0.6l-2.5,14.1
			c-0.1,0.4-0.2,0.8-0.9,0.8h-6.7c-0.4,0-0.8-0.1-0.7-0.8l3.6-20.4c0.1-0.4,0.3-0.7,0.9-0.7h5.9c0.4,0,0.7,0.2,0.6,0.7L83,21.9
			c1.5-1.7,3.6-2.2,5.4-2.2H88.6z"/>
		<path class="st0" d="M104.9,20.1c0.6,0,0.9,0.1,0.8,0.8l-0.8,4.5c-0.1,0.4-0.3,0.8-0.9,0.8h-2.7l-1.6,9.1c0,0.2-0.1,0.4-0.1,0.6
			c0,0.4,0.1,0.5,0.7,0.5h1.8c0.5,0,0.7,0.1,0.6,0.8l-0.7,4.1c-0.1,0.4-0.2,0.7-0.9,0.8c-1.6,0.3-2.3,0.4-4,0.4
			c-2.6,0-5.8-1.1-5.8-5.4c0-0.6,0.1-1.2,0.2-1.9l1.6-9l-2-0.4c-0.4-0.1-0.8-0.2-0.7-0.8l0.7-4.1c0.1-0.4,0.3-0.8,1-0.8h2.1l0.5-3.1
			c0.1-0.4,0.2-0.7,1-0.8l6.7-1.1c0.8-0.1,1,0.2,0.9,0.7l-0.7,4.2H104.9z"/>
		<path class="st0" d="M105.1,41.2l3.6-20.4c0.1-0.4,0.3-0.8,1-0.8h6.7c0.7,0,0.7,0.3,0.7,0.8l-3.6,20.4c-0.1,0.4-0.3,0.8-1,0.8
			h-6.7C105.3,42,105,41.7,105.1,41.2z M117.7,13.1c0.4,0,0.9,0.1,0.7,0.8l-0.7,3.8c-0.1,0.4-0.3,0.8-1,0.8h-7
			c-0.7,0-0.8-0.4-0.7-0.8l0.7-3.8c0.1-0.4,0.3-0.8,1-0.8H117.7z"/>
		<path class="st0" d="M134.6,20.4c0.4,0.1,0.7,0.3,0.6,0.7l-0.9,5.1c-0.1,0.4-0.5,0.8-0.9,0.8h0c-1.2,0-2.5-0.2-4-0.2
			c-1.5,0-2.1,1-2.5,3.2l-0.4,2.5c-0.1,0.6-0.1,1.1-0.1,1.5c0,1.2,0.4,1.7,1.6,1.7c1.5,0,2.9-0.1,4.1-0.2c0.7,0,0.8,0.3,0.7,0.8
			l-0.9,5.1c-0.1,0.4-0.4,0.6-0.9,0.7c-1.5,0.3-3.2,0.6-5.4,0.6c-5.2,0-7.5-3.3-7.5-7.7c0-0.8,0.1-1.6,0.2-2.5l0.4-2.5
			c1.2-6.8,4.8-10.1,10.9-10.1C131.7,19.7,133.6,20.1,134.6,20.4z"/>
		<path class="st0" d="M135,41.2l3.6-20.4c0.1-0.4,0.3-0.8,1-0.8h6.7c0.7,0,0.7,0.3,0.7,0.8l-3.6,20.4c-0.1,0.4-0.3,0.8-1,0.8h-6.7
			C135.2,42,134.9,41.7,135,41.2z M147.6,13.1c0.4,0,0.9,0.1,0.7,0.8l-0.7,3.8c-0.1,0.4-0.3,0.8-1,0.8h-7c-0.7,0-0.8-0.4-0.7-0.8
			l0.7-3.8c0.1-0.4,0.3-0.8,1-0.8H147.6z"/>
		<path class="st0" d="M169.6,29.6l-0.5,2.9c-1.2,6.6-5.1,9.9-11.9,9.9c-0.4,0-1.5-0.1-2-0.2l-1.1,6.1c-0.1,0.4-0.4,0.8-0.9,0.8
			h-6.7c-0.4,0-0.8-0.1-0.7-0.8l4.7-26.4c0.1-0.6,0.4-1,1.7-1.3c1.8-0.3,5.1-0.9,8.9-0.9c5.5,0,8.7,3.2,8.7,7.9
			C169.8,28.2,169.8,28.9,169.6,29.6z M159.9,26.6c-1,0-1.3,0-2,0.1l-1.6,8.8c0.6,0,1.2,0.1,2,0.1c1.5,0,2.1-1,2.5-3.1l0.5-2.9
			c0.1-0.5,0.1-1,0.1-1.4C161.5,27.1,161.1,26.6,159.9,26.6z"/>
		<path class="st0" d="M194.3,21.9l-3.4,19.4c-0.1,0.4-0.2,0.7-0.7,0.7h-5.3c-0.7,0-0.8-0.3-0.7-0.7l0.1-1c-1.7,1.5-3.2,2.2-6.1,2.2
			c-4,0-6.5-2.5-6.5-6.8c0-1.2,0.1-1.9,0.2-2.5l0.6-3.5c1.4-8,6-9.9,12.1-9.9c2.8,0,5.8,0.4,8.6,0.9C193.9,20.8,194.5,21,194.3,21.9
			z M183.6,26.6c-1.6,0-2.4,0.6-2.9,3.1l-0.7,3.6c-0.1,0.4-0.1,0.8-0.1,1.1c0,1.1,0.5,1.3,1.5,1.3c0.7,0,1.7-0.3,2.3-0.6l1.5-8.4
			C184.6,26.6,184,26.6,183.6,26.6z"/>
		<path class="st0" d="M217.5,28.4l-2.3,12.9c-0.1,0.4-0.2,0.8-0.9,0.8h-6.7c-0.5,0-0.8-0.2-0.7-0.8l2.3-12.9c0-0.2,0-0.4,0-0.7
			c0-0.7-0.7-1.2-1.6-1.2c-0.7,0-1.4,0.2-2.2,0.6l-2.5,14.1c-0.1,0.4-0.1,0.8-0.9,0.8h-6.7c-0.4,0-0.8-0.3-0.7-0.8l3.6-20.4
			c0.1-0.4,0.4-0.7,0.9-0.7h6.1c0.6,0,0.7,0.3,0.6,0.7l-0.2,1c2-1.4,3.7-2.2,6.4-2.2c4.6,0,5.7,2.9,5.7,6
			C217.7,26.6,217.6,27.5,217.5,28.4z"/>
		<path class="st0" d="M235.3,20.1c0.6,0,0.9,0.1,0.8,0.8l-0.8,4.5c-0.1,0.4-0.3,0.8-0.9,0.8h-2.7l-1.6,9.1c0,0.2-0.1,0.4-0.1,0.6
			c0,0.4,0.1,0.5,0.7,0.5h1.8c0.5,0,0.7,0.1,0.6,0.8l-0.7,4.1c-0.1,0.4-0.2,0.7-0.9,0.8c-1.6,0.3-2.3,0.4-4,0.4
			c-2.6,0-5.8-1.1-5.8-5.4c0-0.6,0.1-1.2,0.2-1.9l1.6-9l-2-0.4c-0.4-0.1-0.8-0.2-0.7-0.8l0.7-4.1c0.1-0.4,0.3-0.8,1-0.8h2.1l0.5-3.1
			c0.1-0.4,0.2-0.7,1-0.8l6.7-1.1c0.8-0.1,1,0.2,0.9,0.7l-0.7,4.2H235.3z"/>
		<path class="st0" d="M256.9,30.2l-0.4,2.3c-0.1,0.4-0.5,0.8-0.9,0.8h-11.2c0,0.3-0.1,0.6-0.1,0.8c0,1.2,0.7,1.6,2.9,1.6
			c1.6,0,5.7-0.2,7-0.3c0.6,0,0.8,0.1,0.7,0.7l-0.7,3.9c-0.1,0.6-0.3,0.9-0.9,1.1c-2,0.8-5.8,1.4-8.8,1.4c-4.8,0-8.4-2.6-8.4-7.7
			c0-0.7,0.1-1.5,0.2-2.2l0.4-2.3c1.4-7.7,5.9-10.5,12.2-10.5c5.8,0,8.3,3.5,8.3,7.9C257.1,28.5,257,29.3,256.9,30.2z M247.7,26
			c-1.5,0-2.2,1-2.6,3.1h4.2c0.1-0.5,0.1-0.9,0.1-1.3C249.4,26.6,248.9,26,247.7,26z"/>
	</g>
	<g>
		<path class="st0" d="M49,189.8l-0.6,3.2c-1.7,10.1-7.9,12.6-14.1,12.6c-5.4,0-9.9-2.8-9.9-9.5c0-1,0.1-2,0.3-3.1l0.6-3.2
			c1.7-10,7.9-12.6,14.1-12.6c5.4,0,9.9,2.8,9.9,9.5C49.3,187.6,49.2,188.7,49,189.8z M38,184.9c-2.1,0-3.2,1.3-3.8,4.8l-0.6,3.2
			c-0.1,0.9-0.2,1.6-0.2,2.2c0,1.9,0.7,2.6,2.3,2.6c2.1,0,3.2-1.3,3.8-4.8l0.6-3.2c0.1-0.9,0.2-1.6,0.2-2.2
			C40.3,185.7,39.6,184.9,38,184.9z"/>
		<path class="st0" d="M72.3,192.8l-0.5,2.9c-1.2,6.8-5.5,9.9-12,9.9c-3.8,0-7-0.6-8.6-0.9c-1.1-0.2-1.3-0.6-1.2-1.3l4.7-26.4
			c0.1-0.4,0.3-0.8,1-0.8h6.7c0.4,0,0.7,0.2,0.6,0.8l-1.1,6.1c0.5-0.1,1.3-0.2,2-0.2c5.9,0,8.7,3.3,8.7,7.8
			C72.5,191.4,72.4,192.1,72.3,192.8z M62.4,189.7c-0.6,0-1.2,0-1.8,0.1l-1.6,8.8c0.7,0.1,1,0.1,2,0.1c1.8,0,2.2-1.3,2.5-3.1
			l0.5-2.9c0.1-0.4,0.1-0.8,0.1-1.2C64.2,190.5,63.8,189.7,62.4,189.7z"/>
		<path class="st0" d="M84.8,183.3c0.5,0,0.8,0.2,0.7,0.8l-3.8,21.6c-1,5.7-4.1,7.4-8,7.4c-1.3,0-2.5-0.1-3.9-0.4
			c-0.4-0.1-0.7-0.3-0.6-0.8l0.7-4c0.1-0.4,0.2-0.8,0.9-0.8h1.6c0.7,0,0.9-0.6,1-1.4l3.8-21.6c0.1-0.4,0.3-0.8,1-0.8H84.8z
			 M78.2,181.6c-0.4,0-0.8-0.2-0.7-0.8l0.7-3.8c0.1-0.4,0.3-0.8,1-0.8h7c0.4,0,0.9,0.1,0.7,0.8l-0.7,3.8c-0.1,0.4-0.3,0.8-1,0.8
			H78.2z"/>
		<path class="st0" d="M107.3,193.4l-0.4,2.3c-0.1,0.4-0.5,0.8-0.9,0.8H94.7c0,0.3-0.1,0.6-0.1,0.8c0,1.2,0.7,1.6,2.9,1.6
			c1.6,0,5.7-0.2,7-0.3c0.6,0,0.8,0.1,0.7,0.7l-0.7,3.9c-0.1,0.6-0.3,0.9-0.9,1.1c-2,0.8-5.8,1.4-8.8,1.4c-4.8,0-8.4-2.6-8.4-7.7
			c0-0.7,0.1-1.5,0.2-2.2l0.4-2.3c1.4-7.7,5.9-10.5,12.2-10.5c5.8,0,8.3,3.5,8.3,7.9C107.5,191.6,107.4,192.5,107.3,193.4z
			 M98.1,189.1c-1.5,0-2.2,1-2.6,3.1h4.2c0.1-0.5,0.1-0.9,0.1-1.3C99.8,189.8,99.3,189.1,98.1,189.1z"/>
		<path class="st0" d="M124,183.3c0.6,0,0.9,0.1,0.8,0.8l-0.8,4.5c-0.1,0.4-0.3,0.8-0.9,0.8h-2.7l-1.6,9.1c0,0.2-0.1,0.4-0.1,0.6
			c0,0.4,0.1,0.5,0.7,0.5h1.8c0.5,0,0.7,0.1,0.6,0.8l-0.7,4.1c-0.1,0.4-0.2,0.7-0.9,0.8c-1.6,0.3-2.3,0.4-4,0.4
			c-2.6,0-5.8-1.1-5.8-5.4c0-0.6,0.1-1.2,0.2-1.9l1.6-9l-2-0.4c-0.4-0.1-0.8-0.2-0.7-0.8l0.7-4.1c0.1-0.4,0.3-0.8,1-0.8h2.1l0.5-3.1
			c0.1-0.4,0.2-0.7,1-0.8l6.7-1.1c0.8-0.1,1,0.2,0.9,0.7l-0.7,4.2H124z"/>
		<path class="st0" d="M124.1,204.4l3.6-20.4c0.1-0.4,0.3-0.8,1-0.8h6.7c0.7,0,0.7,0.3,0.7,0.8l-3.6,20.4c-0.1,0.4-0.3,0.8-1,0.8
			h-6.7C124.4,205.2,124.1,204.9,124.1,204.4z M136.8,176.2c0.4,0,0.9,0.1,0.7,0.8l-0.7,3.8c-0.1,0.4-0.3,0.8-1,0.8h-7
			c-0.7,0-0.8-0.4-0.7-0.8l0.7-3.8c0.1-0.4,0.3-0.8,1-0.8H136.8z"/>
		<path class="st0" d="M161.6,184l-7.6,16.9c-2,4.5-4.9,4.7-7.7,4.7c-2.8,0-5.6-0.1-6.1-4.7l-1.7-16.9v0c0-0.4,0.2-0.7,0.8-0.7h7.1
			c0.6,0,0.7,0.4,0.7,0.8l0.3,12.5c0,0.3,0,0.6,0.2,0.6c0.2,0,0.3-0.3,0.4-0.6l4.7-12.5c0.1-0.4,0.3-0.8,1-0.8h7.4
			C161.6,183.3,161.9,183.5,161.6,184z"/>
		<path class="st0" d="M181.6,193.4l-0.3,1.7c-1.4,7.9-5.7,10.5-12.1,10.5c-5.6,0-8.6-3-8.6-8c0-0.8,0.1-1.6,0.2-2.5l0.3-1.7
			c1.3-7.8,5.7-10.5,12.1-10.5c5.5,0,8.6,2.8,8.6,7.9C181.9,191.6,181.8,192.5,181.6,193.4z M172,189.7c-1.3,0-2.2,1.1-2.6,3.6
			l-0.3,1.7c-0.1,0.7-0.2,1.3-0.2,1.7c0,1.5,0.6,1.9,1.5,1.9c1.3,0,2.1-0.7,2.6-3.6l0.3-1.7c0.1-0.7,0.2-1.3,0.2-1.7
			C173.5,190.2,173,189.7,172,189.7z"/>
		<path class="st0" d="M202.6,184.7l-0.9,4.8c-0.1,0.5-0.1,0.9-0.9,0.8c-1.1-0.2-5.1-0.7-6.5-0.7c-0.3,0-0.9,0-0.9,0.4
			c0,0.3,0.1,0.4,0.8,0.8l2.9,1.6c3.3,1.7,3.7,3.7,3.7,5.7c0,5.4-4.4,7.5-10.9,7.5c-3.2,0-5.4-0.5-6.8-1c-0.5-0.2-0.6-0.4-0.6-0.8
			l0.8-4.7c0.1-0.6,0.3-1,1.1-0.9c2.4,0.4,5,0.7,6.3,0.7c0.6,0,1.5,0,1.5-0.9c0-0.2-0.1-0.4-0.7-0.7l-3.3-1.8
			c-2.2-1.2-3.3-2.9-3.3-5.3c0-6,4.8-7.4,9.9-7.4c2.8,0,5.4,0.6,6.9,1C202.5,184,202.6,184.2,202.6,184.7z"/>
	</g>
	<g>
		<path class="st0" d="M55.8,90.7l-4.6,25.9c-0.1,0.4-0.4,0.4-0.7,0.4h-7.1c-0.7,0-0.7-0.4-0.6-0.7l2-11.6c0-0.2,0-0.3-0.2-0.3
			c-0.1,0-0.2,0.1-0.4,0.3l-3.5,4.1c-0.4,0.5-0.7,0.7-1.1,0.7h-2.2c-0.4,0-0.6-0.1-0.9-0.7l-2-4.1c-0.1-0.2-0.2-0.3-0.3-0.3
			c-0.1,0-0.2,0-0.3,0.3l-2,11.6c-0.1,0.4-0.2,0.7-0.7,0.7h-7.2c-0.3,0-0.7-0.1-0.6-0.6L28,90.7c0.1-0.7,0.8-1.3,1.5-1.3h4.9
			c1.1,0,1.6,0.4,1.9,1.2l3.6,8.2c0.1,0.3,0.2,0.4,0.4,0.4c0.1,0,0.3-0.1,0.5-0.4l6.5-8.2c0.6-0.8,1.3-1.2,2.4-1.2h4.9
			C55.7,89.4,55.9,90,55.8,90.7z"/>
		<path class="st0" d="M77.2,105.3l-0.3,1.7c-1.4,7.9-5.7,10.5-12.1,10.5c-5.6,0-8.6-3-8.6-8c0-0.8,0.1-1.6,0.2-2.5l0.3-1.7
			c1.3-7.8,5.7-10.5,12.1-10.5c5.5,0,8.6,2.8,8.6,7.9C77.5,103.4,77.3,104.3,77.2,105.3z M67.6,101.6c-1.3,0-2.2,1.1-2.6,3.6
			l-0.3,1.7c-0.1,0.7-0.2,1.3-0.2,1.7c0,1.5,0.6,1.9,1.5,1.9c1.3,0,2.1-0.7,2.6-3.6l0.3-1.7c0.1-0.7,0.2-1.3,0.2-1.7
			C69.1,102.1,68.6,101.6,67.6,101.6z"/>
		<path class="st0" d="M102.5,88.1c0.4,0,0.9,0.1,0.7,0.8l-4.7,26.4c-0.1,0.6-0.4,1-1.7,1.3c-1.8,0.3-5.1,0.9-8.9,0.9
			c-5.4,0-8.7-3.4-8.7-8c0-0.6,0.1-1.2,0.2-1.9l0.5-2.9c1.3-7,5.1-9.9,11.6-9.9c0.9,0,1.9,0.1,2.4,0.2l1.1-6.1
			c0.1-0.4,0.3-0.8,0.9-0.8H102.5z M90.7,101.6c-1.5,0-2.1,0.9-2.5,3.1l-0.5,2.9c-0.1,0.6-0.1,1-0.1,1.4c0,1.1,0.4,1.6,1.6,1.6
			c1,0,1.3,0,2-0.1l1.6-8.8C92.1,101.7,91.5,101.6,90.7,101.6z"/>
		<path class="st0" d="M125.6,97l-3.4,19.4c-0.1,0.4-0.2,0.7-0.7,0.7h-5.3c-0.7,0-0.8-0.3-0.7-0.7l0.1-1c-1.7,1.5-3.2,2.2-6.1,2.2
			c-4,0-6.5-2.5-6.5-6.8c0-1.2,0.1-1.9,0.2-2.5l0.6-3.5c1.4-8,6-9.9,12.1-9.9c2.8,0,5.8,0.4,8.6,0.9C125.3,95.8,125.8,96.1,125.6,97
			z M114.9,101.6c-1.6,0-2.4,0.6-2.9,3.1l-0.7,3.6c-0.1,0.4-0.1,0.8-0.1,1.1c0,1.1,0.5,1.3,1.5,1.3c0.7,0,1.7-0.3,2.3-0.6l1.5-8.4
			C115.9,101.6,115.4,101.6,114.9,101.6z"/>
		<path class="st0" d="M139.1,88.9l-4.8,27.4c-0.1,0.4-0.2,0.8-0.9,0.8h-6.7c-0.4,0-0.8-0.2-0.7-0.8l4.8-27.4c0.1-0.4,0.3-0.8,1-0.8
			h6.7C139,88.1,139.2,88.3,139.1,88.9z"/>
		<path class="st0" d="M138.1,116.3l3.6-20.4c0.1-0.4,0.3-0.8,1-0.8h6.7c0.7,0,0.7,0.3,0.7,0.8l-3.6,20.4c-0.1,0.4-0.3,0.8-1,0.8
			h-6.7C138.4,117.1,138.1,116.7,138.1,116.3z M150.7,88.1c0.4,0,0.9,0.1,0.7,0.8l-0.7,3.8c-0.1,0.4-0.3,0.8-1,0.8h-7
			c-0.7,0-0.8-0.4-0.7-0.8l0.7-3.8c0.1-0.4,0.3-0.8,1-0.8H150.7z"/>
		<path class="st0" d="M174.3,88.1c0.4,0,0.9,0.1,0.7,0.8l-4.7,26.4c-0.1,0.6-0.4,1-1.7,1.3c-1.8,0.3-5.1,0.9-8.9,0.9
			c-5.4,0-8.7-3.4-8.7-8c0-0.6,0.1-1.2,0.2-1.9l0.5-2.9c1.3-7,5.1-9.9,11.6-9.9c0.9,0,1.9,0.1,2.4,0.2l1.1-6.1
			c0.1-0.4,0.3-0.8,0.9-0.8H174.3z M162.5,101.6c-1.5,0-2.1,0.9-2.5,3.1l-0.5,2.9c-0.1,0.6-0.1,1-0.1,1.4c0,1.1,0.4,1.6,1.6,1.6
			c1,0,1.3,0,2-0.1l1.6-8.8C163.9,101.7,163.4,101.6,162.5,101.6z"/>
		<path class="st0" d="M197.5,97l-3.4,19.4c-0.1,0.4-0.2,0.7-0.7,0.7H188c-0.7,0-0.8-0.3-0.7-0.7l0.1-1c-1.7,1.5-3.2,2.2-6.1,2.2
			c-4,0-6.5-2.5-6.5-6.8c0-1.2,0.1-1.9,0.2-2.5l0.6-3.5c1.4-8,6-9.9,12.1-9.9c2.8,0,5.8,0.4,8.6,0.9C197.1,95.8,197.6,96.1,197.5,97
			z M186.8,101.6c-1.6,0-2.4,0.6-2.9,3.1l-0.7,3.6c-0.1,0.4-0.1,0.8-0.1,1.1c0,1.1,0.5,1.3,1.5,1.3c0.7,0,1.7-0.3,2.3-0.6l1.5-8.4
			C187.8,101.6,187.2,101.6,186.8,101.6z"/>
		<path class="st0" d="M221.8,88.1c0.4,0,0.9,0.1,0.7,0.8l-4.7,26.4c-0.1,0.6-0.4,1-1.7,1.3c-1.8,0.3-5.1,0.9-8.9,0.9
			c-5.4,0-8.7-3.4-8.7-8c0-0.6,0.1-1.2,0.2-1.9l0.5-2.9c1.3-7,5.1-9.9,11.6-9.9c0.9,0,1.9,0.1,2.4,0.2l1.1-6.1
			c0.1-0.4,0.3-0.8,0.9-0.8H221.8z M210,101.6c-1.5,0-2.1,0.9-2.5,3.1l-0.5,2.9c-0.1,0.6-0.1,1-0.1,1.4c0,1.1,0.4,1.6,1.6,1.6
			c1,0,1.3,0,2-0.1l1.6-8.8C211.5,101.7,210.9,101.6,210,101.6z"/>
		<path class="st0" d="M247.5,95.4c0.4,0.1,0.7,0.3,0.6,0.7l-0.9,5.1c-0.1,0.4-0.5,0.8-0.9,0.8h0c-1.2,0-2.5-0.2-4-0.2
			c-1.5,0-2.1,1-2.5,3.2l-0.4,2.5c-0.1,0.6-0.1,1.1-0.1,1.5c0,1.2,0.4,1.7,1.6,1.7c1.5,0,2.9-0.1,4.1-0.2c0.7,0,0.8,0.3,0.7,0.8
			l-0.9,5.1c-0.1,0.4-0.4,0.6-0.9,0.7c-1.5,0.3-3.2,0.6-5.4,0.6c-5.2,0-7.5-3.3-7.5-7.7c0-0.8,0.1-1.6,0.2-2.5l0.4-2.5
			c1.2-6.8,4.8-10.1,10.9-10.1C244.5,94.8,246.5,95.1,247.5,95.4z"/>
		<path class="st0" d="M271.8,96l-3.6,20.4c-0.1,0.4-0.2,0.7-0.9,0.7h-6.1c-0.4,0-0.7-0.1-0.6-0.7l0.2-1c-1.7,1.2-3.2,2.2-6.2,2.2
			c-4.2,0-5.8-2.9-5.8-6.4c0-0.7,0.1-1.5,0.2-2.3l2.3-12.9c0.1-0.4,0.5-0.8,0.9-0.8h6.7c0.5,0,0.8,0.3,0.7,0.8l-2.2,12.3
			c-0.1,0.4-0.1,1-0.1,1.1c0,1,0.7,1.3,1.6,1.3c0.7,0,1.4-0.2,2.2-0.6l2.5-14.1c0.1-0.4,0.3-0.8,0.9-0.8h6.7
			C271.5,95.1,271.9,95.3,271.8,96z"/>
		<path class="st0" d="M288.3,94.8c0.6,0,0.9,0.2,0.8,0.7l-0.9,5.2c-0.1,0.4-0.2,0.7-0.9,0.7h-0.3c-2.3,0-3.4,0.2-4.3,0.6l-2.5,14.1
			c-0.1,0.4-0.2,0.8-0.9,0.8h-6.7c-0.4,0-0.8-0.1-0.7-0.8l3.6-20.4c0.1-0.4,0.3-0.7,0.9-0.7h5.9c0.4,0,0.7,0.2,0.6,0.7l-0.2,1.1
			c1.5-1.7,3.6-2.2,5.4-2.2H288.3z"/>
		<path class="st0" d="M308,96.5l-0.9,4.8c-0.1,0.5-0.1,0.9-0.9,0.8c-1.1-0.2-5.1-0.7-6.5-0.7c-0.3,0-0.9,0-0.9,0.4
			c0,0.3,0.1,0.4,0.8,0.8l2.9,1.6c3.3,1.7,3.7,3.7,3.7,5.7c0,5.4-4.4,7.5-10.9,7.5c-3.2,0-5.4-0.5-6.8-1c-0.5-0.2-0.6-0.4-0.6-0.8
			l0.8-4.7c0.1-0.6,0.3-1,1.1-0.9c2.4,0.4,5,0.7,6.3,0.7c0.6,0,1.5,0,1.5-0.9c0-0.2-0.1-0.4-0.7-0.7l-3.3-1.8
			c-2.2-1.2-3.3-2.9-3.3-5.3c0-6,4.8-7.4,9.9-7.4c2.8,0,5.4,0.6,6.9,1C307.9,95.9,308.1,96,308,96.5z"/>
		<path class="st0" d="M330.2,105.3l-0.3,1.7c-1.4,7.9-5.7,10.5-12.1,10.5c-5.6,0-8.6-3-8.6-8c0-0.8,0.1-1.6,0.2-2.5l0.3-1.7
			c1.3-7.8,5.7-10.5,12.1-10.5c5.5,0,8.6,2.8,8.6,7.9C330.5,103.4,330.4,104.3,330.2,105.3z M320.6,101.6c-1.3,0-2.2,1.1-2.6,3.6
			l-0.3,1.7c-0.1,0.7-0.2,1.3-0.2,1.7c0,1.5,0.6,1.9,1.5,1.9c1.3,0,2.1-0.7,2.6-3.6l0.3-1.7c0.1-0.7,0.2-1.3,0.2-1.7
			C322.1,102.1,321.6,101.6,320.6,101.6z"/>
	</g>
	<g>
		<path class="st0" d="M45.9,291.2l-1,5.6c-0.1,0.4-0.3,0.7-0.9,0.7h-7.5c-0.9,0-1.2,0.3-1.4,1.2l-0.4,2h8.7c0.4,0,0.7,0.3,0.6,0.7
			l-0.9,5.2c-0.1,0.4-0.5,0.7-0.9,0.7h-8.7l-0.3,1.8c-0.1,0.6-0.1,0.7-0.1,0.9c0,0.5,0.3,0.7,1.1,0.7h7.5c0.4,0,0.7,0.3,0.6,0.7
			l-1,5.6c-0.1,0.4-0.2,0.7-0.9,0.7c-1.6,0.2-4.3,0.4-7.6,0.4c-4.6,0-8.7-1.6-8.7-6.7c0-0.6,0-1.3,0.2-2l2-11
			c1.5-8.3,6.8-8.7,11.5-8.7c3.2,0,5.9,0.2,7.4,0.4C45.8,290.5,46,290.7,45.9,291.2z"/>
		<path class="st0" d="M70.6,296.9L63,313.7c-2,4.5-4.9,4.7-7.7,4.7c-2.8,0-5.6-0.1-6.1-4.7l-1.7-16.9v0c0-0.4,0.2-0.7,0.8-0.7h7.1
			c0.6,0,0.7,0.4,0.7,0.8l0.3,12.5c0,0.3,0,0.6,0.2,0.6c0.2,0,0.3-0.3,0.4-0.6l4.7-12.5c0.1-0.4,0.3-0.8,1-0.8h7.4
			C70.6,296.1,70.9,296.3,70.6,296.9z"/>
		<path class="st0" d="M92.1,297.9l-3.4,19.4c-0.1,0.4-0.2,0.7-0.7,0.7h-5.3c-0.7,0-0.8-0.3-0.7-0.7l0.1-1c-1.7,1.5-3.2,2.2-6.1,2.2
			c-4,0-6.5-2.5-6.5-6.8c0-1.2,0.1-1.9,0.2-2.5l0.6-3.5c1.4-8,6-9.9,12.1-9.9c2.8,0,5.8,0.4,8.6,0.9C91.8,296.7,92.3,297,92.1,297.9
			z M81.4,302.5c-1.6,0-2.4,0.6-2.9,3.1l-0.7,3.6c-0.1,0.4-0.1,0.8-0.1,1.1c0,1.1,0.5,1.3,1.5,1.3c0.7,0,1.7-0.3,2.3-0.6l1.5-8.4
			C82.4,302.6,81.9,302.5,81.4,302.5z"/>
		<path class="st0" d="M105.7,289.8l-4.8,27.4c-0.1,0.4-0.2,0.8-0.9,0.8h-6.7c-0.4,0-0.8-0.2-0.7-0.8l4.8-27.4
			c0.1-0.4,0.3-0.8,1-0.8h6.7C105.5,289,105.8,289.3,105.7,289.8z"/>
		<path class="st0" d="M128.6,296.9l-3.6,20.4c-0.1,0.4-0.2,0.7-0.9,0.7H118c-0.4,0-0.7-0.1-0.6-0.7l0.2-1c-1.7,1.2-3.2,2.2-6.2,2.2
			c-4.2,0-5.8-2.9-5.8-6.4c0-0.7,0.1-1.5,0.2-2.3l2.3-12.9c0.1-0.4,0.5-0.8,0.9-0.8h6.7c0.5,0,0.8,0.3,0.7,0.8l-2.2,12.3
			c-0.1,0.4-0.1,1-0.1,1.1c0,1,0.7,1.3,1.6,1.3c0.7,0,1.4-0.2,2.2-0.6l2.5-14.1c0.1-0.4,0.3-0.8,0.9-0.8h6.7
			C128.4,296.1,128.8,296.2,128.6,296.9z"/>
		<path class="st0" d="M152.3,297.9l-3.4,19.4c-0.1,0.4-0.2,0.7-0.7,0.7h-5.3c-0.7,0-0.8-0.3-0.7-0.7l0.1-1
			c-1.7,1.5-3.2,2.2-6.1,2.2c-4,0-6.5-2.5-6.5-6.8c0-1.2,0.1-1.9,0.2-2.5l0.6-3.5c1.4-8,6-9.9,12.1-9.9c2.8,0,5.8,0.4,8.6,0.9
			C152,296.7,152.5,297,152.3,297.9z M141.6,302.5c-1.6,0-2.4,0.6-2.9,3.1l-0.7,3.6c-0.1,0.4-0.1,0.8-0.1,1.1c0,1.1,0.5,1.3,1.5,1.3
			c0.7,0,1.7-0.3,2.3-0.6l1.5-8.4C142.6,302.6,142.1,302.5,141.6,302.5z"/>
		<path class="st0" d="M170.1,296.3c0.4,0.1,0.7,0.3,0.6,0.7l-0.9,5.1c-0.1,0.4-0.5,0.8-0.9,0.8h0c-1.2,0-2.5-0.2-4-0.2
			c-1.5,0-2.1,1-2.5,3.2l-0.4,2.5c-0.1,0.6-0.1,1.1-0.1,1.5c0,1.2,0.4,1.7,1.6,1.7c1.5,0,2.9-0.1,4.1-0.2c0.7,0,0.8,0.3,0.7,0.8
			l-0.9,5.1c-0.1,0.4-0.4,0.6-0.9,0.7c-1.5,0.3-3.2,0.6-5.4,0.6c-5.2,0-7.5-3.3-7.5-7.7c0-0.8,0.1-1.6,0.2-2.5l0.4-2.5
			c1.2-6.8,4.8-10.1,10.9-10.1C167.1,295.7,169.1,296.1,170.1,296.3z"/>
		<path class="st0" d="M170.5,317.2l3.6-20.4c0.1-0.4,0.3-0.8,1-0.8h6.7c0.7,0,0.7,0.3,0.7,0.8l-3.6,20.4c-0.1,0.4-0.3,0.8-1,0.8
			h-6.7C170.7,318,170.4,317.7,170.5,317.2z M183.1,289c0.4,0,0.9,0.1,0.7,0.8l-0.7,3.8c-0.1,0.4-0.3,0.8-1,0.8h-7
			c-0.7,0-0.8-0.4-0.7-0.8l0.7-3.8c0.1-0.4,0.3-0.8,1-0.8H183.1z"/>
		<path class="st0" d="M204.4,306.2l-0.3,1.7c-1.4,7.9-5.7,10.5-12.1,10.5c-5.6,0-8.6-3-8.6-8c0-0.8,0.1-1.6,0.2-2.5l0.3-1.7
			c1.3-7.8,5.7-10.5,12.1-10.5c5.5,0,8.6,2.8,8.6,7.9C204.7,304.4,204.6,305.3,204.4,306.2z M194.8,302.5c-1.3,0-2.2,1.1-2.6,3.6
			l-0.3,1.7c-0.1,0.7-0.2,1.3-0.2,1.7c0,1.5,0.6,1.9,1.5,1.9c1.3,0,2.1-0.7,2.6-3.6l0.3-1.7c0.1-0.7,0.2-1.3,0.2-1.7
			C196.4,303,195.8,302.5,194.8,302.5z M204.6,289.6L199,294c-0.3,0.3-0.4,0.4-1,0.4h-5.7c-0.2,0-0.3-0.1-0.3-0.2
			c0-0.1,0.1-0.3,0.2-0.4l4-4.2c0.4-0.4,0.6-0.6,1.2-0.6h7.1c0.2,0,0.4,0.1,0.4,0.2C204.8,289.4,204.7,289.5,204.6,289.6z"/>
		<path class="st0" d="M228.5,304.3l-2.3,12.9c-0.1,0.4-0.2,0.8-0.9,0.8h-6.7c-0.5,0-0.8-0.2-0.7-0.8l2.3-12.9c0-0.2,0-0.4,0-0.7
			c0-0.7-0.7-1.2-1.6-1.2c-0.7,0-1.4,0.2-2.2,0.6l-2.5,14.1c-0.1,0.4-0.1,0.8-0.9,0.8h-6.7c-0.4,0-0.8-0.3-0.7-0.8l3.6-20.4
			c0.1-0.4,0.4-0.7,0.9-0.7h6.1c0.6,0,0.7,0.3,0.6,0.7l-0.2,1c2-1.4,3.7-2.2,6.4-2.2c4.6,0,5.7,2.9,5.7,6
			C228.7,302.6,228.6,303.5,228.5,304.3z"/>
		<path class="st0" d="M254.5,317.2l2.6-15h-6l-2.7,15.6c-1.1,6.1-3.8,7.3-8.4,7.3c-1,0-2.5-0.2-3.5-0.4c-0.6-0.1-0.7-0.4-0.6-0.8
			l0.7-4.1c0.1-0.4,0.2-0.8,0.9-0.8h1.1c0.9,0,1.2,0,1.5-1.3l2.7-15.6l-2.4-0.3c-0.4,0-0.8-0.2-0.7-0.8l0.7-4.2
			c0.1-0.4,0.3-0.8,1-0.8h2.5l0.1-0.5c0.9-6.1,3.8-7.2,8.4-7.2c1,0,2.7,0.2,3.7,0.4c0.7,0.1,0.7,0.4,0.6,0.8l-0.7,4.1
			c-0.1,0.4-0.3,0.8-0.9,0.8h-1.3c-0.9,0-1.2,0-1.5,1.3l-0.1,0.4h13.4c0.7,0,0.7,0.3,0.7,0.8l-3.6,20.4c-0.1,0.4-0.3,0.8-1,0.8h-6.7
			C254.7,318,254.4,317.7,254.5,317.2z M267.1,289c0.4,0,0.9,0.1,0.7,0.8l-0.7,3.8c-0.1,0.4-0.3,0.8-1,0.8h-7
			c-0.7,0-0.8-0.4-0.7-0.8l0.7-3.8c0.1-0.4,0.3-0.8,1-0.8H267.1z"/>
		<path class="st0" d="M289.4,304.3l-2.3,12.9c-0.1,0.4-0.2,0.8-0.9,0.8h-6.7c-0.5,0-0.8-0.2-0.7-0.8l2.3-12.9c0-0.2,0-0.4,0-0.7
			c0-0.7-0.7-1.2-1.6-1.2c-0.7,0-1.4,0.2-2.2,0.6l-2.5,14.1c-0.1,0.4-0.1,0.8-0.9,0.8h-6.7c-0.4,0-0.8-0.3-0.7-0.8l3.6-20.4
			c0.1-0.4,0.4-0.7,0.9-0.7h6.1c0.6,0,0.7,0.3,0.6,0.7l-0.2,1c2-1.4,3.7-2.2,6.4-2.2c4.6,0,5.7,2.9,5.7,6
			C289.7,302.6,289.6,303.5,289.4,304.3z"/>
		<path class="st0" d="M314.4,297.9l-3.4,19.4c-0.1,0.4-0.2,0.7-0.7,0.7H305c-0.7,0-0.8-0.3-0.7-0.7l0.1-1c-1.7,1.5-3.2,2.2-6.1,2.2
			c-4,0-6.5-2.5-6.5-6.8c0-1.2,0.1-1.9,0.2-2.5l0.6-3.5c1.4-8,6-9.9,12.1-9.9c2.8,0,5.8,0.4,8.6,0.9
			C314,296.7,314.6,297,314.4,297.9z M303.7,302.5c-1.6,0-2.4,0.6-2.9,3.1l-0.7,3.6c-0.1,0.4-0.1,0.8-0.1,1.1c0,1.1,0.5,1.3,1.5,1.3
			c0.7,0,1.7-0.3,2.3-0.6l1.5-8.4C304.7,302.6,304.1,302.5,303.7,302.5z"/>
		<path class="st0" d="M327.9,289.8l-4.8,27.4c-0.1,0.4-0.2,0.8-0.9,0.8h-6.7c-0.4,0-0.8-0.2-0.7-0.8l4.8-27.4
			c0.1-0.4,0.3-0.8,1-0.8h6.7C327.7,289,328,289.3,327.9,289.8z"/>
	</g>
	<g>
		<g>
			<path class="st1" d="M501.5,28l-0.3,1.8c-0.9,5-3.5,6.5-7.6,6.5c-2.1,0-3.6-0.2-4.7-0.4c-0.4-0.1-0.6-0.2-0.6-0.6
				c0-0.1,0-0.2,0-0.3l2.2-12.5c0.1-0.6,0.3-0.8,0.8-0.8c1.2-0.2,2.7-0.4,4.9-0.4c3.2,0,5.5,1.7,5.5,4.9
				C501.6,26.8,501.6,27.4,501.5,28z M495.5,25.4h-0.9l-1.2,7h0.9c1.4,0,1.8-0.4,2.2-2.6l0.3-1.8c0.1-0.5,0.2-1,0.2-1.3
				C497,25.6,496.5,25.4,495.5,25.4z"/>
		</g>
	</g>
	<g>
		<g>
			<path class="st1" d="M515.4,28l-0.3,1.7c-0.9,5.3-4.1,6.6-7.4,6.6c-2.8,0-5.2-1.5-5.2-5c0-0.5,0.1-1,0.2-1.6L503,28
				c0.9-5.3,4.1-6.6,7.4-6.6c2.8,0,5.2,1.4,5.2,4.9C515.5,26.9,515.5,27.4,515.4,28z M509.6,25.5c-1.1,0-1.7,0.7-2,2.5l-0.3,1.7
				c-0.1,0.4-0.1,0.8-0.1,1.1c0,1,0.4,1.4,1.2,1.4c1.1,0,1.7-0.7,2-2.5l0.3-1.7c0.1-0.4,0.1-0.8,0.1-1.1
				C510.8,25.9,510.5,25.5,509.6,25.5z"/>
		</g>
	</g>
	<g>
		<g>
			<path class="st1" d="M526.7,25.3c0,0.3-0.2,0.4-0.4,0.3c-0.6-0.1-1.7-0.2-2.6-0.2c-0.8,0-1.6,0.2-2,2.6l-0.3,1.6
				c-0.1,0.5-0.1,0.9-0.1,1.3c0,1.2,0.6,1.3,1.3,1.3c0.8,0,2-0.1,2.6-0.2c0.3,0,0.4,0.1,0.3,0.4l-0.5,3.1c0,0.3-0.1,0.3-0.5,0.4
				c-0.7,0.2-1.6,0.4-2.6,0.4c-3.6,0-5.3-1.9-5.3-4.9c0-0.6,0.1-1.1,0.2-1.8l0.3-1.6c0.9-4.9,3.2-6.6,7.3-6.6c1.1,0,2.1,0.2,2.6,0.4
				c0.2,0.1,0.4,0.2,0.4,0.4L526.7,25.3z"/>
		</g>
	</g>
	<g>
		<g>
			<path class="st1" d="M538.4,22l-0.5,2.9c0,0.2-0.1,0.4-0.5,0.4h-3.9c-0.5,0-0.6,0.1-0.7,0.6l-0.2,1.1h4.6c0.2,0,0.4,0.1,0.3,0.4
				l-0.5,2.7c0,0.2-0.3,0.4-0.5,0.4H532l-0.2,1c-0.1,0.3-0.1,0.4-0.1,0.5c0,0.3,0.2,0.4,0.6,0.4h3.9c0.2,0,0.4,0.1,0.3,0.4l-0.5,2.9
				c0,0.2-0.1,0.4-0.5,0.4c-0.8,0.1-2.3,0.2-4,0.2c-2.4,0-4.5-0.8-4.5-3.5c0-0.3,0-0.7,0.1-1.1l1-5.7c0.8-4.4,3.6-4.6,6-4.6
				c1.7,0,3.1,0.1,3.9,0.2C538.3,21.7,538.5,21.8,538.4,22z"/>
		</g>
	</g>
	<g>
		<g>
			<path class="st1" d="M553.2,22l-2.4,13.4c-0.1,0.4-0.2,0.7-0.8,0.7h-3.3c-0.3,0-0.4-0.2-0.5-0.4l-2.3-5.4
				c-0.1-0.2-0.1-0.2-0.1-0.2c0,0,0,0,0,0c-0.1,0-0.1,0-0.1,0.2l-0.9,5.4c0,0.2-0.1,0.4-0.5,0.4h-3.6c-0.2,0-0.4-0.1-0.3-0.4
				l2.4-13.4c0.1-0.4,0.3-0.7,0.8-0.7h3.2c0.3,0,0.5,0.3,0.6,0.5l2.3,5.4c0.1,0.2,0.1,0.2,0.2,0.2c0.1,0,0.1,0,0.1-0.2l1-5.5
				c0-0.2,0.1-0.4,0.5-0.4h3.6C553.2,21.6,553.2,21.8,553.2,22z"/>
			<path class="st1" d="M565.6,22l-0.5,3c0,0.2-0.1,0.4-0.5,0.4H562l-1.8,10.3c0,0.2-0.1,0.4-0.5,0.4h-3.8c-0.3,0-0.4-0.2-0.3-0.4
				l1.8-10.3h-2.7c-0.2,0-0.4-0.1-0.3-0.4l0.5-3c0-0.2,0.3-0.4,0.5-0.4h10C565.6,21.6,565.6,21.8,565.6,22z"/>
		</g>
	</g>
	<g>
		<g>
			<path class="st1" d="M575.8,22l-0.5,2.9c0,0.2-0.1,0.4-0.5,0.4H571c-0.5,0-0.6,0.1-0.7,0.6L570,27h4.6c0.2,0,0.4,0.1,0.3,0.4
				l-0.5,2.7c0,0.2-0.3,0.4-0.5,0.4h-4.6l-0.2,1c-0.1,0.3-0.1,0.4-0.1,0.5c0,0.3,0.2,0.4,0.6,0.4h3.9c0.2,0,0.4,0.1,0.3,0.4
				l-0.5,2.9c0,0.2-0.1,0.4-0.5,0.4c-0.8,0.1-2.3,0.2-4,0.2c-2.4,0-4.5-0.8-4.5-3.5c0-0.3,0-0.7,0.1-1.1l1-5.7
				c0.8-4.4,3.6-4.6,6-4.6c1.7,0,3.1,0.1,3.9,0.2C575.8,21.7,575.9,21.8,575.8,22z"/>
		</g>
	</g>
	<g>
		<path class="st1" d="M380.1,100.3c0,0.3-0.2,0.4-0.4,0.3c-0.6-0.1-1.7-0.2-2.6-0.2c-0.8,0-1.6,0.2-2,2.6l-0.3,1.6
			c-0.1,0.5-0.1,0.9-0.1,1.3c0,1.2,0.6,1.3,1.3,1.3c0.8,0,2-0.1,2.6-0.2c0.3,0,0.3,0.1,0.3,0.4l-0.5,3.1c0,0.3-0.1,0.3-0.5,0.4
			c-0.7,0.2-1.6,0.4-2.6,0.4c-3.6,0-5.3-1.9-5.3-4.9c0-0.6,0.1-1.1,0.2-1.8l0.3-1.6c0.9-4.9,3.2-6.6,7.3-6.6c1.1,0,2.1,0.2,2.6,0.4
			c0.2,0.1,0.4,0.2,0.4,0.4L380.1,100.3z"/>
	</g>
	<g>
		<path class="st1" d="M392.2,100.6l-1.8,10.2c0,0.2-0.1,0.4-0.4,0.4h-2.8c-0.4,0-0.4-0.2-0.4-0.4l0.1-0.5c-0.9,0.8-1.7,1.1-3.2,1.1
			c-2.1,0-3.4-1.3-3.4-3.6c0-0.6,0-1,0.1-1.3l0.3-1.8c0.7-4.2,3.2-5.2,6.3-5.2c1.5,0,3,0.2,4.5,0.5C392,100,392.3,100.1,392.2,100.6
			z M386.6,103c-0.8,0-1.3,0.3-1.5,1.6l-0.4,1.9c0,0.2-0.1,0.4-0.1,0.6c0,0.6,0.3,0.7,0.8,0.7c0.4,0,0.9-0.2,1.2-0.3l0.8-4.4
			C387.1,103,386.8,103,386.6,103z"/>
		<path class="st1" d="M404.2,104.6l-0.3,1.5c-0.6,3.5-2.6,5.2-6.3,5.2c-0.2,0-0.8-0.1-1.1-0.1l-0.6,3.2c0,0.2-0.2,0.4-0.4,0.4h-3.5
			c-0.2,0-0.4-0.1-0.4-0.4l2.4-13.8c0.1-0.3,0.2-0.5,0.9-0.7c1-0.2,2.7-0.5,4.7-0.5c2.9,0,4.5,1.7,4.5,4.1
			C404.3,103.9,404.3,104.3,404.2,104.6z M399.1,103c-0.5,0-0.7,0-1.1,0.1l-0.8,4.6c0.3,0,0.6,0.1,1.1,0.1c0.8,0,1.1-0.5,1.3-1.6
			l0.3-1.5c0.1-0.3,0.1-0.5,0.1-0.7C400,103.3,399.7,103,399.1,103z"/>
		<path class="st1" d="M417.1,100.6l-1.8,10.2c0,0.2-0.1,0.4-0.4,0.4h-2.8c-0.4,0-0.4-0.2-0.4-0.4l0.1-0.5c-0.9,0.8-1.7,1.1-3.2,1.1
			c-2.1,0-3.4-1.3-3.4-3.6c0-0.6,0-1,0.1-1.3l0.3-1.8c0.7-4.2,3.2-5.2,6.3-5.2c1.5,0,3,0.2,4.5,0.5
			C416.9,100,417.2,100.1,417.1,100.6z M411.5,103c-0.8,0-1.3,0.3-1.5,1.6l-0.4,1.9c0,0.2-0.1,0.4-0.1,0.6c0,0.6,0.3,0.7,0.8,0.7
			c0.4,0,0.9-0.2,1.2-0.3l0.8-4.4C412,103,411.8,103,411.5,103z"/>
		<path class="st1" d="M426.4,99.8c0.2,0.1,0.3,0.1,0.3,0.4l-0.5,2.7c0,0.2-0.3,0.4-0.5,0.4h0c-0.6,0-1.3-0.1-2.1-0.1
			c-0.8,0-1.1,0.5-1.3,1.7l-0.2,1.3c-0.1,0.3-0.1,0.6-0.1,0.8c0,0.6,0.2,0.9,0.8,0.9c0.8,0,1.5-0.1,2.1-0.1c0.4,0,0.4,0.2,0.4,0.4
			l-0.5,2.7c0,0.2-0.2,0.3-0.5,0.4c-0.8,0.2-1.7,0.3-2.8,0.3c-2.7,0-3.9-1.7-3.9-4c0-0.4,0-0.8,0.1-1.3l0.2-1.3
			c0.6-3.6,2.5-5.3,5.7-5.3C424.9,99.4,425.9,99.6,426.4,99.8z"/>
		<path class="st1" d="M426.6,110.7l1.9-10.7c0-0.2,0.2-0.4,0.5-0.4h3.5c0.4,0,0.4,0.2,0.4,0.4l-1.9,10.7c0,0.2-0.2,0.4-0.5,0.4H427
			C426.8,111.1,426.6,110.9,426.6,110.7z M433.2,96c0.2,0,0.4,0.1,0.4,0.4l-0.4,2c0,0.2-0.2,0.4-0.5,0.4h-3.7
			c-0.4,0-0.4-0.2-0.4-0.4l0.4-2c0-0.2,0.2-0.4,0.5-0.4H433.2z"/>
		<path class="st1" d="M441.5,99.6c0.3,0,0.5,0.1,0.4,0.4l-0.4,2.4c0,0.2-0.1,0.4-0.5,0.4h-1.4l-0.8,4.8c0,0.1,0,0.2,0,0.3
			c0,0.2,0.1,0.3,0.4,0.3h0.9c0.3,0,0.4,0.1,0.3,0.4l-0.4,2.1c0,0.2-0.1,0.4-0.5,0.4c-0.8,0.1-1.2,0.2-2.1,0.2
			c-1.4,0-3.1-0.6-3.1-2.8c0-0.3,0-0.6,0.1-1l0.8-4.7l-1.1-0.2c-0.2,0-0.4-0.1-0.4-0.4l0.4-2.2c0-0.2,0.2-0.4,0.5-0.4h1.1l0.3-1.6
			c0-0.2,0.1-0.4,0.5-0.4l3.5-0.6c0.4-0.1,0.5,0.1,0.5,0.4l-0.4,2.2H441.5z"/>
		<path class="st1" d="M453.9,100.6l-1.8,10.2c0,0.2-0.1,0.4-0.4,0.4h-2.8c-0.4,0-0.4-0.2-0.4-0.4l0.1-0.5c-0.9,0.8-1.7,1.1-3.2,1.1
			c-2.1,0-3.4-1.3-3.4-3.6c0-0.6,0-1,0.1-1.3l0.3-1.8c0.7-4.2,3.2-5.2,6.3-5.2c1.5,0,3,0.2,4.5,0.5C453.7,100,454,100.1,453.9,100.6
			z M448.3,103c-0.8,0-1.3,0.3-1.5,1.6l-0.4,1.9c0,0.2-0.1,0.4-0.1,0.6c0,0.6,0.3,0.7,0.8,0.7c0.4,0,0.9-0.2,1.2-0.3l0.8-4.4
			C448.8,103,448.5,103,448.3,103z"/>
		<path class="st1" d="M463.2,99.8c0.2,0.1,0.3,0.1,0.3,0.4l-0.5,2.7c0,0.2-0.3,0.4-0.5,0.4h0c-0.6,0-1.3-0.1-2.1-0.1
			c-0.8,0-1.1,0.5-1.3,1.7l-0.2,1.3c-0.1,0.3-0.1,0.6-0.1,0.8c0,0.6,0.2,0.9,0.8,0.9c0.8,0,1.5-0.1,2.1-0.1c0.3,0,0.4,0.2,0.4,0.4
			l-0.5,2.7c0,0.2-0.2,0.3-0.5,0.4c-0.8,0.2-1.7,0.3-2.8,0.3c-2.7,0-3.9-1.7-3.9-4c0-0.4,0-0.8,0.1-1.3l0.2-1.3
			c0.6-3.6,2.5-5.3,5.7-5.3C461.6,99.4,462.7,99.6,463.2,99.8z"/>
		<path class="st1" d="M463.4,110.7l1.9-10.7c0-0.2,0.2-0.4,0.5-0.4h3.5c0.4,0,0.4,0.2,0.4,0.4l-1.9,10.7c0,0.2-0.2,0.4-0.5,0.4
			h-3.5C463.5,111.1,463.3,110.9,463.4,110.7z M470,96c0.2,0,0.4,0.1,0.4,0.4l-0.4,2c0,0.2-0.2,0.4-0.5,0.4h-3.7
			c-0.3,0-0.4-0.2-0.4-0.4l0.4-2c0-0.2,0.2-0.4,0.5-0.4H470z"/>
		<path class="st1" d="M481.2,104.9l-0.2,0.9c-0.7,4.1-3,5.5-6.3,5.5c-2.9,0-4.5-1.6-4.5-4.2c0-0.4,0-0.9,0.1-1.3l0.2-0.9
			c0.7-4.1,3-5.5,6.3-5.5c2.9,0,4.5,1.4,4.5,4.1C481.3,104,481.2,104.4,481.2,104.9z M476.1,103c-0.7,0-1.1,0.6-1.4,1.9l-0.2,0.9
			c-0.1,0.4-0.1,0.7-0.1,0.9c0,0.8,0.3,1,0.8,1c0.7,0,1.1-0.4,1.4-1.9l0.2-0.9c0.1-0.4,0.1-0.7,0.1-0.9
			C476.9,103.3,476.6,103,476.1,103z M481.2,96.2l-2.9,2.3c-0.2,0.1-0.2,0.2-0.5,0.2h-3c-0.1,0-0.2,0-0.2-0.1c0-0.1,0-0.1,0.1-0.2
			l2.1-2.2c0.2-0.2,0.3-0.3,0.6-0.3h3.7c0.1,0,0.2,0.1,0.2,0.1C481.4,96.1,481.3,96.2,481.2,96.2z"/>
		<path class="st1" d="M493.8,104l-1.2,6.7c0,0.2-0.1,0.4-0.5,0.4h-3.5c-0.3,0-0.4-0.1-0.4-0.4l1.2-6.7c0-0.1,0-0.2,0-0.4
			c0-0.4-0.4-0.6-0.8-0.6c-0.4,0-0.7,0.1-1.1,0.3l-1.3,7.4c0,0.2-0.1,0.4-0.5,0.4h-3.5c-0.2,0-0.4-0.1-0.4-0.4l1.9-10.7
			c0-0.2,0.2-0.4,0.4-0.4h3.2c0.3,0,0.4,0.2,0.3,0.4l-0.1,0.5c1-0.7,1.9-1.1,3.3-1.1c2.4,0,3,1.5,3,3.2
			C493.9,103,493.8,103.5,493.8,104z"/>
	</g>
	<g>
		<path class="st1" d="M385.8,174.5l-2.4,13.7c0,0.2-0.1,0.4-0.5,0.4h-3.8c-0.3,0-0.4-0.2-0.3-0.4l2.4-13.7c0-0.2,0.2-0.4,0.5-0.4
			h3.8C385.7,174.1,385.8,174.3,385.8,174.5z"/>
		<path class="st1" d="M397.5,181.4l-1.2,6.7c0,0.2-0.1,0.4-0.5,0.4h-3.5c-0.3,0-0.4-0.1-0.4-0.4l1.2-6.7c0-0.1,0-0.2,0-0.4
			c0-0.4-0.3-0.6-0.8-0.6c-0.3,0-0.7,0.1-1.1,0.3l-1.3,7.4c0,0.2-0.1,0.4-0.5,0.4h-3.5c-0.2,0-0.4-0.1-0.4-0.4l1.9-10.7
			c0-0.2,0.2-0.4,0.4-0.4h3.2c0.3,0,0.4,0.2,0.3,0.4l-0.1,0.5c1-0.7,1.9-1.1,3.3-1.1c2.4,0,3,1.5,3,3.2
			C397.6,180.5,397.5,181,397.5,181.4z"/>
		<path class="st1" d="M408.6,177.9l-0.4,2.5c0,0.3-0.1,0.5-0.5,0.4c-0.6-0.1-2.7-0.4-3.4-0.4c-0.2,0-0.4,0-0.4,0.2
			c0,0.2,0,0.2,0.4,0.4l1.5,0.8c1.7,0.9,1.9,1.9,1.9,3c0,2.8-2.3,3.9-5.7,3.9c-1.7,0-2.8-0.3-3.5-0.5c-0.3-0.1-0.3-0.2-0.3-0.4
			l0.4-2.4c0.1-0.3,0.2-0.5,0.6-0.4c1.3,0.2,2.6,0.4,3.3,0.4c0.3,0,0.8,0,0.8-0.4c0-0.1-0.1-0.2-0.4-0.4l-1.7-1
			c-1.1-0.6-1.7-1.5-1.7-2.8c0-3.1,2.5-3.9,5.2-3.9c1.4,0,2.8,0.3,3.6,0.5C408.5,177.5,408.6,177.6,408.6,177.9z"/>
		<path class="st1" d="M417.3,177.1c0.3,0,0.5,0.1,0.4,0.4l-0.4,2.4c0,0.2-0.1,0.4-0.5,0.4h-1.4l-0.8,4.8c0,0.1,0,0.2,0,0.3
			c0,0.2,0.1,0.3,0.4,0.3h0.9c0.3,0,0.4,0.1,0.3,0.4l-0.4,2.1c0,0.2-0.1,0.4-0.5,0.4c-0.8,0.1-1.2,0.2-2.1,0.2
			c-1.4,0-3.1-0.6-3.1-2.8c0-0.3,0-0.6,0.1-1l0.8-4.7l-1.1-0.2c-0.2,0-0.4-0.1-0.3-0.4l0.4-2.2c0-0.2,0.2-0.4,0.5-0.4h1.1l0.3-1.6
			c0-0.2,0.1-0.4,0.5-0.4l3.5-0.6c0.4-0.1,0.5,0.1,0.5,0.4l-0.4,2.2H417.3z"/>
		<path class="st1" d="M425.9,176.9c0.3,0,0.5,0.1,0.4,0.4l-0.5,2.7c0,0.2-0.1,0.4-0.4,0.4h-0.1c-1.2,0-1.8,0.1-2.3,0.3l-1.3,7.4
			c0,0.2-0.1,0.4-0.5,0.4h-3.5c-0.2,0-0.4-0.1-0.4-0.4l1.9-10.7c0-0.2,0.1-0.4,0.4-0.4h3.1c0.2,0,0.4,0.1,0.3,0.4l-0.1,0.6
			c0.8-0.9,1.9-1.2,2.8-1.2H425.9z"/>
		<path class="st1" d="M438.5,177.5l-1.9,10.7c0,0.2-0.1,0.4-0.4,0.4H433c-0.2,0-0.4-0.1-0.3-0.4l0.1-0.5c-0.9,0.6-1.7,1.1-3.2,1.1
			c-2.2,0-3-1.5-3-3.3c0-0.4,0-0.8,0.1-1.2l1.2-6.7c0-0.2,0.3-0.4,0.5-0.4h3.5c0.3,0,0.4,0.1,0.4,0.4L431,184c0,0.2-0.1,0.5-0.1,0.6
			c0,0.5,0.3,0.7,0.8,0.7c0.4,0,0.7-0.1,1.1-0.3l1.3-7.4c0-0.2,0.1-0.4,0.5-0.4h3.5C438.4,177.1,438.6,177.2,438.5,177.5z"/>
		<path class="st1" d="M447.7,177.3c0.2,0.1,0.3,0.1,0.3,0.4l-0.5,2.7c0,0.2-0.3,0.4-0.5,0.4h0c-0.6,0-1.3-0.1-2.1-0.1
			c-0.8,0-1.1,0.5-1.3,1.7l-0.2,1.3c-0.1,0.3-0.1,0.6-0.1,0.8c0,0.6,0.2,0.9,0.8,0.9c0.8,0,1.5-0.1,2.1-0.1c0.4,0,0.4,0.2,0.4,0.4
			l-0.5,2.7c0,0.2-0.2,0.3-0.5,0.4c-0.8,0.2-1.7,0.3-2.8,0.3c-2.7,0-3.9-1.7-3.9-4c0-0.4,0-0.8,0.1-1.3l0.2-1.3
			c0.6-3.6,2.5-5.3,5.7-5.3C446.2,176.9,447.2,177.1,447.7,177.3z"/>
		<path class="st1" d="M457,177.3c0.2,0.1,0.3,0.1,0.3,0.4l-0.5,2.7c0,0.2-0.3,0.4-0.5,0.4h0c-0.6,0-1.3-0.1-2.1-0.1
			c-0.8,0-1.1,0.5-1.3,1.7l-0.2,1.3c-0.1,0.3-0.1,0.6-0.1,0.8c0,0.6,0.2,0.9,0.8,0.9c0.8,0,1.5-0.1,2.1-0.1c0.3,0,0.4,0.2,0.4,0.4
			l-0.5,2.7c0,0.2-0.2,0.3-0.5,0.4c-0.8,0.2-1.7,0.3-2.8,0.3c-2.7,0-3.9-1.7-3.9-4c0-0.4,0-0.8,0.1-1.3l0.2-1.3
			c0.6-3.6,2.5-5.3,5.7-5.3C455.4,176.9,456.5,177.1,457,177.3z"/>
		<path class="st1" d="M457.2,188.2l1.9-10.7c0-0.2,0.2-0.4,0.5-0.4h3.5c0.4,0,0.4,0.2,0.4,0.4l-1.9,10.7c0,0.2-0.2,0.4-0.5,0.4
			h-3.5C457.3,188.6,457.1,188.4,457.2,188.2z M463.8,173.4c0.2,0,0.4,0.1,0.4,0.4l-0.4,2c0,0.2-0.2,0.4-0.5,0.4h-3.7
			c-0.3,0-0.4-0.2-0.4-0.4l0.4-2c0-0.2,0.2-0.4,0.5-0.4H463.8z"/>
		<path class="st1" d="M474.9,182.4l-0.2,0.9c-0.7,4.1-3,5.5-6.3,5.5c-2.9,0-4.5-1.6-4.5-4.2c0-0.4,0-0.9,0.1-1.3l0.2-0.9
			c0.7-4.1,3-5.5,6.3-5.5c2.9,0,4.5,1.4,4.5,4.1C475.1,181.5,475,181.9,474.9,182.4z M469.9,180.5c-0.7,0-1.1,0.6-1.4,1.9l-0.2,0.9
			c-0.1,0.4-0.1,0.7-0.1,0.9c0,0.8,0.3,1,0.8,1c0.7,0,1.1-0.4,1.4-1.9l0.2-0.9c0.1-0.4,0.1-0.7,0.1-0.9
			C470.7,180.7,470.4,180.5,469.9,180.5z M475,173.7l-2.9,2.3c-0.2,0.1-0.2,0.2-0.5,0.2h-3c-0.1,0-0.2,0-0.2-0.1
			c0-0.1,0-0.1,0.1-0.2l2.1-2.2c0.2-0.2,0.3-0.3,0.6-0.3h3.7c0.1,0,0.2,0.1,0.2,0.1C475.1,173.6,475.1,173.7,475,173.7z"/>
		<path class="st1" d="M487.5,181.4l-1.2,6.7c0,0.2-0.1,0.4-0.5,0.4h-3.5c-0.3,0-0.4-0.1-0.4-0.4l1.2-6.7c0-0.1,0-0.2,0-0.4
			c0-0.4-0.4-0.6-0.8-0.6c-0.4,0-0.7,0.1-1.1,0.3l-1.3,7.4c0,0.2-0.1,0.4-0.5,0.4H476c-0.2,0-0.4-0.1-0.4-0.4l1.9-10.7
			c0-0.2,0.2-0.4,0.4-0.4h3.2c0.3,0,0.4,0.2,0.3,0.4l-0.1,0.5c1-0.7,1.9-1.1,3.3-1.1c2.4,0,3,1.5,3,3.2
			C487.7,180.5,487.6,181,487.5,181.4z"/>
	</g>
	<g>
		<path class="st1" d="M398.7,195.6c0.3,0,0.5,0.1,0.4,0.4l-0.4,2.4c0,0.2-0.1,0.4-0.5,0.4h-1.4l-0.8,4.8c0,0.1,0,0.2,0,0.3
			c0,0.2,0.1,0.3,0.3,0.3h0.9c0.3,0,0.4,0.1,0.3,0.4l-0.4,2.1c0,0.2-0.1,0.4-0.5,0.4c-0.8,0.1-1.2,0.2-2.1,0.2
			c-1.4,0-3.1-0.6-3.1-2.8c0-0.3,0-0.6,0.1-1l0.8-4.7l-1.1-0.2c-0.2,0-0.4-0.1-0.4-0.4l0.4-2.2c0-0.2,0.2-0.4,0.5-0.4h1.1l0.3-1.6
			c0-0.2,0.1-0.4,0.5-0.4l3.5-0.6c0.4-0.1,0.5,0.1,0.5,0.4l-0.4,2.2H398.7z"/>
		<path class="st1" d="M410,200.9l-0.2,1.2c0,0.2-0.3,0.4-0.5,0.4h-5.9c0,0.2,0,0.3,0,0.4c0,0.6,0.4,0.8,1.5,0.8
			c0.8,0,3-0.1,3.7-0.1c0.3,0,0.4,0.1,0.4,0.4l-0.4,2c-0.1,0.3-0.2,0.4-0.5,0.6c-1.1,0.4-3,0.7-4.6,0.7c-2.5,0-4.4-1.4-4.4-4.1
			c0-0.4,0-0.8,0.1-1.2l0.2-1.2c0.7-4,3.1-5.5,6.4-5.5c3.1,0,4.3,1.8,4.3,4.1C410.1,200,410.1,200.5,410,200.9z M405.2,198.7
			c-0.8,0-1.2,0.5-1.4,1.6h2.2c0-0.3,0.1-0.5,0.1-0.7C406.1,199.1,405.8,198.7,405.2,198.7z"/>
		<path class="st1" d="M422.1,200.9l-0.2,0.9c-0.7,4.1-3,5.5-6.3,5.5c-2.9,0-4.5-1.6-4.5-4.2c0-0.4,0-0.9,0.1-1.3l0.2-0.9
			c0.7-4.1,3-5.5,6.3-5.5c2.9,0,4.5,1.4,4.5,4.1C422.2,200,422.2,200.4,422.1,200.9z M417.1,199c-0.7,0-1.1,0.6-1.4,1.9l-0.2,0.9
			c-0.1,0.4-0.1,0.7-0.1,0.9c0,0.8,0.3,1,0.8,1c0.7,0,1.1-0.4,1.4-1.9l0.2-0.9c0.1-0.4,0.1-0.7,0.1-0.9
			C417.9,199.3,417.6,199,417.1,199z M422.2,192.2l-2.9,2.3c-0.2,0.1-0.2,0.2-0.5,0.2h-3c-0.1,0-0.2,0-0.2-0.1c0-0.1,0-0.1,0.1-0.2
			l2.1-2.2c0.2-0.2,0.3-0.3,0.6-0.3h3.7c0.1,0,0.2,0.1,0.2,0.1S422.3,192.2,422.2,192.2z"/>
		<path class="st1" d="M431.3,195.4c0.3,0,0.5,0.1,0.4,0.4l-0.5,2.7c0,0.2-0.1,0.4-0.4,0.4h-0.1c-1.2,0-1.8,0.1-2.3,0.3l-1.3,7.4
			c0,0.2-0.1,0.4-0.5,0.4h-3.5c-0.2,0-0.4-0.1-0.4-0.4l1.9-10.7c0-0.2,0.1-0.4,0.4-0.4h3.1c0.2,0,0.4,0.1,0.3,0.4l-0.1,0.6
			c0.8-0.9,1.9-1.1,2.8-1.1H431.3z"/>
		<path class="st1" d="M431.4,206.7l1.9-10.7c0-0.2,0.2-0.4,0.5-0.4h3.5c0.4,0,0.4,0.2,0.4,0.4l-1.9,10.7c0,0.2-0.2,0.4-0.5,0.4
			h-3.5C431.5,207.1,431.3,206.9,431.4,206.7z M438,192c0.2,0,0.4,0.1,0.4,0.4l-0.4,2c0,0.2-0.2,0.4-0.5,0.4h-3.7
			c-0.3,0-0.4-0.2-0.4-0.4l0.4-2c0-0.2,0.2-0.4,0.5-0.4H438z"/>
		<path class="st1" d="M446.8,195.8c0.2,0.1,0.3,0.1,0.3,0.4l-0.5,2.7c0,0.2-0.3,0.4-0.5,0.4h0c-0.6,0-1.3-0.1-2.1-0.1
			c-0.8,0-1.1,0.5-1.3,1.7l-0.2,1.3c-0.1,0.3-0.1,0.6-0.1,0.8c0,0.6,0.2,0.9,0.8,0.9c0.8,0,1.5-0.1,2.1-0.1c0.4,0,0.4,0.2,0.4,0.4
			l-0.5,2.7c0,0.2-0.2,0.3-0.5,0.4c-0.8,0.2-1.7,0.3-2.8,0.3c-2.7,0-3.9-1.7-3.9-4c0-0.4,0-0.8,0.1-1.3l0.2-1.3
			c0.6-3.6,2.5-5.3,5.7-5.3C445.3,195.4,446.3,195.6,446.8,195.8z"/>
		<path class="st1" d="M459.3,196.6l-1.8,10.2c0,0.2-0.1,0.4-0.4,0.4h-2.8c-0.4,0-0.4-0.2-0.4-0.4l0.1-0.5c-0.9,0.8-1.7,1.1-3.2,1.1
			c-2.1,0-3.4-1.3-3.4-3.6c0-0.6,0-1,0.1-1.3l0.3-1.8c0.7-4.2,3.2-5.2,6.3-5.2c1.5,0,3,0.2,4.5,0.5
			C459.1,196,459.4,196.1,459.3,196.6z M453.7,199c-0.8,0-1.3,0.3-1.5,1.6l-0.4,1.9c0,0.2-0.1,0.4-0.1,0.6c0,0.6,0.3,0.7,0.8,0.7
			c0.4,0,0.9-0.2,1.2-0.3l0.8-4.4C454.2,199,453.9,199,453.7,199z"/>
		<path class="st1" d="M477.3,196l-5.4,11.7c-1,2-2.2,3.4-5.5,3.4c-0.9,0-2.3-0.2-2.9-0.4c-0.3-0.1-0.4-0.2-0.4-0.4l0.4-2.2
			c0-0.2,0.1-0.5,0.5-0.4c0.8,0.1,2.1,0.1,2.9,0.1c0.4,0,0.7-0.1,0.9-0.4l0.3-0.7H468c-0.7,0-1.4-0.2-1.6-1.5l-1.2-9.2
			c0-0.3,0.1-0.4,0.5-0.4h3.7c0.2,0,0.3,0.2,0.3,0.4l0.3,6.1c0,0.2,0,0.3,0.1,0.3h0.1l2.4-6.4c0.1-0.2,0.2-0.4,0.5-0.4h4
			C477.3,195.6,477.5,195.8,477.3,196z"/>
	</g>
	<g>
		<path class="st1" d="M405.7,219.1l-0.3,1.5c-0.6,3.5-2.6,5.2-6.3,5.2c-0.2,0-0.8-0.1-1.1-0.1l-0.6,3.2c0,0.2-0.2,0.4-0.4,0.4h-3.5
			c-0.2,0-0.4-0.1-0.4-0.4l2.4-13.8c0.1-0.3,0.2-0.5,0.9-0.7c1-0.2,2.7-0.5,4.7-0.5c2.9,0,4.5,1.7,4.5,4.1
			C405.8,218.4,405.7,218.8,405.7,219.1z M400.6,217.5c-0.5,0-0.7,0-1.1,0.1l-0.8,4.6c0.3,0,0.6,0.1,1.1,0.1c0.8,0,1.1-0.5,1.3-1.6
			l0.3-1.5c0.1-0.3,0.1-0.5,0.1-0.7C401.4,217.8,401.2,217.5,400.6,217.5z"/>
		<path class="st1" d="M414.8,214c0.3,0,0.5,0.1,0.4,0.4l-0.5,2.7c0,0.2-0.1,0.4-0.4,0.4h-0.1c-1.2,0-1.8,0.1-2.3,0.3l-1.3,7.4
			c0,0.2-0.1,0.4-0.5,0.4h-3.5c-0.2,0-0.4-0.1-0.4-0.4l1.9-10.7c0-0.2,0.1-0.4,0.4-0.4h3.1c0.2,0,0.4,0.1,0.3,0.4l-0.1,0.6
			c0.8-0.9,1.9-1.2,2.8-1.2H414.8z"/>
		<path class="st1" d="M426.8,215.1l-1.8,10.2c0,0.2-0.2,0.4-0.4,0.4h-2.8c-0.2,0-0.4-0.1-0.4-0.3c0,0,0,0,0-0.1l0.1-0.5
			c-0.9,0.8-1.9,1.1-2.9,1.1c-1.9,0-3.7-1.3-3.7-3.9c0-0.3,0-0.6,0.1-1l0.3-1.8c0.7-4.2,3.2-5.2,6.3-5.2c1.5,0,3,0.2,4.5,0.5
			c0.4,0.1,0.7,0.2,0.7,0.5C426.8,215,426.8,215,426.8,215.1z M421.2,217.5c-0.8,0-1.3,0.3-1.5,1.6l-0.4,2.2c0,0.1,0,0.2,0,0.3
			c0,0.6,0.3,0.7,0.8,0.7c0.4,0,0.9-0.2,1.2-0.3l0.8-4.4C421.7,217.6,421.4,217.5,421.2,217.5z M426.6,210.8l-2.9,2.3
			c-0.2,0.1-0.2,0.2-0.5,0.2h-3c-0.1,0-0.2,0-0.2-0.1c0-0.1,0-0.1,0.1-0.2l2.1-2.2c0.2-0.2,0.3-0.3,0.6-0.3h3.7
			c0.1,0,0.2,0.1,0.2,0.1C426.8,210.6,426.7,210.7,426.6,210.8z"/>
		<path class="st1" d="M436.1,214.3c0.2,0.1,0.4,0.1,0.3,0.4l-0.5,2.7c0,0.2-0.3,0.4-0.5,0.4h0c-0.6,0-1.3-0.1-2.1-0.1
			c-0.8,0-1.1,0.5-1.3,1.7l-0.2,1.3c-0.1,0.3-0.1,0.6-0.1,0.8c0,0.6,0.2,0.9,0.8,0.9c0.8,0,1.5-0.1,2.1-0.1c0.4,0,0.4,0.2,0.4,0.4
			l-0.5,2.7c0,0.2-0.2,0.3-0.5,0.4c-0.8,0.2-1.7,0.3-2.8,0.3c-2.7,0-3.9-1.7-3.9-4c0-0.4,0-0.8,0.1-1.3l0.2-1.3
			c0.6-3.6,2.5-5.3,5.7-5.3C434.5,214,435.6,214.1,436.1,214.3z"/>
		<path class="st1" d="M444.8,214.1c0.3,0,0.5,0.1,0.4,0.4l-0.4,2.4c0,0.2-0.1,0.4-0.5,0.4h-1.4l-0.8,4.8c0,0.1,0,0.2,0,0.3
			c0,0.2,0.1,0.3,0.4,0.3h0.9c0.3,0,0.4,0.1,0.3,0.4l-0.4,2.1c0,0.2-0.1,0.4-0.5,0.4c-0.8,0.1-1.2,0.2-2.1,0.2
			c-1.4,0-3.1-0.6-3.1-2.8c0-0.3,0-0.6,0.1-1l0.8-4.7l-1.1-0.2c-0.2,0-0.4-0.1-0.4-0.4l0.4-2.2c0-0.2,0.2-0.4,0.5-0.4h1.1l0.3-1.6
			c0-0.2,0.1-0.4,0.5-0.4l3.5-0.6c0.4-0.1,0.5,0.1,0.5,0.4l-0.4,2.2H444.8z"/>
		<path class="st1" d="M444.8,225.2l1.9-10.7c0-0.2,0.2-0.4,0.5-0.4h3.5c0.4,0,0.4,0.2,0.4,0.4l-1.9,10.7c0,0.2-0.2,0.4-0.5,0.4
			h-3.5C445,225.6,444.8,225.4,444.8,225.2z M451.4,210.5c0.2,0,0.4,0.1,0.4,0.4l-0.4,2c0,0.2-0.2,0.4-0.5,0.4h-3.7
			c-0.3,0-0.4-0.2-0.4-0.4l0.4-2c0-0.2,0.2-0.4,0.5-0.4H451.4z"/>
		<path class="st1" d="M460.3,214.3c0.2,0.1,0.3,0.1,0.3,0.4l-0.5,2.7c0,0.2-0.3,0.4-0.5,0.4h0c-0.6,0-1.3-0.1-2.1-0.1
			c-0.8,0-1.1,0.5-1.3,1.7l-0.2,1.3c-0.1,0.3-0.1,0.6-0.1,0.8c0,0.6,0.2,0.9,0.8,0.9c0.8,0,1.5-0.1,2.1-0.1c0.3,0,0.4,0.2,0.4,0.4
			l-0.5,2.7c0,0.2-0.2,0.3-0.5,0.4c-0.8,0.2-1.7,0.3-2.8,0.3c-2.7,0-3.9-1.7-3.9-4c0-0.4,0-0.8,0.1-1.3l0.2-1.3
			c0.6-3.6,2.5-5.3,5.7-5.3C458.8,214,459.8,214.1,460.3,214.3z"/>
		<path class="st1" d="M472.8,215.1l-1.8,10.2c0,0.2-0.1,0.4-0.4,0.4h-2.8c-0.4,0-0.4-0.2-0.4-0.4l0.1-0.5c-0.9,0.8-1.7,1.1-3.2,1.1
			c-2.1,0-3.4-1.3-3.4-3.6c0-0.6,0-1,0.1-1.3l0.3-1.8c0.7-4.2,3.2-5.2,6.3-5.2c1.5,0,3,0.2,4.5,0.5
			C472.6,214.5,472.9,214.6,472.8,215.1z M467.2,217.5c-0.8,0-1.3,0.3-1.5,1.6l-0.4,1.9c0,0.2-0.1,0.4-0.1,0.6
			c0,0.6,0.3,0.7,0.8,0.7c0.4,0,0.9-0.2,1.2-0.3l0.8-4.4C467.7,217.6,467.4,217.5,467.2,217.5z"/>
	</g>
	<g>
		<path class="st1" d="M376.4,290.4l-0.5,2.9c0,0.2-0.1,0.4-0.5,0.4h-3.9c-0.5,0-0.6,0.1-0.7,0.6l-0.2,1.1h4.6
			c0.2,0,0.4,0.1,0.3,0.4l-0.5,2.7c0,0.2-0.3,0.4-0.5,0.4h-4.6l-0.2,1c-0.1,0.3-0.1,0.4-0.1,0.5c0,0.3,0.2,0.4,0.6,0.4h3.9
			c0.2,0,0.4,0.1,0.3,0.4l-0.5,2.9c0,0.2-0.1,0.4-0.5,0.4c-0.8,0.1-2.3,0.2-4,0.2c-2.4,0-4.5-0.8-4.5-3.5c0-0.3,0-0.7,0.1-1.1l1-5.7
			c0.8-4.4,3.6-4.6,6-4.6c1.7,0,3.1,0.1,3.9,0.2C376.3,290,376.4,290.2,376.4,290.4z"/>
		<path class="st1" d="M382.9,289.7l-2.5,14.3c0,0.2-0.1,0.4-0.5,0.4h-3.5c-0.2,0-0.4-0.1-0.4-0.4l2.5-14.3c0-0.2,0.2-0.4,0.5-0.4
			h3.5C382.8,289.3,383,289.4,382.9,289.7z"/>
		<path class="st1" d="M394.7,293.9l-1.8,10.2c0,0.2-0.1,0.4-0.4,0.4h-2.8c-0.4,0-0.4-0.2-0.4-0.4l0.1-0.5c-0.9,0.8-1.7,1.1-3.2,1.1
			c-2.1,0-3.4-1.3-3.4-3.6c0-0.6,0-1,0.1-1.3l0.3-1.8c0.7-4.2,3.2-5.2,6.3-5.2c1.5,0,3,0.2,4.5,0.5
			C394.5,293.3,394.8,293.5,394.7,293.9z M389.1,296.4c-0.8,0-1.3,0.3-1.5,1.6l-0.4,1.9c0,0.2-0.1,0.4-0.1,0.6
			c0,0.6,0.3,0.7,0.8,0.7c0.4,0,0.9-0.2,1.2-0.3l0.8-4.4C389.6,296.4,389.3,296.4,389.1,296.4z"/>
		<path class="st1" d="M406.7,298l-0.3,1.5c-0.6,3.6-2.9,5.2-6.3,5.2c-2,0-3.6-0.3-4.5-0.5c-0.6-0.1-0.7-0.3-0.6-0.7l2.4-13.8
			c0-0.2,0.2-0.4,0.5-0.4h3.5c0.2,0,0.4,0.1,0.3,0.4l-0.6,3.2c0.3-0.1,0.7-0.1,1.1-0.1c3.1,0,4.5,1.8,4.5,4.1
			C406.8,297.2,406.7,297.6,406.7,298z M401.5,296.4c-0.3,0-0.6,0-0.9,0.1l-0.8,4.6c0.4,0,0.5,0.1,1.1,0.1c0.9,0,1.1-0.7,1.3-1.6
			l0.3-1.5c0-0.2,0.1-0.4,0.1-0.6C402.4,296.8,402.2,296.4,401.5,296.4z"/>
		<path class="st1" d="M418.7,298.3l-0.2,0.9c-0.7,4.1-3,5.5-6.3,5.5c-2.9,0-4.5-1.6-4.5-4.2c0-0.4,0-0.9,0.1-1.3l0.2-0.9
			c0.7-4.1,3-5.5,6.3-5.5c2.9,0,4.5,1.4,4.5,4.1C418.8,297.3,418.8,297.8,418.7,298.3z M413.7,296.4c-0.7,0-1.1,0.6-1.4,1.9
			l-0.2,0.9c-0.1,0.4-0.1,0.7-0.1,0.9c0,0.8,0.3,1,0.8,1c0.7,0,1.1-0.4,1.4-1.9l0.2-0.9c0.1-0.4,0.1-0.7,0.1-0.9
			C414.5,296.6,414.2,296.4,413.7,296.4z"/>
		<path class="st1" d="M427.9,292.8c0.3,0,0.5,0.1,0.4,0.4l-0.5,2.7c0,0.2-0.1,0.4-0.4,0.4h-0.1c-1.2,0-1.8,0.1-2.3,0.3l-1.3,7.4
			c0,0.2-0.1,0.4-0.5,0.4h-3.5c-0.2,0-0.4-0.1-0.4-0.4l1.9-10.7c0-0.2,0.1-0.4,0.4-0.4h3.1c0.2,0,0.4,0.1,0.3,0.4l-0.1,0.6
			c0.8-0.9,1.9-1.2,2.8-1.2H427.9z"/>
		<path class="st1" d="M439.9,293.9l-1.8,10.2c0,0.2-0.1,0.4-0.4,0.4h-2.8c-0.4,0-0.4-0.2-0.4-0.4l0.1-0.5c-0.9,0.8-1.7,1.1-3.2,1.1
			c-2.1,0-3.4-1.3-3.4-3.6c0-0.6,0-1,0.1-1.3l0.3-1.8c0.7-4.2,3.2-5.2,6.3-5.2c1.5,0,3,0.2,4.5,0.5
			C439.7,293.3,439.9,293.5,439.9,293.9z M434.2,296.4c-0.8,0-1.3,0.3-1.5,1.6l-0.4,1.9c0,0.2-0.1,0.4-0.1,0.6
			c0,0.6,0.3,0.7,0.8,0.7c0.4,0,0.9-0.2,1.2-0.3l0.8-4.4C434.8,296.4,434.5,296.4,434.2,296.4z"/>
		<path class="st1" d="M452.6,289.3c0.2,0,0.4,0.1,0.4,0.4l-2.4,13.8c-0.1,0.3-0.2,0.5-0.9,0.7c-1,0.2-2.7,0.5-4.7,0.5
			c-2.8,0-4.5-1.8-4.5-4.2c0-0.3,0-0.6,0.1-1l0.3-1.5c0.7-3.7,2.7-5.2,6.1-5.2c0.4,0,1,0.1,1.2,0.1l0.6-3.2c0-0.2,0.1-0.4,0.4-0.4
			H452.6z M446.4,296.4c-0.8,0-1.1,0.5-1.3,1.6l-0.3,1.5c-0.1,0.3-0.1,0.5-0.1,0.7c0,0.6,0.2,0.9,0.8,0.9c0.5,0,0.7,0,1.1-0.1
			l0.8-4.6C447.2,296.4,446.9,296.4,446.4,296.4z"/>
		<path class="st1" d="M464.8,293.9l-1.8,10.2c0,0.2-0.1,0.4-0.4,0.4h-2.8c-0.3,0-0.4-0.2-0.4-0.4l0.1-0.5c-0.9,0.8-1.7,1.1-3.2,1.1
			c-2.1,0-3.4-1.3-3.4-3.6c0-0.6,0-1,0.1-1.3l0.3-1.8c0.7-4.2,3.2-5.2,6.3-5.2c1.5,0,3,0.2,4.5,0.5
			C464.6,293.3,464.8,293.5,464.8,293.9z M459.1,296.4c-0.8,0-1.3,0.3-1.5,1.6l-0.3,1.9c0,0.2-0.1,0.4-0.1,0.6
			c0,0.6,0.3,0.7,0.8,0.7c0.4,0,0.9-0.2,1.2-0.3l0.8-4.4C459.7,296.4,459.4,296.4,459.1,296.4z"/>
		<path class="st1" d="M481.2,298l-0.3,1.5c-0.6,3.5-2.7,5.2-6.3,5.2c-0.2,0-0.8-0.1-1.1-0.1l-0.6,3.2c0,0.2-0.2,0.4-0.4,0.4h-3.5
			c-0.2,0-0.4-0.1-0.4-0.4l2.4-13.8c0.1-0.3,0.2-0.5,0.9-0.7c1-0.2,2.7-0.5,4.7-0.5c2.9,0,4.5,1.7,4.5,4.1
			C481.3,297.2,481.3,297.6,481.2,298z M476.1,296.4c-0.5,0-0.7,0-1.1,0.1l-0.8,4.6c0.3,0,0.6,0.1,1.1,0.1c0.8,0,1.1-0.5,1.3-1.6
			l0.3-1.5c0.1-0.3,0.1-0.5,0.1-0.7C477,296.6,476.7,296.4,476.1,296.4z"/>
		<path class="st1" d="M493.2,298.3l-0.2,0.9c-0.7,4.1-3,5.5-6.3,5.5c-2.9,0-4.5-1.6-4.5-4.2c0-0.4,0-0.9,0.1-1.3l0.2-0.9
			c0.7-4.1,3-5.5,6.3-5.5c2.9,0,4.5,1.4,4.5,4.1C493.4,297.3,493.3,297.8,493.2,298.3z M488.2,296.4c-0.7,0-1.1,0.6-1.4,1.9
			l-0.2,0.9c-0.1,0.4-0.1,0.7-0.1,0.9c0,0.8,0.3,1,0.8,1c0.7,0,1.1-0.4,1.4-1.9l0.2-0.9c0.1-0.4,0.1-0.7,0.1-0.9
			C489,296.6,488.7,296.4,488.2,296.4z"/>
		<path class="st1" d="M502.5,292.8c0.3,0,0.5,0.1,0.4,0.4l-0.5,2.7c0,0.2-0.1,0.4-0.4,0.4h-0.1c-1.2,0-1.8,0.1-2.3,0.3l-1.3,7.4
			c0,0.2-0.1,0.4-0.5,0.4h-3.5c-0.2,0-0.4-0.1-0.4-0.4l1.9-10.7c0-0.2,0.1-0.4,0.4-0.4h3.1c0.2,0,0.4,0.1,0.3,0.4l-0.1,0.6
			c0.8-0.9,1.9-1.2,2.8-1.2H502.5z"/>
	</g>
	<g>
		<path class="st1" d="M408,311.3c0.3,0,0.5,0.1,0.4,0.4l-0.5,2.7c0,0.2-0.1,0.4-0.4,0.4h-0.1c-1.2,0-1.8,0.1-2.3,0.3l-1.3,7.4
			c0,0.2-0.1,0.4-0.5,0.4h-3.5c-0.2,0-0.4-0.1-0.4-0.4l1.9-10.7c0-0.2,0.1-0.4,0.4-0.4h3.1c0.2,0,0.4,0.1,0.3,0.4l-0.1,0.6
			c0.8-0.9,1.9-1.1,2.8-1.1H408z"/>
		<path class="st1" d="M419.1,316.8l-0.2,1.2c0,0.2-0.3,0.4-0.5,0.4h-5.9c0,0.2,0,0.3,0,0.4c0,0.6,0.4,0.8,1.5,0.8
			c0.8,0,3-0.1,3.7-0.1c0.3,0,0.4,0.1,0.4,0.4l-0.4,2c-0.1,0.3-0.2,0.4-0.5,0.6c-1.1,0.4-3,0.7-4.6,0.7c-2.5,0-4.4-1.4-4.4-4.1
			c0-0.4,0-0.8,0.1-1.2l0.2-1.2c0.7-4,3.1-5.5,6.4-5.5c3.1,0,4.3,1.8,4.3,4.1C419.2,315.9,419.2,316.3,419.1,316.8z M414.2,314.6
			c-0.8,0-1.2,0.5-1.4,1.6h2.2c0-0.3,0.1-0.5,0.1-0.7C415.2,314.9,414.9,314.6,414.2,314.6z"/>
		<path class="st1" d="M426.6,308.2l-2.5,14.3c0,0.2-0.1,0.4-0.5,0.4h-3.5c-0.2,0-0.4-0.1-0.4-0.4l2.5-14.3c0-0.2,0.2-0.4,0.5-0.4
			h3.5C426.5,307.8,426.7,307.9,426.6,308.2z"/>
		<path class="st1" d="M438.4,312.4l-1.8,10.2c0,0.2-0.1,0.4-0.4,0.4h-2.8c-0.4,0-0.4-0.2-0.4-0.4l0.1-0.5c-0.9,0.8-1.7,1.1-3.2,1.1
			c-2.1,0-3.4-1.3-3.4-3.6c0-0.6,0-1,0.1-1.3l0.3-1.8c0.7-4.2,3.2-5.2,6.3-5.2c1.5,0,3,0.2,4.5,0.5
			C438.2,311.8,438.4,312,438.4,312.4z M432.8,314.9c-0.8,0-1.3,0.3-1.5,1.6l-0.4,1.9c0,0.2-0.1,0.4-0.1,0.6c0,0.6,0.3,0.7,0.8,0.7
			c0.4,0,0.9-0.2,1.2-0.3l0.8-4.4C433.3,314.9,433,314.9,432.8,314.9z"/>
		<path class="st1" d="M446.8,311.5c0.3,0,0.5,0.1,0.4,0.4l-0.4,2.4c0,0.2-0.1,0.4-0.5,0.4H445l-0.8,4.8c0,0.1,0,0.2,0,0.3
			c0,0.2,0.1,0.3,0.4,0.3h0.9c0.3,0,0.4,0.1,0.3,0.4l-0.4,2.1c0,0.2-0.1,0.4-0.5,0.4c-0.8,0.1-1.2,0.2-2.1,0.2
			c-1.4,0-3.1-0.6-3.1-2.8c0-0.3,0-0.6,0.1-1l0.8-4.7l-1.1-0.2c-0.2,0-0.4-0.1-0.4-0.4l0.4-2.2c0-0.2,0.2-0.4,0.5-0.4h1.1l0.3-1.6
			c0-0.2,0.1-0.4,0.5-0.4l3.5-0.6c0.4-0.1,0.5,0.1,0.5,0.4l-0.4,2.2H446.8z"/>
		<path class="st1" d="M458.3,316.8l-0.2,0.9c-0.7,4.1-3,5.5-6.3,5.5c-2.9,0-4.5-1.6-4.5-4.2c0-0.4,0-0.9,0.1-1.3l0.2-0.9
			c0.7-4.1,3-5.5,6.3-5.5c2.9,0,4.5,1.4,4.5,4.1C458.4,315.8,458.4,316.3,458.3,316.8z M453.3,314.9c-0.7,0-1.1,0.6-1.4,1.9
			l-0.2,0.9c-0.1,0.4-0.1,0.7-0.1,0.9c0,0.8,0.3,1,0.8,1c0.7,0,1.1-0.4,1.4-1.9l0.2-0.9c0.1-0.4,0.1-0.7,0.1-0.9
			C454.1,315.1,453.8,314.9,453.3,314.9z"/>
		<path class="st1" d="M467.5,311.3c0.3,0,0.5,0.1,0.4,0.4l-0.5,2.7c0,0.2-0.1,0.4-0.4,0.4h-0.1c-1.2,0-1.8,0.1-2.3,0.3l-1.3,7.4
			c0,0.2-0.1,0.4-0.5,0.4h-3.5c-0.2,0-0.4-0.1-0.4-0.4l1.9-10.7c0-0.2,0.1-0.4,0.4-0.4h3.1c0.2,0,0.4,0.1,0.3,0.4l-0.1,0.6
			c0.8-0.9,1.9-1.1,2.8-1.1H467.5z"/>
	</g>
	<g>
		<path class="st1" d="M604,174.5l-4.4,11.8c-0.7,2-2.3,2.5-4.7,2.5c-2.4,0-3.8-0.5-3.8-2.5l-0.3-11.8c0-0.3,0.1-0.4,0.4-0.4h4
			c0.3,0,0.3,0.2,0.3,0.4l-0.2,10.3v0c0,0.1,0,0.2,0.1,0.2c0.1,0,0.2-0.1,0.2-0.3l3.5-10.3c0.1-0.2,0.2-0.4,0.5-0.4h4.1
			c0.2,0,0.3,0,0.3,0.2C604.1,174.4,604.1,174.5,604,174.5z"/>
		<path class="st1" d="M614.7,178.1l-1.8,10.2c0,0.2-0.1,0.4-0.4,0.4h-2.8c-0.4,0-0.4-0.2-0.4-0.4l0.1-0.5c-0.9,0.8-1.7,1.1-3.2,1.1
			c-2.1,0-3.4-1.3-3.4-3.6c0-0.6,0-1,0.1-1.3l0.3-1.8c0.7-4.2,3.2-5.2,6.3-5.2c1.5,0,3,0.2,4.5,0.5
			C614.5,177.5,614.8,177.6,614.7,178.1z M609.1,180.5c-0.8,0-1.3,0.3-1.5,1.6l-0.4,1.9c0,0.2-0.1,0.4-0.1,0.6
			c0,0.6,0.3,0.7,0.8,0.7c0.4,0,0.9-0.2,1.2-0.3l0.8-4.4C609.6,180.5,609.3,180.5,609.1,180.5z"/>
		<path class="st1" d="M621.8,173.8l-2.5,14.3c0,0.2-0.1,0.4-0.5,0.4h-3.5c-0.2,0-0.4-0.1-0.4-0.4l2.5-14.3c0-0.2,0.2-0.4,0.5-0.4
			h3.5C621.7,173.4,621.8,173.6,621.8,173.8z"/>
		<path class="st1" d="M621.2,188.2l1.9-10.7c0-0.2,0.2-0.4,0.5-0.4h3.5c0.4,0,0.4,0.2,0.3,0.4l-1.9,10.7c0,0.2-0.2,0.4-0.5,0.4
			h-3.5C621.4,188.6,621.2,188.4,621.2,188.2z M627.8,173.4c0.2,0,0.4,0.1,0.4,0.4l-0.4,2c0,0.2-0.2,0.4-0.5,0.4h-3.7
			c-0.4,0-0.4-0.2-0.4-0.4l0.4-2c0-0.2,0.2-0.4,0.5-0.4H627.8z"/>
		<path class="st1" d="M640.2,173.4c0.2,0,0.4,0.1,0.4,0.4l-2.4,13.8c-0.1,0.3-0.2,0.5-0.9,0.7c-1,0.2-2.7,0.5-4.7,0.5
			c-2.8,0-4.5-1.8-4.5-4.2c0-0.3,0-0.6,0.1-1l0.3-1.5c0.7-3.7,2.7-5.2,6.1-5.2c0.4,0,1,0.1,1.2,0.1l0.6-3.2c0-0.2,0.1-0.4,0.4-0.4
			H640.2z M634,180.5c-0.8,0-1.1,0.5-1.3,1.6l-0.3,1.5c-0.1,0.3-0.1,0.5-0.1,0.7c0,0.6,0.2,0.9,0.8,0.9c0.5,0,0.7,0,1.1-0.1l0.8-4.6
			C634.7,180.6,634.4,180.5,634,180.5z"/>
		<path class="st1" d="M652.3,178.1l-1.8,10.2c0,0.2-0.1,0.4-0.4,0.4h-2.8c-0.4,0-0.4-0.2-0.4-0.4l0.1-0.5c-0.9,0.8-1.7,1.1-3.2,1.1
			c-2.1,0-3.4-1.3-3.4-3.6c0-0.6,0-1,0.1-1.3l0.3-1.8c0.7-4.2,3.2-5.2,6.3-5.2c1.5,0,3,0.2,4.5,0.5
			C652.1,177.5,652.4,177.6,652.3,178.1z M646.7,180.5c-0.8,0-1.3,0.3-1.5,1.6l-0.4,1.9c0,0.2-0.1,0.4-0.1,0.6
			c0,0.6,0.3,0.7,0.8,0.7c0.4,0,0.9-0.2,1.2-0.3l0.8-4.4C647.2,180.5,646.9,180.5,646.7,180.5z"/>
		<path class="st1" d="M661.1,176.9c0.3,0,0.5,0.1,0.4,0.4l-0.5,2.7c0,0.2-0.1,0.4-0.4,0.4h-0.1c-1.2,0-1.8,0.1-2.3,0.3l-1.3,7.4
			c0,0.2-0.1,0.4-0.5,0.4h-3.5c-0.2,0-0.4-0.1-0.4-0.4l1.9-10.7c0-0.2,0.1-0.4,0.4-0.4h3.1c0.2,0,0.4,0.1,0.3,0.4l-0.1,0.6
			c0.8-0.9,1.9-1.2,2.8-1.2H661.1z"/>
	</g>
	<g>
		<path class="st1" d="M578.7,200l-1.2,6.7c0,0.2-0.1,0.4-0.5,0.4h-3.5c-0.3,0-0.4-0.1-0.4-0.4l1.2-6.6c0-0.1,0-0.3,0-0.4
			c0-0.5-0.3-0.6-0.9-0.6c-0.4,0-0.7,0-1,0.1l-1.3,7.5c0,0.2-0.1,0.4-0.5,0.4h-3.5c-0.2,0-0.4-0.1-0.4-0.4l2.5-14.4
			c0-0.2,0.1-0.4,0.4-0.4h3.6c0.2,0,0.4,0.1,0.3,0.4l-0.6,3.4c0.8-0.2,1.5-0.3,2.3-0.3c2.3,0,3.5,1.3,3.5,3.4
			C578.8,199.2,578.8,199.6,578.7,200z"/>
		<path class="st1" d="M591.8,196.6l-1.8,10.2c0,0.2-0.1,0.4-0.4,0.4h-2.8c-0.4,0-0.4-0.2-0.4-0.4l0.1-0.5c-0.9,0.8-1.7,1.1-3.2,1.1
			c-2.1,0-3.4-1.3-3.4-3.6c0-0.6,0-1,0.1-1.3l0.3-1.8c0.7-4.2,3.2-5.2,6.3-5.2c1.5,0,3,0.2,4.5,0.5
			C591.6,196,591.9,196.1,591.8,196.6z M586.2,199c-0.8,0-1.3,0.3-1.5,1.6l-0.4,1.9c0,0.2-0.1,0.4-0.1,0.6c0,0.6,0.3,0.7,0.8,0.7
			c0.4,0,0.9-0.2,1.2-0.3l0.8-4.4C586.8,199,586.5,199,586.2,199z"/>
		<path class="st1" d="M603.8,200.6l-0.3,1.5c-0.6,3.6-2.9,5.2-6.3,5.2c-2,0-3.6-0.3-4.5-0.5c-0.6-0.1-0.7-0.3-0.6-0.7l2.4-13.8
			c0-0.2,0.2-0.4,0.5-0.4h3.5c0.2,0,0.4,0.1,0.3,0.4l-0.6,3.2c0.3-0.1,0.7-0.1,1.1-0.1c3.1,0,4.5,1.8,4.5,4.1
			C603.9,199.9,603.9,200.3,603.8,200.6z M598.6,199c-0.3,0-0.6,0-0.9,0.1l-0.8,4.6c0.4,0,0.5,0.1,1.1,0.1c0.9,0,1.1-0.7,1.3-1.6
			l0.3-1.5c0-0.2,0.1-0.4,0.1-0.6C599.6,199.4,599.3,199,598.6,199z"/>
		<path class="st1" d="M604.5,206.7l1.9-10.7c0-0.2,0.2-0.4,0.5-0.4h3.5c0.4,0,0.4,0.2,0.4,0.4l-1.9,10.7c0,0.2-0.2,0.4-0.5,0.4
			h-3.5C604.6,207.1,604.4,206.9,604.5,206.7z M611.1,192c0.2,0,0.4,0.1,0.4,0.4l-0.4,2c0,0.2-0.2,0.4-0.5,0.4h-3.7
			c-0.3,0-0.4-0.2-0.4-0.4l0.4-2c0-0.2,0.2-0.4,0.5-0.4H611.1z"/>
		<path class="st1" d="M617.7,192.4l-2.5,14.3c0,0.2-0.1,0.4-0.5,0.4h-3.5c-0.2,0-0.4-0.1-0.4-0.4l2.5-14.3c0-0.2,0.2-0.4,0.5-0.4
			h3.5C617.6,192,617.8,192.1,617.7,192.4z"/>
		<path class="st1" d="M617.2,206.7l1.9-10.7c0-0.2,0.2-0.4,0.5-0.4h3.5c0.4,0,0.4,0.2,0.3,0.4l-1.9,10.7c0,0.2-0.2,0.4-0.5,0.4
			h-3.5C617.3,207.1,617.2,206.9,617.2,206.7z M623.8,192c0.2,0,0.4,0.1,0.4,0.4l-0.4,2c0,0.2-0.2,0.4-0.5,0.4h-3.7
			c-0.4,0-0.4-0.2-0.4-0.4l0.4-2c0-0.2,0.2-0.4,0.5-0.4H623.8z"/>
		<path class="st1" d="M636.1,192c0.2,0,0.4,0.1,0.4,0.4l-2.4,13.8c-0.1,0.3-0.2,0.5-0.9,0.7c-1,0.2-2.7,0.5-4.7,0.5
			c-2.8,0-4.5-1.8-4.5-4.2c0-0.3,0-0.6,0.1-1l0.3-1.5c0.7-3.7,2.7-5.2,6.1-5.2c0.4,0,1,0.1,1.2,0.1l0.6-3.2c0-0.2,0.1-0.4,0.4-0.4
			H636.1z M630,199c-0.8,0-1.1,0.5-1.3,1.6l-0.3,1.5c-0.1,0.3-0.1,0.5-0.1,0.7c0,0.6,0.2,0.9,0.8,0.9c0.5,0,0.7,0,1.1-0.1l0.8-4.6
			C630.7,199.1,630.4,199,630,199z"/>
		<path class="st1" d="M648.3,196.6l-1.8,10.2c0,0.2-0.1,0.4-0.4,0.4h-2.8c-0.4,0-0.4-0.2-0.4-0.4l0.1-0.5c-0.9,0.8-1.7,1.1-3.2,1.1
			c-2.1,0-3.4-1.3-3.4-3.6c0-0.6,0-1,0.1-1.3l0.3-1.8c0.7-4.2,3.2-5.2,6.3-5.2c1.5,0,3,0.2,4.5,0.5
			C648.1,196,648.4,196.1,648.3,196.6z M642.7,199c-0.8,0-1.3,0.3-1.5,1.6l-0.4,1.9c0,0.2-0.1,0.4-0.1,0.6c0,0.6,0.3,0.7,0.8,0.7
			c0.4,0,0.9-0.2,1.2-0.3l0.8-4.4C643.2,199,642.9,199,642.7,199z"/>
		<path class="st1" d="M661,192c0.2,0,0.4,0.1,0.4,0.4l-2.4,13.8c-0.1,0.3-0.2,0.5-0.9,0.7c-1,0.2-2.7,0.5-4.7,0.5
			c-2.8,0-4.5-1.8-4.5-4.2c0-0.3,0-0.6,0.1-1l0.3-1.5c0.7-3.7,2.7-5.2,6.1-5.2c0.4,0,1,0.1,1.2,0.1l0.6-3.2c0-0.2,0.1-0.4,0.4-0.4
			H661z M654.9,199c-0.8,0-1.1,0.5-1.3,1.6l-0.3,1.5c-0.1,0.3-0.1,0.5-0.1,0.7c0,0.6,0.2,0.9,0.8,0.9c0.5,0,0.7,0,1.1-0.1l0.8-4.6
			C655.6,199.1,655.3,199,654.9,199z"/>
		<path class="st1" d="M672.2,200.9l-0.2,1.2c0,0.2-0.3,0.4-0.5,0.4h-5.9c0,0.2,0,0.3,0,0.4c0,0.6,0.4,0.8,1.5,0.8
			c0.8,0,3-0.1,3.7-0.1c0.3,0,0.4,0.1,0.4,0.4l-0.4,2c-0.1,0.3-0.2,0.4-0.5,0.6c-1.1,0.4-3,0.7-4.6,0.7c-2.5,0-4.4-1.4-4.4-4.1
			c0-0.4,0-0.8,0.1-1.2l0.2-1.2c0.7-4,3.1-5.5,6.4-5.5c3.1,0,4.3,1.8,4.3,4.1C672.3,200,672.2,200.5,672.2,200.9z M667.3,198.7
			c-0.8,0-1.2,0.5-1.4,1.6h2.2c0-0.3,0.1-0.5,0.1-0.7C668.3,199.1,668,198.7,667.3,198.7z"/>
		<path class="st1" d="M683,196.4l-0.4,2.5c0,0.3-0.1,0.5-0.5,0.4c-0.6-0.1-2.6-0.4-3.4-0.4c-0.2,0-0.4,0-0.4,0.2
			c0,0.2,0,0.2,0.4,0.4l1.5,0.8c1.7,0.9,1.9,1.9,1.9,3c0,2.8-2.3,3.9-5.7,3.9c-1.7,0-2.8-0.3-3.5-0.5c-0.3-0.1-0.3-0.2-0.3-0.4
			l0.4-2.4c0.1-0.3,0.2-0.5,0.6-0.4c1.3,0.2,2.6,0.4,3.3,0.4c0.3,0,0.8,0,0.8-0.4c0-0.1-0.1-0.2-0.4-0.4l-1.7-1
			c-1.1-0.6-1.7-1.5-1.7-2.8c0-3.1,2.5-3.9,5.2-3.9c1.4,0,2.8,0.3,3.6,0.5C682.9,196,683,196.1,683,196.4z"/>
	</g>
	<g>
		<path class="st1" d="M566.9,214.1c0.3,0,0.5,0.1,0.4,0.4l-0.4,2.4c0,0.2-0.1,0.4-0.5,0.4H565l-0.8,4.8c0,0.1,0,0.2,0,0.3
			c0,0.2,0.1,0.3,0.4,0.3h0.9c0.3,0,0.4,0.1,0.3,0.4l-0.4,2.1c0,0.2-0.1,0.4-0.5,0.4c-0.8,0.1-1.2,0.2-2.1,0.2
			c-1.4,0-3.1-0.6-3.1-2.8c0-0.3,0-0.6,0.1-1l0.8-4.7l-1.1-0.2c-0.2,0-0.4-0.1-0.4-0.4l0.4-2.2c0-0.2,0.2-0.4,0.5-0.4h1.1l0.3-1.6
			c0-0.2,0.1-0.4,0.5-0.4l3.5-0.6c0.4-0.1,0.5,0.1,0.5,0.4l-0.4,2.2H566.9z"/>
		<path class="st1" d="M578.2,219.4l-0.2,1.2c0,0.2-0.3,0.4-0.5,0.4h-5.9c0,0.2,0,0.3,0,0.4c0,0.6,0.4,0.8,1.5,0.8
			c0.8,0,3-0.1,3.7-0.1c0,0,0.1,0,0.1,0c0.2,0,0.3,0.1,0.3,0.3c0,0,0,0.1,0,0.1l-0.4,2c-0.1,0.3-0.2,0.4-0.5,0.6
			c-1.1,0.4-3,0.7-4.6,0.7c-2.5,0-4.4-1.4-4.4-4.1c0-0.4,0-0.8,0.1-1.2l0.2-1.2c0.7-4,3.1-5.5,6.4-5.5c3.1,0,4.3,1.8,4.3,4.2
			C578.3,218.5,578.3,219,578.2,219.4z M573.4,217.2c-0.8,0-1.2,0.5-1.4,1.6h2.2c0-0.3,0.1-0.5,0.1-0.7
			C574.3,217.6,574,217.2,573.4,217.2z M578.7,210.8l-2.9,2.3c-0.2,0.1-0.2,0.2-0.5,0.2h-3c-0.1,0-0.2,0-0.2-0.1
			c0-0.1,0-0.1,0.1-0.2l2.1-2.2c0.2-0.2,0.3-0.3,0.6-0.3h3.7c0.1,0,0.2,0.1,0.2,0.1C578.8,210.6,578.8,210.7,578.7,210.8z"/>
		<path class="st1" d="M588,214.3c0.2,0.1,0.4,0.1,0.3,0.4l-0.5,2.7c0,0.2-0.3,0.4-0.5,0.4h0c-0.6,0-1.3-0.1-2.1-0.1
			c-0.8,0-1.1,0.5-1.3,1.7l-0.2,1.3c-0.1,0.3-0.1,0.6-0.1,0.8c0,0.6,0.2,0.9,0.8,0.9c0.8,0,1.5-0.1,2.1-0.1c0.4,0,0.4,0.2,0.4,0.4
			l-0.5,2.7c0,0.2-0.2,0.3-0.5,0.4c-0.8,0.2-1.7,0.3-2.8,0.3c-2.7,0-3.9-1.7-3.9-4c0-0.4,0-0.8,0.1-1.3l0.2-1.3
			c0.6-3.6,2.5-5.3,5.7-5.3C586.4,214,587.5,214.1,588,214.3z"/>
		<path class="st1" d="M600.1,218.5l-1.2,6.7c0,0.2-0.1,0.4-0.5,0.4h-3.5c-0.3,0-0.4-0.1-0.4-0.4l1.2-6.7c0-0.1,0-0.2,0-0.4
			c0-0.4-0.4-0.6-0.8-0.6c-0.4,0-0.7,0.1-1.1,0.3l-1.3,7.4c0,0.2-0.1,0.4-0.5,0.4h-3.5c-0.2,0-0.4-0.1-0.4-0.4l1.9-10.7
			c0-0.2,0.2-0.4,0.4-0.4h3.2c0.3,0,0.4,0.2,0.3,0.4l-0.1,0.5c1-0.7,1.9-1.1,3.3-1.1c2.4,0,3,1.5,3,3.2
			C600.2,217.6,600.1,218,600.1,218.5z"/>
		<path class="st1" d="M600.9,225.2l1.9-10.7c0-0.2,0.2-0.4,0.5-0.4h3.5c0.4,0,0.4,0.2,0.3,0.4l-1.9,10.7c0,0.2-0.2,0.4-0.5,0.4
			h-3.5C601,225.6,600.8,225.4,600.9,225.2z M607.5,210.5c0.2,0,0.4,0.1,0.4,0.4l-0.4,2c0,0.2-0.2,0.4-0.5,0.4h-3.7
			c-0.4,0-0.4-0.2-0.4-0.4l0.3-2c0-0.2,0.2-0.4,0.5-0.4H607.5z"/>
		<path class="st1" d="M616.4,214.3c0.2,0.1,0.4,0.1,0.3,0.4l-0.5,2.7c0,0.2-0.3,0.4-0.5,0.4h0c-0.6,0-1.3-0.1-2.1-0.1
			c-0.8,0-1.1,0.5-1.3,1.7l-0.2,1.3c-0.1,0.3-0.1,0.6-0.1,0.8c0,0.6,0.2,0.9,0.8,0.9c0.8,0,1.5-0.1,2.1-0.1c0.4,0,0.4,0.2,0.4,0.4
			l-0.5,2.7c0,0.2-0.2,0.3-0.5,0.4c-0.8,0.2-1.7,0.3-2.8,0.3c-2.7,0-3.9-1.7-3.9-4c0-0.4,0-0.8,0.1-1.3l0.2-1.3
			c0.6-3.6,2.5-5.3,5.7-5.3C614.8,214,615.8,214.1,616.4,214.3z"/>
		<path class="st1" d="M628.8,215.1l-1.8,10.2c0,0.2-0.1,0.4-0.4,0.4h-2.8c-0.4,0-0.4-0.2-0.4-0.4l0.1-0.5c-0.9,0.8-1.7,1.1-3.2,1.1
			c-2.1,0-3.4-1.3-3.4-3.6c0-0.6,0-1,0.1-1.3l0.3-1.8c0.7-4.2,3.2-5.2,6.3-5.2c1.5,0,3,0.2,4.5,0.5
			C628.6,214.5,628.9,214.6,628.8,215.1z M623.2,217.5c-0.8,0-1.3,0.3-1.5,1.6l-0.4,1.9c0,0.2-0.1,0.4-0.1,0.6
			c0,0.6,0.3,0.7,0.8,0.7c0.4,0,0.9-0.2,1.2-0.3l0.8-4.4C623.7,217.6,623.5,217.5,623.2,217.5z"/>
		<path class="st1" d="M639.3,214.9l-0.4,2.5c0,0.3-0.1,0.5-0.5,0.4c-0.6-0.1-2.6-0.4-3.4-0.4c-0.2,0-0.4,0-0.4,0.2
			c0,0.2,0,0.2,0.4,0.4l1.5,0.8c1.7,0.9,1.9,1.9,1.9,3c0,2.8-2.3,3.9-5.7,3.9c-1.7,0-2.8-0.3-3.5-0.5c-0.3-0.1-0.3-0.2-0.3-0.4
			l0.4-2.4c0.1-0.3,0.2-0.5,0.6-0.4c1.3,0.2,2.6,0.4,3.3,0.4c0.3,0,0.8,0,0.8-0.4c0-0.1-0.1-0.2-0.4-0.4l-1.7-1
			c-1.1-0.6-1.7-1.5-1.7-2.8c0-3.1,2.5-3.9,5.2-3.9c1.4,0,2.8,0.3,3.6,0.5C639.3,214.6,639.4,214.6,639.3,214.9z"/>
		<path class="st1" d="M656.6,210.5c0.2,0,0.4,0.1,0.4,0.4l-2.4,13.8c-0.1,0.3-0.2,0.5-0.9,0.7c-1,0.2-2.7,0.5-4.7,0.5
			c-2.8,0-4.5-1.8-4.5-4.2c0-0.3,0-0.6,0.1-1l0.3-1.5c0.7-3.7,2.7-5.2,6.1-5.2c0.4,0,1,0.1,1.2,0.1l0.6-3.2c0-0.2,0.1-0.4,0.4-0.4
			H656.6z M650.4,217.5c-0.8,0-1.1,0.5-1.3,1.6l-0.3,1.5c-0.1,0.3-0.1,0.5-0.1,0.7c0,0.6,0.2,0.9,0.8,0.9c0.5,0,0.7,0,1.1-0.1
			l0.8-4.6C651.2,217.6,650.9,217.5,650.4,217.5z"/>
		<path class="st1" d="M667.7,219.4l-0.2,1.2c0,0.2-0.3,0.4-0.5,0.4h-5.9c0,0.2,0,0.3,0,0.4c0,0.6,0.4,0.8,1.5,0.8
			c0.8,0,3-0.1,3.7-0.1c0.3,0,0.4,0.1,0.4,0.4l-0.4,2c-0.1,0.3-0.2,0.4-0.5,0.6c-1.1,0.4-3,0.7-4.6,0.7c-2.5,0-4.4-1.4-4.4-4.1
			c0-0.4,0-0.8,0.1-1.2l0.2-1.2c0.7-4,3.1-5.5,6.4-5.5c3.1,0,4.3,1.8,4.3,4.2C667.8,218.5,667.8,219,667.7,219.4z M662.9,217.2
			c-0.8,0-1.2,0.5-1.4,1.6h2.2c0-0.3,0.1-0.5,0.1-0.7C663.8,217.6,663.6,217.2,662.9,217.2z"/>
		<path class="st1" d="M679.8,210.9l-2.5,14.3c0,0.2-0.1,0.4-0.5,0.4h-3.5c-0.2,0-0.4-0.1-0.4-0.4l2.5-14.3c0-0.2,0.2-0.4,0.5-0.4
			h3.5C679.7,210.5,679.8,210.6,679.8,210.9z"/>
		<path class="st1" d="M691.5,215.1l-1.8,10.2c0,0.2-0.1,0.4-0.4,0.4h-2.8c-0.4,0-0.4-0.2-0.4-0.4l0.1-0.5c-0.9,0.8-1.7,1.1-3.2,1.1
			c-2.1,0-3.4-1.3-3.4-3.6c0-0.6,0-1,0.1-1.3l0.3-1.8c0.7-4.2,3.2-5.2,6.3-5.2c1.5,0,3,0.2,4.5,0.5
			C691.3,214.5,691.6,214.6,691.5,215.1z M685.9,217.5c-0.8,0-1.3,0.3-1.5,1.6L684,221c0,0.2-0.1,0.4-0.1,0.6c0,0.6,0.3,0.7,0.8,0.7
			c0.4,0,0.9-0.2,1.2-0.3l0.8-4.4C686.4,217.6,686.1,217.5,685.9,217.5z"/>
	</g>
	<g>
		<path class="st1" d="M579.7,243.7l1.9-10.7c0-0.2,0.2-0.4,0.5-0.4h3.5c0.4,0,0.4,0.2,0.4,0.4l-1.9,10.7c0,0.2-0.2,0.4-0.5,0.4H580
			C579.8,244.2,579.6,244,579.7,243.7z M586.3,229c0.2,0,0.4,0.1,0.4,0.4l-0.4,2c0,0.2-0.2,0.4-0.5,0.4h-3.7c-0.4,0-0.4-0.2-0.4-0.4
			l0.4-2c0-0.2,0.2-0.4,0.5-0.4H586.3z"/>
		<path class="st1" d="M598,237l-1.2,6.7c0,0.2-0.1,0.4-0.5,0.4h-3.5c-0.3,0-0.4-0.1-0.3-0.4l1.2-6.7c0-0.1,0-0.2,0-0.4
			c0-0.4-0.4-0.6-0.8-0.6c-0.4,0-0.7,0.1-1.1,0.3l-1.3,7.4c0,0.2-0.1,0.4-0.5,0.4h-3.5c-0.2,0-0.4-0.1-0.4-0.4l1.9-10.7
			c0-0.2,0.2-0.4,0.4-0.4h3.2c0.3,0,0.4,0.2,0.3,0.4l-0.1,0.5c1-0.7,1.9-1.1,3.3-1.1c2.4,0,3,1.5,3,3.2
			C598.1,236.1,598,236.5,598,237z"/>
		<path class="st1" d="M611.3,229c0.2,0,0.4,0.1,0.4,0.4l-2.4,13.8c-0.1,0.3-0.2,0.5-0.9,0.7c-1,0.2-2.7,0.5-4.7,0.5
			c-2.8,0-4.5-1.8-4.5-4.2c0-0.3,0-0.6,0.1-1l0.3-1.5c0.7-3.7,2.7-5.2,6.1-5.2c0.4,0,1,0.1,1.2,0.1l0.6-3.2c0-0.2,0.1-0.4,0.4-0.4
			H611.3z M605.1,236.1c-0.8,0-1.1,0.5-1.3,1.6l-0.3,1.5c-0.1,0.3-0.1,0.5-0.1,0.7c0,0.6,0.2,0.9,0.8,0.9c0.5,0,0.7,0,1.1-0.1
			l0.8-4.6C605.9,236.1,605.6,236.1,605.1,236.1z"/>
		<path class="st1" d="M623.7,233.1l-1.9,10.7c0,0.2-0.1,0.4-0.4,0.4h-3.2c-0.2,0-0.4-0.1-0.3-0.4l0.1-0.5c-0.9,0.6-1.7,1.1-3.2,1.1
			c-2.2,0-3-1.5-3-3.3c0-0.4,0-0.8,0.1-1.2l1.2-6.7c0-0.2,0.3-0.4,0.5-0.4h3.5c0.3,0,0.4,0.1,0.4,0.4l-1.1,6.4
			c0,0.2-0.1,0.5-0.1,0.6c0,0.5,0.4,0.7,0.8,0.7c0.4,0,0.7-0.1,1.1-0.3l1.3-7.4c0-0.2,0.1-0.4,0.5-0.4h3.5
			C623.6,232.7,623.8,232.7,623.7,233.1z"/>
		<path class="st1" d="M634.1,233.4l-0.4,2.5c0,0.3-0.1,0.5-0.5,0.4c-0.6-0.1-2.6-0.4-3.4-0.4c-0.2,0-0.4,0-0.4,0.2
			c0,0.2,0,0.2,0.4,0.4l1.5,0.8c1.7,0.9,1.9,1.9,1.9,3c0,2.8-2.3,3.9-5.7,3.9c-1.7,0-2.8-0.3-3.5-0.5c-0.3-0.1-0.3-0.2-0.3-0.4
			l0.4-2.4c0.1-0.3,0.2-0.5,0.6-0.4c1.3,0.2,2.6,0.4,3.3,0.4c0.3,0,0.8,0,0.8-0.4c0-0.1-0.1-0.2-0.4-0.4l-1.7-1
			c-1.1-0.6-1.7-1.5-1.7-2.8c0-3.1,2.5-3.9,5.2-3.9c1.4,0,2.8,0.3,3.6,0.5C634.1,233.1,634.2,233.1,634.1,233.4z"/>
		<path class="st1" d="M642.9,232.7c0.3,0,0.5,0.1,0.4,0.4l-0.4,2.4c0,0.2-0.1,0.4-0.5,0.4H641l-0.8,4.8c0,0.1,0,0.2,0,0.3
			c0,0.2,0.1,0.3,0.4,0.3h0.9c0.3,0,0.4,0.1,0.3,0.4l-0.4,2.1c0,0.2-0.1,0.4-0.5,0.4c-0.8,0.1-1.2,0.2-2.1,0.2
			c-1.4,0-3.1-0.6-3.1-2.8c0-0.3,0-0.6,0.1-1l0.8-4.7l-1.1-0.2c-0.2,0-0.4-0.1-0.4-0.4l0.4-2.2c0-0.2,0.2-0.4,0.5-0.4h1.1l0.3-1.6
			c0-0.2,0.1-0.4,0.5-0.4l3.5-0.6c0.4-0.1,0.5,0.1,0.5,0.4l-0.4,2.2H642.9z"/>
		<path class="st1" d="M651.5,232.5c0.3,0,0.5,0.1,0.4,0.4l-0.5,2.7c0,0.2-0.1,0.4-0.4,0.4h-0.1c-1.2,0-1.8,0.1-2.3,0.3l-1.3,7.4
			c0,0.2-0.1,0.4-0.5,0.4h-3.5c-0.2,0-0.4-0.1-0.4-0.4l1.9-10.7c0-0.2,0.1-0.4,0.4-0.4h3.1c0.2,0,0.4,0.1,0.3,0.4l-0.1,0.6
			c0.8-0.9,1.9-1.2,2.8-1.2H651.5z"/>
		<path class="st1" d="M651.5,243.7l1.9-10.7c0-0.2,0.2-0.4,0.5-0.4h3.5c0.4,0,0.4,0.2,0.3,0.4l-1.9,10.7c0,0.2-0.2,0.4-0.5,0.4
			h-3.5C651.7,244.2,651.5,244,651.5,243.7z M658.1,229c0.2,0,0.4,0.1,0.4,0.4l-0.4,2c0,0.2-0.2,0.4-0.5,0.4H654
			c-0.4,0-0.4-0.2-0.4-0.4l0.4-2c0-0.2,0.2-0.4,0.5-0.4H658.1z"/>
		<path class="st1" d="M670.2,233.6l-1.8,10.2c0,0.2-0.1,0.4-0.4,0.4h-2.8c-0.4,0-0.4-0.2-0.4-0.4l0.1-0.5c-0.9,0.8-1.7,1.1-3.2,1.1
			c-2.1,0-3.4-1.3-3.4-3.6c0-0.6,0-1,0.1-1.3l0.3-1.8c0.7-4.2,3.2-5.2,6.3-5.2c1.5,0,3,0.2,4.5,0.5C670,233,670.3,233.1,670.2,233.6
			z M664.6,236.1c-0.8,0-1.3,0.3-1.5,1.6l-0.4,1.9c0,0.2-0.1,0.4-0.1,0.6c0,0.6,0.3,0.7,0.8,0.7c0.4,0,0.9-0.2,1.2-0.3l0.8-4.4
			C665.1,236.1,664.8,236.1,664.6,236.1z"/>
	</g>
	<g>
		<path class="st1" d="M583.1,304.3l-0.5,2.9c0,0.2-0.1,0.4-0.5,0.4h-3.9c-0.5,0-0.6,0.1-0.7,0.6l-0.2,1.1h4.6
			c0.2,0,0.4,0.1,0.3,0.4l-0.5,2.7c0,0.2-0.3,0.4-0.5,0.4h-4.6l-0.2,1c-0.1,0.3-0.1,0.4-0.1,0.5c0,0.3,0.2,0.4,0.6,0.4h3.9
			c0.2,0,0.4,0.1,0.3,0.4l-0.5,2.9c0,0.2-0.1,0.3-0.5,0.4c-0.8,0.1-2.3,0.2-4,0.2c-2.4,0-4.5-0.8-4.5-3.5c0-0.3,0-0.7,0.1-1.1l1-5.7
			c0.8-4.4,3.6-4.6,6-4.6c1.7,0,3.1,0.1,3.9,0.2C583,303.9,583.1,304.1,583.1,304.3z"/>
		<path class="st1" d="M595.9,307.3l-4.2,5.5l2.6,5.2c0.1,0.2,0,0.4-0.3,0.4h-4c-0.3,0-0.4-0.1-0.6-0.4l-1.1-2.3l-1.6,2.3
			c-0.1,0.2-0.3,0.4-0.5,0.4h-3.8c-0.2,0-0.3-0.3-0.1-0.4l4.3-5.7l-2.4-4.9c-0.2-0.4,0-0.5,0.2-0.5h3.9c0.5,0,0.6,0.2,0.7,0.4l1,2.2
			l1.5-2.2c0.2-0.3,0.3-0.4,0.8-0.4h3.6C596,306.9,596.1,307.1,595.9,307.3z"/>
		<path class="st1" d="M607,307.8l-1.8,10.2c0,0.2-0.1,0.4-0.4,0.4h-2.8c-0.4,0-0.4-0.2-0.4-0.4l0.1-0.5c-0.9,0.8-1.7,1.1-3.2,1.1
			c-2.1,0-3.4-1.3-3.4-3.6c0-0.6,0-1,0.1-1.3l0.3-1.8c0.7-4.2,3.2-5.2,6.3-5.2c1.5,0,3,0.2,4.5,0.5
			C606.8,307.2,607.1,307.4,607,307.8z M601.4,310.3c-0.8,0-1.3,0.3-1.5,1.6l-0.4,1.9c0,0.2-0.1,0.4-0.1,0.6c0,0.6,0.3,0.7,0.8,0.7
			c0.4,0,0.9-0.2,1.2-0.3l0.8-4.4C602,310.3,601.7,310.3,601.4,310.3z"/>
		<path class="st1" d="M624.5,311.3l-1.2,6.7c0,0.2-0.2,0.4-0.5,0.4h-3.5c-0.3,0-0.4-0.2-0.4-0.4l1.2-6.7c0-0.1,0-0.2,0-0.3
			c0-0.4-0.2-0.5-0.6-0.5c-0.3,0-0.5,0-0.9,0.1c0,0.3,0,0.4-0.1,0.7l-1.2,6.7c0,0.2-0.1,0.4-0.5,0.4h-3.5c-0.3,0-0.4-0.2-0.4-0.4
			l1.2-6.7c0-0.1,0-0.2,0-0.3c0-0.4-0.2-0.5-0.6-0.5c-0.3,0-0.6,0-0.9,0.1l-1.3,7.4c0,0.2-0.1,0.4-0.5,0.4h-3.5
			c-0.2,0-0.4-0.1-0.4-0.4l1.9-10.7c0-0.2,0.1-0.4,0.4-0.4h3.2c0.3,0,0.4,0.2,0.3,0.4l-0.1,0.6c1.2-1,2.3-1.2,3.4-1.2
			c1,0,1.8,0.3,2.2,1.2c1-0.8,2.2-1.2,3.3-1.2c2,0,2.9,1.2,2.9,3.2C624.7,310.3,624.6,310.8,624.5,311.3z"/>
		<path class="st1" d="M636.6,312.2l-0.2,1.2c0,0.2-0.3,0.4-0.5,0.4h-5.9c0,0.2,0,0.3,0,0.4c0,0.6,0.4,0.8,1.5,0.8
			c0.8,0,3-0.1,3.7-0.1c0.3,0,0.4,0.1,0.4,0.4l-0.4,2c-0.1,0.3-0.2,0.4-0.5,0.6c-1.1,0.4-3,0.7-4.6,0.7c-2.5,0-4.4-1.4-4.4-4.1
			c0-0.4,0-0.8,0.1-1.2l0.2-1.2c0.7-4,3.1-5.5,6.4-5.5c3.1,0,4.3,1.8,4.3,4.2C636.8,311.3,636.7,311.7,636.6,312.2z M631.8,310
			c-0.8,0-1.2,0.5-1.4,1.6h2.2c0-0.3,0.1-0.5,0.1-0.7C632.7,310.3,632.5,310,631.8,310z"/>
		<path class="st1" d="M649.2,311.2L648,318c0,0.2-0.1,0.4-0.5,0.4h-3.5c-0.3,0-0.4-0.1-0.4-0.4l1.2-6.7c0-0.1,0-0.2,0-0.3
			c0-0.4-0.4-0.6-0.8-0.6c-0.4,0-0.7,0.1-1.1,0.3l-1.3,7.4c0,0.2-0.1,0.4-0.5,0.4h-3.5c-0.2,0-0.4-0.1-0.4-0.4l1.9-10.7
			c0-0.2,0.2-0.4,0.4-0.4h3.2c0.3,0,0.4,0.2,0.3,0.4l-0.1,0.5c1-0.7,1.9-1.1,3.3-1.1c2.4,0,3,1.5,3,3.2
			C649.4,310.3,649.3,310.8,649.2,311.2z"/>
		<path class="st1" d="M667.1,303.2c0.2,0,0.4,0.1,0.4,0.4l-2.4,13.8c-0.1,0.3-0.2,0.5-0.9,0.7c-1,0.2-2.7,0.5-4.7,0.5
			c-2.8,0-4.5-1.8-4.5-4.2c0-0.3,0-0.6,0.1-1l0.3-1.5c0.7-3.7,2.7-5.2,6.1-5.2c0.4,0,1,0.1,1.2,0.1l0.6-3.2c0-0.2,0.1-0.4,0.4-0.4
			H667.1z M660.9,310.3c-0.8,0-1.1,0.5-1.3,1.6l-0.3,1.5c-0.1,0.3-0.1,0.5-0.1,0.7c0,0.6,0.2,0.9,0.8,0.9c0.5,0,0.7,0,1.1-0.1
			l0.8-4.6C661.6,310.3,661.3,310.3,660.9,310.3z"/>
		<path class="st1" d="M678.2,312.2l-0.2,1.2c0,0.2-0.3,0.4-0.5,0.4h-5.9c0,0.2,0,0.3,0,0.4c0,0.6,0.4,0.8,1.5,0.8
			c0.8,0,3-0.1,3.7-0.1c0.3,0,0.4,0.1,0.4,0.4l-0.4,2c-0.1,0.3-0.2,0.4-0.5,0.6c-1.1,0.4-3,0.7-4.6,0.7c-2.5,0-4.4-1.4-4.4-4.1
			c0-0.4,0-0.8,0.1-1.2l0.2-1.2c0.7-4,3.1-5.5,6.4-5.5c3.1,0,4.3,1.8,4.3,4.2C678.3,311.3,678.3,311.7,678.2,312.2z M673.4,310
			c-0.8,0-1.2,0.5-1.4,1.6h2.2c0-0.3,0.1-0.5,0.1-0.7C674.3,310.3,674,310,673.4,310z"/>
	</g>
	<g>
		<path class="st1" d="M573.4,325.5c0.2,0.1,0.4,0.1,0.3,0.4l-0.5,2.7c0,0.2-0.3,0.4-0.5,0.4h0c-0.6,0-1.3-0.1-2.1-0.1
			c-0.8,0-1.1,0.5-1.3,1.7l-0.2,1.3c-0.1,0.3-0.1,0.6-0.1,0.8c0,0.6,0.2,0.9,0.8,0.9c0.8,0,1.5-0.1,2.1-0.1c0.4,0,0.4,0.2,0.4,0.4
			l-0.5,2.7c0,0.2-0.2,0.3-0.5,0.4c-0.8,0.2-1.7,0.3-2.8,0.3c-2.7,0-3.9-1.7-3.9-4c0-0.4,0-0.8,0.1-1.3l0.2-1.3
			c0.6-3.6,2.5-5.3,5.7-5.3C571.9,325.2,572.9,325.4,573.4,325.5z"/>
		<path class="st1" d="M584.6,330.7l-0.2,1.2c0,0.2-0.3,0.4-0.5,0.4H578c0,0.2,0,0.3,0,0.4c0,0.6,0.4,0.8,1.5,0.8
			c0.8,0,3-0.1,3.7-0.1c0.3,0,0.4,0.1,0.4,0.3l-0.4,2c-0.1,0.3-0.2,0.4-0.5,0.6c-1.1,0.4-3,0.7-4.6,0.7c-2.5,0-4.4-1.4-4.4-4.1
			c0-0.4,0-0.8,0.1-1.2l0.2-1.2c0.7-4,3.1-5.5,6.4-5.5c3.1,0,4.3,1.8,4.3,4.2C584.7,329.8,584.7,330.2,584.6,330.7z M579.8,328.5
			c-0.8,0-1.2,0.5-1.4,1.6h2.2c0-0.3,0.1-0.5,0.1-0.7C580.7,328.8,580.4,328.5,579.8,328.5z"/>
		<path class="st1" d="M593.8,325.2c0.3,0,0.5,0.1,0.4,0.4l-0.5,2.7c0,0.2-0.1,0.4-0.4,0.4h-0.1c-1.2,0-1.8,0.1-2.3,0.3l-1.3,7.4
			c0,0.2-0.1,0.4-0.5,0.4h-3.5c-0.2,0-0.4-0.1-0.4-0.4l1.9-10.7c0-0.2,0.1-0.4,0.4-0.4h3.1c0.2,0,0.4,0.1,0.3,0.4l-0.1,0.6
			c0.8-0.9,1.9-1.2,2.8-1.2H593.8z"/>
		<path class="st1" d="M602.4,325.4c0.3,0,0.5,0.1,0.4,0.4l-0.4,2.4c0,0.2-0.1,0.4-0.5,0.4h-1.4l-0.8,4.8c0,0.1,0,0.2,0,0.3
			c0,0.2,0.1,0.3,0.3,0.3h0.9c0.3,0,0.4,0.1,0.3,0.4l-0.4,2.1c0,0.2-0.1,0.4-0.5,0.4c-0.8,0.1-1.2,0.2-2.1,0.2
			c-1.4,0-3.1-0.6-3.1-2.8c0-0.3,0-0.6,0.1-1l0.8-4.7l-1.1-0.2c-0.2,0-0.4-0.1-0.4-0.4l0.4-2.2c0-0.2,0.2-0.4,0.5-0.4h1.1l0.3-1.6
			c0-0.2,0.1-0.3,0.5-0.4l3.5-0.6c0.4-0.1,0.5,0.1,0.5,0.4l-0.4,2.2H602.4z"/>
		<path class="st1" d="M602.4,336.5l1.9-10.7c0-0.2,0.2-0.4,0.5-0.4h3.5c0.4,0,0.4,0.2,0.3,0.4l-1.9,10.7c0,0.2-0.2,0.4-0.5,0.4
			h-3.5C602.6,336.9,602.4,336.7,602.4,336.5z M609,321.7c0.2,0,0.4,0.1,0.4,0.4l-0.4,2c0,0.2-0.2,0.4-0.5,0.4h-3.7
			c-0.4,0-0.4-0.2-0.4-0.4l0.3-2c0-0.2,0.2-0.4,0.5-0.4H609z"/>
		<path class="st1" d="M617.2,336.5l1.4-7.9h-3.1l-1.4,8.1c-0.6,3.2-2,3.8-4.4,3.8c-0.5,0-1.3-0.1-1.8-0.2c-0.3-0.1-0.4-0.2-0.3-0.4
			l0.4-2.1c0-0.2,0.1-0.4,0.5-0.4h0.6c0.5,0,0.6,0,0.8-0.7l1.4-8.1l-1.2-0.2c-0.2,0-0.4-0.1-0.4-0.4l0.4-2.2c0-0.2,0.2-0.4,0.5-0.4
			h1.3l0-0.3c0.5-3.2,2-3.8,4.4-3.8c0.5,0,1.4,0.1,1.9,0.2c0.4,0.1,0.4,0.2,0.3,0.4l-0.4,2.1c0,0.2-0.1,0.4-0.5,0.4h-0.7
			c-0.5,0-0.6,0-0.8,0.7l0,0.2h7c0.4,0,0.4,0.2,0.4,0.4l-1.9,10.7c0,0.2-0.2,0.4-0.5,0.4h-3.5C617.3,336.9,617.1,336.7,617.2,336.5z
			 M623.8,321.7c0.2,0,0.4,0.1,0.4,0.4l-0.4,2c0,0.2-0.2,0.4-0.5,0.4h-3.7c-0.3,0-0.4-0.2-0.4-0.4l0.4-2c0-0.2,0.2-0.4,0.5-0.4
			H623.8z"/>
		<path class="st1" d="M632.6,325.5c0.2,0.1,0.4,0.1,0.3,0.4l-0.5,2.7c0,0.2-0.3,0.4-0.5,0.4h0c-0.6,0-1.3-0.1-2.1-0.1
			c-0.8,0-1.1,0.5-1.3,1.7l-0.2,1.3c-0.1,0.3-0.1,0.6-0.1,0.8c0,0.6,0.2,0.9,0.8,0.9c0.8,0,1.5-0.1,2.1-0.1c0.4,0,0.4,0.2,0.4,0.4
			l-0.5,2.7c0,0.2-0.2,0.3-0.5,0.4c-0.8,0.2-1.7,0.3-2.8,0.3c-2.7,0-3.9-1.7-3.9-4c0-0.4,0-0.8,0.1-1.3l0.2-1.3
			c0.6-3.6,2.5-5.3,5.7-5.3C631.1,325.2,632.1,325.4,632.6,325.5z"/>
		<path class="st1" d="M645.1,326.4l-1.8,10.2c0,0.2-0.1,0.4-0.4,0.4h-2.8c-0.4,0-0.4-0.2-0.4-0.4l0.1-0.5c-0.9,0.8-1.7,1.1-3.2,1.1
			c-2.1,0-3.4-1.3-3.4-3.6c0-0.6,0-1,0.1-1.3l0.3-1.8c0.7-4.2,3.2-5.2,6.3-5.2c1.5,0,3,0.2,4.5,0.5
			C644.9,325.8,645.2,325.9,645.1,326.4z M639.5,328.8c-0.8,0-1.3,0.3-1.5,1.6l-0.4,1.9c0,0.2-0.1,0.4-0.1,0.6
			c0,0.6,0.3,0.7,0.8,0.7c0.4,0,0.9-0.2,1.2-0.3l0.8-4.4C640,328.8,639.7,328.8,639.5,328.8z"/>
		<path class="st1" d="M654.4,325.5c0.2,0.1,0.4,0.1,0.3,0.4l-0.5,2.7c0,0.2-0.3,0.4-0.5,0.4h0c-0.6,0-1.3-0.1-2.1-0.1
			c-0.8,0-1.1,0.5-1.3,1.7l-0.2,1.3c-0.1,0.3-0.1,0.6-0.1,0.8c0,0.6,0.2,0.9,0.8,0.9c0.8,0,1.5-0.1,2.1-0.1c0.4,0,0.4,0.2,0.4,0.4
			l-0.5,2.7c0,0.2-0.2,0.3-0.5,0.4c-0.8,0.2-1.7,0.3-2.8,0.3c-2.7,0-3.9-1.7-3.9-4c0-0.4,0-0.8,0.1-1.3l0.2-1.3
			c0.6-3.6,2.5-5.3,5.7-5.3C652.9,325.2,653.9,325.4,654.4,325.5z"/>
		<path class="st1" d="M654.6,336.5l1.9-10.7c0-0.2,0.2-0.4,0.5-0.4h3.5c0.4,0,0.4,0.2,0.3,0.4l-1.9,10.7c0,0.2-0.2,0.4-0.5,0.4H655
			C654.7,336.9,654.6,336.7,654.6,336.5z M661.2,321.7c0.2,0,0.4,0.1,0.4,0.4l-0.4,2c0,0.2-0.2,0.4-0.5,0.4H657
			c-0.4,0-0.4-0.2-0.4-0.4l0.4-2c0-0.2,0.2-0.4,0.5-0.4H661.2z"/>
		<path class="st1" d="M672.4,330.7l-0.2,0.9c-0.7,4.1-3,5.5-6.3,5.5c-2.9,0-4.5-1.6-4.5-4.2c0-0.4,0-0.9,0.1-1.3l0.2-0.9
			c0.7-4.1,3-5.5,6.3-5.5c2.9,0,4.5,1.4,4.5,4.1C672.5,329.7,672.5,330.2,672.4,330.7z M667.4,328.8c-0.7,0-1.1,0.6-1.4,1.9
			l-0.2,0.9c-0.1,0.4-0.1,0.7-0.1,0.9c0,0.8,0.3,1,0.8,1c0.7,0,1.1-0.4,1.4-1.9l0.2-0.9c0.1-0.4,0.1-0.7,0.1-0.9
			C668.2,329,667.9,328.8,667.4,328.8z M672.5,322l-2.9,2.3c-0.2,0.1-0.2,0.2-0.5,0.2h-3c-0.1,0-0.2,0-0.2-0.1c0-0.1,0-0.1,0.1-0.2
			l2.1-2.2c0.2-0.2,0.3-0.3,0.6-0.3h3.7c0.1,0,0.2,0.1,0.2,0.1C672.6,321.9,672.5,322,672.5,322z"/>
		<path class="st1" d="M685,329.7l-1.2,6.7c0,0.2-0.1,0.4-0.5,0.4h-3.5c-0.3,0-0.4-0.1-0.4-0.4l1.2-6.7c0-0.1,0-0.2,0-0.4
			c0-0.4-0.4-0.6-0.8-0.6c-0.4,0-0.7,0.1-1.1,0.3l-1.3,7.4c0,0.2-0.1,0.4-0.5,0.4h-3.5c-0.2,0-0.4-0.1-0.4-0.4l1.9-10.7
			c0-0.2,0.2-0.4,0.4-0.4h3.2c0.3,0,0.4,0.2,0.3,0.4l-0.1,0.5c1-0.7,1.9-1.1,3.3-1.1c2.4,0,3,1.5,3,3.2
			C685.1,328.8,685.1,329.3,685,329.7z"/>
	</g>
	<g>
		<path class="st1" d="M558.7,355l1.9-10.7c0-0.2,0.2-0.4,0.5-0.4h3.5c0.4,0,0.4,0.2,0.4,0.4l-1.9,10.7c0,0.2-0.2,0.4-0.5,0.4h-3.5
			C558.8,355.4,558.7,355.2,558.7,355z M565.3,340.2c0.2,0,0.4,0.1,0.4,0.4l-0.4,2c0,0.2-0.2,0.4-0.5,0.4h-3.7
			c-0.3,0-0.4-0.2-0.4-0.4l0.4-2c0-0.2,0.2-0.4,0.5-0.4H565.3z"/>
		<path class="st1" d="M577,348.2l-1.2,6.7c0,0.2-0.1,0.4-0.5,0.4h-3.5c-0.3,0-0.4-0.1-0.4-0.4l1.2-6.7c0-0.1,0-0.2,0-0.3
			c0-0.4-0.3-0.6-0.8-0.6c-0.4,0-0.7,0.1-1.1,0.3l-1.3,7.4c0,0.2-0.1,0.4-0.5,0.4h-3.5c-0.2,0-0.4-0.1-0.4-0.4l1.9-10.7
			c0-0.2,0.2-0.4,0.4-0.4h3.2c0.3,0,0.4,0.2,0.3,0.4l-0.1,0.5c1-0.7,1.9-1.1,3.3-1.1c2.4,0,3,1.5,3,3.2
			C577.1,347.3,577.1,347.8,577,348.2z"/>
		<path class="st1" d="M586.3,343.9c0.3,0,0.5,0.1,0.4,0.4l-0.4,2.4c0,0.2-0.1,0.4-0.5,0.4h-1.4l-0.8,4.8c0,0.1,0,0.2,0,0.3
			c0,0.2,0.1,0.3,0.4,0.3h0.9c0.3,0,0.4,0.1,0.3,0.4l-0.4,2.1c0,0.2-0.1,0.4-0.5,0.4c-0.8,0.1-1.2,0.2-2.1,0.2
			c-1.4,0-3.1-0.6-3.1-2.8c0-0.3,0-0.6,0.1-1l0.8-4.7l-1.1-0.2c-0.2,0-0.4-0.1-0.3-0.4l0.4-2.2c0-0.2,0.2-0.4,0.5-0.4h1.1l0.3-1.6
			c0-0.2,0.1-0.4,0.5-0.4l3.5-0.6c0.4-0.1,0.5,0.1,0.5,0.4l-0.4,2.2H586.3z"/>
		<path class="st1" d="M597.6,349.2l-0.2,1.2c0,0.2-0.3,0.4-0.5,0.4h-5.9c0,0.2,0,0.3,0,0.4c0,0.6,0.4,0.8,1.5,0.8
			c0.8,0,3-0.1,3.7-0.1c0.3,0,0.4,0.1,0.4,0.4l-0.4,2c-0.1,0.3-0.2,0.4-0.5,0.6c-1.1,0.4-3,0.7-4.6,0.7c-2.5,0-4.4-1.4-4.4-4.1
			c0-0.4,0-0.8,0.1-1.2l0.2-1.2c0.7-4,3.1-5.5,6.4-5.5c3.1,0,4.3,1.8,4.3,4.2C597.8,348.3,597.7,348.7,597.6,349.2z M592.8,347
			c-0.8,0-1.2,0.5-1.4,1.6h2.2c0-0.3,0.1-0.5,0.1-0.7C593.7,347.3,593.5,347,592.8,347z"/>
		<path class="st1" d="M606.9,343.7c0.3,0,0.5,0.1,0.4,0.4l-0.5,2.7c0,0.2-0.1,0.4-0.4,0.4h-0.1c-1.2,0-1.8,0.1-2.3,0.3l-1.3,7.4
			c0,0.2-0.1,0.4-0.5,0.4h-3.5c-0.2,0-0.4-0.1-0.4-0.4l1.9-10.7c0-0.2,0.1-0.4,0.4-0.4h3.1c0.2,0,0.4,0.1,0.3,0.4l-0.1,0.6
			c0.8-0.9,1.9-1.2,2.8-1.2H606.9z"/>
		<path class="st1" d="M618.8,348.2l-1.2,6.7c0,0.2-0.1,0.4-0.5,0.4h-3.5c-0.3,0-0.4-0.1-0.4-0.4l1.2-6.7c0-0.1,0-0.2,0-0.3
			c0-0.4-0.4-0.6-0.8-0.6c-0.3,0-0.7,0.1-1.1,0.3l-1.3,7.4c0,0.2-0.1,0.4-0.5,0.4h-3.5c-0.2,0-0.4-0.1-0.4-0.4l1.9-10.7
			c0-0.2,0.2-0.4,0.4-0.4h3.2c0.3,0,0.4,0.2,0.3,0.4l-0.1,0.5c1-0.7,1.9-1.1,3.3-1.1c2.4,0,3,1.5,3,3.2
			C618.9,347.3,618.9,347.8,618.8,348.2z"/>
		<path class="st1" d="M631.9,344.9l-1.8,10.2c0,0.2-0.1,0.4-0.4,0.4h-2.8c-0.4,0-0.4-0.2-0.4-0.4l0.1-0.5c-0.9,0.8-1.7,1.1-3.2,1.1
			c-2.1,0-3.4-1.3-3.4-3.6c0-0.6,0-1,0.1-1.3l0.3-1.8c0.7-4.2,3.2-5.2,6.3-5.2c1.5,0,3,0.2,4.5,0.5
			C631.7,344.3,632,344.4,631.9,344.9z M626.3,347.3c-0.8,0-1.3,0.3-1.5,1.6l-0.4,1.9c0,0.2-0.1,0.4-0.1,0.6c0,0.6,0.3,0.7,0.8,0.7
			c0.4,0,0.9-0.2,1.2-0.3l0.8-4.4C626.8,347.3,626.5,347.3,626.3,347.3z"/>
		<path class="st1" d="M641.2,344.1c0.2,0.1,0.4,0.1,0.3,0.4l-0.5,2.7c0,0.2-0.3,0.4-0.5,0.4h0c-0.6,0-1.3-0.1-2.1-0.1
			c-0.8,0-1.1,0.5-1.3,1.7l-0.2,1.3c-0.1,0.3-0.1,0.6-0.1,0.8c0,0.6,0.2,0.9,0.8,0.9c0.8,0,1.5-0.1,2.1-0.1c0.4,0,0.4,0.2,0.4,0.4
			l-0.5,2.7c0,0.2-0.2,0.3-0.5,0.4c-0.8,0.2-1.7,0.3-2.8,0.3c-2.7,0-3.9-1.7-3.9-4c0-0.4,0-0.8,0.1-1.3l0.2-1.3
			c0.6-3.6,2.5-5.3,5.7-5.3C639.6,343.7,640.7,343.9,641.2,344.1z"/>
		<path class="st1" d="M641.4,355l1.9-10.7c0-0.2,0.2-0.4,0.5-0.4h3.5c0.4,0,0.4,0.2,0.3,0.4l-1.9,10.7c0,0.2-0.2,0.4-0.5,0.4h-3.5
			C641.5,355.4,641.3,355.2,641.4,355z M648,340.2c0.2,0,0.4,0.1,0.4,0.4l-0.4,2c0,0.2-0.2,0.4-0.5,0.4h-3.7c-0.4,0-0.4-0.2-0.4-0.4
			l0.4-2c0-0.2,0.2-0.4,0.5-0.4H648z"/>
		<path class="st1" d="M659.2,349.2l-0.2,0.9c-0.7,4.1-3,5.5-6.3,5.5c-2.9,0-4.5-1.6-4.5-4.2c0-0.4,0-0.9,0.1-1.3l0.2-0.9
			c0.7-4.1,3-5.5,6.3-5.5c2.9,0,4.5,1.4,4.5,4.1C659.3,348.3,659.3,348.7,659.2,349.2z M654.1,347.3c-0.7,0-1.1,0.6-1.4,1.9
			l-0.2,0.9c-0.1,0.4-0.1,0.7-0.1,0.9c0,0.8,0.3,1,0.8,1c0.7,0,1.1-0.4,1.4-1.9l0.2-0.9c0.1-0.4,0.1-0.7,0.1-0.9
			C654.9,347.5,654.7,347.3,654.1,347.3z"/>
		<path class="st1" d="M671.8,348.2l-1.2,6.7c0,0.2-0.1,0.4-0.5,0.4h-3.5c-0.3,0-0.4-0.1-0.4-0.4l1.2-6.7c0-0.1,0-0.2,0-0.3
			c0-0.4-0.4-0.6-0.8-0.6c-0.4,0-0.7,0.1-1.1,0.3l-1.3,7.4c0,0.2-0.1,0.4-0.5,0.4h-3.5c-0.2,0-0.4-0.1-0.4-0.4l1.9-10.7
			c0-0.2,0.2-0.4,0.4-0.4h3.2c0.3,0,0.4,0.2,0.3,0.4l-0.1,0.5c1-0.7,1.9-1.1,3.3-1.1c2.4,0,3,1.5,3,3.2
			C671.9,347.3,671.8,347.8,671.8,348.2z"/>
		<path class="st1" d="M684.9,344.9l-1.8,10.2c0,0.2-0.1,0.4-0.4,0.4h-2.8c-0.4,0-0.4-0.2-0.4-0.4l0.1-0.5c-0.9,0.8-1.7,1.1-3.2,1.1
			c-2.1,0-3.4-1.3-3.4-3.6c0-0.6,0-1,0.1-1.3l0.3-1.8c0.7-4.2,3.2-5.2,6.3-5.2c1.5,0,3,0.2,4.5,0.5
			C684.7,344.3,684.9,344.4,684.9,344.9z M679.2,347.3c-0.8,0-1.3,0.3-1.5,1.6l-0.4,1.9c0,0.2-0.1,0.4-0.1,0.6
			c0,0.6,0.3,0.7,0.8,0.7c0.4,0,0.9-0.2,1.2-0.3l0.8-4.4C679.8,347.3,679.5,347.3,679.2,347.3z"/>
		<path class="st1" d="M691.9,340.6l-2.5,14.3c0,0.2-0.1,0.4-0.5,0.4h-3.5c-0.2,0-0.4-0.1-0.4-0.4l2.5-14.3c0-0.2,0.2-0.4,0.5-0.4
			h3.5C691.8,340.2,692,340.4,691.9,340.6z"/>
	</g>
	<g>
		<path class="st1" d="M581.8,100.3c0,0.3-0.2,0.4-0.4,0.3c-0.6-0.1-1.7-0.2-2.6-0.2c-0.8,0-1.6,0.2-2,2.6l-0.3,1.6
			c-0.1,0.5-0.1,0.9-0.1,1.3c0,1.2,0.6,1.3,1.3,1.3c0.8,0,2-0.1,2.6-0.2c0.3,0,0.4,0.1,0.3,0.4l-0.5,3.1c0,0.3-0.1,0.3-0.5,0.4
			c-0.7,0.2-1.6,0.4-2.6,0.4c-3.6,0-5.3-1.9-5.3-4.9c0-0.6,0.1-1.1,0.2-1.8l0.3-1.6c0.9-4.9,3.2-6.6,7.3-6.6c1.1,0,2.1,0.2,2.6,0.4
			c0.2,0.1,0.4,0.2,0.4,0.4L581.8,100.3z"/>
	</g>
	<g>
		<path class="st1" d="M592.9,104.9l-0.2,1.2c0,0.2-0.3,0.4-0.5,0.4h-5.9c0,0.2,0,0.3,0,0.4c0,0.6,0.4,0.8,1.5,0.8
			c0.8,0,3-0.1,3.7-0.1c0.3,0,0.4,0.1,0.4,0.4l-0.4,2c-0.1,0.3-0.2,0.4-0.5,0.6c-1.1,0.4-3,0.7-4.6,0.7c-2.5,0-4.4-1.4-4.4-4.1
			c0-0.4,0-0.8,0.1-1.2l0.2-1.2c0.7-4,3.1-5.5,6.4-5.5c3.1,0,4.3,1.8,4.3,4.2C593,104,593,104.5,592.9,104.9z M588.1,102.7
			c-0.8,0-1.2,0.5-1.4,1.6h2.2c0-0.3,0.1-0.5,0.1-0.7C589,103.1,588.7,102.7,588.1,102.7z"/>
		<path class="st1" d="M602.1,99.4c0.3,0,0.5,0.1,0.4,0.4l-0.5,2.7c0,0.2-0.1,0.4-0.4,0.4h-0.1c-1.2,0-1.8,0.1-2.3,0.3l-1.3,7.4
			c0,0.2-0.1,0.4-0.5,0.4h-3.5c-0.2,0-0.4-0.1-0.4-0.4l1.9-10.7c0-0.2,0.1-0.4,0.4-0.4h3.1c0.2,0,0.4,0.1,0.3,0.4l-0.1,0.6
			c0.8-0.9,1.9-1.2,2.8-1.2H602.1z"/>
		<path class="st1" d="M610.7,99.6c0.3,0,0.5,0.1,0.4,0.4l-0.4,2.4c0,0.2-0.1,0.4-0.5,0.4h-1.4l-0.8,4.8c0,0.1,0,0.2,0,0.3
			c0,0.2,0.1,0.3,0.3,0.3h0.9c0.3,0,0.4,0.1,0.3,0.4l-0.4,2.1c0,0.2-0.1,0.4-0.5,0.4c-0.8,0.1-1.2,0.2-2.1,0.2
			c-1.4,0-3.1-0.6-3.1-2.8c0-0.3,0-0.6,0.1-1l0.8-4.7l-1.1-0.2c-0.2,0-0.4-0.1-0.4-0.4l0.4-2.2c0-0.2,0.2-0.4,0.5-0.4h1.1l0.3-1.6
			c0-0.2,0.1-0.4,0.5-0.4l3.5-0.6c0.4-0.1,0.5,0.1,0.5,0.4l-0.4,2.2H610.7z"/>
		<path class="st1" d="M610.7,110.7l1.9-10.7c0-0.2,0.2-0.4,0.5-0.4h3.5c0.4,0,0.4,0.2,0.3,0.4l-1.9,10.7c0,0.2-0.2,0.4-0.5,0.4
			h-3.5C610.9,111.1,610.7,110.9,610.7,110.7z M617.4,96c0.2,0,0.4,0.1,0.4,0.4l-0.4,2c0,0.2-0.2,0.4-0.5,0.4h-3.7
			c-0.4,0-0.4-0.2-0.4-0.4l0.3-2c0-0.2,0.2-0.4,0.5-0.4H617.4z"/>
		<path class="st1" d="M625.5,110.7l1.4-7.9h-3.1l-1.4,8.1c-0.6,3.2-2,3.8-4.4,3.8c-0.5,0-1.3-0.1-1.8-0.2c-0.3-0.1-0.4-0.2-0.3-0.4
			l0.4-2.1c0-0.2,0.1-0.4,0.5-0.4h0.6c0.5,0,0.6,0,0.8-0.7l1.4-8.1l-1.2-0.2c-0.2,0-0.4-0.1-0.4-0.4l0.4-2.2c0-0.2,0.2-0.4,0.5-0.4
			h1.3l0-0.3c0.5-3.2,2-3.8,4.4-3.8c0.5,0,1.4,0.1,1.9,0.2c0.4,0.1,0.4,0.2,0.3,0.4l-0.4,2.1c0,0.2-0.1,0.4-0.5,0.4h-0.7
			c-0.5,0-0.6,0-0.8,0.7l0,0.2h7c0.4,0,0.4,0.2,0.4,0.4l-1.9,10.7c0,0.2-0.2,0.4-0.5,0.4h-3.5C625.6,111.1,625.4,110.9,625.5,110.7z
			 M632.1,96c0.2,0,0.4,0.1,0.4,0.4l-0.4,2c0,0.2-0.2,0.4-0.5,0.4h-3.7c-0.4,0-0.4-0.2-0.4-0.4l0.4-2c0-0.2,0.2-0.4,0.5-0.4H632.1z"
			/>
		<path class="st1" d="M641,99.8c0.2,0.1,0.4,0.1,0.3,0.4l-0.5,2.7c0,0.2-0.3,0.4-0.5,0.4h0c-0.6,0-1.3-0.1-2.1-0.1
			c-0.8,0-1.1,0.5-1.3,1.7l-0.2,1.3c-0.1,0.3-0.1,0.6-0.1,0.8c0,0.6,0.2,0.9,0.8,0.9c0.8,0,1.5-0.1,2.1-0.1c0.4,0,0.4,0.2,0.4,0.4
			l-0.5,2.7c0,0.2-0.2,0.3-0.5,0.4c-0.8,0.2-1.7,0.3-2.8,0.3c-2.7,0-3.9-1.7-3.9-4c0-0.4,0-0.8,0.1-1.3l0.2-1.3
			c0.6-3.6,2.5-5.3,5.7-5.3C639.4,99.4,640.4,99.6,641,99.8z"/>
		<path class="st1" d="M653.4,100.6l-1.8,10.2c0,0.2-0.1,0.4-0.4,0.4h-2.8c-0.4,0-0.4-0.2-0.4-0.4l0.1-0.5c-0.9,0.8-1.7,1.1-3.2,1.1
			c-2.1,0-3.4-1.3-3.4-3.6c0-0.6,0-1,0.1-1.3l0.3-1.8c0.7-4.2,3.2-5.2,6.3-5.2c1.5,0,3,0.2,4.5,0.5
			C653.2,100,653.5,100.1,653.4,100.6z M647.8,103c-0.8,0-1.3,0.3-1.5,1.6l-0.4,1.9c0,0.2-0.1,0.4-0.1,0.6c0,0.6,0.3,0.7,0.8,0.7
			c0.4,0,0.9-0.2,1.2-0.3l0.8-4.4C648.3,103,648,103,647.8,103z"/>
		<path class="st1" d="M662.7,99.8c0.2,0.1,0.4,0.1,0.3,0.4l-0.5,2.7c0,0.2-0.3,0.4-0.5,0.4h0c-0.6,0-1.3-0.1-2.1-0.1
			c-0.8,0-1.1,0.5-1.3,1.7l-0.2,1.3c-0.1,0.3-0.1,0.6-0.1,0.8c0,0.6,0.2,0.9,0.8,0.9c0.8,0,1.5-0.1,2.1-0.1c0.4,0,0.4,0.2,0.4,0.4
			l-0.5,2.7c0,0.2-0.2,0.3-0.5,0.4c-0.8,0.2-1.7,0.3-2.8,0.3c-2.7,0-3.9-1.7-3.9-4c0-0.4,0-0.8,0.1-1.3l0.2-1.3
			c0.6-3.6,2.5-5.3,5.7-5.3C661.2,99.4,662.2,99.6,662.7,99.8z"/>
		<path class="st1" d="M662.9,110.7l1.9-10.7c0-0.2,0.2-0.4,0.5-0.4h3.5c0.4,0,0.4,0.2,0.3,0.4l-1.9,10.7c0,0.2-0.2,0.4-0.5,0.4
			h-3.5C663.1,111.1,662.9,110.9,662.9,110.7z M669.5,96c0.2,0,0.4,0.1,0.4,0.4l-0.4,2c0,0.2-0.2,0.4-0.5,0.4h-3.7
			c-0.4,0-0.4-0.2-0.4-0.4l0.4-2c0-0.2,0.2-0.4,0.5-0.4H669.5z"/>
		<path class="st1" d="M680.7,104.9l-0.2,0.9c-0.7,4.1-3,5.5-6.3,5.5c-2.9,0-4.5-1.6-4.5-4.2c0-0.4,0-0.9,0.1-1.3l0.2-0.9
			c0.7-4.1,3-5.5,6.3-5.5c2.9,0,4.5,1.4,4.5,4.1C680.8,104,680.8,104.4,680.7,104.9z M675.7,103c-0.7,0-1.1,0.6-1.4,1.9l-0.2,0.9
			c-0.1,0.4-0.1,0.7-0.1,0.9c0,0.8,0.3,1,0.8,1c0.7,0,1.1-0.4,1.4-1.9l0.2-0.9c0.1-0.4,0.1-0.7,0.1-0.9
			C676.5,103.3,676.2,103,675.7,103z M680.8,96.2l-2.9,2.3c-0.2,0.1-0.2,0.2-0.5,0.2h-3c-0.1,0-0.2,0-0.2-0.1c0-0.1,0-0.1,0.1-0.2
			l2.1-2.2c0.2-0.2,0.3-0.3,0.6-0.3h3.7c0.1,0,0.2,0.1,0.2,0.1C680.9,96.1,680.9,96.2,680.8,96.2z"/>
		<path class="st1" d="M693.3,104l-1.2,6.7c0,0.2-0.1,0.4-0.5,0.4h-3.5c-0.3,0-0.4-0.1-0.4-0.4l1.2-6.7c0-0.1,0-0.2,0-0.4
			c0-0.4-0.4-0.6-0.8-0.6c-0.4,0-0.7,0.1-1.1,0.3l-1.3,7.4c0,0.2-0.1,0.4-0.5,0.4h-3.5c-0.2,0-0.4-0.1-0.4-0.4l1.9-10.7
			c0-0.2,0.2-0.4,0.4-0.4h3.2c0.3,0,0.4,0.2,0.3,0.4l-0.1,0.5c1-0.7,1.9-1.1,3.3-1.1c2.4,0,3,1.5,3,3.2
			C693.4,103,693.4,103.5,693.3,104z"/>
	</g>
	<g>
		<polygon class="st2" points="430.4,64.2 424.5,64.2 424.5,28.4 477.9,28.4 477.9,34.3 430.4,34.3 		"/>
	</g>
	<g>
		<polygon class="st2" points="427.4,72 439.3,59.3 415.6,59.3 		"/>
	</g>
	<g>
		<rect x="423.7" y="120.4" class="st2" width="5.8" height="32.9"/>
	</g>
	<g>
		<polygon class="st2" points="426.6,161.1 438.5,148.4 414.8,148.4 		"/>
	</g>
	<g>
		<rect x="423.7" y="234.9" class="st2" width="5.8" height="32.9"/>
	</g>
	<g>
		<polygon class="st2" points="426.6,275.6 438.5,262.9 414.8,262.9 		"/>
	</g>
	<g>
		<rect x="629.9" y="125.1" class="st2" width="5.8" height="32.9"/>
	</g>
	<g>
		<polygon class="st2" points="632.9,165.8 644.7,153.1 621,153.1 		"/>
	</g>
	<g>
		<rect x="629.9" y="253.5" class="st2" width="5.8" height="32.9"/>
	</g>
	<g>
		<polygon class="st2" points="632.9,294.2 644.7,281.5 621,281.5 		"/>
	</g>
	<g>
		<polygon class="st2" points="635,64.2 629.1,64.2 629.1,34.3 581.6,34.3 581.6,28.4 635,28.4 		"/>
	</g>
	<g>
		<polygon class="st2" points="632.1,72 620.2,59.3 643.9,59.3 		"/>
	</g>
</g>
</svg>
