<?xml version="1.0" encoding="utf-8"?>
<!-- Generator: Adobe Illustrator 20.1.0, SVG Export Plug-In . SVG Version: 6.00 Build 0)  -->
<svg version="1.1" id="Capa_1" xmlns="http://www.w3.org/2000/svg" xmlns:xlink="http://www.w3.org/1999/xlink" x="0px" y="0px"
	 viewBox="0 0 716.7 433.3" style="enable-background:new 0 0 716.7 433.3;" xml:space="preserve">
<style type="text/css">
	.st0{fill:#3A0048;stroke:#F72F00;stroke-width:2.7128;}
	.st1{fill:none;stroke:#FF6800;stroke-width:2.3832;}
	.st2{fill:none;stroke:#FF6800;stroke-width:1.3564;}
	.st3{fill:#3A0048;}
	.st4{fill:#FFFFFD;}
</style>
<polyline class="st0" points="416.2,90.9 484.4,38.4 675.8,38.4 676.6,243.2 611,293 "/>
<rect x="417.7" y="90.5" class="st0" width="193.2" height="202.4"/>
<polyline class="st0" points="199.6,163.5 267.7,111.1 459.2,111.1 459.2,333.1 393.6,382.9 "/>
<polyline class="st1" points="199.6,163.5 267.7,111.1 459.2,111.1 459.2,333.1 393.6,382.9 "/>
<line class="st2" x1="676.9" y1="38" x2="610.9" y2="90.5"/>
<line class="st1" x1="458.9" y1="110.9" x2="387.5" y2="169.5"/>
<rect x="198.8" y="162.4" class="st0" width="197.7" height="221.5"/>
<g>
	<path class="st3" d="M31.5,15.5c0.5,0.1,0.6,0.3,0.6,0.7l-0.4,2.1c-0.1,0.4-0.1,0.7-0.8,0.7c-1.1-0.1-3.2-0.3-4.8-0.3
		c-3.1,0-4.8,1.6-5.6,5.8l-0.8,4.6c-0.1,0.8-0.2,1.5-0.2,2.1c0,2.9,1.3,3.8,3.7,3.8c1.7,0,3.8-0.2,4.9-0.2c0.7-0.1,0.7,0.2,0.6,0.7
		l-0.4,2.1c-0.1,0.4-0.4,0.6-0.8,0.7c-0.5,0.1-2.6,0.5-5,0.5c-3.7,0-7.4-1.8-7.4-7.3c0-0.7,0.1-1.5,0.2-2.3l0.8-4.6
		c1.4-8.4,6-9.5,10.5-9.5C29,15,31,15.4,31.5,15.5z"/>
	<path class="st3" d="M50.8,24.7l-0.7,4.2c-1.2,7.3-5.1,9.7-10.6,9.7c-4.5,0-7.4-2.5-7.4-7.3c0-0.7,0.1-1.5,0.2-2.4l0.7-4.2
		c1.2-7.3,5.1-9.7,10.6-9.7c4.5,0,7.4,2.7,7.4,7.4C51,23.1,50.9,23.9,50.8,24.7z M43,18.8c-3.2,0-4.9,1.7-5.6,6L36.7,29
		c-0.2,0.9-0.2,1.7-0.2,2.3c0,2.7,1.2,3.6,3.7,3.6c3.3,0,4.9-1.9,5.6-6l0.7-4.2c0.2-0.9,0.2-1.7,0.2-2.3
		C46.6,19.7,45.4,18.8,43,18.8z"/>
	<path class="st3" d="M63.1,15c5.6,0,8.6,1.7,8.6,5.8c0,2.3-1,4.7-4,5.9c1.6,0.7,2.3,2.3,2.3,3.9c0,6-4.1,8.1-10.8,8.1
		c-2.5,0-4.4-0.2-5.3-0.3c-0.8-0.2-1.3-0.4-1.3-1.2c0-0.2,0-0.3,0.1-0.5L56.2,17c0.2-1.1,0.7-1.5,1.7-1.7C58.7,15.2,60.7,15,63.1,15
		z M57.3,35c1.6,0,1.9,0.1,2.6,0.1c4,0,5.9-1,5.9-4.3c0-1.4-0.8-2.6-3.3-2.6h-4L57.3,35z M59.1,25h4c3.4,0,4.4-1.8,4.4-4
		c0-1.7-1.3-2.4-4.9-2.4c-0.7,0-1.6,0-2.3,0.1L59.1,25z"/>
	<path class="st3" d="M89.9,15.4c0.5,0.1,0.6,0.2,0.5,0.7l-0.3,2c-0.1,0.3-0.2,0.6-0.7,0.6H83c-1.8,0-2.6,0.6-2.9,2.7l-0.6,3.4H88
		c0.3,0,0.6,0.1,0.5,0.6L88,27.6c-0.1,0.3-0.2,0.6-0.7,0.6h-8.5l-0.7,4C78,32.7,78,33,78,33.3c0,1.2,0.6,1.7,2.1,1.7h6.4
		c0.3,0,0.6,0.2,0.5,0.6l-0.3,2c-0.1,0.4-0.3,0.6-0.7,0.7c-1,0.2-2.3,0.4-6,0.4c-3.5,0-6.2-1.4-6.2-4.9c0-0.5,0-0.9,0.1-1.5
		l1.9-10.9c1-5.6,4.1-6.4,8.3-6.4C87.7,15,88.9,15.3,89.9,15.4z"/>
	<path class="st3" d="M104.2,28.7l3.3,9.1c0.2,0.4-0.1,0.6-0.4,0.6h-3.6c-0.3,0-0.5-0.2-0.6-0.6l-3-8.3h-0.6c-0.8,0-1.7-0.1-2.8-0.1
		L95,37.9c-0.1,0.3-0.2,0.6-0.7,0.6h-3.1c-0.4,0-0.6-0.2-0.5-0.6l3.8-21.5c0.1-0.6,0.5-0.8,1.2-0.9c1.7-0.2,3.9-0.4,6.2-0.4
		c4.7,0,7.9,1.8,7.9,6.1C109.8,24.4,107.9,27.6,104.2,28.7z M101.2,18.7c-0.7,0-2.2,0.1-2.8,0.1l-1.2,7c0.5,0,2.2,0.1,2.8,0.1
		c3.2,0,5.4-1.2,5.4-4.7C105.4,19.3,104,18.7,101.2,18.7z"/>
	<path class="st3" d="M118.9,37.8c-0.1,0.3-0.2,0.6-0.7,0.6H115c-0.4,0-0.6-0.2-0.5-0.6l3.3-18.9h-5.5c-0.3,0-0.6-0.1-0.5-0.6
		l0.4-2.5c0.1-0.5,0.4-0.6,0.7-0.6h15.3c0.5,0,0.6,0.2,0.5,0.6l-0.4,2.5c-0.1,0.5-0.4,0.6-0.7,0.6h-5.5L118.9,37.8z"/>
	<path class="st3" d="M148.4,15.2c0.4,0,0.6,0.2,0.5,0.6l-2.5,14c-1.2,7-4.9,8.8-10,8.8c-4.4,0-7.3-2.1-7.3-6.5c0-0.7,0-1.5,0.2-2.3
		l2.5-14c0.1-0.3,0.4-0.6,0.7-0.6h3.1c0.4,0,0.6,0.2,0.5,0.6l-2.5,14c-0.2,0.9-0.3,1.7-0.3,2.3c0,2.1,1,2.9,3.6,2.9
		c3.4,0,4.5-1.6,5.1-5.2l2.5-14c0.1-0.3,0.2-0.6,0.7-0.6C145.2,15.2,148.4,15.2,148.4,15.2z"/>
	<path class="st3" d="M163.1,28.7l3.3,9.1c0.2,0.4-0.1,0.6-0.4,0.6h-3.6c-0.3,0-0.5-0.2-0.6-0.6l-3-8.3h-0.6c-0.8,0-1.7-0.1-2.8-0.1
		l-1.5,8.5c-0.1,0.3-0.2,0.6-0.7,0.6h-3.1c-0.4,0-0.6-0.2-0.5-0.6l3.8-21.5c0.1-0.6,0.5-0.8,1.2-0.9c1.7-0.2,3.9-0.4,6.2-0.4
		c4.7,0,7.9,1.8,7.9,6.1C168.6,24.4,166.7,27.6,163.1,28.7z M160,18.7c-0.7,0-2.2,0.1-2.8,0.1l-1.2,7c0.5,0,2.2,0.1,2.8,0.1
		c3.2,0,5.4-1.2,5.4-4.7C164.2,19.3,162.8,18.7,160,18.7z"/>
	<path class="st3" d="M186.5,38.4h-3.2c-0.4,0-0.5-0.2-0.5-0.5l-0.4-5.9h-7.2l-2.5,5.9c-0.1,0.3-0.3,0.5-0.7,0.5h-3.4
		c-0.3,0-0.5-0.2-0.5-0.4c0-0.1,0-0.2,0.1-0.3l8.5-19.6c1.3-2.9,3.2-3.2,4.9-3.2c1.6,0,3.6,0.6,3.8,3.2l1.7,19.6c0,0,0,0,0,0.1
		C187.2,38.1,187,38.4,186.5,38.4z M181.6,19.1c0-0.4-0.1-0.5-0.4-0.5s-0.4,0.1-0.6,0.5l-3.9,9.3h5.5L181.6,19.1z"/>
	<path class="st3" d="M217.5,24.5l-0.8,4.6c-1.1,6.4-4.9,9.5-11.5,9.5c-2.2,0-5.2-0.2-6.1-0.4c-0.4-0.1-0.7-0.3-0.7-0.7
		c0-0.1,0-0.2,0-0.2l3.7-21c0.1-0.6,0.4-0.9,1-1c1-0.2,4-0.4,6.2-0.4c5.3,0,8.3,2.8,8.3,7.4C217.7,23.1,217.7,23.8,217.5,24.5z
		 M208.8,18.6c-1.2,0-2,0.1-2.7,0.1l-2.8,16.2c0.7,0,1.4,0.1,2.6,0.1c3.1,0,5.8-1.4,6.6-5.9l0.8-4.6c0.1-0.7,0.2-1.4,0.2-2
		C213.4,19.4,211.6,18.6,208.8,18.6z"/>
	<path class="st3" d="M238.7,24.7l-0.7,4.2c-1.2,7.3-5.1,9.7-10.6,9.7c-4.5,0-7.4-2.5-7.4-7.3c0-0.7,0.1-1.5,0.2-2.4l0.7-4.2
		c1.2-7.3,5.1-9.7,10.6-9.7c4.5,0,7.4,2.7,7.4,7.4C238.9,23.1,238.8,23.9,238.7,24.7z M230.9,18.8c-3.2,0-4.9,1.7-5.6,6l-0.7,4.2
		c-0.2,0.9-0.2,1.7-0.2,2.3c0,2.7,1.2,3.6,3.7,3.6c3.3,0,4.9-1.9,5.6-6l0.7-4.2c0.2-0.9,0.2-1.7,0.2-2.3
		C234.6,19.7,233.4,18.8,230.9,18.8z"/>
</g>
<g>
	<path class="st3" d="M257.5,15.5c0.5,0.1,0.6,0.3,0.6,0.7l-0.4,2.1c-0.1,0.4-0.1,0.7-0.8,0.7c-1.1-0.1-3.2-0.3-4.8-0.3
		c-3.1,0-4.8,1.6-5.6,5.8l-0.8,4.6c-0.1,0.8-0.2,1.5-0.2,2.1c0,2.9,1.3,3.8,3.7,3.8c1.7,0,3.8-0.2,4.9-0.2c0.7-0.1,0.7,0.2,0.6,0.7
		l-0.4,2.1c-0.1,0.4-0.4,0.6-0.8,0.7c-0.5,0.1-2.6,0.5-5,0.5c-3.7,0-7.4-1.8-7.4-7.3c0-0.7,0.1-1.5,0.2-2.3l0.8-4.6
		c1.4-8.4,6-9.5,10.5-9.5C255,15,257.1,15.4,257.5,15.5z"/>
</g>
<g>
	<path class="st3" d="M275.2,15.4c0.5,0.1,0.6,0.2,0.5,0.7l-0.3,2c-0.1,0.3-0.2,0.6-0.7,0.6h-6.4c-1.8,0-2.6,0.6-2.9,2.7l-0.6,3.4
		h8.5c0.3,0,0.6,0.1,0.5,0.6l-0.4,2.2c-0.1,0.3-0.2,0.6-0.7,0.6h-8.5l-0.7,4c-0.1,0.4-0.1,0.7-0.1,1c0,1.2,0.6,1.7,2.1,1.7h6.4
		c0.3,0,0.6,0.2,0.5,0.6l-0.3,2c-0.1,0.4-0.3,0.6-0.7,0.7c-1,0.2-2.3,0.4-6,0.4c-3.5,0-6.2-1.4-6.2-4.9c0-0.5,0-0.9,0.1-1.5
		l1.9-10.9c1-5.6,4.1-6.4,8.3-6.4C273.1,15,274.3,15.3,275.2,15.4z"/>
	<path class="st3" d="M297,15.2c0.3,0,0.6,0.1,0.5,0.6l-3.8,21.3c-0.1,0.7-0.8,1.2-1.5,1.2h-2.9c-0.7,0-1.4,0-1.7-1.1L283.1,22
		c-0.1-0.2-0.1-0.2-0.2-0.2s-0.2,0.1-0.2,0.2L280,37.8c-0.1,0.3-0.2,0.6-0.7,0.6h-2.7c-0.3,0-0.6-0.2-0.5-0.6l3.7-21.3
		c0.1-0.7,0.8-1.2,1.5-1.2h3.1c0.7,0,0.9,0.2,1.2,1l4.7,16c0,0.2,0.1,0.3,0.2,0.3s0.2-0.1,0.2-0.3l2.9-16.4c0.1-0.3,0.3-0.6,0.7-0.6
		L297,15.2L297,15.2z"/>
	<path class="st3" d="M306.3,37.8c-0.1,0.3-0.2,0.6-0.7,0.6h-3.1c-0.4,0-0.6-0.2-0.5-0.6l3.3-18.9h-5.5c-0.3,0-0.6-0.1-0.5-0.6
		l0.4-2.5c0.1-0.5,0.4-0.6,0.7-0.6h15.3c0.5,0,0.6,0.2,0.5,0.6l-0.4,2.5c-0.1,0.5-0.4,0.6-0.7,0.6h-5.5L306.3,37.8z"/>
	<path class="st3" d="M331.8,15.4c0.5,0.1,0.6,0.2,0.5,0.7l-0.3,2c-0.1,0.3-0.2,0.6-0.7,0.6h-6.4c-1.8,0-2.6,0.6-2.9,2.7l-0.6,3.4
		h8.5c0.3,0,0.6,0.1,0.5,0.6l-0.4,2.2c-0.1,0.3-0.2,0.6-0.7,0.6h-8.5l-0.7,4c-0.1,0.4-0.1,0.7-0.1,1c0,1.2,0.6,1.7,2.1,1.7h6.4
		c0.3,0,0.6,0.2,0.5,0.6l-0.3,2c-0.1,0.4-0.3,0.6-0.7,0.7c-1,0.2-2.3,0.4-6,0.4c-3.5,0-6.2-1.4-6.2-4.9c0-0.5,0-0.9,0.1-1.5
		l1.9-10.9c1-5.6,4.1-6.4,8.3-6.4C329.7,15,330.8,15.3,331.8,15.4z"/>
	<path class="st3" d="M349.5,15.6c0.3,0.1,0.5,0.2,0.5,0.6l-0.4,2.3c-0.1,0.4-0.1,0.6-0.7,0.6c-2.1-0.2-3.8-0.3-6.1-0.3
		c-1.7,0-3.7,0.5-3.7,2.3c0,1.1,0.5,1.7,2.1,2.7l3.4,2.1c2.5,1.6,3.3,3.3,3.3,5.6c0,5.2-4.3,7.3-9.4,7.3c-2.3,0-4-0.2-5.4-0.6
		c-0.3-0.1-0.6-0.2-0.5-0.6l0.4-2.2c0.1-0.3,0.2-0.7,0.7-0.6c1.2,0.2,4.3,0.3,5.5,0.3c2.2,0,4.1-0.7,4.1-2.9c0-1.2-0.5-1.9-2.1-3
		l-3.7-2.5c-2.1-1.4-2.7-3.5-2.7-5.3c0-5,4.5-6.4,8.9-6.4C345.6,15,348.4,15.3,349.5,15.6z"/>
</g>
<g>
	<path class="st3" d="M31.5,46.7c0.5,0.1,0.6,0.3,0.6,0.7l-0.4,2.1c-0.1,0.4-0.1,0.7-0.8,0.7c-1.1-0.1-3.2-0.3-4.8-0.3
		c-3.1,0-4.8,1.6-5.6,5.8l-0.8,4.6c-0.1,0.8-0.2,1.5-0.2,2.1c0,2.9,1.3,3.8,3.7,3.8c1.7,0,3.8-0.2,4.9-0.2c0.7-0.1,0.7,0.2,0.6,0.7
		l-0.4,2.1c-0.1,0.4-0.4,0.6-0.8,0.7c-0.5,0.1-2.6,0.5-5,0.5c-3.7,0-7.4-1.8-7.4-7.3c0-0.7,0.1-1.5,0.2-2.3l0.8-4.6
		c1.4-8.4,6-9.5,10.5-9.5C29,46.2,31,46.6,31.5,46.7z"/>
</g>
<g>
	<path class="st3" d="M48.7,69.6h-3.2c-0.4,0-0.5-0.2-0.5-0.5l-0.4-5.9h-7.2L35,69.1c-0.1,0.3-0.3,0.5-0.7,0.5h-3.4
		c-0.3,0-0.5-0.2-0.5-0.4c0-0.1,0-0.2,0.1-0.3L39,49.4c1.3-2.9,3.2-3.2,4.9-3.2c1.6,0,3.6,0.6,3.8,3.2L49.4,69c0,0,0,0,0,0.1
		C49.3,69.3,49.2,69.6,48.7,69.6z M43.8,50.3c0-0.4-0.1-0.5-0.4-0.5c-0.3,0-0.4,0.1-0.6,0.5l-3.9,9.3h5.5L43.8,50.3z"/>
	<path class="st3" d="M57.2,46.6c1.7-0.2,3.9-0.4,6.2-0.4c5.4,0,7.8,2.2,7.8,6.3c0,4.8-3.2,8.5-10.4,8.5c-0.8,0-2-0.1-2.7-0.1
		L56.6,69c-0.1,0.3-0.2,0.6-0.7,0.6h-3.1c-0.5,0-0.6-0.3-0.5-0.6l3.8-21.5C56.2,46.9,56.6,46.7,57.2,46.6z M58.7,57.3
		c0.5,0,2.2,0.1,2.8,0.1c3.8,0,5.5-2.1,5.5-4.9c0-2.1-1.3-2.7-4.2-2.7c-0.7,0-2.2,0.1-2.8,0.1L58.7,57.3z"/>
	<path class="st3" d="M86.7,69.6h-3.2c-0.4,0-0.5-0.2-0.5-0.5l-0.4-5.9h-7.2l-2.5,5.9c-0.1,0.3-0.3,0.5-0.7,0.5h-3.4
		c-0.3,0-0.5-0.2-0.5-0.4c0-0.1,0-0.2,0.1-0.3L77,49.4c1.3-2.9,3.2-3.2,4.9-3.2c1.6,0,3.6,0.6,3.8,3.2L87.4,69c0,0,0,0,0,0.1
		C87.3,69.3,87.2,69.6,86.7,69.6z M81.8,50.3c0-0.4-0.1-0.5-0.4-0.5s-0.4,0.1-0.6,0.5l-3.9,9.3h5.5L81.8,50.3z"/>
</g>
<g>
	<path class="st3" d="M106.7,46.7c0.5,0.1,0.6,0.3,0.6,0.7l-0.4,2.1c-0.1,0.4-0.1,0.7-0.8,0.7c-1.1-0.1-3.2-0.3-4.8-0.3
		c-3.1,0-4.8,1.6-5.6,5.8l-0.8,4.6c-0.1,0.8-0.2,1.5-0.2,2.1c0,2.9,1.3,3.8,3.7,3.8c1.7,0,3.8-0.2,4.9-0.2c0.7-0.1,0.7,0.2,0.6,0.7
		l-0.4,2.1c-0.1,0.4-0.4,0.6-0.8,0.7c-0.5,0.1-2.6,0.5-5,0.5c-3.7,0-7.4-1.8-7.4-7.3c0-0.7,0.1-1.5,0.2-2.3l0.8-4.6
		c1.4-8.4,6-9.5,10.5-9.5C104.2,46.2,106.3,46.6,106.7,46.7z"/>
</g>
<g>
	<path class="st3" d="M115,46.4c0.4,0,0.6,0.2,0.5,0.6l-3.9,22c-0.1,0.3-0.2,0.6-0.7,0.6h-3.1c-0.5,0-0.6-0.3-0.5-0.6l3.9-22
		c0.1-0.3,0.2-0.6,0.7-0.6H115z"/>
	<path class="st3" d="M125.2,69c-0.1,0.3-0.2,0.6-0.7,0.6h-3.1c-0.4,0-0.6-0.2-0.5-0.6l3.3-18.9h-5.5c-0.3,0-0.6-0.1-0.5-0.6
		l0.4-2.5c0.1-0.5,0.4-0.6,0.7-0.6h15.3c0.5,0,0.6,0.2,0.5,0.6l-0.4,2.5c-0.1,0.5-0.4,0.6-0.7,0.6h-5.5L125.2,69z"/>
	<path class="st3" d="M148.7,69.6h-3.2c-0.4,0-0.5-0.2-0.5-0.5l-0.4-5.9h-7.2l-2.5,5.9c-0.1,0.3-0.3,0.5-0.7,0.5h-3.4
		c-0.3,0-0.5-0.2-0.5-0.4c0-0.1,0-0.2,0.1-0.3l8.5-19.6c1.3-2.9,3.2-3.2,4.9-3.2c1.6,0,3.6,0.6,3.8,3.2l1.7,19.6c0,0,0,0,0,0.1
		C149.3,69.3,149.2,69.6,148.7,69.6z M143.8,50.3c0-0.4-0.1-0.5-0.4-0.5s-0.4,0.1-0.6,0.5l-3.9,9.3h5.5L143.8,50.3z"/>
	<path class="st3" d="M171.3,55.7l-0.8,4.6c-1.1,6.4-4.9,9.5-11.5,9.5c-2.2,0-5.2-0.2-6.1-0.4c-0.4-0.1-0.7-0.3-0.7-0.7
		c0-0.1,0-0.2,0-0.2l3.7-21c0.1-0.6,0.4-0.9,1-1c1-0.2,4-0.4,6.2-0.4c5.3,0,8.3,2.8,8.3,7.4C171.5,54.3,171.5,55,171.3,55.7z
		 M162.6,49.8c-1.2,0-2,0.1-2.7,0.1l-2.8,16.2c0.7,0,1.4,0.1,2.6,0.1c3.1,0,5.8-1.4,6.6-5.9l0.8-4.6c0.1-0.7,0.2-1.4,0.2-2
		C167.2,50.6,165.4,49.8,162.6,49.8z"/>
	<path class="st3" d="M192.5,55.9l-0.7,4.2c-1.2,7.3-5.1,9.7-10.6,9.7c-4.5,0-7.4-2.5-7.4-7.3c0-0.7,0.1-1.5,0.2-2.4l0.7-4.2
		c1.2-7.3,5.1-9.7,10.6-9.7c4.5,0,7.4,2.7,7.4,7.4C192.7,54.3,192.6,55.1,192.5,55.9z M184.7,50c-3.2,0-4.9,1.7-5.6,6l-0.7,4.2
		c-0.2,0.9-0.2,1.7-0.2,2.3c0,2.7,1.2,3.6,3.7,3.6c3.3,0,4.9-1.9,5.6-6l0.7-4.2c0.2-0.9,0.2-1.7,0.2-2.3
		C188.4,50.9,187.2,50,184.7,50z"/>
	<path class="st3" d="M211,46.8c0.3,0.1,0.5,0.2,0.5,0.6l-0.4,2.3c-0.1,0.4-0.1,0.6-0.7,0.6c-2.1-0.2-3.8-0.3-6.1-0.3
		c-1.7,0-3.7,0.5-3.7,2.3c0,1.1,0.5,1.7,2.1,2.7l3.3,2c2.5,1.6,3.3,3.3,3.3,5.6c0,5.2-4.3,7.3-9.4,7.3c-2.3,0-4-0.2-5.4-0.6
		c-0.3-0.1-0.6-0.2-0.5-0.6l0.4-2.2c0.1-0.3,0.2-0.7,0.7-0.6c1.2,0.2,4.3,0.3,5.5,0.3c2.2,0,4.1-0.7,4.1-2.9c0-1.2-0.5-1.9-2.1-3
		l-3.7-2.5c-2.1-1.4-2.7-3.5-2.7-5.3c0-5,4.5-6.4,8.9-6.4C207.2,46.2,210,46.5,211,46.8z"/>
</g>
<g>
	<path class="st3" d="M237.4,46.7c0.5,0.1,0.6,0.3,0.6,0.7l-0.4,2.1c-0.1,0.4-0.1,0.7-0.8,0.7c-1.1-0.1-3.2-0.3-4.8-0.3
		c-3.1,0-4.8,1.6-5.6,5.8l-0.8,4.6c-0.1,0.8-0.2,1.5-0.2,2.1c0,2.9,1.3,3.8,3.7,3.8c1.7,0,3.8-0.2,4.9-0.2c0.7-0.1,0.7,0.2,0.6,0.7
		l-0.4,2.1c-0.1,0.4-0.4,0.6-0.8,0.7c-0.5,0.1-2.6,0.5-5,0.5c-3.7,0-7.4-1.8-7.4-7.3c0-0.7,0.1-1.5,0.2-2.3l0.8-4.6
		c1.4-8.4,6-9.5,10.5-9.5C235,46.2,237,46.6,237.4,46.7z"/>
</g>
<g>
	<path class="st3" d="M256.7,55.9l-0.7,4.2c-1.2,7.3-5.1,9.7-10.6,9.7c-4.5,0-7.4-2.5-7.4-7.3c0-0.7,0.1-1.5,0.2-2.4l0.7-4.2
		c1.2-7.3,5.1-9.7,10.6-9.7c4.5,0,7.4,2.7,7.4,7.4C256.9,54.3,256.8,55.1,256.7,55.9z M248.9,50c-3.2,0-4.9,1.7-5.6,6l-0.7,4.2
		c-0.2,0.9-0.2,1.7-0.2,2.3c0,2.7,1.2,3.6,3.7,3.6c3.3,0,4.9-1.9,5.6-6l0.7-4.2c0.2-0.9,0.2-1.7,0.2-2.3
		C252.6,50.9,251.4,50,248.9,50z"/>
	<path class="st3" d="M279.3,46.4c0.3,0,0.6,0.1,0.5,0.6L276,68.3c-0.1,0.7-0.8,1.2-1.5,1.2h-2.9c-0.7,0-1.4,0-1.7-1.1l-4.5-15.2
		c-0.1-0.2-0.1-0.2-0.2-0.2s-0.2,0.1-0.2,0.2L262.3,69c-0.1,0.3-0.2,0.6-0.7,0.6h-2.7c-0.3,0-0.6-0.2-0.5-0.6l3.7-21.3
		c0.1-0.7,0.8-1.2,1.5-1.2h3.2c0.7,0,0.9,0.2,1.2,1l4.7,16c0,0.2,0.1,0.3,0.2,0.3s0.2-0.1,0.2-0.3L276,47c0.1-0.3,0.2-0.6,0.7-0.6
		H279.3z"/>
	<path class="st3" d="M300.8,46.4c0.5,0,0.6,0.3,0.4,0.7l-8.5,19.6c-1.3,2.9-3.6,3.2-4.9,3.2s-3.5-0.3-3.8-3.2l-1.7-19.6
		c0-0.5,0.3-0.7,0.7-0.7h3.2c0.3,0,0.5,0.2,0.5,0.5l1.2,18.7c0,0.4,0.1,0.5,0.4,0.5s0.4-0.1,0.6-0.5l7.8-18.7
		c0.1-0.3,0.3-0.5,0.7-0.5C297.4,46.4,300.8,46.4,300.8,46.4z"/>
	<path class="st3" d="M316.4,46.6c0.5,0.1,0.6,0.2,0.5,0.7l-0.3,2c-0.1,0.3-0.2,0.6-0.7,0.6h-6.4c-1.8,0-2.6,0.6-2.9,2.7L306,56h8.5
		c0.3,0,0.6,0.1,0.5,0.6l-0.4,2.2c-0.1,0.3-0.3,0.6-0.7,0.6h-8.5l-0.7,4c-0.1,0.4-0.1,0.7-0.1,1c0,1.2,0.6,1.7,2.1,1.7h6.4
		c0.3,0,0.6,0.2,0.5,0.6l-0.3,2c-0.1,0.4-0.3,0.6-0.7,0.7c-1,0.2-2.3,0.4-6,0.4c-3.5,0-6.2-1.4-6.2-4.9c0-0.5,0-0.9,0.1-1.5
		l1.9-10.9c1-5.6,4.1-6.4,8.3-6.4C314.3,46.2,315.4,46.5,316.4,46.6z"/>
	<path class="st3" d="M338.2,46.4c0.3,0,0.6,0.1,0.5,0.6l-3.8,21.3c-0.1,0.7-0.8,1.2-1.5,1.2h-2.9c-0.7,0-1.4,0-1.7-1.1l-4.5-15.2
		c-0.1-0.2-0.1-0.2-0.2-0.2s-0.2,0.1-0.2,0.2L321.2,69c-0.1,0.3-0.2,0.6-0.7,0.6h-2.7c-0.3,0-0.6-0.2-0.5-0.6l3.7-21.3
		c0.1-0.7,0.8-1.2,1.5-1.2h3.2c0.7,0,0.9,0.2,1.2,1l4.7,16c0,0.2,0.1,0.3,0.2,0.3s0.2-0.1,0.2-0.3l2.9-16.4c0.1-0.3,0.2-0.6,0.7-0.6
		L338.2,46.4L338.2,46.4z"/>
	<path class="st3" d="M347.2,46.4c0.4,0,0.6,0.2,0.5,0.6l-3.9,22c-0.1,0.3-0.2,0.6-0.7,0.6H340c-0.5,0-0.6-0.3-0.5-0.6l3.9-22
		c0.1-0.3,0.2-0.6,0.7-0.6H347.2z"/>
	<path class="st3" d="M368,55.9l-0.7,4.2c-1.2,7.3-5.1,9.7-10.6,9.7c-4.5,0-7.4-2.5-7.4-7.3c0-0.7,0.1-1.5,0.2-2.4l0.7-4.2
		c1.2-7.3,5.1-9.7,10.6-9.7c4.5,0,7.4,2.7,7.4,7.4C368.2,54.3,368.1,55.1,368,55.9z M360.1,50c-3.2,0-4.9,1.7-5.6,6l-0.7,4.2
		c-0.2,0.9-0.2,1.7-0.2,2.3c0,2.7,1.2,3.6,3.7,3.6c3.3,0,4.9-1.9,5.6-6l0.7-4.2c0.2-0.9,0.2-1.7,0.2-2.3
		C363.8,50.9,362.6,50,360.1,50z"/>
	<path class="st3" d="M386.4,46.8c0.3,0.1,0.5,0.2,0.5,0.6l-0.4,2.3c-0.1,0.4-0.1,0.6-0.7,0.6c-2.1-0.2-3.8-0.3-6.1-0.3
		c-1.7,0-3.7,0.5-3.7,2.3c0,1.1,0.5,1.7,2.1,2.7l3.4,2.1c2.5,1.6,3.3,3.3,3.3,5.6c0,5.2-4.3,7.3-9.4,7.3c-2.3,0-4-0.2-5.4-0.6
		c-0.3-0.1-0.6-0.2-0.5-0.6l0.4-2.2c0.1-0.3,0.2-0.7,0.7-0.6c1.2,0.2,4.3,0.3,5.5,0.3c2.2,0,4.1-0.7,4.1-2.9c0-1.2-0.5-1.9-2.1-3
		l-3.7-2.5c-2.1-1.4-2.7-3.5-2.7-5.3c0-5,4.5-6.4,8.9-6.4C382.6,46.2,385.4,46.5,386.4,46.8z"/>
</g>
<g>
	<path class="st3" d="M27.4,89.4l-3.1,1.9c-3.7,2.2-4.5,3-5.1,6H29c0.3,0,0.6,0.1,0.5,0.6l-0.4,2.4c-0.1,0.3-0.2,0.6-0.7,0.6H15.1
		c-0.4,0-0.6-0.2-0.5-0.6l0.5-3.1c0.7-4.2,2.7-6.3,6.2-8.4l3.5-2.1c1.9-1.2,3.6-1.7,3.6-3.9c0-1.6-1.2-2-3.3-2
		c-1.8,0-4.4,0.3-6.3,0.5c-0.4,0-0.6-0.1-0.5-0.6l0.3-1.9c0.1-0.3,0.3-0.5,0.7-0.6c1.7-0.4,4.4-0.8,6.4-0.8c4.5,0,6.8,1.7,6.8,4.8
		C32.4,85.5,30.8,87.4,27.4,89.4z"/>
	<path class="st3" d="M51.8,88.1l-0.4,2.3c-1.4,8-4.6,10.7-10,10.7c-4,0-6.6-2.5-6.6-7.5c0-1,0.1-2,0.3-3.2l0.4-2.3
		c1.5-8.3,4.8-10.7,10-10.7c4,0,6.6,2.2,6.6,7.3C52.1,85.7,52,86.8,51.8,88.1z M44.9,80.9c-2.2,0-4.1,1.5-5.1,7.2l-0.4,2.3
		c-0.2,1.3-0.3,2.3-0.3,3.2c0,3,1.2,3.9,2.9,3.9c2.2,0,4.1-1.5,5.1-7.1l0.4-2.3c0.2-1.3,0.3-2.3,0.3-3.2
		C47.8,81.8,46.6,80.9,44.9,80.9z"/>
	<path class="st3" d="M55.3,100.8c-0.3,0-0.6-0.3-0.5-0.6l0.4-2.4c0.1-0.3,0.4-0.6,0.7-0.6h4.2l2.7-15.3l-4.3,1.2
		c-0.2,0.1-0.3,0.1-0.4,0.1c-0.2,0-0.3-0.1-0.3-0.4l0.5-2.9c0-0.2,0.1-0.3,0.3-0.3l5.8-1.8c0.2-0.1,0.4-0.1,0.7-0.1h2.1
		c0.3,0,0.5,0.2,0.5,0.6l-3.3,19h4.2c0.3,0,0.6,0.2,0.5,0.6l-0.4,2.4c-0.1,0.3-0.4,0.6-0.7,0.6L55.3,100.8L55.3,100.8z"/>
	<path class="st3" d="M91.3,78.2l-0.4,2.4c-0.1,0.3-0.4,0.6-0.7,0.6h-8.5l-1.4,5.2H81c4.6,0,8.6,1.1,8.6,6.4c0,4.9-2.8,8.3-9.5,8.3
		c-1.8,0-4.2-0.3-5.9-0.8c-0.4-0.1-0.5-0.3-0.5-0.7l0.3-1.8c0.1-0.3,0.2-0.7,0.7-0.6c2.4,0.3,3.9,0.4,5.7,0.4c4,0,4.7-2.5,4.7-4.8
		c0-3-2.5-3-5-3h-4.2c-0.3,0-0.4-0.3-0.3-0.5l3-11.1c0.1-0.3,0.4-0.6,0.7-0.6h11.3C91.1,77.6,91.3,77.9,91.3,78.2L91.3,78.2
		L91.3,78.2z"/>
</g>
<g>
	<path class="st4" d="M262.3,255.6c-0.6,0-0.8-0.2-0.7-0.7l0.6-3.1c0.1-0.4,0.3-0.8,0.9-0.8h17c1.2,0,1.5,0.4,1.3,1.6l-0.3,1.8
		c-0.1,0.4-0.3,0.9-1.1,2.2l-15.2,23.8c-0.4,0.6-0.7,0.8-1.2,0.8h-4.4c-0.3,0-0.5-0.2-0.5-0.5c0-0.2,0-0.3,0.2-0.5l16-24.3
		c0.1-0.2,0-0.3-0.2-0.3H262.3z"/>
	<path class="st4" d="M305.8,264.6l-0.5,3c-1.8,10.4-5.9,13.9-13.1,13.9c-5.2,0-8.6-3.3-8.6-9.8c0-1.3,0.2-2.6,0.4-4.1l0.5-3
		c1.9-10.8,6.3-14,13.1-14c5.2,0,8.6,2.9,8.6,9.5C306.2,261.5,306.1,262.9,305.8,264.6z M296.8,255.2c-2.8,0-5.3,2-6.6,9.4l-0.5,3
		c-0.3,1.7-0.4,3.1-0.4,4.2c0,3.9,1.6,5.1,3.7,5.1c2.8,0,5.3-2,6.6-9.3l0.5-3c0.3-1.7,0.4-3.1,0.4-4.2
		C300.5,256.4,298.9,255.2,296.8,255.2z"/>
	<path class="st4" d="M321.8,257.5l-0.6,3.3c-0.9,4.9-3.1,6.8-7,6.8c-3.1,0-4.8-2-4.8-5.1c0-0.5,0-1.1,0.2-1.7l0.6-3.3
		c0.9-5.1,3.4-6.8,7-6.8c3.1,0,4.7,1.9,4.7,5C322,256.3,321.9,256.9,321.8,257.5z M336.9,251.8l-22,28.7c-0.4,0.6-0.7,0.9-1.1,0.9
		h-3.5c-0.2,0-0.3-0.1-0.3-0.3s0.1-0.4,0.2-0.6l22-28.7c0.4-0.6,0.7-0.8,1.1-0.8h3.4c0.2,0,0.3,0.1,0.3,0.2S337,251.5,336.9,251.8z
		 M316.7,253.8c-1.5,0-2.6,0.9-3.1,3.8l-0.6,3.3c-0.1,0.6-0.2,1.1-0.2,1.6c0,1.7,0.7,2.2,1.8,2.2c1.5,0,2.5-0.9,3-3.8l0.6-3.3
		c0.1-0.7,0.2-1.2,0.2-1.6C318.5,254.3,317.9,253.8,316.7,253.8z M337.6,271.3l-0.6,3.3c-0.9,4.9-3.1,6.8-7,6.8
		c-3.1,0-4.8-2-4.8-5.1c0-0.5,0-1.1,0.2-1.7l0.6-3.3c0.9-5.1,3.4-6.8,7-6.8c3.1,0,4.7,1.9,4.7,5
		C337.8,270.1,337.8,270.7,337.6,271.3z M332.6,267.5c-1.5,0-2.6,0.9-3.1,3.8l-0.6,3.3c-0.1,0.6-0.2,1.1-0.2,1.6
		c0,1.7,0.7,2.2,1.8,2.2c1.5,0,2.5-0.9,3-3.8l0.6-3.3c0.1-0.7,0.2-1.2,0.2-1.7C334.4,268.1,333.7,267.5,332.6,267.5z"/>
</g>
<g>
	<path class="st4" d="M497.3,166.3c-0.6,0-0.8-0.2-0.7-0.7l0.6-3.1c0.1-0.4,0.3-0.8,0.9-0.8h17c1.2,0,1.5,0.4,1.3,1.6l-0.3,1.8
		c-0.1,0.4-0.3,0.9-1.1,2.2l-15.2,23.8c-0.4,0.6-0.7,0.8-1.2,0.8h-4.4c-0.3,0-0.5-0.2-0.5-0.5c0-0.2,0-0.3,0.2-0.5l16-24.3
		c0.1-0.2,0-0.3-0.2-0.3H497.3z"/>
	<path class="st4" d="M534.5,177l-4.1,2.4c-4.8,2.9-5.9,3.9-6.6,7.8h12.8c0.4,0,0.8,0.2,0.7,0.7l-0.5,3.1c-0.1,0.4-0.2,0.8-1,0.8
		h-17.3c-0.5,0-0.7-0.2-0.7-0.8l0.7-4c1-5.5,3.5-8.3,8.1-11l4.5-2.7c2.5-1.5,4.7-2.3,4.7-5.1c0-2.1-1.6-2.6-4.3-2.6
		c-2.4,0-5.7,0.4-8.2,0.6c-0.6,0-0.8-0.2-0.7-0.8l0.4-2.4c0.1-0.4,0.4-0.7,0.9-0.8c2.2-0.6,5.7-1,8.3-1c5.9,0,8.8,2.2,8.8,6.2
		C541.1,171.9,538.9,174.3,534.5,177z"/>
	<path class="st4" d="M559.8,168.2l-0.6,3.3c-0.9,4.9-3.1,6.8-7,6.8c-3.1,0-4.8-2-4.8-5.1c0-0.5,0-1.1,0.2-1.7l0.6-3.3
		c0.9-5.1,3.4-6.8,7-6.8c3.1,0,4.7,1.9,4.7,5C560,167,559.9,167.6,559.8,168.2z M574.9,162.5l-22,28.7c-0.4,0.6-0.7,0.9-1.1,0.9
		h-3.4c-0.2,0-0.3-0.1-0.3-0.3s0.1-0.4,0.2-0.6l22-28.7c0.4-0.6,0.7-0.8,1.1-0.8h3.4c0.2,0,0.3,0.1,0.3,0.2
		C575.2,162.1,575,162.2,574.9,162.5z M554.7,164.5c-1.5,0-2.6,0.9-3.1,3.8l-0.6,3.3c-0.1,0.6-0.2,1.1-0.2,1.6
		c0,1.7,0.7,2.2,1.8,2.2c1.5,0,2.5-0.9,3-3.8l0.6-3.3c0.1-0.7,0.2-1.2,0.2-1.6C556.5,165,555.9,164.5,554.7,164.5z M575.6,182
		l-0.6,3.3c-0.9,4.9-3.1,6.8-7,6.8c-3.1,0-4.8-2-4.8-5.1c0-0.5,0-1.1,0.2-1.7l0.6-3.3c0.9-5.1,3.4-6.8,7-6.8c3.1,0,4.7,1.9,4.7,5
		C575.8,180.8,575.8,181.4,575.6,182z M570.6,178.3c-1.5,0-2.6,0.9-3.1,3.8l-0.6,3.3c-0.1,0.6-0.2,1.1-0.2,1.6
		c0,1.7,0.7,2.2,1.8,2.2c1.5,0,2.5-0.9,3-3.8l0.6-3.3c0.1-0.7,0.2-1.2,0.2-1.7C572.3,178.8,571.7,178.3,570.6,178.3z"/>
</g>
<g>
	<path class="st3" d="M473.9,303.2c1.7-0.2,3.9-0.4,6.2-0.4c5.4,0,7.8,2.2,7.8,6.3c0,4.8-3.2,8.5-10.4,8.5c-0.8,0-2-0.1-2.7-0.1
		l-1.4,8.1c-0.1,0.3-0.2,0.6-0.7,0.6h-3.1c-0.5,0-0.6-0.3-0.5-0.6l3.8-21.5C472.9,303.6,473.3,303.3,473.9,303.2z M475.4,314
		c0.5,0,2.2,0.1,2.8,0.1c3.8,0,5.5-2.1,5.5-4.9c0-2.1-1.3-2.7-4.2-2.7c-0.7,0-2.2,0.1-2.8,0.1L475.4,314z"/>
	<path class="st3" d="M500.2,309.1l-0.4,2.2c-0.1,0.3-0.2,0.6-0.7,0.6c-1,0-2.4,0.1-4.5,1.1l-2.2,12.5c-0.1,0.3-0.2,0.7-0.7,0.7
		h-2.9c-0.4,0-0.6-0.2-0.5-0.7l2.9-16.3c0.1-0.3,0.2-0.6,0.7-0.6h2.7c0.4,0,0.6,0.2,0.5,0.6l-0.1,0.7c1.8-1.4,3.4-1.5,4.7-1.5
		c0.4,0,0.5,0.2,0.5,0.5C500.2,309,500.2,309,500.2,309.1z"/>
	<path class="st3" d="M506.5,308.7c0.3,0,0.6,0.1,0.5,0.6l-2.9,16.3c-0.1,0.3-0.2,0.7-0.7,0.7h-2.9c-0.4,0-0.6-0.2-0.5-0.7l2.9-16.3
		c0.1-0.3,0.3-0.6,0.7-0.6H506.5z M507.7,302.3c0.4,0,0.6,0.2,0.5,0.6l-0.5,2.7c-0.1,0.3-0.4,0.6-0.7,0.6h-3c-0.3,0-0.6-0.3-0.6-0.6
		l0.5-2.7c0.1-0.3,0.3-0.6,0.7-0.6H507.7z"/>
	<path class="st3" d="M532.5,315l-1.9,10.6c-0.1,0.3-0.2,0.7-0.7,0.7H527c-0.4,0-0.6-0.2-0.5-0.7l1.9-10.6c0.1-0.6,0.2-1.1,0.2-1.4
		c0-1.2-0.5-1.6-1.9-1.6c-0.6,0-1.9,0.2-3.2,0.8c0,0.7,0,1.5-0.2,2.2l-1.9,10.6c-0.1,0.3-0.2,0.7-0.7,0.7h-2.9
		c-0.4,0-0.6-0.2-0.5-0.7l1.9-10.6c0.1-0.6,0.2-1.1,0.2-1.5c0-1.2-0.5-1.5-1.8-1.5c-0.7,0-1.7,0.3-3.1,1l-2.2,12.6
		c-0.1,0.3-0.2,0.7-0.7,0.7h-2.9c-0.4,0-0.6-0.2-0.5-0.7l2.9-16.3c0.1-0.3,0.4-0.6,0.7-0.6h2.7c0.4,0,0.6,0.3,0.5,0.6l-0.1,0.7
		c1.4-0.8,2.8-1.5,4.6-1.5s2.8,0.7,3.3,1.5c1.6-1,3.3-1.5,5.5-1.5c3,0,4.3,1.7,4.3,4.6C532.7,313.6,532.7,314.3,532.5,315z"/>
	<path class="st3" d="M550.5,309.3c0.6,0.2,0.8,0.3,0.7,0.8l-2.7,15.5c-0.1,0.3-0.4,0.6-0.7,0.6h-2.5c-0.4,0-0.6-0.3-0.5-0.6
		l0.1-0.9c-1.7,1.3-3.3,1.8-4.8,1.8c-2.9,0-5.1-1.8-5.1-5.5c0-0.9,0.1-1.9,0.2-2.5l0.4-2.2c0.8-4.9,3.8-7.8,8.9-7.8
		C546.4,308.5,548.7,308.8,550.5,309.3z M543.8,311.8c-2.7,0-3.7,1.9-4.1,4.5l-0.5,2.6c-0.2,1.1-0.2,1.6-0.2,2
		c0,1.8,0.9,2.2,2.1,2.2c1.2,0,2.5-0.5,3.9-1.3l1.7-9.8C546.2,311.9,544.9,311.8,543.8,311.8z"/>
	<path class="st3" d="M569,308.7c0.6,0,0.6,0.4,0.4,0.7l-6.4,14.2c-1,2.3-2.8,2.9-4.4,2.9c-1.6,0-3.2-0.6-3.4-2.9l-1.4-14.2
		c-0.1-0.5,0.2-0.7,0.6-0.7h3c0.3,0,0.5,0.2,0.5,0.6l0.7,13.1c0,0.6,0.2,0.8,0.5,0.8s0.5-0.2,0.7-0.8l5.3-13.1
		c0.2-0.6,0.6-0.6,0.8-0.6H569z"/>
	<path class="st3" d="M585.4,316.6l-0.2,1.5c-0.1,0.5-0.3,0.8-0.7,0.8h-10.2c-0.1,0.4-0.2,0.8-0.2,1.3c0,1.7,0.9,2.8,3.2,2.8
		s4.4-0.2,5.8-0.3c0.4,0,0.7,0.1,0.6,0.5l-0.4,2.1c-0.1,0.5-0.2,0.7-0.8,0.8c-2.1,0.4-3.5,0.5-6.3,0.5s-6.1-1.6-6.1-6.3
		c0-0.6,0-1.2,0.2-1.9l0.3-1.9c1-5.8,4.1-8,8.9-8c4.1,0,6.1,2.7,6.1,6.4C585.5,315.4,585.5,316,585.4,316.6z M578.8,312
		c-2.5,0-3.6,1.7-4.1,4h6.6c0.1-0.4,0.1-0.8,0.1-1.2C581.5,313,580.5,312,578.8,312z"/>
	<path class="st3" d="M599.3,309.1l-0.4,2.2c-0.1,0.3-0.2,0.6-0.7,0.6c-1,0-2.4,0.1-4.5,1.1l-2.2,12.5c-0.1,0.3-0.2,0.7-0.7,0.7
		h-2.9c-0.4,0-0.6-0.2-0.5-0.7l2.9-16.3c0.1-0.3,0.2-0.6,0.7-0.6h2.7c0.4,0,0.6,0.2,0.5,0.6l-0.1,0.7c1.8-1.4,3.4-1.5,4.7-1.5
		c0.4,0,0.5,0.2,0.5,0.5C599.3,309,599.3,309,599.3,309.1z"/>
	<path class="st3" d="M614.8,309.3c0.6,0.2,0.8,0.3,0.7,0.8l-2.7,15.5c-0.1,0.3-0.4,0.6-0.7,0.6h-2.5c-0.4,0-0.6-0.3-0.5-0.6
		l0.1-0.9c-1.7,1.3-3.3,1.8-4.8,1.8c-2.9,0-5.1-1.8-5.1-5.5c0-0.9,0.1-1.9,0.2-2.5l0.4-2.2c0.8-4.9,3.8-7.8,8.9-7.8
		C610.7,308.5,613,308.8,614.8,309.3z M608.1,311.8c-2.7,0-3.7,1.9-4.1,4.5l-0.5,2.6c-0.2,1.1-0.2,1.6-0.2,2c0,1.8,0.9,2.2,2.1,2.2
		c1.2,0,2.5-0.5,3.9-1.3l1.7-9.8C610.5,311.9,609.2,311.8,608.1,311.8z"/>
	<path class="st3" d="M638.1,314.8l-3.1,1.9c-3.7,2.2-4.5,3-5.1,6h9.8c0.3,0,0.6,0.1,0.5,0.6l-0.4,2.4c-0.1,0.3-0.2,0.6-0.7,0.6
		h-13.2c-0.4,0-0.6-0.2-0.5-0.6l0.5-3.1c0.7-4.2,2.7-6.3,6.2-8.4l3.5-2.1c1.9-1.2,3.6-1.7,3.6-3.9c0-1.6-1.2-2-3.3-2
		c-1.8,0-4.4,0.3-6.3,0.5c-0.4,0-0.6-0.1-0.5-0.6l0.3-1.9c0.1-0.3,0.3-0.5,0.7-0.6c1.7-0.4,4.4-0.8,6.4-0.8c4.5,0,6.8,1.7,6.8,4.8
		C643.2,311,641.5,312.8,638.1,314.8z"/>
	<path class="st3" d="M662.6,313.5l-0.4,2.3c-1.4,8-4.6,10.7-10,10.7c-4,0-6.6-2.5-6.6-7.5c0-1,0.1-2,0.3-3.2l0.4-2.3
		c1.5-8.3,4.8-10.7,10-10.7c4,0,6.6,2.2,6.6,7.3C662.9,311.2,662.8,312.3,662.6,313.5z M655.7,306.4c-2.2,0-4.1,1.5-5.1,7.2
		l-0.4,2.3c-0.2,1.3-0.3,2.3-0.3,3.2c0,3,1.2,3.9,2.9,3.9c2.2,0,4.1-1.5,5.1-7.1l0.4-2.3c0.2-1.3,0.3-2.3,0.3-3.2
		C658.6,307.3,657.4,306.4,655.7,306.4z"/>
	<path class="st3" d="M666.1,326.3c-0.3,0-0.6-0.3-0.5-0.6l0.4-2.4c0.1-0.3,0.4-0.6,0.7-0.6h4.2l2.7-15.3l-4.3,1.2
		c-0.2,0.1-0.3,0.1-0.4,0.1c-0.2,0-0.3-0.1-0.3-0.4l0.5-2.9c0-0.2,0.1-0.3,0.3-0.3l5.8-1.8c0.2-0.1,0.4-0.1,0.7-0.1h2.1
		c0.3,0,0.5,0.2,0.5,0.6l-3.3,19h4.2c0.3,0,0.6,0.2,0.5,0.6l-0.4,2.4c-0.1,0.3-0.4,0.6-0.7,0.6h-12.7V326.3z"/>
	<path class="st3" d="M702.1,303.7l-0.4,2.4c-0.1,0.3-0.4,0.6-0.7,0.6h-8.5l-1.4,5.2h0.7c4.6,0,8.6,1.1,8.6,6.4
		c0,4.9-2.8,8.3-9.5,8.3c-1.8,0-4.2-0.3-5.9-0.8c-0.4-0.1-0.5-0.3-0.5-0.7l0.3-1.8c0.1-0.3,0.2-0.7,0.7-0.6c2.4,0.3,3.9,0.4,5.7,0.4
		c4,0,4.7-2.5,4.7-4.8c0-3-2.5-3-5-3h-4.2c-0.3,0-0.4-0.3-0.3-0.5l3-11.1c0.1-0.3,0.4-0.6,0.7-0.6h11.3
		C701.8,303.1,702.1,303.3,702.1,303.7C702.1,303.6,702.1,303.6,702.1,303.7L702.1,303.7z"/>
</g>
<g>
	<path class="st3" d="M221.5,404.3l-0.7,4.2c-1.2,7.3-5.1,9.7-10.6,9.7c-4.5,0-7.4-2.5-7.4-7.3c0-0.7,0.1-1.5,0.2-2.4l0.7-4.2
		c1.2-7.3,5.1-9.7,10.6-9.7c4.5,0,7.4,2.7,7.4,7.4C221.7,402.7,221.6,403.5,221.5,404.3z M213.7,398.4c-3.2,0-4.9,1.7-5.6,6
		l-0.7,4.2c-0.2,0.9-0.2,1.7-0.2,2.3c0,2.7,1.2,3.6,3.7,3.6c3.3,0,4.9-1.9,5.6-6l0.7-4.2c0.2-0.9,0.2-1.7,0.2-2.3
		C217.4,399.3,216.1,398.4,213.7,398.4z"/>
	<path class="st3" d="M232.2,396.8c0.4-0.1,0.6,0.2,0.6,0.5l-0.6,3.2h2.8c0.3,0,0.6,0.1,0.5,0.6l-0.3,1.8c-0.1,0.4-0.2,0.6-0.7,0.6
		h-2.8l-1.7,9.8c-0.1,0.5-0.2,0.8-0.2,1.1c0,0.6,0.3,0.7,1.1,0.7h1.7c0.3,0,0.6,0,0.6,0.5l-0.3,2c-0.1,0.3-0.3,0.5-0.7,0.6
		c-0.8,0.1-1.5,0.2-2.2,0.2c-2.7,0-4.2-0.9-4.2-3.4c0-0.5,0.1-1,0.2-1.5l1.7-9.8l-2.9-0.4c-0.4-0.1-0.6-0.3-0.5-0.6l0.3-1.4
		c0.1-0.3,0.2-0.6,0.7-0.6h2.9l0.5-2.6c0.1-0.3,0.4-0.6,0.7-0.6L232.2,396.8z"/>
	<path class="st3" d="M251.6,408l-0.5,2.5c-1,5.1-3.9,7.8-8.8,7.8c-4.2,0-6.2-3-6.2-6.3c0-0.5,0-1,0.1-1.5l0.5-2.5
		c0.9-5.1,3.9-7.8,8.8-7.8c4.3,0,6.2,2.9,6.2,6.1C251.7,406.9,251.7,407.5,251.6,408z M244.9,403.8c-1.9,0-3.5,1.1-4.1,4.2l-0.5,2.5
		c-0.1,0.5-0.1,1-0.1,1.4c0,1.8,0.9,2.8,2.7,2.8c2.2,0,3.5-1.3,4.1-4.2l0.5-2.5c0.1-0.5,0.1-1,0.1-1.4
		C247.6,404.8,246.7,403.8,244.9,403.8z"/>
	<path class="st3" d="M269.6,407.2l-1.8,10.2c-0.1,0.3-0.4,0.7-0.7,0.7h-2.9c-0.3,0-0.5-0.2-0.5-0.5v-0.1l1.8-10.2
		c0.1-0.8,0.2-1.4,0.2-1.9c0-1.2-0.5-1.6-2.2-1.6c-1.1,0-2.3,0.4-3.7,1.1l-2.2,12.5c-0.1,0.3-0.4,0.7-0.7,0.7H254
		c-0.3,0-0.5-0.2-0.5-0.5v-0.1l2.9-16.3c0.1-0.3,0.4-0.6,0.7-0.6h2.7c0.3,0,0.5,0.2,0.5,0.5c0,0,0,0,0,0.1l0,0l-0.1,0.7
		c2-1.2,3.3-1.5,5.2-1.5c3.4,0,4.5,2,4.5,4.7C269.9,405.6,269.8,406.4,269.6,407.2z M270.5,394.3l-0.1,0.7c-0.4,2.4-1.4,3.6-3.9,3.6
		c-0.7,0-1.6-0.3-2.2-0.8l-1.2-1c-0.5-0.4-0.8-0.7-1.2-0.7c-0.5,0-0.9,0.2-1.1,1.1l-0.1,0.7c-0.1,0.3-0.2,0.5-0.5,0.5h-1.8
		c-0.2,0-0.4-0.1-0.4-0.3c0-0.1,0-0.1,0-0.2l0.1-0.7c0.5-2.5,1.7-3.6,3.9-3.6c0.7,0,1.6,0.2,2.2,0.8l1.2,1c0.5,0.4,0.8,0.6,1.2,0.6
		c0.6,0,0.9-0.2,1-1l0.1-0.7c0.1-0.3,0.2-0.5,0.5-0.5h1.8c0.2,0,0.4,0.1,0.4,0.3C270.5,394.2,270.5,394.2,270.5,394.3z"/>
	<path class="st3" d="M288,408l-0.5,2.5c-1,5.1-3.9,7.8-8.8,7.8c-4.2,0-6.2-3-6.2-6.3c0-0.5,0-1,0.1-1.5l0.5-2.5
		c0.9-5.1,3.9-7.8,8.8-7.8c4.3,0,6.2,2.9,6.2,6.1C288.1,406.9,288,407.5,288,408z M281.2,403.8c-1.9,0-3.5,1.1-4.1,4.2l-0.5,2.5
		c-0.1,0.5-0.1,1-0.1,1.4c0,1.8,0.9,2.8,2.7,2.8c2.2,0,3.5-1.3,4.1-4.2l0.5-2.5c0.1-0.5,0.1-1,0.1-1.4
		C284,404.8,283.1,403.8,281.2,403.8z"/>
	<path class="st3" d="M311.4,406.6l-3.1,1.9c-3.7,2.2-4.5,3-5.1,6h9.8c0.3,0,0.6,0.1,0.5,0.6l-0.4,2.4c-0.1,0.3-0.2,0.6-0.7,0.6
		h-13.2c-0.4,0-0.6-0.2-0.5-0.6l0.5-3.1c0.7-4.2,2.7-6.3,6.2-8.4l3.5-2.1c1.9-1.2,3.6-1.7,3.6-3.9c0-1.6-1.2-2-3.3-2
		c-1.8,0-4.4,0.3-6.3,0.5c-0.4,0-0.6-0.1-0.5-0.6l0.3-1.9c0.1-0.3,0.3-0.5,0.7-0.6c1.7-0.4,4.4-0.8,6.4-0.8c4.5,0,6.8,1.7,6.8,4.8
		C316.5,402.7,314.8,404.6,311.4,406.6z"/>
	<path class="st3" d="M335.9,405.3l-0.4,2.3c-1.4,8-4.6,10.7-10,10.7c-4,0-6.6-2.5-6.6-7.5c0-1,0.1-2,0.3-3.2l0.4-2.3
		c1.5-8.3,4.8-10.7,10-10.7c4,0,6.6,2.2,6.6,7.3C336.2,402.9,336.1,404.1,335.9,405.3z M329,398.1c-2.2,0-4.1,1.5-5.1,7.2l-0.4,2.3
		c-0.2,1.3-0.3,2.3-0.3,3.2c0,3,1.2,3.9,2.9,3.9c2.2,0,4.1-1.5,5.1-7.1l0.4-2.3c0.2-1.3,0.3-2.3,0.3-3.2
		C331.9,399,330.7,398.1,329,398.1z"/>
	<path class="st3" d="M339.4,418c-0.3,0-0.6-0.3-0.5-0.6l0.4-2.4c0.1-0.3,0.4-0.6,0.7-0.6h4.2l2.7-15.3l-4.3,1.2
		c-0.2,0.1-0.3,0.1-0.4,0.1c-0.2,0-0.3-0.1-0.3-0.4l0.5-2.9c0-0.2,0.1-0.3,0.3-0.3l5.8-1.8c0.2-0.1,0.4-0.1,0.7-0.1h2.1
		c0.3,0,0.5,0.2,0.5,0.6l-3.3,19h4.2c0.3,0,0.6,0.2,0.5,0.6l-0.4,2.4c-0.1,0.3-0.4,0.6-0.7,0.6h-12.7V418z"/>
	<path class="st3" d="M375.4,395.4l-0.4,2.4c-0.1,0.3-0.4,0.6-0.7,0.6h-8.5l-1.4,5.2h0.7c4.6,0,8.6,1.1,8.6,6.4
		c0,4.9-2.8,8.3-9.5,8.3c-1.8,0-4.2-0.3-5.9-0.8c-0.4-0.1-0.5-0.3-0.5-0.7l0.3-1.8c0.1-0.3,0.2-0.7,0.7-0.6c2.4,0.3,3.9,0.4,5.7,0.4
		c4,0,4.7-2.5,4.7-4.8c0-3-2.5-3-5-3H360c-0.3,0-0.4-0.3-0.3-0.5l3-11.1c0.1-0.3,0.4-0.6,0.7-0.6h11.3
		C375.1,394.9,375.4,395.1,375.4,395.4L375.4,395.4L375.4,395.4z"/>
</g>
</svg>
