<?xml version="1.0" encoding="utf-8"?>
<!-- Generator: Adobe Illustrator 19.2.1, SVG Export Plug-In . SVG Version: 6.00 Build 0)  -->
<svg version="1.1" id="Capa_1" xmlns="http://www.w3.org/2000/svg" xmlns:xlink="http://www.w3.org/1999/xlink" x="0px" y="0px"
	 viewBox="0 0 500 250.9" style="enable-background:new 0 0 500 250.9;" xml:space="preserve">
<style type="text/css">
	.st0{fill:#590079;}
	.st1{fill:#F000A6;}
</style>
<g>
	<g>
		<path class="st0" d="M59.9,25.9c-1.5,8.7-7.4,13.3-17,18.4c-6.4,3.4-11.5,6.2-13.7,9.6h23.1c0.8,0,1.4,0.6,1.4,1.4
			c0,0.1,0,0.2,0,0.2l-2.2,12.8c-0.2,0.9-1.1,1.6-2,1.6h-39c-0.8,0-1.4-0.6-1.4-1.4c0-0.1,0-0.2,0-0.2l1.5-8.8
			c2.2-12.5,10.4-19,19-24.2c10-6,10.8-5.9,11.3-8.4c0-0.2,0.1-0.5,0.1-0.6c0-1.2-1-1.8-6.3-1.8c-5.2,0-10.6,0.8-15.7,0.8h-0.1
			c-0.7,0-1.2-0.6-1.2-1.3c0-0.1,0-0.2,0-0.2v-0.1l1.6-9.2c0.2-0.9,1-1.3,1.8-1.6c5.5-1.9,12.4-3.4,19.7-3.4
			c14.2,0,19.4,5.8,19.4,13.3C60.3,23.8,60.1,24.8,59.9,25.9z"/>
		<path class="st0" d="M113.2,14.1l-1.8,10c-0.2,1.1-0.8,1.6-1.8,1.6c-0.1,0-0.2,0-0.4,0c-3.7-0.5-10.1-1.1-14.8-1.1
			c-5.2,0-6.6,0.9-7.8,6.7l-0.1,0.4c1-0.2,4.7-0.6,6-0.6c10.3,0,17.6,3.9,17.6,14c0,16.5-9.4,25.7-26.4,25.7
			c-13.3,0-19.2-8.1-19.2-17.3c0-1.3,0.1-2.6,0.3-3.9l3.2-18.3c3.1-18,14.9-21.8,26.3-21.8c7.7,0,13.1,1.1,17.4,2.5
			c1,0.3,1.4,0.7,1.4,1.5C113.3,13.7,113.2,13.9,113.2,14.1z M88.5,43.5c-1.7,0-3.1,0.2-3.9,0.2l-1,5.9c-0.2,1.4-0.3,2.5-0.3,3.4
			c0,3.1,1.2,3.9,3,3.9c4.3,0,5.5-4.7,5.5-10C91.6,44.3,90.5,43.5,88.5,43.5z"/>
	</g>
	<g>
		<path class="st0" d="M23.9,167.2l4.3-25l-10.1,3.1c-0.5,0.2-0.8,0.2-1,0.2c-0.6,0-0.7-0.3-0.6-1l2.4-13.6c0.2-0.8,0.6-1.3,1.4-1.6
			l15.6-5.5c0.6-0.2,1.1-0.4,1.8-0.4h11.2c0.9,0,1.4,0.7,1.3,1.6l-7.4,42.1h9.7c0.9,0,1.5,0.7,1.4,1.6l-2.2,12.8
			c-0.2,0.9-1,1.6-1.9,1.6H11.3c-0.9,0-1.6-0.7-1.4-1.6l2.2-12.8c0.2-0.9,1.1-1.6,2-1.6H23.9z"/>
		<path class="st0" d="M77.7,167.2l4.3-25l-10.1,3.1c-0.5,0.2-0.8,0.2-1,0.2c-0.6,0-0.7-0.3-0.6-1l2.4-13.6c0.2-0.8,0.6-1.3,1.4-1.6
			l15.6-5.5c0.6-0.2,1.1-0.4,1.8-0.4h11.2c0.9,0,1.4,0.7,1.3,1.6l-7.4,42.1h9.7c0.9,0,1.5,0.7,1.4,1.6l-2.2,12.8
			c-0.2,0.9-1,1.6-1.9,1.6H65.2c-0.9,0-1.6-0.7-1.4-1.6l2.2-12.8c0.2-0.9,1.1-1.6,2-1.6H77.7z"/>
		<path class="st0" d="M166.6,149l-1.5,8.8c-3.1,17.8-12.8,26.3-27.7,26.3c-12.5,0-19.1-5.9-19.1-18.3c0-2.4,0.2-5.1,0.7-8l1.5-8.8
			c3.1-17.8,12.8-26.3,27.7-26.3c12.5,0,19.1,5.9,19.1,18.3C167.3,143.5,167.1,146.1,166.6,149z M145.3,138.9
			c-2.4,0-4.3,1.2-5.8,10.1l-1.5,8.8c-0.5,2.6-0.6,4.6-0.6,6c0,3.5,1.2,4.1,2.9,4.1c2.4,0,4.3-1.2,5.8-10.1l1.5-8.8
			c0.5-2.6,0.6-4.6,0.6-6C148.2,139.4,147,138.9,145.3,138.9z"/>
	</g>
	<g>
		<path class="st0" d="M217.3,167.2l4.3-25l-10.1,3.1c-0.5,0.2-0.8,0.2-1,0.2c-0.6,0-0.7-0.3-0.6-1l2.4-13.6
			c0.2-0.8,0.6-1.3,1.4-1.6l15.6-5.5c0.6-0.2,1.1-0.4,1.8-0.4h11.2c0.9,0,1.4,0.7,1.3,1.6l-7.4,42.1h9.7c0.9,0,1.5,0.7,1.4,1.6
			l-2.2,12.8c-0.2,0.9-1,1.6-1.9,1.6h-38.3c-0.9,0-1.6-0.7-1.4-1.6l2.2-12.8c0.2-0.9,1.1-1.6,2-1.6H217.3z"/>
		<path class="st0" d="M306.2,149l-1.5,8.8c-3.1,17.8-12.8,26.3-27.7,26.3c-12.5,0-19.1-5.9-19.1-18.3c0-2.4,0.2-5.1,0.7-8l1.5-8.8
			c3.1-17.8,12.8-26.3,27.7-26.3c12.5,0,19.1,5.9,19.1,18.3C307,143.5,306.7,146.1,306.2,149z M284.9,138.9c-2.4,0-4.3,1.2-5.8,10.1
			l-1.5,8.8c-0.5,2.6-0.6,4.6-0.6,6c0,3.5,1.2,4.1,2.9,4.1c2.4,0,4.3-1.2,5.8-10.1l1.5-8.8c0.5-2.6,0.6-4.6,0.6-6
			C287.8,139.4,286.6,138.9,284.9,138.9z"/>
	</g>
	<g>
		<path class="st0" d="M216.7,54l4.3-25l-10.1,3.1c-0.5,0.2-0.8,0.2-1,0.2c-0.6,0-0.7-0.3-0.6-1l2.4-13.6c0.2-0.8,0.6-1.3,1.4-1.6
			l15.6-5.5c0.6-0.2,1.1-0.4,1.8-0.4h11.2c0.9,0,1.4,0.7,1.3,1.6L235.5,54h9.7c0.9,0,1.5,0.7,1.4,1.6l-2.2,12.8
			c-0.2,0.9-1,1.6-1.9,1.6h-38.3c-0.9,0-1.6-0.7-1.4-1.6l2.2-12.8c0.2-0.9,1.1-1.6,2-1.6H216.7z"/>
		<path class="st0" d="M306.6,25.9c-1.5,8.7-7.4,13.3-17,18.4c-6.4,3.4-11.5,6.2-13.7,9.6h23.1c0.8,0,1.4,0.6,1.4,1.4
			c0,0.1,0,0.2,0,0.2l-2.2,12.8c-0.2,0.9-1.1,1.6-2,1.6h-39c-0.8,0-1.4-0.6-1.4-1.4c0-0.1,0-0.2,0-0.2l1.5-8.8
			c2.2-12.5,10.4-19,19-24.2c10-6,10.8-5.9,11.3-8.4c0-0.2,0.1-0.5,0.1-0.6c0-1.2-1-1.8-6.3-1.8c-5.2,0-10.6,0.8-15.7,0.8h-0.1
			c-0.7,0-1.2-0.6-1.2-1.3c0-0.1,0-0.2,0-0.2v-0.1l1.6-9.2c0.2-0.9,1-1.3,1.8-1.6c5.5-1.9,12.4-3.4,19.7-3.4
			c14.2,0,19.4,5.8,19.4,13.3C306.9,23.8,306.7,24.8,306.6,25.9z"/>
		<path class="st0" d="M326.2,56.1l-2.1,12.2c-0.2,0.9-1.1,1.6-2,1.6h-14c-0.8,0-1.4-0.6-1.4-1.4c0-0.1,0-0.2,0-0.2l2.1-12.2
			c0.2-0.9,1.1-1.6,2-1.6h14c0.8,0,1.4,0.6,1.4,1.4C326.2,56,326.2,56.1,326.2,56.1z"/>
		<path class="st0" d="M377.1,39.1c2.6,2.4,4.1,6.4,4.1,10c0,15.1-12.6,21.6-26.3,21.6h-1c-14.1,0-20.2-7.9-20.2-15.4
			c0-7.1,3.5-12.5,8.8-16.2c-2.8-2.7-3.9-6.5-3.9-9.4c0-15.6,11.8-20.2,25.7-20.2h1c14.3,0,19.8,7.1,19.8,14.5
			C385.1,30.4,382.3,35.7,377.1,39.1z M359.1,45.6h-1c-4.1,0-5.8,4.1-5.8,7.6c0,2.3,1.4,3.9,3.8,3.9h1c4.2,0,5.7-4.3,5.7-7.8
			C362.8,46.9,361.6,45.6,359.1,45.6z M363.1,23.2h-1c-3.7,0-5.5,2.7-5.5,6.3c0,2.4,1.5,3.5,3.7,3.5h1c3.8,0,5.4-2.5,5.4-5.9
			C366.7,25.3,366,23.2,363.1,23.2z"/>
		<path class="st0" d="M436.1,11.9l-5.7,32.5h4c0.8,0,1.4,0.6,1.4,1.4c0,0.1,0,0.2,0,0.2l-1.9,11c-0.2,0.9-1,1.6-1.9,1.6h-4
			l-1.7,9.8c-0.2,0.9-1,1.6-1.9,1.6h-15.7c-0.8,0-1.3-0.6-1.3-1.3c0-0.2,0-0.2,0-0.3l1.7-9.8h-21.5c-0.8,0-1.3-0.6-1.3-1.3
			c0-0.2,0-0.2,0-0.3l1.8-10.4c0.2-0.8,0.6-1.5,1.2-2.2l32.6-33.6c0.3-0.3,0.7-0.4,1.1-0.4c0.2,0,0.5,0,0.7,0h11.2
			c0.8,0,1.3,0.6,1.3,1.3C436.1,11.6,436.1,11.8,436.1,11.9z M402.1,44.3h10.3l2.3-13L402.1,44.3z"/>
		<path class="st0" d="M490.6,30.7L487.4,49c-3.1,18-14.9,21.8-26.3,21.8c-7.7,0-13.1-1.1-17.4-2.5c-1-0.3-1.4-0.7-1.4-1.5
			c0-0.2,0.1-0.4,0.1-0.6l1.8-10c0.2-1.1,0.8-1.6,1.8-1.6c0.1,0,0.2,0,0.4,0c3.7,0.5,10.1,1.1,14.8,1.1c5.2,0,6.6-0.9,7.8-6.7
			l0.1-0.4c-1,0.2-4.7,0.6-6,0.6c-10.3,0-17.6-3.9-17.6-14c0-16.5,9.4-25.7,26.4-25.7c13.3,0,19.2,8.1,19.2,17.3
			C490.9,28,490.8,29.3,490.6,30.7z M469.4,23.4c-4.3,0-5.5,4.7-5.5,10c0,2.6,1.1,3.4,3.1,3.4c1.7,0,3.1-0.2,3.9-0.2l1-5.9
			c0.2-1.4,0.3-2.5,0.3-3.4C472.3,24.2,471.1,23.4,469.4,23.4z"/>
	</g>
	<g>
		<path class="st1" d="M26.7,99.8h-5.2c-0.3,0-0.4-0.2-0.4-0.5l0-2.8h-3.8l-0.9,2.8c-0.1,0.3-0.3,0.5-0.6,0.5h-5.2
			c-0.2,0-0.3-0.1-0.3-0.3c0-0.1,0-0.1,0-0.2l5.6-15c0.9-2.5,3-3.2,6.1-3.2c3,0,4.8,0.7,4.9,3.2l0.3,15v0
			C27.2,99.6,27,99.8,26.7,99.8z M21.2,85.8c-0.2,0-0.2,0.1-0.3,0.3L19,91.9h2.3l0.1-5.8c0,0,0-0.1,0-0.1
			C21.3,85.8,21.3,85.8,21.2,85.8z"/>
		<path class="st1" d="M40.6,85.2c0.3,0.1,0.4,0.2,0.4,0.5l-0.6,3.4c-0.1,0.3-0.3,0.5-0.6,0.5h0c-0.8,0-1.7-0.1-2.7-0.1
			c-1,0-1.4,0.6-1.7,2.1l-0.3,1.6c-0.1,0.4-0.1,0.7-0.1,1c0,0.8,0.3,1.1,1,1.1c1,0,1.9-0.1,2.7-0.1c0.4,0,0.5,0.2,0.5,0.5l-0.6,3.4
			c0,0.3-0.3,0.4-0.6,0.5c-1,0.2-2.1,0.4-3.6,0.4c-3.5,0-5-2.2-5-5.1c0-0.5,0-1.1,0.1-1.6l0.3-1.6c0.8-4.6,3.2-6.8,7.3-6.8
			C38.7,84.8,40,85.1,40.6,85.2z"/>
		<path class="st1" d="M56.6,86.3l-2.3,13c0,0.3-0.1,0.5-0.5,0.5h-3.6c-0.4,0-0.5-0.2-0.5-0.5l0.1-0.7c-1.1,1-2.1,1.4-4.1,1.4
			c-2.7,0-4.4-1.7-4.4-4.6c0-0.8,0.1-1.2,0.1-1.7l0.4-2.3c0.9-5.4,4-6.6,8.1-6.6c1.9,0,3.9,0.3,5.8,0.6
			C56.3,85.5,56.7,85.7,56.6,86.3z M49.4,89.4c-1.1,0-1.6,0.4-1.9,2L47,93.9c-0.1,0.3-0.1,0.5-0.1,0.7c0,0.7,0.3,0.9,1,0.9
			c0.5,0,1.1-0.2,1.5-0.4l1-5.6C50.1,89.4,49.7,89.4,49.4,89.4z"/>
		<path class="st1" d="M72.9,80.4c0.3,0,0.6,0.1,0.5,0.5l-3.1,17.7c-0.1,0.4-0.3,0.7-1.2,0.9c-1.2,0.2-3.4,0.6-6,0.6
			c-3.6,0-5.8-2.3-5.8-5.4c0-0.4,0.1-0.8,0.1-1.2l0.3-1.9c0.8-4.7,3.4-6.6,7.7-6.6c0.6,0,1.3,0.1,1.6,0.1l0.7-4.1
			c0.1-0.3,0.2-0.5,0.6-0.5H72.9z M65,89.4c-1,0-1.4,0.6-1.7,2L63,93.4c-0.1,0.4-0.1,0.7-0.1,0.9c0,0.7,0.3,1.1,1.1,1.1
			c0.6,0,0.9,0,1.3-0.1l1-5.9C65.9,89.5,65.5,89.4,65,89.4z"/>
		<path class="st1" d="M87.1,91.8l-0.3,1.5c-0.1,0.3-0.3,0.5-0.6,0.5h-7.5c0,0.2-0.1,0.4-0.1,0.5c0,0.8,0.5,1,1.9,1
			c1.1,0,3.8-0.1,4.7-0.2c0.4,0,0.5,0.1,0.5,0.4l-0.5,2.6c-0.1,0.4-0.2,0.6-0.6,0.7c-1.4,0.5-3.9,0.9-5.9,0.9
			c-3.2,0-5.7-1.7-5.7-5.2c0-0.5,0-1,0.1-1.5l0.3-1.5c0.9-5.2,3.9-7,8.2-7c3.9,0,5.5,2.3,5.5,5.3C87.2,90.7,87.2,91.2,87.1,91.8z
			 M80.9,89c-1,0-1.5,0.7-1.7,2.1H82c0.1-0.3,0.1-0.6,0.1-0.8C82.1,89.5,81.8,89,80.9,89z"/>
		<path class="st1" d="M110,90.7l-1.5,8.5c-0.1,0.3-0.2,0.5-0.6,0.5h-4.5c-0.3,0-0.5-0.2-0.4-0.5l1.5-8.5c0-0.1,0.1-0.3,0.1-0.4
			c0-0.5-0.3-0.7-0.8-0.7c-0.3,0-0.7,0-1.1,0.1c0,0.4,0,0.5-0.1,0.9l-1.5,8.5c-0.1,0.3-0.2,0.5-0.6,0.5h-4.5c-0.4,0-0.5-0.3-0.4-0.5
			l1.5-8.5c0-0.2,0.1-0.3,0.1-0.4c0-0.5-0.3-0.6-0.8-0.6c-0.3,0-0.8,0-1.1,0.1l-1.7,9.4c0,0.3-0.1,0.5-0.6,0.5h-4.5
			c-0.3,0-0.5-0.1-0.5-0.5l2.4-13.6c0-0.3,0.1-0.5,0.6-0.5H95c0.3,0,0.5,0.2,0.4,0.5l-0.1,0.7c1.5-1.2,2.9-1.5,4.3-1.5
			c1.2,0,2.3,0.4,2.8,1.5c1.3-1.1,2.8-1.5,4.2-1.5c2.6,0,3.7,1.6,3.7,4C110.2,89.4,110.2,90,110,90.7z"/>
		<path class="st1" d="M111.1,99.2l2.4-13.6c0.1-0.3,0.2-0.5,0.7-0.5h4.5c0.5,0,0.5,0.2,0.4,0.5l-2.4,13.6c0,0.3-0.2,0.5-0.6,0.5
			h-4.5C111.3,99.8,111.1,99.5,111.1,99.2z M119.6,80.4c0.3,0,0.6,0.1,0.5,0.5l-0.4,2.5c0,0.3-0.2,0.5-0.7,0.5h-4.7
			c-0.4,0-0.5-0.2-0.5-0.5l0.4-2.5c0.1-0.3,0.2-0.5,0.6-0.5H119.6z"/>
		<path class="st1" d="M135,86.3l-2.3,13c0,0.3-0.1,0.5-0.5,0.5h-3.6c-0.4,0-0.5-0.2-0.5-0.5l0.1-0.7c-1.1,1-2.1,1.4-4.1,1.4
			c-2.7,0-4.4-1.7-4.4-4.6c0-0.8,0.1-1.2,0.1-1.7l0.4-2.3c0.9-5.4,4-6.6,8.1-6.6c1.9,0,3.9,0.3,5.8,0.6
			C134.8,85.5,135.1,85.7,135,86.3z M127.8,89.4c-1.1,0-1.6,0.4-1.9,2l-0.4,2.4c-0.1,0.3-0.1,0.5-0.1,0.7c0,0.7,0.3,0.9,1,0.9
			c0.5,0,1.1-0.2,1.5-0.4l1-5.6C128.5,89.4,128.1,89.4,127.8,89.4z"/>
		<path class="st1" d="M148.4,86l-0.6,3.2c0,0.3-0.1,0.6-0.6,0.5c-0.7-0.1-3.4-0.4-4.4-0.4c-0.2,0-0.6,0-0.6,0.3
			c0,0.2,0,0.3,0.5,0.5l2,1c2.2,1.2,2.5,2.5,2.5,3.8c0,3.6-3,5-7.3,5c-2.1,0-3.6-0.3-4.5-0.6c-0.3-0.1-0.4-0.3-0.4-0.5l0.5-3.1
			c0.1-0.4,0.2-0.6,0.7-0.6c1.6,0.2,3.4,0.5,4.2,0.5c0.4,0,1,0,1-0.6c0-0.1-0.1-0.3-0.5-0.5l-2.2-1.2c-1.5-0.8-2.2-2-2.2-3.5
			c0-4,3.2-5,6.6-5c1.8,0,3.6,0.4,4.6,0.7C148.3,85.6,148.5,85.7,148.4,86z"/>
	</g>
	<g>
		<path class="st1" d="M20.3,195l-3.1,17.5c-0.1,0.3-0.1,0.5-0.6,0.5h-4.9c-0.3,0-0.5-0.2-0.4-0.5l3.1-17.5c0.1-0.3,0.2-0.5,0.6-0.5
			h4.9C20.2,194.5,20.4,194.7,20.3,195z"/>
		<path class="st1" d="M35.3,203.8l-1.5,8.6c-0.1,0.3-0.1,0.5-0.6,0.5h-4.5c-0.3,0-0.5-0.1-0.4-0.5l1.5-8.6c0-0.1,0-0.3,0-0.4
			c0-0.5-0.4-0.8-1.1-0.8c-0.4,0-0.9,0.1-1.4,0.4l-1.7,9.5c0,0.3-0.1,0.5-0.6,0.5h-4.5c-0.3,0-0.5-0.2-0.5-0.5l2.4-13.6
			c0-0.3,0.3-0.5,0.6-0.5h4.1c0.4,0,0.5,0.2,0.4,0.5l-0.1,0.7c1.3-0.9,2.5-1.4,4.3-1.4c3.1,0,3.8,1.9,3.8,4
			C35.4,202.7,35.4,203.3,35.3,203.8z"/>
		<path class="st1" d="M49.4,199.3l-0.6,3.2c0,0.3-0.1,0.6-0.6,0.5c-0.7-0.1-3.4-0.4-4.4-0.4c-0.2,0-0.6,0-0.6,0.3
			c0,0.2,0,0.3,0.5,0.5l2,1c2.2,1.2,2.5,2.5,2.5,3.8c0,3.6-3,5-7.3,5c-2.1,0-3.6-0.3-4.5-0.6c-0.3-0.1-0.4-0.3-0.4-0.5l0.5-3.1
			c0.1-0.4,0.2-0.6,0.7-0.6c1.6,0.2,3.4,0.5,4.2,0.5c0.4,0,1,0,1-0.6c0-0.1-0.1-0.3-0.5-0.5l-2.2-1.2c-1.5-0.8-2.2-2-2.2-3.5
			c0-4,3.2-5,6.6-5c1.8,0,3.6,0.4,4.6,0.7C49.4,198.8,49.5,198.9,49.4,199.3z"/>
		<path class="st1" d="M60.6,198.3c0.4,0,0.6,0.1,0.5,0.5l-0.5,3c0,0.3-0.2,0.5-0.6,0.5h-1.8l-1.1,6.1c0,0.1-0.1,0.3-0.1,0.4
			c0,0.2,0.1,0.3,0.4,0.3h1.2c0.3,0,0.5,0.1,0.4,0.5l-0.5,2.7c-0.1,0.3-0.1,0.5-0.6,0.5c-1,0.2-1.6,0.2-2.7,0.2
			c-1.7,0-3.9-0.7-3.9-3.6c0-0.4,0.1-0.8,0.1-1.2l1-6l-1.4-0.2c-0.3,0-0.5-0.1-0.4-0.5l0.5-2.8c0.1-0.3,0.2-0.5,0.6-0.5h1.4l0.3-2
			c0.1-0.3,0.1-0.4,0.6-0.5l4.5-0.7c0.5-0.1,0.7,0.1,0.6,0.5l-0.5,2.8H60.6z"/>
		<path class="st1" d="M71.6,198.1c0.4,0,0.6,0.1,0.5,0.5l-0.6,3.5c0,0.3-0.1,0.5-0.6,0.5h-0.2c-1.5,0-2.3,0.1-2.9,0.4l-1.7,9.5
			c-0.1,0.3-0.1,0.5-0.6,0.5h-4.5c-0.3,0-0.5-0.1-0.5-0.5l2.4-13.6c0.1-0.3,0.2-0.5,0.6-0.5h3.9c0.3,0,0.5,0.1,0.4,0.5l-0.1,0.7
			c1-1.2,2.4-1.5,3.6-1.5H71.6z"/>
		<path class="st1" d="M87.7,198.9l-2.4,13.6c0,0.3-0.1,0.5-0.6,0.5h-4.1c-0.3,0-0.5-0.1-0.4-0.5l0.1-0.7c-1.2,0.8-2.1,1.4-4.1,1.4
			c-2.8,0-3.9-2-3.9-4.3c0-0.5,0-1,0.1-1.5l1.5-8.6c0-0.3,0.3-0.5,0.6-0.5h4.5c0.3,0,0.5,0.2,0.4,0.5l-1.4,8.2
			c-0.1,0.3-0.1,0.6-0.1,0.7c0,0.7,0.4,0.9,1.1,0.9c0.4,0,0.9-0.1,1.4-0.4l1.7-9.5c0-0.3,0.2-0.5,0.6-0.5h4.5
			C87.5,198.3,87.8,198.4,87.7,198.9z"/>
		<path class="st1" d="M99.5,198.5c0.3,0.1,0.4,0.2,0.4,0.5l-0.6,3.4c0,0.3-0.3,0.5-0.6,0.5h0c-0.8,0-1.7-0.1-2.7-0.1
			c-1,0-1.4,0.6-1.7,2.1l-0.3,1.6c-0.1,0.4-0.1,0.7-0.1,1c0,0.8,0.3,1.1,1,1.1c1,0,1.9-0.1,2.7-0.1c0.4,0,0.5,0.2,0.5,0.5l-0.6,3.4
			c-0.1,0.3-0.3,0.4-0.6,0.5c-1,0.2-2.1,0.4-3.6,0.4c-3.5,0-5-2.2-5-5.1c0-0.5,0.1-1.1,0.1-1.6l0.3-1.6c0.8-4.6,3.2-6.8,7.3-6.8
			C97.5,198.1,98.8,198.3,99.5,198.5z"/>
		<path class="st1" d="M110.6,198.3c0.4,0,0.6,0.1,0.5,0.5l-0.5,3c-0.1,0.3-0.2,0.5-0.6,0.5h-1.8l-1.1,6.1c0,0.1,0,0.3,0,0.4
			c0,0.2,0.1,0.3,0.4,0.3h1.2c0.3,0,0.5,0.1,0.4,0.5l-0.5,2.7c-0.1,0.3-0.1,0.5-0.6,0.5c-1,0.2-1.6,0.2-2.7,0.2
			c-1.7,0-3.9-0.7-3.9-3.6c0-0.4,0.1-0.8,0.1-1.2l1-6l-1.4-0.2c-0.3,0-0.5-0.1-0.4-0.5l0.5-2.8c0-0.3,0.2-0.5,0.6-0.5h1.4l0.3-2
			c0-0.3,0.1-0.4,0.6-0.5l4.5-0.7c0.5-0.1,0.7,0.1,0.6,0.5l-0.5,2.8H110.6z"/>
		<path class="st1" d="M125.2,205.1l-0.2,1.1c-0.9,5.3-3.8,7-8.1,7c-3.7,0-5.8-2-5.8-5.3c0-0.5,0-1.1,0.1-1.7l0.2-1.1
			c0.9-5.2,3.8-7,8.1-7c3.7,0,5.8,1.8,5.8,5.3C125.4,203.9,125.3,204.5,125.2,205.1z M118.8,202.7c-0.8,0-1.4,0.7-1.7,2.4l-0.2,1.1
			c-0.1,0.5-0.1,0.8-0.1,1.2c0,1,0.4,1.3,1,1.3c0.8,0,1.4-0.5,1.7-2.4l0.2-1.1c0.1-0.5,0.1-0.8,0.1-1.2
			C119.8,203,119.4,202.7,118.8,202.7z"/>
		<path class="st1" d="M137,198.1c0.4,0,0.6,0.1,0.5,0.5l-0.6,3.5c0,0.3-0.1,0.5-0.6,0.5h-0.2c-1.5,0-2.3,0.1-2.9,0.4l-1.7,9.5
			c0,0.3-0.1,0.5-0.6,0.5h-4.5c-0.3,0-0.5-0.1-0.5-0.5l2.4-13.6c0-0.3,0.2-0.5,0.6-0.5h3.9c0.3,0,0.5,0.1,0.4,0.5l-0.1,0.7
			c1-1.2,2.4-1.5,3.6-1.5H137z"/>
		<path class="st1" d="M151.2,205.1l-0.3,1.5c-0.1,0.3-0.3,0.5-0.6,0.5h-7.5c0,0.2,0,0.4,0,0.5c0,0.8,0.5,1,1.9,1
			c1.1,0,3.8-0.1,4.7-0.2c0.4,0,0.5,0.1,0.5,0.4l-0.5,2.6c-0.1,0.4-0.2,0.6-0.6,0.7c-1.4,0.5-3.9,0.9-5.9,0.9
			c-3.2,0-5.7-1.7-5.7-5.2c0-0.5,0-1,0.1-1.5l0.3-1.5c0.9-5.2,3.9-7,8.2-7c3.9,0,5.5,2.3,5.5,5.3
			C151.3,203.9,151.3,204.5,151.2,205.1z M145,202.3c-1,0-1.5,0.7-1.7,2.1h2.8c0.1-0.3,0.1-0.6,0.1-0.8
			C146.2,202.7,145.9,202.3,145,202.3z"/>
		<path class="st1" d="M165,199.3l-0.6,3.2c-0.1,0.3-0.1,0.6-0.6,0.5c-0.7-0.1-3.4-0.4-4.4-0.4c-0.2,0-0.6,0-0.6,0.3
			c0,0.2,0.1,0.3,0.5,0.5l2,1c2.2,1.2,2.5,2.5,2.5,3.8c0,3.6-3,5-7.3,5c-2.1,0-3.6-0.3-4.5-0.6c-0.3-0.1-0.4-0.3-0.4-0.5l0.5-3.1
			c0.1-0.4,0.2-0.6,0.7-0.6c1.6,0.2,3.4,0.5,4.2,0.5c0.4,0,1,0,1-0.6c0-0.1-0.1-0.3-0.5-0.5l-2.2-1.2c-1.5-0.8-2.2-2-2.2-3.5
			c0-4,3.2-5,6.6-5c1.8,0,3.6,0.4,4.6,0.7C164.9,198.8,165.1,198.9,165,199.3z"/>
	</g>
	<g>
		<path class="st1" d="M213.8,195l-3.1,17.5c-0.1,0.3-0.1,0.5-0.6,0.5h-4.9c-0.3,0-0.5-0.2-0.4-0.5l3.1-17.5c0-0.3,0.2-0.5,0.6-0.5
			h4.9C213.7,194.5,213.8,194.7,213.8,195z"/>
		<path class="st1" d="M228.7,203.8l-1.5,8.6c-0.1,0.3-0.1,0.5-0.6,0.5h-4.5c-0.3,0-0.5-0.1-0.4-0.5l1.5-8.6c0-0.1,0-0.3,0-0.4
			c0-0.5-0.4-0.8-1.1-0.8c-0.4,0-0.9,0.1-1.4,0.4l-1.7,9.5c-0.1,0.3-0.1,0.5-0.6,0.5h-4.5c-0.3,0-0.5-0.2-0.5-0.5l2.4-13.6
			c0.1-0.3,0.3-0.5,0.6-0.5h4.1c0.4,0,0.5,0.2,0.4,0.5l-0.1,0.7c1.3-0.9,2.5-1.4,4.3-1.4c3.1,0,3.8,1.9,3.8,4
			C228.9,202.7,228.8,203.3,228.7,203.8z"/>
		<path class="st1" d="M242.9,199.3l-0.6,3.2c-0.1,0.3-0.1,0.6-0.6,0.5c-0.7-0.1-3.4-0.4-4.4-0.4c-0.2,0-0.6,0-0.6,0.3
			c0,0.2,0.1,0.3,0.5,0.5l2,1c2.2,1.2,2.5,2.5,2.5,3.8c0,3.6-3,5-7.3,5c-2.1,0-3.6-0.3-4.5-0.6c-0.3-0.1-0.4-0.3-0.4-0.5l0.5-3.1
			c0.1-0.4,0.2-0.6,0.7-0.6c1.6,0.2,3.4,0.5,4.2,0.5c0.4,0,1,0,1-0.6c0-0.1-0.1-0.3-0.5-0.5l-2.2-1.2c-1.5-0.8-2.2-2-2.2-3.5
			c0-4,3.2-5,6.6-5c1.8,0,3.6,0.4,4.6,0.7C242.8,198.8,242.9,198.9,242.9,199.3z"/>
		<path class="st1" d="M254.1,198.3c0.4,0,0.6,0.1,0.5,0.5l-0.5,3c-0.1,0.3-0.2,0.5-0.6,0.5h-1.8l-1.1,6.1c0,0.1,0,0.3,0,0.4
			c0,0.2,0.1,0.3,0.4,0.3h1.2c0.3,0,0.5,0.1,0.4,0.5l-0.5,2.7c-0.1,0.3-0.1,0.5-0.6,0.5c-1,0.2-1.6,0.2-2.7,0.2
			c-1.7,0-3.9-0.7-3.9-3.6c0-0.4,0.1-0.8,0.1-1.2l1-6l-1.4-0.2c-0.3,0-0.5-0.1-0.4-0.5l0.5-2.8c0-0.3,0.2-0.5,0.6-0.5h1.4l0.3-2
			c0-0.3,0.1-0.4,0.6-0.5l4.5-0.7c0.5-0.1,0.7,0.1,0.6,0.5l-0.5,2.8H254.1z"/>
		<path class="st1" d="M265,198.1c0.4,0,0.6,0.1,0.5,0.5l-0.6,3.5c-0.1,0.3-0.1,0.5-0.6,0.5h-0.2c-1.5,0-2.3,0.1-2.9,0.4l-1.7,9.5
			c0,0.3-0.1,0.5-0.6,0.5h-4.5c-0.3,0-0.5-0.1-0.5-0.5l2.4-13.6c0-0.3,0.2-0.5,0.6-0.5h3.9c0.3,0,0.5,0.1,0.4,0.5l-0.1,0.7
			c1-1.2,2.4-1.5,3.6-1.5H265z"/>
		<path class="st1" d="M281.1,198.9l-2.4,13.6c-0.1,0.3-0.1,0.5-0.6,0.5H274c-0.3,0-0.5-0.1-0.4-0.5l0.1-0.7
			c-1.2,0.8-2.1,1.4-4.1,1.4c-2.8,0-3.9-2-3.9-4.3c0-0.5,0.1-1,0.1-1.5l1.5-8.6c0.1-0.3,0.3-0.5,0.6-0.5h4.5c0.3,0,0.5,0.2,0.4,0.5
			l-1.4,8.2c0,0.3-0.1,0.6-0.1,0.7c0,0.7,0.4,0.9,1.1,0.9c0.4,0,0.9-0.1,1.4-0.4l1.7-9.5c0.1-0.3,0.2-0.5,0.6-0.5h4.5
			C281,198.3,281.2,198.4,281.1,198.9z"/>
		<path class="st1" d="M292.9,198.5c0.3,0.1,0.4,0.2,0.4,0.5l-0.6,3.4c-0.1,0.3-0.3,0.5-0.6,0.5h0c-0.8,0-1.7-0.1-2.7-0.1
			c-1,0-1.4,0.6-1.7,2.1l-0.3,1.6c-0.1,0.4-0.1,0.7-0.1,1c0,0.8,0.3,1.1,1,1.1c1,0,1.9-0.1,2.7-0.1c0.4,0,0.5,0.2,0.5,0.5l-0.6,3.4
			c0,0.3-0.3,0.4-0.6,0.5c-1,0.2-2.1,0.4-3.6,0.4c-3.5,0-5-2.2-5-5.1c0-0.5,0-1.1,0.1-1.6l0.3-1.6c0.8-4.6,3.2-6.8,7.3-6.8
			C290.9,198.1,292.3,198.3,292.9,198.5z"/>
		<path class="st1" d="M304,198.3c0.4,0,0.6,0.1,0.5,0.5l-0.5,3c-0.1,0.3-0.2,0.5-0.6,0.5h-1.8l-1.1,6.1c0,0.1,0,0.3,0,0.4
			c0,0.2,0.1,0.3,0.4,0.3h1.2c0.3,0,0.5,0.1,0.4,0.5l-0.5,2.7c0,0.3-0.1,0.5-0.6,0.5c-1,0.2-1.6,0.2-2.7,0.2c-1.7,0-3.9-0.7-3.9-3.6
			c0-0.4,0-0.8,0.1-1.2l1-6l-1.4-0.2c-0.3,0-0.5-0.1-0.4-0.5l0.5-2.8c0.1-0.3,0.2-0.5,0.6-0.5h1.4l0.3-2c0-0.3,0.1-0.4,0.6-0.5
			l4.5-0.7c0.5-0.1,0.7,0.1,0.6,0.5l-0.5,2.8H304z"/>
		<path class="st1" d="M318.6,205.1l-0.2,1.1c-0.9,5.3-3.8,7-8.1,7c-3.7,0-5.8-2-5.8-5.3c0-0.5,0.1-1.1,0.1-1.7l0.2-1.1
			c0.9-5.2,3.8-7,8.1-7c3.7,0,5.8,1.8,5.8,5.3C318.8,203.9,318.7,204.5,318.6,205.1z M312.2,202.7c-0.8,0-1.4,0.7-1.7,2.4l-0.2,1.1
			c-0.1,0.5-0.1,0.8-0.1,1.2c0,1,0.4,1.3,1,1.3c0.8,0,1.4-0.5,1.7-2.4l0.2-1.1c0.1-0.5,0.1-0.8,0.1-1.2
			C313.2,203,312.9,202.7,312.2,202.7z"/>
		<path class="st1" d="M330.4,198.1c0.4,0,0.6,0.1,0.5,0.5l-0.6,3.5c0,0.3-0.1,0.5-0.6,0.5h-0.2c-1.5,0-2.3,0.1-2.9,0.4l-1.7,9.5
			c-0.1,0.3-0.1,0.5-0.6,0.5h-4.5c-0.3,0-0.5-0.1-0.5-0.5l2.4-13.6c0.1-0.3,0.2-0.5,0.6-0.5h3.9c0.3,0,0.5,0.1,0.4,0.5l-0.1,0.7
			c1-1.2,2.4-1.5,3.6-1.5H330.4z"/>
		<path class="st1" d="M352.2,193.6c0.3,0,0.6,0.1,0.5,0.5l-3.1,17.7c-0.1,0.4-0.3,0.7-1.2,0.9c-1.2,0.2-3.4,0.6-6,0.6
			c-3.6,0-5.8-2.3-5.8-5.4c0-0.4,0-0.8,0.1-1.2l0.3-1.9c0.8-4.7,3.4-6.6,7.7-6.6c0.6,0,1.3,0.1,1.6,0.1l0.7-4.1
			c0-0.3,0.2-0.5,0.6-0.5H352.2z M344.3,202.7c-1,0-1.4,0.6-1.7,2l-0.3,1.9c-0.1,0.4-0.1,0.7-0.1,0.9c0,0.7,0.3,1.1,1.1,1.1
			c0.6,0,0.9,0,1.3-0.1l1-5.9C345.3,202.7,344.9,202.7,344.3,202.7z"/>
		<path class="st1" d="M366.4,205.1l-0.3,1.5c-0.1,0.3-0.3,0.5-0.6,0.5H358c0,0.2-0.1,0.4-0.1,0.5c0,0.8,0.5,1,1.9,1
			c1.1,0,3.8-0.1,4.7-0.2c0.4,0,0.5,0.1,0.5,0.4l-0.5,2.6c-0.1,0.4-0.2,0.6-0.6,0.7c-1.4,0.5-3.9,0.9-5.9,0.9
			c-3.2,0-5.7-1.7-5.7-5.2c0-0.5,0-1,0.1-1.5l0.3-1.5c0.9-5.2,3.9-7,8.2-7c3.9,0,5.5,2.3,5.5,5.3
			C366.6,203.9,366.5,204.5,366.4,205.1z M360.3,202.3c-1,0-1.5,0.7-1.7,2.1h2.8c0.1-0.3,0.1-0.6,0.1-0.8
			C361.4,202.7,361.1,202.3,360.3,202.3z"/>
	</g>
	<g>
		<path class="st1" d="M204.6,235.8l2.4-13.6c0.1-0.3,0.2-0.5,0.7-0.5h4.5c0.5,0,0.5,0.2,0.4,0.5l-2.4,13.6c0,0.3-0.2,0.5-0.6,0.5
			h-4.5C204.8,236.3,204.6,236,204.6,235.8z M213.1,216.9c0.3,0,0.6,0.1,0.5,0.5l-0.4,2.5c0,0.3-0.2,0.5-0.7,0.5h-4.7
			c-0.4,0-0.5-0.2-0.5-0.5l0.4-2.5c0.1-0.3,0.2-0.5,0.6-0.5H213.1z"/>
		<path class="st1" d="M228,227.1l-1.5,8.6c0,0.3-0.1,0.5-0.6,0.5h-4.5c-0.3,0-0.5-0.1-0.4-0.5l1.5-8.6c0-0.1,0-0.3,0-0.4
			c0-0.5-0.4-0.8-1.1-0.8c-0.4,0-0.9,0.1-1.4,0.4l-1.7,9.5c-0.1,0.3-0.1,0.5-0.6,0.5h-4.5c-0.3,0-0.5-0.2-0.5-0.5l2.4-13.6
			c0.1-0.3,0.3-0.5,0.6-0.5h4.1c0.4,0,0.5,0.2,0.4,0.5l-0.1,0.7c1.3-0.9,2.5-1.4,4.3-1.4c3.1,0,3.8,1.9,3.8,4
			C228.2,226,228.1,226.6,228,227.1z"/>
		<path class="st1" d="M242.2,222.5l-0.6,3.2c-0.1,0.3-0.1,0.6-0.6,0.5c-0.7-0.1-3.4-0.4-4.4-0.4c-0.2,0-0.6,0-0.6,0.3
			c0,0.2,0.1,0.3,0.5,0.5l2,1c2.2,1.2,2.5,2.5,2.5,3.8c0,3.6-3,5-7.3,5c-2.1,0-3.6-0.3-4.5-0.6c-0.3-0.1-0.4-0.3-0.4-0.5l0.5-3.1
			c0.1-0.4,0.2-0.6,0.7-0.6c1.6,0.2,3.4,0.5,4.2,0.5c0.4,0,1,0,1-0.6c0-0.1-0.1-0.3-0.5-0.5l-2.2-1.2c-1.5-0.8-2.2-2-2.2-3.5
			c0-4,3.2-5,6.7-5c1.8,0,3.6,0.4,4.6,0.7C242.1,222.1,242.3,222.2,242.2,222.5z"/>
		<path class="st1" d="M253.4,221.6c0.4,0,0.6,0.1,0.5,0.5l-0.5,3c0,0.3-0.2,0.5-0.6,0.5H251l-1.1,6.1c0,0.1-0.1,0.3-0.1,0.4
			c0,0.2,0.1,0.3,0.4,0.3h1.2c0.3,0,0.5,0.1,0.4,0.5l-0.5,2.7c0,0.3-0.1,0.5-0.6,0.5c-1,0.2-1.6,0.2-2.7,0.2c-1.7,0-3.9-0.7-3.9-3.6
			c0-0.4,0-0.8,0.1-1.2l1-6l-1.4-0.2c-0.3,0-0.5-0.1-0.4-0.5l0.5-2.8c0-0.3,0.2-0.5,0.6-0.5h1.4l0.3-2c0.1-0.3,0.1-0.4,0.6-0.5
			l4.5-0.7c0.5-0.1,0.7,0.1,0.6,0.5l-0.5,2.8H253.4z"/>
		<path class="st1" d="M264.4,221.4c0.4,0,0.6,0.1,0.5,0.5l-0.6,3.5c0,0.3-0.1,0.5-0.6,0.5h-0.2c-1.5,0-2.3,0.1-2.9,0.4l-1.7,9.5
			c0,0.3-0.1,0.5-0.6,0.5h-4.5c-0.3,0-0.5-0.1-0.5-0.5l2.4-13.6c0-0.3,0.2-0.5,0.6-0.5h3.9c0.3,0,0.5,0.1,0.4,0.5l-0.1,0.7
			c1-1.2,2.4-1.5,3.6-1.5H264.4z"/>
		<path class="st1" d="M280.5,222.2l-2.4,13.6c-0.1,0.3-0.1,0.5-0.6,0.5h-4.1c-0.3,0-0.5-0.1-0.4-0.5l0.1-0.7
			c-1.2,0.8-2.1,1.4-4.1,1.4c-2.8,0-3.9-2-3.9-4.3c0-0.5,0.1-1,0.1-1.5l1.5-8.6c0-0.3,0.3-0.5,0.6-0.5h4.5c0.3,0,0.5,0.2,0.4,0.5
			l-1.4,8.2c0,0.3-0.1,0.6-0.1,0.7c0,0.7,0.4,0.9,1.1,0.9c0.4,0,0.9-0.1,1.4-0.4l1.7-9.5c0.1-0.3,0.2-0.5,0.6-0.5h4.5
			C280.3,221.6,280.6,221.7,280.5,222.2z"/>
		<path class="st1" d="M292.3,221.8c0.3,0.1,0.4,0.2,0.4,0.5l-0.6,3.4c0,0.3-0.3,0.5-0.6,0.5h0c-0.8,0-1.7-0.1-2.7-0.1
			c-1,0-1.4,0.6-1.7,2.1l-0.3,1.6c-0.1,0.4-0.1,0.7-0.1,1c0,0.8,0.3,1.1,1,1.1c1,0,1.9-0.1,2.7-0.1c0.4,0,0.5,0.2,0.5,0.5l-0.6,3.4
			c-0.1,0.3-0.3,0.4-0.6,0.5c-1,0.2-2.1,0.4-3.6,0.4c-3.5,0-5-2.2-5-5.1c0-0.5,0.1-1.1,0.1-1.6l0.3-1.6c0.8-4.6,3.2-6.8,7.3-6.8
			C290.3,221.4,291.6,221.6,292.3,221.8z"/>
		<path class="st1" d="M303.4,221.6c0.4,0,0.6,0.1,0.5,0.5l-0.5,3c0,0.3-0.2,0.5-0.6,0.5h-1.8l-1.1,6.1c0,0.1-0.1,0.3-0.1,0.4
			c0,0.2,0.1,0.3,0.4,0.3h1.2c0.3,0,0.5,0.1,0.4,0.5l-0.5,2.7c-0.1,0.3-0.1,0.5-0.6,0.5c-1,0.2-1.6,0.2-2.7,0.2
			c-1.7,0-3.9-0.7-3.9-3.6c0-0.4,0.1-0.8,0.1-1.2l1-6l-1.4-0.2c-0.3,0-0.5-0.1-0.4-0.5l0.5-2.8c0.1-0.3,0.2-0.5,0.6-0.5h1.4l0.3-2
			c0.1-0.3,0.1-0.4,0.6-0.5l4.5-0.7c0.5-0.1,0.7,0.1,0.6,0.5l-0.5,2.8H303.4z"/>
		<path class="st1" d="M318,228.4l-0.2,1.1c-0.9,5.3-3.8,7-8.1,7c-3.7,0-5.8-2-5.8-5.3c0-0.5,0-1.1,0.1-1.7l0.2-1.1
			c0.9-5.2,3.8-7,8.1-7c3.7,0,5.8,1.8,5.8,5.3C318.2,227.2,318.1,227.8,318,228.4z M311.6,225.9c-0.8,0-1.4,0.7-1.7,2.4l-0.2,1.1
			c-0.1,0.5-0.1,0.8-0.1,1.2c0,1,0.4,1.3,1,1.3c0.8,0,1.4-0.5,1.7-2.4l0.2-1.1c0.1-0.5,0.1-0.8,0.1-1.2
			C312.6,226.2,312.2,225.9,311.6,225.9z"/>
		<path class="st1" d="M329.8,221.4c0.4,0,0.6,0.1,0.5,0.5l-0.6,3.5c-0.1,0.3-0.1,0.5-0.6,0.5h-0.2c-1.5,0-2.3,0.1-2.9,0.4l-1.7,9.5
			c-0.1,0.3-0.1,0.5-0.6,0.5h-4.5c-0.3,0-0.5-0.1-0.5-0.5l2.4-13.6c0.1-0.3,0.2-0.5,0.6-0.5h3.9c0.3,0,0.5,0.1,0.4,0.5l-0.1,0.7
			c1-1.2,2.4-1.5,3.6-1.5H329.8z"/>
		<path class="st1" d="M343.9,228.4l-0.3,1.5c-0.1,0.3-0.3,0.5-0.6,0.5h-7.5c0,0.2-0.1,0.4-0.1,0.5c0,0.8,0.5,1,1.9,1
			c1.1,0,3.8-0.1,4.7-0.2c0.4,0,0.5,0.1,0.5,0.4l-0.5,2.6c-0.1,0.4-0.2,0.6-0.6,0.7c-1.4,0.5-3.9,0.9-5.9,0.9
			c-3.2,0-5.7-1.7-5.7-5.2c0-0.5,0-1,0.1-1.5l0.3-1.5c0.9-5.2,3.9-7,8.2-7c3.9,0,5.5,2.3,5.5,5.3C344.1,227.2,344,227.8,343.9,228.4
			z M337.8,225.5c-1,0-1.5,0.7-1.7,2.1h2.8c0.1-0.3,0.1-0.6,0.1-0.8C338.9,226,338.6,225.5,337.8,225.5z"/>
		<path class="st1" d="M357.8,222.5l-0.6,3.2c-0.1,0.3-0.1,0.6-0.6,0.5c-0.7-0.1-3.4-0.4-4.4-0.4c-0.2,0-0.6,0-0.6,0.3
			c0,0.2,0.1,0.3,0.5,0.5l2,1c2.2,1.2,2.5,2.5,2.5,3.8c0,3.6-3,5-7.3,5c-2.1,0-3.6-0.3-4.5-0.6c-0.3-0.1-0.4-0.3-0.4-0.5l0.5-3.1
			c0.1-0.4,0.2-0.6,0.7-0.6c1.6,0.2,3.4,0.5,4.2,0.5c0.4,0,1,0,1-0.6c0-0.1-0.1-0.3-0.5-0.5l-2.2-1.2c-1.5-0.8-2.2-2-2.2-3.5
			c0-4,3.2-5,6.7-5c1.8,0,3.6,0.4,4.6,0.7C357.7,222.1,357.8,222.2,357.8,222.5z"/>
		<path class="st1" d="M374.8,218.4c-1.8,2.5-3.8,6-4.6,10.8l-0.1,0.5c-0.2,1.3-0.3,2.7-0.3,4c0,2.7,0.4,5.1,1,6.8
			c0.1,0.1,0.1,0.2,0.1,0.3c0,0.2-0.1,0.3-0.3,0.3h-3.8c-0.4,0-0.6-0.1-0.8-0.3c-1.1-2.1-1.7-4.6-1.7-7.5c0-1.1,0.1-2.4,0.2-3.6
			l0.1-0.5c0.8-4.8,2.5-8.1,5.2-11.1c0.2-0.3,0.5-0.3,0.9-0.3h4.1c0.2,0,0.2,0.1,0.2,0.2C375,218.1,374.9,218.3,374.8,218.4z"/>
		<path class="st1" d="M382.9,218.3l-3.1,17.5c0,0.3-0.1,0.5-0.6,0.5h-4.9c-0.3,0-0.5-0.2-0.4-0.5l3.1-17.5c0.1-0.3,0.2-0.5,0.6-0.5
			h4.9C382.8,217.8,383,218,382.9,218.3z"/>
		<path class="st1" d="M398.8,218.3l-0.6,3.8c0,0.3-0.1,0.5-0.6,0.5h-3.4l-2.3,13.2c0,0.3-0.1,0.5-0.6,0.5h-4.9
			c-0.3,0-0.4-0.2-0.4-0.5l2.3-13.2h-3.5c-0.3,0-0.5-0.1-0.4-0.5l0.6-3.8c0.1-0.3,0.3-0.5,0.6-0.5h12.7
			C398.8,217.8,398.9,218,398.8,218.3z"/>
		<path class="st1" d="M414.4,226l-0.4,2.2c-0.9,5.2-3.5,7.4-6.6,8.1l0,0.4c0,0.2,0,0.3,0.2,0.3h1.9c0.3,0,0.6,0,0.6,0.4l-0.5,3.1
			c-0.1,0.2-0.3,0.5-0.7,0.6c-1.1,0.3-2.1,0.4-3.5,0.4c-1.8,0-3.6-0.7-3.6-3.4c0-0.3,0.1-0.9,0.1-1.4l0.1-0.5c-2.3-0.7-4-2.6-4-6
			c0-0.6,0.1-1.3,0.2-2.1l0.4-2.2c1.2-6.7,5.3-8.4,9.4-8.4c3.6,0,6.6,1.8,6.6,6.3C414.6,224.5,414.6,225.2,414.4,226z M407.1,222.7
			c-1.4,0-2.1,0.9-2.5,3.2l-0.4,2.2c-0.1,0.6-0.1,1.1-0.1,1.5c0,1.3,0.5,1.8,1.5,1.8c1.4,0,2.1-0.9,2.5-3.2l0.4-2.2
			c0.1-0.6,0.1-1.1,0.1-1.5C408.6,223.2,408.1,222.7,407.1,222.7z"/>
		<path class="st1" d="M423.9,229.2l-0.1,0.5c-0.8,4.8-2.4,8.1-5,11.1c-0.2,0.3-0.5,0.3-0.9,0.3h-4.2c-0.2,0-0.2-0.1-0.2-0.2
			c0-0.1,0-0.3,0.2-0.4c1.8-2.5,3.9-6,4.6-10.8l0.1-0.5c0.2-1.4,0.3-2.8,0.3-4c0-2.8-0.5-5.1-1.2-6.8c0-0.1-0.1-0.2-0.1-0.3
			c0-0.2,0.1-0.3,0.3-0.3h4c0.4,0,0.6,0.1,0.8,0.3c0.9,1.6,1.6,4.4,1.6,7.7C424.2,226.9,424.1,228.1,423.9,229.2z"/>
	</g>
	<g>
		<path class="st1" d="M219.5,99.7h-5.2c-0.3,0-0.4-0.2-0.4-0.5l0-2.8h-3.8l-0.9,2.8c-0.1,0.3-0.3,0.5-0.6,0.5h-5.2
			c-0.2,0-0.3-0.1-0.3-0.3c0-0.1,0-0.1,0-0.2l5.6-15c0.9-2.5,3-3.2,6.1-3.2c3,0,4.8,0.7,4.9,3.2l0.3,15v0
			C220,99.5,219.8,99.7,219.5,99.7z M214,85.7c-0.2,0-0.2,0.1-0.3,0.3l-1.9,5.8h2.3l0.1-5.8c0,0,0-0.1,0-0.1
			C214.1,85.8,214.1,85.7,214,85.7z"/>
		<path class="st1" d="M230.6,80.9l-3.2,18.3c-0.1,0.3-0.1,0.5-0.6,0.5h-4.5c-0.3,0-0.5-0.1-0.5-0.5l3.2-18.3c0-0.3,0.2-0.5,0.6-0.5
			h4.5C230.4,80.3,230.6,80.5,230.6,80.9z"/>
		<path class="st1" d="M246,85.6l-2.4,13.6c-0.1,0.3-0.1,0.5-0.6,0.5h-4.1c-0.3,0-0.5-0.1-0.4-0.5l0.1-0.7c-1.2,0.8-2.1,1.4-4.1,1.4
			c-2.8,0-3.9-2-3.9-4.3c0-0.5,0.1-1,0.1-1.5l1.5-8.6c0.1-0.3,0.3-0.5,0.6-0.5h4.5c0.3,0,0.5,0.2,0.4,0.5l-1.4,8.2
			c0,0.3-0.1,0.6-0.1,0.7c0,0.7,0.4,0.9,1.1,0.9c0.4,0,0.9-0.1,1.4-0.4l1.7-9.5c0.1-0.3,0.2-0.5,0.6-0.5h4.5
			C245.8,85,246,85.1,246,85.6z"/>
		<path class="st1" d="M268.2,90.7l-1.5,8.5c0,0.3-0.2,0.5-0.6,0.5h-4.5c-0.3,0-0.5-0.2-0.4-0.5l1.5-8.5c0-0.1,0-0.3,0-0.4
			c0-0.5-0.3-0.7-0.8-0.7c-0.3,0-0.7,0-1.1,0.1c-0.1,0.4-0.1,0.5-0.1,0.9l-1.5,8.5c-0.1,0.3-0.2,0.5-0.6,0.5h-4.5
			c-0.4,0-0.5-0.3-0.4-0.5l1.5-8.5c0-0.2,0-0.3,0-0.4c0-0.5-0.3-0.6-0.8-0.6c-0.3,0-0.8,0-1.1,0.1l-1.7,9.4
			c-0.1,0.3-0.1,0.5-0.6,0.5h-4.5c-0.3,0-0.5-0.1-0.5-0.5l2.4-13.6c0.1-0.3,0.1-0.5,0.6-0.5h4.1c0.3,0,0.5,0.2,0.4,0.5l-0.1,0.7
			c1.5-1.2,2.9-1.5,4.3-1.5c1.2,0,2.3,0.4,2.8,1.5c1.3-1.1,2.8-1.5,4.2-1.5c2.6,0,3.7,1.6,3.7,4C268.4,89.4,268.3,90,268.2,90.7z"/>
		<path class="st1" d="M284.5,90.6l-1.5,8.6c0,0.3-0.1,0.5-0.6,0.5h-4.5c-0.3,0-0.5-0.1-0.4-0.5l1.5-8.6c0-0.1,0-0.3,0-0.4
			c0-0.5-0.4-0.8-1.1-0.8c-0.4,0-0.9,0.1-1.4,0.4l-1.7,9.5c0,0.3-0.1,0.5-0.6,0.5h-4.5c-0.3,0-0.5-0.2-0.5-0.5l2.4-13.6
			c0-0.3,0.3-0.5,0.6-0.5h4.1c0.4,0,0.5,0.2,0.4,0.5l-0.1,0.7c1.3-0.9,2.5-1.4,4.3-1.4c3.1,0,3.8,1.9,3.8,4
			C284.6,89.4,284.6,90,284.5,90.6z"/>
		<path class="st1" d="M300,91.8l-0.2,1.1c-0.9,5.3-3.8,7-8.1,7c-3.7,0-5.8-2-5.8-5.3c0-0.5,0.1-1.1,0.1-1.7l0.2-1.1
			c0.9-5.2,3.8-7,8.1-7c3.7,0,5.8,1.8,5.8,5.3C300.2,90.6,300.1,91.2,300,91.8z M293.6,89.4c-0.8,0-1.4,0.7-1.7,2.4l-0.2,1.1
			c-0.1,0.5-0.1,0.8-0.1,1.2c0,1,0.4,1.3,1,1.3c0.8,0,1.4-0.5,1.7-2.4l0.2-1.1c0.1-0.5,0.1-0.8,0.1-1.2
			C294.6,89.7,294.3,89.4,293.6,89.4z"/>
		<path class="st1" d="M314.1,86l-0.6,3.2c0,0.3-0.1,0.6-0.6,0.5c-0.7-0.1-3.4-0.4-4.4-0.4c-0.2,0-0.6,0-0.6,0.3
			c0,0.2,0,0.3,0.5,0.5l2,1c2.2,1.2,2.5,2.5,2.5,3.8c0,3.6-3,5-7.3,5c-2.1,0-3.6-0.3-4.5-0.6c-0.3-0.1-0.4-0.3-0.4-0.5l0.5-3.1
			c0.1-0.4,0.2-0.6,0.7-0.6c1.6,0.2,3.4,0.5,4.2,0.5c0.4,0,1,0,1-0.6c0-0.1-0.1-0.3-0.5-0.5l-2.2-1.2c-1.5-0.8-2.2-2-2.2-3.5
			c0-4,3.2-5,6.6-5c1.8,0,3.6,0.4,4.6,0.7C314,85.6,314.1,85.6,314.1,86z"/>
	</g>
</g>
</svg>
