<?xml version="1.0" encoding="utf-8"?>
<!-- Generator: Adobe Illustrator 19.2.1, SVG Export Plug-In . SVG Version: 6.00 Build 0)  -->
<svg version="1.1" id="Capa_1" xmlns="http://www.w3.org/2000/svg" xmlns:xlink="http://www.w3.org/1999/xlink" x="0px" y="0px"
	 viewBox="0 0 500 297.2" style="enable-background:new 0 0 500 297.2;" xml:space="preserve">
<style type="text/css">
	.st0{fill:#3A0048;}
	.st1{fill:#FFFFFF;}
	.st2{fill:none;stroke:#391754;stroke-width:2.4769;}
	.st3{fill:#F000A6;}
</style>
<g>
	<rect x="6" y="9.6" class="st0" width="47.9" height="278"/>
	<rect x="113.7" y="9.6" class="st0" width="380.3" height="60.3"/>
	<rect x="113.7" y="81.7" class="st0" width="380.3" height="60.3"/>
	<rect x="113.7" y="153.8" class="st0" width="380.3" height="60.3"/>
	<rect x="113.7" y="226" class="st0" width="380.3" height="60.3"/>
	<g>
		<path class="st1" d="M147.6,46.5h-1.2c-0.2,0-0.3-0.1-0.3-0.3l-1.3-4.6h-5.1l-1.3,4.6c0,0.2-0.2,0.3-0.4,0.3h-1.2
			c-0.2,0-0.3-0.1-0.3-0.3c0,0,0-0.1,0-0.1l3.7-12.9c0.3-1.2,1.3-1.5,2-1.5c0.7,0,1.7,0.3,2,1.5l3.7,12.9c0,0,0,0.1,0,0.1
			C147.9,46.4,147.8,46.5,147.6,46.5z M142.6,33.6c-0.1-0.2-0.2-0.4-0.4-0.4c-0.2,0-0.3,0.1-0.4,0.4l-1.8,6.5h4.4L142.6,33.6z"/>
		<path class="st1" d="M157.8,46.5h-1c-0.2,0-0.4-0.2-0.4-0.4v-6.5c0-2-0.7-2.6-2.2-2.6c-0.8,0-1.8,0.3-2.7,0.8v8.4
			c0,0.2-0.2,0.4-0.4,0.4h-1c-0.2,0-0.4-0.2-0.4-0.4V36c0-0.2,0.2-0.4,0.4-0.4h1c0.2,0,0.4,0.2,0.4,0.4v0.4c1.1-0.6,2-0.9,3.2-0.9
			c2.4,0,3.4,1.5,3.4,4.1v6.5C158.2,46.3,158,46.5,157.8,46.5z"/>
		<path class="st1" d="M168.1,46.5h-0.9c-0.2,0-0.4-0.2-0.4-0.4v-0.4c-1,0.6-1.9,1-3.1,1c-1.7,0-3.2-0.7-3.2-3.2v-0.2
			c0-2.1,1.2-3.2,4.8-3.2h1.5v-0.8c0-1.7-0.6-2.2-2.1-2.2c-1.3,0-2.2,0.1-3,0.2c0,0-0.1,0-0.1,0c-0.2,0-0.4-0.1-0.4-0.3v-0.7
			c0-0.2,0.1-0.3,0.4-0.4c0.8-0.1,1.7-0.3,3.1-0.3c2.8,0,3.9,1.4,3.9,3.7v6.9C168.5,46.3,168.3,46.5,168.1,46.5z M166.7,41.2h-1.5
			c-2.4,0-3,0.5-3,1.9v0.2c0,1.4,0.7,1.8,1.8,1.8c0.9,0,1.7-0.3,2.7-0.8V41.2z"/>
		<path class="st1" d="M172.8,46.5h-1c-0.2,0-0.4-0.2-0.4-0.4V32c0-0.2,0.1-0.4,0.4-0.4h1c0.2,0,0.4,0.2,0.4,0.4v14.1
			C173.1,46.3,173,46.5,172.8,46.5z"/>
		<path class="st1" d="M177.6,33.9h-1c-0.2,0-0.4-0.2-0.4-0.4v-1.6c0-0.2,0.2-0.4,0.4-0.4h1c0.2,0,0.4,0.2,0.4,0.4v1.6
			C178,33.7,177.8,33.9,177.6,33.9z M177.6,46.5h-1c-0.2,0-0.4-0.2-0.4-0.4V36c0-0.2,0.2-0.4,0.4-0.4h1c0.2,0,0.4,0.2,0.4,0.4v10.1
			C178,46.3,177.8,46.5,177.6,46.5z"/>
		<path class="st1" d="M184.1,46.6c-0.7,0-2.2-0.1-3.1-0.3c-0.3-0.1-0.4-0.2-0.4-0.4v-0.7c0-0.2,0.2-0.3,0.4-0.3c0,0,0.1,0,0.1,0
			c1,0.1,2.4,0.2,3.1,0.2c1.3,0,2-0.3,2-1.4c0-0.6-0.4-1-1.5-1.6l-2-1.2c-1.2-0.7-2-1.6-2-2.8c0-2.1,1.5-2.6,3.6-2.6
			c1.1,0,2.2,0.1,3.1,0.3c0.3,0,0.4,0.2,0.4,0.4v0.7c0,0.2-0.1,0.3-0.3,0.3c0,0,0,0-0.1,0c-0.7-0.1-2-0.2-3.1-0.2
			c-1.1,0-1.8,0.1-1.8,1.1c0,0.6,0.5,1,1.4,1.5l2,1.2c1.6,1,2.2,1.8,2.2,3C187.8,45.8,186.3,46.6,184.1,46.6z"/>
		<path class="st1" d="M195.3,46.6c-0.4,0.1-0.9,0.1-1.3,0.1c-1.8,0-2.7-0.5-2.7-2.7v-6.9l-1.9-0.2c-0.2,0-0.4-0.1-0.4-0.4V36
			c0-0.2,0.2-0.4,0.4-0.4h1.9v-1.9c0-0.2,0.1-0.4,0.4-0.4l1-0.2c0,0,0,0,0.1,0c0.2,0,0.3,0.1,0.3,0.3v2.2h2.1c0.2,0,0.4,0.2,0.4,0.4
			v0.7c0,0.2-0.2,0.4-0.4,0.4h-2.1V44c0,1.1,0.3,1.2,1.1,1.2h1.1c0.3,0,0.4,0.1,0.4,0.3v0.7C195.7,46.4,195.6,46.5,195.3,46.6z"/>
		<path class="st1" d="M204.7,46.5h-0.9c-0.2,0-0.4-0.2-0.4-0.4v-0.4c-1,0.6-1.9,1-3.1,1c-1.7,0-3.2-0.7-3.2-3.2v-0.2
			c0-2.1,1.2-3.2,4.8-3.2h1.5v-0.8c0-1.7-0.6-2.2-2.1-2.2c-1.3,0-2.2,0.1-3,0.2c0,0-0.1,0-0.1,0c-0.2,0-0.4-0.1-0.4-0.3v-0.7
			c0-0.2,0.1-0.3,0.4-0.4c0.8-0.1,1.7-0.3,3.1-0.3c2.8,0,3.9,1.4,3.9,3.7v6.9C205.1,46.3,204.9,46.5,204.7,46.5z M203.4,41.2h-1.5
			c-2.4,0-3,0.5-3,1.9v0.2c0,1.4,0.7,1.8,1.8,1.8c0.9,0,1.7-0.3,2.7-0.8V41.2z"/>
		<path class="st1" d="M216.7,40.6c-0.6,0-1.5-0.1-2-0.1v5.6c0,0.2-0.1,0.4-0.4,0.4h-1.1c-0.2,0-0.4-0.2-0.4-0.4V32.3
			c0-0.3,0.2-0.5,0.5-0.5c0.9-0.1,2.1-0.2,3.3-0.2c3.2,0,5.5,1.1,5.5,4.3v0.3C222.2,39.5,219.9,40.6,216.7,40.6z M220.4,35.9
			c0-2-1.2-2.8-3.7-2.8c-0.6,0-1.5,0-2,0.1v5.8c0.5,0,1.5,0.1,2,0.1c2.7,0,3.7-0.9,3.7-2.9V35.9z"/>
		<path class="st1" d="M228.9,37c-0.9,0-1.7,0.2-2.7,0.8v8.3c0,0.2-0.2,0.4-0.4,0.4h-1c-0.2,0-0.4-0.2-0.4-0.4V36
			c0-0.2,0.2-0.4,0.4-0.4h0.9c0.2,0,0.4,0.2,0.4,0.4v0.4c1-0.7,1.9-1,2.8-1c0.3,0,0.4,0.1,0.4,0.4v0.8C229.3,36.9,229.2,37,228.9,37
			z"/>
		<path class="st1" d="M234.8,46.6c-2.9,0-4.4-1.9-4.4-4.8v-1.5c0-2.9,1.5-4.8,4.4-4.8c2.9,0,4.4,1.9,4.4,4.8v1.5
			C239.2,44.7,237.7,46.6,234.8,46.6z M237.5,40.3c0-2-0.8-3.3-2.7-3.3c-1.8,0-2.7,1.3-2.7,3.3v1.5c0,2,0.8,3.3,2.7,3.3
			c1.8,0,2.7-1.3,2.7-3.3V40.3z"/>
		<path class="st1" d="M250.2,36.9l-0.7,0.1c0.4,0.4,0.7,1,0.7,2v0.2c0,2.2-1.3,3.4-4.4,3.4c-1.1,0-1.7-0.2-2.3-0.4
			c-0.3,0.2-0.5,0.4-0.5,0.7c0,0.3,0.2,0.5,0.6,0.6l3,0.8c1.9,0.5,3.8,1.1,3.8,2.9v0.2c0,1.9-1.3,3.1-4.5,3.1
			c-3.1,0-4.6-1.2-4.6-3.2v-0.2c0-1.1,0.6-2,1.2-2.5l-0.1-0.1c-0.6-0.3-0.9-0.9-0.9-1.5v0c0-0.5,0.3-1.1,0.8-1.4
			c-0.6-0.6-0.9-1.3-0.9-2.3v-0.2c0-1.8,1-3.5,4.4-3.5h4.3c0.2,0,0.5,0.2,0.5,0.4v0.5C250.5,36.8,250.4,36.9,250.2,36.9z
			 M248.6,47.2c0-0.8-0.6-1.1-2.4-1.5l-2.2-0.6c-0.6,0.5-1,1-1,2v0.2c0,1.1,0.7,1.8,2.9,1.8c2.3,0,2.8-0.6,2.8-1.7V47.2z
			 M248.4,39.1c0-1.2-0.5-2.1-2.7-2.1c-2.2,0-2.7,1-2.7,2.1v0.2c0,0.9,0.4,2,2.7,2c2.1,0,2.7-0.8,2.7-2V39.1z"/>
		<path class="st1" d="M257.1,37c-0.9,0-1.7,0.2-2.7,0.8v8.3c0,0.2-0.2,0.4-0.4,0.4h-1c-0.2,0-0.4-0.2-0.4-0.4V36
			c0-0.2,0.2-0.4,0.4-0.4h0.9c0.2,0,0.4,0.2,0.4,0.4v0.4c1-0.7,1.9-1,2.8-1c0.3,0,0.4,0.1,0.4,0.4v0.8C257.5,36.9,257.4,37,257.1,37
			z"/>
		<path class="st1" d="M266,46.5h-0.9c-0.2,0-0.4-0.2-0.4-0.4v-0.4c-1,0.6-1.9,1-3.1,1c-1.7,0-3.2-0.7-3.2-3.2v-0.2
			c0-2.1,1.2-3.2,4.8-3.2h1.5v-0.8c0-1.7-0.6-2.2-2.1-2.2c-1.3,0-2.2,0.1-3,0.2c0,0-0.1,0-0.1,0c-0.2,0-0.4-0.1-0.4-0.3v-0.7
			c0-0.2,0.1-0.3,0.4-0.4c0.8-0.1,1.7-0.3,3.1-0.3c2.8,0,3.9,1.4,3.9,3.7v6.9C266.4,46.3,266.3,46.5,266,46.5z M264.7,41.2h-1.5
			c-2.4,0-3,0.5-3,1.9v0.2c0,1.4,0.7,1.8,1.8,1.8c0.9,0,1.7-0.3,2.7-0.8V41.2z"/>
		<path class="st1" d="M281.9,46.5h-1c-0.2,0-0.4-0.2-0.4-0.4v-7c0-1.7-0.8-2.1-1.8-2.1c-0.7,0-1.5,0.2-2.3,0.5
			c0.1,0.4,0.2,1,0.2,1.5v7.1c0,0.2-0.1,0.4-0.4,0.4h-1c-0.2,0-0.3-0.2-0.3-0.4v-7.1c0-1.7-0.5-2.1-1.5-2.1c-0.7,0-1.6,0.4-2.4,0.8
			v8.4c0,0.2-0.1,0.4-0.4,0.4h-1c-0.2,0-0.3-0.2-0.3-0.4V36c0-0.2,0.2-0.4,0.4-0.4h1c0.2,0,0.4,0.2,0.4,0.4v0.4
			c0.8-0.5,1.8-0.9,2.9-0.9c0.9,0,1.5,0.2,2,0.8c1.1-0.5,2.3-0.8,3.3-0.8c1.8,0,3.2,0.9,3.2,3.6v7C282.3,46.3,282.1,46.5,281.9,46.5
			z"/>
		<path class="st1" d="M292.1,46.5h-0.9c-0.2,0-0.4-0.2-0.4-0.4v-0.4c-1,0.6-1.9,1-3.1,1c-1.7,0-3.2-0.7-3.2-3.2v-0.2
			c0-2.1,1.2-3.2,4.8-3.2h1.5v-0.8c0-1.7-0.6-2.2-2.1-2.2c-1.3,0-2.2,0.1-3,0.2c0,0-0.1,0-0.1,0c-0.2,0-0.4-0.1-0.4-0.3v-0.7
			c0-0.2,0.1-0.3,0.4-0.4c0.8-0.1,1.7-0.3,3.1-0.3c2.8,0,3.9,1.4,3.9,3.7v6.9C292.5,46.3,292.4,46.5,292.1,46.5z M290.8,41.2h-1.5
			c-2.4,0-3,0.5-3,1.9v0.2c0,1.4,0.7,1.8,1.8,1.8c0.9,0,1.7-0.3,2.7-0.8V41.2z"/>
		<path class="st1" d="M302.8,46.3c-1.2,0.2-2.4,0.3-3.6,0.3c-3,0-4.3-1.9-4.3-4.9v-1.4c0-3.1,1.4-4.9,4.3-4.9
			c0.6,0,1.5,0.1,2.3,0.2V32c0-0.2,0.2-0.4,0.4-0.4h1c0.2,0,0.4,0.2,0.4,0.4v13.9C303.3,46.1,303.2,46.3,302.8,46.3z M301.5,37.1
			c-0.7-0.1-1.7-0.1-2.3-0.1c-1.9,0-2.6,1.2-2.6,3.3v1.4c0,2.2,0.6,3.4,2.6,3.4c0.7,0,1.6-0.1,2.3-0.1V37.1z"/>
		<path class="st1" d="M310,46.6c-2.9,0-4.4-1.9-4.4-4.8v-1.5c0-2.9,1.5-4.8,4.4-4.8c2.9,0,4.4,1.9,4.4,4.8v1.5
			C314.4,44.7,312.9,46.6,310,46.6z M312.7,40.3c0-2-0.8-3.3-2.7-3.3c-1.8,0-2.7,1.3-2.7,3.3v1.5c0,2,0.8,3.3,2.7,3.3
			c1.8,0,2.7-1.3,2.7-3.3V40.3z"/>
		<path class="st1" d="M321.2,37c-0.9,0-1.7,0.2-2.7,0.8v8.3c0,0.2-0.2,0.4-0.4,0.4h-1c-0.2,0-0.4-0.2-0.4-0.4V36
			c0-0.2,0.2-0.4,0.4-0.4h0.9c0.2,0,0.4,0.2,0.4,0.4v0.4c1-0.7,1.9-1,2.8-1c0.3,0,0.4,0.1,0.4,0.4v0.8C321.6,36.9,321.5,37,321.2,37
			z"/>
	</g>
	<g>
		<path class="st1" d="M139.1,118.6h-1.1c-0.2,0-0.4-0.2-0.4-0.4v-14c0-0.2,0.1-0.4,0.4-0.4h1.1c0.2,0,0.4,0.2,0.4,0.4v14
			C139.5,118.4,139.4,118.6,139.1,118.6z"/>
		<path class="st1" d="M150.5,118.6h-1c-0.2,0-0.4-0.2-0.4-0.4v-6.5c0-2-0.7-2.6-2.2-2.6c-0.8,0-1.8,0.3-2.7,0.8v8.4
			c0,0.2-0.2,0.4-0.4,0.4h-1c-0.2,0-0.4-0.2-0.4-0.4v-10.1c0-0.2,0.2-0.4,0.4-0.4h1c0.2,0,0.4,0.2,0.4,0.4v0.4
			c1.1-0.6,2-0.9,3.2-0.9c2.4,0,3.4,1.5,3.4,4.1v6.5C150.9,118.4,150.8,118.6,150.5,118.6z"/>
		<path class="st1" d="M162.3,109l-0.7,0.1c0.4,0.4,0.7,1,0.7,2v0.2c0,2.2-1.3,3.4-4.4,3.4c-1.1,0-1.7-0.2-2.3-0.4
			c-0.3,0.2-0.5,0.4-0.5,0.7c0,0.3,0.2,0.5,0.6,0.6l3,0.8c1.9,0.5,3.8,1.1,3.8,2.9v0.2c0,1.9-1.3,3.1-4.5,3.1
			c-3.1,0-4.6-1.2-4.6-3.2v-0.2c0-1.1,0.6-2,1.2-2.5l-0.1-0.1c-0.6-0.3-0.9-0.9-0.9-1.5v0c0-0.5,0.3-1.1,0.8-1.4
			c-0.6-0.6-0.9-1.3-0.9-2.3v-0.2c0-1.8,1-3.5,4.4-3.5h4.3c0.2,0,0.5,0.2,0.5,0.4v0.5C162.6,108.9,162.5,109,162.3,109z
			 M160.7,119.4c0-0.8-0.6-1.1-2.4-1.5l-2.2-0.6c-0.6,0.5-1,1-1,2v0.2c0,1.1,0.7,1.8,2.9,1.8c2.3,0,2.8-0.6,2.8-1.7V119.4z
			 M160.5,111.2c0-1.2-0.5-2.1-2.7-2.1c-2.2,0-2.7,1-2.7,2.1v0.2c0,0.9,0.4,2,2.7,2c2.1,0,2.7-0.8,2.7-2V111.2z"/>
		<path class="st1" d="M172.7,113.7h-6.6v0.3c0,2.4,0.9,3.2,2.8,3.2c1.1,0,2.6-0.1,3.5-0.2c0,0,0.1,0,0.1,0c0.2,0,0.3,0.1,0.3,0.3
			v0.7c0,0.3-0.1,0.4-0.4,0.5c-1.1,0.2-2.2,0.3-3.5,0.3c-2.3,0-4.5-1.1-4.5-4.8v-1.8c0-2.8,1.6-4.6,4.4-4.6c2.9,0,4.4,1.8,4.4,4.6
			v1.1C173.1,113.5,173,113.7,172.7,113.7z M171.3,112.2c0-2.2-0.9-3.1-2.6-3.1c-1.7,0-2.7,1-2.7,3.1v0.2h5.3V112.2z"/>
		<path class="st1" d="M183.4,118.6h-1c-0.2,0-0.4-0.2-0.4-0.4v-6.5c0-2-0.7-2.6-2.2-2.6c-0.8,0-1.8,0.3-2.7,0.8v8.4
			c0,0.2-0.2,0.4-0.4,0.4h-1c-0.2,0-0.4-0.2-0.4-0.4v-10.1c0-0.2,0.2-0.4,0.4-0.4h1c0.2,0,0.4,0.2,0.4,0.4v0.4
			c1.1-0.6,2-0.9,3.2-0.9c2.4,0,3.4,1.5,3.4,4.1v6.5C183.8,118.4,183.7,118.6,183.4,118.6z"/>
		<path class="st1" d="M188.1,106h-1c-0.2,0-0.4-0.2-0.4-0.4V104c0-0.2,0.2-0.4,0.4-0.4h1c0.2,0,0.4,0.2,0.4,0.4v1.6
			C188.5,105.8,188.3,106,188.1,106z M188.1,118.6h-1c-0.2,0-0.4-0.2-0.4-0.4v-10.1c0-0.2,0.2-0.4,0.4-0.4h1c0.2,0,0.4,0.2,0.4,0.4
			v10.1C188.5,118.4,188.3,118.6,188.1,118.6z"/>
		<path class="st1" d="M199.4,113.7h-6.6v0.3c0,2.4,0.9,3.2,2.8,3.2c1.1,0,2.6-0.1,3.5-0.2c0,0,0.1,0,0.1,0c0.2,0,0.3,0.1,0.3,0.3
			v0.7c0,0.3-0.1,0.4-0.4,0.5c-1.1,0.2-2.2,0.3-3.5,0.3c-2.3,0-4.5-1.1-4.5-4.8v-1.8c0-2.8,1.6-4.6,4.4-4.6c2.9,0,4.4,1.8,4.4,4.6
			v1.1C199.8,113.5,199.7,113.7,199.4,113.7z M198.1,112.2c0-2.2-0.9-3.1-2.6-3.1c-1.7,0-2.7,1-2.7,3.1v0.2h5.3V112.2z"/>
		<path class="st1" d="M206.7,109.1c-0.9,0-1.7,0.2-2.7,0.8v8.3c0,0.2-0.2,0.4-0.4,0.4h-1c-0.2,0-0.4-0.2-0.4-0.4v-10.1
			c0-0.2,0.2-0.4,0.4-0.4h0.9c0.2,0,0.4,0.2,0.4,0.4v0.4c1-0.7,1.9-1,2.8-1c0.3,0,0.4,0.1,0.4,0.4v0.8
			C207.1,109,207,109.1,206.7,109.1z"/>
		<path class="st1" d="M212.9,103.5l-2.2,2.5c-0.2,0.2-0.2,0.3-0.5,0.3h-1.1c-0.1,0-0.2-0.1-0.2-0.1c0-0.1,0-0.1,0.1-0.2l1.9-2.5
			c0.2-0.2,0.2-0.3,0.5-0.3h1.3c0.1,0,0.2,0,0.2,0.1C213,103.4,213,103.4,212.9,103.5z M210.5,118.6h-1c-0.2,0-0.4-0.2-0.4-0.4
			v-10.1c0-0.2,0.2-0.4,0.4-0.4h1c0.2,0,0.4,0.2,0.4,0.4v10.1C210.9,118.4,210.8,118.6,210.5,118.6z"/>
		<path class="st1" d="M221.1,118.6h-0.9c-0.2,0-0.4-0.2-0.4-0.4v-0.4c-1,0.6-1.9,1-3.1,1c-1.7,0-3.2-0.7-3.2-3.2v-0.2
			c0-2.1,1.2-3.2,4.8-3.2h1.5v-0.8c0-1.7-0.6-2.2-2.1-2.2c-1.3,0-2.2,0.1-3,0.2c0,0-0.1,0-0.1,0c-0.2,0-0.4-0.1-0.4-0.3v-0.7
			c0-0.2,0.1-0.3,0.4-0.4c0.8-0.1,1.7-0.3,3.1-0.3c2.8,0,3.9,1.4,3.9,3.7v6.9C221.5,118.4,221.3,118.6,221.1,118.6z M219.7,113.3
			h-1.5c-2.4,0-3,0.5-3,1.9v0.2c0,1.4,0.7,1.8,1.8,1.8c0.9,0,1.7-0.3,2.7-0.8V113.3z"/>
		<path class="st1" d="M237.1,113.7h-6.6v0.3c0,2.4,0.9,3.2,2.8,3.2c1.1,0,2.6-0.1,3.5-0.2c0,0,0.1,0,0.1,0c0.2,0,0.3,0.1,0.3,0.3
			v0.7c0,0.3-0.1,0.4-0.4,0.5c-1.1,0.2-2.2,0.3-3.5,0.3c-2.3,0-4.5-1.1-4.5-4.8v-1.8c0-2.8,1.6-4.6,4.4-4.6c2.9,0,4.4,1.8,4.4,4.6
			v1.1C237.5,113.5,237.3,113.7,237.1,113.7z M235.7,112.2c0-2.2-0.9-3.1-2.6-3.1c-1.7,0-2.7,1-2.7,3.1v0.2h5.3V112.2z"/>
		<path class="st1" d="M247.8,118.6h-1c-0.2,0-0.4-0.2-0.4-0.4v-6.5c0-2-0.7-2.6-2.2-2.6c-0.8,0-1.8,0.3-2.7,0.8v8.4
			c0,0.2-0.2,0.4-0.4,0.4h-1c-0.2,0-0.4-0.2-0.4-0.4v-10.1c0-0.2,0.2-0.4,0.4-0.4h1c0.2,0,0.4,0.2,0.4,0.4v0.4
			c1.1-0.6,2-0.9,3.2-0.9c2.4,0,3.4,1.5,3.4,4.1v6.5C248.2,118.4,248,118.6,247.8,118.6z"/>
		<path class="st1" d="M257.6,118.6h-1.1c-0.2,0-0.4-0.2-0.4-0.4v-14c0-0.2,0.1-0.4,0.4-0.4h1.1c0.2,0,0.4,0.2,0.4,0.4v14
			C258,118.4,257.8,118.6,257.6,118.6z"/>
		<path class="st1" d="M269,118.6h-1c-0.2,0-0.4-0.2-0.4-0.4v-6.5c0-2-0.7-2.6-2.2-2.6c-0.8,0-1.8,0.3-2.7,0.8v8.4
			c0,0.2-0.2,0.4-0.4,0.4h-1c-0.2,0-0.4-0.2-0.4-0.4v-10.1c0-0.2,0.2-0.4,0.4-0.4h1c0.2,0,0.4,0.2,0.4,0.4v0.4
			c1.1-0.6,2-0.9,3.2-0.9c2.4,0,3.4,1.5,3.4,4.1v6.5C269.4,118.4,269.2,118.6,269,118.6z"/>
		<path class="st1" d="M277,104.9h-1c-0.9,0-1.2,0.3-1.2,1.4v1.4h2.1c0.2,0,0.4,0.2,0.4,0.4v0.8c0,0.2-0.2,0.3-0.4,0.3h-2.1v9
			c0,0.2-0.2,0.4-0.4,0.4h-1c-0.2,0-0.4-0.2-0.4-0.4v-9l-1.9-0.2c-0.2,0-0.4-0.2-0.4-0.4v-0.5c0-0.2,0.2-0.4,0.4-0.4h1.9v-1.4
			c0-2.1,1-2.8,2.8-2.8c0.5,0,0.9,0.1,1.1,0.1c0.2,0.1,0.4,0.1,0.4,0.3v0.7C277.4,104.8,277.3,104.9,277,104.9z"/>
		<path class="st1" d="M282.9,118.8c-2.9,0-4.4-1.9-4.4-4.8v-1.5c0-2.9,1.5-4.8,4.4-4.8s4.4,1.9,4.4,4.8v1.5
			C287.3,116.8,285.8,118.8,282.9,118.8z M285.5,112.4c0-2-0.8-3.3-2.7-3.3c-1.8,0-2.7,1.3-2.7,3.3v1.5c0,2,0.8,3.3,2.7,3.3
			c1.8,0,2.7-1.3,2.7-3.3V112.4z"/>
		<path class="st1" d="M294.1,109.1c-0.9,0-1.7,0.2-2.7,0.8v8.3c0,0.2-0.2,0.4-0.4,0.4h-1c-0.2,0-0.4-0.2-0.4-0.4v-10.1
			c0-0.2,0.2-0.4,0.4-0.4h0.9c0.2,0,0.4,0.2,0.4,0.4v0.4c1-0.7,1.9-1,2.8-1c0.3,0,0.4,0.1,0.4,0.4v0.8
			C294.5,109,294.4,109.1,294.1,109.1z"/>
		<path class="st1" d="M309.1,118.6h-1c-0.2,0-0.4-0.2-0.4-0.4v-7c0-1.7-0.8-2.1-1.8-2.1c-0.7,0-1.5,0.2-2.3,0.5
			c0.1,0.4,0.2,1,0.2,1.5v7.1c0,0.2-0.1,0.4-0.4,0.4h-1c-0.2,0-0.3-0.2-0.3-0.4v-7.1c0-1.7-0.5-2.1-1.5-2.1c-0.7,0-1.6,0.4-2.4,0.8
			v8.4c0,0.2-0.1,0.4-0.4,0.4h-1c-0.2,0-0.3-0.2-0.3-0.4v-10.1c0-0.2,0.2-0.4,0.4-0.4h1c0.2,0,0.4,0.2,0.4,0.4v0.4
			c0.8-0.5,1.8-0.9,2.9-0.9c0.9,0,1.5,0.2,2,0.8c1.1-0.5,2.3-0.8,3.3-0.8c1.8,0,3.2,0.9,3.2,3.6v7
			C309.5,118.4,309.3,118.6,309.1,118.6z"/>
		<path class="st1" d="M319.4,118.6h-0.9c-0.2,0-0.4-0.2-0.4-0.4v-0.4c-1,0.6-1.9,1-3.1,1c-1.7,0-3.2-0.7-3.2-3.2v-0.2
			c0-2.1,1.2-3.2,4.8-3.2h1.5v-0.8c0-1.7-0.6-2.2-2.1-2.2c-1.3,0-2.2,0.1-3,0.2c0,0-0.1,0-0.1,0c-0.2,0-0.4-0.1-0.4-0.3v-0.7
			c0-0.2,0.1-0.3,0.4-0.4c0.8-0.1,1.7-0.3,3.1-0.3c2.8,0,3.9,1.4,3.9,3.7v6.9C319.8,118.4,319.6,118.6,319.4,118.6z M318.1,113.3
			h-1.5c-2.4,0-3,0.5-3,1.9v0.2c0,1.4,0.7,1.8,1.8,1.8c0.9,0,1.7-0.3,2.7-0.8V113.3z M318.9,103.5l-2.2,2.5
			c-0.2,0.2-0.2,0.3-0.5,0.3h-1.1c-0.1,0-0.2-0.1-0.2-0.1c0-0.1,0-0.1,0.1-0.2l1.9-2.5c0.2-0.2,0.2-0.3,0.5-0.3h1.3
			c0.1,0,0.2,0,0.2,0.1C319,103.4,319,103.4,318.9,103.5z"/>
		<path class="st1" d="M327.5,118.7c-0.4,0.1-0.9,0.1-1.3,0.1c-1.8,0-2.7-0.5-2.7-2.7v-6.9l-1.9-0.2c-0.2,0-0.4-0.1-0.4-0.4v-0.5
			c0-0.2,0.2-0.4,0.4-0.4h1.9v-1.9c0-0.2,0.1-0.4,0.4-0.4l1-0.2c0,0,0,0,0.1,0c0.2,0,0.3,0.1,0.3,0.3v2.2h2.1c0.2,0,0.4,0.2,0.4,0.4
			v0.7c0,0.2-0.2,0.4-0.4,0.4h-2.1v6.9c0,1.1,0.3,1.2,1.1,1.2h1.1c0.3,0,0.4,0.1,0.4,0.3v0.7C327.8,118.5,327.7,118.6,327.5,118.7z"
			/>
		<path class="st1" d="M331.3,106h-1c-0.2,0-0.4-0.2-0.4-0.4V104c0-0.2,0.2-0.4,0.4-0.4h1c0.2,0,0.4,0.2,0.4,0.4v1.6
			C331.7,105.8,331.5,106,331.3,106z M331.2,118.6h-1c-0.2,0-0.4-0.2-0.4-0.4v-10.1c0-0.2,0.2-0.4,0.4-0.4h1c0.2,0,0.4,0.2,0.4,0.4
			v10.1C331.6,118.4,331.5,118.6,331.2,118.6z"/>
		<path class="st1" d="M340.9,118.5c-0.7,0.1-1.5,0.2-2.5,0.2c-2.7,0-4.2-1.9-4.2-4.8v-1.5c0-2.9,1.5-4.8,4.2-4.8
			c0.9,0,1.8,0.1,2.5,0.2c0.3,0.1,0.4,0.2,0.4,0.4v0.7c0,0.2-0.2,0.3-0.3,0.3c0,0-0.1,0-0.1,0c-0.9-0.1-1.5-0.1-2.5-0.1
			c-1.6,0-2.5,1-2.5,3.3v1.5c0,2.2,0.9,3.3,2.5,3.3c1,0,1.6,0,2.5-0.1c0,0,0,0,0.1,0c0.2,0,0.3,0.1,0.3,0.3v0.7
			C341.3,118.4,341.2,118.5,340.9,118.5z"/>
		<path class="st1" d="M350.7,118.6h-0.9c-0.2,0-0.4-0.2-0.4-0.4v-0.4c-1,0.6-1.9,1-3.1,1c-1.7,0-3.2-0.7-3.2-3.2v-0.2
			c0-2.1,1.2-3.2,4.8-3.2h1.5v-0.8c0-1.7-0.6-2.2-2.1-2.2c-1.3,0-2.2,0.1-3,0.2c0,0-0.1,0-0.1,0c-0.2,0-0.4-0.1-0.4-0.3v-0.7
			c0-0.2,0.1-0.3,0.4-0.4c0.8-0.1,1.7-0.3,3.1-0.3c2.8,0,3.9,1.4,3.9,3.7v6.9C351.1,118.4,350.9,118.6,350.7,118.6z M349.4,113.3
			h-1.5c-2.4,0-3,0.5-3,1.9v0.2c0,1.4,0.7,1.8,1.8,1.8c0.9,0,1.7-0.3,2.7-0.8V113.3z"/>
	</g>
	<g>
		<path class="st1" d="M146.6,166.7h-3.9v12.8c0,0.2-0.1,0.4-0.4,0.4h-1.1c-0.2,0-0.4-0.2-0.4-0.4v-12.8H137c-0.2,0-0.4-0.1-0.4-0.3
			v-0.9c0-0.2,0.2-0.4,0.4-0.4h9.5c0.2,0,0.4,0.1,0.4,0.4v0.9C147,166.6,146.8,166.7,146.6,166.7z"/>
		<path class="st1" d="M155.5,175h-6.6v0.3c0,2.4,0.9,3.2,2.8,3.2c1.1,0,2.6-0.1,3.5-0.2c0,0,0.1,0,0.1,0c0.2,0,0.3,0.1,0.3,0.3v0.7
			c0,0.3-0.1,0.4-0.4,0.5c-1.1,0.2-2.2,0.3-3.5,0.3c-2.3,0-4.5-1.1-4.5-4.8v-1.8c0-2.8,1.6-4.6,4.4-4.6c2.9,0,4.4,1.8,4.4,4.6v1.1
			C155.8,174.8,155.7,175,155.5,175z M154.1,173.5c0-2.2-0.9-3.1-2.6-3.1c-1.7,0-2.7,1-2.7,3.1v0.2h5.3V173.5z"/>
		<path class="st1" d="M159.8,179.9h-1c-0.2,0-0.4-0.2-0.4-0.4v-14.1c0-0.2,0.1-0.4,0.4-0.4h1c0.2,0,0.4,0.2,0.4,0.4v14.1
			C160.2,179.7,160,179.9,159.8,179.9z"/>
		<path class="st1" d="M171.1,175h-6.6v0.3c0,2.4,0.9,3.2,2.8,3.2c1.1,0,2.6-0.1,3.5-0.2c0,0,0.1,0,0.1,0c0.2,0,0.3,0.1,0.3,0.3v0.7
			c0,0.3-0.1,0.4-0.4,0.5c-1.1,0.2-2.2,0.3-3.5,0.3c-2.3,0-4.5-1.1-4.5-4.8v-1.8c0-2.8,1.6-4.6,4.4-4.6c2.9,0,4.4,1.8,4.4,4.6v1.1
			C171.4,174.8,171.3,175,171.1,175z M169.7,173.5c0-2.2-0.9-3.1-2.6-3.1c-1.7,0-2.7,1-2.7,3.1v0.2h5.3V173.5z"/>
		<path class="st1" d="M180.2,179.8c-0.7,0.1-1.5,0.2-2.5,0.2c-2.7,0-4.2-1.9-4.2-4.8v-1.5c0-2.9,1.5-4.8,4.2-4.8
			c0.9,0,1.8,0.1,2.5,0.2c0.3,0.1,0.4,0.2,0.4,0.4v0.7c0,0.2-0.2,0.3-0.3,0.3c0,0-0.1,0-0.1,0c-0.9-0.1-1.5-0.1-2.5-0.1
			c-1.6,0-2.5,1-2.5,3.3v1.5c0,2.2,0.9,3.3,2.5,3.3c1,0,1.6,0,2.5-0.1c0,0,0,0,0.1,0c0.2,0,0.3,0.1,0.3,0.3v0.7
			C180.6,179.6,180.5,179.7,180.2,179.8z"/>
		<path class="st1" d="M186.1,180c-2.9,0-4.4-1.9-4.4-4.8v-1.5c0-2.9,1.5-4.8,4.4-4.8s4.4,1.9,4.4,4.8v1.5
			C190.5,178.1,189,180,186.1,180z M188.8,173.7c0-2-0.8-3.3-2.7-3.3c-1.8,0-2.7,1.3-2.7,3.3v1.5c0,2,0.8,3.3,2.7,3.3
			c1.8,0,2.7-1.3,2.7-3.3V173.7z"/>
		<path class="st1" d="M205.6,179.9h-1c-0.2,0-0.4-0.2-0.4-0.4v-7c0-1.7-0.8-2.1-1.8-2.1c-0.7,0-1.5,0.2-2.3,0.5
			c0.1,0.4,0.2,1,0.2,1.5v7.1c0,0.2-0.1,0.4-0.4,0.4h-1c-0.2,0-0.3-0.2-0.3-0.4v-7.1c0-1.7-0.5-2.1-1.5-2.1c-0.7,0-1.6,0.4-2.4,0.8
			v8.4c0,0.2-0.1,0.4-0.4,0.4h-1.1c-0.2,0-0.3-0.2-0.3-0.4v-10.1c0-0.2,0.2-0.4,0.4-0.4h1c0.2,0,0.4,0.2,0.4,0.4v0.4
			c0.8-0.5,1.8-0.9,2.9-0.9c0.9,0,1.5,0.2,2,0.8c1.1-0.5,2.3-0.8,3.3-0.8c1.8,0,3.2,0.9,3.2,3.6v7
			C206,179.7,205.8,179.9,205.6,179.9z"/>
		<path class="st1" d="M216.7,179.9h-1c-0.2,0-0.4-0.2-0.4-0.4v-0.4c-1.1,0.6-2,0.9-3.2,0.9c-2.4,0-3.4-1.5-3.4-4.1v-6.5
			c0-0.2,0.2-0.4,0.4-0.4h1c0.2,0,0.4,0.2,0.4,0.4v6.5c0,2,0.7,2.6,2.2,2.6c0.8,0,1.8-0.3,2.7-0.8v-8.4c0-0.2,0.2-0.4,0.4-0.4h1
			c0.2,0,0.4,0.2,0.4,0.4v10.1C217,179.7,216.9,179.9,216.7,179.9z"/>
		<path class="st1" d="M227.7,179.9h-1c-0.2,0-0.4-0.2-0.4-0.4V173c0-2-0.7-2.6-2.2-2.6c-0.8,0-1.8,0.3-2.7,0.8v8.4
			c0,0.2-0.2,0.4-0.4,0.4h-1c-0.2,0-0.4-0.2-0.4-0.4v-10.1c0-0.2,0.2-0.4,0.4-0.4h1c0.2,0,0.4,0.2,0.4,0.4v0.4
			c1.1-0.6,2-0.9,3.2-0.9c2.4,0,3.4,1.5,3.4,4.1v6.5C228.1,179.7,227.9,179.9,227.7,179.9z"/>
		<path class="st1" d="M232.4,167.2h-1c-0.2,0-0.4-0.2-0.4-0.4v-1.6c0-0.2,0.2-0.4,0.4-0.4h1c0.2,0,0.4,0.2,0.4,0.4v1.6
			C232.8,167,232.6,167.2,232.4,167.2z M232.3,179.9h-1c-0.2,0-0.4-0.2-0.4-0.4v-10.1c0-0.2,0.2-0.4,0.4-0.4h1
			c0.2,0,0.4,0.2,0.4,0.4v10.1C232.7,179.7,232.6,179.9,232.3,179.9z"/>
		<path class="st1" d="M242,179.8c-0.7,0.1-1.5,0.2-2.5,0.2c-2.7,0-4.2-1.9-4.2-4.8v-1.5c0-2.9,1.5-4.8,4.2-4.8
			c0.9,0,1.8,0.1,2.5,0.2c0.3,0.1,0.4,0.2,0.4,0.4v0.7c0,0.2-0.2,0.3-0.3,0.3c0,0-0.1,0-0.1,0c-0.9-0.1-1.5-0.1-2.5-0.1
			c-1.6,0-2.5,1-2.5,3.3v1.5c0,2.2,0.9,3.3,2.5,3.3c1,0,1.6,0,2.5-0.1c0,0,0,0,0.1,0c0.2,0,0.3,0.1,0.3,0.3v0.7
			C242.4,179.6,242.3,179.7,242,179.8z"/>
		<path class="st1" d="M251.8,179.9h-0.9c-0.2,0-0.4-0.2-0.4-0.4V179c-1,0.6-1.9,1-3.1,1c-1.7,0-3.2-0.7-3.2-3.2v-0.2
			c0-2.1,1.2-3.2,4.8-3.2h1.5v-0.8c0-1.7-0.6-2.2-2.1-2.2c-1.3,0-2.2,0.1-3,0.2c0,0-0.1,0-0.1,0c-0.2,0-0.4-0.1-0.4-0.3v-0.7
			c0-0.2,0.1-0.3,0.4-0.4c0.8-0.1,1.7-0.3,3.1-0.3c2.8,0,3.9,1.4,3.9,3.7v6.9C252.2,179.7,252,179.9,251.8,179.9z M250.5,174.6H249
			c-2.4,0-3,0.5-3,1.9v0.2c0,1.4,0.7,1.8,1.8,1.8c0.9,0,1.7-0.3,2.7-0.8V174.6z"/>
		<path class="st1" d="M261.2,179.8c-0.7,0.1-1.5,0.2-2.5,0.2c-2.7,0-4.2-1.9-4.2-4.8v-1.5c0-2.9,1.5-4.8,4.2-4.8
			c0.9,0,1.8,0.1,2.5,0.2c0.3,0.1,0.4,0.2,0.4,0.4v0.7c0,0.2-0.2,0.3-0.3,0.3c0,0-0.1,0-0.1,0c-0.9-0.1-1.5-0.1-2.5-0.1
			c-1.6,0-2.5,1-2.5,3.3v1.5c0,2.2,0.9,3.3,2.5,3.3c1,0,1.6,0,2.5-0.1c0,0,0,0,0.1,0c0.2,0,0.3,0.1,0.3,0.3v0.7
			C261.6,179.6,261.6,179.7,261.2,179.8z"/>
		<path class="st1" d="M265.5,167.2h-1c-0.2,0-0.4-0.2-0.4-0.4v-1.6c0-0.2,0.2-0.4,0.4-0.4h1c0.2,0,0.4,0.2,0.4,0.4v1.6
			C265.9,167,265.7,167.2,265.5,167.2z M265.4,179.9h-1c-0.2,0-0.4-0.2-0.4-0.4v-10.1c0-0.2,0.2-0.4,0.4-0.4h1
			c0.2,0,0.4,0.2,0.4,0.4v10.1C265.8,179.7,265.6,179.9,265.4,179.9z"/>
		<path class="st1" d="M272.8,180c-2.9,0-4.4-1.9-4.4-4.8v-1.5c0-2.9,1.5-4.8,4.4-4.8s4.4,1.9,4.4,4.8v1.5
			C277.2,178.1,275.7,180,272.8,180z M275.5,173.7c0-2-0.8-3.3-2.7-3.3c-1.8,0-2.7,1.3-2.7,3.3v1.5c0,2,0.8,3.3,2.7,3.3
			c1.8,0,2.7-1.3,2.7-3.3V173.7z"/>
		<path class="st1" d="M287.5,179.9h-1c-0.2,0-0.4-0.2-0.4-0.4V173c0-2-0.7-2.6-2.2-2.6c-0.8,0-1.8,0.3-2.7,0.8v8.4
			c0,0.2-0.2,0.4-0.4,0.4h-1c-0.2,0-0.4-0.2-0.4-0.4v-10.1c0-0.2,0.2-0.4,0.4-0.4h1c0.2,0,0.4,0.2,0.4,0.4v0.4
			c1.1-0.6,2-0.9,3.2-0.9c2.4,0,3.4,1.5,3.4,4.1v6.5C287.9,179.7,287.7,179.9,287.5,179.9z"/>
		<path class="st1" d="M298.6,175H292v0.3c0,2.4,0.9,3.2,2.8,3.2c1.1,0,2.6-0.1,3.5-0.2c0,0,0.1,0,0.1,0c0.2,0,0.3,0.1,0.3,0.3v0.7
			c0,0.3-0.1,0.4-0.4,0.5c-1.1,0.2-2.2,0.3-3.5,0.3c-2.3,0-4.5-1.1-4.5-4.8v-1.8c0-2.8,1.6-4.6,4.4-4.6c2.9,0,4.4,1.8,4.4,4.6v1.1
			C299,174.8,298.9,175,298.6,175z M297.2,173.5c0-2.2-0.9-3.1-2.6-3.1c-1.7,0-2.7,1-2.7,3.1v0.2h5.3V173.5z"/>
		<path class="st1" d="M304.6,180c-0.7,0-2.2-0.1-3.1-0.3c-0.3-0.1-0.4-0.2-0.4-0.4v-0.7c0-0.2,0.2-0.3,0.4-0.3c0,0,0.1,0,0.1,0
			c1,0.1,2.4,0.2,3.1,0.2c1.3,0,2-0.3,2-1.4c0-0.6-0.4-1-1.5-1.6l-2-1.2c-1.2-0.7-2-1.6-2-2.8c0-2.1,1.5-2.6,3.6-2.6
			c1.1,0,2.2,0.1,3.1,0.3c0.3,0,0.4,0.2,0.4,0.4v0.7c0,0.2-0.1,0.3-0.3,0.3c0,0,0,0-0.1,0c-0.7-0.1-2-0.2-3.1-0.2
			c-1.1,0-1.8,0.1-1.8,1.1c0,0.6,0.5,1,1.4,1.5l2,1.2c1.6,1,2.2,1.8,2.2,3C308.3,179.2,306.8,180,304.6,180z"/>
		<path class="st1" d="M312.6,177.7l-1.5,3.7c-0.1,0.3-0.2,0.4-0.4,0.4h-0.8c-0.2,0-0.2-0.1-0.2-0.2c0,0,0-0.1,0-0.1l1.1-3.7
			c0.1-0.3,0.2-0.4,0.4-0.4h1.1c0.2,0,0.3,0.1,0.3,0.2C312.6,177.6,312.6,177.6,312.6,177.7z"/>
	</g>
	<g>
		<path class="st1" d="M145.7,198.7c-0.8,0.2-1.6,0.3-3.3,0.3c-2.4,0-5.2-1.3-5.2-6.1v-2.8c0-4.9,2.8-6.1,5.2-6.1
			c1.2,0,2.5,0.2,3.3,0.3c0.2,0,0.3,0.1,0.3,0.3v1c0,0.1,0,0.2-0.2,0.2c0,0,0,0-0.1,0c-0.7-0.1-2.2-0.2-3.3-0.2
			c-1.9,0-3.4,1.1-3.4,4.5v2.8c0,3.3,1.5,4.5,3.4,4.5c1.1,0,2.6-0.1,3.3-0.2c0,0,0.1,0,0.1,0c0.2,0,0.3,0.1,0.3,0.3v0.8
			C146.1,198.6,145.9,198.7,145.7,198.7z"/>
		<path class="st1" d="M151.9,199c-2.9,0-4.4-1.9-4.4-4.8v-1.5c0-2.9,1.5-4.8,4.4-4.8c2.9,0,4.4,1.9,4.4,4.8v1.5
			C156.4,197.1,154.9,199,151.9,199z M154.6,192.6c0-2-0.8-3.3-2.7-3.3c-1.8,0-2.7,1.3-2.7,3.3v1.5c0,2,0.8,3.3,2.7,3.3
			c1.8,0,2.7-1.3,2.7-3.3V192.6z"/>
		<path class="st1" d="M166.7,198.9h-1c-0.2,0-0.4-0.2-0.4-0.4v-6.5c0-2-0.7-2.6-2.2-2.6c-0.8,0-1.8,0.3-2.7,0.8v8.4
			c0,0.2-0.2,0.4-0.4,0.4h-1c-0.2,0-0.4-0.2-0.4-0.4v-10.1c0-0.2,0.2-0.4,0.4-0.4h1c0.2,0,0.4,0.2,0.4,0.4v0.4
			c1.1-0.6,2-0.9,3.2-0.9c2.4,0,3.4,1.5,3.4,4.1v6.5C167,198.7,166.9,198.9,166.7,198.9z"/>
		<path class="st1" d="M177.8,194h-6.6v0.3c0,2.4,0.9,3.2,2.8,3.2c1.1,0,2.6-0.1,3.5-0.2c0,0,0.1,0,0.1,0c0.2,0,0.3,0.1,0.3,0.3v0.7
			c0,0.3-0.1,0.4-0.4,0.5c-1.1,0.2-2.2,0.3-3.5,0.3c-2.3,0-4.5-1.1-4.5-4.8v-1.8c0-2.8,1.6-4.6,4.4-4.6c2.9,0,4.4,1.8,4.4,4.6v1.1
			C178.1,193.8,178,194,177.8,194z M176.4,192.4c0-2.2-0.9-3.1-2.6-3.1c-1.7,0-2.7,1-2.7,3.1v0.2h5.3V192.4z"/>
		<path class="st1" d="M186.9,198.8c-0.7,0.1-1.5,0.2-2.5,0.2c-2.7,0-4.2-1.9-4.2-4.8v-1.5c0-2.9,1.5-4.8,4.2-4.8
			c0.9,0,1.8,0.1,2.5,0.2c0.3,0.1,0.4,0.2,0.4,0.4v0.7c0,0.2-0.2,0.3-0.3,0.3c0,0-0.1,0-0.1,0c-0.9-0.1-1.5-0.1-2.5-0.1
			c-1.6,0-2.5,1-2.5,3.3v1.5c0,2.2,0.9,3.3,2.5,3.3c1,0,1.6,0,2.5-0.1c0,0,0,0,0.1,0c0.2,0,0.3,0.1,0.3,0.3v0.7
			C187.3,198.6,187.2,198.7,186.9,198.8z"/>
		<path class="st1" d="M194.9,198.9c-0.4,0.1-0.9,0.1-1.3,0.1c-1.8,0-2.7-0.5-2.7-2.7v-6.9l-1.9-0.2c-0.2,0-0.4-0.1-0.4-0.4v-0.5
			c0-0.2,0.2-0.4,0.4-0.4h1.9V186c0-0.2,0.1-0.4,0.4-0.4l1-0.2c0,0,0,0,0.1,0c0.2,0,0.3,0.1,0.3,0.3v2.2h2.1c0.2,0,0.4,0.2,0.4,0.4
			v0.7c0,0.2-0.2,0.4-0.4,0.4h-2.1v6.9c0,1.1,0.3,1.2,1.1,1.2h1.1c0.3,0,0.4,0.1,0.4,0.3v0.7C195.3,198.7,195.2,198.9,194.9,198.9z"
			/>
		<path class="st1" d="M198.7,186.2h-1c-0.2,0-0.4-0.2-0.4-0.4v-1.6c0-0.2,0.2-0.4,0.4-0.4h1c0.2,0,0.4,0.2,0.4,0.4v1.6
			C199.1,186,198.9,186.2,198.7,186.2z M198.7,198.9h-1c-0.2,0-0.4-0.2-0.4-0.4v-10.1c0-0.2,0.2-0.4,0.4-0.4h1
			c0.2,0,0.4,0.2,0.4,0.4v10.1C199.1,198.7,198.9,198.9,198.7,198.9z"/>
		<path class="st1" d="M210.4,188.4l-2.7,9.4c-0.3,0.9-0.9,1.1-1.8,1.1c-0.9,0-1.5-0.2-1.8-1.1l-2.7-9.4c0-0.1,0-0.1,0-0.1
			c0-0.2,0.1-0.3,0.3-0.3h1.1c0.2,0,0.3,0.1,0.4,0.4l2.3,8.6c0.1,0.5,0.2,0.6,0.4,0.6c0.2,0,0.3-0.1,0.4-0.6l2.3-8.6
			c0.1-0.3,0.2-0.4,0.4-0.4h1.1c0.2,0,0.3,0.1,0.3,0.3C210.4,188.3,210.4,188.4,210.4,188.4z"/>
		<path class="st1" d="M214.1,186.2h-1c-0.2,0-0.4-0.2-0.4-0.4v-1.6c0-0.2,0.2-0.4,0.4-0.4h1c0.2,0,0.4,0.2,0.4,0.4v1.6
			C214.5,186,214.3,186.2,214.1,186.2z M214.1,198.9h-1c-0.2,0-0.4-0.2-0.4-0.4v-10.1c0-0.2,0.2-0.4,0.4-0.4h1
			c0.2,0,0.4,0.2,0.4,0.4v10.1C214.5,198.7,214.3,198.9,214.1,198.9z"/>
		<path class="st1" d="M225,198.7c-1.2,0.2-2.4,0.3-3.6,0.3c-3,0-4.3-1.9-4.3-4.9v-1.4c0-3.1,1.4-4.9,4.3-4.9c0.6,0,1.5,0.1,2.3,0.2
			v-3.7c0-0.2,0.2-0.4,0.4-0.4h1c0.2,0,0.4,0.2,0.4,0.4v13.9C225.4,198.5,225.4,198.6,225,198.7z M223.7,189.5
			c-0.7-0.1-1.7-0.1-2.3-0.1c-1.9,0-2.6,1.2-2.6,3.3v1.4c0,2.2,0.6,3.4,2.6,3.4c0.7,0,1.6-0.1,2.3-0.1V189.5z"/>
		<path class="st1" d="M235.3,198.9h-0.9c-0.2,0-0.4-0.2-0.4-0.4V198c-1,0.6-1.9,1-3.1,1c-1.7,0-3.2-0.7-3.2-3.2v-0.2
			c0-2.1,1.2-3.2,4.8-3.2h1.5v-0.8c0-1.7-0.6-2.2-2.1-2.2c-1.3,0-2.2,0.1-3,0.2c0,0-0.1,0-0.1,0c-0.2,0-0.4-0.1-0.4-0.3v-0.7
			c0-0.2,0.1-0.3,0.4-0.4c0.8-0.1,1.7-0.3,3.1-0.3c2.8,0,3.9,1.4,3.9,3.7v6.9C235.7,198.7,235.5,198.9,235.3,198.9z M234,193.6h-1.5
			c-2.4,0-3,0.5-3,1.9v0.2c0,1.4,0.7,1.8,1.8,1.8c0.9,0,1.7-0.3,2.7-0.8V193.6z"/>
		<path class="st1" d="M246,198.7c-1.2,0.2-2.4,0.3-3.6,0.3c-3,0-4.3-1.9-4.3-4.9v-1.4c0-3.1,1.4-4.9,4.3-4.9c0.6,0,1.5,0.1,2.3,0.2
			v-3.7c0-0.2,0.2-0.4,0.4-0.4h1c0.2,0,0.4,0.2,0.4,0.4v13.9C246.4,198.5,246.4,198.6,246,198.7z M244.7,189.5
			c-0.7-0.1-1.7-0.1-2.3-0.1c-1.9,0-2.6,1.2-2.6,3.3v1.4c0,2.2,0.6,3.4,2.6,3.4c0.7,0,1.6-0.1,2.3-0.1V189.5z"/>
		<path class="st1" d="M262.5,188.4l-3.3,11.4c-0.6,2.1-1.3,2.9-3.6,2.9c-0.6,0-1.2-0.1-1.7-0.2c-0.2-0.1-0.4-0.1-0.4-0.3v-0.7
			c0-0.2,0.2-0.3,0.4-0.3c0,0,0,0,0.1,0c0.4,0,1.3,0.1,1.8,0.1c1.1,0,1.6-0.3,2-1.7l0.2-0.8h-0.3c-0.6,0-1.1-0.1-1.5-1.4l-2.6-9.1
			c0,0,0-0.1,0-0.1c0-0.2,0.1-0.3,0.4-0.3h1.1c0.2,0,0.3,0.2,0.3,0.3l2.3,8.6c0.1,0.4,0.2,0.4,0.4,0.4h0.3l2.4-9.1
			c0-0.2,0.2-0.3,0.4-0.3h1.1c0.2,0,0.3,0.1,0.3,0.3C262.5,188.3,262.5,188.4,262.5,188.4z"/>
		<path class="st1" d="M279.5,198.9h-1.3c-0.2,0-0.4,0-0.5-0.3l-3.5-5.9c-0.1,0-0.1,0-0.2,0c-0.1,0-0.2,0-0.3,0
			c-0.7,0-1.1,0-2.2-0.1v5.8c0,0.2-0.1,0.4-0.4,0.4H270c-0.2,0-0.4-0.2-0.4-0.4v-13.9c0-0.3,0.1-0.4,0.5-0.4
			c0.9-0.1,2.3-0.2,3.5-0.2c3.1,0,5.5,1.1,5.5,4.3v0.1c0,2.2-1.3,3.5-3.1,4l3.6,6c0,0.1,0.1,0.1,0.1,0.2
			C279.8,198.7,279.7,198.9,279.5,198.9z M277.4,188.2c0-2-1.3-2.6-3.8-2.6c-0.6,0-1.7,0-2.2,0.1v5.4c0.9,0,1.7,0,2.2,0
			c2.4,0,3.8-0.6,3.8-2.8V188.2z"/>
		<path class="st1" d="M289.5,194h-6.6v0.3c0,2.4,0.9,3.2,2.8,3.2c1.1,0,2.6-0.1,3.5-0.2c0,0,0.1,0,0.1,0c0.2,0,0.3,0.1,0.3,0.3v0.7
			c0,0.3-0.1,0.4-0.4,0.5c-1.1,0.2-2.2,0.3-3.5,0.3c-2.3,0-4.5-1.1-4.5-4.8v-1.8c0-2.8,1.6-4.6,4.4-4.6c2.9,0,4.4,1.8,4.4,4.6v1.1
			C289.9,193.8,289.7,194,289.5,194z M288.1,192.4c0-2.2-0.9-3.1-2.6-3.1c-1.7,0-2.7,1-2.7,3.1v0.2h5.3V192.4z"/>
		<path class="st1" d="M299.8,198.7c-1.2,0.2-2.4,0.3-3.6,0.3c-3,0-4.3-1.9-4.3-4.9v-1.4c0-3.1,1.4-4.9,4.3-4.9
			c0.6,0,1.5,0.1,2.3,0.2v-3.7c0-0.2,0.2-0.4,0.4-0.4h1c0.2,0,0.4,0.2,0.4,0.4v13.9C300.3,198.5,300.2,198.6,299.8,198.7z
			 M298.5,189.5c-0.7-0.1-1.7-0.1-2.3-0.1c-1.9,0-2.6,1.2-2.6,3.3v1.4c0,2.2,0.6,3.4,2.6,3.4c0.7,0,1.6-0.1,2.3-0.1V189.5z"/>
		<path class="st1" d="M311,194h-6.6v0.3c0,2.4,0.9,3.2,2.8,3.2c1.1,0,2.6-0.1,3.5-0.2c0,0,0.1,0,0.1,0c0.2,0,0.3,0.1,0.3,0.3v0.7
			c0,0.3-0.1,0.4-0.4,0.5c-1.1,0.2-2.2,0.3-3.5,0.3c-2.3,0-4.5-1.1-4.5-4.8v-1.8c0-2.8,1.6-4.6,4.4-4.6c2.9,0,4.4,1.8,4.4,4.6v1.1
			C311.4,193.8,311.2,194,311,194z M309.6,192.4c0-2.2-0.9-3.1-2.6-3.1c-1.7,0-2.7,1-2.7,3.1v0.2h5.3V192.4z"/>
		<path class="st1" d="M316.9,199c-0.7,0-2.2-0.1-3.1-0.3c-0.3-0.1-0.4-0.2-0.4-0.4v-0.7c0-0.2,0.2-0.3,0.4-0.3c0,0,0.1,0,0.1,0
			c1,0.1,2.4,0.2,3.1,0.2c1.3,0,2-0.3,2-1.4c0-0.6-0.4-1-1.5-1.6l-2-1.2c-1.2-0.7-2-1.6-2-2.8c0-2.1,1.5-2.6,3.6-2.6
			c1.1,0,2.2,0.1,3.1,0.3c0.3,0,0.4,0.2,0.4,0.4v0.7c0,0.2-0.1,0.3-0.3,0.3c0,0,0,0-0.1,0c-0.7-0.1-2-0.2-3.1-0.2
			c-1.1,0-1.8,0.1-1.8,1.1c0,0.6,0.5,1,1.4,1.5l2,1.2c1.6,1,2.2,1.8,2.2,3C320.6,198.1,319.1,199,316.9,199z"/>
	</g>
	<g>
		<path class="st1" d="M139.1,252h-1.1c-0.2,0-0.4-0.2-0.4-0.4v-14c0-0.2,0.1-0.4,0.4-0.4h1.1c0.2,0,0.4,0.2,0.4,0.4v14
			C139.5,251.8,139.4,252,139.1,252z"/>
		<path class="st1" d="M150.5,252h-1c-0.2,0-0.4-0.2-0.4-0.4v-6.5c0-2-0.7-2.6-2.2-2.6c-0.8,0-1.8,0.3-2.7,0.8v8.4
			c0,0.2-0.2,0.4-0.4,0.4h-1c-0.2,0-0.4-0.2-0.4-0.4v-10.1c0-0.2,0.2-0.4,0.4-0.4h1c0.2,0,0.4,0.2,0.4,0.4v0.4
			c1.1-0.6,2-0.9,3.2-0.9c2.4,0,3.4,1.5,3.4,4.1v6.5C150.9,251.8,150.8,252,150.5,252z"/>
		<path class="st1" d="M162.3,242.4l-0.7,0.1c0.4,0.4,0.7,1,0.7,2v0.2c0,2.2-1.3,3.4-4.4,3.4c-1.1,0-1.7-0.2-2.3-0.4
			c-0.3,0.2-0.5,0.4-0.5,0.7c0,0.3,0.2,0.5,0.6,0.6l3,0.8c1.9,0.5,3.8,1.1,3.8,2.9v0.2c0,1.9-1.3,3.1-4.5,3.1
			c-3.1,0-4.6-1.2-4.6-3.2v-0.2c0-1.1,0.6-2,1.2-2.5l-0.1-0.1c-0.6-0.3-0.9-0.9-0.9-1.5v0c0-0.5,0.3-1.1,0.8-1.4
			c-0.6-0.6-0.9-1.3-0.9-2.3v-0.2c0-1.8,1-3.5,4.4-3.5h4.3c0.2,0,0.5,0.2,0.5,0.4v0.5C162.6,242.3,162.5,242.4,162.3,242.4z
			 M160.7,252.7c0-0.8-0.6-1.1-2.4-1.5l-2.2-0.6c-0.6,0.5-1,1-1,2v0.2c0,1.1,0.7,1.8,2.9,1.8c2.3,0,2.8-0.6,2.8-1.7V252.7z
			 M160.5,244.6c0-1.2-0.5-2.1-2.7-2.1c-2.2,0-2.7,1-2.7,2.1v0.2c0,0.9,0.4,2,2.7,2c2.1,0,2.7-0.8,2.7-2V244.6z"/>
		<path class="st1" d="M172.7,247.1h-6.6v0.3c0,2.4,0.9,3.2,2.8,3.2c1.1,0,2.6-0.1,3.5-0.2c0,0,0.1,0,0.1,0c0.2,0,0.3,0.1,0.3,0.3
			v0.7c0,0.3-0.1,0.4-0.4,0.5c-1.1,0.2-2.2,0.3-3.5,0.3c-2.3,0-4.5-1.1-4.5-4.8v-1.8c0-2.8,1.6-4.6,4.4-4.6c2.9,0,4.4,1.8,4.4,4.6
			v1.1C173.1,246.9,173,247.1,172.7,247.1z M171.3,245.6c0-2.2-0.9-3.1-2.6-3.1c-1.7,0-2.7,1-2.7,3.1v0.2h5.3V245.6z"/>
		<path class="st1" d="M183.4,252h-1c-0.2,0-0.4-0.2-0.4-0.4v-6.5c0-2-0.7-2.6-2.2-2.6c-0.8,0-1.8,0.3-2.7,0.8v8.4
			c0,0.2-0.2,0.4-0.4,0.4h-1c-0.2,0-0.4-0.2-0.4-0.4v-10.1c0-0.2,0.2-0.4,0.4-0.4h1c0.2,0,0.4,0.2,0.4,0.4v0.4
			c1.1-0.6,2-0.9,3.2-0.9c2.4,0,3.4,1.5,3.4,4.1v6.5C183.8,251.8,183.7,252,183.4,252z"/>
		<path class="st1" d="M188.1,239.3h-1c-0.2,0-0.4-0.2-0.4-0.4v-1.6c0-0.2,0.2-0.4,0.4-0.4h1c0.2,0,0.4,0.2,0.4,0.4v1.6
			C188.5,239.2,188.3,239.3,188.1,239.3z M188.1,252h-1c-0.2,0-0.4-0.2-0.4-0.4v-10.1c0-0.2,0.2-0.4,0.4-0.4h1
			c0.2,0,0.4,0.2,0.4,0.4v10.1C188.5,251.8,188.3,252,188.1,252z"/>
		<path class="st1" d="M199.4,247.1h-6.6v0.3c0,2.4,0.9,3.2,2.8,3.2c1.1,0,2.6-0.1,3.5-0.2c0,0,0.1,0,0.1,0c0.2,0,0.3,0.1,0.3,0.3
			v0.7c0,0.3-0.1,0.4-0.4,0.5c-1.1,0.2-2.2,0.3-3.5,0.3c-2.3,0-4.5-1.1-4.5-4.8v-1.8c0-2.8,1.6-4.6,4.4-4.6c2.9,0,4.4,1.8,4.4,4.6
			v1.1C199.8,246.9,199.7,247.1,199.4,247.1z M198.1,245.6c0-2.2-0.9-3.1-2.6-3.1c-1.7,0-2.7,1-2.7,3.1v0.2h5.3V245.6z"/>
		<path class="st1" d="M206.7,242.4c-0.9,0-1.7,0.2-2.7,0.8v8.3c0,0.2-0.2,0.4-0.4,0.4h-1c-0.2,0-0.4-0.2-0.4-0.4v-10.1
			c0-0.2,0.2-0.4,0.4-0.4h0.9c0.2,0,0.4,0.2,0.4,0.4v0.4c1-0.7,1.9-1,2.8-1c0.3,0,0.4,0.1,0.4,0.4v0.8
			C207.1,242.3,207,242.4,206.7,242.4z"/>
		<path class="st1" d="M212.9,236.8l-2.2,2.5c-0.2,0.2-0.2,0.3-0.5,0.3h-1.1c-0.1,0-0.2-0.1-0.2-0.1c0-0.1,0-0.1,0.1-0.2l1.9-2.5
			c0.2-0.2,0.2-0.3,0.5-0.3h1.3c0.1,0,0.2,0,0.2,0.1C213,236.7,213,236.8,212.9,236.8z M210.5,252h-1c-0.2,0-0.4-0.2-0.4-0.4v-10.1
			c0-0.2,0.2-0.4,0.4-0.4h1c0.2,0,0.4,0.2,0.4,0.4v10.1C210.9,251.8,210.8,252,210.5,252z"/>
		<path class="st1" d="M221.1,252h-0.9c-0.2,0-0.4-0.2-0.4-0.4v-0.4c-1,0.6-1.9,1-3.1,1c-1.7,0-3.2-0.7-3.2-3.2v-0.2
			c0-2.1,1.2-3.2,4.8-3.2h1.5v-0.8c0-1.7-0.6-2.2-2.1-2.2c-1.3,0-2.2,0.1-3,0.2c0,0-0.1,0-0.1,0c-0.2,0-0.4-0.1-0.4-0.3v-0.7
			c0-0.2,0.1-0.3,0.4-0.4c0.8-0.1,1.7-0.3,3.1-0.3c2.8,0,3.9,1.4,3.9,3.7v6.9C221.5,251.8,221.3,252,221.1,252z M219.7,246.7h-1.5
			c-2.4,0-3,0.5-3,1.9v0.2c0,1.4,0.7,1.8,1.8,1.8c0.9,0,1.7-0.3,2.7-0.8V246.7z"/>
		<path class="st1" d="M237.1,247.1h-6.6v0.3c0,2.4,0.9,3.2,2.8,3.2c1.1,0,2.6-0.1,3.5-0.2c0,0,0.1,0,0.1,0c0.2,0,0.3,0.1,0.3,0.3
			v0.7c0,0.3-0.1,0.4-0.4,0.5c-1.1,0.2-2.2,0.3-3.5,0.3c-2.3,0-4.5-1.1-4.5-4.8v-1.8c0-2.8,1.6-4.6,4.4-4.6c2.9,0,4.4,1.8,4.4,4.6
			v1.1C237.5,246.9,237.3,247.1,237.1,247.1z M235.7,245.6c0-2.2-0.9-3.1-2.6-3.1c-1.7,0-2.7,1-2.7,3.1v0.2h5.3V245.6z"/>
		<path class="st1" d="M247.8,252h-1c-0.2,0-0.4-0.2-0.4-0.4v-6.5c0-2-0.7-2.6-2.2-2.6c-0.8,0-1.8,0.3-2.7,0.8v8.4
			c0,0.2-0.2,0.4-0.4,0.4h-1c-0.2,0-0.4-0.2-0.4-0.4v-10.1c0-0.2,0.2-0.4,0.4-0.4h1c0.2,0,0.4,0.2,0.4,0.4v0.4
			c1.1-0.6,2-0.9,3.2-0.9c2.4,0,3.4,1.5,3.4,4.1v6.5C248.2,251.8,248,252,247.8,252z"/>
		<path class="st1" d="M265,238.8h-3.9v12.8c0,0.2-0.1,0.4-0.4,0.4h-1.1c-0.2,0-0.4-0.2-0.4-0.4v-12.8h-3.9c-0.2,0-0.4-0.1-0.4-0.3
			v-0.9c0-0.2,0.2-0.4,0.4-0.4h9.5c0.2,0,0.4,0.1,0.4,0.4v0.9C265.4,238.7,265.3,238.8,265,238.8z"/>
		<path class="st1" d="M273.9,247.1h-6.6v0.3c0,2.4,0.9,3.2,2.8,3.2c1.1,0,2.6-0.1,3.5-0.2c0,0,0.1,0,0.1,0c0.2,0,0.3,0.1,0.3,0.3
			v0.7c0,0.3-0.1,0.4-0.4,0.5c-1.1,0.2-2.2,0.3-3.5,0.3c-2.3,0-4.5-1.1-4.5-4.8v-1.8c0-2.8,1.6-4.6,4.4-4.6c2.9,0,4.4,1.8,4.4,4.6
			v1.1C274.3,246.9,274.1,247.1,273.9,247.1z M272.5,245.6c0-2.2-0.9-3.1-2.6-3.1c-1.7,0-2.7,1-2.7,3.1v0.2h5.3V245.6z"/>
		<path class="st1" d="M278.2,252h-1c-0.2,0-0.4-0.2-0.4-0.4v-14.1c0-0.2,0.1-0.4,0.4-0.4h1c0.2,0,0.4,0.2,0.4,0.4v14.1
			C278.6,251.8,278.4,252,278.2,252z"/>
		<path class="st1" d="M289.5,247.1h-6.6v0.3c0,2.4,0.9,3.2,2.8,3.2c1.1,0,2.6-0.1,3.5-0.2c0,0,0.1,0,0.1,0c0.2,0,0.3,0.1,0.3,0.3
			v0.7c0,0.3-0.1,0.4-0.4,0.5c-1.1,0.2-2.2,0.3-3.5,0.3c-2.3,0-4.5-1.1-4.5-4.8v-1.8c0-2.8,1.6-4.6,4.4-4.6c2.9,0,4.4,1.8,4.4,4.6
			v1.1C289.9,246.9,289.7,247.1,289.5,247.1z M288.1,245.6c0-2.2-0.9-3.1-2.6-3.1c-1.7,0-2.7,1-2.7,3.1v0.2h5.3V245.6z"/>
		<path class="st1" d="M298.6,251.9c-0.7,0.1-1.5,0.2-2.5,0.2c-2.7,0-4.2-1.9-4.2-4.8v-1.5c0-2.9,1.5-4.8,4.2-4.8
			c0.9,0,1.8,0.1,2.5,0.2c0.3,0.1,0.4,0.2,0.4,0.4v0.7c0,0.2-0.2,0.3-0.3,0.3c0,0-0.1,0-0.1,0c-0.9-0.1-1.5-0.1-2.5-0.1
			c-1.6,0-2.5,1-2.5,3.3v1.5c0,2.2,0.9,3.3,2.5,3.3c1,0,1.6,0,2.5-0.1c0,0,0,0,0.1,0c0.2,0,0.3,0.1,0.3,0.3v0.7
			C299,251.7,298.9,251.8,298.6,251.9z"/>
		<path class="st1" d="M304.5,252.1c-2.9,0-4.4-1.9-4.4-4.8v-1.5c0-2.9,1.5-4.8,4.4-4.8c2.9,0,4.4,1.9,4.4,4.8v1.5
			C309,250.2,307.5,252.1,304.5,252.1z M307.2,245.8c0-2-0.8-3.3-2.7-3.3c-1.8,0-2.7,1.3-2.7,3.3v1.5c0,2,0.8,3.3,2.7,3.3
			c1.8,0,2.7-1.3,2.7-3.3V245.8z"/>
		<path class="st1" d="M324,252h-1c-0.2,0-0.4-0.2-0.4-0.4v-7c0-1.7-0.8-2.1-1.8-2.1c-0.7,0-1.5,0.2-2.3,0.5c0.1,0.4,0.2,1,0.2,1.5
			v7.1c0,0.2-0.1,0.4-0.4,0.4h-1c-0.2,0-0.3-0.2-0.3-0.4v-7.1c0-1.7-0.5-2.1-1.5-2.1c-0.7,0-1.6,0.4-2.4,0.8v8.4
			c0,0.2-0.1,0.4-0.4,0.4h-1.1c-0.2,0-0.3-0.2-0.3-0.4v-10.1c0-0.2,0.2-0.4,0.4-0.4h1c0.2,0,0.4,0.2,0.4,0.4v0.4
			c0.8-0.5,1.8-0.9,2.9-0.9c0.9,0,1.5,0.2,2,0.8c1.1-0.5,2.3-0.8,3.3-0.8c1.8,0,3.2,0.9,3.2,3.6v7C324.4,251.8,324.2,252,324,252z"
			/>
		<path class="st1" d="M335.1,252h-1c-0.2,0-0.4-0.2-0.4-0.4v-0.4c-1.1,0.6-2,0.9-3.2,0.9c-2.4,0-3.4-1.5-3.4-4.1v-6.5
			c0-0.2,0.2-0.4,0.4-0.4h1c0.2,0,0.4,0.2,0.4,0.4v6.5c0,2,0.7,2.6,2.2,2.6c0.8,0,1.8-0.3,2.7-0.8v-8.4c0-0.2,0.2-0.4,0.4-0.4h1
			c0.2,0,0.4,0.2,0.4,0.4v10.1C335.5,251.8,335.3,252,335.1,252z"/>
		<path class="st1" d="M346.1,252h-1c-0.2,0-0.4-0.2-0.4-0.4v-6.5c0-2-0.7-2.6-2.2-2.6c-0.8,0-1.8,0.3-2.7,0.8v8.4
			c0,0.2-0.2,0.4-0.4,0.4h-1c-0.2,0-0.4-0.2-0.4-0.4v-10.1c0-0.2,0.2-0.4,0.4-0.4h1c0.2,0,0.4,0.2,0.4,0.4v0.4
			c1.1-0.6,2-0.9,3.2-0.9c2.4,0,3.4,1.5,3.4,4.1v6.5C346.5,251.8,346.3,252,346.1,252z"/>
		<path class="st1" d="M350.8,239.3h-1c-0.2,0-0.4-0.2-0.4-0.4v-1.6c0-0.2,0.2-0.4,0.4-0.4h1c0.2,0,0.4,0.2,0.4,0.4v1.6
			C351.2,239.2,351,239.3,350.8,239.3z M350.8,252h-1c-0.2,0-0.4-0.2-0.4-0.4v-10.1c0-0.2,0.2-0.4,0.4-0.4h1c0.2,0,0.4,0.2,0.4,0.4
			v10.1C351.1,251.8,351,252,350.8,252z"/>
		<path class="st1" d="M360.4,251.9c-0.7,0.1-1.5,0.2-2.5,0.2c-2.7,0-4.2-1.9-4.2-4.8v-1.5c0-2.9,1.5-4.8,4.2-4.8
			c0.9,0,1.8,0.1,2.5,0.2c0.3,0.1,0.4,0.2,0.4,0.4v0.7c0,0.2-0.2,0.3-0.3,0.3c0,0-0.1,0-0.1,0c-0.9-0.1-1.5-0.1-2.5-0.1
			c-1.6,0-2.5,1-2.5,3.3v1.5c0,2.2,0.9,3.3,2.5,3.3c1,0,1.6,0,2.5-0.1c0,0,0,0,0.1,0c0.2,0,0.3,0.1,0.3,0.3v0.7
			C360.8,251.7,360.7,251.8,360.4,251.9z"/>
		<path class="st1" d="M370.2,252h-0.9c-0.2,0-0.4-0.2-0.4-0.4v-0.4c-1,0.6-1.9,1-3.1,1c-1.7,0-3.2-0.7-3.2-3.2v-0.2
			c0-2.1,1.2-3.2,4.8-3.2h1.5v-0.8c0-1.7-0.6-2.2-2.1-2.2c-1.3,0-2.2,0.1-3,0.2c0,0-0.1,0-0.1,0c-0.2,0-0.4-0.1-0.4-0.3v-0.7
			c0-0.2,0.1-0.3,0.4-0.4c0.8-0.1,1.7-0.3,3.1-0.3c2.8,0,3.9,1.4,3.9,3.7v6.9C370.6,251.8,370.4,252,370.2,252z M368.9,246.7h-1.5
			c-2.4,0-3,0.5-3,1.9v0.2c0,1.4,0.7,1.8,1.8,1.8c0.9,0,1.7-0.3,2.7-0.8V246.7z"/>
		<path class="st1" d="M379.7,251.9c-0.7,0.1-1.5,0.2-2.5,0.2c-2.7,0-4.2-1.9-4.2-4.8v-1.5c0-2.9,1.5-4.8,4.2-4.8
			c0.9,0,1.8,0.1,2.5,0.2c0.3,0.1,0.4,0.2,0.4,0.4v0.7c0,0.2-0.2,0.3-0.3,0.3c0,0-0.1,0-0.1,0c-0.9-0.1-1.5-0.1-2.5-0.1
			c-1.6,0-2.5,1-2.5,3.3v1.5c0,2.2,0.9,3.3,2.5,3.3c1,0,1.6,0,2.5-0.1c0,0,0,0,0.1,0c0.2,0,0.3,0.1,0.3,0.3v0.7
			C380.1,251.7,380,251.8,379.7,251.9z"/>
		<path class="st1" d="M383.9,239.3h-1c-0.2,0-0.4-0.2-0.4-0.4v-1.6c0-0.2,0.2-0.4,0.4-0.4h1c0.2,0,0.4,0.2,0.4,0.4v1.6
			C384.3,239.2,384.1,239.3,383.9,239.3z M383.8,252h-1c-0.2,0-0.4-0.2-0.4-0.4v-10.1c0-0.2,0.2-0.4,0.4-0.4h1
			c0.2,0,0.4,0.2,0.4,0.4v10.1C384.2,251.8,384.1,252,383.8,252z"/>
		<path class="st1" d="M391.2,252.1c-2.9,0-4.4-1.9-4.4-4.8v-1.5c0-2.9,1.5-4.8,4.4-4.8c2.9,0,4.4,1.9,4.4,4.8v1.5
			C395.6,250.2,394.1,252.1,391.2,252.1z M393.9,245.8c0-2-0.8-3.3-2.7-3.3c-1.8,0-2.7,1.3-2.7,3.3v1.5c0,2,0.8,3.3,2.7,3.3
			c1.8,0,2.7-1.3,2.7-3.3V245.8z"/>
		<path class="st1" d="M405.9,252h-1c-0.2,0-0.4-0.2-0.4-0.4v-6.5c0-2-0.7-2.6-2.2-2.6c-0.8,0-1.8,0.3-2.7,0.8v8.4
			c0,0.2-0.2,0.4-0.4,0.4h-1c-0.2,0-0.4-0.2-0.4-0.4v-10.1c0-0.2,0.2-0.4,0.4-0.4h1c0.2,0,0.4,0.2,0.4,0.4v0.4
			c1.1-0.6,2-0.9,3.2-0.9c2.4,0,3.4,1.5,3.4,4.1v6.5C406.3,251.8,406.1,252,405.9,252z"/>
		<path class="st1" d="M417,247.1h-6.6v0.3c0,2.4,0.9,3.2,2.8,3.2c1.1,0,2.6-0.1,3.5-0.2c0,0,0.1,0,0.1,0c0.2,0,0.3,0.1,0.3,0.3v0.7
			c0,0.3-0.1,0.4-0.4,0.5c-1.1,0.2-2.2,0.3-3.5,0.3c-2.3,0-4.5-1.1-4.5-4.8v-1.8c0-2.8,1.6-4.6,4.4-4.6c2.9,0,4.4,1.8,4.4,4.6v1.1
			C417.4,246.9,417.3,247.1,417,247.1z M415.6,245.6c0-2.2-0.9-3.1-2.6-3.1c-1.7,0-2.7,1-2.7,3.1v0.2h5.3V245.6z"/>
		<path class="st1" d="M423,252.1c-0.7,0-2.2-0.1-3.1-0.3c-0.3-0.1-0.4-0.2-0.4-0.4v-0.7c0-0.2,0.2-0.3,0.4-0.3c0,0,0.1,0,0.1,0
			c1,0.1,2.4,0.2,3.1,0.2c1.3,0,2-0.3,2-1.4c0-0.6-0.4-1-1.5-1.6l-2-1.2c-1.2-0.7-2-1.6-2-2.8c0-2.1,1.5-2.6,3.6-2.6
			c1.1,0,2.2,0.1,3.1,0.3c0.3,0,0.4,0.2,0.4,0.4v0.7c0,0.2-0.1,0.3-0.3,0.3c0,0,0,0-0.1,0c-0.7-0.1-2-0.2-3.1-0.2
			c-1.1,0-1.8,0.1-1.8,1.1c0,0.6,0.5,1,1.4,1.5l2,1.2c1.6,1,2.2,1.8,2.2,3C426.7,251.3,425.2,252.1,423,252.1z"/>
		<path class="st1" d="M431,249.8l-1.5,3.7c-0.1,0.3-0.2,0.4-0.4,0.4h-0.8c-0.2,0-0.2-0.1-0.2-0.2c0,0,0-0.1,0-0.1l1.1-3.7
			c0.1-0.3,0.2-0.4,0.4-0.4h1.1c0.2,0,0.3,0.1,0.3,0.2C431,249.7,431,249.7,431,249.8z"/>
	</g>
	<g>
		<path class="st1" d="M145.7,270.8c-0.8,0.2-1.6,0.3-3.3,0.3c-2.4,0-5.2-1.3-5.2-6.1v-2.8c0-4.9,2.8-6.1,5.2-6.1
			c1.2,0,2.5,0.2,3.3,0.3c0.2,0,0.3,0.1,0.3,0.3v1c0,0.1,0,0.2-0.2,0.2c0,0,0,0-0.1,0c-0.7-0.1-2.2-0.2-3.3-0.2
			c-1.9,0-3.4,1.1-3.4,4.5v2.8c0,3.3,1.5,4.5,3.4,4.5c1.1,0,2.6-0.1,3.3-0.2c0,0,0.1,0,0.1,0c0.2,0,0.3,0.1,0.3,0.3v0.8
			C146.1,270.7,145.9,270.8,145.7,270.8z"/>
		<path class="st1" d="M151.9,271.1c-2.9,0-4.4-1.9-4.4-4.8v-1.5c0-2.9,1.5-4.8,4.4-4.8c2.9,0,4.4,1.9,4.4,4.8v1.5
			C156.4,269.2,154.9,271.1,151.9,271.1z M154.6,264.8c0-2-0.8-3.3-2.7-3.3c-1.8,0-2.7,1.3-2.7,3.3v1.5c0,2,0.8,3.3,2.7,3.3
			c1.8,0,2.7-1.3,2.7-3.3V264.8z"/>
		<path class="st1" d="M166.7,271h-1c-0.2,0-0.4-0.2-0.4-0.4V264c0-2-0.7-2.6-2.2-2.6c-0.8,0-1.8,0.3-2.7,0.8v8.4
			c0,0.2-0.2,0.4-0.4,0.4h-1c-0.2,0-0.4-0.2-0.4-0.4v-10.1c0-0.2,0.2-0.4,0.4-0.4h1c0.2,0,0.4,0.2,0.4,0.4v0.4
			c1.1-0.6,2-0.9,3.2-0.9c2.4,0,3.4,1.5,3.4,4.1v6.5C167,270.8,166.9,271,166.7,271z"/>
		<path class="st1" d="M177.8,266.1h-6.6v0.3c0,2.4,0.9,3.2,2.8,3.2c1.1,0,2.6-0.1,3.5-0.2c0,0,0.1,0,0.1,0c0.2,0,0.3,0.1,0.3,0.3
			v0.7c0,0.3-0.1,0.4-0.4,0.5c-1.1,0.2-2.2,0.3-3.5,0.3c-2.3,0-4.5-1.1-4.5-4.8v-1.8c0-2.8,1.6-4.6,4.4-4.6c2.9,0,4.4,1.8,4.4,4.6
			v1.1C178.1,265.9,178,266.1,177.8,266.1z M176.4,264.6c0-2.2-0.9-3.1-2.6-3.1c-1.7,0-2.7,1-2.7,3.1v0.2h5.3V264.6z"/>
		<path class="st1" d="M186.9,270.9c-0.7,0.1-1.5,0.2-2.5,0.2c-2.7,0-4.2-1.9-4.2-4.8v-1.5c0-2.9,1.5-4.8,4.2-4.8
			c0.9,0,1.8,0.1,2.5,0.2c0.3,0.1,0.4,0.2,0.4,0.4v0.7c0,0.2-0.2,0.3-0.3,0.3c0,0-0.1,0-0.1,0c-0.9-0.1-1.5-0.1-2.5-0.1
			c-1.6,0-2.5,1-2.5,3.3v1.5c0,2.2,0.9,3.3,2.5,3.3c1,0,1.6,0,2.5-0.1c0,0,0,0,0.1,0c0.2,0,0.3,0.1,0.3,0.3v0.7
			C187.3,270.7,187.2,270.8,186.9,270.9z"/>
		<path class="st1" d="M194.9,271c-0.4,0.1-0.9,0.1-1.3,0.1c-1.8,0-2.7-0.5-2.7-2.7v-6.9l-1.9-0.2c-0.2,0-0.4-0.1-0.4-0.4v-0.5
			c0-0.2,0.2-0.4,0.4-0.4h1.9v-1.9c0-0.2,0.1-0.4,0.4-0.4l1-0.2c0,0,0,0,0.1,0c0.2,0,0.3,0.1,0.3,0.3v2.2h2.1c0.2,0,0.4,0.2,0.4,0.4
			v0.7c0,0.2-0.2,0.4-0.4,0.4h-2.1v6.9c0,1.1,0.3,1.2,1.1,1.2h1.1c0.3,0,0.4,0.1,0.4,0.3v0.7C195.3,270.8,195.2,271,194.9,271z"/>
		<path class="st1" d="M198.7,258.3h-1c-0.2,0-0.4-0.2-0.4-0.4v-1.6c0-0.2,0.2-0.4,0.4-0.4h1c0.2,0,0.4,0.2,0.4,0.4v1.6
			C199.1,258.1,198.9,258.3,198.7,258.3z M198.7,271h-1c-0.2,0-0.4-0.2-0.4-0.4v-10.1c0-0.2,0.2-0.4,0.4-0.4h1
			c0.2,0,0.4,0.2,0.4,0.4v10.1C199.1,270.8,198.9,271,198.7,271z"/>
		<path class="st1" d="M210.4,260.5l-2.7,9.4c-0.3,0.9-0.9,1.1-1.8,1.1c-0.9,0-1.5-0.2-1.8-1.1l-2.7-9.4c0-0.1,0-0.1,0-0.1
			c0-0.2,0.1-0.3,0.3-0.3h1.1c0.2,0,0.3,0.1,0.4,0.4l2.3,8.6c0.1,0.5,0.2,0.6,0.4,0.6c0.2,0,0.3-0.1,0.4-0.6l2.3-8.6
			c0.1-0.3,0.2-0.4,0.4-0.4h1.1c0.2,0,0.3,0.1,0.3,0.3C210.4,260.4,210.4,260.5,210.4,260.5z"/>
		<path class="st1" d="M214.1,258.3h-1c-0.2,0-0.4-0.2-0.4-0.4v-1.6c0-0.2,0.2-0.4,0.4-0.4h1c0.2,0,0.4,0.2,0.4,0.4v1.6
			C214.5,258.1,214.3,258.3,214.1,258.3z M214.1,271h-1c-0.2,0-0.4-0.2-0.4-0.4v-10.1c0-0.2,0.2-0.4,0.4-0.4h1
			c0.2,0,0.4,0.2,0.4,0.4v10.1C214.5,270.8,214.3,271,214.1,271z"/>
		<path class="st1" d="M225,270.8c-1.2,0.2-2.4,0.3-3.6,0.3c-3,0-4.3-1.9-4.3-4.9v-1.4c0-3.1,1.4-4.9,4.3-4.9c0.6,0,1.5,0.1,2.3,0.2
			v-3.7c0-0.2,0.2-0.4,0.4-0.4h1c0.2,0,0.4,0.2,0.4,0.4v13.9C225.4,270.6,225.4,270.7,225,270.8z M223.7,261.6
			c-0.7-0.1-1.7-0.1-2.3-0.1c-1.9,0-2.6,1.2-2.6,3.3v1.4c0,2.2,0.6,3.4,2.6,3.4c0.7,0,1.6-0.1,2.3-0.1V261.6z"/>
		<path class="st1" d="M235.3,271h-0.9c-0.2,0-0.4-0.2-0.4-0.4v-0.4c-1,0.6-1.9,1-3.1,1c-1.7,0-3.2-0.7-3.2-3.2v-0.2
			c0-2.1,1.2-3.2,4.8-3.2h1.5v-0.8c0-1.7-0.6-2.2-2.1-2.2c-1.3,0-2.2,0.1-3,0.2c0,0-0.1,0-0.1,0c-0.2,0-0.4-0.1-0.4-0.3v-0.7
			c0-0.2,0.1-0.3,0.4-0.4c0.8-0.1,1.7-0.3,3.1-0.3c2.8,0,3.9,1.4,3.9,3.7v6.9C235.7,270.8,235.5,271,235.3,271z M234,265.7h-1.5
			c-2.4,0-3,0.5-3,1.9v0.2c0,1.4,0.7,1.8,1.8,1.8c0.9,0,1.7-0.3,2.7-0.8V265.7z"/>
		<path class="st1" d="M246,270.8c-1.2,0.2-2.4,0.3-3.6,0.3c-3,0-4.3-1.9-4.3-4.9v-1.4c0-3.1,1.4-4.9,4.3-4.9c0.6,0,1.5,0.1,2.3,0.2
			v-3.7c0-0.2,0.2-0.4,0.4-0.4h1c0.2,0,0.4,0.2,0.4,0.4v13.9C246.4,270.6,246.4,270.7,246,270.8z M244.7,261.6
			c-0.7-0.1-1.7-0.1-2.3-0.1c-1.9,0-2.6,1.2-2.6,3.3v1.4c0,2.2,0.6,3.4,2.6,3.4c0.7,0,1.6-0.1,2.3-0.1V261.6z"/>
		<path class="st1" d="M262.5,260.5l-3.3,11.4c-0.6,2.1-1.3,2.9-3.6,2.9c-0.6,0-1.2-0.1-1.7-0.2c-0.2-0.1-0.4-0.1-0.4-0.3v-0.7
			c0-0.2,0.2-0.3,0.4-0.3c0,0,0,0,0.1,0c0.4,0,1.3,0.1,1.8,0.1c1.1,0,1.6-0.3,2-1.7l0.2-0.8h-0.3c-0.6,0-1.1-0.1-1.5-1.4l-2.6-9.1
			c0,0,0-0.1,0-0.1c0-0.2,0.1-0.3,0.4-0.3h1.1c0.2,0,0.3,0.2,0.3,0.3l2.3,8.6c0.1,0.4,0.2,0.4,0.4,0.4h0.3l2.4-9.1
			c0-0.2,0.2-0.3,0.4-0.3h1.1c0.2,0,0.3,0.1,0.3,0.3C262.5,260.4,262.5,260.5,262.5,260.5z"/>
		<path class="st1" d="M279.5,271h-1.3c-0.2,0-0.4,0-0.5-0.3l-3.5-5.9c-0.1,0-0.1,0-0.2,0c-0.1,0-0.2,0-0.3,0c-0.7,0-1.1,0-2.2-0.1
			v5.8c0,0.2-0.1,0.4-0.4,0.4H270c-0.2,0-0.4-0.2-0.4-0.4v-13.9c0-0.3,0.1-0.4,0.5-0.4c0.9-0.1,2.3-0.2,3.5-0.2
			c3.1,0,5.5,1.1,5.5,4.3v0.1c0,2.2-1.3,3.5-3.1,4l3.6,6c0,0.1,0.1,0.1,0.1,0.2C279.8,270.8,279.7,271,279.5,271z M277.4,260.4
			c0-2-1.3-2.6-3.8-2.6c-0.6,0-1.7,0-2.2,0.1v5.4c0.9,0,1.7,0,2.2,0c2.4,0,3.8-0.6,3.8-2.8V260.4z"/>
		<path class="st1" d="M289.5,266.1h-6.6v0.3c0,2.4,0.9,3.2,2.8,3.2c1.1,0,2.6-0.1,3.5-0.2c0,0,0.1,0,0.1,0c0.2,0,0.3,0.1,0.3,0.3
			v0.7c0,0.3-0.1,0.4-0.4,0.5c-1.1,0.2-2.2,0.3-3.5,0.3c-2.3,0-4.5-1.1-4.5-4.8v-1.8c0-2.8,1.6-4.6,4.4-4.6c2.9,0,4.4,1.8,4.4,4.6
			v1.1C289.9,265.9,289.7,266.1,289.5,266.1z M288.1,264.6c0-2.2-0.9-3.1-2.6-3.1c-1.7,0-2.7,1-2.7,3.1v0.2h5.3V264.6z"/>
		<path class="st1" d="M299.8,270.8c-1.2,0.2-2.4,0.3-3.6,0.3c-3,0-4.3-1.9-4.3-4.9v-1.4c0-3.1,1.4-4.9,4.3-4.9
			c0.6,0,1.5,0.1,2.3,0.2v-3.7c0-0.2,0.2-0.4,0.4-0.4h1c0.2,0,0.4,0.2,0.4,0.4v13.9C300.3,270.6,300.2,270.7,299.8,270.8z
			 M298.5,261.6c-0.7-0.1-1.7-0.1-2.3-0.1c-1.9,0-2.6,1.2-2.6,3.3v1.4c0,2.2,0.6,3.4,2.6,3.4c0.7,0,1.6-0.1,2.3-0.1V261.6z"/>
		<path class="st1" d="M311,266.1h-6.6v0.3c0,2.4,0.9,3.2,2.8,3.2c1.1,0,2.6-0.1,3.5-0.2c0,0,0.1,0,0.1,0c0.2,0,0.3,0.1,0.3,0.3v0.7
			c0,0.3-0.1,0.4-0.4,0.5c-1.1,0.2-2.2,0.3-3.5,0.3c-2.3,0-4.5-1.1-4.5-4.8v-1.8c0-2.8,1.6-4.6,4.4-4.6c2.9,0,4.4,1.8,4.4,4.6v1.1
			C311.4,265.9,311.2,266.1,311,266.1z M309.6,264.6c0-2.2-0.9-3.1-2.6-3.1c-1.7,0-2.7,1-2.7,3.1v0.2h5.3V264.6z"/>
		<path class="st1" d="M316.9,271.1c-0.7,0-2.2-0.1-3.1-0.3c-0.3-0.1-0.4-0.2-0.4-0.4v-0.7c0-0.2,0.2-0.3,0.4-0.3c0,0,0.1,0,0.1,0
			c1,0.1,2.4,0.2,3.1,0.2c1.3,0,2-0.3,2-1.4c0-0.6-0.4-1-1.5-1.6l-2-1.2c-1.2-0.7-2-1.6-2-2.8c0-2.1,1.5-2.6,3.6-2.6
			c1.1,0,2.2,0.1,3.1,0.3c0.3,0,0.4,0.2,0.4,0.4v0.7c0,0.2-0.1,0.3-0.3,0.3c0,0,0,0-0.1,0c-0.7-0.1-2-0.2-3.1-0.2
			c-1.1,0-1.8,0.1-1.8,1.1c0,0.6,0.5,1,1.4,1.5l2,1.2c1.6,1,2.2,1.8,2.2,3C320.6,270.2,319.1,271.1,316.9,271.1z"/>
	</g>
	<polyline class="st2" points="115.3,39.8 84.5,39.8 84.5,256.1 115.3,256.1 	"/>
	<line class="st2" x1="83.6" y1="111.9" x2="116.1" y2="111.9"/>
	<line class="st2" x1="83.6" y1="188.4" x2="116.1" y2="188.4"/>
	<line class="st2" x1="51.5" y1="149.9" x2="83.6" y2="149.9"/>
	<g>
		<path class="st3" d="M22,252.1c0.4,0.1,0.5,0.2,0.5,0.6c-0.1,0.8-0.2,2.3-0.2,3.4c0,1,0.2,2.1,3.4,2.7l2.1,0.4
			c0.7,0.1,1.2,0.2,1.7,0.2c1.6,0,1.7-0.8,1.7-1.7c0-1-0.2-2.6-0.2-3.4c-0.1-0.4,0.2-0.5,0.5-0.4l4,0.7c0.3,0.1,0.4,0.2,0.6,0.6
			c0.3,0.9,0.5,2,0.5,3.5c0,4.7-2.5,6.9-6.4,6.9c-0.7,0-1.5-0.1-2.3-0.2l-2.1-0.4c-6.5-1.2-8.7-4.2-8.7-9.6c0-1.4,0.2-2.7,0.5-3.4
			c0.1-0.3,0.2-0.5,0.6-0.5L22,252.1z"/>
		<path class="st3" d="M22.3,236.1l13.3,2.3c0.3,0.1,0.5,0.2,0.5,0.5v3.7c0,0.5-0.2,0.6-0.5,0.5l-0.7-0.1c1,1.2,1.5,2.2,1.5,4.2
			c0,2.8-1.7,4.5-4.7,4.5c-0.8,0-1.3-0.1-1.7-0.1l-2.4-0.4c-5.5-0.9-6.8-4.1-6.8-8.3c0-1.9,0.3-4,0.6-5.9
			C21.5,236.4,21.7,236,22.3,236.1z M25.5,243.5c0,1.1,0.4,1.7,2.1,2l2.5,0.5c0.3,0.1,0.5,0.1,0.7,0.1c0.8,0,0.9-0.4,0.9-1
			c0-0.5-0.2-1.2-0.4-1.6l-5.8-1C25.5,242.8,25.5,243.2,25.5,243.5z"/>
		<path class="st3" d="M20.8,224.6c0-0.4,0.1-0.6,0.5-0.5l3.6,0.6c0.3,0.1,0.5,0.1,0.5,0.6v0.2c0,1.6,0.1,2.4,0.4,3l9.7,1.7
			c0.3,0.1,0.6,0.2,0.6,0.6v4.6c0,0.3-0.1,0.6-0.6,0.5l-14-2.5c-0.3-0.1-0.5-0.2-0.5-0.6v-4c0-0.3,0.2-0.5,0.5-0.4l0.7,0.2
			c-1.2-1-1.5-2.5-1.5-3.7V224.6z"/>
		<path class="st3" d="M20.8,213.4c0-0.4,0.1-0.6,0.5-0.5l3.6,0.6c0.3,0.1,0.5,0.1,0.5,0.6v0.2c0,1.6,0.1,2.4,0.4,3l9.7,1.7
			c0.3,0.1,0.6,0.2,0.6,0.6v4.6c0,0.3-0.1,0.6-0.6,0.5l-14-2.5c-0.3-0.1-0.5-0.2-0.5-0.6v-4c0-0.3,0.2-0.5,0.5-0.4l0.7,0.2
			c-1.2-1-1.5-2.5-1.5-3.7V213.4z"/>
		<path class="st3" d="M28,198.8l1.6,0.3c0.3,0.1,0.5,0.3,0.5,0.6v7.7c0.2,0,0.4,0.1,0.6,0.1c0.8,0,1.1-0.5,1.1-2
			c0-1.1-0.1-3.9-0.2-4.8c0-0.4,0.1-0.6,0.5-0.5l2.7,0.5c0.4,0.1,0.6,0.2,0.7,0.6c0.5,1.4,1,4,1,6c0,3.3-1.8,5.8-5.3,5.8
			c-0.5,0-1-0.1-1.5-0.2l-1.6-0.3c-5.3-0.9-7.2-4-7.2-8.4c0-4,2.4-5.7,5.5-5.7C26.8,198.6,27.4,198.7,28,198.8z M25.1,205.2
			c0,1,0.7,1.5,2.1,1.8V204c-0.3-0.1-0.6-0.1-0.9-0.1C25.6,203.9,25.1,204.3,25.1,205.2z"/>
		<path class="st3" d="M20.8,186.7c0-0.4,0.1-0.6,0.5-0.5l3.6,0.6c0.3,0.1,0.5,0.1,0.5,0.6v0.2c0,1.6,0.1,2.4,0.4,3l9.7,1.7
			c0.3,0.1,0.6,0.2,0.6,0.6v4.6c0,0.3-0.1,0.6-0.6,0.5l-14-2.5c-0.3-0.1-0.5-0.2-0.5-0.6v-4c0-0.3,0.2-0.5,0.5-0.4l0.7,0.2
			c-1.2-1-1.5-2.5-1.5-3.7V186.7z"/>
		<path class="st3" d="M22.3,171l13.3,2.3c0.3,0.1,0.5,0.2,0.5,0.5v3.7c0,0.5-0.2,0.6-0.5,0.5l-0.7-0.1c1,1.2,1.5,2.2,1.5,4.2
			c0,2.8-1.7,4.5-4.7,4.5c-0.8,0-1.3-0.1-1.7-0.1l-2.4-0.4c-5.5-0.9-6.8-4.1-6.8-8.3c0-1.9,0.3-4,0.6-5.9
			C21.5,171.3,21.7,170.9,22.3,171z M25.5,178.4c0,1.1,0.4,1.7,2.1,2l2.5,0.5c0.3,0.1,0.5,0.1,0.7,0.1c0.8,0,0.9-0.4,0.9-1
			c0-0.5-0.2-1.2-0.4-1.6l-5.8-1C25.5,177.7,25.5,178.1,25.5,178.4z"/>
		<path class="st3" d="M22,157.2l3.3,0.6c0.4,0.1,0.6,0.1,0.5,0.6c-0.1,0.8-0.5,3.5-0.5,4.5c0,0.2,0,0.6,0.3,0.6
			c0.2,0,0.3-0.1,0.6-0.6l1.1-2c1.2-2.3,2.5-2.6,3.9-2.6c3.7,0,5.1,3,5.1,7.5c0,2.2-0.3,3.7-0.7,4.7c-0.1,0.3-0.3,0.4-0.6,0.4
			l-3.2-0.6c-0.4-0.1-0.7-0.2-0.6-0.8c0.3-1.7,0.5-3.5,0.5-4.4c0-0.4,0-1-0.6-1c-0.2,0-0.3,0.1-0.5,0.5l-1.3,2.3
			c-0.8,1.5-2,2.3-3.6,2.3c-4.1,0-5.1-3.3-5.1-6.8c0-1.9,0.4-3.7,0.7-4.8C21.6,157.3,21.7,157.2,22,157.2z"/>
		<path class="st3" d="M22.3,134.9l13.3,2.3c0.3,0.1,0.5,0.2,0.5,0.5v3.7c0,0.5-0.2,0.6-0.5,0.5l-0.7-0.1c1,1.2,1.5,2.2,1.5,4.2
			c0,2.8-1.7,4.5-4.7,4.5c-0.8,0-1.3-0.1-1.7-0.1l-2.4-0.4c-5.5-0.9-6.8-4.1-6.8-8.3c0-1.9,0.3-4,0.6-5.9
			C21.5,135.1,21.7,134.8,22.3,134.9z M25.5,142.3c0,1.1,0.4,1.7,2.1,2l2.5,0.5c0.3,0.1,0.5,0.1,0.7,0.1c0.8,0,0.9-0.4,0.9-1
			c0-0.5-0.2-1.2-0.4-1.6l-5.8-1C25.5,141.6,25.5,142,25.5,142.3z"/>
		<path class="st3" d="M22,121.1l3.3,0.6c0.4,0.1,0.6,0.1,0.5,0.6c-0.1,0.8-0.5,3.5-0.5,4.5c0,0.2,0,0.6,0.3,0.6
			c0.2,0,0.3-0.1,0.6-0.6l1.1-2c1.2-2.3,2.5-2.6,3.9-2.6c3.7,0,5.1,3,5.1,7.5c0,2.2-0.3,3.7-0.7,4.7c-0.1,0.3-0.3,0.4-0.6,0.4
			l-3.2-0.6c-0.4-0.1-0.7-0.2-0.6-0.8c0.3-1.7,0.5-3.5,0.5-4.4c0-0.4,0-1-0.6-1c-0.2,0-0.3,0.1-0.5,0.5l-1.3,2.3
			c-0.8,1.5-2,2.3-3.6,2.3c-4.1,0-5.1-3.3-5.1-6.8c0-1.9,0.4-3.7,0.7-4.8C21.6,121.2,21.7,121,22,121.1z"/>
		<path class="st3" d="M28,105.8l1.2,0.2c5.4,0.9,7.2,3.9,7.2,8.3c0,3.8-2,5.9-5.5,5.9c-0.5,0-1.1-0.1-1.7-0.2l-1.2-0.2
			c-5.3-0.9-7.2-3.9-7.2-8.3c0-3.8,1.9-5.9,5.4-5.9C26.8,105.6,27.4,105.7,28,105.8z M25.5,112.4c0,0.9,0.7,1.5,2.5,1.8l1.2,0.2
			c0.5,0.1,0.9,0.1,1.2,0.1c1,0,1.3-0.4,1.3-1c0-0.9-0.5-1.4-2.5-1.8l-1.2-0.2c-0.5-0.1-0.9-0.1-1.2-0.1
			C25.8,111.4,25.5,111.8,25.5,112.4z"/>
		<path class="st3" d="M21.2,93c0.1-0.3,0.2-0.5,0.5-0.4l3.5,0.6c0.3,0.1,0.5,0.3,0.5,0.6v0c0,0.8-0.2,1.7-0.2,2.7
			c0,1,0.7,1.5,2.2,1.7l1.7,0.3c0.4,0.1,0.7,0.1,1,0.1c0.8,0,1.2-0.3,1.2-1.1c0-1-0.1-2-0.2-2.8c0-0.5,0.2-0.5,0.5-0.5l3.5,0.6
			c0.3,0.1,0.4,0.3,0.5,0.6c0.2,1,0.4,2.2,0.4,3.7c0,3.6-2.3,5.2-5.3,5.2c-0.5,0-1.1-0.1-1.7-0.2l-1.7-0.3c-4.7-0.8-7-3.3-7-7.5
			C20.8,95,21.1,93.7,21.2,93z"/>
		<path class="st3" d="M16.2,84.1c0-0.3,0.1-0.6,0.5-0.5l2.6,0.5c0.3,0.1,0.5,0.2,0.5,0.7v4.8c0,0.5-0.3,0.5-0.5,0.5l-2.6-0.5
			c-0.3-0.1-0.5-0.2-0.5-0.7V84.1z M35.6,92.7l-14-2.5c-0.3-0.1-0.5-0.2-0.5-0.7V85c0-0.5,0.2-0.5,0.5-0.5l14,2.5
			c0.3,0.1,0.6,0.2,0.6,0.7v4.6C36.2,92.6,35.9,92.8,35.6,92.7z"/>
		<path class="st3" d="M22.3,68.2l13.3,2.3c0.3,0.1,0.5,0.2,0.5,0.5v3.7c0,0.5-0.2,0.6-0.5,0.5l-0.7-0.1c1,1.2,1.5,2.2,1.5,4.2
			c0,2.8-1.7,4.5-4.7,4.5c-0.8,0-1.3-0.1-1.7-0.1l-2.4-0.4c-5.5-0.9-6.8-4.1-6.8-8.3c0-1.9,0.3-4,0.6-5.9
			C21.5,68.4,21.7,68.1,22.3,68.2z M25.5,75.6c0,1.1,0.4,1.7,2.1,2l2.5,0.5c0.3,0.1,0.5,0.1,0.7,0.1c0.8,0,0.9-0.4,0.9-1
			c0-0.5-0.2-1.2-0.4-1.6l-5.8-1C25.5,74.9,25.5,75.3,25.5,75.6z"/>
		<path class="st3" d="M16.2,51.4c0-0.3,0.1-0.6,0.5-0.5l18.2,3.2c0.4,0.1,0.7,0.3,0.9,1.2c0.2,1.3,0.6,3.5,0.6,6.1
			c0,3.7-2.4,6-5.5,6c-0.4,0-0.8-0.1-1.3-0.1l-2-0.4c-4.8-0.9-6.8-3.5-6.8-8c0-0.6,0.1-1.3,0.2-1.6l-4.2-0.7
			c-0.3-0.1-0.5-0.2-0.5-0.6V51.4z M25.5,59.5c0,1,0.6,1.5,2.1,1.7l2,0.4c0.4,0.1,0.7,0.1,1,0.1c0.8,0,1.1-0.3,1.1-1.1
			c0-0.7,0-0.9-0.1-1.4l-6-1.1C25.6,58.6,25.5,59,25.5,59.5z"/>
		<path class="st3" d="M22.3,35.5l13.3,2.3c0.3,0.1,0.5,0.2,0.5,0.5V42c0,0.5-0.2,0.6-0.5,0.5l-0.7-0.1c1,1.2,1.5,2.2,1.5,4.2
			c0,2.8-1.7,4.5-4.7,4.5c-0.8,0-1.3-0.1-1.7-0.1l-2.4-0.4c-5.5-0.9-6.8-4.1-6.8-8.3c0-1.9,0.3-4,0.6-5.9
			C21.5,35.7,21.7,35.4,22.3,35.5z M25.5,42.9c0,1.1,0.4,1.7,2.1,2l2.5,0.5c0.3,0.1,0.5,0.1,0.7,0.1c0.8,0,0.9-0.4,0.9-1
			c0-0.5-0.2-1.2-0.4-1.6l-5.8-1C25.5,42.2,25.5,42.5,25.5,42.9z"/>
		<path class="st3" d="M22,21.7l3.3,0.6c0.4,0.1,0.6,0.1,0.5,0.6c-0.1,0.8-0.5,3.5-0.5,4.5c0,0.2,0,0.6,0.3,0.6
			c0.2,0,0.3-0.1,0.6-0.6l1.1-2c1.2-2.3,2.5-2.6,3.9-2.6c3.7,0,5.1,3,5.1,7.5c0,2.2-0.3,3.7-0.7,4.7c-0.1,0.3-0.3,0.4-0.6,0.4
			L32,34.8c-0.4-0.1-0.7-0.2-0.6-0.8c0.3-1.7,0.5-3.5,0.5-4.4c0-0.4,0-1-0.6-1c-0.2,0-0.3,0.1-0.5,0.5l-1.3,2.3
			c-0.8,1.5-2,2.3-3.6,2.3c-4.1,0-5.1-3.3-5.1-6.8c0-1.9,0.4-3.7,0.7-4.8C21.6,21.8,21.7,21.6,22,21.7z"/>
	</g>
</g>
</svg>
