<?xml version="1.0" encoding="utf-8"?>
<!-- Generator: Adobe Illustrator 19.2.1, SVG Export Plug-In . SVG Version: 6.00 Build 0)  -->
<svg version="1.1" id="Capa_1" xmlns="http://www.w3.org/2000/svg" xmlns:xlink="http://www.w3.org/1999/xlink" x="0px" y="0px"
	 viewBox="0 0 500 149.2" style="enable-background:new 0 0 500 149.2;" xml:space="preserve">
<style type="text/css">
	.st0{fill:none;stroke:#391754;stroke-width:2.1087;}
	.st1{fill:#FFFFFE;}
	.st2{fill:#FFC000;}
	.st3{fill:#3A0048;}
	.st4{fill:#F000A6;}
</style>
<g>
	<line class="st0" x1="164.5" y1="73.7" x2="201.4" y2="73.7"/>
	<line class="st0" x1="248.9" y1="73.7" x2="281.4" y2="73.7"/>
	<line class="st0" x1="363.6" y1="32.3" x2="449.4" y2="32.3"/>
	<line class="st0" x1="363.6" y1="114.8" x2="449.4" y2="114.8"/>
	<polyline class="st0" points="319.4,32.3 282.5,32.3 282.5,114.8 319.4,114.8 	"/>
	<g>
		<g>
			<path class="st1" d="M312,111.3h-1.7v6c0,0.1-0.1,0.2-0.2,0.2h-1c-0.1,0-0.2-0.1-0.2-0.2v-6h-1.7c-0.1,0-0.2-0.1-0.2-0.2v-0.8
				c0-0.1,0.1-0.2,0.2-0.2h4.8c0.1,0,0.2,0.1,0.2,0.2v0.8C312.2,111.3,312.1,111.3,312,111.3z"/>
			<path class="st1" d="M315.6,113c-0.5,0-0.9,0.1-1.4,0.4v4c0,0.1-0.1,0.2-0.2,0.2h-0.9c-0.1,0-0.2-0.1-0.2-0.2v-5.1
				c0-0.1,0.1-0.2,0.2-0.2h0.9c0.1,0,0.2,0.1,0.2,0.2v0.2c0.5-0.4,1-0.5,1.4-0.5c0.1,0,0.2,0.1,0.2,0.2v0.7
				C315.8,112.9,315.7,113,315.6,113z"/>
			<path class="st1" d="M320.4,117.5h-0.8c-0.1,0-0.2-0.1-0.2-0.2v-0.2c-0.5,0.3-0.9,0.4-1.4,0.4c-0.8,0-1.7-0.3-1.7-1.6v0
				c0-1.1,0.7-1.7,2.4-1.7h0.6v-0.4c0-0.6-0.3-0.8-0.9-0.8c-0.6,0-1.3,0-1.6,0.1c0,0,0,0,0,0c-0.1,0-0.2,0-0.2-0.2v-0.6
				c0-0.1,0.1-0.2,0.2-0.2c0.4-0.1,1-0.2,1.6-0.2c1.4,0,2.2,0.6,2.2,1.9v3.5C320.6,117.4,320.6,117.5,320.4,117.5z M319.3,115.1
				h-0.6c-0.9,0-1.1,0.3-1.1,0.8v0c0,0.5,0.2,0.6,0.7,0.6c0.4,0,0.7-0.1,1-0.3V115.1z"/>
			<path class="st1" d="M322.9,111.2h-1c-0.1,0-0.2-0.1-0.2-0.2v-0.9c0-0.1,0.1-0.2,0.2-0.2h1c0.1,0,0.2,0.1,0.2,0.2v0.9
				C323.1,111.1,323.1,111.2,322.9,111.2z M322.9,117.5H322c-0.1,0-0.2-0.1-0.2-0.2v-5.1c0-0.1,0.1-0.2,0.2-0.2h0.9
				c0.1,0,0.2,0.1,0.2,0.2v5.1C323.1,117.4,323,117.5,322.9,117.5z"/>
			<path class="st1" d="M328.6,117.5h-0.9c-0.1,0-0.2-0.1-0.2-0.2v-3.2c0-0.9-0.1-1.1-0.8-1.1c-0.3,0-0.7,0.1-1.1,0.4v4
				c0,0.1-0.1,0.2-0.2,0.2h-0.9c-0.1,0-0.2-0.1-0.2-0.2v-5.1c0-0.1,0.1-0.2,0.2-0.2h0.9c0.1,0,0.2,0.1,0.2,0.2v0.2
				c0.6-0.4,0.9-0.5,1.6-0.5c1.4,0,1.7,1,1.7,2.2v3.2C328.8,117.4,328.7,117.5,328.6,117.5z"/>
			<path class="st1" d="M331.1,111.2h-1c-0.1,0-0.2-0.1-0.2-0.2v-0.9c0-0.1,0.1-0.2,0.2-0.2h1c0.1,0,0.2,0.1,0.2,0.2v0.9
				C331.3,111.1,331.2,111.2,331.1,111.2z M331.1,117.5h-0.9c-0.1,0-0.2-0.1-0.2-0.2v-5.1c0-0.1,0.1-0.2,0.2-0.2h0.9
				c0.1,0,0.2,0.1,0.2,0.2v5.1C331.3,117.4,331.2,117.5,331.1,117.5z"/>
			<path class="st1" d="M336.8,117.5h-0.9c-0.1,0-0.2-0.1-0.2-0.2v-3.2c0-0.9-0.1-1.1-0.8-1.1c-0.3,0-0.7,0.1-1.1,0.4v4
				c0,0.1-0.1,0.2-0.2,0.2h-0.9c-0.1,0-0.2-0.1-0.2-0.2v-5.1c0-0.1,0.1-0.2,0.2-0.2h0.9c0.1,0,0.2,0.1,0.2,0.2v0.2
				c0.6-0.4,0.9-0.5,1.6-0.5c1.4,0,1.7,1,1.7,2.2v3.2C337,117.4,336.9,117.5,336.8,117.5z"/>
			<path class="st1" d="M342.8,112.9l-0.3,0.1c0.2,0.2,0.2,0.4,0.2,0.8v0.1c0,1.2-0.8,1.8-2.3,1.8c-0.5,0-0.9-0.1-1.1-0.2
				c-0.1,0.1-0.2,0.2-0.2,0.3c0,0.2,0.1,0.3,0.3,0.3l1.2,0.3c1.3,0.3,2.2,0.5,2.2,1.6v0.1c0,1-0.7,1.5-2.4,1.5
				c-1.6,0-2.4-0.6-2.4-1.6v-0.1c0-0.4,0.2-0.8,0.5-1.1c-0.3-0.2-0.4-0.6-0.4-0.9v0c0-0.3,0.1-0.6,0.4-0.8c-0.3-0.3-0.4-0.7-0.4-1.2
				v-0.1c0-1,0.6-1.8,2.3-1.8h2.3c0.1,0,0.3,0.1,0.3,0.3v0.4C343,112.8,343,112.8,342.8,112.9z M341.6,117.9c0-0.2-0.1-0.3-1.2-0.6
				l-0.9-0.2c-0.1,0.2-0.2,0.3-0.2,0.7v0.1c0,0.4,0.2,0.6,1.2,0.6C341.4,118.5,341.6,118.3,341.6,117.9L341.6,117.9z M341.5,113.8
				c0-0.5-0.2-0.8-1.1-0.8c-0.8,0-1.1,0.4-1.1,0.8v0.1c0,0.4,0.1,0.8,1.1,0.8C341.2,114.6,341.5,114.4,341.5,113.8L341.5,113.8z"/>
			<path class="st1" d="M350.3,117.4c-0.1,0-0.8,0.2-1.6,0.2c-1.2,0-2.8-0.6-2.8-3v-1.4c0-2.5,1.6-3,2.8-3c0.8,0,1.4,0.1,1.6,0.2
				c0.1,0,0.2,0.1,0.2,0.2v0.7c0,0.1,0,0.2-0.2,0.2c0,0,0,0,0,0c-0.3,0-1-0.1-1.5-0.1c-0.8,0-1.4,0.4-1.4,1.8v1.4
				c0,1.4,0.6,1.8,1.4,1.8c0.5,0,1.2,0,1.5-0.1c0,0,0,0,0,0c0.1,0,0.2,0.1,0.2,0.2v0.7C350.6,117.3,350.5,117.4,350.3,117.4z"/>
			<path class="st1" d="M355.8,115.2h-3.2v0c0,0.6,0.2,1.3,1.2,1.3c0.7,0,1.4-0.1,1.8-0.1c0,0,0,0,0,0c0.1,0,0.2,0,0.2,0.1v0.7
				c0,0.2,0,0.2-0.2,0.3c-0.6,0.1-1,0.2-1.9,0.2c-1,0-2.4-0.5-2.4-2.5v-0.7c0-1.5,0.9-2.5,2.4-2.5c1.5,0,2.3,1,2.3,2.5v0.6
				C356,115.1,356,115.2,355.8,115.2z M354.7,114.2c0-0.8-0.4-1.2-1-1.2c-0.6,0-1.1,0.4-1.1,1.2v0L354.7,114.2L354.7,114.2z"/>
			<path class="st1" d="M361.4,117.5h-0.9c-0.1,0-0.2-0.1-0.2-0.2v-3.2c0-0.9-0.1-1.1-0.8-1.1c-0.3,0-0.7,0.1-1.1,0.4v4
				c0,0.1-0.1,0.2-0.2,0.2h-0.9c-0.1,0-0.2-0.1-0.2-0.2v-5.1c0-0.1,0.1-0.2,0.2-0.2h0.9c0.1,0,0.2,0.1,0.2,0.2v0.2
				c0.6-0.4,0.9-0.5,1.6-0.5c1.4,0,1.7,1,1.7,2.2v3.2C361.6,117.4,361.5,117.5,361.4,117.5z"/>
			<path class="st1" d="M365.6,117.5c-0.2,0-0.5,0.1-0.7,0.1c-1.1,0-1.6-0.2-1.6-1.6v-3.1l-0.9-0.1c-0.1,0-0.2-0.1-0.2-0.2v-0.4
				c0-0.1,0.1-0.2,0.2-0.2h0.9v-0.8c0-0.1,0.1-0.2,0.2-0.2l0.9-0.2c0,0,0,0,0,0c0.1,0,0.2,0,0.2,0.1v1h0.9c0.1,0,0.2,0.1,0.2,0.2
				v0.6c0,0.1-0.1,0.2-0.2,0.2h-0.9v3.1c0,0.5,0,0.6,0.4,0.6h0.5c0.1,0,0.2,0,0.2,0.1v0.6C365.8,117.4,365.7,117.5,365.6,117.5z"/>
			<path class="st1" d="M370.9,115.2h-3.2v0c0,0.6,0.2,1.3,1.2,1.3c0.7,0,1.4-0.1,1.8-0.1c0,0,0,0,0,0c0.1,0,0.2,0,0.2,0.1v0.7
				c0,0.2,0,0.2-0.2,0.3c-0.6,0.1-1,0.2-1.9,0.2c-1,0-2.4-0.5-2.4-2.5v-0.7c0-1.5,0.9-2.5,2.4-2.5c1.5,0,2.3,1,2.3,2.5v0.6
				C371.1,115.1,371,115.2,370.9,115.2z M369.8,114.2c0-0.8-0.4-1.2-1-1.2c-0.6,0-1.1,0.4-1.1,1.2v0L369.8,114.2L369.8,114.2z"/>
			<path class="st1" d="M374.7,113c-0.5,0-0.9,0.1-1.4,0.4v4c0,0.1-0.1,0.2-0.2,0.2h-0.9c-0.1,0-0.2-0.1-0.2-0.2v-5.1
				c0-0.1,0.1-0.2,0.2-0.2h0.9c0.1,0,0.2,0.1,0.2,0.2v0.2c0.5-0.4,1-0.5,1.4-0.5c0.1,0,0.2,0.1,0.2,0.2v0.7
				C374.9,112.9,374.8,113,374.7,113z"/>
		</g>
	</g>
	<rect x="195" y="48.8" class="st2" width="64.4" height="49.9"/>
	<g>
		<g>
			<path class="st1" d="M210.4,63.2h-1c-0.1,0-0.2-0.1-0.2-0.2l-0.5-1.9h-2.3l-0.5,1.9c0,0.1-0.1,0.2-0.2,0.2h-1
				c-0.1,0-0.2-0.1-0.2-0.2c0,0,0,0,0,0l1.6-6.2c0.2-0.9,0.9-1,1.4-1c0.4,0,1.1,0.1,1.4,1l1.6,6.2c0,0,0,0,0,0
				C210.6,63.2,210.5,63.2,210.4,63.2z M207.7,57.1c0-0.1-0.1-0.2-0.2-0.2c-0.1,0-0.1,0-0.2,0.2l-0.7,2.9h1.7L207.7,57.1z"/>
			<path class="st1" d="M214.6,63.2c-0.2,0.1-0.7,0.1-1.3,0.1c-1.3,0-2.2-0.8-2.2-2.4V60c0-1.6,1-2.4,2.2-2.4c0.6,0,1,0.1,1.3,0.1
				c0.2,0,0.2,0.1,0.2,0.3v0.6c0,0.1-0.1,0.1-0.2,0.1c0,0,0,0,0,0c-0.4,0-0.6-0.1-1.3-0.1c-0.5,0-0.9,0.3-0.9,1.3v0.9
				c0,1,0.5,1.3,0.9,1.3c0.6,0,0.9,0,1.3-0.1c0,0,0,0,0,0c0.1,0,0.2,0,0.2,0.1v0.6C214.8,63.1,214.7,63.1,214.6,63.2z"/>
			<path class="st1" d="M219.6,63.2h-0.8c-0.1,0-0.2-0.1-0.2-0.2v-0.2c-0.5,0.3-0.9,0.4-1.4,0.4c-0.8,0-1.7-0.3-1.7-1.6v0
				c0-1.1,0.7-1.7,2.4-1.7h0.6v-0.4c0-0.6-0.3-0.8-0.9-0.8c-0.6,0-1.3,0-1.6,0.1c0,0,0,0,0,0c-0.1,0-0.2,0-0.2-0.2V58
				c0-0.1,0.1-0.2,0.2-0.2c0.4-0.1,1-0.2,1.6-0.2c1.4,0,2.2,0.6,2.2,1.9V63C219.8,63.1,219.7,63.2,219.6,63.2z M218.5,60.8h-0.6
				c-0.9,0-1.1,0.3-1.1,0.8v0c0,0.5,0.2,0.6,0.7,0.6c0.4,0,0.7-0.1,1-0.3V60.8z"/>
			<path class="st1" d="M225.1,63.1c-0.6,0.2-1.3,0.3-2,0.3c-1.6,0-2.4-0.9-2.4-2.5v-0.8c0-1.5,0.8-2.5,2.4-2.5c0.2,0,0.6,0,0.9,0.1
				v-1.7c0-0.1,0.1-0.2,0.2-0.2h0.9c0.1,0,0.2,0.1,0.2,0.2v6.9C225.4,62.9,225.3,63,225.1,63.1z M224.1,58.7c-0.3,0-0.7-0.1-0.9-0.1
				c-0.8,0-1.1,0.6-1.1,1.4v0.8c0,0.8,0.2,1.4,1.1,1.4c0.4,0,0.8,0,0.9-0.1V58.7z"/>
			<path class="st1" d="M230.8,60.9h-3.2v0c0,0.6,0.2,1.3,1.2,1.3c0.7,0,1.4-0.1,1.8-0.1c0,0,0,0,0,0c0.1,0,0.2,0,0.2,0.1v0.7
				c0,0.2,0,0.2-0.2,0.3c-0.6,0.1-1,0.2-1.9,0.2c-1,0-2.4-0.5-2.4-2.5v-0.7c0-1.5,0.9-2.5,2.4-2.5c1.5,0,2.3,1,2.3,2.5v0.6
				C231,60.8,231,60.9,230.8,60.9z M229.7,59.9c0-0.8-0.4-1.2-1-1.2c-0.6,0-1.1,0.4-1.1,1.2v0L229.7,59.9L229.7,59.9z"/>
			<path class="st1" d="M238.9,63.2H238c-0.1,0-0.2-0.1-0.2-0.2v-3.3c0-0.8-0.2-1-0.7-1c-0.2,0-0.6,0.1-0.9,0.2c0,0.2,0,0.5,0,0.7
				V63c0,0.1-0.1,0.2-0.2,0.2h-0.9c-0.1,0-0.2-0.1-0.2-0.2v-3.3c0-0.8-0.1-1-0.7-1c-0.2,0-0.5,0.1-0.9,0.3v4c0,0.1-0.1,0.2-0.2,0.2
				h-0.9c-0.1,0-0.2-0.1-0.2-0.2v-5.1c0-0.1,0.1-0.2,0.2-0.2h0.9c0.1,0,0.2,0.1,0.2,0.2v0.2c0.4-0.3,0.8-0.5,1.4-0.5
				c0.6,0,0.9,0.2,1.2,0.4c0.5-0.3,0.9-0.4,1.6-0.4c1.3,0,1.6,0.9,1.6,2.1V63C239.1,63.1,239,63.2,238.9,63.2z"/>
			<path class="st1" d="M241.4,56.9h-1c-0.1,0-0.2-0.1-0.2-0.2v-0.9c0-0.1,0.1-0.2,0.2-0.2h1c0.1,0,0.2,0.1,0.2,0.2v0.9
				C241.6,56.9,241.5,56.9,241.4,56.9z M241.3,63.2h-0.9c-0.1,0-0.2-0.1-0.2-0.2v-5.1c0-0.1,0.1-0.2,0.2-0.2h0.9
				c0.1,0,0.2,0.1,0.2,0.2V63C241.5,63.1,241.5,63.2,241.3,63.2z"/>
			<path class="st1" d="M246.6,63.2h-0.8c-0.1,0-0.2-0.1-0.2-0.2v-0.2c-0.5,0.3-0.9,0.4-1.4,0.4c-0.8,0-1.7-0.3-1.7-1.6v0
				c0-1.1,0.7-1.7,2.4-1.7h0.6v-0.4c0-0.6-0.3-0.8-0.9-0.8c-0.6,0-1.3,0-1.6,0.1c0,0,0,0,0,0c-0.1,0-0.2,0-0.2-0.2V58
				c0-0.1,0.1-0.2,0.2-0.2c0.4-0.1,1-0.2,1.6-0.2c1.4,0,2.2,0.6,2.2,1.9V63C246.8,63.1,246.7,63.2,246.6,63.2z M245.5,60.8h-0.6
				c-0.9,0-1.1,0.3-1.1,0.8v0c0,0.5,0.2,0.6,0.7,0.6c0.4,0,0.7-0.1,1-0.3V60.8z"/>
		</g>
	</g>
	<g>
		<g>
			<path class="st1" d="M219.7,75.8c-0.1,0-0.8,0.2-1.6,0.2c-1.2,0-2.8-0.6-2.8-3v-1.4c0-2.5,1.6-3,2.8-3c0.8,0,1.4,0.1,1.6,0.2
				c0.1,0,0.2,0.1,0.2,0.2v0.7c0,0.1,0,0.2-0.2,0.2c0,0,0,0,0,0c-0.3,0-1-0.1-1.5-0.1c-0.8,0-1.4,0.4-1.4,1.8V73
				c0,1.4,0.6,1.8,1.4,1.8c0.5,0,1.2,0,1.5-0.1c0,0,0,0,0,0c0.1,0,0.2,0.1,0.2,0.2v0.7C220,75.7,219.9,75.8,219.7,75.8z"/>
			<path class="st1" d="M222.1,69.6h-1c-0.1,0-0.2-0.1-0.2-0.2v-0.9c0-0.1,0.1-0.2,0.2-0.2h1c0.1,0,0.2,0.1,0.2,0.2v0.9
				C222.3,69.5,222.2,69.6,222.1,69.6z M222,75.9h-0.9c-0.1,0-0.2-0.1-0.2-0.2v-5.1c0-0.1,0.1-0.2,0.2-0.2h0.9
				c0.1,0,0.2,0.1,0.2,0.2v5.1C222.2,75.8,222.1,75.9,222,75.9z"/>
			<path class="st1" d="M225.2,76c-0.4,0-1.2,0-1.8-0.2c-0.1,0-0.2-0.1-0.2-0.2V75c0-0.1,0.1-0.2,0.2-0.2c0,0,0,0,0,0
				c0.5,0.1,1.4,0.1,1.7,0.1c0.6,0,0.7-0.2,0.7-0.5c0-0.2-0.1-0.3-0.4-0.5l-1.3-0.8c-0.5-0.3-0.8-0.8-0.8-1.4c0-1,0.6-1.5,1.9-1.5
				c0.8,0,1.2,0.1,1.8,0.2c0.1,0,0.2,0.1,0.2,0.2v0.6c0,0.1-0.1,0.2-0.2,0.2c0,0,0,0,0,0c-0.3,0-1.1-0.1-1.6-0.1
				c-0.5,0-0.7,0.1-0.7,0.4c0,0.2,0.1,0.3,0.4,0.4l1.3,0.8c0.8,0.5,0.9,1,0.9,1.5C227.1,75.3,226.5,76,225.2,76z"/>
			<path class="st1" d="M231.4,75.8c-0.2,0.1-0.7,0.1-1.3,0.1c-1.3,0-2.2-0.8-2.2-2.4v-0.9c0-1.6,1-2.4,2.2-2.4c0.6,0,1,0.1,1.3,0.1
				c0.2,0,0.2,0.1,0.2,0.3v0.6c0,0.1-0.1,0.1-0.2,0.1c0,0,0,0,0,0c-0.4,0-0.6-0.1-1.3-0.1c-0.5,0-0.9,0.3-0.9,1.3v0.9
				c0,1,0.5,1.3,0.9,1.3c0.6,0,0.9,0,1.3-0.1c0,0,0,0,0,0c0.1,0,0.2,0,0.2,0.1v0.6C231.6,75.7,231.6,75.8,231.4,75.8z"/>
			<path class="st1" d="M234.7,76c-1.5,0-2.4-1-2.4-2.5v-0.8c0-1.4,0.8-2.5,2.4-2.5c1.5,0,2.4,1,2.4,2.5v0.8
				C237.1,74.9,236.3,76,234.7,76z M235.8,72.7c0-0.8-0.4-1.3-1.1-1.3c-0.7,0-1.1,0.5-1.1,1.3v0.8c0,0.8,0.4,1.3,1.1,1.3
				c0.7,0,1.1-0.5,1.1-1.3V72.7z"/>
		</g>
	</g>
	<g>
		<g>
			<path class="st1" d="M211.3,88.5h-1c-0.1,0-0.2-0.1-0.2-0.2v-6.9c0-0.1,0.1-0.2,0.2-0.2h1c0.1,0,0.2,0.1,0.2,0.2v6.9
				C211.5,88.5,211.4,88.5,211.3,88.5z"/>
			<path class="st1" d="M218,88.5h-1c-0.2,0-0.4,0-0.6-0.4l-2.2-4.8c0-0.1-0.1-0.1-0.1-0.1c0,0,0,0,0,0.1v5c0,0.1-0.1,0.2-0.2,0.2
				H213c-0.1,0-0.2-0.1-0.2-0.2v-6.7c0-0.2,0.2-0.4,0.4-0.4h1.1c0.2,0,0.3,0.1,0.4,0.3l2.3,5.1c0,0,0,0.1,0.1,0.1c0,0,0,0,0-0.1
				v-5.2c0-0.1,0.1-0.2,0.2-0.2h0.8c0.1,0,0.2,0.1,0.2,0.2v6.7C218.4,88.4,218.2,88.5,218,88.5z"/>
			<path class="st1" d="M224.9,88.5h-1c-0.1,0-0.2-0.1-0.2-0.2l-0.5-1.9H221l-0.5,1.9c0,0.1-0.1,0.2-0.2,0.2h-1
				c-0.1,0-0.2-0.1-0.2-0.2c0,0,0,0,0,0l1.6-6.2c0.2-0.9,0.9-1,1.4-1c0.4,0,1.1,0.1,1.4,1l1.6,6.2c0,0,0,0,0,0
				C225.1,88.5,225,88.5,224.9,88.5z M222.3,82.5c0-0.1-0.1-0.2-0.2-0.2c-0.1,0-0.1,0-0.2,0.2l-0.7,2.9h1.7L222.3,82.5z"/>
			<path class="st1" d="M230.1,88.5c-0.1,0-0.8,0.2-1.6,0.2c-1.2,0-2.8-0.6-2.8-3v-1.4c0-2.5,1.6-3,2.8-3c0.8,0,1.4,0.1,1.6,0.2
				c0.1,0,0.2,0.1,0.2,0.2v0.7c0,0.1,0,0.2-0.2,0.2c0,0,0,0,0,0c-0.3,0-1-0.1-1.5-0.1c-0.8,0-1.4,0.4-1.4,1.8v1.4
				c0,1.4,0.6,1.8,1.4,1.8c0.5,0,1.2,0,1.5-0.1c0,0,0,0,0,0c0.1,0,0.2,0.1,0.2,0.2v0.7C230.3,88.4,230.2,88.4,230.1,88.5z"/>
			<path class="st1" d="M236.6,88.5h-1c-0.1,0-0.2-0.1-0.2-0.2l-0.5-1.9h-2.3l-0.5,1.9c0,0.1-0.1,0.2-0.2,0.2h-1
				c-0.1,0-0.2-0.1-0.2-0.2c0,0,0,0,0,0l1.6-6.2c0.2-0.9,0.9-1,1.4-1c0.4,0,1.1,0.1,1.4,1l1.6,6.2c0,0,0,0,0,0
				C236.7,88.5,236.7,88.5,236.6,88.5z M233.9,82.5c0-0.1-0.1-0.2-0.2-0.2c-0.1,0-0.1,0-0.2,0.2l-0.7,2.9h1.7L233.9,82.5z"/>
			<path class="st1" d="M239.8,85.8c-0.3,0-0.7,0-0.9,0v2.6c0,0.1-0.1,0.2-0.2,0.2h-1c-0.1,0-0.2-0.1-0.2-0.2v-6.8
				c0-0.2,0.1-0.3,0.3-0.3c0.5-0.1,1.2-0.1,1.9-0.1c1.5,0,2.8,0.5,2.8,2.3v0.1C242.6,85.3,241.3,85.8,239.8,85.8z M241.3,83.4
				c0-0.8-0.5-1.1-1.5-1.1c-0.2,0-0.7,0-0.9,0v2.3c0.2,0,0.7,0,0.9,0C240.8,84.7,241.3,84.3,241.3,83.4L241.3,83.4z"/>
		</g>
	</g>
	<rect x="300.9" y="8.4" class="st2" width="81.2" height="49.9"/>
	<rect x="300.9" y="90.9" class="st2" width="81.2" height="49.9"/>
	<g>
		<g>
			<path class="st1" d="M326.8,22.2h-1c-0.1,0-0.2-0.1-0.2-0.2l-0.5-1.9h-2.3l-0.5,1.9c0,0.1-0.1,0.2-0.2,0.2h-1
				c-0.1,0-0.2-0.1-0.2-0.2c0,0,0,0,0,0l1.6-6.2c0.2-0.9,0.9-1,1.4-1s1.1,0.1,1.4,1l1.6,6.2c0,0,0,0,0,0
				C326.9,22.2,326.9,22.2,326.8,22.2z M324.1,16.2c0-0.1-0.1-0.2-0.2-0.2c-0.1,0-0.1,0-0.2,0.2l-0.7,2.9h1.7L324.1,16.2z"/>
			<path class="st1" d="M330.9,22.2c-0.2,0.1-0.7,0.1-1.3,0.1c-1.3,0-2.2-0.8-2.2-2.4V19c0-1.6,1-2.4,2.2-2.4c0.6,0,1,0.1,1.3,0.1
				c0.2,0,0.2,0.1,0.2,0.3v0.6c0,0.1-0.1,0.1-0.2,0.1c0,0,0,0,0,0c-0.4,0-0.6-0.1-1.3-0.1c-0.5,0-0.9,0.3-0.9,1.3v0.9
				c0,1,0.5,1.3,0.9,1.3c0.6,0,0.9,0,1.3-0.1c0,0,0,0,0,0c0.1,0,0.2,0,0.2,0.1v0.6C331.1,22.1,331.1,22.2,330.9,22.2z"/>
			<path class="st1" d="M336,22.2h-0.8c-0.1,0-0.2-0.1-0.2-0.2v-0.2c-0.5,0.3-0.9,0.4-1.4,0.4c-0.8,0-1.7-0.3-1.7-1.6v0
				c0-1.1,0.7-1.7,2.4-1.7h0.6v-0.4c0-0.6-0.3-0.8-0.9-0.8c-0.6,0-1.3,0-1.6,0.1c0,0,0,0,0,0c-0.1,0-0.2,0-0.2-0.2V17
				c0-0.1,0.1-0.2,0.2-0.2c0.4-0.1,1-0.2,1.6-0.2c1.4,0,2.2,0.6,2.2,1.9V22C336.2,22.2,336.1,22.2,336,22.2z M334.9,19.8h-0.6
				c-0.9,0-1.1,0.3-1.1,0.8v0c0,0.5,0.2,0.6,0.7,0.6c0.4,0,0.7-0.1,1-0.3V19.8z"/>
			<path class="st1" d="M341.5,22.1c-0.6,0.2-1.3,0.3-2,0.3c-1.6,0-2.4-0.9-2.4-2.5v-0.8c0-1.5,0.8-2.5,2.4-2.5c0.2,0,0.6,0,0.9,0.1
				V15c0-0.1,0.1-0.2,0.2-0.2h0.9c0.1,0,0.2,0.1,0.2,0.2v6.9C341.7,22,341.7,22,341.5,22.1z M340.4,17.8c-0.3,0-0.7-0.1-0.9-0.1
				c-0.8,0-1.1,0.6-1.1,1.4v0.8c0,0.8,0.2,1.4,1.1,1.4c0.4,0,0.8,0,0.9-0.1V17.8z"/>
			<path class="st1" d="M347.2,19.9H344v0c0,0.6,0.2,1.3,1.2,1.3c0.7,0,1.4-0.1,1.8-0.1c0,0,0,0,0,0c0.1,0,0.2,0,0.2,0.1v0.7
				c0,0.2,0,0.2-0.2,0.3c-0.6,0.1-1,0.2-1.9,0.2c-1,0-2.4-0.5-2.4-2.5v-0.7c0-1.5,0.9-2.5,2.4-2.5c1.5,0,2.3,1,2.3,2.5v0.6
				C347.4,19.8,347.4,19.9,347.2,19.9z M346.1,19c0-0.8-0.4-1.2-1-1.2c-0.6,0-1.1,0.4-1.1,1.2v0L346.1,19L346.1,19z"/>
			<path class="st1" d="M355.3,22.2h-0.9c-0.1,0-0.2-0.1-0.2-0.2v-3.3c0-0.8-0.2-1-0.7-1c-0.2,0-0.6,0.1-0.9,0.2c0,0.2,0,0.5,0,0.7
				V22c0,0.1-0.1,0.2-0.2,0.2h-0.9c-0.1,0-0.2-0.1-0.2-0.2v-3.3c0-0.8-0.1-1-0.7-1c-0.2,0-0.5,0.1-0.9,0.3v4c0,0.1-0.1,0.2-0.2,0.2
				h-0.9c-0.1,0-0.2-0.1-0.2-0.2v-5.1c0-0.1,0.1-0.2,0.2-0.2h0.9c0.1,0,0.2,0.1,0.2,0.2v0.2c0.4-0.3,0.8-0.5,1.4-0.5
				c0.6,0,0.9,0.2,1.2,0.4c0.5-0.3,0.9-0.4,1.6-0.4c1.3,0,1.6,0.9,1.6,2.1V22C355.5,22.1,355.4,22.2,355.3,22.2z"/>
			<path class="st1" d="M361.2,16.9l-1.6,5.8c-0.3,1.1-0.7,1.5-2,1.5c-0.3,0-0.8-0.1-1-0.1c-0.1,0-0.2-0.1-0.2-0.2v-0.6
				c0-0.1,0.1-0.2,0.2-0.2c0,0,0,0,0,0c0.3,0,0.8,0.1,1.1,0.1c0.4,0,0.6-0.1,0.8-0.6l0.1-0.3h-0.1c-0.3,0-0.6-0.1-0.9-0.8l-1.3-4.5
				c0,0,0,0,0-0.1c0-0.1,0.1-0.2,0.2-0.2h1c0.1,0,0.2,0.1,0.2,0.2l1,4c0,0.2,0.1,0.2,0.1,0.2h0c0,0,0,0,0,0c0,0,0,0,0,0l1.1-4.2
				c0-0.1,0.1-0.2,0.2-0.2h1C361.1,16.7,361.2,16.8,361.2,16.9C361.2,16.9,361.2,16.9,361.2,16.9z"/>
		</g>
	</g>
	<g>
		<g>
			<path class="st1" d="M326,35c-0.7,0-1.3-0.1-1.7-0.2c-0.1,0-0.2-0.1-0.2-0.2v-0.7c0-0.1,0.1-0.2,0.2-0.2c0,0,0,0,0,0
				c0.4,0,1.4,0.1,1.7,0.1c0.9,0,1.1-0.3,1.1-0.9c0-0.4-0.2-0.6-0.8-1l-1.3-0.8c-0.9-0.5-1.2-1.1-1.2-1.8c0-1.1,0.6-1.9,2.5-1.9
				c0.6,0,1.6,0.1,1.9,0.2c0.1,0,0.2,0.1,0.2,0.2v0.7c0,0.1-0.1,0.2-0.2,0.2c0,0,0,0,0,0c-0.7-0.1-1.3-0.1-1.9-0.1
				c-0.7,0-1,0.3-1,0.7c0,0.3,0.2,0.5,0.8,0.9l1.2,0.7c1.1,0.6,1.4,1.2,1.4,2C328.6,33.9,327.9,35,326,35z"/>
			<path class="st1" d="M333.9,34.9H333c-0.1,0-0.2-0.1-0.2-0.2v-0.2c-0.5,0.3-0.9,0.5-1.5,0.5c-0.5,0-0.9-0.1-1.2-0.4
				c-0.4-0.4-0.5-1-0.5-1.8v-3.2c0-0.1,0.1-0.2,0.2-0.2h0.9c0.1,0,0.2,0.1,0.2,0.2v3.2c0,0.5,0,0.8,0.2,0.9c0.1,0.1,0.3,0.2,0.6,0.2
				c0.4,0,0.8-0.2,1.1-0.4v-3.9c0-0.1,0.1-0.2,0.2-0.2h0.9c0.1,0,0.2,0.1,0.2,0.2v5.1C334.1,34.8,334,34.9,333.9,34.9z"/>
			<path class="st1" d="M337.4,35c-0.2,0-0.6,0-0.9-0.1v1.7c0,0.1-0.1,0.2-0.2,0.2h-0.9c-0.1,0-0.2-0.1-0.2-0.2v-6.9
				c0-0.1,0-0.2,0.3-0.3c0.6-0.2,1.3-0.3,2-0.3c1.6,0,2.4,0.9,2.4,2.5v0.8C339.8,34,339,35,337.4,35z M338.5,31.8
				c0-0.8-0.2-1.4-1.1-1.4c-0.4,0-0.8,0-0.9,0.1v3.4c0.3,0,0.7,0.1,0.9,0.1c0.8,0,1.1-0.6,1.1-1.4V31.8z"/>
			<path class="st1" d="M343,35c-0.2,0-0.6,0-0.9-0.1v1.7c0,0.1-0.1,0.2-0.2,0.2h-0.9c-0.1,0-0.2-0.1-0.2-0.2v-6.9
				c0-0.1,0-0.2,0.3-0.3c0.6-0.2,1.3-0.3,2-0.3c1.6,0,2.4,0.9,2.4,2.5v0.8C345.3,34,344.6,35,343,35z M344,31.8
				c0-0.8-0.2-1.4-1.1-1.4c-0.4,0-0.8,0-0.9,0.1v3.4c0.3,0,0.7,0.1,0.9,0.1c0.8,0,1.1-0.6,1.1-1.4V31.8z"/>
			<path class="st1" d="M348.5,35c-1.5,0-2.4-1-2.4-2.5v-0.8c0-1.4,0.8-2.5,2.4-2.5c1.5,0,2.4,1,2.4,2.5v0.8
				C350.8,33.9,350,35,348.5,35z M349.5,31.7c0-0.8-0.4-1.3-1.1-1.3c-0.7,0-1.1,0.5-1.1,1.3v0.8c0,0.8,0.4,1.3,1.1,1.3
				c0.7,0,1.1-0.5,1.1-1.3V31.7z"/>
			<path class="st1" d="M354.4,30.4c-0.5,0-0.9,0.1-1.4,0.4v4c0,0.1-0.1,0.2-0.2,0.2H352c-0.1,0-0.2-0.1-0.2-0.2v-5.1
				c0-0.1,0.1-0.2,0.2-0.2h0.9c0.1,0,0.2,0.1,0.2,0.2v0.2c0.5-0.4,1-0.5,1.4-0.5c0.1,0,0.2,0.1,0.2,0.2v0.7
				C354.6,30.3,354.6,30.4,354.4,30.4z"/>
			<path class="st1" d="M358.3,34.9c-0.2,0-0.5,0.1-0.7,0.1c-1.1,0-1.6-0.2-1.6-1.6v-3.1l-0.9-0.1c-0.1,0-0.2-0.1-0.2-0.2v-0.4
				c0-0.1,0.1-0.2,0.2-0.2h0.9v-0.8c0-0.1,0.1-0.2,0.2-0.2l0.9-0.2c0,0,0,0,0,0c0.1,0,0.2,0,0.2,0.1v1h0.9c0.1,0,0.2,0.1,0.2,0.2
				v0.6c0,0.1-0.1,0.2-0.2,0.2h-0.9v3.1c0,0.5,0,0.6,0.4,0.6h0.5c0.1,0,0.2,0,0.2,0.1v0.6C358.4,34.8,358.4,34.9,358.3,34.9z"/>
		</g>
	</g>
	<g>
		<g>
			<path class="st1" d="M318.3,47.5c-0.1,0-0.8,0.2-1.6,0.2c-1.2,0-2.8-0.6-2.8-3v-1.4c0-2.5,1.6-3,2.8-3c0.8,0,1.4,0.1,1.6,0.2
				c0.1,0,0.2,0.1,0.2,0.2v0.7c0,0.1,0,0.2-0.2,0.2c0,0,0,0,0,0c-0.3,0-1-0.1-1.5-0.1c-0.8,0-1.4,0.4-1.4,1.8v1.4
				c0,1.4,0.6,1.8,1.4,1.8c0.5,0,1.2,0,1.5-0.1c0,0,0,0,0,0c0.1,0,0.2,0.1,0.2,0.2v0.7C318.5,47.4,318.4,47.4,318.3,47.5z"/>
			<path class="st1" d="M323.8,45.2h-3.2v0c0,0.6,0.2,1.3,1.2,1.3c0.7,0,1.4-0.1,1.8-0.1c0,0,0,0,0,0c0.1,0,0.2,0,0.2,0.1v0.7
				c0,0.2,0,0.2-0.2,0.3c-0.6,0.1-1,0.2-1.9,0.2c-1,0-2.4-0.5-2.4-2.5v-0.7c0-1.5,0.9-2.5,2.4-2.5c1.5,0,2.3,1,2.3,2.5V45
				C324,45.1,323.9,45.2,323.8,45.2z M322.7,44.3c0-0.8-0.4-1.2-1-1.2c-0.6,0-1.1,0.4-1.1,1.2v0L322.7,44.3L322.7,44.3z"/>
			<path class="st1" d="M329.3,47.6h-0.9c-0.1,0-0.2-0.1-0.2-0.2v-3.2c0-0.9-0.1-1.1-0.8-1.1c-0.3,0-0.7,0.1-1.1,0.4v4
				c0,0.1-0.1,0.2-0.2,0.2h-0.9c-0.1,0-0.2-0.1-0.2-0.2v-5.1c0-0.1,0.1-0.2,0.2-0.2h0.9c0.1,0,0.2,0.1,0.2,0.2v0.2
				c0.6-0.4,0.9-0.5,1.6-0.5c1.4,0,1.7,1,1.7,2.2v3.2C329.5,47.5,329.4,47.6,329.3,47.6z"/>
			<path class="st1" d="M333.6,47.6c-0.2,0-0.5,0.1-0.7,0.1c-1.1,0-1.6-0.2-1.6-1.6V43l-0.9-0.1c-0.1,0-0.2-0.1-0.2-0.2v-0.4
				c0-0.1,0.1-0.2,0.2-0.2h0.9v-0.8c0-0.1,0.1-0.2,0.2-0.2l0.9-0.2c0,0,0,0,0,0c0.1,0,0.2,0,0.2,0.1v1h0.9c0.1,0,0.2,0.1,0.2,0.2
				v0.6c0,0.1-0.1,0.2-0.2,0.2h-0.9v3.1c0,0.5,0,0.6,0.4,0.6h0.5c0.1,0,0.2,0,0.2,0.1v0.6C333.7,47.5,333.7,47.5,333.6,47.6z"/>
			<path class="st1" d="M338.8,45.2h-3.2v0c0,0.6,0.2,1.3,1.2,1.3c0.7,0,1.4-0.1,1.8-0.1c0,0,0,0,0,0c0.1,0,0.2,0,0.2,0.1v0.7
				c0,0.2,0,0.2-0.2,0.3c-0.6,0.1-1,0.2-1.9,0.2c-1,0-2.4-0.5-2.4-2.5v-0.7c0-1.5,0.9-2.5,2.4-2.5c1.5,0,2.3,1,2.3,2.5V45
				C339,45.1,339,45.2,338.8,45.2z M337.7,44.3c0-0.8-0.4-1.2-1-1.2c-0.6,0-1.1,0.4-1.1,1.2v0L337.7,44.3L337.7,44.3z"/>
			<path class="st1" d="M342.7,43c-0.5,0-0.9,0.1-1.4,0.4v4c0,0.1-0.1,0.2-0.2,0.2h-0.9c-0.1,0-0.2-0.1-0.2-0.2v-5.1
				c0-0.1,0.1-0.2,0.2-0.2h0.9c0.1,0,0.2,0.1,0.2,0.2v0.2c0.5-0.4,1-0.5,1.4-0.5c0.1,0,0.2,0.1,0.2,0.2v0.7
				C342.9,42.9,342.8,43,342.7,43z"/>
			<path class="st1" d="M348.1,49.5h-0.7c-0.1,0-0.3,0-0.3-0.1c-0.8-1.2-1.3-2.5-1.3-4.4v-0.2c0-1.9,0.5-3.2,1.3-4.4
				c0.1-0.1,0.2-0.1,0.3-0.1h0.7c0.1,0,0.1,0,0.1,0.1c0,0,0,0.1,0,0.2c-0.5,1-1.1,2.4-1.1,4.3V45c0,1.9,0.5,3.3,1.1,4.3
				c0,0,0,0.1,0,0.2C348.2,49.4,348.2,49.5,348.1,49.5z"/>
			<path class="st1" d="M354.4,47.6h-1c-0.1,0-0.2-0.1-0.2-0.2l-0.5-1.9h-2.3l-0.5,1.9c0,0.1-0.1,0.2-0.2,0.2h-1
				c-0.1,0-0.2-0.1-0.2-0.2c0,0,0,0,0,0l1.6-6.2c0.2-0.9,0.9-1,1.4-1s1.1,0.1,1.4,1l1.6,6.2c0,0,0,0,0,0
				C354.5,47.5,354.5,47.6,354.4,47.6z M351.7,41.5c0-0.1-0.1-0.2-0.2-0.2c-0.1,0-0.1,0-0.2,0.2l-0.7,2.9h1.7L351.7,41.5z"/>
			<path class="st1" d="M357.2,47.6c-0.7,0-1.3-0.1-1.7-0.2c-0.1,0-0.2-0.1-0.2-0.2v-0.7c0-0.1,0.1-0.2,0.2-0.2c0,0,0,0,0,0
				c0.4,0,1.4,0.1,1.7,0.1c0.9,0,1.1-0.3,1.1-0.9c0-0.4-0.2-0.6-0.8-1l-1.3-0.8c-0.9-0.5-1.2-1.1-1.2-1.8c0-1.1,0.6-1.9,2.5-1.9
				c0.6,0,1.6,0.1,1.9,0.2c0.1,0,0.2,0.1,0.2,0.2v0.7c0,0.1-0.1,0.2-0.2,0.2c0,0,0,0,0,0c-0.7-0.1-1.3-0.1-1.9-0.1
				c-0.7,0-1,0.3-1,0.7c0,0.3,0.2,0.5,0.8,0.9l1.2,0.7c1.1,0.6,1.4,1.2,1.4,2C359.8,46.6,359.1,47.6,357.2,47.6z"/>
			<path class="st1" d="M364.9,47.5c-0.1,0-0.8,0.2-1.6,0.2c-1.2,0-2.8-0.6-2.8-3v-1.4c0-2.5,1.6-3,2.8-3c0.8,0,1.4,0.1,1.6,0.2
				c0.1,0,0.2,0.1,0.2,0.2v0.7c0,0.1,0,0.2-0.2,0.2c0,0,0,0,0,0c-0.3,0-1-0.1-1.5-0.1c-0.8,0-1.4,0.4-1.4,1.8v1.4
				c0,1.4,0.6,1.8,1.4,1.8c0.5,0,1.2,0,1.5-0.1c0,0,0,0,0,0c0.1,0,0.2,0.1,0.2,0.2v0.7C365.2,47.4,365.1,47.4,364.9,47.5z"/>
			<path class="st1" d="M366.9,49.3c-0.1,0.1-0.2,0.1-0.3,0.1h-0.7c-0.1,0-0.1,0-0.1-0.1c0,0,0-0.1,0-0.2c0.5-1,1.1-2.4,1.1-4.3
				v-0.2c0-1.9-0.5-3.3-1.1-4.3c0,0,0-0.1,0-0.2c0-0.1,0-0.1,0.1-0.1h0.7c0.1,0,0.3,0,0.3,0.1c0.8,1.2,1.3,2.5,1.3,4.4V45
				C368.2,46.9,367.8,48.2,366.9,49.3z"/>
		</g>
	</g>
	<g>
		<g>
			<path class="st1" d="M321,104.9h-1c-0.1,0-0.2-0.1-0.2-0.2v-6.9c0-0.1,0.1-0.2,0.2-0.2h1c0.1,0,0.2,0.1,0.2,0.2v6.9
				C321.2,104.8,321.2,104.9,321,104.9z"/>
			<path class="st1" d="M326.8,104.9h-0.9c-0.1,0-0.2-0.1-0.2-0.2v-3.2c0-0.9-0.1-1.1-0.8-1.1c-0.3,0-0.7,0.1-1.1,0.4v4
				c0,0.1-0.1,0.2-0.2,0.2h-0.9c-0.1,0-0.2-0.1-0.2-0.2v-5.1c0-0.1,0.1-0.2,0.2-0.2h0.9c0.1,0,0.2,0.1,0.2,0.2v0.2
				c0.6-0.4,0.9-0.5,1.6-0.5c1.4,0,1.7,1,1.7,2.2v3.2C327,104.8,326.9,104.9,326.8,104.9z"/>
			<path class="st1" d="M330,104.9c-0.4,0-1.2,0-1.8-0.2c-0.1,0-0.2-0.1-0.2-0.2v-0.6c0-0.1,0.1-0.2,0.2-0.2c0,0,0,0,0,0
				c0.5,0.1,1.4,0.1,1.7,0.1c0.6,0,0.7-0.2,0.7-0.5c0-0.2-0.1-0.3-0.4-0.5l-1.3-0.8c-0.5-0.3-0.8-0.8-0.8-1.4c0-1,0.6-1.5,1.9-1.5
				c0.8,0,1.3,0.1,1.8,0.2c0.1,0,0.2,0.1,0.2,0.2v0.6c0,0.1-0.1,0.2-0.2,0.2c0,0,0,0,0,0c-0.3,0-1.1-0.1-1.6-0.1
				c-0.5,0-0.7,0.1-0.7,0.4c0,0.2,0.1,0.3,0.4,0.4l1.3,0.8c0.8,0.5,0.9,1,0.9,1.5C331.9,104.3,331.3,104.9,330,104.9z"/>
			<path class="st1" d="M335.8,104.9c-0.2,0-0.5,0.1-0.7,0.1c-1.1,0-1.6-0.2-1.6-1.6v-3.1l-0.9-0.1c-0.1,0-0.2-0.1-0.2-0.2v-0.4
				c0-0.1,0.1-0.2,0.2-0.2h0.9v-0.8c0-0.1,0.1-0.2,0.2-0.2l0.9-0.2c0,0,0,0,0,0c0.1,0,0.2,0,0.2,0.1v1h0.9c0.1,0,0.2,0.1,0.2,0.2
				v0.6c0,0.1-0.1,0.2-0.2,0.2h-0.9v3.1c0,0.5,0,0.6,0.4,0.6h0.5c0.1,0,0.2,0,0.2,0.1v0.6C335.9,104.8,335.9,104.8,335.8,104.9z"/>
			<path class="st1" d="M339.4,100.3c-0.5,0-0.9,0.1-1.4,0.4v4c0,0.1-0.1,0.2-0.2,0.2h-0.9c-0.1,0-0.2-0.1-0.2-0.2v-5.1
				c0-0.1,0.1-0.2,0.2-0.2h0.9c0.1,0,0.2,0.1,0.2,0.2v0.2c0.5-0.4,1-0.5,1.4-0.5c0.1,0,0.2,0.1,0.2,0.2v0.7
				C339.5,100.2,339.5,100.3,339.4,100.3z"/>
			<path class="st1" d="M344.6,104.9h-0.9c-0.1,0-0.2-0.1-0.2-0.2v-0.2c-0.5,0.3-0.9,0.5-1.5,0.5c-0.5,0-0.9-0.1-1.2-0.4
				c-0.4-0.4-0.5-1-0.5-1.8v-3.2c0-0.1,0.1-0.2,0.2-0.2h0.9c0.1,0,0.2,0.1,0.2,0.2v3.2c0,0.5,0,0.8,0.2,0.9c0.1,0.1,0.3,0.2,0.6,0.2
				c0.4,0,0.8-0.2,1.1-0.4v-3.9c0-0.1,0.1-0.2,0.2-0.2h0.9c0.1,0,0.2,0.1,0.2,0.2v5.1C344.8,104.8,344.7,104.9,344.6,104.9z"/>
			<path class="st1" d="M349.3,104.8c-0.2,0.1-0.7,0.1-1.3,0.1c-1.3,0-2.2-0.8-2.2-2.4v-0.9c0-1.6,1-2.4,2.2-2.4
				c0.6,0,1,0.1,1.3,0.1c0.2,0,0.2,0.1,0.2,0.3v0.6c0,0.1-0.1,0.1-0.2,0.1c0,0,0,0,0,0c-0.4,0-0.6-0.1-1.3-0.1
				c-0.5,0-0.9,0.3-0.9,1.3v0.9c0,1,0.5,1.3,0.9,1.3c0.6,0,0.9,0,1.3-0.1c0,0,0,0,0,0c0.1,0,0.2,0,0.2,0.1v0.6
				C349.5,104.7,349.4,104.8,349.3,104.8z"/>
			<path class="st1" d="M353.3,104.9c-0.2,0-0.5,0.1-0.7,0.1c-1.1,0-1.6-0.2-1.6-1.6v-3.1l-0.9-0.1c-0.1,0-0.2-0.1-0.2-0.2v-0.4
				c0-0.1,0.1-0.2,0.2-0.2h0.9v-0.8c0-0.1,0.1-0.2,0.2-0.2l0.9-0.2c0,0,0,0,0,0c0.1,0,0.2,0,0.2,0.1v1h0.9c0.1,0,0.2,0.1,0.2,0.2
				v0.6c0,0.1-0.1,0.2-0.2,0.2h-0.9v3.1c0,0.5,0,0.6,0.4,0.6h0.5c0.1,0,0.2,0,0.2,0.1v0.6C353.5,104.8,353.4,104.8,353.3,104.9z"/>
			<path class="st1" d="M356.4,104.9c-1.5,0-2.4-1-2.4-2.5v-0.8c0-1.4,0.8-2.5,2.4-2.5s2.4,1,2.4,2.5v0.8
				C358.8,103.9,358,104.9,356.4,104.9z M357.5,101.7c0-0.8-0.4-1.3-1.1-1.3c-0.7,0-1.1,0.5-1.1,1.3v0.8c0,0.8,0.4,1.3,1.1,1.3
				c0.7,0,1.1-0.5,1.1-1.3V101.7z"/>
			<path class="st1" d="M362.4,100.3c-0.5,0-0.9,0.1-1.4,0.4v4c0,0.1-0.1,0.2-0.2,0.2H360c-0.1,0-0.2-0.1-0.2-0.2v-5.1
				c0-0.1,0.1-0.2,0.2-0.2h0.9c0.1,0,0.2,0.1,0.2,0.2v0.2c0.5-0.4,1-0.5,1.4-0.5c0.1,0,0.2,0.1,0.2,0.2v0.7
				C362.6,100.2,362.5,100.3,362.4,100.3z"/>
		</g>
	</g>
	<g>
		<g>
			<path class="st1" d="M334.2,132.1h-0.7c-0.1,0-0.3,0-0.3-0.1c-0.8-1.2-1.3-2.5-1.3-4.4v-0.2c0-1.9,0.5-3.2,1.3-4.4
				c0.1-0.1,0.2-0.1,0.3-0.1h0.7c0.1,0,0.1,0,0.1,0.1c0,0,0,0.1,0,0.2c-0.5,1-1.1,2.4-1.1,4.3v0.2c0,1.9,0.5,3.3,1.1,4.3
				c0,0,0,0.1,0,0.2C334.3,132,334.3,132.1,334.2,132.1z"/>
			<path class="st1" d="M336.4,130.2h-1c-0.1,0-0.2-0.1-0.2-0.2V123c0-0.1,0.1-0.2,0.2-0.2h1c0.1,0,0.2,0.1,0.2,0.2v6.9
				C336.6,130.1,336.5,130.2,336.4,130.2z"/>
			<path class="st1" d="M342.4,124h-1.7v6c0,0.1-0.1,0.2-0.2,0.2h-1c-0.1,0-0.2-0.1-0.2-0.2v-6h-1.7c-0.1,0-0.2-0.1-0.2-0.2V123
				c0-0.1,0.1-0.2,0.2-0.2h4.8c0.1,0,0.2,0.1,0.2,0.2v0.8C342.6,123.9,342.5,124,342.4,124z"/>
			<path class="st1" d="M347.6,130.1c-0.1,0-0.8,0.2-1.6,0.2c-1.2,0-2.8-0.6-2.8-3v-1.4c0-2.5,1.6-3,2.8-3c0.8,0,1.4,0.1,1.6,0.2
				c0.1,0,0.2,0.1,0.2,0.2v0.7c0,0.1,0,0.2-0.2,0.2c0,0,0,0,0,0c-0.3,0-1-0.1-1.5-0.1c-0.8,0-1.4,0.4-1.4,1.8v1.4
				c0,1.4,0.6,1.8,1.4,1.8c0.5,0,1.2,0,1.5-0.1c0,0,0,0,0,0c0.1,0,0.2,0.1,0.2,0.2v0.7C347.8,130,347.7,130,347.6,130.1z"/>
			<path class="st1" d="M349.6,131.9c-0.1,0.1-0.2,0.1-0.3,0.1h-0.7c-0.1,0-0.1,0-0.1-0.1c0,0,0-0.1,0-0.2c0.5-1,1.1-2.4,1.1-4.3
				v-0.2c0-1.9-0.5-3.3-1.1-4.3c0,0,0-0.1,0-0.2c0-0.1,0-0.1,0.1-0.1h0.7c0.1,0,0.3,0,0.3,0.1c0.8,1.2,1.3,2.5,1.3,4.4v0.2
				C350.9,129.5,350.4,130.8,349.6,131.9z"/>
		</g>
	</g>
	<rect x="410.8" y="8.4" class="st2" width="82.7" height="49.9"/>
	<rect x="410.8" y="90.9" class="st2" width="82.7" height="49.9"/>
	<g>
		<path class="st1" d="M430.8,28.9h-1c-0.1,0-0.2-0.1-0.2-0.2v-6.9c0-0.1,0.1-0.2,0.2-0.2h1c0.1,0,0.2,0.1,0.2,0.2v6.9
			C431,28.8,430.9,28.9,430.8,28.9z"/>
		<path class="st1" d="M436.7,28.9h-0.9c-0.1,0-0.2-0.1-0.2-0.2v-3.2c0-0.9-0.1-1.1-0.8-1.1c-0.3,0-0.7,0.1-1.1,0.4v4
			c0,0.1-0.1,0.2-0.2,0.2h-0.9c-0.1,0-0.2-0.1-0.2-0.2v-5.1c0-0.1,0.1-0.2,0.2-0.2h0.9c0.1,0,0.2,0.1,0.2,0.2v0.2
			c0.6-0.4,0.9-0.5,1.6-0.5c1.4,0,1.7,1,1.7,2.2v3.2C436.9,28.8,436.8,28.9,436.7,28.9z"/>
		<path class="st1" d="M440,29c-0.4,0-1.2,0-1.8-0.2c-0.1,0-0.2-0.1-0.2-0.2V28c0-0.1,0.1-0.2,0.2-0.2c0,0,0,0,0,0
			c0.5,0.1,1.4,0.1,1.7,0.1c0.6,0,0.7-0.2,0.7-0.5c0-0.2-0.1-0.3-0.4-0.5l-1.3-0.8c-0.5-0.3-0.8-0.8-0.8-1.4c0-1,0.6-1.5,1.9-1.5
			c0.8,0,1.2,0.1,1.8,0.2c0.1,0,0.2,0.1,0.2,0.2v0.6c0,0.1-0.1,0.2-0.2,0.2c0,0,0,0,0,0c-0.3,0-1.1-0.1-1.6-0.1
			c-0.5,0-0.7,0.1-0.7,0.4c0,0.2,0.1,0.3,0.4,0.4l1.3,0.8c0.8,0.5,0.9,1,0.9,1.5C441.9,28.3,441.3,29,440,29z"/>
		<path class="st1" d="M445.8,28.9c-0.2,0-0.5,0.1-0.7,0.1c-1.1,0-1.6-0.2-1.6-1.6v-3.1l-0.9-0.1c-0.1,0-0.2-0.1-0.2-0.2v-0.4
			c0-0.1,0.1-0.2,0.2-0.2h0.9v-0.8c0-0.1,0.1-0.2,0.2-0.2l0.9-0.2c0,0,0,0,0,0c0.1,0,0.2,0,0.2,0.1v1h0.9c0.1,0,0.2,0.1,0.2,0.2v0.6
			c0,0.1-0.1,0.2-0.2,0.2h-0.9v3.1c0,0.5,0,0.6,0.4,0.6h0.5c0.1,0,0.2,0,0.2,0.1v0.6C446,28.8,446,28.9,445.8,28.9z"/>
		<path class="st1" d="M449.6,24.4c-0.5,0-0.9,0.1-1.4,0.4v4c0,0.1-0.1,0.2-0.2,0.2h-0.9c-0.1,0-0.2-0.1-0.2-0.2v-5.1
			c0-0.1,0.1-0.2,0.2-0.2h0.9c0.1,0,0.2,0.1,0.2,0.2v0.2c0.5-0.4,1-0.5,1.4-0.5c0.1,0,0.2,0.1,0.2,0.2v0.7
			C449.8,24.3,449.7,24.4,449.6,24.4z"/>
		<path class="st1" d="M454.9,28.9H454c-0.1,0-0.2-0.1-0.2-0.2v-0.2c-0.5,0.3-0.9,0.5-1.5,0.5c-0.5,0-0.9-0.1-1.2-0.4
			c-0.4-0.4-0.5-1-0.5-1.8v-3.2c0-0.1,0.1-0.2,0.2-0.2h0.9c0.1,0,0.2,0.1,0.2,0.2v3.2c0,0.5,0,0.8,0.2,0.9c0.1,0.1,0.3,0.2,0.6,0.2
			c0.4,0,0.8-0.2,1.1-0.4v-3.9c0-0.1,0.1-0.2,0.2-0.2h0.9c0.1,0,0.2,0.1,0.2,0.2v5.1C455.1,28.8,455,28.9,454.9,28.9z"/>
		<path class="st1" d="M459.7,28.8c-0.2,0.1-0.7,0.1-1.3,0.1c-1.3,0-2.2-0.8-2.2-2.4v-0.9c0-1.6,1-2.4,2.2-2.4c0.6,0,1,0.1,1.3,0.1
			c0.2,0,0.2,0.1,0.2,0.3v0.6c0,0.1-0.1,0.1-0.2,0.1c0,0,0,0,0,0c-0.4,0-0.6-0.1-1.3-0.1c-0.5,0-0.9,0.3-0.9,1.3v0.9
			c0,1,0.5,1.3,0.9,1.3c0.6,0,0.9,0,1.3-0.1c0,0,0,0,0,0c0.1,0,0.2,0,0.2,0.1v0.6C459.9,28.8,459.9,28.8,459.7,28.8z"/>
		<path class="st1" d="M464.2,28.8c-0.2,0.1-0.7,0.1-1.3,0.1c-1.3,0-2.2-0.8-2.2-2.4v-0.9c0-1.6,1-2.4,2.2-2.4c0.6,0,1,0.1,1.3,0.1
			c0.2,0,0.2,0.1,0.2,0.3v0.6c0,0.1-0.1,0.1-0.2,0.1c0,0,0,0,0,0c-0.4,0-0.6-0.1-1.3-0.1c-0.5,0-0.9,0.3-0.9,1.3v0.9
			c0,1,0.5,1.3,0.9,1.3c0.6,0,0.9,0,1.3-0.1c0,0,0,0,0,0c0.1,0,0.2,0,0.2,0.1v0.6C464.4,28.8,464.4,28.8,464.2,28.8z"/>
		<path class="st1" d="M466.6,22.6h-1c-0.1,0-0.2-0.1-0.2-0.2v-0.9c0-0.1,0.1-0.2,0.2-0.2h1c0.1,0,0.2,0.1,0.2,0.2v0.9
			C466.8,22.5,466.8,22.6,466.6,22.6z M466.6,28.9h-0.9c-0.1,0-0.2-0.1-0.2-0.2v-5.1c0-0.1,0.1-0.2,0.2-0.2h0.9
			c0.1,0,0.2,0.1,0.2,0.2v5.1C466.8,28.8,466.7,28.9,466.6,28.9z"/>
		<path class="st1" d="M470.3,29c-1.5,0-2.4-1-2.4-2.5v-0.8c0-1.4,0.8-2.5,2.4-2.5c1.5,0,2.4,1,2.4,2.5v0.8
			C472.7,27.9,471.9,29,470.3,29z M471.4,25.7c0-0.8-0.4-1.3-1.1-1.3c-0.7,0-1.1,0.5-1.1,1.3v0.8c0,0.8,0.4,1.3,1.1,1.3
			c0.7,0,1.1-0.5,1.1-1.3V25.7z M471.8,21.4l-1.2,1.2c-0.1,0.1-0.1,0.1-0.2,0.1h-0.8c-0.1,0-0.1,0-0.1-0.1c0,0,0-0.1,0-0.1l0.9-1.2
			c0.1-0.1,0.1-0.1,0.3-0.1h1C471.8,21.2,471.8,21.3,471.8,21.4C471.8,21.3,471.8,21.3,471.8,21.4z"/>
		<path class="st1" d="M478.1,28.9h-0.9c-0.1,0-0.2-0.1-0.2-0.2v-3.2c0-0.9-0.1-1.1-0.8-1.1c-0.3,0-0.7,0.1-1.1,0.4v4
			c0,0.1-0.1,0.2-0.2,0.2H474c-0.1,0-0.2-0.1-0.2-0.2v-5.1c0-0.1,0.1-0.2,0.2-0.2h0.9c0.1,0,0.2,0.1,0.2,0.2v0.2
			c0.6-0.4,0.9-0.5,1.6-0.5c1.4,0,1.7,1,1.7,2.2v3.2C478.3,28.8,478.2,28.9,478.1,28.9z"/>
	</g>
	<g>
		<path class="st1" d="M439.2,43h-0.8c-0.1,0-0.2-0.1-0.2-0.2v-0.2c-0.5,0.3-0.9,0.4-1.4,0.4c-0.8,0-1.7-0.3-1.7-1.6v0
			c0-1.1,0.7-1.7,2.4-1.7h0.6v-0.4c0-0.6-0.3-0.8-0.9-0.8c-0.6,0-1.3,0-1.6,0.1c0,0,0,0,0,0c-0.1,0-0.2,0-0.2-0.2v-0.6
			c0-0.1,0.1-0.2,0.2-0.2c0.4-0.1,1-0.2,1.6-0.2c1.4,0,2.2,0.6,2.2,1.9v3.5C439.4,42.9,439.3,43,439.2,43z M438.1,40.5h-0.6
			c-0.9,0-1.1,0.3-1.1,0.8v0c0,0.5,0.2,0.6,0.7,0.6c0.4,0,0.7-0.1,1-0.3V40.5z"/>
		<path class="st1" d="M441.8,43h-0.9c-0.1,0-0.2-0.1-0.2-0.2v-7.1c0-0.1,0.1-0.2,0.2-0.2h0.9c0.1,0,0.2,0.1,0.2,0.2v7.1
			C442,42.9,442,43,441.8,43z"/>
		<path class="st1" d="M447.7,43h-0.9c-0.1,0-0.2-0.1-0.2-0.2v-0.2c-0.5,0.3-0.9,0.5-1.5,0.5c-0.5,0-0.9-0.1-1.2-0.4
			c-0.4-0.4-0.5-1-0.5-1.8v-3.2c0-0.1,0.1-0.2,0.2-0.2h0.9c0.1,0,0.2,0.1,0.2,0.2v3.2c0,0.5,0,0.8,0.2,0.9c0.1,0.1,0.3,0.2,0.6,0.2
			c0.4,0,0.8-0.2,1.1-0.4v-3.9c0-0.1,0.1-0.2,0.2-0.2h0.9c0.1,0,0.2,0.1,0.2,0.2v5.1C447.9,42.9,447.8,43,447.7,43z"/>
		<path class="st1" d="M456.1,43h-0.9c-0.1,0-0.2-0.1-0.2-0.2v-3.3c0-0.8-0.2-1-0.7-1c-0.2,0-0.6,0.1-0.9,0.2c0,0.2,0,0.5,0,0.7v3.3
			c0,0.1-0.1,0.2-0.2,0.2h-0.9c-0.1,0-0.2-0.1-0.2-0.2v-3.3c0-0.8-0.1-1-0.7-1c-0.2,0-0.5,0.1-0.9,0.3v4c0,0.1-0.1,0.2-0.2,0.2h-0.9
			c-0.1,0-0.2-0.1-0.2-0.2v-5.1c0-0.1,0.1-0.2,0.2-0.2h0.9c0.1,0,0.2,0.1,0.2,0.2v0.2c0.4-0.3,0.8-0.5,1.4-0.5
			c0.6,0,0.9,0.2,1.2,0.4c0.5-0.3,0.9-0.4,1.6-0.4c1.3,0,1.6,0.9,1.6,2.1v3.3C456.3,42.9,456.2,43,456.1,43z"/>
		<path class="st1" d="M461.9,43H461c-0.1,0-0.2-0.1-0.2-0.2v-3.2c0-0.9-0.1-1.1-0.8-1.1c-0.3,0-0.7,0.1-1.1,0.4v4
			c0,0.1-0.1,0.2-0.2,0.2h-0.9c-0.1,0-0.2-0.1-0.2-0.2v-5.1c0-0.1,0.1-0.2,0.2-0.2h0.9c0.1,0,0.2,0.1,0.2,0.2v0.2
			c0.6-0.4,0.9-0.5,1.6-0.5c1.4,0,1.7,1,1.7,2.2v3.2C462.1,42.9,462,43,461.9,43z"/>
		<path class="st1" d="M465.5,43c-1.5,0-2.4-1-2.4-2.5v-0.8c0-1.4,0.8-2.5,2.4-2.5c1.5,0,2.4,1,2.4,2.5v0.8
			C467.9,42,467.1,43,465.5,43z M466.6,39.8c0-0.8-0.4-1.3-1.1-1.3c-0.7,0-1.1,0.5-1.1,1.3v0.8c0,0.8,0.4,1.3,1.1,1.3
			c0.7,0,1.1-0.5,1.1-1.3V39.8z"/>
		<path class="st1" d="M470.8,43c-0.4,0-1.2,0-1.8-0.2c-0.1,0-0.2-0.1-0.2-0.2V42c0-0.1,0.1-0.2,0.2-0.2c0,0,0,0,0,0
			c0.5,0.1,1.4,0.1,1.7,0.1c0.6,0,0.7-0.2,0.7-0.5c0-0.2-0.1-0.3-0.4-0.5l-1.3-0.8c-0.5-0.3-0.8-0.8-0.8-1.4c0-1,0.6-1.5,1.9-1.5
			c0.8,0,1.2,0.1,1.8,0.2c0.1,0,0.2,0.1,0.2,0.2v0.6c0,0.1-0.1,0.2-0.2,0.2c0,0,0,0,0,0c-0.3,0-1.1-0.1-1.6-0.1
			c-0.5,0-0.7,0.1-0.7,0.4c0,0.2,0.1,0.3,0.4,0.4l1.3,0.8c0.8,0.5,0.9,1,0.9,1.5C472.7,42.4,472.1,43,470.8,43z"/>
	</g>
	<g>
		<path class="st1" d="M423.1,110.2c-0.3,0-0.7,0.1-1.9,0.1c-1.3,0-2.3-0.3-2.3-2v-3.4c0-1.7,1-2,2.3-2c1.2,0,1.6,0.1,1.9,0.1
			c0.1,0,0.2,0.1,0.2,0.2v0.6c0,0.1-0.1,0.2-0.2,0.2h-2c-0.6,0-0.8,0.2-0.8,0.8v1.1h2.7c0.1,0,0.2,0.1,0.2,0.2v0.7
			c0,0.1-0.1,0.2-0.2,0.2h-2.7v1.3c0,0.7,0.2,0.8,0.8,0.8h2c0.1,0,0.2,0.1,0.2,0.2v0.6C423.3,110.1,423.3,110.2,423.1,110.2z"/>
		<path class="st1" d="M428.9,110.2H428c-0.1,0-0.2-0.1-0.2-0.2v-3.2c0-0.9-0.1-1.1-0.8-1.1c-0.3,0-0.7,0.1-1.1,0.4v4
			c0,0.1-0.1,0.2-0.2,0.2h-0.9c-0.1,0-0.2-0.1-0.2-0.2v-5.1c0-0.1,0.1-0.2,0.2-0.2h0.9c0.1,0,0.2,0.1,0.2,0.2v0.2
			c0.6-0.4,0.9-0.5,1.6-0.5c1.4,0,1.7,1,1.7,2.2v3.2C429.1,110.1,429,110.2,428.9,110.2z"/>
		<path class="st1" d="M433.1,110.2c-0.2,0-0.5,0.1-0.7,0.1c-1.1,0-1.6-0.2-1.6-1.6v-3.1l-0.9-0.1c-0.1,0-0.2-0.1-0.2-0.2v-0.4
			c0-0.1,0.1-0.2,0.2-0.2h0.9v-0.8c0-0.1,0.1-0.2,0.2-0.2l0.9-0.2c0,0,0,0,0,0c0.1,0,0.2,0,0.2,0.1v1h0.9c0.1,0,0.2,0.1,0.2,0.2v0.6
			c0,0.1-0.1,0.2-0.2,0.2h-0.9v3.1c0,0.5,0,0.6,0.4,0.6h0.5c0.1,0,0.2,0,0.2,0.1v0.6C433.3,110.2,433.2,110.2,433.1,110.2z"/>
		<path class="st1" d="M436.8,105.7c-0.5,0-0.9,0.1-1.4,0.4v4c0,0.1-0.1,0.2-0.2,0.2h-0.9c-0.1,0-0.2-0.1-0.2-0.2v-5.1
			c0-0.1,0.1-0.2,0.2-0.2h0.9c0.1,0,0.2,0.1,0.2,0.2v0.2c0.5-0.4,1-0.5,1.4-0.5c0.1,0,0.2,0.1,0.2,0.2v0.7
			C437,105.6,436.9,105.7,436.8,105.7z"/>
		<path class="st1" d="M442,107.9h-3.2v0c0,0.6,0.2,1.3,1.2,1.3c0.7,0,1.4-0.1,1.8-0.1c0,0,0,0,0,0c0.1,0,0.2,0,0.2,0.1v0.7
			c0,0.2,0,0.2-0.2,0.3c-0.6,0.1-1,0.2-1.9,0.2c-1,0-2.4-0.5-2.4-2.5v-0.7c0-1.5,0.9-2.5,2.4-2.5c1.5,0,2.3,1,2.3,2.5v0.6
			C442.2,107.8,442.2,107.9,442,107.9z M440.9,106.9c0-0.8-0.4-1.2-1-1.2s-1.1,0.4-1.1,1.2v0L440.9,106.9L440.9,106.9z"/>
		<path class="st1" d="M447.7,110.2h-0.9c-0.1,0-0.2-0.1-0.2-0.2v-3.2c0-0.9-0.1-1.1-0.8-1.1c-0.3,0-0.7,0.1-1.1,0.4v4
			c0,0.1-0.1,0.2-0.2,0.2h-0.9c-0.1,0-0.2-0.1-0.2-0.2v-5.1c0-0.1,0.1-0.2,0.2-0.2h0.9c0.1,0,0.2,0.1,0.2,0.2v0.2
			c0.6-0.4,0.9-0.5,1.6-0.5c1.4,0,1.7,1,1.7,2.2v3.2C447.9,110.1,447.8,110.2,447.7,110.2z"/>
		<path class="st1" d="M453.1,110.2h-0.8c-0.1,0-0.2-0.1-0.2-0.2v-0.2c-0.5,0.3-0.9,0.4-1.4,0.4c-0.8,0-1.7-0.3-1.7-1.6v0
			c0-1.1,0.7-1.7,2.4-1.7h0.6v-0.4c0-0.6-0.3-0.8-0.9-0.8c-0.6,0-1.3,0-1.6,0.1c0,0,0,0,0,0c-0.1,0-0.2,0-0.2-0.2V105
			c0-0.1,0.1-0.2,0.2-0.2c0.4-0.1,1-0.2,1.6-0.2c1.4,0,2.2,0.6,2.2,1.9v3.5C453.3,110.1,453.2,110.2,453.1,110.2z M452,107.8h-0.6
			c-0.9,0-1.1,0.3-1.1,0.8v0c0,0.5,0.2,0.6,0.7,0.6c0.4,0,0.7-0.1,1-0.3V107.8z"/>
		<path class="st1" d="M461.4,110.2h-0.9c-0.1,0-0.2-0.1-0.2-0.2v-3.3c0-0.8-0.2-1-0.7-1c-0.2,0-0.6,0.1-0.9,0.2c0,0.2,0,0.5,0,0.7
			v3.3c0,0.1-0.1,0.2-0.2,0.2h-0.9c-0.1,0-0.2-0.1-0.2-0.2v-3.3c0-0.8-0.1-1-0.7-1c-0.2,0-0.5,0.1-0.9,0.3v4c0,0.1-0.1,0.2-0.2,0.2
			h-0.9c-0.1,0-0.2-0.1-0.2-0.2v-5.1c0-0.1,0.1-0.2,0.2-0.2h0.9c0.1,0,0.2,0.1,0.2,0.2v0.2c0.4-0.3,0.8-0.5,1.4-0.5
			c0.6,0,0.9,0.2,1.2,0.4c0.5-0.3,0.9-0.4,1.6-0.4c1.3,0,1.6,0.9,1.6,2.1v3.3C461.6,110.1,461.5,110.2,461.4,110.2z"/>
		<path class="st1" d="M464,103.9h-1c-0.1,0-0.2-0.1-0.2-0.2v-0.9c0-0.1,0.1-0.2,0.2-0.2h1c0.1,0,0.2,0.1,0.2,0.2v0.9
			C464.2,103.8,464.2,103.9,464,103.9z M464,110.2h-0.9c-0.1,0-0.2-0.1-0.2-0.2v-5.1c0-0.1,0.1-0.2,0.2-0.2h0.9
			c0.1,0,0.2,0.1,0.2,0.2v5.1C464.2,110.1,464.1,110.2,464,110.2z"/>
		<path class="st1" d="M469.9,107.9h-3.2v0c0,0.6,0.2,1.3,1.2,1.3c0.7,0,1.4-0.1,1.8-0.1c0,0,0,0,0,0c0.1,0,0.2,0,0.2,0.1v0.7
			c0,0.2,0,0.2-0.2,0.3c-0.6,0.1-1,0.2-1.9,0.2c-1,0-2.4-0.5-2.4-2.5v-0.7c0-1.5,0.9-2.5,2.4-2.5c1.5,0,2.3,1,2.3,2.5v0.6
			C470.1,107.8,470,107.9,469.9,107.9z M468.8,106.9c0-0.8-0.4-1.2-1-1.2c-0.6,0-1.1,0.4-1.1,1.2v0L468.8,106.9L468.8,106.9z"/>
		<path class="st1" d="M475.5,110.2h-0.9c-0.1,0-0.2-0.1-0.2-0.2v-3.2c0-0.9-0.1-1.1-0.8-1.1c-0.3,0-0.7,0.1-1.1,0.4v4
			c0,0.1-0.1,0.2-0.2,0.2h-0.9c-0.1,0-0.2-0.1-0.2-0.2v-5.1c0-0.1,0.1-0.2,0.2-0.2h0.9c0.1,0,0.2,0.1,0.2,0.2v0.2
			c0.6-0.4,0.9-0.5,1.6-0.5c1.4,0,1.7,1,1.7,2.2v3.2C475.7,110.1,475.6,110.2,475.5,110.2z"/>
		<path class="st1" d="M479.7,110.2c-0.2,0-0.5,0.1-0.7,0.1c-1.1,0-1.6-0.2-1.6-1.6v-3.1l-0.9-0.1c-0.1,0-0.2-0.1-0.2-0.2v-0.4
			c0-0.1,0.1-0.2,0.2-0.2h0.9v-0.8c0-0.1,0.1-0.2,0.2-0.2l0.9-0.2c0,0,0,0,0,0c0.1,0,0.2,0,0.2,0.1v1h0.9c0.1,0,0.2,0.1,0.2,0.2v0.6
			c0,0.1-0.1,0.2-0.2,0.2h-0.9v3.1c0,0.5,0,0.6,0.4,0.6h0.5c0.1,0,0.2,0,0.2,0.1v0.6C479.9,110.2,479.8,110.2,479.7,110.2z"/>
		<path class="st1" d="M482.9,110.3c-1.5,0-2.4-1-2.4-2.5v-0.8c0-1.4,0.8-2.5,2.4-2.5c1.5,0,2.4,1,2.4,2.5v0.8
			C485.2,109.3,484.4,110.3,482.9,110.3z M483.9,107.1c0-0.8-0.4-1.3-1.1-1.3c-0.7,0-1.1,0.5-1.1,1.3v0.8c0,0.8,0.4,1.3,1.1,1.3
			c0.7,0,1.1-0.5,1.1-1.3V107.1z"/>
	</g>
	<g>
		<path class="st1" d="M426.4,116.6h-1c-0.1,0-0.2-0.1-0.2-0.2v-0.9c0-0.1,0.1-0.2,0.2-0.2h1c0.1,0,0.2,0.1,0.2,0.2v0.9
			C426.6,116.5,426.5,116.6,426.4,116.6z M426.3,122.9h-0.9c-0.1,0-0.2-0.1-0.2-0.2v-5.1c0-0.1,0.1-0.2,0.2-0.2h0.9
			c0.1,0,0.2,0.1,0.2,0.2v5.1C426.5,122.8,426.4,122.9,426.3,122.9z"/>
		<path class="st1" d="M432.2,122.9h-0.9c-0.1,0-0.2-0.1-0.2-0.2v-3.2c0-0.9-0.1-1.1-0.8-1.1c-0.3,0-0.7,0.1-1.1,0.4v4
			c0,0.1-0.1,0.2-0.2,0.2H428c-0.1,0-0.2-0.1-0.2-0.2v-5.1c0-0.1,0.1-0.2,0.2-0.2h0.9c0.1,0,0.2,0.1,0.2,0.2v0.2
			c0.6-0.4,0.9-0.5,1.6-0.5c1.4,0,1.7,1,1.7,2.2v3.2C432.4,122.8,432.3,122.9,432.2,122.9z"/>
		<path class="st1" d="M435.5,123c-0.4,0-1.2,0-1.8-0.2c-0.1,0-0.2-0.1-0.2-0.2v-0.6c0-0.1,0.1-0.2,0.2-0.2c0,0,0,0,0,0
			c0.5,0.1,1.4,0.1,1.7,0.1c0.6,0,0.7-0.2,0.7-0.5c0-0.2-0.1-0.3-0.4-0.5l-1.3-0.8c-0.5-0.3-0.8-0.8-0.8-1.4c0-1,0.6-1.5,1.9-1.5
			c0.8,0,1.2,0.1,1.8,0.2c0.1,0,0.2,0.1,0.2,0.2v0.6c0,0.1-0.1,0.2-0.2,0.2c0,0,0,0,0,0c-0.3,0-1.1-0.1-1.6-0.1
			c-0.5,0-0.7,0.1-0.7,0.4c0,0.2,0.1,0.3,0.4,0.4l1.3,0.8c0.8,0.5,0.9,1,0.9,1.5C437.4,122.3,436.8,123,435.5,123z"/>
		<path class="st1" d="M441.3,122.9c-0.2,0-0.5,0.1-0.7,0.1c-1.1,0-1.6-0.2-1.6-1.6v-3.1l-0.9-0.1c-0.1,0-0.2-0.1-0.2-0.2v-0.4
			c0-0.1,0.1-0.2,0.2-0.2h0.9v-0.8c0-0.1,0.1-0.2,0.2-0.2l0.9-0.2c0,0,0,0,0,0c0.1,0,0.2,0,0.2,0.1v1h0.9c0.1,0,0.2,0.1,0.2,0.2v0.6
			c0,0.1-0.1,0.2-0.2,0.2h-0.9v3.1c0,0.5,0,0.6,0.4,0.6h0.5c0.1,0,0.2,0,0.2,0.1v0.6C441.5,122.8,441.4,122.9,441.3,122.9z"/>
		<path class="st1" d="M445,118.4c-0.5,0-0.9,0.1-1.4,0.4v4c0,0.1-0.1,0.2-0.2,0.2h-0.9c-0.1,0-0.2-0.1-0.2-0.2v-5.1
			c0-0.1,0.1-0.2,0.2-0.2h0.9c0.1,0,0.2,0.1,0.2,0.2v0.2c0.5-0.4,1-0.5,1.4-0.5c0.1,0,0.2,0.1,0.2,0.2v0.7
			C445.2,118.3,445.1,118.4,445,118.4z"/>
		<path class="st1" d="M450.4,122.9h-0.9c-0.1,0-0.2-0.1-0.2-0.2v-0.2c-0.5,0.3-0.9,0.5-1.5,0.5c-0.5,0-0.9-0.1-1.2-0.4
			c-0.4-0.4-0.5-1-0.5-1.8v-3.2c0-0.1,0.1-0.2,0.2-0.2h0.9c0.1,0,0.2,0.1,0.2,0.2v3.2c0,0.5,0,0.8,0.2,0.9c0.1,0.1,0.3,0.2,0.6,0.2
			c0.4,0,0.8-0.2,1.1-0.4v-3.9c0-0.1,0.1-0.2,0.2-0.2h0.9c0.1,0,0.2,0.1,0.2,0.2v5.1C450.6,122.8,450.5,122.9,450.4,122.9z"/>
		<path class="st1" d="M455.2,122.8c-0.2,0.1-0.7,0.1-1.3,0.1c-1.3,0-2.2-0.8-2.2-2.4v-0.9c0-1.6,1-2.4,2.2-2.4c0.6,0,1,0.1,1.3,0.1
			c0.2,0,0.2,0.1,0.2,0.3v0.6c0,0.1-0.1,0.1-0.2,0.1c0,0,0,0,0,0c-0.4,0-0.6-0.1-1.3-0.1c-0.5,0-0.9,0.3-0.9,1.3v0.9
			c0,1,0.5,1.3,0.9,1.3c0.6,0,0.9,0,1.3-0.1c0,0,0,0,0,0c0.1,0,0.2,0,0.2,0.1v0.6C455.4,122.7,455.4,122.8,455.2,122.8z"/>
		<path class="st1" d="M459.4,122.9c-0.2,0-0.5,0.1-0.7,0.1c-1.1,0-1.6-0.2-1.6-1.6v-3.1l-0.9-0.1c-0.1,0-0.2-0.1-0.2-0.2v-0.4
			c0-0.1,0.1-0.2,0.2-0.2h0.9v-0.8c0-0.1,0.1-0.2,0.2-0.2l0.9-0.2c0,0,0,0,0,0c0.1,0,0.2,0,0.2,0.1v1h0.9c0.1,0,0.2,0.1,0.2,0.2v0.6
			c0,0.1-0.1,0.2-0.2,0.2h-0.9v3.1c0,0.5,0,0.6,0.4,0.6h0.5c0.1,0,0.2,0,0.2,0.1v0.6C459.6,122.8,459.5,122.9,459.4,122.9z"/>
		<path class="st1" d="M462.6,123c-1.5,0-2.4-1-2.4-2.5v-0.8c0-1.4,0.8-2.5,2.4-2.5c1.5,0,2.4,1,2.4,2.5v0.8
			C464.9,121.9,464.1,123,462.6,123z M463.6,119.7c0-0.8-0.4-1.3-1.1-1.3c-0.7,0-1.1,0.5-1.1,1.3v0.8c0,0.8,0.4,1.3,1.1,1.3
			c0.7,0,1.1-0.5,1.1-1.3V119.7z"/>
		<path class="st1" d="M468.7,118.4c-0.5,0-0.9,0.1-1.4,0.4v4c0,0.1-0.1,0.2-0.2,0.2h-0.9c-0.1,0-0.2-0.1-0.2-0.2v-5.1
			c0-0.1,0.1-0.2,0.2-0.2h0.9c0.1,0,0.2,0.1,0.2,0.2v0.2c0.5-0.4,1-0.5,1.4-0.5c0.1,0,0.2,0.1,0.2,0.2v0.7
			C468.9,118.3,468.8,118.4,468.7,118.4z"/>
		<path class="st1" d="M473.9,120.6h-3.2v0c0,0.6,0.2,1.3,1.2,1.3c0.7,0,1.4-0.1,1.8-0.1c0,0,0,0,0,0c0.1,0,0.2,0,0.2,0.1v0.7
			c0,0.2,0,0.2-0.2,0.3c-0.6,0.1-1,0.2-1.9,0.2c-1,0-2.4-0.5-2.4-2.5v-0.7c0-1.5,0.9-2.5,2.4-2.5c1.5,0,2.3,1,2.3,2.5v0.6
			C474.1,120.5,474,120.6,473.9,120.6z M472.8,119.6c0-0.8-0.4-1.2-1-1.2c-0.6,0-1.1,0.4-1.1,1.2v0L472.8,119.6L472.8,119.6z"/>
		<path class="st1" d="M477,123c-0.4,0-1.2,0-1.8-0.2c-0.1,0-0.2-0.1-0.2-0.2v-0.6c0-0.1,0.1-0.2,0.2-0.2c0,0,0,0,0,0
			c0.5,0.1,1.4,0.1,1.7,0.1c0.6,0,0.7-0.2,0.7-0.5c0-0.2-0.1-0.3-0.4-0.5l-1.3-0.8c-0.5-0.3-0.8-0.8-0.8-1.4c0-1,0.6-1.5,1.9-1.5
			c0.8,0,1.2,0.1,1.8,0.2c0.1,0,0.2,0.1,0.2,0.2v0.6c0,0.1-0.1,0.2-0.2,0.2c0,0,0,0,0,0c-0.3,0-1.1-0.1-1.6-0.1
			c-0.5,0-0.7,0.1-0.7,0.4c0,0.2,0.1,0.3,0.4,0.4l1.3,0.8c0.8,0.5,0.9,1,0.9,1.5C478.9,122.3,478.3,123,477,123z"/>
	</g>
	<rect x="6.5" y="33.3" class="st3" width="167.9" height="78.7"/>
	<g>
		<path class="st4" d="M38.4,46.8c0,0.3-0.2,0.4-0.5,0.4C37.2,47.1,36,47,35.1,47c-0.9,0-1.8,0.2-2.3,2.9l-0.3,1.8
			c-0.1,0.6-0.2,1-0.2,1.4c0,1.4,0.7,1.5,1.4,1.5c0.8,0,2.2-0.1,2.9-0.2c0.4,0,0.4,0.1,0.3,0.4l-0.6,3.4c0,0.3-0.1,0.3-0.5,0.5
			c-0.7,0.2-1.7,0.4-2.9,0.4c-4,0-5.9-2.1-5.9-5.4c0-0.6,0.1-1.3,0.2-2l0.3-1.8c1-5.5,3.6-7.4,8.2-7.4c1.2,0,2.3,0.2,2.9,0.4
			c0.2,0.1,0.4,0.2,0.4,0.5L38.4,46.8z"/>
		<path class="st4" d="M38.3,58.4l2.1-11.9c0-0.3,0.2-0.5,0.6-0.5h3.9c0.4,0,0.4,0.2,0.4,0.5l-2.1,11.9c0,0.3-0.2,0.5-0.6,0.5h-3.9
			C38.4,58.8,38.2,58.6,38.3,58.4z M45.7,41.9c0.3,0,0.5,0.1,0.4,0.5l-0.4,2.2c0,0.3-0.2,0.5-0.6,0.5H41c-0.4,0-0.5-0.2-0.4-0.5
			l0.4-2.2c0-0.3,0.2-0.5,0.6-0.5H45.7z"/>
		<path class="st4" d="M56.9,46.8l-0.5,2.8c0,0.3-0.1,0.5-0.5,0.5c-0.7-0.1-3-0.4-3.8-0.4c-0.2,0-0.5,0-0.5,0.2c0,0.2,0,0.2,0.5,0.5
			l1.7,0.9c1.9,1,2.2,2.2,2.2,3.3c0,3.1-2.6,4.4-6.4,4.4c-1.9,0-3.2-0.3-4-0.6c-0.3-0.1-0.4-0.2-0.3-0.5l0.5-2.7
			c0.1-0.3,0.2-0.6,0.7-0.5c1.4,0.2,2.9,0.4,3.7,0.4c0.3,0,0.8,0,0.8-0.5c0-0.1-0.1-0.2-0.4-0.4l-1.9-1.1c-1.3-0.7-1.9-1.7-1.9-3.1
			c0-3.5,2.8-4.3,5.8-4.3c1.6,0,3.1,0.3,4.1,0.6C56.9,46.4,57,46.5,56.9,46.8z"/>
		<path class="st4" d="M67.4,46.1c0.2,0.1,0.4,0.2,0.3,0.4l-0.5,3c0,0.2-0.3,0.5-0.5,0.5h0c-0.7,0-1.5-0.1-2.3-0.1
			c-0.9,0-1.2,0.6-1.5,1.9l-0.3,1.4c-0.1,0.3-0.1,0.6-0.1,0.9c0,0.7,0.3,1,0.9,1c0.9,0,1.7-0.1,2.4-0.1c0.4,0,0.5,0.2,0.4,0.5
			l-0.5,3c0,0.3-0.3,0.3-0.5,0.4c-0.9,0.2-1.9,0.4-3.1,0.4c-3,0-4.4-1.9-4.4-4.5c0-0.5,0-0.9,0.1-1.4l0.3-1.4c0.7-4,2.8-5.9,6.4-5.9
			C65.6,45.8,66.8,46,67.4,46.1z"/>
		<path class="st4" d="M80,51.9l-0.2,1c-0.8,4.6-3.4,6.1-7.1,6.1c-3.3,0-5-1.7-5-4.7c0-0.5,0-1,0.1-1.5l0.2-1
			c0.8-4.6,3.4-6.1,7.1-6.1c3.2,0,5.1,1.6,5.1,4.6C80.1,50.9,80.1,51.4,80,51.9z M74.4,49.8c-0.7,0-1.3,0.6-1.5,2.1l-0.2,1
			c-0.1,0.4-0.1,0.7-0.1,1c0,0.8,0.3,1.1,0.9,1.1c0.7,0,1.2-0.4,1.5-2.1l0.2-1c0.1-0.4,0.1-0.7,0.1-1C75.3,50,74.9,49.8,74.4,49.8z"
			/>
	</g>
	<g>
		<path class="st4" d="M43.2,63.5l-2.6,15c-0.1,0.4-0.3,0.8-0.9,0.8h-3.7c-0.3,0-0.5-0.2-0.6-0.5l-2.6-6c-0.1-0.2-0.1-0.2-0.2-0.2
			c0,0,0,0,0,0c-0.1,0-0.1,0-0.2,0.2l-1,6c0,0.2-0.2,0.4-0.5,0.4h-4c-0.2,0-0.4-0.1-0.4-0.4l2.6-15c0.1-0.4,0.3-0.8,0.9-0.8h3.6
			c0.4,0,0.6,0.3,0.7,0.6l2.6,6c0.1,0.2,0.2,0.2,0.2,0.2c0.1,0,0.1,0,0.1-0.2l1.1-6.2c0-0.2,0.2-0.4,0.5-0.4h4
			C43.2,63,43.2,63.2,43.2,63.5z"/>
		<path class="st4" d="M55.6,72.3l-0.2,1.3c0,0.3-0.3,0.5-0.5,0.5h-6.6c0,0.2,0,0.3,0,0.5c0,0.7,0.4,0.9,1.7,0.9
			c0.9,0,3.3-0.1,4.1-0.2c0.3,0,0.5,0.1,0.4,0.4L53.9,78c-0.1,0.4-0.2,0.5-0.5,0.6c-1.2,0.5-3.4,0.8-5.1,0.8c-2.8,0-4.9-1.5-4.9-4.5
			c0-0.4,0-0.9,0.1-1.3l0.2-1.3c0.8-4.5,3.4-6.1,7.1-6.1c3.4,0,4.8,2,4.8,4.6C55.7,71.3,55.6,71.8,55.6,72.3z M50.2,69.8
			c-0.9,0-1.3,0.6-1.5,1.8h2.5c0-0.3,0.1-0.5,0.1-0.7C51.2,70.2,50.9,69.8,50.2,69.8z"/>
		<path class="st4" d="M65.4,66.4c0.4,0,0.5,0.1,0.5,0.5l-0.5,2.6c0,0.3-0.2,0.5-0.5,0.5h-1.6l-0.9,5.3c0,0.1,0,0.2,0,0.3
			c0,0.2,0.1,0.3,0.4,0.3h1c0.3,0,0.4,0.1,0.4,0.5l-0.4,2.4c0,0.3-0.1,0.4-0.5,0.5c-0.9,0.2-1.4,0.2-2.4,0.2c-1.5,0-3.4-0.6-3.4-3.2
			c0-0.3,0-0.7,0.1-1.1l0.9-5.3l-1.2-0.2c-0.2,0-0.5-0.1-0.4-0.5l0.4-2.4c0-0.3,0.2-0.5,0.6-0.5H59l0.3-1.8c0-0.3,0.1-0.4,0.6-0.5
			l3.9-0.7c0.5-0.1,0.6,0.1,0.5,0.4l-0.4,2.5H65.4z"/>
		<path class="st4" d="M85.5,66.7l-3.9,10.9c-0.6,1.7-1.1,1.8-2.3,1.8h-2c-1.2,0-1.5-0.3-1.7-1.7L75,74.6c0-0.1-0.1-0.2-0.2-0.2
			c-0.1,0-0.2,0.1-0.2,0.2L73,77.7c-0.7,1.4-1.1,1.7-2.3,1.7h-2c-1.2,0-1.6-0.1-1.6-1.8l-0.1-10.9c0-0.2,0.1-0.3,0.4-0.3h4.3
			c0.2,0,0.2,0.1,0.2,0.3l-0.3,6.5c0,0.1,0,0.2,0.1,0.2c0.1,0,0.2-0.1,0.2-0.2l1.6-3c0.3-0.6,0.5-0.8,1.1-0.8h2.2
			c0.6,0,0.8,0.2,0.9,0.8l0.5,3c0,0.1,0,0.3,0.2,0.3c0.1,0,0.1-0.2,0.2-0.3l2-6.5c0.1-0.2,0.2-0.3,0.5-0.3h4.2
			C85.5,66.4,85.6,66.4,85.5,66.7z"/>
		<path class="st4" d="M97.4,72.3l-0.2,1c-0.8,4.6-3.4,6.1-7.1,6.1c-3.3,0-5-1.7-5-4.7c0-0.5,0-1,0.1-1.5l0.2-1
			c0.8-4.6,3.4-6.1,7.1-6.1c3.2,0,5.1,1.6,5.1,4.6C97.5,71.2,97.5,71.7,97.4,72.3z M91.8,70.2c-0.7,0-1.3,0.6-1.5,2.1l-0.2,1
			C90,73.7,90,74,90,74.3c0,0.8,0.3,1.1,0.9,1.1c0.7,0,1.2-0.4,1.5-2.1l0.2-1c0.1-0.4,0.1-0.7,0.1-1C92.7,70.4,92.3,70.2,91.8,70.2z
			"/>
		<path class="st4" d="M107.7,66.1c0.4,0,0.5,0.1,0.5,0.4l-0.5,3.1c0,0.2-0.1,0.4-0.5,0.4H107c-1.3,0-2,0.1-2.5,0.4l-1.5,8.3
			c0,0.3-0.1,0.5-0.5,0.5h-3.9c-0.3,0-0.5-0.1-0.4-0.5l2.1-11.9c0-0.2,0.2-0.4,0.5-0.4h3.4c0.3,0,0.4,0.1,0.4,0.4l-0.1,0.6
			c0.9-1,2.1-1.3,3.1-1.3H107.7z"/>
		<path class="st4" d="M122.3,66.4c0.4,0,0.4,0.4,0.2,0.6l-4.5,5.8l2.5,6c0.1,0.2,0,0.6-0.4,0.6h-4.4c-0.3,0-0.5,0-0.6-0.5l-1.7-5.2
			l-0.9,5.2c0,0.3-0.2,0.5-0.5,0.5h-3.9c-0.3,0-0.5-0.1-0.4-0.5l2.8-16c0-0.3,0.2-0.5,0.6-0.5h3.8c0.3,0,0.5,0.1,0.5,0.5l-1.6,9
			l3.3-4.9c0.3-0.4,0.5-0.5,0.8-0.5H122.3z"/>
		<path class="st4" d="M122.3,78.7l2.1-11.9c0-0.3,0.2-0.5,0.6-0.5h3.9c0.4,0,0.4,0.2,0.4,0.5l-2.1,11.9c0,0.3-0.2,0.5-0.6,0.5h-3.9
			C122.5,79.2,122.3,79,122.3,78.7z M129.7,62.2c0.3,0,0.5,0.1,0.4,0.5l-0.4,2.2c0,0.3-0.2,0.5-0.6,0.5H125c-0.4,0-0.5-0.2-0.4-0.5
			l0.4-2.2c0-0.3,0.2-0.5,0.6-0.5H129.7z"/>
		<path class="st4" d="M142.8,71.2l-1.3,7.5c0,0.3-0.1,0.5-0.5,0.5H137c-0.3,0-0.5-0.1-0.4-0.5l1.3-7.5c0-0.1,0-0.3,0-0.4
			c0-0.4-0.4-0.7-0.9-0.7c-0.4,0-0.8,0.1-1.3,0.3l-1.5,8.3c0,0.3-0.1,0.5-0.5,0.5h-3.9c-0.3,0-0.5-0.2-0.4-0.5l2.1-11.9
			c0-0.2,0.3-0.4,0.5-0.4h3.6c0.3,0,0.4,0.2,0.4,0.4l-0.1,0.6c1.2-0.8,2.2-1.3,3.7-1.3c2.7,0,3.3,1.7,3.3,3.5
			C142.9,70.2,142.9,70.7,142.8,71.2z"/>
		<path class="st4" d="M156.6,66.6c0.7,0.2,0.8,0.3,0.7,0.7l-2.1,11.8c-0.6,3.2-2.7,4.6-6.9,4.6c-2,0-3.6-0.4-4.3-0.7
			c-0.3-0.1-0.4-0.3-0.3-0.6l0.4-2.1c0-0.3,0.2-0.5,0.5-0.4c1,0.1,3.2,0.3,4.3,0.3c1,0,1.4-0.2,1.5-1l0.1-0.5
			c-0.3,0.1-0.9,0.1-1.4,0.1c-3.5,0-5.1-2-5.1-4.6c0-0.4,0-0.8,0.1-1.2l0.2-1c0.7-4.1,3.4-5.8,7-5.8
			C153.8,66.1,155.7,66.4,156.6,66.6z M151,70.2c-1.3,0-1.5,0.7-1.7,1.8l-0.2,1c0,0.3-0.1,0.5-0.1,0.8c0,0.5,0.1,1,1.2,1
			c0.2,0,0.4,0,1.1-0.1l0.8-4.5C151.7,70.2,151.4,70.2,151,70.2z"/>
	</g>
	<g>
		<path class="st4" d="M39.9,99.6h-4.5c-0.2,0-0.4-0.2-0.4-0.4l0-2.4h-3.3l-0.8,2.4c-0.1,0.2-0.3,0.4-0.5,0.4h-4.6
			c-0.2,0-0.3-0.1-0.3-0.2c0-0.1,0-0.1,0-0.2L30.5,86c0.8-2.2,2.6-2.8,5.3-2.8c2.7,0,4.2,0.6,4.2,2.8l0.3,13.2v0
			C40.3,99.4,40.2,99.6,39.9,99.6z M35.1,87.3c-0.2,0-0.2,0.1-0.2,0.3l-1.7,5.1h2l0.1-5.1c0,0,0-0.1,0-0.1
			C35.2,87.4,35.2,87.3,35.1,87.3z"/>
		<path class="st4" d="M52.1,86.9c0.2,0.1,0.4,0.2,0.3,0.4l-0.5,3c0,0.2-0.3,0.5-0.5,0.5h0c-0.7,0-1.5-0.1-2.3-0.1
			c-0.9,0-1.2,0.6-1.5,1.9l-0.3,1.4c-0.1,0.3-0.1,0.6-0.1,0.9c0,0.7,0.3,1,0.9,1c0.9,0,1.7-0.1,2.4-0.1c0.4,0,0.5,0.2,0.4,0.5
			l-0.5,3c0,0.3-0.3,0.3-0.5,0.4c-0.9,0.2-1.9,0.4-3.1,0.4c-3,0-4.4-1.9-4.4-4.5c0-0.5,0-0.9,0.1-1.4l0.3-1.4c0.7-4,2.8-5.9,6.4-5.9
			C50.4,86.5,51.5,86.7,52.1,86.9z"/>
		<path class="st4" d="M66,87.8l-2,11.4c0,0.2-0.1,0.4-0.4,0.4h-3.1c-0.4,0-0.5-0.2-0.4-0.4l0.1-0.6c-1,0.9-1.9,1.3-3.6,1.3
			c-2.4,0-3.8-1.5-3.8-4c0-0.7,0-1.1,0.1-1.5l0.3-2c0.8-4.7,3.5-5.8,7.1-5.8c1.6,0,3.4,0.2,5,0.5C65.8,87.1,66.1,87.3,66,87.8z
			 M59.7,90.5c-0.9,0-1.4,0.3-1.7,1.8l-0.4,2.1c0,0.2-0.1,0.5-0.1,0.6c0,0.7,0.3,0.8,0.8,0.8c0.4,0,1-0.2,1.4-0.3l0.9-4.9
			C60.3,90.6,60,90.5,59.7,90.5z"/>
		<path class="st4" d="M80.3,82.6c0.3,0,0.5,0.1,0.4,0.5L78,98.5c-0.1,0.4-0.3,0.6-1,0.8c-1.1,0.2-3,0.5-5.2,0.5
			c-3.2,0-5.1-2-5.1-4.7c0-0.3,0-0.7,0.1-1.1l0.3-1.7c0.7-4.1,3-5.8,6.8-5.8c0.5,0,1.1,0.1,1.4,0.1l0.6-3.6c0-0.3,0.2-0.5,0.5-0.5
			H80.3z M73.4,90.5c-0.9,0-1.2,0.5-1.5,1.8L71.6,94c-0.1,0.3-0.1,0.6-0.1,0.8c0,0.7,0.3,1,0.9,1c0.6,0,0.8,0,1.2-0.1l0.9-5.1
			C74.2,90.6,73.9,90.5,73.4,90.5z"/>
		<path class="st4" d="M92.7,92.6L92.5,94c0,0.3-0.3,0.5-0.5,0.5h-6.6c0,0.2,0,0.3,0,0.5c0,0.7,0.4,0.9,1.7,0.9
			c0.9,0,3.3-0.1,4.1-0.2c0.3,0,0.5,0.1,0.4,0.4l-0.4,2.3c-0.1,0.4-0.2,0.5-0.5,0.6c-1.2,0.5-3.4,0.8-5.1,0.8
			c-2.8,0-4.9-1.5-4.9-4.5c0-0.4,0-0.8,0.1-1.3l0.2-1.3c0.8-4.5,3.4-6.1,7.1-6.1c3.4,0,4.8,2,4.8,4.6C92.9,91.6,92.8,92.1,92.7,92.6
			z M87.3,90.2c-0.9,0-1.3,0.6-1.5,1.8h2.5c0-0.3,0.1-0.5,0.1-0.7C88.4,90.6,88.1,90.2,87.3,90.2z"/>
		<path class="st4" d="M112.8,91.7l-1.3,7.5c0,0.3-0.2,0.5-0.5,0.5H107c-0.3,0-0.5-0.2-0.4-0.5l1.3-7.5c0-0.1,0-0.3,0-0.3
			c0-0.5-0.3-0.6-0.7-0.6c-0.3,0-0.6,0-1,0.1c0,0.3,0,0.4-0.1,0.8l-1.3,7.5c0,0.3-0.2,0.5-0.5,0.5h-3.9c-0.3,0-0.4-0.2-0.4-0.5
			l1.3-7.5c0-0.2,0-0.3,0-0.4c0-0.5-0.2-0.6-0.7-0.6c-0.3,0-0.7,0-1,0.1l-1.5,8.3c0,0.3-0.1,0.5-0.5,0.5h-3.9
			c-0.3,0-0.5-0.1-0.4-0.5l2.1-11.9c0-0.2,0.1-0.4,0.5-0.4h3.6c0.3,0,0.4,0.2,0.4,0.4l-0.1,0.7c1.4-1.1,2.5-1.3,3.7-1.3
			c1.1,0,2,0.3,2.5,1.3c1.1-0.9,2.4-1.3,3.6-1.3c2.2,0,3.2,1.4,3.2,3.5C113,90.6,112.9,91.1,112.8,91.7z"/>
		<path class="st4" d="M128.3,87.2l-6,13.1c-1.1,2.3-2.4,3.8-6.1,3.8c-1,0-2.6-0.2-3.2-0.5c-0.4-0.1-0.5-0.2-0.4-0.4l0.4-2.5
			c0-0.2,0.1-0.5,0.6-0.5c0.9,0.1,2.3,0.2,3.2,0.2c0.5,0,0.8-0.1,1-0.5l0.3-0.7h-0.3c-0.8,0-1.6-0.2-1.8-1.7l-1.3-10.2
			c0-0.3,0.1-0.5,0.6-0.5h4.2c0.3,0,0.3,0.2,0.3,0.5l0.3,6.8c0,0.2,0,0.3,0.2,0.3h0.2l2.6-7.1c0.1-0.2,0.2-0.5,0.6-0.5h4.5
			C128.4,86.7,128.5,86.9,128.3,87.2z"/>
	</g>
</g>
</svg>
