<?xml version="1.0" encoding="utf-8"?>
<!-- Generator: Adobe Illustrator 19.2.1, SVG Export Plug-In . SVG Version: 6.00 Build 0)  -->
<svg version="1.1" id="Capa_1" xmlns="http://www.w3.org/2000/svg" xmlns:xlink="http://www.w3.org/1999/xlink" x="0px" y="0px"
	 viewBox="0 0 200 200" style="enable-background:new 0 0 200 200;" xml:space="preserve">
<style type="text/css">
	.st0{fill:url(#SVGID_1_);}
	.st1{fill:none;}
	.st2{fill:#FFFFFF;}
</style>
<g>
	
		<linearGradient id="SVGID_1_" gradientUnits="userSpaceOnUse" x1="-35.7016" y1="-4794.0444" x2="153.3275" y2="-4605.0151" gradientTransform="matrix(-1 0 0 -1 158.8145 -4599.5303)">
		<stop  offset="0" style="stop-color:#52C2F0"/>
		<stop  offset="0.1077" style="stop-color:#49BCEC"/>
		<stop  offset="0.2849" style="stop-color:#30AAE1"/>
		<stop  offset="0.5086" style="stop-color:#088ECF"/>
		<stop  offset="0.5476" style="stop-color:#0089CC"/>
		<stop  offset="1" style="stop-color:#006B99"/>
	</linearGradient>
	<path class="st0" d="M2.2,13.3c0-6.2,5.2-11.2,11.5-11.2h172.7c6.3,0,11.5,5,11.5,11.2v173.3c0,6.2-5.2,11.2-11.5,11.2H13.6
		c-6.3,0-11.5-5-11.5-11.2V13.3z"/>
	<g>
		<polygon class="st1" points="27.4,170.5 36.2,170.5 31.8,159.3 		"/>
		<path class="st1" d="M101.8,169.3c-0.3-3.3-2.1-5.3-5-5.3c-2.8,0-4.7,2-5,5.3H101.8z"/>
		<path class="st1" d="M98.2,148.4c3.2,0,5.1-2.4,5.1-6.5c0-4.1-1.9-6.5-5.1-6.5c-3.2,0-5.1,2.4-5.1,6.5
			C93.1,145.9,95.1,148.4,98.2,148.4z"/>
		<path class="st1" d="M55.7,140.7c-0.3-3.3-2.1-5.3-5-5.3c-2.8,0-4.7,2-5,5.3H55.7z"/>
		<path class="st1" d="M80.3,164.1c-3.1,0-4.9,2.5-4.9,6.6c0,3.9,1.8,6.3,4.9,6.3c2.4,0,4.9-1.7,4.9-6.4
			C85.2,166.5,83.4,164.1,80.3,164.1z"/>
		<path class="st1" d="M68.8,170.2l-3.8,0.7c-3.7,0.6-4.5,1.8-4.5,3.3c0,1.8,1.3,2.8,3.6,2.8c2.3,0,4.7-1.7,4.7-4.3V170.2z"/>
		<path class="st1" d="M159.8,135.5c-3,0-4.9,2.3-4.9,6.1c0,3.6,1.9,5.9,4.9,5.9c3.1,0,4.9-2.2,4.9-5.9
			C164.7,137.7,162.9,135.5,159.8,135.5z"/>
		<polygon class="st2" points="26.3,131.4 38.4,149.7 38.5,149.8 40.8,149.8 40.8,128.2 38.8,128.2 38.8,146.5 26.8,128.3 
			26.7,128.2 24.3,128.2 24.3,149.8 26.3,149.8 		"/>
		<path class="st2" d="M50.7,133.6c-4.4,0-7.2,3.3-7.2,8.3c0,5,2.9,8.3,7.5,8.3c3.3,0,5.8-1.8,6.6-4.8l0.1-0.3h-2.2l0,0.2
			c-0.6,1.9-2.2,3.1-4.4,3.1c-3.2,0-5.2-2.2-5.4-5.8h12.2v-0.2C57.8,136.9,55.2,133.6,50.7,133.6z M50.7,135.4c2.9,0,4.7,2,5,5.3
			h-10C46,137.4,47.9,135.4,50.7,135.4z"/>
		<path class="st2" d="M61.5,146.5c0,2.4,1.4,3.8,3.7,3.8c0.7,0,1.3-0.1,2-0.3l0.2,0v-1.8l-0.3,0.1c-0.7,0.2-1.2,0.2-1.8,0.2
			c-1.2,0-1.7-0.6-1.7-1.9v-10.5h3.5v-1.9h-3.5v-3.7h-2l-0.1,3.7h-2.2v1.9h2.2V146.5z"/>
		<polygon class="st2" points="79.2,136.8 83.3,149.6 83.3,149.8 85.6,149.8 90.1,134.1 88.1,134.1 84.5,147 80.5,134.2 80.5,134.1 
			78.1,134.1 74.3,147 70.4,134.2 70.4,134.1 68.2,134.1 73,149.8 75.4,149.8 		"/>
		<path class="st2" d="M98.2,133.6c-4.5,0-7.3,3.2-7.3,8.3c0,5,2.9,8.3,7.3,8.3c4.4,0,7.2-3.2,7.2-8.3
			C105.5,136.8,102.7,133.6,98.2,133.6z M98.2,135.4c3.2,0,5.1,2.4,5.1,6.5c0,4.1-1.9,6.5-5.1,6.5c-3.2,0-5.1-2.5-5.1-6.5
			C93.1,137.8,95,135.4,98.2,135.4z"/>
		<path class="st2" d="M110.4,141.2c0-3.3,1.6-5.6,3.9-5.6c0.6,0,1,0.1,1.6,0.3l0.3,0.1v-2.1l-0.2-0.1c-0.3-0.1-1-0.2-1.7-0.2
			c-1.8,0-3.2,0.9-4.1,2.6l-0.2-2.2h-1.8v15.7h2.1V141.2z"/>
		<polygon class="st2" points="122.1,141 130.2,134.1 127.3,134.1 120.4,140 120.4,128.2 118.3,128.2 118.3,149.8 120.4,149.8 
			120.4,142.1 128.2,149.7 128.3,149.8 131.1,149.8 		"/>
		<rect x="132.6" y="134.1" class="st2" width="2.1" height="15.7"/>
		<rect x="132.4" y="128.2" class="st2" width="2.4" height="2.7"/>
		<path class="st2" d="M144.9,133.6c-2,0-3.8,0.9-4.9,2.5l-0.1-2.1h-1.8v15.7h2.1v-9.7c0-2.8,2.3-4.6,4.4-4.6c2.4,0,3.8,1.4,3.8,3.8
			v10.5h2.1v-10.6C150.4,135.7,148.3,133.6,144.9,133.6z"/>
		<path class="st2" d="M164.9,134.1l-0.2,2.1c-1.1-1.6-2.9-2.6-5.1-2.6c-4.1,0-6.8,3.2-6.8,7.9c0,5.3,3.5,7.7,6.7,7.7
			c2.1,0,3.9-0.8,5-2.3v2.5c0,2.7-1.7,4.3-4.6,4.3c-1.4,0-3.9-0.4-4.3-2.8l0-0.2h-2.2l0.1,0.3c0.5,2.9,2.9,4.5,6.5,4.5
			c4,0,6.6-2.4,6.6-6v-15.4H164.9z M164.7,141.5c0,3.7-1.8,5.9-4.9,5.9c-3,0-4.9-2.3-4.9-5.9c0-3.8,1.8-6.1,4.9-6.1
			C162.9,135.5,164.7,137.7,164.7,141.5z"/>
		<path class="st2" d="M30.6,156.8L22.1,178l-0.1,0.3h2.3l2.4-6h10.3l2.4,6h2.4L33,156.8H30.6z M36.2,170.5h-8.8l4.5-11.2
			L36.2,170.5z"/>
		<path class="st2" d="M54,173.6c-0.4,2-2.1,3.4-4.3,3.4c-2.4,0-4.9-1.6-4.9-6.3c0-4.2,1.9-6.7,5-6.7c2.2,0,3.8,1.2,4.1,3.1l0,0.2
			h2.2l0-0.3c-0.5-3-3-4.9-6.4-4.9c-4.3,0-7,3.3-7,8.4c0,5,2.7,8.2,7,8.2c3.4,0,6-2.1,6.5-5.1l0-0.3H54L54,173.6z"/>
		<path class="st2" d="M65,162.2c-3.4,0-5.9,1.9-6.2,4.6l0,0.3H61l0-0.2c0.2-1.8,1.7-2.9,3.9-2.9c2.4,0,3.9,1.2,3.9,3.3v1.1
			l-4.4,0.7c-4.2,0.7-6.1,2.3-6.1,5.1c0,2.7,2.1,4.5,5.3,4.5c2.8,0,4.4-1.4,5.2-2.5l0.2,2h1.8v-10.9C70.9,164.3,68.6,162.2,65,162.2
			z M64.2,177c-2.3,0-3.6-1-3.6-2.8c0-1.5,0.8-2.7,4.5-3.3l3.8-0.7v2.5C68.8,175.3,66.4,177,64.2,177z"/>
		<path class="st2" d="M85.1,164.7c-1.1-1.6-2.9-2.5-5-2.5c-3.3,0-6.8,2.2-6.8,8.4c0,5,2.6,8.1,6.7,8.1c2.2,0,4-1,5.2-2.8l0.2,2.3
			h1.8v-21.6h-2.1V164.7z M80.3,177c-3.1,0-4.9-2.4-4.9-6.3c0-4.1,1.8-6.6,4.9-6.6c3.1,0,4.9,2.4,4.9,6.5
			C85.2,175.3,82.7,177,80.3,177z"/>
		<path class="st2" d="M96.9,162.2c-4.4,0-7.2,3.3-7.2,8.3s2.9,8.3,7.5,8.3c3.3,0,5.8-1.8,6.6-4.8l0.1-0.3h-2.2l-0.1,0.2
			c-0.6,1.9-2.2,3.1-4.4,3.1c-3.2,0-5.2-2.2-5.4-5.8H104v-0.2C104,165.5,101.3,162.2,96.9,162.2z M96.9,164c2.9,0,4.7,2,5,5.3h-10
			C92.2,166.1,94.1,164,96.9,164z"/>
		<path class="st2" d="M122.6,162.2c-2.1,0-3.9,1-4.9,2.7c-0.8-1.7-2.4-2.7-4.6-2.7c-1.8,0-3.5,0.8-4.5,2.3l-0.1-1.8h-1.8v15.7h2.1
			v-9.7c0-2.6,1.8-4.6,4.1-4.6c2.3,0,3.4,1.2,3.4,3.7v10.6h2.1v-9.7c0-2.6,1.7-4.6,4-4.6c2.3,0,3.4,1.2,3.4,3.7v10.6h2.1v-10.7
			C127.8,164.3,125.8,162.2,122.6,162.2z"/>
		<path class="st2" d="M136.7,176.2l-5.2-13.4l-0.1-0.2h-2.2l6.2,15.6l0.1,0.2h0.4c-1,3.1-1.4,3.9-2.5,3.9c-0.4,0-1-0.1-1.4-0.3
			l-0.3-0.1v1.8l0.2,0.1c0.6,0.2,1.2,0.3,1.7,0.3c2.5,0,3.1-1.8,4.5-5.8l5.4-15.3l0.1-0.3h-2.1L136.7,176.2z"/>
	</g>
	<g>
		<path class="st2" d="M113.9,33.7c0-1.1-0.9-2-1.9-2c-1.1,0-2,0.9-2,2v4.1c0,1.1,0.9,1.9,2,1.9c1.1,0,1.9-0.9,1.9-1.9V33.7z
			 M103.2,28.3c0-1.1-0.9-2-2-2c-1.1,0-1.9,0.9-1.9,2v9.5c0,1.1,0.9,1.9,1.9,1.9c1.1,0,2-0.9,2-1.9V28.3z M92.5,21c0-1.1-0.9-2-2-2
			c-1.1,0-1.9,0.9-1.9,2v20.7c0,1.1,0.9,2,1.9,2c1.1,0,2-0.9,2-2V21z M81.7,28.3c0-1.1-0.9-2-1.9-2c-1.1,0-1.9,0.9-1.9,2v9.5
			c0,1.1,0.9,1.9,1.9,1.9c1.1,0,1.9-0.9,1.9-1.9V28.3z M71,33.7c0-1.1-0.9-2-1.9-2c-1.1,0-2,0.9-2,2v4.1c0,1.1,0.9,1.9,2,1.9
			c1.1,0,1.9-0.9,1.9-1.9V33.7z M60.2,28.3c0-1.1-0.9-2-2-2c-1.1,0-2,0.9-2,2v9.5c0,1.1,0.9,1.9,2,1.9c1.1,0,2-0.9,2-1.9V28.3z
			 M49.5,21c0-1.1-0.9-2-2-2c-1.1,0-2,0.9-2,2v20.7c0,1.1,0.9,2,2,2c1.1,0,2-0.9,2-2V21z M38.8,28.3c0-1.1-0.9-2-2-2
			c-1.1,0-1.9,0.9-1.9,2v9.5c0,1.1,0.9,1.9,1.9,1.9c1.1,0,2-0.9,2-1.9V28.3z M28,37.8c0,1.1-0.9,1.9-1.9,1.9c-1.1,0-2-0.9-2-1.9
			v-4.1c0-1.1,0.9-2,2-2c1.1,0,1.9,0.9,1.9,2V37.8z"/>
		<path class="st2" d="M68.4,50.7c-0.1,0-1.9-0.5-3.8-0.5c-3.6,0-5.8,2-5.8,4.9c0,2.6,1.8,3.9,4,4.6c0.3,0.1,0.6,0.2,0.9,0.3
			c1,0.3,1.8,0.8,1.8,1.6c0,0.9-0.9,1.4-2.9,1.4c-1.7,0-3.4-0.5-3.7-0.6v3.6c0.2,0,2.1,0.4,4.3,0.4c3,0,6.5-1.3,6.5-5.2
			c0-1.9-1.2-3.6-3.7-4.5l-1.1-0.3c-0.6-0.2-1.8-0.5-1.8-1.5c0-0.8,0.9-1.3,2.4-1.3c1.4,0,3,0.5,3.1,0.5V50.7z M101.7,58.3
			c0,2.3-1.7,4.1-4.1,4.1c-2.3,0-4.1-1.8-4.1-4.1c0-2.3,1.7-4.1,4.1-4.1C99.9,54.2,101.7,56,101.7,58.3 M97.6,50.2
			c-4.8,0-8.2,3.6-8.2,8.1c0,4.5,3.4,8.1,8.2,8.1c4.8,0,8.2-3.6,8.2-8.1C105.9,53.8,102.4,50.2,97.6,50.2 M44.1,50.7
			c-0.4-0.1-1.7-0.6-3.6-0.6c-4.8,0-8.3,3.4-8.3,8.1c0,5,3.9,8.1,8.3,8.1c1.8,0,3.1-0.4,3.6-0.6v-4.2c-0.2,0.1-1.5,0.8-3.3,0.8
			c-2.6,0-4.3-1.9-4.3-4.2c0-2.4,1.8-4.2,4.3-4.2c1.9,0,3.1,0.7,3.3,0.8V50.7z M85.2,50.7c-0.4-0.1-1.8-0.6-3.6-0.6
			c-4.8,0-8.3,3.4-8.3,8.1c0,5,3.9,8.1,8.3,8.1c1.7,0,3.1-0.4,3.6-0.6v-4.2c-0.2,0.1-1.5,0.8-3.3,0.8c-2.6,0-4.3-1.9-4.3-4.2
			c0-2.4,1.8-4.2,4.3-4.2c1.9,0,3.2,0.7,3.3,0.8V50.7z M53.5,66.1h-3.9V50.5h3.9V66.1z"/>
	</g>
</g>
</svg>
