<?xml version="1.0" encoding="utf-8"?>
<!-- Generator: Adobe Illustrator 20.0.0, SVG Export Plug-In . SVG Version: 6.00 Build 0)  -->
<svg version="1.1" id="Capa_1" xmlns="http://www.w3.org/2000/svg" xmlns:xlink="http://www.w3.org/1999/xlink" x="0px" y="0px"
	 viewBox="0 0 716.7 702.5" style="enable-background:new 0 0 716.7 702.5;" xml:space="preserve">
<style type="text/css">
	.st0{display:none;fill:#C4122E;}
	.st1{fill:#B600A6;}
	.st2{fill:#F000A6;}
</style>
<path class="st0" d="M116.1,342.6c5.4,0.1,9.7-3.9,9.8-9.5c0.1-5.4-4.3-9.6-9.7-9.6c-5.8,0-9.8,4.4-9.8,9.6
	C106.4,338.4,110.6,342.7,116.1,342.6z M70,338.1c0,1.1,0,2.3,0,3.5c0,0.2,0.3,0.5,0.5,0.5c0.7,0.1,1.4,0.2,2.1,0.3
	c2,0.2,4,0.2,5.9-0.4c4.3-1.4,5.2-6.2,2.9-8.9c-1-1.1-2.3-1.7-3.6-2.1c-0.7-0.2-1.5-0.4-2.1-0.8c-0.4-0.3-0.8-0.9-0.8-1.3
	s0.6-1,1-1.1c0.9-0.2,1.9-0.3,2.8-0.3s1.7,0.3,2.7,0.4c0-1.1,0-2.1,0-3.1c0-0.6-0.2-0.8-0.7-0.9c-1.9-0.3-3.9-0.6-5.9-0.2
	c-3.3,0.6-5.4,3.4-4.8,6.7c0.5,2.4,2.2,3.5,4.3,4.2c0.8,0.3,1.6,0.5,2.4,0.9c0.6,0.3,1.1,0.8,1,1.5c-0.1,0.8-0.6,1.1-1.2,1.3
	c-0.4,0.1-0.8,0.2-1.2,0.2C73.5,338.4,71.8,338.3,70,338.1z M101.3,328.9c0-1.5,0-2.9,0-4.3c0-0.2-0.3-0.6-0.5-0.7
	c-2.3-0.7-4.6-0.8-6.9-0.1c-3.7,1.2-6,3.8-6.5,7.7c-0.5,3.4,0.5,6.4,3.1,8.6c3.2,2.7,6.9,2.8,10.8,1.7c0-1.6,0-3.2,0-4.6
	c-1.4,0.2-2.8,0.5-4.2,0.6c-2.3,0.1-4.5-1.8-4.7-3.9c-0.4-2.9,1-5.2,3.6-5.8C97.8,327.7,99.5,328.1,101.3,328.9z M52.4,337.4
	c-1.5,0.2-2.9,0.5-4.3,0.5c-3,0.1-5.3-3-4.7-5.9c0.7-3.3,3.6-4.4,6.3-3.9c0.9,0.1,1.7,0.5,2.7,0.7c0-1.5,0-2.9,0-4.3
	c0-0.2-0.3-0.5-0.6-0.6c-1.7-0.5-3.5-0.6-5.3-0.4c-5.9,0.8-9.5,6.3-7.8,12.3c1.7,6.1,8.2,7.8,13.3,6.2c0.1,0,0.3-0.3,0.3-0.4
	C52.4,340.1,52.4,338.7,52.4,337.4z M110,300.9c0-4.1,0-8.2,0-12.3c0-1.6-1.5-2.7-3-2.2c-1,0.3-1.6,1.3-1.6,2.7c0,7.9,0,15.8,0,23.7
	c0,0.2,0,0.4,0,0.5c0.2,1.4,1.2,2.3,2.4,2.2c1.3-0.1,2.1-1,2.1-2.5C110,309,110,304.9,110,300.9z M58.8,300.9L58.8,300.9
	c0-4.2,0-8.3,0-12.5c0-1.1-0.7-1.9-1.9-2.1c-1-0.2-2,0.4-2.4,1.3c-0.2,0.5-0.2,1.1-0.2,1.7c0,6.9,0,13.9,0,20.8c0,1,0,2,0,3.1
	c0.1,1.5,1,2.4,2.3,2.3c1.2,0,2.3-1,2.2-2.5C58.7,309,58.8,305,58.8,300.9z M63.4,342.2c0-6.2,0-12.2,0-18.3c-1.5,0-3,0-4.5,0
	c0,6.1,0,12.2,0,18.3C60.5,342.2,62,342.2,63.4,342.2z M46,303c0-1.9,0-3.7,0-5.6c0-1.3-0.8-2.2-2-2.4c-1-0.2-2.1,0.6-2.4,1.7
	c-0.1,0.6-0.2,1.2-0.2,1.8c0,3.3,0,6.6,0,9.9c0,1.4,1.1,2.6,2.3,2.6c1.1-0.1,2.3-0.9,2.3-2.6C46,306.6,46,304.8,46,303z M122.7,303
	c0-1.9,0-3.8,0-5.7c0-1.1-0.5-1.7-1.5-2.1c-0.9-0.3-1.9-0.2-2.5,0.7c-0.4,0.6-0.6,1.3-0.6,2c-0.1,3.4,0,6.8,0,10.1
	c0,0.3,0,0.6,0.1,0.9c0.2,1.2,1.3,2.1,2.4,2c1.2-0.1,2.1-1,2.1-2.3C122.7,306.7,122.7,304.8,122.7,303z M92.6,303c0,1.8,0,3.6,0,5.4
	c0,1.5,1,2.6,2.3,2.6s2.3-1.1,2.3-2.6c0-3.6,0-7.2,0-10.8c0-1.5-1-2.6-2.3-2.5c-1.3,0-2.3,1.1-2.3,2.6
	C92.6,299.4,92.6,301.2,92.6,303z M71.6,303C71.6,303,71.5,303,71.6,303c0-2,0-4,0-6c0-1.1-1.2-2-2.3-1.9c-1.1,0.1-2.1,1-2.1,2.1
	c0,3.9,0,7.8,0,11.7c0,0.8,0.4,1.4,1.1,1.8c1.5,0.8,3.2-0.1,3.3-1.8C71.6,306.9,71.6,304.9,71.6,303z M79.8,306.2c0,0.8,0,1.7,0,2.5
	c0,1.2,0.9,2.1,2.1,2.3c1,0.1,2.2-0.7,2.3-1.8c0.1-1.9,0.2-3.9,0-5.8c-0.1-1.3-1.2-2-2.5-1.8c-1.1,0.1-1.9,1.1-1.9,2.3
	C79.8,304.6,79.8,305.4,79.8,306.2z M33.3,306.2c0-0.8,0-1.6,0-2.4c0-1.4-1-2.3-2.3-2.3s-2.3,0.9-2.3,2.3c0,1.6,0,3.2,0,4.7
	c0,1.3,1.1,2.4,2.3,2.4c1.2,0,2.3-1.1,2.3-2.4C33.3,307.8,33.3,307,33.3,306.2z M135.5,306.1L135.5,306.1c0-0.9,0-1.8,0-2.7
	c-0.1-1.2-1-2-2.2-2s-2.2,0.9-2.2,2c0,1.8,0,3.5,0,5.3c0,1.2,1,2.1,2.2,2.2c1.1,0,2.2-0.9,2.2-2.1
	C135.5,307.9,135.5,307,135.5,306.1z M133.2,342C133.2,342,133.3,342,133.2,342c0.1-0.5,0.2-1,0.2-1.8c0.3,0.8,0.6,1.4,0.9,2.2
	c0.3-0.8,0.6-1.3,0.8-1.9c0.1,0,0.1,0,0.2,0c0,0.5,0,1,0,1.5h0.1c0-0.7,0-1.4,0-2.1c-0.1,0-0.2,0-0.2-0.1c-0.3,0.6-0.5,1.3-0.8,1.9
	c-0.3-0.7-0.6-1.3-0.8-2c-0.1,0-0.2,0.1-0.3,0.1C133.2,340.7,133.2,341.3,133.2,342z M132.3,339.9c-0.2,0-0.7,0-1.3,0
	c0.4,0.1,0.6,0.2,0.9,0.2c0,0.7,0,1.3,0,2h0.1C132,341.4,132.2,340.7,132.3,339.9z"/>
<g>
	<path class="st1" d="M96.9,80.3c-1.2,6.6-5.6,10.1-12.9,14c-4.9,2.6-8.7,4.7-10.4,7.3h17.5c0.6,0,1.1,0.4,1.1,1c0,0.1,0,0.1,0,0.2
		l-1.7,9.7c-0.1,0.7-0.9,1.2-1.5,1.2H59.4c-0.6,0-1-0.4-1-1c0-0.1,0-0.1,0-0.2l1.2-6.7c1.6-9.5,7.9-14.4,14.4-18.4
		c7.6-4.6,8.2-4.5,8.6-6.4c0-0.2,0.1-0.4,0.1-0.5c0-0.9-0.8-1.3-4.8-1.3s-8,0.6-11.9,0.6h-0.1c-0.5,0-0.9-0.4-0.9-1
		c0-0.1,0-0.1,0-0.2v-0.1l1.2-7c0.1-0.7,0.7-1,1.4-1.2c4.1-1.5,9.4-2.6,14.9-2.6c10.8,0,14.8,4.4,14.8,10.1
		C97.2,78.6,97,79.4,96.9,80.3z"/>
	<path class="st1" d="M111.9,103.2l-1.6,9.3c-0.1,0.7-0.9,1.2-1.5,1.2H98.1c-0.6,0-1-0.4-1-1c0-0.1,0-0.1,0-0.2l1.6-9.3
		c0.1-0.7,0.9-1.2,1.5-1.2h10.6c0.6,0,1,0.4,1,1C111.9,103.1,111.9,103.2,111.9,103.2z"/>
	<path class="st1" d="M155.1,87.7l-1.2,6.6c-2.4,13.5-9.7,19.9-21,19.9c-9.5,0-14.5-4.5-14.5-13.9c0-1.8,0.2-3.8,0.5-6l1.2-6.6
		c2.4-13.5,9.7-19.9,21-19.9c9.5,0,14.5,4.5,14.5,13.9C155.6,83.5,155.5,85.5,155.1,87.7z M138.9,80.1c-1.8,0-3.2,0.9-4.4,7.7
		l-1.2,6.6c-0.4,2-0.5,3.5-0.5,4.6c0,2.7,0.9,3.1,2.2,3.1c1.8,0,3.2-0.9,4.4-7.7l1.2-6.6c0.4-2,0.5-3.5,0.5-4.6
		C141.1,80.5,140.2,80.1,138.9,80.1z"/>
	<path class="st1" d="M195.9,87.7l-1.2,6.6c-2.4,13.5-9.7,19.9-21,19.9c-9.5,0-14.5-4.5-14.5-13.9c0-1.8,0.2-3.8,0.5-6l1.2-6.6
		c2.4-13.5,9.7-19.9,21-19.9c9.5,0,14.5,4.5,14.5,13.9C196.5,83.5,196.3,85.5,195.9,87.7z M179.8,80.1c-1.8,0-3.2,0.9-4.4,7.7
		l-1.2,6.6c-0.4,2-0.5,3.5-0.5,4.6c0,2.7,0.9,3.1,2.2,3.1c1.8,0,3.2-0.9,4.4-7.7l1.2-6.6c0.4-2,0.5-3.5,0.5-4.6
		C182,80.5,181.1,80.1,179.8,80.1z"/>
	<path class="st1" d="M236.8,87.7l-1.2,6.6c-2.4,13.5-9.7,19.9-21,19.9c-9.5,0-14.5-4.5-14.5-13.9c0-1.8,0.2-3.8,0.5-6l1.2-6.6
		c2.4-13.5,9.7-19.9,21-19.9c9.5,0,14.5,4.5,14.5,13.9C237.3,83.5,237.2,85.5,236.8,87.7z M220.6,80.1c-1.8,0-3.2,0.9-4.4,7.7
		l-1.2,6.6c-0.4,2-0.5,3.5-0.5,4.6c0,2.7,0.9,3.1,2.2,3.1c1.8,0,3.2-0.9,4.4-7.7l1.2-6.6c0.4-2,0.5-3.5,0.5-4.6
		C222.8,80.5,221.9,80.1,220.6,80.1z"/>
</g>
<g>
	<path class="st1" d="M420.3,295.3c2.9,2.1,4.1,5.1,4.1,7.9c0,12-9.3,15.7-19.6,15.7c-5.2,0-11.6-1.3-14-2.5c-0.4-0.2-1-0.5-1-1
		c0-0.1,0-0.1,0-0.2l1.2-7.1c0.1-0.7,0.8-1.2,1.5-1.2h0.1c3.2,0,9,0.6,13.1,0.6c2.9,0,5.1-1.2,5.1-4.2c0-1.5-0.8-2.6-3-2.6H397
		c-0.6,0-1-0.5-1-1c0-0.1,0-0.1,0-0.2l1.4-7.9c0.1-0.7,0.8-1.2,1.5-1.2h9.8c2.7,0,4.9-1.3,4.9-4.2c0-1.6-1.2-2.4-3.8-2.4
		c-4.1,0-9.6,0.6-12.9,0.6h-0.1c-0.5,0-1-0.4-1-1c0-0.1,0-0.1,0-0.2v-0.1l1.2-7.1c0.1-0.7,0.9-0.9,1.5-1.2c2.7-1.2,9.1-2.5,14.4-2.5
		c9.8,0,15.1,3.3,15.1,10.1C428.1,288.7,425.7,292.2,420.3,295.3z"/>
	<path class="st1" d="M443,307.8l-1.6,9.3c-0.1,0.7-0.9,1.2-1.5,1.2h-10.6c-0.6,0-1-0.4-1-1c0-0.1,0-0.1,0-0.2l1.6-9.3
		c0.1-0.7,0.9-1.2,1.5-1.2H442c0.6,0,1,0.4,1,1C443,307.7,443,307.7,443,307.8z"/>
	<path class="st1" d="M486.2,292.3l-1.2,6.6c-2.4,13.5-9.7,19.9-21,19.9c-9.5,0-14.5-4.5-14.5-13.9c0-1.8,0.2-3.8,0.5-6l1.2-6.6
		c2.4-13.5,9.7-19.9,21-19.9c9.5,0,14.5,4.5,14.5,13.9C486.8,288.1,486.6,290.1,486.2,292.3z M470.1,284.6c-1.8,0-3.2,0.9-4.4,7.7
		l-1.2,6.6c-0.4,2-0.5,3.5-0.5,4.6c0,2.7,0.9,3.1,2.2,3.1c1.8,0,3.2-0.9,4.4-7.7l1.2-6.6c0.4-2,0.5-3.5,0.5-4.6
		C472.3,285,471.4,284.6,470.1,284.6z"/>
	<path class="st1" d="M527.1,292.3l-1.2,6.6c-2.4,13.5-9.7,19.9-21,19.9c-9.5,0-14.5-4.5-14.5-13.9c0-1.8,0.2-3.8,0.5-6l1.2-6.6
		c2.4-13.5,9.7-19.9,21-19.9c9.5,0,14.5,4.5,14.5,13.9C527.6,288.1,527.5,290.1,527.1,292.3z M510.9,284.6c-1.8,0-3.2,0.9-4.4,7.7
		l-1.2,6.6c-0.4,2-0.5,3.5-0.5,4.6c0,2.7,0.9,3.1,2.2,3.1c1.8,0,3.2-0.9,4.4-7.7l1.2-6.6c0.4-2,0.5-3.5,0.5-4.6
		C513.1,285,512.2,284.6,510.9,284.6z"/>
	<path class="st1" d="M567.9,292.3l-1.2,6.6c-2.4,13.5-9.7,19.9-21,19.9c-9.5,0-14.5-4.5-14.5-13.9c0-1.8,0.2-3.8,0.5-6l1.2-6.6
		c2.4-13.5,9.7-19.9,21-19.9c9.5,0,14.5,4.5,14.5,13.9C568.5,288.1,568.3,290.1,567.9,292.3z M551.8,284.6c-1.8,0-3.2,0.9-4.4,7.7
		l-1.2,6.6c-0.4,2-0.5,3.5-0.5,4.6c0,2.7,0.9,3.1,2.2,3.1c1.8,0,3.2-0.9,4.4-7.7l1.2-6.6c0.4-2,0.5-3.5,0.5-4.6
		C554,285,553.1,284.6,551.8,284.6z"/>
</g>
<g>
	<path class="st2" d="M93,132.6l-4,22.7c-0.1,0.4-0.4,0.4-0.6,0.4h-6.2c-0.6,0-0.6-0.4-0.5-0.7l1.8-10.2c0-0.2,0-0.3-0.2-0.3
		c-0.1,0-0.2,0.1-0.4,0.3l-3.1,3.6c-0.4,0.5-0.6,0.6-1,0.6H77c-0.4,0-0.6-0.1-0.8-0.6l-1.8-3.6c-0.1-0.2-0.2-0.3-0.3-0.3
		c-0.1,0-0.2,0-0.2,0.3L72.1,155c-0.1,0.4-0.2,0.7-0.6,0.7h-6.3c-0.3,0-0.7-0.1-0.6-0.6l4-22.5c0.1-0.6,0.7-1.1,1.3-1.1h4.3
		c1,0,1.4,0.4,1.7,1.1l3.2,7.2c0.1,0.2,0.2,0.4,0.3,0.4c0.1,0,0.3-0.1,0.5-0.4l5.7-7.2c0.6-0.7,1.1-1.1,2.1-1.1H92
		C92.9,131.5,93.1,132,93,132.6z"/>
	<path class="st2" d="M92.7,155l3.1-17.8c0.1-0.4,0.3-0.7,0.9-0.7h5.8c0.6,0,0.7,0.3,0.6,0.7L100,155c-0.1,0.4-0.3,0.7-0.8,0.7h-5.8
		C92.9,155.7,92.6,155.4,92.7,155z M103.7,130.3c0.4,0,0.7,0.1,0.7,0.7l-0.6,3.3c-0.1,0.4-0.3,0.7-0.9,0.7h-6.2
		c-0.6,0-0.7-0.3-0.6-0.7l0.6-3.3c0.1-0.4,0.3-0.7,0.8-0.7H103.7z"/>
	<path class="st2" d="M122.2,145.3l-0.4,2c-0.1,0.4-0.4,0.7-0.8,0.7h-9.8c0,0.3-0.1,0.5-0.1,0.7c0,1,0.7,1.4,2.5,1.4
		c1.4,0,5-0.2,6.2-0.2c0.5,0,0.7,0.1,0.6,0.6l-0.6,3.4c-0.1,0.6-0.3,0.7-0.8,0.9c-1.8,0.7-5,1.2-7.7,1.2c-4.2,0-7.4-2.3-7.4-6.8
		c0-0.6,0.1-1.3,0.2-2l0.4-2c1.2-6.7,5.1-9.1,10.7-9.1c5.1,0,7.2,3,7.2,6.9C122.4,143.8,122.4,144.6,122.2,145.3z M114.2,141.6
		c-1.3,0-2,0.9-2.3,2.7h3.7c0.1-0.4,0.1-0.8,0.1-1.1C115.7,142.2,115.3,141.6,114.2,141.6z"/>
	<path class="st2" d="M152.2,143.8l-2,11.1c-0.1,0.4-0.3,0.7-0.8,0.7h-5.9c-0.4,0-0.7-0.3-0.6-0.7l2-11.1c0-0.2,0.1-0.4,0.1-0.5
		c0-0.7-0.4-0.9-1-0.9c-0.4,0-0.9,0.1-1.5,0.2c-0.1,0.5-0.1,0.7-0.2,1.2l-2,11.1c-0.1,0.4-0.2,0.7-0.8,0.7h-5.9
		c-0.5,0-0.7-0.4-0.6-0.7l2-11.1c0-0.2,0.1-0.4,0.1-0.6c0-0.7-0.4-0.8-1-0.8c-0.4,0-1,0.1-1.4,0.2l-2.2,12.3
		c-0.1,0.4-0.2,0.7-0.8,0.7h-5.9c-0.4,0-0.7-0.2-0.6-0.7l3.2-17.8c0.1-0.4,0.2-0.7,0.7-0.7h5.4c0.4,0,0.6,0.3,0.6,0.7l-0.2,1
		c2-1.6,3.8-2,5.6-2c1.6,0,3.1,0.5,3.7,2c1.7-1.4,3.6-2,5.4-2c3.4,0,4.8,2.1,4.8,5.3C152.5,142.2,152.4,143,152.2,143.8z"/>
	<path class="st2" d="M173.3,144.8l-0.5,2.5c-1.1,6-4.8,8.7-10.5,8.7c-3.4,0-6.1-0.5-7.6-0.8c-1-0.2-1.2-0.5-1.1-1.1l4.1-23.1
		c0.1-0.4,0.3-0.7,0.8-0.7h5.8c0.4,0,0.7,0.2,0.6,0.7l-0.9,5.3c0.5-0.1,1.2-0.2,1.8-0.2c5.2,0,7.6,2.9,7.6,6.8
		C173.4,143.6,173.4,144.2,173.3,144.8z M164.6,142.1c-0.6,0-1,0-1.6,0.1l-1.4,7.7c0.6,0.1,0.9,0.1,1.8,0.1c1.6,0,1.9-1.1,2.2-2.7
		l0.5-2.5c0.1-0.4,0.1-0.7,0.1-1C166.1,142.8,165.8,142.1,164.6,142.1z"/>
	<path class="st2" d="M188.6,136.2c0.6,0,0.8,0.2,0.7,0.7l-0.8,4.6c-0.1,0.4-0.2,0.7-0.7,0.7h-0.2c-2,0-3,0.2-3.8,0.6l-2.2,12.4
		c-0.1,0.4-0.2,0.7-0.8,0.7h-5.9c-0.4,0-0.7-0.1-0.6-0.7l3.2-17.8c0.1-0.4,0.2-0.7,0.7-0.7h5.1c0.4,0,0.7,0.2,0.6,0.7l-0.2,0.9
		c1.3-1.5,3.2-1.9,4.7-1.9h0.2V136.2z"/>
	<path class="st2" d="M207.5,145.3l-0.3,1.5c-1.2,6.9-5,9.2-10.6,9.2c-4.9,0-7.5-2.6-7.5-7c0-0.7,0.1-1.4,0.2-2.2l0.3-1.5
		c1.2-6.8,5-9.2,10.6-9.2c4.8,0,7.6,2.4,7.6,6.9C207.7,143.7,207.6,144.5,207.5,145.3z M199.1,142.1c-1.1,0-1.9,0.9-2.3,3.2
		l-0.3,1.5c-0.1,0.6-0.2,1.1-0.2,1.5c0,1.3,0.5,1.7,1.3,1.7c1.1,0,1.8-0.7,2.3-3.2l0.3-1.5c0.1-0.6,0.2-1.1,0.2-1.5
		C200.4,142.5,199.9,142.1,199.1,142.1z"/>
	<path class="st2" d="M225.8,137.7l-0.7,4.2c-0.1,0.5-0.1,0.8-0.8,0.7c-1-0.2-4.4-0.6-5.7-0.6c-0.3,0-0.7,0-0.7,0.4
		c0,0.3,0.1,0.4,0.7,0.7l2.6,1.4c2.9,1.5,3.3,3.2,3.3,5c0,4.7-3.9,6.5-9.5,6.5c-2.8,0-4.7-0.4-5.9-0.8c-0.4-0.2-0.6-0.4-0.5-0.7
		l0.7-4.1c0.1-0.5,0.3-0.8,1-0.7c2.1,0.3,4.4,0.6,5.5,0.6c0.5,0,1.3,0,1.3-0.7c0-0.2-0.1-0.4-0.6-0.7l-2.9-1.6
		c-1.9-1.1-2.9-2.6-2.9-4.6c0-5.2,4.2-6.5,8.7-6.5c2.4,0,4.7,0.5,6.1,0.9C225.7,137.2,225.9,137.3,225.8,137.7z"/>
	<path class="st2" d="M254.7,130.3c0.4,0,0.7,0.1,0.7,0.7l-4.1,23.1c-0.1,0.6-0.4,0.9-1.5,1.1c-1.6,0.3-4.5,0.8-7.8,0.8
		c-4.8,0-7.6-3-7.6-7c0-0.5,0.1-1.1,0.2-1.6l0.5-2.5c1.1-6.2,4.5-8.7,10.1-8.7c0.7,0,1.7,0.1,2.1,0.2l0.9-5.3
		c0.1-0.4,0.2-0.7,0.7-0.7h5.8L254.7,130.3L254.7,130.3z M244.3,142.1c-1.3,0-1.9,0.8-2.2,2.7l-0.5,2.5c-0.1,0.5-0.1,0.9-0.1,1.2
		c0,1,0.4,1.4,1.4,1.4c0.8,0,1.1,0,1.8-0.1l1.4-7.7C245.6,142.2,245.1,142.1,244.3,142.1z"/>
	<path class="st2" d="M273.2,145.3l-0.4,2c-0.1,0.4-0.4,0.7-0.8,0.7h-9.8c0,0.3-0.1,0.5-0.1,0.7c0,1,0.7,1.4,2.5,1.4
		c1.4,0,5-0.2,6.2-0.2c0.5,0,0.7,0.1,0.6,0.6l-0.6,3.4c-0.1,0.6-0.3,0.7-0.8,0.9c-1.8,0.7-5,1.2-7.7,1.2c-4.2,0-7.4-2.3-7.4-6.8
		c0-0.6,0.1-1.3,0.2-2l0.4-2c1.2-6.7,5.1-9.1,10.7-9.1c5.1,0,7.2,3,7.2,6.9C273.4,143.8,273.4,144.6,273.2,145.3z M265.2,141.6
		c-1.3,0-2,0.9-2.3,2.7h3.7c0.1-0.4,0.1-0.8,0.1-1.1C266.7,142.2,266.3,141.6,265.2,141.6z"/>
</g>
<g>
	<path class="st2" d="M75.9,161.4l-4.2,24c-0.1,0.4-0.2,0.7-0.8,0.7H65c-0.4,0-0.7-0.2-0.6-0.7l4.2-24c0.1-0.4,0.3-0.7,0.8-0.7h5.9
		C75.8,160.8,76,161,75.9,161.4z"/>
	<path class="st2" d="M95.6,168.5l-3,17c-0.1,0.4-0.2,0.7-0.7,0.7h-4.7c-0.6,0-0.7-0.3-0.7-0.7l0.1-0.9c-1.5,1.3-2.8,1.9-5.3,1.9
		c-3.5,0-5.7-2.2-5.7-6c0-1.1,0.1-1.6,0.2-2.2l0.5-3c1.2-7,5.3-8.7,10.5-8.7c2.4,0,5,0.4,7.5,0.8C95.2,167.5,95.7,167.7,95.6,168.5z
		 M86.2,172.6c-1.4,0-2.1,0.5-2.5,2.7l-0.6,3.2c-0.1,0.4-0.1,0.7-0.1,0.9c0,1,0.5,1.2,1.3,1.2c0.7,0,1.5-0.3,2-0.5l1.3-7.3
		C87.1,172.6,86.6,172.6,86.2,172.6z"/>
	<path class="st2" d="M103.4,185.4l3.1-17.8c0.1-0.4,0.3-0.7,0.9-0.7h5.8c0.6,0,0.7,0.3,0.6,0.7l-3.1,17.8c-0.1,0.4-0.3,0.7-0.8,0.7
		h-5.8C103.7,186.1,103.4,185.8,103.4,185.4z M114.5,160.8c0.4,0,0.7,0.1,0.7,0.7l-0.6,3.3c-0.1,0.4-0.3,0.7-0.9,0.7h-6.2
		c-0.6,0-0.7-0.3-0.6-0.7l0.6-3.3c0.1-0.4,0.3-0.7,0.8-0.7H114.5z"/>
	<path class="st2" d="M134,174.1l-2,11.3c-0.1,0.4-0.2,0.7-0.8,0.7h-5.9c-0.4,0-0.7-0.2-0.6-0.7l2-11.3c0-0.2,0-0.4,0-0.6
		c0-0.7-0.6-1-1.4-1c-0.6,0-1.2,0.2-1.9,0.5l-2.2,12.4c-0.1,0.4-0.1,0.7-0.8,0.7h-5.9c-0.4,0-0.7-0.2-0.6-0.7l3.2-17.8
		c0.1-0.4,0.4-0.7,0.7-0.7h5.4c0.5,0,0.6,0.3,0.6,0.7l-0.2,0.9c1.7-1.2,3.3-1.9,5.6-1.9c4,0,4.9,2.5,4.9,5.3
		C134.2,172.6,134.1,173.4,134,174.1z"/>
	<path class="st2" d="M156.3,160.8c0.4,0,0.7,0.1,0.7,0.7l-4.1,23.1c-0.1,0.6-0.4,0.9-1.5,1.1c-1.6,0.3-4.5,0.8-7.8,0.8
		c-4.8,0-7.6-3-7.6-7c0-0.5,0.1-1.1,0.2-1.6l0.5-2.5c1.1-6.2,4.5-8.7,10.1-8.7c0.7,0,1.7,0.1,2.1,0.2l0.9-5.3
		c0.1-0.4,0.2-0.7,0.7-0.7h5.8L156.3,160.8L156.3,160.8z M146,172.6c-1.3,0-1.9,0.8-2.2,2.7l-0.5,2.5c-0.1,0.5-0.1,0.9-0.1,1.2
		c0,1,0.4,1.4,1.4,1.4c0.8,0,1.1,0,1.8-0.1l1.4-7.7C147.2,172.6,146.7,172.6,146,172.6z"/>
	<path class="st2" d="M177.1,167.6l-3.2,17.8c-0.1,0.4-0.2,0.7-0.7,0.7h-5.4c-0.4,0-0.7-0.1-0.6-0.7l0.2-0.9
		c-1.5,1.1-2.8,1.9-5.4,1.9c-3.7,0-5.1-2.6-5.1-5.6c0-0.7,0.1-1.3,0.2-2l2-11.3c0.1-0.4,0.4-0.7,0.8-0.7h5.9c0.4,0,0.7,0.2,0.6,0.7
		l-1.9,10.7c-0.1,0.4-0.1,0.8-0.1,1c0,0.9,0.6,1.1,1.4,1.1c0.6,0,1.2-0.2,1.9-0.5l2.2-12.4c0.1-0.4,0.2-0.7,0.8-0.7h5.9
		C176.9,166.9,177.2,167,177.1,167.6z"/>
	<path class="st2" d="M194.5,168.2l-0.7,4.2c-0.1,0.5-0.1,0.8-0.8,0.7c-1-0.2-4.4-0.6-5.7-0.6c-0.3,0-0.7,0-0.7,0.4
		c0,0.3,0.1,0.4,0.7,0.7l2.6,1.4c2.9,1.5,3.3,3.2,3.3,5c0,4.7-3.9,6.5-9.5,6.5c-2.8,0-4.7-0.4-5.9-0.8c-0.4-0.2-0.6-0.4-0.5-0.7
		l0.7-4.1c0.1-0.5,0.3-0.8,1-0.7c2.1,0.3,4.4,0.6,5.5,0.6c0.5,0,1.3,0,1.3-0.7c0-0.2-0.1-0.4-0.6-0.7l-2.9-1.6
		c-1.9-1.1-2.9-2.6-2.9-4.6c0-5.2,4.2-6.5,8.7-6.5c2.4,0,4.7,0.5,6.1,0.9C194.4,167.6,194.5,167.7,194.5,168.2z"/>
	<path class="st2" d="M209.1,166.9c0.6,0,0.8,0.1,0.7,0.7l-0.7,3.9c-0.1,0.4-0.2,0.7-0.8,0.7H206l-1.4,8c0,0.2-0.1,0.4-0.1,0.5
		c0,0.3,0.1,0.5,0.6,0.5h1.6c0.5,0,0.7,0.1,0.6,0.7l-0.6,3.5c-0.1,0.4-0.2,0.6-0.8,0.7c-1.4,0.2-2.1,0.3-3.5,0.3
		c-2.3,0-5.1-0.9-5.1-4.7c0-0.5,0.1-1,0.2-1.6l1.4-7.8l-1.8-0.3c-0.4-0.1-0.7-0.2-0.6-0.7l0.6-3.6c0.1-0.4,0.3-0.7,0.8-0.7h1.9
		l0.5-2.7c0.1-0.4,0.2-0.6,0.8-0.7l5.8-1c0.7-0.1,0.9,0.2,0.8,0.7L207,167L209.1,166.9L209.1,166.9z"/>
	<path class="st2" d="M223.4,166.6c0.6,0,0.8,0.2,0.7,0.7l-0.8,4.6c-0.1,0.4-0.2,0.7-0.7,0.7h-0.2c-2,0-3,0.2-3.8,0.6l-2.2,12.4
		c-0.1,0.4-0.2,0.7-0.8,0.7h-5.9c-0.4,0-0.7-0.1-0.6-0.7l3.2-17.8c0.1-0.4,0.2-0.7,0.7-0.7h5.1c0.4,0,0.7,0.2,0.6,0.7l-0.2,0.9
		c1.3-1.5,3.2-1.9,4.7-1.9h0.2V166.6z"/>
	<path class="st2" d="M223.5,185.4l3.1-17.8c0.1-0.4,0.3-0.7,0.9-0.7h5.8c0.6,0,0.7,0.3,0.6,0.7l-3.1,17.8c-0.1,0.4-0.3,0.7-0.8,0.7
		h-5.8C223.7,186.1,223.4,185.8,223.5,185.4z M234.5,160.8c0.4,0,0.7,0.1,0.7,0.7l-0.6,3.3c-0.1,0.4-0.3,0.7-0.9,0.7h-6.2
		c-0.6,0-0.7-0.3-0.6-0.7l0.6-3.3c0.1-0.4,0.3-0.7,0.8-0.7H234.5z"/>
	<path class="st2" d="M254.7,168.5l-3,17c-0.1,0.4-0.2,0.7-0.7,0.7h-4.7c-0.6,0-0.7-0.3-0.7-0.7l0.1-0.9c-1.5,1.3-2.8,1.9-5.3,1.9
		c-3.5,0-5.7-2.2-5.7-6c0-1.1,0.1-1.6,0.2-2.2l0.5-3c1.2-7,5.3-8.7,10.5-8.7c2.4,0,5,0.4,7.5,0.8
		C254.4,167.5,254.8,167.7,254.7,168.5z M245.3,172.6c-1.4,0-2.1,0.5-2.5,2.7l-0.6,3.2c-0.1,0.4-0.1,0.7-0.1,0.9
		c0,1,0.5,1.2,1.3,1.2c0.7,0,1.5-0.3,2-0.5l1.3-7.3C246.2,172.6,245.7,172.6,245.3,172.6z"/>
</g>
<g>
	<path class="st2" d="M144.7,577.6l3,8.5c0,0.1,0,0.2,0,0.3c0,0.4-0.2,0.7-0.7,0.7h-6.8c-0.4,0-0.4-0.3-0.5-0.7l-2.5-7.7H136
		l-1.3,7.7c-0.1,0.4-0.2,0.7-0.8,0.7h-6.3c-0.4,0-0.7-0.2-0.6-0.7l3.6-20.7c0.4-2,1-2.5,2.8-2.8c1.1-0.2,4.9-0.4,7.2-0.4
		c5.9,0,9.4,2.1,9.4,6.8C149.9,572.5,148.2,576.3,144.7,577.6z M140.1,569h-2.4l-0.7,4.1h2.4c2.1,0,2.7-1.2,2.7-2.4
		C142.1,569.5,141.5,569,140.1,569z"/>
	<path class="st2" d="M168.7,576.7l-0.4,2c-0.1,0.4-0.4,0.7-0.8,0.7h-9.8c0,0.3-0.1,0.5-0.1,0.7c0,1,0.7,1.4,2.5,1.4
		c1.4,0,5-0.2,6.2-0.2c0.5,0,0.7,0.1,0.6,0.6l-0.6,3.4c-0.1,0.6-0.3,0.7-0.8,0.9c-1.8,0.7-5,1.2-7.7,1.2c-4.2,0-7.4-2.3-7.4-6.8
		c0-0.6,0.1-1.3,0.2-2l0.4-2c1.2-6.7,5.1-9.1,10.7-9.1c5.1,0,7.2,3,7.2,6.9C168.8,575.2,168.8,575.9,168.7,576.7z M160.6,573
		c-1.3,0-2,0.9-2.3,2.7h3.7c0.1-0.4,0.1-0.8,0.1-1.1C162.1,573.6,161.7,573,160.6,573z"/>
	<path class="st2" d="M185,568.1c0.4,0.1,0.6,0.2,0.5,0.6l-0.8,4.4c-0.1,0.4-0.4,0.7-0.8,0.7l0,0c-1,0-2.2-0.2-3.5-0.2
		s-1.9,0.8-2.2,2.8l-0.4,2.1c-0.1,0.5-0.1,0.9-0.1,1.3c0,1,0.4,1.5,1.4,1.5c1.3,0,2.5-0.1,3.5-0.2c0.6,0,0.7,0.3,0.6,0.7l-0.8,4.4
		c-0.1,0.4-0.4,0.5-0.8,0.6c-1.3,0.3-2.8,0.6-4.7,0.6c-4.5,0-6.6-2.9-6.6-6.7c0-0.7,0.1-1.4,0.2-2.1l0.4-2.1c1.1-6,4.2-8.9,9.5-8.9
		C182.4,567.5,184.1,567.9,185,568.1z"/>
	<path class="st2" d="M203.8,576.7l-0.3,1.5c-1.2,6.9-5,9.2-10.6,9.2c-4.9,0-7.5-2.6-7.5-7c0-0.7,0.1-1.4,0.2-2.2l0.3-1.5
		c1.2-6.8,5-9.2,10.6-9.2c4.8,0,7.6,2.4,7.6,6.9C204.1,575.1,204,575.9,203.8,576.7z M195.4,573.5c-1.1,0-1.9,0.9-2.3,3.2l-0.3,1.5
		c-0.1,0.6-0.2,1.1-0.2,1.5c0,1.3,0.5,1.7,1.3,1.7c1.1,0,1.8-0.7,2.3-3.2l0.3-1.5c0.1-0.6,0.2-1.1,0.2-1.5
		C196.8,573.9,196.3,573.5,195.4,573.5z"/>
	<path class="st2" d="M224.9,575.1l-2,11.3c-0.1,0.4-0.2,0.7-0.8,0.7h-5.9c-0.4,0-0.7-0.2-0.6-0.7l2-11.3c0-0.2,0-0.4,0-0.6
		c0-0.7-0.6-1-1.4-1c-0.6,0-1.2,0.2-1.9,0.5l-2.2,12.4c-0.1,0.4-0.1,0.7-0.8,0.7h-5.9c-0.4,0-0.7-0.2-0.6-0.7l3.2-17.8
		c0.1-0.4,0.4-0.7,0.7-0.7h5.4c0.5,0,0.6,0.3,0.6,0.7l-0.2,0.9c1.7-1.2,3.3-1.9,5.6-1.9c4,0,4.9,2.5,4.9,5.3
		C225.1,573.6,225,574.3,224.9,575.1z"/>
	<path class="st2" d="M245.2,576.7l-0.3,1.5c-1.2,6.9-5,9.2-10.6,9.2c-4.9,0-7.5-2.6-7.5-7c0-0.7,0.1-1.4,0.2-2.2l0.3-1.5
		c1.2-6.8,5-9.2,10.6-9.2c4.8,0,7.6,2.4,7.6,6.9C245.5,575.1,245.4,575.9,245.2,576.7z M236.8,573.5c-1.1,0-1.9,0.9-2.3,3.2
		l-0.3,1.5c-0.1,0.6-0.2,1.1-0.2,1.5c0,1.3,0.5,1.7,1.3,1.7c1.1,0,1.8-0.7,2.3-3.2l0.3-1.5c0.1-0.6,0.2-1.1,0.2-1.5
		C238.2,573.9,237.7,573.5,236.8,573.5z"/>
	<path class="st2" d="M261.6,568.1c0.4,0.1,0.6,0.2,0.5,0.6l-0.8,4.4c-0.1,0.4-0.4,0.7-0.8,0.7l0,0c-1,0-2.2-0.2-3.5-0.2
		c-1.3,0-1.9,0.8-2.2,2.8l-0.4,2.1c-0.1,0.5-0.1,0.9-0.1,1.3c0,1,0.4,1.5,1.4,1.5c1.3,0,2.5-0.1,3.5-0.2c0.6,0,0.7,0.3,0.6,0.7
		l-0.8,4.4c-0.1,0.4-0.4,0.5-0.8,0.6c-1.3,0.3-2.8,0.6-4.7,0.6c-4.5,0-6.6-2.9-6.6-6.7c0-0.7,0.1-1.4,0.2-2.1l0.4-2.1
		c1.1-6,4.2-8.9,9.5-8.9C259,567.5,260.7,567.9,261.6,568.1z"/>
	<path class="st2" d="M261.9,586.3l3.1-17.8c0.1-0.4,0.3-0.7,0.9-0.7h5.8c0.6,0,0.7,0.3,0.6,0.7l-3.1,17.8c-0.1,0.4-0.3,0.7-0.8,0.7
		h-5.8C262.1,587.1,261.8,586.7,261.9,586.3z M272.9,561.7c0.4,0,0.7,0.1,0.7,0.7l-0.6,3.3c-0.1,0.4-0.3,0.7-0.9,0.7h-6.2
		c-0.6,0-0.7-0.3-0.6-0.7l0.6-3.3c0.1-0.4,0.3-0.7,0.8-0.7H272.9z"/>
	<path class="st2" d="M293.5,561.7c0.4,0,0.7,0.1,0.7,0.7l-4.1,23.1c-0.1,0.6-0.4,0.9-1.5,1.1c-1.6,0.3-4.5,0.8-7.8,0.8
		c-4.8,0-7.6-3-7.6-7c0-0.5,0.1-1.1,0.2-1.6l0.5-2.5c1.1-6.2,4.5-8.7,10.1-8.7c0.7,0,1.7,0.1,2.1,0.2l0.9-5.3
		c0.1-0.4,0.2-0.7,0.7-0.7L293.5,561.7L293.5,561.7z M283.2,573.5c-1.3,0-1.9,0.8-2.2,2.7l-0.5,2.5c-0.1,0.5-0.1,0.9-0.1,1.2
		c0,1,0.4,1.4,1.4,1.4c0.8,0,1.1,0,1.8-0.1l1.4-7.7C284.4,573.6,283.9,573.5,283.2,573.5z"/>
	<path class="st2" d="M313.8,569.5l-3,17c-0.1,0.4-0.2,0.7-0.7,0.7h-4.7c-0.6,0-0.7-0.3-0.7-0.7l0.1-0.9c-1.5,1.3-2.8,1.9-5.3,1.9
		c-3.5,0-5.7-2.2-5.7-6c0-1.1,0.1-1.6,0.2-2.2l0.5-3c1.2-7,5.3-8.7,10.5-8.7c2.4,0,5,0.4,7.5,0.8
		C313.5,568.4,313.9,568.7,313.8,569.5z M304.4,573.5c-1.4,0-2.1,0.5-2.5,2.7l-0.6,3.2c-0.1,0.4-0.1,0.7-0.1,0.9
		c0,1,0.5,1.2,1.3,1.2c0.7,0,1.5-0.3,2-0.5l1.3-7.3C305.3,573.6,304.8,573.5,304.4,573.5z"/>
	<path class="st2" d="M340.5,576.7l-0.4,2c-0.1,0.4-0.4,0.7-0.8,0.7h-9.8c0,0.3-0.1,0.5-0.1,0.7c0,1,0.7,1.4,2.5,1.4
		c1.4,0,5-0.2,6.2-0.2c0.5,0,0.7,0.1,0.6,0.6l-0.6,3.4c-0.1,0.6-0.3,0.7-0.8,0.9c-1.8,0.7-5,1.2-7.7,1.2c-4.2,0-7.4-2.3-7.4-6.8
		c0-0.6,0.1-1.3,0.2-2l0.4-2c1.2-6.7,5.1-9.1,10.7-9.1c5.1,0,7.2,3,7.2,6.9C340.7,575.2,340.6,575.9,340.5,576.7z M332.4,573
		c-1.3,0-2,0.9-2.3,2.7h3.7c0.1-0.4,0.1-0.8,0.1-1.1C333.9,573.6,333.5,573,332.4,573z"/>
	<path class="st2" d="M361.5,575.1l-2,11.3c-0.1,0.4-0.2,0.7-0.8,0.7h-5.9c-0.4,0-0.7-0.2-0.6-0.7l2-11.3c0-0.2,0-0.4,0-0.6
		c0-0.7-0.6-1-1.4-1c-0.6,0-1.2,0.2-1.9,0.5l-2.2,12.4c-0.1,0.4-0.1,0.7-0.8,0.7H342c-0.4,0-0.7-0.2-0.6-0.7l3.2-17.8
		c0.1-0.4,0.4-0.7,0.7-0.7h5.4c0.5,0,0.6,0.3,0.6,0.7l-0.2,0.9c1.7-1.2,3.3-1.9,5.6-1.9c4,0,4.9,2.5,4.9,5.3
		C361.7,573.6,361.7,574.3,361.5,575.1z"/>
	<path class="st2" d="M377.1,567.9c0.6,0,0.8,0.1,0.7,0.7l-0.7,3.9c-0.1,0.4-0.2,0.7-0.8,0.7H374l-1.4,8c0,0.2-0.1,0.4-0.1,0.5
		c0,0.3,0.1,0.5,0.6,0.5h1.6c0.5,0,0.7,0.1,0.6,0.7l-0.6,3.5c-0.1,0.4-0.2,0.6-0.8,0.7c-1.4,0.2-2.1,0.3-3.5,0.3
		c-2.3,0-5.1-0.9-5.1-4.7c0-0.5,0.1-1,0.2-1.6l1.4-7.8l-1.8-0.3c-0.4-0.1-0.7-0.2-0.6-0.7l0.6-3.6c0.1-0.4,0.3-0.7,0.8-0.7h1.9
		l0.5-2.7c0.1-0.4,0.2-0.6,0.8-0.7l5.8-1c0.7-0.1,0.9,0.2,0.8,0.7L375,568L377.1,567.9L377.1,567.9z"/>
	<path class="st2" d="M391.4,567.5c0.6,0,0.8,0.2,0.7,0.7l-0.8,4.6c-0.1,0.4-0.2,0.7-0.7,0.7h-0.2c-2,0-3,0.2-3.8,0.6l-2.2,12.4
		c-0.1,0.4-0.2,0.7-0.8,0.7h-5.9c-0.4,0-0.7-0.1-0.6-0.7l3.2-17.8c0.1-0.4,0.2-0.7,0.7-0.7h5.1c0.4,0,0.7,0.2,0.6,0.7l-0.2,0.9
		c1.3-1.5,3.2-1.9,4.7-1.9h0.2L391.4,567.5L391.4,567.5z"/>
	<path class="st2" d="M410,576.7l-0.4,2c-0.1,0.4-0.4,0.7-0.8,0.7H399c0,0.3-0.1,0.5-0.1,0.7c0,1,0.7,1.4,2.5,1.4
		c1.4,0,5-0.2,6.2-0.2c0.5,0,0.7,0.1,0.6,0.6l-0.6,3.4c-0.1,0.6-0.3,0.7-0.8,0.9c-1.8,0.7-5,1.2-7.7,1.2c-4.2,0-7.4-2.3-7.4-6.8
		c0-0.6,0.1-1.3,0.2-2l0.4-2c1.2-6.7,5.1-9.1,10.7-9.1c5.1,0,7.2,3,7.2,6.9C410.2,575.2,410.1,575.9,410,576.7z M401.9,573
		c-1.3,0-2,0.9-2.3,2.7h3.7c0.1-0.4,0.1-0.8,0.1-1.1C403.4,573.6,403,573,401.9,573z"/>
	<path class="st2" d="M430.1,562.4l-4.2,24c-0.1,0.4-0.2,0.7-0.8,0.7h-5.9c-0.4,0-0.7-0.2-0.6-0.7l4.2-24c0.1-0.4,0.3-0.7,0.8-0.7
		h5.9C429.9,561.7,430.2,561.9,430.1,562.4z"/>
	<path class="st2" d="M449.7,569.5l-3,17c-0.1,0.4-0.2,0.7-0.7,0.7h-4.7c-0.6,0-0.7-0.3-0.7-0.7l0.1-0.9c-1.5,1.3-2.8,1.9-5.3,1.9
		c-3.5,0-5.7-2.2-5.7-6c0-1.1,0.1-1.6,0.2-2.2l0.5-3c1.2-7,5.3-8.7,10.5-8.7c2.4,0,5,0.4,7.5,0.8
		C449.4,568.4,449.8,568.7,449.7,569.5z M440.3,573.5c-1.4,0-2.1,0.5-2.5,2.7l-0.6,3.2c-0.1,0.4-0.1,0.7-0.1,0.9
		c0,1,0.5,1.2,1.3,1.2c0.7,0,1.5-0.3,2-0.5l1.3-7.3C441.2,573.6,440.7,573.5,440.3,573.5z"/>
	<path class="st2" d="M467.2,569.1l-0.7,4.2c-0.1,0.5-0.1,0.8-0.8,0.7c-1-0.2-4.4-0.6-5.7-0.6c-0.3,0-0.7,0-0.7,0.4
		c0,0.3,0.1,0.4,0.7,0.7l2.6,1.4c2.9,1.5,3.3,3.2,3.3,5c0,4.7-3.9,6.5-9.5,6.5c-2.8,0-4.7-0.4-5.9-0.8c-0.4-0.2-0.6-0.4-0.5-0.7
		l0.7-4.1c0.1-0.5,0.3-0.8,1-0.7c2.1,0.3,4.4,0.6,5.5,0.6c0.5,0,1.3,0,1.3-0.7c0-0.2-0.1-0.4-0.6-0.7l-2.9-1.6
		c-1.9-1.1-2.9-2.6-2.9-4.6c0-5.2,4.2-6.5,8.7-6.5c2.4,0,4.7,0.5,6.1,0.9C467.1,568.5,467.3,568.6,467.2,569.1z"/>
</g>
<path class="st1" d="M115.6,609.7c-1.5,8.7-7.5,13.5-17.2,18.7c-6.5,3.5-11.7,6.2-13.7,9.7h23.2c0.7,0,1.5,0.5,1.5,1.5v0.2l-2.2,13
	c-0.2,1-1.2,1.7-2,1.7H65.6c-0.7,0-1.5-0.5-1.5-1.5l0,0l1.5-9c2.2-12.7,10.5-19.2,19.2-24.5c10-6,11-6,11.5-8.5c0-0.2,0-0.5,0-0.7
	c0-1.2-1-1.7-6.5-1.7c-5.2,0-10.7,0.7-15.7,0.7l0,0c-0.7,0-1.2-0.5-1.2-1.2v-0.2l0,0l1.7-9.2c0.2-1,1-1.2,1.7-1.7
	c5.5-2,12.5-3.5,20-3.5c14.5,0,19.7,5.7,19.7,13.5C115.8,607.5,115.8,608.5,115.6,609.7z"/>
<path class="st1" d="M169.1,619.5l-1.5,8.7c-3.2,18-13,26.5-28,26.5c-12.5,0-19.2-6-19.2-18.5c0-2.5,0.2-5.2,0.7-8l1.5-8.7
	c3.2-18,13-26.5,28-26.5c12.5,0,19.2,6,19.2,18.5C169.8,614,169.6,616.7,169.1,619.5z M147.6,609.2c-2.5,0-4.2,1.2-5.7,10.2
	l-1.5,8.7c-0.5,2.5-0.7,4.7-0.7,6c0,3.5,1.2,4.2,3,4.2c2.5,0,4.2-1.2,5.7-10.2l1.5-8.7c0.5-2.5,0.7-4.7,0.7-6
	C150.6,610,149.3,609.2,147.6,609.2z"/>
<path class="st2" d="M193.1,598.5c0.4,0.1,0.6,0.2,0.5,0.6l-0.8,4.4c-0.1,0.4-0.4,0.7-0.8,0.7l0,0c-1,0-2.2-0.2-3.5-0.2
	s-1.9,0.8-2.2,2.8l-0.4,2.1c-0.1,0.5-0.1,0.9-0.1,1.3c0,1,0.4,1.5,1.4,1.5c1.3,0,2.5-0.1,3.5-0.2c0.6,0,0.7,0.3,0.6,0.7l-0.8,4.4
	c-0.1,0.4-0.4,0.5-0.8,0.6c-1.3,0.3-2.8,0.6-4.7,0.6c-4.5,0-6.6-2.9-6.6-6.7c0-0.7,0.1-1.4,0.2-2.1l0.4-2.1c1.1-6,4.2-8.9,9.5-8.9
	C190.5,598,192.2,598.3,193.1,598.5z"/>
<path class="st2" d="M211.8,607.1l-0.4,2c-0.1,0.4-0.4,0.7-0.8,0.7h-9.8c0,0.3-0.1,0.5-0.1,0.7c0,1,0.7,1.4,2.5,1.4
	c1.4,0,5-0.2,6.2-0.2c0.5,0,0.7,0.1,0.6,0.6l-0.6,3.4c-0.1,0.6-0.3,0.7-0.8,0.9c-1.8,0.7-5,1.2-7.7,1.2c-4.2,0-7.4-2.3-7.4-6.8
	c0-0.6,0.1-1.3,0.2-2l0.4-2c1.2-6.7,5.1-9.1,10.7-9.1c5.1,0,7.2,3,7.2,6.9C211.9,605.6,211.9,606.4,211.8,607.1z M203.7,603.4
	c-1.3,0-2,0.9-2.3,2.7h3.7c0.1-0.4,0.1-0.8,0.1-1.1C205.2,604,204.8,603.4,203.7,603.4z"/>
<path class="st2" d="M227.1,598c0.6,0,0.8,0.2,0.7,0.7l-0.8,4.6c-0.1,0.4-0.2,0.7-0.7,0.7H226c-2,0-3,0.2-3.8,0.6L220,617
	c-0.1,0.4-0.2,0.7-0.8,0.7h-5.9c-0.4,0-0.7-0.1-0.6-0.7l3.2-17.8c0.1-0.4,0.2-0.7,0.7-0.7h5.1c0.4,0,0.7,0.2,0.6,0.7l-0.2,0.9
	c1.3-1.5,3.2-1.9,4.7-1.9h0.3V598z"/>
<path class="st2" d="M241.4,598.3c0.6,0,0.8,0.1,0.7,0.7l-0.7,3.9c-0.1,0.4-0.2,0.7-0.8,0.7h-2.3l-1.4,8c0,0.2-0.1,0.4-0.1,0.5
	c0,0.3,0.1,0.5,0.6,0.5h1.6c0.5,0,0.7,0.1,0.6,0.7l-0.6,3.5c-0.1,0.4-0.2,0.6-0.8,0.7c-1.4,0.2-2.1,0.3-3.5,0.3
	c-2.3,0-5.1-0.9-5.1-4.7c0-0.5,0.1-1,0.2-1.6l1.4-7.8l-1.8-0.3c-0.4-0.1-0.7-0.2-0.6-0.7l0.6-3.6c0.1-0.4,0.3-0.7,0.8-0.7h1.9
	l0.5-2.7c0.1-0.4,0.2-0.6,0.8-0.7l5.8-1c0.7-0.1,0.9,0.2,0.8,0.7l-0.7,3.7h2.1V598.3z"/>
<path class="st2" d="M241.5,616.8l3.1-17.8c0.1-0.4,0.3-0.7,0.9-0.7h5.8c0.6,0,0.7,0.3,0.6,0.7l-3.1,17.8c-0.1,0.4-0.3,0.7-0.8,0.7
	h-5.8C241.8,617.5,241.5,617.2,241.5,616.8z M252.6,592.1c0.4,0,0.7,0.1,0.7,0.7l-0.6,3.3c-0.1,0.4-0.3,0.7-0.9,0.7h-6.2
	c-0.6,0-0.7-0.3-0.6-0.7l0.6-3.3c0.1-0.4,0.3-0.7,0.8-0.7H252.6z"/>
<path class="st2" d="M266.1,616.8l2.3-13.2h-5.2l-2.4,13.6c-0.9,5.4-3.3,6.4-7.3,6.4c-0.9,0-2.1-0.2-3.1-0.4
	c-0.5-0.1-0.6-0.3-0.6-0.7l0.6-3.5c0.1-0.4,0.2-0.7,0.8-0.7h0.9c0.8,0,1.1,0,1.3-1.1l2.4-13.6l-2.1-0.3c-0.4,0-0.7-0.2-0.6-0.7
	l0.6-3.6c0.1-0.4,0.3-0.7,0.8-0.7h2.1l0.1-0.4c0.8-5.4,3.3-6.3,7.4-6.3c0.9,0,2.3,0.2,3.3,0.4c0.6,0.1,0.6,0.3,0.6,0.7l-0.6,3.5
	c-0.1,0.4-0.2,0.7-0.8,0.7h-1.1c-0.8,0-1.1,0-1.3,1.1l-0.1,0.4H276c0.6,0,0.7,0.3,0.6,0.7l-3.1,17.8c-0.1,0.4-0.3,0.7-0.8,0.7h-5.8
	C266.4,617.5,266.1,617.2,266.1,616.8z M277.2,592.1c0.4,0,0.7,0.1,0.7,0.7l-0.6,3.3c-0.1,0.4-0.3,0.7-0.9,0.7h-6.2
	c-0.6,0-0.7-0.3-0.6-0.7l0.6-3.3c0.1-0.4,0.3-0.7,0.8-0.7H277.2z"/>
<path class="st2" d="M292,598.5c0.4,0.1,0.6,0.2,0.5,0.6l-0.8,4.4c-0.1,0.4-0.4,0.7-0.8,0.7l0,0c-1,0-2.2-0.2-3.5-0.2
	s-1.9,0.8-2.2,2.8l-0.4,2.1c-0.1,0.5-0.1,0.9-0.1,1.3c0,1,0.4,1.5,1.4,1.5c1.3,0,2.5-0.1,3.5-0.2c0.6,0,0.7,0.3,0.6,0.7l-0.8,4.4
	c-0.1,0.4-0.4,0.5-0.8,0.6c-1.3,0.3-2.8,0.6-4.7,0.6c-4.5,0-6.6-2.9-6.6-6.7c0-0.7,0.1-1.4,0.2-2.1l0.4-2.1c1.1-6,4.2-8.9,9.5-8.9
	C289.4,598,291.1,598.3,292,598.5z"/>
<path class="st2" d="M312.8,599.9l-3,17c-0.1,0.4-0.2,0.7-0.7,0.7h-4.7c-0.6,0-0.7-0.3-0.7-0.7l0.1-0.9c-1.5,1.3-2.8,1.9-5.3,1.9
	c-3.5,0-5.7-2.2-5.7-6c0-1.1,0.1-1.6,0.2-2.2l0.5-3c1.2-7,5.3-8.7,10.5-8.7c2.4,0,5,0.4,7.5,0.8C312.5,598.9,313,599.1,312.8,599.9z
	 M303.4,604c-1.4,0-2.1,0.5-2.5,2.7l-0.6,3.2c-0.1,0.4-0.1,0.7-0.1,0.9c0,1,0.5,1.2,1.3,1.2c0.7,0,1.5-0.3,2-0.5l1.3-7.3
	C304.3,604,303.8,604,303.4,604z"/>
<path class="st2" d="M328.4,598.5c0.4,0.1,0.6,0.2,0.5,0.6l-0.8,4.4c-0.1,0.4-0.4,0.7-0.8,0.7l0,0c-1,0-2.2-0.2-3.5-0.2
	s-1.9,0.8-2.2,2.8l-0.4,2.1c-0.1,0.5-0.1,0.9-0.1,1.3c0,1,0.4,1.5,1.4,1.5c1.3,0,2.5-0.1,3.5-0.2c0.6,0,0.7,0.3,0.6,0.7l-0.8,4.4
	c-0.1,0.4-0.4,0.5-0.8,0.6c-1.3,0.3-2.8,0.6-4.7,0.6c-4.5,0-6.6-2.9-6.6-6.7c0-0.7,0.1-1.4,0.2-2.1l0.4-2.1c1.1-6,4.2-8.9,9.5-8.9
	C325.8,598,327.5,598.3,328.4,598.5z"/>
<path class="st2" d="M328.7,616.8l3.1-17.8c0.1-0.4,0.3-0.7,0.9-0.7h5.8c0.6,0,0.7,0.3,0.6,0.7l-3.1,17.8c-0.1,0.4-0.3,0.7-0.8,0.7
	h-5.8C328.9,617.5,328.6,617.2,328.7,616.8z M339.7,592.1c0.4,0,0.7,0.1,0.7,0.7l-0.6,3.3c-0.1,0.4-0.3,0.7-0.9,0.7h-6.2
	c-0.6,0-0.7-0.3-0.6-0.7l0.6-3.3c0.1-0.4,0.3-0.7,0.8-0.7H339.7z"/>
<path class="st2" d="M358.4,607.1l-0.3,1.5c-1.2,6.9-5,9.2-10.6,9.2c-4.9,0-7.5-2.6-7.5-7c0-0.7,0.1-1.4,0.2-2.2l0.3-1.5
	c1.2-6.8,5-9.2,10.6-9.2c4.8,0,7.6,2.4,7.6,6.9C358.6,605.6,358.5,606.3,358.4,607.1z M350,604c-1.1,0-1.9,0.9-2.3,3.2l-0.3,1.5
	c-0.1,0.6-0.2,1.1-0.2,1.5c0,1.3,0.5,1.7,1.3,1.7c1.1,0,1.8-0.7,2.3-3.2l0.3-1.5c0.1-0.6,0.2-1.1,0.2-1.5
	C351.3,604.3,350.8,604,350,604z"/>
<path class="st2" d="M379.4,605.5l-2,11.3c-0.1,0.4-0.2,0.7-0.8,0.7h-5.9c-0.4,0-0.7-0.2-0.6-0.7l2-11.3c0-0.2,0-0.4,0-0.6
	c0-0.7-0.6-1-1.4-1c-0.6,0-1.2,0.2-1.9,0.5l-2.2,12.4c-0.1,0.4-0.1,0.7-0.8,0.7h-5.9c-0.4,0-0.7-0.2-0.6-0.7l3.2-17.8
	c0.1-0.4,0.4-0.7,0.7-0.7h5.4c0.5,0,0.6,0.3,0.6,0.7l-0.2,0.9c1.7-1.2,3.3-1.9,5.6-1.9c4,0,4.9,2.5,4.9,5.3
	C379.7,604,379.6,604.8,379.4,605.5z"/>
<path class="st2" d="M399.6,607.1l-0.4,2c-0.1,0.4-0.4,0.7-0.8,0.7h-9.8c0,0.3-0.1,0.5-0.1,0.7c0,1,0.7,1.4,2.5,1.4
	c1.4,0,5-0.2,6.2-0.2c0.5,0,0.7,0.1,0.6,0.6l-0.6,3.4c-0.1,0.6-0.3,0.7-0.8,0.9c-1.8,0.7-5,1.2-7.7,1.2c-4.2,0-7.4-2.3-7.4-6.8
	c0-0.6,0.1-1.3,0.2-2l0.4-2c1.2-6.7,5.1-9.1,10.7-9.1c5.1,0,7.2,3,7.2,6.9C399.8,605.6,399.7,606.4,399.6,607.1z M391.5,603.4
	c-1.3,0-2,0.9-2.3,2.7h3.7c0.1-0.4,0.1-0.8,0.1-1.1C393.1,604,392.6,603.4,391.5,603.4z"/>
<path class="st2" d="M417.7,599.5l-0.7,4.2c-0.1,0.5-0.1,0.8-0.8,0.7c-1-0.2-4.4-0.6-5.7-0.6c-0.3,0-0.7,0-0.7,0.4
	c0,0.3,0.1,0.4,0.7,0.7l2.6,1.4c2.9,1.5,3.3,3.2,3.3,5c0,4.7-3.9,6.5-9.5,6.5c-2.8,0-4.7-0.4-5.9-0.8c-0.4-0.2-0.6-0.4-0.5-0.7
	l0.7-4.1c0.1-0.5,0.3-0.8,1-0.7c2.1,0.3,4.4,0.6,5.5,0.6c0.5,0,1.3,0,1.3-0.7c0-0.2-0.1-0.4-0.6-0.7l-2.9-1.6
	c-1.9-1.1-2.9-2.6-2.9-4.6c0-5.2,4.2-6.5,8.7-6.5c2.4,0,4.7,0.5,6.1,0.9C417.6,599,417.7,599.1,417.7,599.5z"/>
<path class="st2" d="M454.4,605.6l-2,11.1c-0.1,0.4-0.3,0.7-0.8,0.7h-5.9c-0.4,0-0.7-0.3-0.6-0.7l2-11.1c0-0.2,0.1-0.4,0.1-0.5
	c0-0.7-0.4-0.9-1-0.9c-0.4,0-0.9,0.1-1.5,0.2c-0.1,0.5-0.1,0.7-0.2,1.2l-2,11.1c-0.1,0.4-0.2,0.7-0.8,0.7h-5.9
	c-0.5,0-0.7-0.4-0.6-0.7l2-11.1c0-0.2,0.1-0.4,0.1-0.6c0-0.7-0.4-0.8-1-0.8c-0.4,0-1,0.1-1.4,0.2l-2.2,12.3
	c-0.1,0.4-0.2,0.7-0.8,0.7H426c-0.4,0-0.7-0.2-0.6-0.7l3.2-17.8c0.1-0.4,0.2-0.7,0.7-0.7h5.4c0.4,0,0.6,0.3,0.6,0.7l-0.2,1
	c2-1.6,3.8-2,5.6-2c1.6,0,3.1,0.5,3.7,2c1.7-1.4,3.6-2,5.4-2c3.4,0,4.8,2.1,4.8,5.3C454.7,604,454.6,604.8,454.4,605.6z"/>
<path class="st2" d="M476.3,599.9l-3,17c-0.1,0.4-0.3,0.7-0.7,0.7h-4.7c-0.3,0-0.7-0.2-0.7-0.6v-0.1l0.1-0.9
	c-1.5,1.3-3.3,1.9-4.9,1.9c-3.3,0-6.2-2.2-6.2-6.5c0-0.5,0.1-1.1,0.2-1.7l0.5-3c1.2-7,5.3-8.7,10.5-8.7c2.4,0,5,0.4,7.5,0.8
	c0.7,0.1,1.1,0.3,1.1,0.8C476.4,599.7,476.4,599.8,476.3,599.9z M467,604c-1.4,0-2.1,0.5-2.5,2.7l-0.7,3.6c0,0.2,0,0.3,0,0.5
	c0,1,0.4,1.2,1.3,1.2c0.7,0,1.5-0.3,2-0.5l1.3-7.3C467.8,604,467.3,604,467,604z M476.1,592.6l-4.9,3.9c-0.3,0.2-0.4,0.3-0.9,0.3h-5
	c-0.2,0-0.3-0.1-0.3-0.2c0-0.1,0.1-0.2,0.2-0.4l3.5-3.6c0.4-0.4,0.5-0.5,1-0.5h6.2c0.2,0,0.4,0.1,0.4,0.2
	C476.3,592.4,476.2,592.5,476.1,592.6z"/>
<path class="st2" d="M493.9,599.5l-0.7,4.2c-0.1,0.5-0.1,0.8-0.8,0.7c-1-0.2-4.4-0.6-5.7-0.6c-0.3,0-0.7,0-0.7,0.4
	c0,0.3,0.1,0.4,0.7,0.7l2.6,1.4c2.9,1.5,3.3,3.2,3.3,5c0,4.7-3.9,6.5-9.5,6.5c-2.8,0-4.7-0.4-5.9-0.8c-0.4-0.2-0.6-0.4-0.5-0.7
	l0.7-4.1c0.1-0.5,0.3-0.8,1-0.7c2.1,0.3,4.4,0.6,5.5,0.6c0.5,0,1.3,0,1.3-0.7c0-0.2-0.1-0.4-0.6-0.7l-2.9-1.6
	c-1.9-1.1-2.9-2.6-2.9-4.6c0-5.2,4.2-6.5,8.7-6.5c2.4,0,4.7,0.5,6.1,0.9C493.8,599,493.9,599.1,493.9,599.5z"/>
<path class="st2" d="M191.2,637.1l-0.5,2.5c-1,5.8-4.4,8.7-10.5,8.7c-0.4,0-1.3-0.1-1.8-0.2l-0.9,5.3c-0.1,0.4-0.4,0.7-0.7,0.7H171
	c-0.4,0-0.7-0.1-0.7-0.7l4.1-23.1c0.1-0.6,0.4-0.9,1.5-1.1c1.6-0.3,4.5-0.8,7.8-0.8c4.8,0,7.6,2.8,7.6,6.9
	C191.3,635.9,191.3,636.4,191.2,637.1z M182.7,634.4c-0.8,0-1.1,0-1.8,0.1l-1.4,7.7c0.5,0,1,0.1,1.8,0.1c1.3,0,1.9-0.8,2.2-2.7
	l0.5-2.5c0.1-0.5,0.1-0.9,0.1-1.2C184.1,634.8,183.7,634.4,182.7,634.4z"/>
<path class="st2" d="M211.2,637.6l-0.3,1.5c-1.2,6.9-5,9.2-10.6,9.2c-4.9,0-7.5-2.6-7.5-7c0-0.7,0.1-1.4,0.2-2.2l0.3-1.5
	c1.2-6.8,5-9.2,10.6-9.2c4.8,0,7.6,2.4,7.6,6.9C211.5,636,211.4,636.8,211.2,637.6z M202.8,634.4c-1.1,0-1.9,0.9-2.3,3.2l-0.3,1.5
	c-0.1,0.6-0.2,1.1-0.2,1.5c0,1.3,0.5,1.7,1.3,1.7c1.1,0,1.8-0.7,2.3-3.2l0.3-1.5c0.1-0.6,0.2-1.1,0.2-1.5
	C204.2,634.8,203.7,634.4,202.8,634.4z"/>
<path class="st2" d="M232,637.1l-0.5,2.5c-1,5.8-4.4,8.7-10.5,8.7c-0.4,0-1.3-0.1-1.8-0.2l-0.9,5.3c-0.1,0.4-0.4,0.7-0.7,0.7h-5.8
	c-0.4,0-0.7-0.1-0.7-0.7l4.1-23.1c0.1-0.6,0.4-0.9,1.5-1.1c1.6-0.3,4.5-0.8,7.8-0.8c4.8,0,7.6,2.8,7.6,6.9
	C232.2,635.9,232.1,636.4,232,637.1z M223.5,634.4c-0.8,0-1.1,0-1.8,0.1l-1.4,7.7c0.5,0,1,0.1,1.8,0.1c1.3,0,1.9-0.8,2.2-2.7
	l0.5-2.5c0.1-0.5,0.1-0.9,0.1-1.2C224.9,634.8,224.6,634.4,223.5,634.4z"/>
<path class="st2" d="M254.1,629.4l-3.2,17.8c-0.1,0.4-0.2,0.7-0.7,0.7h-5.4c-0.4,0-0.7-0.1-0.6-0.7l0.2-0.9
	c-1.5,1.1-2.8,1.9-5.4,1.9c-3.7,0-5.1-2.6-5.1-5.6c0-0.7,0.1-1.3,0.2-2l2-11.3c0.1-0.4,0.4-0.7,0.8-0.7h5.9c0.4,0,0.7,0.2,0.6,0.7
	l-1.9,10.7c-0.1,0.4-0.1,0.8-0.1,1c0,0.9,0.6,1.1,1.4,1.1c0.6,0,1.2-0.2,1.9-0.5l2.2-12.4c0.1-0.4,0.2-0.7,0.8-0.7h5.9
	C253.9,628.7,254.2,628.9,254.1,629.4z"/>
<path class="st2" d="M265.8,623.3l-4.2,24c-0.1,0.4-0.2,0.7-0.8,0.7h-5.9c-0.4,0-0.7-0.2-0.6-0.7l4.2-24c0.1-0.4,0.3-0.7,0.8-0.7
	h5.9C265.6,622.6,265.9,622.8,265.8,623.3z"/>
<path class="st2" d="M285.4,630.3l-3,17c-0.1,0.4-0.2,0.7-0.7,0.7H277c-0.6,0-0.7-0.3-0.7-0.7l0.1-0.9c-1.5,1.3-2.8,1.9-5.3,1.9
	c-3.5,0-5.7-2.2-5.7-6c0-1.1,0.1-1.6,0.2-2.2l0.5-3c1.2-7,5.3-8.7,10.5-8.7c2.4,0,5,0.4,7.5,0.8
	C285.1,629.3,285.5,629.5,285.4,630.3z M276,634.4c-1.4,0-2.1,0.5-2.5,2.7l-0.6,3.2c-0.1,0.4-0.1,0.7-0.1,0.9c0,1,0.5,1.2,1.3,1.2
	c0.7,0,1.5-0.3,2-0.5l1.3-7.3C276.9,634.4,276.4,634.4,276,634.4z"/>
<path class="st2" d="M300,628.4c0.6,0,0.8,0.2,0.7,0.7l-0.8,4.6c-0.1,0.4-0.2,0.7-0.7,0.7H299c-2,0-3,0.2-3.8,0.6l-2.2,12.4
	c-0.1,0.4-0.2,0.7-0.8,0.7h-5.9c-0.4,0-0.7-0.1-0.6-0.7l3.2-17.8c0.1-0.4,0.2-0.7,0.7-0.7h5.1c0.4,0,0.7,0.2,0.6,0.7l-0.2,0.9
	c1.3-1.5,3.2-1.9,4.7-1.9h0.2L300,628.4L300,628.4z"/>
<path class="st2" d="M318.6,637.6l-0.4,2c-0.1,0.4-0.4,0.7-0.8,0.7h-9.8c0,0.3-0.1,0.5-0.1,0.7c0,1,0.7,1.4,2.5,1.4
	c1.4,0,5-0.2,6.2-0.2c0.5,0,0.7,0.1,0.6,0.6l-0.6,3.4c-0.1,0.6-0.3,0.7-0.8,0.9c-1.8,0.7-5,1.2-7.7,1.2c-4.2,0-7.4-2.3-7.4-6.8
	c0-0.6,0.1-1.3,0.2-2l0.4-2c1.2-6.7,5.1-9.1,10.7-9.1c5.1,0,7.2,3,7.2,6.9C318.8,636.1,318.7,636.8,318.6,637.6z M310.5,633.9
	c-1.3,0-2,0.9-2.3,2.7h3.7c0.1-0.4,0.1-0.8,0.1-1.1C312,634.5,311.6,633.9,310.5,633.9z"/>
<path class="st2" d="M336.7,630l-0.7,4.2c-0.1,0.5-0.1,0.8-0.8,0.7c-1-0.2-4.4-0.6-5.7-0.6c-0.3,0-0.7,0-0.7,0.4
	c0,0.3,0.1,0.4,0.7,0.7l2.6,1.4c2.9,1.5,3.3,3.2,3.3,5c0,4.7-3.9,6.5-9.5,6.5c-2.8,0-4.7-0.4-5.9-0.8c-0.4-0.2-0.6-0.4-0.5-0.7
	l0.7-4.1c0.1-0.5,0.3-0.8,1-0.7c2.1,0.3,4.4,0.6,5.5,0.6c0.5,0,1.3,0,1.3-0.7c0-0.2-0.1-0.4-0.6-0.7l-2.9-1.6
	c-1.9-1.1-2.9-2.6-2.9-4.6c0-5.2,4.2-6.5,8.7-6.5c2.4,0,4.7,0.5,6.1,0.9C336.6,629.4,336.7,629.5,336.7,630z"/>
<path class="st2" d="M363.4,637.6l-0.4,2c-0.1,0.4-0.4,0.7-0.8,0.7h-9.8c0,0.3-0.1,0.5-0.1,0.7c0,1,0.7,1.4,2.5,1.4
	c1.4,0,5-0.2,6.2-0.2c0.5,0,0.7,0.1,0.6,0.6l-0.6,3.4c-0.1,0.6-0.3,0.7-0.8,0.9c-1.8,0.7-5,1.2-7.7,1.2c-4.2,0-7.4-2.3-7.4-6.8
	c0-0.6,0.1-1.3,0.2-2l0.4-2c1.2-6.7,5.1-9.1,10.7-9.1c5.1,0,7.2,3,7.2,6.9C363.6,636.1,363.5,636.8,363.4,637.6z M355.3,633.9
	c-1.3,0-2,0.9-2.3,2.7h3.7c0.1-0.4,0.1-0.8,0.1-1.1C356.8,634.5,356.4,633.9,355.3,633.9z"/>
<path class="st2" d="M384.4,636l-2,11.3c-0.1,0.4-0.2,0.7-0.8,0.7h-5.9c-0.4,0-0.7-0.2-0.6-0.7l2-11.3c0-0.2,0-0.4,0-0.6
	c0-0.7-0.6-1-1.4-1c-0.6,0-1.2,0.2-1.9,0.5l-2.2,12.4c-0.1,0.4-0.1,0.7-0.8,0.7h-5.9c-0.4,0-0.7-0.2-0.6-0.7l3.2-17.8
	c0.1-0.4,0.4-0.7,0.7-0.7h5.4c0.5,0,0.6,0.3,0.6,0.7l-0.2,0.9c1.7-1.2,3.3-1.9,5.6-1.9c4,0,4.9,2.5,4.9,5.3
	C384.6,634.4,384.5,635.2,384.4,636z"/>
<path class="st2" d="M413.1,624.4l-0.8,4.9c-0.1,0.4-0.2,0.7-0.8,0.7H405c-0.8,0-1.1,0.2-1.2,1l-0.3,1.8h7.6c0.4,0,0.6,0.2,0.5,0.7
	l-0.9,4.5c-0.1,0.4-0.4,0.7-0.8,0.7h-7.6l-0.3,1.6c-0.1,0.5-0.1,0.7-0.1,0.8c0,0.5,0.3,0.6,0.9,0.6h6.5c0.4,0,0.6,0.2,0.5,0.7
	l-0.8,4.9c-0.1,0.4-0.2,0.6-0.8,0.7c-1.4,0.2-3.8,0.4-6.6,0.4c-4,0-7.6-1.4-7.6-5.8c0-0.6,0-1.1,0.2-1.8l1.7-9.6
	c1.3-7.3,6-7.6,10.1-7.6c2.8,0,5.1,0.2,6.5,0.4C413,623.8,413.2,624,413.1,624.4z"/>
<path class="st2" d="M431.9,624.4l-0.8,4.9c-0.1,0.4-0.2,0.7-0.8,0.7h-6.5c-0.8,0-1.1,0.2-1.2,1l-0.3,1.8h7.6c0.4,0,0.6,0.2,0.5,0.7
	l-0.9,4.5c-0.1,0.4-0.4,0.7-0.8,0.7h-7.6l-0.3,1.6c-0.1,0.5-0.1,0.7-0.1,0.8c0,0.5,0.3,0.6,0.9,0.6h6.5c0.4,0,0.6,0.2,0.5,0.7
	l-0.8,4.9c-0.1,0.4-0.2,0.6-0.8,0.7c-1.4,0.2-3.8,0.4-6.6,0.4c-4,0-7.6-1.4-7.6-5.8c0-0.6,0-1.1,0.2-1.8l1.7-9.6
	c1.3-7.3,6-7.6,10.1-7.6c2.8,0,5.1,0.2,6.5,0.4C431.8,623.8,432,624,431.9,624.4z"/>
<path class="st2" d="M438.9,642.3l-0.8,4.9c-0.1,0.4-0.5,0.7-0.8,0.7h-5.7c-0.3,0-0.6-0.2-0.6-0.6v-0.1l0.8-4.9
	c0.1-0.4,0.5-0.7,0.8-0.7h5.7C438.7,641.7,438.9,641.9,438.9,642.3L438.9,642.3z"/>
<path class="st2" d="M472,623.7c0.5,0,0.6,0.3,0.6,0.7l-2.5,14.2c-1.3,7.7-5.3,9.6-11.9,9.6c-4.4,0-8.8-2-8.8-7.7
	c0-0.7,0.1-1.5,0.2-2.3l2.4-13.9c0.1-0.4,0.5-0.7,0.8-0.7h6.3c0.5,0,0.6,0.3,0.5,0.7l-2.5,14.2c-0.1,0.5-0.1,0.9-0.1,1.2
	c0,1.5,0.8,1.9,2.2,1.9c1.7,0,2.7-0.6,3.1-3.1l2.5-14.2c0.1-0.4,0.3-0.7,0.8-0.7L472,623.7L472,623.7z"/>
<path class="st2" d="M495.6,623.7c0.5,0,0.6,0.3,0.6,0.7l-2.5,14.2c-1.3,7.7-5.3,9.6-11.9,9.6c-4.4,0-8.8-2-8.8-7.7
	c0-0.7,0.1-1.5,0.2-2.3l2.4-13.9c0.1-0.4,0.5-0.7,0.8-0.7h6.3c0.5,0,0.6,0.3,0.5,0.7l-2.5,14.2c-0.1,0.5-0.1,0.9-0.1,1.2
	c0,1.5,0.8,1.9,2.2,1.9c1.7,0,2.7-0.6,3.1-3.1l2.5-14.2c0.1-0.4,0.3-0.7,0.8-0.7L495.6,623.7L495.6,623.7z"/>
<path class="st2" d="M503.3,642.3l-0.8,4.9c-0.1,0.4-0.5,0.7-0.8,0.7H496c-0.3,0-0.6-0.2-0.6-0.6v-0.1l0.8-4.9
	c0.1-0.4,0.5-0.7,0.8-0.7h5.7C503.1,641.7,503.3,641.9,503.3,642.3L503.3,642.3z"/>
<g>
	<path class="st2" d="M416.2,332.7l-0.8,4.9c-0.1,0.4-0.2,0.7-0.7,0.7c-1.7-0.2-5.4-0.5-7.8-0.5c-0.4,0-0.8,0.2-0.8,0.6
		c0,0.3,0.2,0.5,1,1l4.2,2.4c2.2,1.3,3.1,3.3,3.1,5.3c0,6.3-5.4,9-11,9c-2.8,0-5.1-0.4-6.8-1c-0.3-0.1-0.7-0.3-0.6-0.7l0.8-4.9
		c0.1-0.4,0.2-0.7,0.8-0.7c1.3,0.1,4.8,0.6,6.9,0.6c0.7,0,1.4-0.3,1.4-1c0-0.4-0.2-0.7-0.7-1l-4.4-2.8c-2.1-1.4-2.8-3.6-2.8-5.4
		c0-6.1,4.6-8,10-8c2.8,0,6.4,0.5,7.7,0.9C416,332.1,416.3,332.3,416.2,332.7z"/>
	<path class="st2" d="M435,345.3l-0.3,1.5c-1.2,6.9-5,9.2-10.6,9.2c-4.9,0-7.5-2.6-7.5-7c0-0.7,0.1-1.4,0.2-2.2l0.3-1.5
		c1.2-6.8,5-9.2,10.6-9.2c4.8,0,7.6,2.4,7.6,6.9C435.2,343.7,435.1,344.5,435,345.3z M426.6,342.1c-1.1,0-1.9,0.9-2.3,3.2l-0.3,1.5
		c-0.1,0.6-0.2,1.1-0.2,1.5c0,1.3,0.5,1.7,1.3,1.7c1.1,0,1.8-0.7,2.3-3.2l0.3-1.5c0.1-0.6,0.2-1.1,0.2-1.5
		C427.9,342.5,427.4,342.1,426.6,342.1z"/>
	<path class="st2" d="M451.3,336.7c0.4,0.1,0.6,0.2,0.5,0.6l-0.8,4.4c-0.1,0.4-0.4,0.7-0.8,0.7l0,0c-1,0-2.2-0.2-3.5-0.2
		s-1.9,0.8-2.2,2.8l-0.4,2.1c-0.1,0.5-0.1,0.9-0.1,1.3c0,1,0.4,1.5,1.4,1.5c1.3,0,2.5-0.1,3.5-0.2c0.6,0,0.7,0.3,0.6,0.7l-0.8,4.4
		c-0.1,0.4-0.4,0.5-0.8,0.6c-1.3,0.3-2.8,0.6-4.7,0.6c-4.5,0-6.6-2.9-6.6-6.7c0-0.7,0.1-1.4,0.2-2.1l0.4-2.1c1.1-6,4.2-8.9,9.5-8.9
		C448.7,336.1,450.4,336.4,451.3,336.7z"/>
	<path class="st2" d="M451.6,354.9l3.1-17.8c0.1-0.4,0.3-0.7,0.9-0.7h5.8c0.6,0,0.7,0.3,0.6,0.7l-3.1,17.8c-0.1,0.4-0.3,0.7-0.8,0.7
		h-5.8C451.8,355.7,451.5,355.3,451.6,354.9z M462.6,330.3c0.4,0,0.7,0.1,0.7,0.7l-0.6,3.3c-0.1,0.4-0.3,0.7-0.9,0.7h-6.2
		c-0.6,0-0.7-0.3-0.6-0.7l0.6-3.3c0.1-0.4,0.3-0.7,0.8-0.7H462.6z"/>
	<path class="st2" d="M481.3,345.3l-0.3,1.5c-1.2,6.9-5,9.2-10.6,9.2c-4.9,0-7.5-2.6-7.5-7c0-0.7,0.1-1.4,0.2-2.2l0.3-1.5
		c1.2-6.8,5-9.2,10.6-9.2c4.8,0,7.6,2.4,7.6,6.9C481.5,343.7,481.4,344.5,481.3,345.3z M472.9,342.1c-1.1,0-1.9,0.9-2.3,3.2
		l-0.3,1.5c-0.1,0.6-0.2,1.1-0.2,1.5c0,1.3,0.5,1.7,1.3,1.7c1.1,0,1.8-0.7,2.3-3.2l0.3-1.5c0.1-0.6,0.2-1.1,0.2-1.5
		C474.2,342.5,473.8,342.1,472.9,342.1z"/>
	<path class="st2" d="M499.6,337.7l-0.7,4.2c-0.1,0.5-0.1,0.8-0.8,0.7c-1-0.2-4.4-0.6-5.7-0.6c-0.3,0-0.7,0-0.7,0.4
		c0,0.3,0.1,0.4,0.7,0.7l2.6,1.4c2.9,1.5,3.3,3.2,3.3,5c0,4.7-3.9,6.5-9.5,6.5c-2.8,0-4.7-0.4-5.9-0.8c-0.4-0.2-0.6-0.4-0.5-0.7
		l0.7-4.1c0.1-0.5,0.3-0.8,1-0.7c2.1,0.3,4.4,0.6,5.5,0.6c0.5,0,1.3,0,1.3-0.7c0-0.2-0.1-0.4-0.6-0.7l-2.9-1.6
		c-1.9-1.1-2.9-2.6-2.9-4.6c0-5.2,4.2-6.5,8.7-6.5c2.4,0,4.7,0.5,6.1,0.9C499.5,337.1,499.7,337.2,499.6,337.7z"/>
</g>
<g>
	<path class="st2" d="M416.1,368.5l-3,17c-0.1,0.4-0.2,0.7-0.7,0.7h-4.7c-0.6,0-0.7-0.3-0.7-0.7l0.1-0.9c-1.5,1.3-2.8,1.9-5.3,1.9
		c-3.5,0-5.7-2.2-5.7-6c0-1.1,0.1-1.6,0.2-2.2l0.5-3c1.2-7,5.3-8.7,10.5-8.7c2.4,0,5,0.4,7.5,0.8
		C415.8,367.5,416.3,367.7,416.1,368.5z M406.8,372.5c-1.4,0-2.1,0.5-2.5,2.7l-0.6,3.2c-0.1,0.4-0.1,0.7-0.1,0.9
		c0,1,0.5,1.2,1.3,1.2c0.7,0,1.5-0.3,2-0.5l1.3-7.3C407.6,372.6,407.2,372.5,406.8,372.5z"/>
	<path class="st2" d="M431.7,367.1c0.4,0.1,0.6,0.2,0.5,0.6l-0.8,4.4c-0.1,0.4-0.4,0.7-0.8,0.7l0,0c-1,0-2.2-0.2-3.5-0.2
		s-1.9,0.8-2.2,2.8l-0.4,2.1c-0.1,0.5-0.1,0.9-0.1,1.3c0,1,0.4,1.5,1.4,1.5c1.3,0,2.5-0.1,3.5-0.2c0.6,0,0.7,0.3,0.6,0.7l-0.8,4.4
		c-0.1,0.4-0.4,0.5-0.8,0.6c-1.3,0.3-2.8,0.6-4.7,0.6c-4.5,0-6.6-2.9-6.6-6.7c0-0.7,0.1-1.4,0.2-2.1l0.4-2.1c1.1-6,4.2-8.9,9.5-8.9
		C429.1,366.6,430.8,366.9,431.7,367.1z"/>
	<path class="st2" d="M452.5,368.5l-3,17c-0.1,0.4-0.2,0.7-0.7,0.7h-4.7c-0.6,0-0.7-0.3-0.7-0.7l0.1-0.9c-1.5,1.3-2.8,1.9-5.3,1.9
		c-3.5,0-5.7-2.2-5.7-6c0-1.1,0.1-1.6,0.2-2.2l0.5-3c1.2-7,5.3-8.7,10.5-8.7c2.4,0,5,0.4,7.5,0.8
		C452.2,367.5,452.6,367.7,452.5,368.5z M443.1,372.5c-1.4,0-2.1,0.5-2.5,2.7l-0.6,3.2c-0.1,0.4-0.1,0.7-0.1,0.9
		c0,1,0.5,1.2,1.3,1.2c0.7,0,1.5-0.3,2-0.5l1.3-7.3C444,372.6,443.5,372.5,443.1,372.5z"/>
	<path class="st2" d="M473.8,360.7c0.4,0,0.7,0.1,0.7,0.7l-4.1,23.1c-0.1,0.6-0.4,0.9-1.5,1.1c-1.6,0.3-4.5,0.8-7.8,0.8
		c-4.8,0-7.6-3-7.6-7c0-0.5,0.1-1.1,0.2-1.6l0.5-2.5c1.1-6.2,4.5-8.7,10.1-8.7c0.7,0,1.7,0.1,2.1,0.2l0.9-5.3
		c0.1-0.4,0.2-0.7,0.7-0.7h5.8L473.8,360.7L473.8,360.7z M463.5,372.5c-1.3,0-1.9,0.8-2.2,2.7l-0.5,2.5c-0.1,0.5-0.1,0.9-0.1,1.2
		c0,1,0.4,1.4,1.4,1.4c0.8,0,1.1,0,1.8-0.1l1.4-7.7C464.7,372.6,464.3,372.5,463.5,372.5z"/>
	<path class="st2" d="M492.4,375.7l-0.4,2c-0.1,0.4-0.4,0.7-0.8,0.7h-9.8c0,0.3-0.1,0.5-0.1,0.7c0,1,0.7,1.4,2.5,1.4
		c1.4,0,5-0.1,6.2-0.2h0.1c0.3,0,0.5,0.1,0.5,0.4c0,0,0,0.1,0,0.2l-0.6,3.4c-0.1,0.6-0.3,0.7-0.8,0.9c-1.8,0.7-5,1.2-7.7,1.2
		c-4.2,0-7.4-2.3-7.4-6.8c0-0.6,0.1-1.3,0.2-2l0.4-2c1.2-6.7,5.1-9.1,10.7-9.1c5.1,0,7.2,3,7.2,6.9
		C492.6,374.2,492.5,375,492.4,375.7z M484.3,372c-1.3,0-2,0.9-2.3,2.7h3.7c0.1-0.4,0.1-0.8,0.1-1.1
		C485.9,372.6,485.4,372,484.3,372z M493.2,361.2l-4.9,3.9c-0.3,0.2-0.4,0.3-0.9,0.3h-5c-0.2,0-0.3-0.1-0.3-0.2s0.1-0.2,0.2-0.4
		l3.5-3.6c0.4-0.4,0.5-0.5,1-0.5h6.2c0.2,0,0.4,0.1,0.4,0.2C493.4,361,493.3,361.1,493.2,361.2z"/>
	<path class="st2" d="M522.4,374.2l-2,11.1c-0.1,0.4-0.3,0.7-0.8,0.7h-5.9c-0.4,0-0.7-0.3-0.6-0.7l2-11.1c0-0.2,0.1-0.4,0.1-0.5
		c0-0.7-0.4-0.9-1-0.9c-0.4,0-0.9,0.1-1.5,0.2c-0.1,0.5-0.1,0.7-0.2,1.2l-2,11.1c-0.1,0.4-0.2,0.7-0.8,0.7h-5.9
		c-0.5,0-0.7-0.4-0.6-0.7l2-11.1c0-0.2,0.1-0.4,0.1-0.6c0-0.7-0.4-0.8-1-0.8c-0.4,0-1,0.1-1.4,0.2l-2.2,12.3
		c-0.1,0.4-0.2,0.7-0.8,0.7H494c-0.4,0-0.7-0.2-0.6-0.7l3.2-17.8c0.1-0.4,0.2-0.7,0.7-0.7h5.4c0.4,0,0.6,0.3,0.6,0.7l-0.2,1
		c2-1.6,3.8-2,5.6-2c1.6,0,3.1,0.5,3.7,2c1.7-1.4,3.6-2,5.4-2c3.4,0,4.8,2.1,4.8,5.3C522.7,372.6,522.6,373.4,522.4,374.2z"/>
	<path class="st2" d="M523.8,385.4l3.1-17.8c0.1-0.4,0.3-0.7,0.9-0.7h5.8c0.6,0,0.7,0.3,0.6,0.7l-3.1,17.8c-0.1,0.4-0.3,0.7-0.8,0.7
		h-5.8C524,386.1,523.8,385.8,523.8,385.4z M534.9,360.7c0.4,0,0.7,0.1,0.7,0.7l-0.6,3.3c-0.1,0.4-0.3,0.7-0.9,0.7h-6.2
		c-0.6,0-0.7-0.3-0.6-0.7l0.6-3.3c0.1-0.4,0.3-0.7,0.8-0.7H534.9z"/>
	<path class="st2" d="M549.7,367.1c0.4,0.1,0.6,0.2,0.5,0.6l-0.8,4.4c-0.1,0.4-0.4,0.7-0.8,0.7l0,0c-1,0-2.2-0.2-3.5-0.2
		s-1.9,0.8-2.2,2.8l-0.4,2.1c-0.1,0.5-0.1,0.9-0.1,1.3c0,1,0.4,1.5,1.4,1.5c1.3,0,2.5-0.1,3.5-0.2c0.6,0,0.7,0.3,0.6,0.7l-0.8,4.4
		c-0.1,0.4-0.4,0.5-0.8,0.6c-1.3,0.3-2.8,0.6-4.7,0.6c-4.5,0-6.6-2.9-6.6-6.7c0-0.7,0.1-1.4,0.2-2.1l0.4-2.1c1.1-6,4.2-8.9,9.5-8.9
		C547.1,366.6,548.8,366.9,549.7,367.1z"/>
	<path class="st2" d="M568.5,375.7l-0.3,1.5c-1.2,6.9-5,9.2-10.6,9.2c-4.9,0-7.5-2.6-7.5-7c0-0.7,0.1-1.4,0.2-2.2l0.3-1.5
		c1.2-6.8,5-9.2,10.6-9.2c4.8,0,7.6,2.4,7.6,6.9C568.8,374.1,568.7,374.9,568.5,375.7z M560.1,372.5c-1.1,0-1.9,0.9-2.3,3.2
		l-0.3,1.5c-0.1,0.6-0.2,1.1-0.2,1.5c0,1.3,0.5,1.7,1.3,1.7c1.1,0,1.8-0.7,2.3-3.2l0.3-1.5c0.1-0.6,0.2-1.1,0.2-1.5
		C561.5,372.9,561,372.5,560.1,372.5z"/>
	<path class="st2" d="M586.9,368.1l-0.7,4.2c-0.1,0.5-0.1,0.8-0.8,0.7c-1-0.2-4.4-0.6-5.7-0.6c-0.3,0-0.7,0-0.7,0.4
		c0,0.3,0.1,0.4,0.7,0.7l2.6,1.4c2.9,1.5,3.3,3.2,3.3,5c0,4.7-3.9,6.5-9.5,6.5c-2.8,0-4.7-0.4-5.9-0.8c-0.4-0.2-0.6-0.4-0.5-0.7
		l0.7-4.1c0.1-0.5,0.3-0.8,1-0.7c2.1,0.3,4.4,0.6,5.5,0.6c0.5,0,1.3,0,1.3-0.7c0-0.2-0.1-0.4-0.6-0.7l-2.9-1.6
		c-1.9-1.1-2.9-2.6-2.9-4.6c0-5.2,4.2-6.5,8.7-6.5c2.4,0,4.7,0.5,6.1,0.9C586.8,367.6,586.9,367.7,586.9,368.1z"/>
</g>
<path class="st1" d="M197.9,350.5l-150-53l150-53l150,53L197.9,350.5z M284.3,400.6c-5.3,4.3-30.1,21.6-86.4,21.6
	c-46.2,0-78.7-17.4-86.4-22v-72l86.4,30.5l86.4-30.5V400.6z M24.5,297.5l79.3,28v79l1.7,1.2c1.5,1,37.1,24.4,92.4,24.4
	c67.8,0,92.1-23.9,93.1-24.9l1.1-1.1v-78.5l29.7-10.5v54.2l-10,17.3h27.8l-10-17.3v-57l41.7-14.8l-173.4-61.3L24.5,297.5z"/>
<path class="st1" d="M309.3,36.6c21.9,0,39.6,17.7,39.6,39.6h6.4c0-25.4-20.6-46-46.1-46c-25.4,0-46,20.6-46,46
	c0,13.2,5.6,25.2,14.5,33.5l4.4-4.7c-7.7-7.2-12.5-17.5-12.5-28.8C269.7,54.3,287.4,36.6,309.3,36.6 M378.2,107.8h-19.4V88h19.4
	V107.8z M378.2,150.2c0,15.6-12.6,28.2-28.2,28.2s-28.2-12.6-28.2-28.2v-36h56.5L378.2,150.2L378.2,150.2z M321.8,88h30.6v19.8
	h-30.6V88z M384.7,107.8V81.5h-25.8l0,0h-43.5v26.3l0,0v42.4c0,19.2,15.5,34.7,34.7,34.7s34.7-15.5,34.7-34.7L384.7,107.8
	L384.7,107.8z"/>
<path class="st1" d="M648,594.2c-14.1,0-25.7,10.6-27.4,24.2h-88.3V515.2h123.3v26.2h28.3v77h-8.4
	C673.7,604.8,662.1,594.2,648,594.2 M674.6,664h-13.5v-17.7c0.9-0.5,1.8-1,2.6-1.6L674.6,664z M648,641.2
	c-10.7,0-19.3-8.7-19.3-19.3c0-10.7,8.6-19.3,19.3-19.3s19.3,8.6,19.3,19.3C667.3,632.5,658.7,641.2,648,641.2 M637.8,664h-13.5
	l10.1-18c1.1,0.6,2.2,1.2,3.4,1.6V664z M663.9,520.7l13.4,12.4h-13.4V520.7z M692.2,626.7v-91.3l-1.3-1.2l-29.6-27.3H523.9v119.9
	h96.9c1,5.3,3.4,10.1,7,13.9L610,672.3h36.1v-22.9c0.6,0,1.3,0.1,1.9,0.1c1.6,0,3.2-0.2,4.7-0.4v23.2h36.1L670,638.7
	c2.6-3.4,4.5-7.5,5.3-11.9L692.2,626.7L692.2,626.7z M544.2,581.9h75.1v-8.4h-75.1V581.9z M544.2,561.5h75.1v-8.4h-75.1V561.5z
	 M544.2,541.2h75.1v-8.4h-75.1V541.2z"/>
</svg>
