<?xml version="1.0" encoding="utf-8"?>
<!-- Generator: Adobe Illustrator 19.2.1, SVG Export Plug-In . SVG Version: 6.00 Build 0)  -->
<svg version="1.1" id="Capa_1" xmlns="http://www.w3.org/2000/svg" xmlns:xlink="http://www.w3.org/1999/xlink" x="0px" y="0px"
	 viewBox="0 0 716.7 200.5" style="enable-background:new 0 0 716.7 200.5;" xml:space="preserve">
<style type="text/css">
	.st0{display:none;fill:#C4122E;}
	.st1{fill:#7C00C8;}
	.st2{fill:#F000A6;}
</style>
<path class="st0" d="M116.1,91.6c5.4,0.1,9.7-3.9,9.8-9.5c0.1-5.4-4.3-9.6-9.7-9.6c-5.8,0-9.8,4.4-9.8,9.6
	C106.4,87.4,110.6,91.7,116.1,91.6z M70,87.1c0,1.1,0,2.3,0,3.5c0,0.2,0.3,0.5,0.5,0.5c0.7,0.1,1.4,0.2,2.1,0.3c2,0.2,4,0.2,5.9-0.4
	c4.3-1.4,5.2-6.2,2.9-8.9c-1-1.1-2.3-1.7-3.6-2.1c-0.7-0.2-1.5-0.4-2.1-0.8c-0.4-0.3-0.8-0.9-0.8-1.3c0-0.4,0.6-1,1-1.1
	c0.9-0.2,1.9-0.3,2.8-0.3c0.9,0,1.7,0.3,2.7,0.4c0-1.1,0-2.1,0-3.1c0-0.6-0.2-0.8-0.7-0.9c-1.9-0.3-3.9-0.6-5.9-0.2
	c-3.3,0.6-5.4,3.4-4.8,6.7c0.5,2.4,2.2,3.5,4.3,4.2c0.8,0.3,1.6,0.5,2.4,0.9c0.6,0.3,1.1,0.8,1,1.5c-0.1,0.8-0.6,1.1-1.2,1.3
	c-0.4,0.1-0.8,0.2-1.2,0.2C73.5,87.4,71.8,87.3,70,87.1z M101.3,77.9c0-1.5,0-2.9,0-4.3c0-0.2-0.3-0.6-0.5-0.7
	c-2.3-0.7-4.6-0.8-6.9-0.1c-3.7,1.2-6,3.8-6.5,7.7c-0.5,3.4,0.5,6.4,3.1,8.6c3.2,2.7,6.9,2.8,10.8,1.7c0-1.6,0-3.2,0-4.6
	c-1.4,0.2-2.8,0.5-4.2,0.6c-2.3,0.1-4.5-1.8-4.7-3.9c-0.4-2.9,1-5.2,3.6-5.8C97.8,76.7,99.5,77.1,101.3,77.9z M52.4,86.4
	c-1.5,0.2-2.9,0.5-4.3,0.5c-3,0.1-5.3-3-4.7-5.9c0.7-3.3,3.6-4.4,6.3-3.9c0.9,0.1,1.7,0.5,2.7,0.7c0-1.5,0-2.9,0-4.3
	c0-0.2-0.3-0.5-0.6-0.6c-1.7-0.5-3.5-0.6-5.3-0.4c-5.9,0.8-9.5,6.3-7.8,12.3c1.7,6.1,8.2,7.8,13.3,6.2c0.1,0,0.3-0.3,0.3-0.4
	C52.4,89.1,52.4,87.7,52.4,86.4z M110,49.9c0-4.1,0-8.2,0-12.3c0-1.6-1.5-2.7-3-2.2c-1,0.3-1.6,1.3-1.6,2.7c0,7.9,0,15.8,0,23.7
	c0,0.2,0,0.4,0,0.5c0.2,1.4,1.2,2.3,2.4,2.2c1.3-0.1,2.1-1,2.1-2.5C110,58,110,53.9,110,49.9z M58.8,49.9
	C58.8,49.9,58.8,49.9,58.8,49.9c0-4.2,0-8.3,0-12.5c0-1.1-0.7-1.9-1.9-2.1c-1-0.2-2,0.4-2.4,1.3c-0.2,0.5-0.2,1.1-0.2,1.7
	c0,6.9,0,13.9,0,20.8c0,1,0,2,0,3.1c0.1,1.5,1,2.4,2.3,2.3c1.2,0,2.3-1,2.2-2.5C58.7,58,58.8,54,58.8,49.9z M63.4,91.2
	c0-6.2,0-12.2,0-18.3c-1.5,0-3,0-4.5,0c0,6.1,0,12.2,0,18.3C60.5,91.2,62,91.2,63.4,91.2z M46,52c0-1.9,0-3.7,0-5.6
	c0-1.3-0.8-2.2-2-2.4c-1-0.2-2.1,0.6-2.4,1.7c-0.1,0.6-0.2,1.2-0.2,1.8c0,3.3,0,6.6,0,9.9c0,1.4,1.1,2.6,2.3,2.6
	c1.1-0.1,2.3-0.9,2.3-2.6C46,55.6,46,53.8,46,52z M122.7,52c0-1.9,0-3.8,0-5.7c0-1.1-0.5-1.7-1.5-2.1c-0.9-0.3-1.9-0.2-2.5,0.7
	c-0.4,0.6-0.6,1.3-0.6,2c-0.1,3.4,0,6.8,0,10.1c0,0.3,0,0.6,0.1,0.9c0.2,1.2,1.3,2.1,2.4,2c1.2-0.1,2.1-1,2.1-2.3
	C122.7,55.7,122.7,53.8,122.7,52z M92.6,52c0,1.8,0,3.6,0,5.4c0,1.5,1,2.6,2.3,2.6c1.3,0,2.3-1.1,2.3-2.6c0-3.6,0-7.2,0-10.8
	c0-1.5-1-2.6-2.3-2.5c-1.3,0-2.3,1.1-2.3,2.6C92.6,48.4,92.6,50.2,92.6,52z M71.6,52C71.6,52,71.5,52,71.6,52c0-2,0-4,0-6
	c0-1.1-1.2-2-2.3-1.9c-1.1,0.1-2.1,1-2.1,2.1c0,3.9,0,7.8,0,11.7c0,0.8,0.4,1.4,1.1,1.8c1.5,0.8,3.2-0.1,3.3-1.8
	C71.6,55.9,71.6,53.9,71.6,52z M79.8,55.2c0,0.8,0,1.7,0,2.5c0,1.2,0.9,2.1,2.1,2.3c1,0.1,2.2-0.7,2.3-1.8c0.1-1.9,0.2-3.9,0-5.8
	c-0.1-1.3-1.2-2-2.5-1.8c-1.1,0.1-1.9,1.1-1.9,2.3C79.8,53.6,79.8,54.4,79.8,55.2z M33.3,55.2c0-0.8,0-1.6,0-2.4
	c0-1.4-1-2.3-2.3-2.3c-1.3,0-2.3,0.9-2.3,2.3c0,1.6,0,3.2,0,4.7c0,1.3,1.1,2.4,2.3,2.4c1.2,0,2.3-1.1,2.3-2.4
	C33.3,56.8,33.3,56,33.3,55.2z M135.5,55.1C135.5,55.1,135.5,55.1,135.5,55.1c0-0.9,0-1.8,0-2.7c-0.1-1.2-1-2-2.2-2
	c-1.2,0-2.2,0.9-2.2,2c0,1.8,0,3.5,0,5.3c0,1.2,1,2.1,2.2,2.2c1.1,0,2.2-0.9,2.2-2.1C135.5,56.9,135.5,56,135.5,55.1z M133.2,91
	C133.2,91,133.3,91,133.2,91c0.1-0.5,0.2-1,0.2-1.8c0.3,0.8,0.6,1.4,0.9,2.2c0.3-0.8,0.6-1.3,0.8-1.9c0.1,0,0.1,0,0.2,0
	c0,0.5,0,1,0,1.5c0,0,0.1,0,0.1,0c0-0.7,0-1.4,0-2.1c-0.1,0-0.2,0-0.2-0.1c-0.3,0.6-0.5,1.3-0.8,1.9c-0.3-0.7-0.6-1.3-0.8-2
	c-0.1,0-0.2,0.1-0.3,0.1C133.2,89.7,133.2,90.3,133.2,91z M132.3,88.9c-0.2,0-0.7,0-1.3,0c0.4,0.1,0.6,0.2,0.9,0.2c0,0.7,0,1.3,0,2
	c0,0,0.1,0,0.1,0C132,90.4,132.2,89.7,132.3,88.9z"/>
<g>
	<g>
		<defs>
			<rect id="SVGID_1_" x="279.1" y="28.1" width="120.5" height="123.2"/>
		</defs>
		<clipPath id="SVGID_2_">
			<use xlink:href="#SVGID_1_"  style="overflow:visible;"/>
		</clipPath>
		<g transform="matrix(1 0 0 1 0 1.907349e-006)" style="clip-path:url(#SVGID_2_);">
			
				<image style="overflow:visible;" width="432" height="442" xlink:href="A7803290.png"  transform="matrix(0.2789 0 0 0.2787 279.1268 28.0637)">
			</image>
		</g>
	</g>
	<g>
		<path class="st1" d="M73.5,34.3l-5.2,29.4H72c0.7,0,1.2,0.5,1.2,1.2c0,0.1,0,0.1,0,0.2l-1.7,10c-0.1,0.8-0.9,1.5-1.7,1.5h-3.6
			l-1.5,8.9c-0.1,0.8-0.9,1.5-1.7,1.5H48.6c-0.7,0-1.2-0.5-1.2-1.2c0-0.1,0-0.2,0-0.3l1.5-8.9H29.5c-0.7,0-1.2-0.5-1.2-1.2
			c0-0.1,0-0.2,0-0.3l1.6-9.5c0.1-0.7,0.5-1.4,1.1-2l29.6-30.4c0.3-0.3,0.7-0.4,1-0.4c0.2,0,0.4,0,0.7,0h10.1c0.7,0,1.2,0.5,1.2,1.2
			C73.5,34,73.5,34.2,73.5,34.3z M42.7,63.7h9.3l2.1-11.8L42.7,63.7z"/>
		<path class="st1" d="M93.1,74.4l-1.9,11.1c-0.1,0.8-1,1.5-1.8,1.5H76.7c-0.7,0-1.2-0.5-1.2-1.2c0-0.1,0-0.1,0-0.2l1.9-11.1
			c0.1-0.8,1-1.5,1.8-1.5h12.7c0.7,0,1.2,0.5,1.2,1.2C93.1,74.2,93.1,74.3,93.1,74.4z"/>
		<path class="st1" d="M145.6,34.3L143.7,45c-0.1,0.8-0.7,1.5-1.7,1.5h-19.8l-1.5,5.9h3.3c13.5,0,17.2,6.6,17.2,13.1
			c0,16.2-9.9,22.2-25.3,22.2c-5.4,0-10.6-1-14.6-2.7c-0.6-0.2-1.3-0.6-1.3-1.2c0-0.1,0-0.1,0-0.2l1.5-8.7c0.2-1.1,0.8-1.5,1.6-1.5
			c0.1,0,0.1,0,0.2,0c4.2,0.4,9.5,0.7,11.6,0.7c4.9,0,8.5-0.6,8.5-5.8c0-2-1.2-3-5.2-3h-13.4c-0.8,0-1.4-0.5-1.4-1.4
			c0-0.1,0-0.3,0.1-0.4l7.3-29.1c0.2-0.8,0.9-1.5,1.7-1.5h32c0.7,0,1.2,0.5,1.2,1.2C145.6,34,145.6,34.1,145.6,34.3L145.6,34.3z"/>
		<path class="st1" d="M193.8,36.2l-1.6,9c-0.1,1-0.7,1.5-1.6,1.5c-0.1,0-0.2,0-0.4,0c-3.3-0.4-9.2-1-13.4-1c-4.7,0-6,0.8-7.1,6.1
			l-0.1,0.4c0.9-0.1,4.2-0.5,5.5-0.5c9.3,0,15.9,3.6,15.9,12.7c0,15-8.5,23.3-24,23.3c-12,0-17.4-7.4-17.4-15.7
			c0-1.2,0.1-2.3,0.3-3.6l2.9-16.6c2.8-16.3,13.5-19.7,23.9-19.7c7,0,11.9,1,15.7,2.3c0.9,0.3,1.3,0.7,1.3,1.4
			C193.9,35.9,193.8,36.1,193.8,36.2z M171.4,62.9c-1.5,0-2.8,0.1-3.6,0.2l-0.9,5.3c-0.2,1.2-0.3,2.3-0.3,3.1c0,2.8,1.1,3.6,2.7,3.6
			c3.9,0,5-4.2,5-9.1C174.2,63.6,173.2,62.9,171.4,62.9z"/>
		<path class="st1" d="M242.2,55.9l-1.4,7.9C238,80,229.3,87.6,215.7,87.6c-11.3,0-17.3-5.4-17.3-16.6c0-2.2,0.2-4.6,0.7-7.2
			l1.4-7.9c2.8-16.2,11.6-23.8,25.1-23.8c11.3,0,17.3,5.4,17.3,16.6C242.9,50.9,242.7,53.3,242.2,55.9z M223,46.7
			c-2.2,0-3.9,1.1-5.2,9.2l-1.4,7.9c-0.4,2.3-0.6,4.2-0.6,5.5c0,3.2,1.1,3.7,2.6,3.7c2.2,0,3.9-1.1,5.2-9.2l1.4-7.9
			c0.4-2.3,0.6-4.2,0.6-5.5C225.6,47.2,224.5,46.7,223,46.7z"/>
	</g>
	<g>
		<path class="st1" d="M502.3,34.3l-5.2,29.4h3.6c0.7,0,1.2,0.5,1.2,1.2c0,0.1,0,0.1,0,0.2l-1.7,10c-0.1,0.8-0.9,1.5-1.7,1.5h-3.6
			l-1.5,8.9c-0.1,0.8-0.9,1.5-1.7,1.5h-14.2c-0.7,0-1.2-0.5-1.2-1.2c0-0.1,0-0.2,0-0.3l1.5-8.9h-19.5c-0.7,0-1.2-0.5-1.2-1.2
			c0-0.1,0-0.2,0-0.3l1.6-9.5c0.1-0.7,0.5-1.4,1.1-2l29.6-30.4c0.3-0.3,0.7-0.4,1-0.4c0.2,0,0.4,0,0.7,0h10.1c0.7,0,1.2,0.5,1.2,1.2
			C502.3,34,502.3,34.2,502.3,34.3z M471.5,63.7h9.3l2.1-11.8L471.5,63.7z"/>
		<path class="st1" d="M520.1,72.4l3.9-22.6l-9.2,2.8c-0.4,0.1-0.7,0.2-0.9,0.2c-0.5,0-0.7-0.3-0.6-0.9l2.2-12.3
			c0.1-0.7,0.5-1.2,1.2-1.5l14.1-5c0.6-0.2,1-0.4,1.7-0.4h10.2c0.8,0,1.3,0.7,1.2,1.5l-6.7,38.1h8.8c0.8,0,1.4,0.7,1.2,1.5l-2,11.6
			c-0.1,0.8-0.9,1.5-1.7,1.5h-34.7c-0.8,0-1.5-0.7-1.3-1.5l2-11.6c0.1-0.8,1-1.5,1.8-1.5H520.1z"/>
	</g>
	<g>
		<path class="st2" d="M59.6,130.2h-7.8c-0.4,0-0.6-0.3-0.6-0.8l0-4.2h-5.7l-1.4,4.2c-0.2,0.4-0.5,0.8-0.9,0.8h-7.9
			c-0.3,0-0.5-0.1-0.5-0.4c0-0.1,0-0.2,0.1-0.3l8.5-22.7c1.4-3.8,4.6-4.9,9.1-4.9c4.6,0,7.3,1,7.3,4.9l0.5,22.7v0
			C60.3,129.9,60,130.2,59.6,130.2z M51.2,109c-0.3,0-0.3,0.2-0.4,0.5l-2.9,8.8h3.5l0.2-8.8c0-0.1,0-0.2,0-0.2
			C51.4,109.1,51.4,109,51.2,109z"/>
		<path class="st2" d="M76.3,101.6l-4.9,27.7c-0.1,0.5-0.2,0.8-0.9,0.8h-6.8c-0.5,0-0.8-0.2-0.7-0.8l4.9-27.7c0.1-0.5,0.3-0.8,1-0.8
			h6.8C76.1,100.9,76.4,101.1,76.3,101.6z"/>
		<path class="st2" d="M99.5,108.8l-3.7,20.6c-0.1,0.4-0.2,0.8-0.9,0.8h-6.2c-0.4,0-0.8-0.1-0.6-0.8l0.2-1.1
			c-1.8,1.2-3.2,2.2-6.2,2.2c-4.3,0-5.9-3-5.9-6.4c0-0.8,0.1-1.5,0.2-2.3l2.3-13c0.1-0.5,0.5-0.8,0.9-0.8h6.8c0.5,0,0.8,0.3,0.7,0.8
			l-2.2,12.4c-0.1,0.4-0.2,1-0.2,1.1c0,1,0.7,1.3,1.6,1.3c0.7,0,1.4-0.2,2.2-0.6l2.5-14.3c0.1-0.5,0.3-0.8,0.9-0.8h6.8
			C99.2,108,99.6,108.1,99.5,108.8z"/>
		<path class="st2" d="M133.1,116.5l-2.3,12.9c-0.1,0.5-0.3,0.8-0.9,0.8h-6.8c-0.5,0-0.8-0.3-0.7-0.8l2.3-12.9
			c0-0.2,0.1-0.5,0.1-0.6c0-0.8-0.5-1-1.2-1c-0.5,0-1.1,0.1-1.7,0.2c-0.1,0.6-0.1,0.8-0.2,1.4l-2.3,12.9c-0.1,0.5-0.3,0.8-0.9,0.8
			h-6.8c-0.6,0-0.8-0.4-0.7-0.8l2.3-12.9c0-0.3,0.1-0.5,0.1-0.6c0-0.8-0.4-1-1.2-1c-0.5,0-1.2,0.1-1.7,0.2l-2.5,14.3
			c-0.1,0.5-0.2,0.8-0.9,0.8h-6.8c-0.5,0-0.8-0.2-0.7-0.8l3.6-20.6c0.1-0.4,0.2-0.8,0.9-0.8h6.2c0.5,0,0.7,0.3,0.6,0.8l-0.2,1.1
			c2.3-1.8,4.4-2.3,6.5-2.3c1.8,0,3.5,0.6,4.3,2.3c1.9-1.6,4.2-2.3,6.3-2.3c3.9,0,5.6,2.4,5.6,6.1
			C133.4,114.6,133.3,115.5,133.1,116.5z"/>
		<path class="st2" d="M157.7,116.3l-2.3,13c-0.1,0.5-0.2,0.8-0.9,0.8h-6.8c-0.5,0-0.8-0.2-0.7-0.8l2.3-13c0-0.2,0-0.5,0-0.7
			c0-0.8-0.7-1.2-1.6-1.2c-0.7,0-1.4,0.2-2.2,0.6l-2.5,14.3c-0.1,0.5-0.2,0.8-0.9,0.8h-6.8c-0.5,0-0.8-0.3-0.7-0.8l3.6-20.6
			c0.1-0.4,0.5-0.8,0.9-0.8h6.2c0.6,0,0.7,0.3,0.6,0.8l-0.2,1.1c2-1.4,3.8-2.2,6.4-2.2c4.6,0,5.7,2.9,5.7,6.1
			C157.9,114.6,157.8,115.5,157.7,116.3z"/>
		<path class="st2" d="M181.2,118.2l-0.3,1.7c-1.4,8-5.8,10.6-12.2,10.6c-5.6,0-8.7-3-8.7-8.1c0-0.8,0.1-1.7,0.2-2.6l0.3-1.7
			c1.4-7.9,5.8-10.6,12.2-10.6c5.6,0,8.7,2.8,8.7,7.9C181.5,116.4,181.4,117.3,181.2,118.2z M171.5,114.5c-1.3,0-2.2,1.1-2.6,3.7
			l-0.3,1.7c-0.1,0.7-0.2,1.3-0.2,1.8c0,1.5,0.6,1.9,1.5,1.9c1.3,0,2.1-0.8,2.6-3.7l0.3-1.7c0.1-0.7,0.2-1.3,0.2-1.8
			C173,115,172.5,114.5,171.5,114.5z"/>
		<path class="st2" d="M202.4,109.4l-0.9,4.9c-0.1,0.5-0.2,0.9-0.9,0.8c-1.1-0.2-5.1-0.7-6.6-0.7c-0.3,0-0.9,0-0.9,0.4
			c0,0.3,0.1,0.4,0.8,0.8l3,1.6c3.3,1.8,3.8,3.7,3.8,5.8c0,5.4-4.5,7.6-11,7.6c-3.2,0-5.5-0.5-6.8-1c-0.5-0.2-0.6-0.4-0.6-0.8
			l0.8-4.7c0.1-0.6,0.3-1,1.1-0.9c2.4,0.4,5.1,0.7,6.4,0.7c0.6,0,1.5,0,1.5-0.9c0-0.2-0.1-0.4-0.7-0.8l-3.3-1.8
			c-2.2-1.2-3.3-3-3.3-5.3c0-6,4.9-7.5,10-7.5c2.8,0,5.4,0.6,7,1C202.3,108.8,202.5,108.9,202.4,109.4z"/>
	</g>
	<g>
		<path class="st2" d="M490.6,114.5l-0.6,3.4c-1.8,9.6-6.7,12.6-14.6,12.6c-4.1,0-6.9-0.3-9.1-0.7c-0.7-0.1-1.1-0.4-1.1-1.1
			c0-0.2,0-0.3,0-0.5l4.3-24c0.2-1.1,0.6-1.5,1.6-1.6c2.4-0.4,5.3-0.7,9.4-0.7c6.2,0,10.5,3.2,10.5,9.4
			C490.9,112.3,490.8,113.3,490.6,114.5z M479,109.4h-1.7l-2.4,13.5h1.7c2.6,0,3.5-0.9,4.3-5l0.6-3.4c0.2-1,0.3-1.8,0.3-2.5
			C481.9,110,481,109.4,479,109.4z"/>
		<path class="st2" d="M513.4,118.2l-0.3,1.7c-1.4,8-5.8,10.6-12.2,10.6c-5.6,0-8.7-3-8.7-8.1c0-0.8,0.1-1.7,0.2-2.6l0.3-1.7
			c1.4-7.9,5.8-10.6,12.2-10.6c5.6,0,8.7,2.8,8.7,7.9C513.7,116.4,513.6,117.3,513.4,118.2z M503.7,114.5c-1.3,0-2.2,1.1-2.6,3.7
			l-0.3,1.7c-0.1,0.7-0.2,1.3-0.2,1.8c0,1.5,0.6,1.9,1.5,1.9c1.3,0,2.1-0.8,2.6-3.7l0.3-1.7c0.1-0.7,0.2-1.3,0.2-1.8
			C505.3,115,504.7,114.5,503.7,114.5z"/>
		<path class="st2" d="M532.3,108.2c0.4,0.1,0.7,0.3,0.6,0.7l-0.9,5.1c-0.1,0.4-0.5,0.8-0.9,0.8h0c-1.2,0-2.5-0.2-4-0.2
			c-1.5,0-2.1,1-2.6,3.2l-0.5,2.5c-0.1,0.6-0.2,1.1-0.2,1.5c0,1.2,0.5,1.7,1.6,1.7c1.5,0,2.9-0.1,4.1-0.2c0.7,0,0.8,0.3,0.7,0.8
			l-0.9,5.1c-0.1,0.5-0.5,0.6-0.9,0.7c-1.5,0.3-3.2,0.6-5.4,0.6c-5.2,0-7.6-3.3-7.6-7.8c0-0.8,0.1-1.6,0.2-2.5l0.5-2.5
			c1.2-6.9,4.8-10.2,11-10.2C529.3,107.6,531.3,108,532.3,108.2z"/>
		<path class="st2" d="M553.9,118.2l-0.4,2.3c-0.1,0.5-0.5,0.8-0.9,0.8h-11.4c0,0.3-0.1,0.6-0.1,0.8c0,1.2,0.8,1.6,2.9,1.6
			c1.6,0,5.8-0.2,7.1-0.3c0.6,0,0.8,0.1,0.7,0.7l-0.7,4c-0.1,0.6-0.3,0.9-0.9,1.1c-2.1,0.8-5.8,1.4-8.9,1.4c-4.8,0-8.5-2.6-8.5-7.8
			c0-0.7,0.1-1.5,0.2-2.3l0.4-2.3c1.4-7.8,5.9-10.6,12.3-10.6c5.9,0,8.4,3.5,8.4,8C554.1,116.4,554,117.3,553.9,118.2z M544.5,113.9
			c-1.5,0-2.3,1-2.6,3.1h4.3c0.1-0.5,0.2-0.9,0.2-1.3C546.3,114.6,545.8,113.9,544.5,113.9z"/>
		<path class="st2" d="M578.2,116.3l-2.3,13c-0.1,0.5-0.2,0.8-0.9,0.8h-6.8c-0.5,0-0.8-0.2-0.7-0.8l2.3-13c0-0.2,0-0.5,0-0.7
			c0-0.8-0.7-1.2-1.6-1.2c-0.7,0-1.4,0.2-2.2,0.6l-2.5,14.3c-0.1,0.5-0.2,0.8-0.9,0.8h-6.8c-0.5,0-0.8-0.3-0.7-0.8l3.6-20.6
			c0.1-0.4,0.5-0.8,0.9-0.8h6.2c0.6,0,0.7,0.3,0.6,0.8l-0.2,1.1c2-1.4,3.8-2.2,6.4-2.2c4.6,0,5.7,2.9,5.7,6.1
			C578.4,114.6,578.3,115.5,578.2,116.3z"/>
		<path class="st2" d="M596.2,108c0.6,0,0.9,0.1,0.8,0.8l-0.8,4.6c-0.1,0.5-0.3,0.8-0.9,0.8h-2.7l-1.6,9.2c0,0.2-0.1,0.4-0.1,0.6
			c0,0.4,0.1,0.5,0.7,0.5h1.8c0.5,0,0.8,0.1,0.6,0.8l-0.7,4.1c-0.1,0.5-0.2,0.7-0.9,0.8c-1.6,0.3-2.4,0.4-4.1,0.4
			c-2.6,0-5.9-1.1-5.9-5.5c0-0.6,0.1-1.2,0.2-1.9l1.6-9.1l-2.1-0.4c-0.4-0.1-0.8-0.2-0.7-0.8l0.7-4.2c0.1-0.5,0.3-0.8,1-0.8h2.1
			l0.5-3.1c0.1-0.5,0.2-0.7,1-0.8l6.7-1.1c0.8-0.1,1.1,0.2,0.9,0.8l-0.8,4.3H596.2z"/>
		<path class="st2" d="M618,118.2l-0.4,2.3c-0.1,0.5-0.5,0.8-0.9,0.8h-11.4c0,0.3-0.1,0.6-0.1,0.8c0,1.2,0.8,1.6,2.9,1.6
			c1.6,0,5.8-0.2,7.1-0.3c0.6,0,0.8,0.1,0.7,0.7l-0.7,4c-0.1,0.6-0.3,0.9-0.9,1.1c-2.1,0.8-5.8,1.4-8.9,1.4c-4.8,0-8.5-2.6-8.5-7.8
			c0-0.7,0.1-1.5,0.2-2.3l0.4-2.3c1.4-7.8,5.9-10.6,12.3-10.6c5.9,0,8.4,3.5,8.4,8C618.3,116.4,618.2,117.3,618,118.2z M608.7,113.9
			c-1.5,0-2.3,1-2.6,3.1h4.3c0.1-0.5,0.2-0.9,0.2-1.3C610.5,114.6,610,113.9,608.7,113.9z"/>
		<path class="st2" d="M639,109.4l-0.9,4.9c-0.1,0.5-0.2,0.9-0.9,0.8c-1.1-0.2-5.1-0.7-6.6-0.7c-0.3,0-0.9,0-0.9,0.4
			c0,0.3,0.1,0.4,0.8,0.8l3,1.6c3.3,1.8,3.8,3.7,3.8,5.8c0,5.4-4.5,7.6-11,7.6c-3.2,0-5.5-0.5-6.8-1c-0.5-0.2-0.6-0.4-0.6-0.8
			l0.8-4.7c0.1-0.6,0.3-1,1.1-0.9c2.4,0.4,5.1,0.7,6.4,0.7c0.6,0,1.5,0,1.5-0.9c0-0.2-0.1-0.4-0.7-0.8l-3.3-1.8
			c-2.2-1.2-3.3-3-3.3-5.3c0-6,4.9-7.5,10-7.5c2.8,0,5.4,0.6,7,1C638.9,108.8,639,108.9,639,109.4z"/>
	</g>
	<g>
		<path class="st2" d="M482.4,143.4c0.4,0.1,0.7,0.3,0.6,0.7l-0.9,5.1c-0.1,0.4-0.5,0.8-0.9,0.8h0c-1.2,0-2.5-0.2-4-0.2
			c-1.5,0-2.1,1-2.6,3.2l-0.5,2.5c-0.1,0.6-0.2,1.1-0.2,1.5c0,1.2,0.5,1.7,1.6,1.7c1.5,0,2.9-0.2,4.1-0.2c0.7,0,0.8,0.3,0.7,0.8
			l-0.9,5.1c-0.1,0.5-0.5,0.6-0.9,0.7c-1.5,0.3-3.2,0.6-5.4,0.6c-5.2,0-7.6-3.3-7.6-7.8c0-0.8,0.1-1.6,0.2-2.5l0.5-2.5
			c1.2-6.9,4.8-10.2,11-10.2C479.4,142.8,481.4,143.1,482.4,143.4z"/>
		<path class="st2" d="M504,153.3l-0.4,2.3c-0.1,0.5-0.5,0.8-0.9,0.8h-11.4c0,0.3-0.1,0.6-0.1,0.8c0,1.2,0.8,1.6,2.9,1.6
			c1.6,0,5.8-0.2,7.1-0.3c0.6,0,0.8,0.1,0.7,0.7l-0.7,4c-0.1,0.6-0.3,0.9-0.9,1.1c-2.1,0.8-5.8,1.4-8.9,1.4c-4.8,0-8.5-2.6-8.5-7.8
			c0-0.7,0.1-1.5,0.2-2.3l0.4-2.3c1.4-7.8,5.9-10.6,12.3-10.6c5.9,0,8.4,3.5,8.4,8C504.2,151.6,504.1,152.5,504,153.3z M494.7,149.1
			c-1.5,0-2.3,1-2.6,3.1h4.3c0.1-0.5,0.2-0.9,0.2-1.3C496.4,149.8,495.9,149.1,494.7,149.1z"/>
		<path class="st2" d="M521.8,142.8c0.6,0,0.9,0.2,0.8,0.8l-0.9,5.3c-0.1,0.4-0.2,0.8-0.9,0.8h-0.3c-2.3,0-3.5,0.2-4.4,0.6
			l-2.5,14.3c-0.1,0.5-0.2,0.8-0.9,0.8h-6.8c-0.5,0-0.8-0.2-0.7-0.8l3.6-20.6c0.1-0.4,0.3-0.8,0.9-0.8h5.9c0.5,0,0.8,0.2,0.6,0.8
			l-0.2,1.1c1.5-1.8,3.6-2.2,5.4-2.2H521.8z"/>
		<path class="st2" d="M538.3,143.1c0.6,0,0.9,0.2,0.8,0.8l-0.8,4.6c-0.1,0.5-0.3,0.8-0.9,0.8h-2.7l-1.6,9.2c0,0.2-0.1,0.4-0.1,0.6
			c0,0.4,0.2,0.5,0.7,0.5h1.8c0.5,0,0.8,0.1,0.6,0.8l-0.7,4.1c-0.1,0.5-0.2,0.7-0.9,0.8c-1.6,0.3-2.4,0.4-4.1,0.4
			c-2.6,0-5.9-1.1-5.9-5.5c0-0.6,0.1-1.2,0.2-1.9l1.6-9.1l-2.1-0.4c-0.4-0.1-0.8-0.2-0.7-0.8l0.7-4.2c0.1-0.5,0.3-0.8,1-0.8h2.1
			l0.5-3.1c0.1-0.5,0.2-0.7,1-0.8l6.7-1.1c0.8-0.1,1.1,0.2,0.9,0.8l-0.8,4.2H538.3z"/>
		<path class="st2" d="M538.4,164.5l3.6-20.6c0.1-0.5,0.3-0.8,1-0.8h6.7c0.7,0,0.8,0.3,0.7,0.8l-3.6,20.6c-0.1,0.5-0.3,0.8-1,0.8
			h-6.7C538.7,165.3,538.3,165,538.4,164.5z M551.2,136c0.5,0,0.9,0.1,0.8,0.8l-0.7,3.8c-0.1,0.5-0.3,0.8-1,0.8h-7.1
			c-0.7,0-0.8-0.4-0.7-0.8l0.7-3.8c0.1-0.5,0.3-0.8,1-0.8H551.2z"/>
		<path class="st2" d="M566.8,164.5l2.7-15.2h-6l-2.7,15.7c-1.1,6.2-3.8,7.4-8.5,7.4c-1,0-2.5-0.2-3.5-0.4c-0.6-0.1-0.7-0.4-0.6-0.8
			l0.7-4.1c0.1-0.5,0.2-0.8,0.9-0.8h1.1c0.9,0,1.2,0,1.5-1.3l2.7-15.7l-2.4-0.3c-0.4,0-0.8-0.2-0.7-0.8l0.7-4.2
			c0.1-0.5,0.3-0.8,1-0.8h2.5l0.1-0.5c0.9-6.2,3.8-7.3,8.5-7.3c1,0,2.7,0.2,3.8,0.4c0.7,0.1,0.7,0.4,0.6,0.8l-0.7,4.1
			c-0.1,0.5-0.3,0.8-0.9,0.8h-1.3c-0.9,0-1.2,0-1.5,1.3l-0.1,0.4h13.6c0.7,0,0.8,0.3,0.7,0.8l-3.6,20.6c-0.1,0.5-0.3,0.8-1,0.8h-6.7
			C567.1,165.3,566.8,165,566.8,164.5z M579.6,136c0.5,0,0.9,0.1,0.8,0.8l-0.7,3.8c-0.1,0.5-0.3,0.8-1,0.8h-7.1
			c-0.7,0-0.8-0.4-0.7-0.8l0.7-3.8c0.1-0.5,0.3-0.8,1-0.8H579.6z"/>
		<path class="st2" d="M596.8,143.4c0.4,0.1,0.7,0.3,0.6,0.7l-0.9,5.1c-0.1,0.4-0.5,0.8-0.9,0.8h0c-1.2,0-2.5-0.2-4-0.2
			c-1.5,0-2.1,1-2.6,3.2l-0.5,2.5c-0.1,0.6-0.2,1.1-0.2,1.5c0,1.2,0.5,1.7,1.6,1.7c1.5,0,2.9-0.2,4.1-0.2c0.7,0,0.8,0.3,0.7,0.8
			l-0.9,5.1c-0.1,0.5-0.5,0.6-0.9,0.7c-1.5,0.3-3.2,0.6-5.4,0.6c-5.2,0-7.6-3.3-7.6-7.8c0-0.8,0.1-1.6,0.2-2.5l0.5-2.5
			c1.2-6.9,4.8-10.2,11-10.2C593.7,142.8,595.7,143.1,596.8,143.4z"/>
		<path class="st2" d="M620.8,145l-3.4,19.6c-0.1,0.4-0.2,0.8-0.8,0.8h-5.4c-0.7,0-0.8-0.3-0.8-0.8l0.2-1.1
			c-1.7,1.5-3.2,2.2-6.1,2.2c-4.1,0-6.6-2.6-6.6-6.9c0-1.2,0.1-1.9,0.2-2.6l0.6-3.5c1.4-8.1,6.1-10,12.2-10c2.8,0,5.8,0.4,8.7,0.9
			C620.4,143.8,620.9,144.1,620.8,145z M610,149.7c-1.6,0-2.4,0.6-2.9,3.1l-0.7,3.6c-0.1,0.4-0.1,0.8-0.1,1.1c0,1.1,0.5,1.4,1.5,1.4
			c0.8,0,1.7-0.3,2.3-0.6l1.5-8.5C611,149.7,610.4,149.7,610,149.7z"/>
		<path class="st2" d="M645.4,136c0.5,0,0.9,0.2,0.8,0.8l-4.7,26.7c-0.1,0.6-0.5,1.1-1.8,1.3c-1.8,0.3-5.2,0.9-9,0.9
			c-5.5,0-8.8-3.5-8.8-8.1c0-0.6,0.1-1.2,0.2-1.9l0.5-2.9c1.3-7.1,5.2-10,11.7-10c0.9,0,1.9,0.1,2.4,0.2l1.1-6.2
			c0.1-0.5,0.3-0.8,0.9-0.8H645.4z M633.5,149.7c-1.5,0-2.1,0.9-2.5,3.1l-0.5,2.9c-0.1,0.6-0.2,1-0.2,1.4c0,1.1,0.5,1.7,1.6,1.7
			c1,0,1.3,0,2-0.1l1.6-8.9C634.9,149.8,634.4,149.7,633.5,149.7z"/>
		<path class="st2" d="M667.1,153.4l-0.3,1.7c-1.4,8-5.8,10.6-12.2,10.6c-5.6,0-8.7-3-8.7-8.1c0-0.8,0.1-1.7,0.2-2.6l0.3-1.7
			c1.4-7.9,5.8-10.6,12.2-10.6c5.6,0,8.7,2.8,8.7,7.9C667.4,151.5,667.3,152.4,667.1,153.4z M657.4,149.7c-1.3,0-2.2,1.1-2.6,3.7
			l-0.3,1.7c-0.1,0.7-0.2,1.3-0.2,1.8c0,1.5,0.6,1.9,1.5,1.9c1.3,0,2.1-0.8,2.6-3.7l0.3-1.7c0.1-0.7,0.2-1.3,0.2-1.8
			C659,150.1,658.4,149.7,657.4,149.7z"/>
		<path class="st2" d="M688.3,144.6l-0.9,4.9c-0.1,0.5-0.2,0.9-0.9,0.8c-1.1-0.2-5.1-0.7-6.6-0.7c-0.3,0-0.9,0-0.9,0.4
			c0,0.3,0.1,0.4,0.8,0.8l3,1.6c3.3,1.8,3.8,3.7,3.8,5.8c0,5.4-4.5,7.6-11,7.6c-3.2,0-5.5-0.5-6.8-1c-0.5-0.2-0.6-0.4-0.6-0.8
			l0.8-4.7c0.1-0.6,0.3-1,1.1-0.9c2.4,0.4,5.1,0.7,6.4,0.7c0.6,0,1.5,0,1.5-0.9c0-0.2-0.1-0.4-0.7-0.8l-3.3-1.8
			c-2.2-1.2-3.3-3-3.3-5.3c0-6,4.9-7.5,10-7.5c2.8,0,5.4,0.6,7,1C688.2,143.9,688.4,144,688.3,144.6z"/>
	</g>
</g>
</svg>
