<?xml version="1.0" encoding="utf-8"?>
<!-- Generator: Adobe Illustrator 19.2.1, SVG Export Plug-In . SVG Version: 6.00 Build 0)  -->
<svg version="1.1" id="Capa_1" xmlns="http://www.w3.org/2000/svg" xmlns:xlink="http://www.w3.org/1999/xlink" x="0px" y="0px"
	 viewBox="0 0 200 200" style="enable-background:new 0 0 200 200;" xml:space="preserve">
<style type="text/css">
	.st0{fill:#E52A1B;}
	.st1{fill:#FFFFFF;}
	.st2{fill:#92BCCB;}
	.st3{fill:#007C9A;}
	.st4{fill:#C9DDE4;}
	.st5{fill:#005D83;}
</style>
<g>
	<path class="st0" d="M177.1,0.9H22.9C9.8,0.9,3.1,7.6,3.1,20.7v121c0,15.9,11.9,20.8,17.3,22.9l75,32.5l4.7,2l4.7-2l75.1-32.5
		c5.1-2.2,17.2-7.3,17.2-22.8v-121C196.9,7.6,190.2,0.9,177.1,0.9z"/>
	<g>
		<path class="st1" d="M24.5,154.5c-3.5-1.4-6.2-2.8-7.9-4.8l0,0c-1.8-2-2.6-4.6-2.6-8l0,0V64c0-3.3,0.3-5.6,1.8-7.1l0,0
			c1.6-1.5,3.8-1.8,7.1-1.8l0,0h154.2c3.3,0,5.6,0.3,7.1,1.8l0,0c1.5,1.6,1.8,3.8,1.8,7.1l0,0v77.7c0,3.4-0.9,6.1-2.8,8.1l0,0
			c-1.8,2-4.4,3.4-7.7,4.7l0,0L100,187.2L24.5,154.5L24.5,154.5z"/>
	</g>
	<g>
		<path class="st1" d="M56.6,41.6c-6.4,0-11.3-4.5-11.3-10.2c0-5.8,5-10.3,11.3-10.3C63,21.1,68,25.6,68,31.4
			C68,37.1,63,41.6,56.6,41.6z M56.6,25.2c-4,0-7.2,2.7-7.2,6.1c0,3.4,3.2,6.1,7.2,6.1c4,0,7.2-2.7,7.2-6.1
			C63.8,27.9,60.7,25.2,56.6,25.2z"/>
		<path class="st1" d="M97.2,41.6c-2.3,0-4.1-1.9-4.1-4.2v-8.5c0-2-1.8-3.7-4-3.7c-2.1,0-3.9,1.6-3.9,3.7c0,0,0,0,0,12.7
			c-2.3,0-4.1-1.8-4.1-4.1v-8.6c0-2-1.8-3.7-4-3.7c-2.1,0-3.9,1.6-3.9,3.7v8.5c0,2.3-1.9,4.2-4.1,4.2V28.9c0-4.3,3.6-7.8,8-7.8
			c2.4,0,4.6,1,6,2.6c1.5-1.6,3.6-2.6,6-2.6c4.5,0,8.1,3.5,8.1,7.8V41.6z"/>
		<path class="st1" d="M110.6,41.6c-1.1,0-2.1-0.1-3.1-0.3c-2.1-0.6-3.4-2.8-2.8-5c0.1-0.3,0.2-0.5,0.3-0.7l0,0
			c1.2,1.3,3,1.9,5.6,1.9c3.8,0,6.7-2.7,6.7-6c0-3.5-3-6.2-6.7-6.2c-3.6,0-7.1,2-7.1,6.3v13.4c0,2.2-1.9,4-4.1,4V31.5
			c0-6,4.7-10.4,11.3-10.4c2.9,0,5.6,1.1,7.6,3c2.1,1.9,3.2,4.6,3.2,7.4C121.4,37.1,116.7,41.6,110.6,41.6z"/>
		<path class="st1" d="M140,17.2h-8.8v24.4H131c-2.2,0-3.9-1.9-3.9-4.1V17.2h-8.8c-2.2,0-4-1.9-4-4.1h29.9
			C144.1,15.3,142.3,17.2,140,17.2z"/>
		<path class="st1" d="M175.3,39l-2.2-4.7h-14.6l-2.2,4.8c-1,1.9-3.7,2.5-5.8,2.5l11.9-26.2c0.7-1.5,1.9-2.4,3.3-2.4
			c1.4,0,2.6,0.9,3.3,2.4l11.8,25.9C178.6,41.6,176.2,40.9,175.3,39z M166.1,17.4l-5.9,12.9h11.1l-5.9-12.9L166.1,17.4z"/>
		<path class="st1" d="M40.6,20.8c-2.2-2.4-5.5-3.9-9.1-3.9c-6.4,0-11.6,4.6-11.6,10.4c0,5.7,5.2,10.4,11.6,10.4
			c3.1,0,5.9-1.2,8.1-3c1.5-1.2,3.7-1.2,5.2,0.1c-1.1,1.7-2.6,3.2-4.5,4.4c-2.6,1.7-5.7,2.5-8.8,2.5c-8.6,0-15.6-6.4-15.6-14.4
			c0-7.9,7-14.4,15.6-14.4c6.1,0,11.7,3.4,14.2,8.5C44.2,22.4,42,22.3,40.6,20.8z"/>
		<g>
			<path class="st1" d="M182.4,40c-1.2,0-2.2-0.9-2.2-1.9c0-1.1,1-2,2.2-2c1.2,0,2.2,0.9,2.2,2C184.5,39.1,183.5,40,182.4,40z
				 M182.4,36.6c-1,0-1.7,0.7-1.7,1.5c0,0.8,0.8,1.5,1.7,1.5c1,0,1.7-0.7,1.7-1.5C184.1,37.2,183.3,36.6,182.4,36.6z M183.2,38.3
				c-0.1,0-0.1,0.1-0.2,0.1c0,0,0.1,0.2,0.5,0.7l-0.1,0.1c-0.2,0.1-0.4,0.1-0.6,0c-0.5-0.5-0.5-0.6-0.5-0.6s-0.1,0-0.5,0v-0.1
				c0-0.2,0.2-0.4,0.4-0.4h0.3c0.2,0,0.3,0,0.4-0.1c0.1,0,0.1-0.1,0.1-0.2c0-0.1,0-0.2-0.5-0.2c-0.6,0-0.7,0-0.7,0s0,0.1,0,1.4
				c0,0.2-0.2,0.4-0.4,0.4h-0.1v-1.9c0-0.2,0.2-0.4,0.4-0.4h0.8c0.9,0,1,0.5,1,0.8C183.5,37.9,183.4,38.1,183.2,38.3z"/>
		</g>
		<path class="st1" d="M145.4,13.1v24.5c0,2.2,1.9,4,4.1,4V17.1C149.5,14.9,147.6,13.1,145.4,13.1z"/>
	</g>
	<g>
		<path class="st2" d="M100,185.1l-74.7-32.4l0,0c-3.5-1.4-5.8-2.6-7.2-4.2l0,0l4.8-4.3l77.1,33.4V185.1z"/>
	</g>
	<path class="st3" d="M18.1,148.5L18.1,148.5c-1.4-1.6-2.1-3.6-2.1-6.7V64l0,0c0-3.2,0.4-5,1.2-5.7l0,0l5.7,5.7v80.1L18.1,148.5z"/>
	<path class="st2" d="M182.8,58.3L182.8,58.3c0.8,0.8,1.2,2.5,1.2,5.7v77.7l0,0c0,3.1-0.8,5.1-2.3,6.7l0,0l-4.7-4.3V64L182.8,58.3z"
		/>
	<path class="st4" d="M181.7,148.5L181.7,148.5c-1.5,1.6-3.8,2.9-7,4.3L100,185.1v-7.6l77.1-33.4L181.7,148.5z"/>
	<path class="st5" d="M177.1,64l5.7-5.7l0,0c-0.8-0.8-2.5-1.2-5.7-1.2l0,0H22.9c-0.1,0-0.1,0-0.2,0l0,0c-3.1,0-4.8,0.4-5.5,1.2l0,0
		l5.7,5.7v80.1l77.1,33.4l77.1-33.4V64z"/>
	<g>
		<path class="st1" d="M34.9,86.7h2.6l6.9,15.8h-2.9l-1.6-3.8h-7.4l-1.6,3.8H28L34.9,86.7z M38.8,96.2L36.1,90l-2.7,6.3H38.8z"/>
		<path class="st1" d="M45.1,95.8v-9h2.8v8.9c0,2.9,1.5,4.5,4,4.5c2.4,0,3.9-1.5,3.9-4.3v-9h2.8v8.9c0,4.7-2.6,7-6.7,7
			C47.7,102.7,45.1,100.4,45.1,95.8z"/>
		<path class="st1" d="M65,89.3h-5v-2.6h12.7v2.6h-5v13.1H65V89.3z"/>
		<path class="st1" d="M74.6,86.8h2.8v6.5h7.5v-6.5h2.8v15.7h-2.8v-6.6h-7.5v6.6h-2.8V86.8z"/>
		<path class="st1" d="M89.8,94.7L89.8,94.7c0-4.5,3.4-8.2,8.2-8.2c4.8,0,8.2,3.7,8.2,8.1v0c0,4.4-3.4,8.1-8.2,8.1
			C93.1,102.7,89.8,99.1,89.8,94.7z M103.3,94.7L103.3,94.7c0-3.1-2.2-5.6-5.3-5.6s-5.3,2.5-5.3,5.5v0c0,3,2.2,5.6,5.3,5.6
			C101.1,100.2,103.3,97.7,103.3,94.7z"/>
		<path class="st1" d="M108.4,86.8h7c2,0,3.5,0.6,4.5,1.6c0.8,0.9,1.3,2,1.3,3.4v0c0,2.6-1.5,4.1-3.7,4.7l4.2,5.9h-3.3l-3.9-5.5
			h-3.4v5.5h-2.8V86.8z M115.2,94.6c2,0,3.2-1,3.2-2.6v0c0-1.7-1.2-2.6-3.2-2.6h-4v5.3H115.2z"/>
		<path class="st1" d="M123.6,86.8h2.8v15.7h-2.8V86.8z"/>
		<path class="st1" d="M128.9,100.4l9.3-11.2h-9v-2.4h12.6v2l-9.3,11.2h9.3v2.4h-12.9V100.4z"/>
		<path class="st1" d="M144,86.8h11.6v2.5h-8.9v4.1h7.9v2.5h-7.9v4.2h9v2.5H144V86.8z"/>
		<path class="st1" d="M157.9,86.8h5.8c4.9,0,8.3,3.4,8.3,7.8v0c0,4.4-3.4,7.8-8.3,7.8h-5.8V86.8z M160.7,89.3V100h3.1
			c3.3,0,5.4-2.2,5.4-5.3v0c0-3.1-2.1-5.3-5.4-5.3H160.7z"/>
		<path class="st1" d="M51.8,114.7h2.6l6.9,15.8h-2.9l-1.6-3.8h-7.4l-1.6,3.8h-2.8L51.8,114.7z M55.8,124.3l-2.7-6.3l-2.7,6.3H55.8z
			"/>
		<path class="st1" d="M61.2,122.7L61.2,122.7c0-4.5,3.3-8.2,8.1-8.2c2.9,0,4.6,1,6.1,2.4l-1.8,2c-1.3-1.2-2.6-1.9-4.4-1.9
			c-3,0-5.2,2.5-5.2,5.5v0c0,3.1,2.2,5.6,5.2,5.6c1.9,0,3.2-0.8,4.5-2l1.8,1.8c-1.6,1.7-3.4,2.8-6.4,2.8
			C64.6,130.8,61.2,127.2,61.2,122.7z"/>
		<path class="st1" d="M82.8,114.7h2.6l6.9,15.8h-2.9l-1.6-3.8h-7.4l-1.6,3.8h-2.8L82.8,114.7z M86.8,124.3l-2.7-6.3l-2.7,6.3H86.8z
			"/>
		<path class="st1" d="M93.8,114.8h5.8c4.9,0,8.3,3.4,8.3,7.8v0c0,4.4-3.4,7.8-8.3,7.8h-5.8V114.8z M96.6,117.3V128h3.1
			c3.3,0,5.4-2.2,5.4-5.3v0c0-3.1-2.2-5.3-5.4-5.3H96.6z"/>
		<path class="st1" d="M110.2,114.8h11.6v2.5H113v4.1h7.9v2.5H113v4.2h9v2.5h-11.7V114.8z"/>
		<path class="st1" d="M124.1,114.8h2.9l4.8,7.4l4.8-7.4h2.9v15.7h-2.8v-11.2l-4.9,7.4h-0.1l-4.9-7.3v11.2h-2.7V114.8z"/>
		<path class="st1" d="M147.1,124.3l-6.2-9.5h3.3l4.4,6.9l4.4-6.9h3.2l-6.2,9.4v6.2h-2.8V124.3z"/>
	</g>
</g>
</svg>
