<?xml version="1.0" encoding="utf-8"?>
<!-- Generator: Adobe Illustrator 20.0.0, SVG Export Plug-In . SVG Version: 6.00 Build 0)  -->
<svg version="1.1" id="Capa_1" xmlns="http://www.w3.org/2000/svg" xmlns:xlink="http://www.w3.org/1999/xlink" x="0px" y="0px"
	 viewBox="0 0 716.7 293.8" style="enable-background:new 0 0 716.7 293.8;" xml:space="preserve">
<style type="text/css">
	.st0{display:none;fill:#C4122E;}
	.st1{fill:none;stroke:#391754;stroke-width:4.0819;}
	.st2{fill:#3A0048;}
	.st3{fill:#F000A6;}
	.st4{fill:#FFFFFF;}
</style>
<path class="st0" d="M116.1,138.2c5.4,0.1,9.7-3.9,9.8-9.5c0.1-5.4-4.3-9.6-9.7-9.6c-5.8,0-9.8,4.4-9.8,9.6
	C106.4,134,110.6,138.3,116.1,138.2z M70,133.8c0,1.1,0,2.3,0,3.5c0,0.2,0.3,0.5,0.5,0.5c0.7,0.1,1.4,0.2,2.1,0.3
	c2,0.2,4,0.2,5.9-0.4c4.3-1.4,5.2-6.2,2.9-8.9c-1-1.1-2.3-1.7-3.6-2.1c-0.7-0.2-1.5-0.4-2.1-0.8c-0.4-0.3-0.8-0.9-0.8-1.3
	s0.6-1,1-1.1c0.9-0.2,1.9-0.3,2.8-0.3s1.7,0.3,2.7,0.4c0-1.1,0-2.1,0-3.1c0-0.6-0.2-0.8-0.7-0.9c-1.9-0.3-3.9-0.6-5.9-0.2
	c-3.3,0.6-5.4,3.4-4.8,6.7c0.5,2.4,2.2,3.5,4.3,4.2c0.8,0.3,1.6,0.5,2.4,0.9c0.6,0.3,1.1,0.8,1,1.5c-0.1,0.8-0.6,1.1-1.2,1.3
	c-0.4,0.1-0.8,0.2-1.2,0.2C73.5,134.1,71.8,133.9,70,133.8z M101.3,124.6c0-1.5,0-2.9,0-4.3c0-0.2-0.3-0.6-0.5-0.7
	c-2.3-0.7-4.6-0.8-6.9-0.1c-3.7,1.2-6,3.8-6.5,7.7c-0.5,3.4,0.5,6.4,3.1,8.6c3.2,2.7,6.9,2.8,10.8,1.7c0-1.6,0-3.2,0-4.6
	c-1.4,0.2-2.8,0.5-4.2,0.6c-2.3,0.1-4.5-1.8-4.7-3.9c-0.4-2.9,1-5.2,3.6-5.8C97.8,123.4,99.5,123.8,101.3,124.6z M52.4,133
	c-1.5,0.2-2.9,0.5-4.3,0.5c-3,0.1-5.3-3-4.7-5.9c0.7-3.3,3.6-4.4,6.3-3.9c0.9,0.1,1.7,0.5,2.7,0.7c0-1.5,0-2.9,0-4.3
	c0-0.2-0.3-0.5-0.6-0.6c-1.7-0.5-3.5-0.6-5.3-0.4c-5.9,0.8-9.5,6.3-7.8,12.3c1.7,6.1,8.2,7.8,13.3,6.2c0.1,0,0.3-0.3,0.3-0.4
	C52.4,135.8,52.4,134.3,52.4,133z M110,96.6c0-4.1,0-8.2,0-12.3c0-1.6-1.5-2.7-3-2.2c-1,0.3-1.6,1.3-1.6,2.7c0,7.9,0,15.8,0,23.7
	c0,0.2,0,0.4,0,0.5c0.2,1.4,1.2,2.3,2.4,2.2c1.3-0.1,2.1-1,2.1-2.5C110,104.6,110,100.6,110,96.6z M58.8,96.6L58.8,96.6
	c0-4.2,0-8.3,0-12.5c0-1.1-0.7-1.9-1.9-2.1c-1-0.2-2,0.4-2.4,1.3c-0.2,0.5-0.2,1.1-0.2,1.7c0,6.9,0,13.9,0,20.8c0,1,0,2,0,3.1
	c0.1,1.5,1,2.4,2.3,2.3c1.2,0,2.3-1,2.2-2.5C58.7,104.7,58.8,100.6,58.8,96.6z M63.4,137.8c0-6.2,0-12.2,0-18.3c-1.5,0-3,0-4.5,0
	c0,6.1,0,12.2,0,18.3C60.5,137.8,62,137.8,63.4,137.8z M46,98.6c0-1.9,0-3.7,0-5.6c0-1.3-0.8-2.2-2-2.4c-1-0.2-2.1,0.6-2.4,1.7
	c-0.1,0.6-0.2,1.2-0.2,1.8c0,3.3,0,6.6,0,9.9c0,1.4,1.1,2.6,2.3,2.6c1.1-0.1,2.3-0.9,2.3-2.6C46,102.2,46,100.4,46,98.6z
	 M122.7,98.6c0-1.9,0-3.8,0-5.7c0-1.1-0.5-1.7-1.5-2.1c-0.9-0.3-1.9-0.2-2.5,0.7c-0.4,0.6-0.6,1.3-0.6,2c-0.1,3.4,0,6.8,0,10.1
	c0,0.3,0,0.6,0.1,0.9c0.2,1.2,1.3,2.1,2.4,2c1.2-0.1,2.1-1,2.1-2.3C122.7,102.4,122.7,100.5,122.7,98.6z M92.6,98.7
	c0,1.8,0,3.6,0,5.4c0,1.5,1,2.6,2.3,2.6s2.3-1.1,2.3-2.6c0-3.6,0-7.2,0-10.8c0-1.5-1-2.6-2.3-2.5c-1.3,0-2.3,1.1-2.3,2.6
	C92.6,95.1,92.6,96.9,92.6,98.7z M71.6,98.6C71.6,98.6,71.5,98.6,71.6,98.6c0-2,0-4,0-6c0-1.1-1.2-2-2.3-1.9c-1.1,0.1-2.1,1-2.1,2.1
	c0,3.9,0,7.8,0,11.7c0,0.8,0.4,1.4,1.1,1.8c1.5,0.8,3.2-0.1,3.3-1.8C71.6,102.5,71.6,100.6,71.6,98.6z M79.8,101.8
	c0,0.8,0,1.7,0,2.5c0,1.2,0.9,2.1,2.1,2.3c1,0.1,2.2-0.7,2.3-1.8c0.1-1.9,0.2-3.9,0-5.8c-0.1-1.3-1.2-2-2.5-1.8
	c-1.1,0.1-1.9,1.1-1.9,2.3C79.8,100.3,79.8,101,79.8,101.8z M33.3,101.9c0-0.8,0-1.6,0-2.4c0-1.4-1-2.3-2.3-2.3s-2.3,0.9-2.3,2.3
	c0,1.6,0,3.2,0,4.7c0,1.3,1.1,2.4,2.3,2.4c1.2,0,2.3-1.1,2.3-2.4C33.3,103.4,33.3,102.7,33.3,101.9z M135.5,101.8L135.5,101.8
	c0-0.9,0-1.8,0-2.7c-0.1-1.2-1-2-2.2-2s-2.2,0.9-2.2,2c0,1.8,0,3.5,0,5.3c0,1.2,1,2.1,2.2,2.2c1.1,0,2.2-0.9,2.2-2.1
	C135.5,103.6,135.5,102.7,135.5,101.8z M133.2,137.7C133.2,137.7,133.3,137.7,133.2,137.7c0.1-0.5,0.2-1,0.2-1.8
	c0.3,0.8,0.6,1.4,0.9,2.2c0.3-0.8,0.6-1.3,0.8-1.9c0.1,0,0.1,0,0.2,0c0,0.5,0,1,0,1.5h0.1c0-0.7,0-1.4,0-2.1c-0.1,0-0.2,0-0.2-0.1
	c-0.3,0.6-0.5,1.3-0.8,1.9c-0.3-0.7-0.6-1.3-0.8-2c-0.1,0-0.2,0.1-0.3,0.1C133.2,136.3,133.2,137,133.2,137.7z M132.3,135.6
	c-0.2,0-0.7,0-1.3,0c0.4,0.1,0.6,0.2,0.9,0.2c0,0.7,0,1.3,0,2h0.1C132,137.1,132.2,136.3,132.3,135.6z"/>
<g>
	<line class="st1" x1="336.2" y1="145.2" x2="399.2" y2="145.2"/>
	<polyline class="st1" points="472.6,64.9 401.2,64.9 401.2,224.8 472.6,224.8 	"/>
	<rect x="436.9" y="18.7" class="st2" width="253.5" height="96.6"/>
	<rect x="436.9" y="178.5" class="st2" width="253.5" height="96.6"/>
	<rect x="26.2" y="67" class="st2" width="325" height="152.4"/>
	<g>
		<path class="st3" d="M88,109.6c-0.1,0.6-0.3,0.8-1,0.8c-1.4-0.2-3.8-0.4-5.5-0.4s-3.5,0.4-4.4,5.6l-0.6,3.4
			c-0.2,1.1-0.3,2-0.3,2.7c0,2.7,1.3,2.9,2.8,2.9c1.6,0,4.3-0.3,5.7-0.4c0.7-0.1,0.8,0.3,0.7,0.8l-1.2,6.7c-0.1,0.5-0.3,0.7-1,0.9
			c-1.4,0.5-3.4,0.8-5.7,0.8c-7.7,0-11.4-4.1-11.4-10.5c0-1.2,0.1-2.5,0.4-3.8l0.6-3.4c2-10.7,6.9-14.4,15.8-14.4
			c2.3,0,4.5,0.4,5.7,0.8c0.5,0.2,0.8,0.3,0.8,0.9L88,109.6z"/>
		<path class="st3" d="M114.3,110.2l-3.8,22c-0.1,0.5-0.3,0.8-0.8,0.8h-6c-0.8,0-0.9-0.4-0.8-0.8l0.2-1.2c-1.9,1.7-3.6,2.4-6.9,2.4
			c-4.6,0-7.4-2.9-7.4-7.7c0-1.4,0.1-2.1,0.2-2.9l0.7-3.9c1.6-9.1,6.8-11.2,13.7-11.2c3.2,0,6.5,0.5,9.7,1
			C113.9,108.9,114.5,109.2,114.3,110.2z M102.2,115.5c-1.8,0-2.7,0.6-3.2,3.5l-0.8,4.1c-0.1,0.5-0.1,0.9-0.1,1.2
			c0,1.3,0.6,1.5,1.6,1.5c0.8,0,1.9-0.3,2.6-0.7l1.7-9.5C103.3,115.5,102.7,115.5,102.2,115.5z"/>
		<path class="st3" d="M133.2,107.7c0.7,0,1,0.2,0.9,0.8l-1.1,5.9c-0.1,0.5-0.2,0.8-1,0.8h-0.3c-2.6,0-3.9,0.2-4.9,0.7l-2.8,16
			c-0.1,0.5-0.3,0.9-1,0.9h-7.6c-0.5,0-0.9-0.2-0.8-0.9l4.1-23.1c0.1-0.5,0.3-0.8,1-0.8h6.7c0.5,0,0.8,0.3,0.7,0.8l-0.3,1.2
			c1.7-2,4.1-2.5,6.1-2.5h0.3V107.7z"/>
		<path class="st3" d="M151.8,107.7c0.7,0,1,0.2,0.9,0.8l-1.1,5.9c-0.1,0.5-0.2,0.8-1,0.8h-0.3c-2.6,0-3.9,0.2-4.9,0.7l-2.8,16
			c-0.1,0.5-0.3,0.9-1,0.9H134c-0.5,0-0.9-0.2-0.8-0.9l4.1-23.1c0.1-0.5,0.3-0.8,1-0.8h6.7c0.5,0,0.8,0.3,0.7,0.8l-0.3,1.2
			c1.7-2,4.1-2.5,6.1-2.5h0.3V107.7z"/>
		<path class="st3" d="M175.8,119.6l-0.5,2.6c-0.1,0.5-0.5,0.9-1.1,0.9h-12.7c0,0.3-0.1,0.7-0.1,0.9c0,1.4,0.8,1.8,3.2,1.8
			c1.8,0,6.5-0.2,8-0.3c0.7,0,0.9,0.1,0.8,0.8l-0.8,4.4c-0.1,0.7-0.3,1-1,1.2c-2.3,0.9-6.5,1.6-10,1.6c-5.4,0-9.6-3-9.6-8.8
			c0-0.8,0.1-1.6,0.3-2.5l0.5-2.6c1.6-8.7,6.7-11.9,13.8-11.9c6.6,0,9.4,3.9,9.4,9C176.1,117.6,176,118.6,175.8,119.6z M165.3,114.8
			c-1.7,0-2.5,1.1-3,3.5h4.8c0.1-0.5,0.2-1,0.2-1.4C167.3,115.5,166.8,114.8,165.3,114.8z"/>
		<path class="st3" d="M195.8,107.7c0.7,0,1,0.2,0.9,0.8l-1.1,5.9c-0.1,0.5-0.2,0.8-1,0.8h-0.3c-2.6,0-3.9,0.2-4.9,0.7l-2.8,16
			c-0.1,0.5-0.3,0.9-1,0.9H178c-0.5,0-0.9-0.2-0.8-0.9l4.1-23.1c0.1-0.5,0.3-0.8,1-0.8h6.7c0.5,0,0.8,0.3,0.7,0.8l-0.3,1.2
			c1.7-2,4.1-2.5,6.1-2.5h0.3V107.7z"/>
		<path class="st3" d="M221.6,110.2l-3.8,22c-0.1,0.5-0.3,0.8-0.8,0.8h-6c-0.8,0-0.9-0.4-0.8-0.8l0.2-1.2c-1.9,1.7-3.6,2.4-6.9,2.4
			c-4.6,0-7.4-2.9-7.4-7.7c0-1.4,0.1-2.1,0.2-2.9l0.7-3.9c1.6-9.1,6.8-11.2,13.7-11.2c3.2,0,6.5,0.5,9.7,1
			C221.1,108.9,221.7,109.2,221.6,110.2z M209.4,115.5c-1.8,0-2.7,0.6-3.2,3.5l-0.8,4.1c-0.1,0.5-0.1,0.9-0.1,1.2
			c0,1.3,0.6,1.5,1.6,1.5c0.8,0,1.9-0.3,2.6-0.7l1.7-9.5C210.6,115.5,209.9,115.5,209.4,115.5z"/>
		<path class="st3" d="M244.3,109.7l-1,5.5c-0.1,0.6-0.2,1.1-1,0.9c-1.3-0.2-5.7-0.8-7.4-0.8c-0.4,0-1,0-1,0.5
			c0,0.3,0.1,0.5,0.9,0.9l3.3,1.8c3.8,2,4.2,4.2,4.2,6.5c0,6.1-5,8.5-12.4,8.5c-3.6,0-6.1-0.5-7.7-1.1c-0.5-0.2-0.7-0.5-0.6-0.9
			l0.9-5.3c0.1-0.7,0.4-1.1,1.3-1c2.7,0.4,5.7,0.8,7.2,0.8c0.7,0,1.6,0,1.6-1c0-0.3-0.1-0.5-0.8-0.8l-3.8-2.1
			c-2.5-1.4-3.8-3.3-3.8-6c0-6.7,5.5-8.4,11.3-8.4c3.1,0,6.1,0.6,7.8,1.1C244.2,109,244.4,109.1,244.3,109.7z"/>
	</g>
	<g>
		<path class="st3" d="M91.2,149.6l-3.8,22c-0.1,0.5-0.3,0.8-0.8,0.8h-6c-0.8,0-0.9-0.4-0.8-0.8l0.2-1.2c-1.9,1.7-3.6,2.4-6.9,2.4
			c-4.6,0-7.4-2.9-7.4-7.7c0-1.4,0.1-2.1,0.2-2.9l0.7-3.9c1.6-9.1,6.8-11.2,13.7-11.2c3.2,0,6.5,0.5,9.7,1
			C90.8,148.3,91.4,148.6,91.2,149.6z M79,154.9c-1.8,0-2.7,0.6-3.2,3.5l-0.8,4.1c-0.1,0.5-0.1,0.9-0.1,1.2c0,1.3,0.6,1.5,1.6,1.5
			c0.8,0,1.9-0.3,2.6-0.7l1.7-9.5C80.2,154.9,79.6,154.9,79,154.9z"/>
		<path class="st3" d="M113.9,149.2l-1,5.5c-0.1,0.6-0.2,1.1-1,0.9c-1.3-0.2-5.7-0.8-7.4-0.8c-0.4,0-1,0-1,0.5
			c0,0.3,0.1,0.5,0.9,0.9l3.3,1.8c3.8,2,4.2,4.2,4.2,6.5c0,6.1-5,8.5-12.4,8.5c-3.6,0-6.1-0.5-7.7-1.1c-0.5-0.2-0.7-0.5-0.6-0.9
			l0.9-5.3c0.1-0.7,0.4-1.1,1.3-1c2.7,0.4,5.7,0.8,7.2,0.8c0.7,0,1.6,0,1.6-1c0-0.3-0.1-0.5-0.8-0.8l-3.8-2.1
			c-2.5-1.4-3.8-3.3-3.8-6c0-6.8,5.5-8.4,11.3-8.4c3.1,0,6.1,0.6,7.8,1.1C113.8,148.4,114,148.6,113.9,149.2z"/>
		<path class="st3" d="M139.1,159l-0.3,1.9c-1.6,8.9-6.5,11.9-13.7,11.9c-6.3,0-9.7-3.4-9.7-9c0-0.9,0.1-1.9,0.3-2.9l0.3-1.9
			c1.5-8.8,6.5-11.9,13.7-11.9c6.2,0,9.8,3.1,9.8,8.9C139.4,157,139.3,158,139.1,159z M128.2,154.9c-1.4,0-2.4,1.2-3,4.1l-0.3,1.9
			c-0.1,0.8-0.2,1.4-0.2,2c0,1.6,0.6,2.2,1.7,2.2c1.4,0,2.4-0.8,3-4.1l0.3-1.9c0.1-0.8,0.2-1.4,0.2-2
			C130,155.4,129.3,154.9,128.2,154.9z"/>
		<path class="st3" d="M160.3,147.9c0.5,0.1,0.8,0.3,0.7,0.8l-1,5.7c-0.1,0.5-0.5,0.9-1,0.9l0,0c-1.4,0-2.8-0.3-4.5-0.3
			s-2.4,1.1-2.9,3.6l-0.5,2.8c-0.1,0.6-0.2,1.2-0.2,1.7c0,1.3,0.5,1.9,1.8,1.9c1.7,0,3.2-0.2,4.6-0.3c0.8,0,0.9,0.4,0.8,0.9l-1,5.7
			c-0.1,0.5-0.5,0.7-1,0.8c-1.7,0.4-3.6,0.7-6.1,0.7c-5.9,0-8.5-3.8-8.5-8.7c0-0.9,0.1-1.8,0.3-2.8l0.5-2.8
			c1.4-7.8,5.4-11.5,12.3-11.5C156.9,147.1,159.1,147.6,160.3,147.9z"/>
		<path class="st3" d="M160.7,171.5l4.1-23.1c0.1-0.5,0.4-0.9,1.1-0.9h7.6c0.8,0,0.8,0.4,0.8,0.9l-4.1,23.1
			c-0.1,0.5-0.3,0.9-1.1,0.9h-7.6C161,172.4,160.6,172,160.7,171.5z M175,139.6c0.5,0,1,0.1,0.8,0.9l-0.8,4.3
			c-0.1,0.5-0.3,0.9-1.1,0.9h-8c-0.8,0-0.9-0.4-0.8-0.9l0.8-4.3c0.1-0.5,0.3-0.9,1.1-0.9H175z"/>
		<path class="st3" d="M201.1,149.6l-3.8,22c-0.1,0.5-0.3,0.8-0.8,0.8h-6c-0.8,0-0.9-0.4-0.8-0.8l0.2-1.2c-1.9,1.7-3.6,2.4-6.9,2.4
			c-4.6,0-7.4-2.9-7.4-7.7c0-1.4,0.1-2.1,0.2-2.9l0.7-3.9c1.6-9.1,6.8-11.2,13.7-11.2c3.2,0,6.5,0.5,9.7,1
			C200.7,148.3,201.3,148.6,201.1,149.6z M189,154.9c-1.8,0-2.7,0.6-3.2,3.5l-0.8,4.1c-0.1,0.5-0.1,0.9-0.1,1.2
			c0,1.3,0.6,1.5,1.6,1.5c0.8,0,1.9-0.3,2.6-0.7l1.7-9.5C190.1,154.9,189.5,154.9,189,154.9z"/>
		<path class="st3" d="M228.7,139.6c0.5,0,1,0.2,0.8,0.9l-5.3,29.9c-0.1,0.7-0.5,1.2-2,1.5c-2.1,0.4-5.8,1-10.1,1
			c-6.2,0-9.8-3.9-9.8-9.1c0-0.7,0.1-1.4,0.2-2.1l0.6-3.3c1.4-8,5.8-11.2,13.1-11.2c1,0,2.2,0.1,2.7,0.3l1.2-6.9
			c0.1-0.5,0.3-0.9,1-0.9L228.7,139.6L228.7,139.6z M215.4,154.9c-1.7,0-2.4,1.1-2.8,3.5l-0.6,3.3c-0.1,0.6-0.2,1.1-0.2,1.6
			c0,1.3,0.5,1.9,1.8,1.9c1.1,0,1.5,0,2.3-0.1l1.8-10C217,155,216.3,154.9,215.4,154.9z"/>
		<path class="st3" d="M255,149.6l-3.8,22c-0.1,0.5-0.3,0.8-0.8,0.8h-6c-0.8,0-0.9-0.4-0.8-0.8l0.2-1.2c-1.9,1.7-3.6,2.4-6.9,2.4
			c-4.6,0-7.4-2.9-7.4-7.7c0-1.4,0.1-2.1,0.2-2.9l0.7-3.9c1.6-9.1,6.8-11.2,13.7-11.2c3.2,0,6.5,0.5,9.7,1
			C254.6,148.3,255.2,148.6,255,149.6z M242.9,154.9c-1.8,0-2.7,0.6-3.2,3.5l-0.8,4.1c-0.1,0.5-0.1,0.9-0.1,1.2
			c0,1.3,0.6,1.5,1.6,1.5c0.8,0,1.9-0.3,2.6-0.7l1.7-9.5C244,154.9,243.4,154.9,242.9,154.9z"/>
		<path class="st3" d="M277.8,149.2l-1,5.5c-0.1,0.6-0.2,1.1-1,0.9c-1.3-0.2-5.7-0.8-7.4-0.8c-0.4,0-1,0-1,0.5
			c0,0.3,0.1,0.5,0.9,0.9l3.3,1.8c3.8,2,4.2,4.2,4.2,6.5c0,6.1-5,8.5-12.4,8.5c-3.6,0-6.1-0.5-7.7-1.1c-0.5-0.2-0.7-0.5-0.6-0.9
			l0.9-5.3c0.1-0.7,0.4-1.1,1.3-1c2.7,0.4,5.7,0.8,7.2,0.8c0.7,0,1.6,0,1.6-1c0-0.3-0.1-0.5-0.8-0.8l-3.8-2.1
			c-2.5-1.4-3.8-3.3-3.8-6c0-6.8,5.5-8.4,11.3-8.4c3.1,0,6.1,0.6,7.8,1.1C277.6,148.4,277.8,148.6,277.8,149.2z"/>
	</g>
</g>
<g>
	<path class="st4" d="M534.8,59.2h-3.7c-0.3,0-0.5-0.2-0.5-0.5l-1-4.3h-5.4l-1,4.3c-0.1,0.3-0.3,0.5-0.5,0.5H519
		c-0.3,0-0.4-0.2-0.4-0.4c0,0,0-0.1,0-0.1l3.9-16.4c0.6-2.5,2.6-2.9,4.4-2.9c1.8,0,3.7,0.4,4.4,2.9l3.9,16.4c0,0.1,0,0.1,0,0.1
		C535.2,59,535,59.2,534.8,59.2z M527.2,43.5c-0.1-0.3-0.1-0.4-0.3-0.4c-0.2,0-0.3,0.1-0.4,0.4l-1.6,7.3h3.9L527.2,43.5z"/>
	<path class="st4" d="M548.9,59.2h-3.2c-0.3,0-0.5-0.3-0.5-0.6v-8.8c0-1.8-0.3-2.5-2-2.5c-0.8,0-1.6,0.4-2.5,0.8v10.4
		c0,0.3-0.2,0.6-0.5,0.6H537c-0.3,0-0.6-0.3-0.6-0.6v-14c0-0.3,0.2-0.5,0.5-0.5h3c0.3,0,0.5,0.2,0.5,0.5v0.6c1.5-1,2.6-1.4,4.3-1.4
		c3.8,0,4.7,2.7,4.7,6v8.8C549.4,58.9,549.2,59.2,548.9,59.2z"/>
	<path class="st4" d="M562.9,59.2h-3c-0.3,0-0.5-0.2-0.5-0.5v-0.4c-1,0.7-2.1,1.2-3.7,1.2c-2.3,0-4.5-1.1-4.5-4.5v-0.2
		c0-3.1,2-4.5,6.5-4.5h1.4v-1c0-1.5-0.7-1.8-2-1.8c-1.7,0-3.6,0.1-4.4,0.2h-0.1c-0.3,0-0.5-0.1-0.5-0.5V45c0-0.3,0.2-0.5,0.5-0.6
		c1-0.2,2.8-0.6,4.6-0.6c3.8,0,6.2,1.5,6.2,5.4v9.4C563.4,59,563.2,59.2,562.9,59.2z M559.2,52.7h-1.5c-1.8,0-2.3,0.6-2.3,1.9v0.2
		c0,1.1,0.6,1.3,1.7,1.3c0.8,0,1.5-0.3,2.2-0.6V52.7z"/>
	<path class="st4" d="M569.5,59.2h-3.2c-0.3,0-0.6-0.3-0.6-0.6V39.5c0-0.3,0.3-0.5,0.6-0.5h3.2c0.3,0,0.5,0.2,0.5,0.5v19.2
		C570,58.9,569.8,59.2,569.5,59.2z"/>
	<path class="st4" d="M576.3,42.3h-3.4c-0.3,0-0.5-0.2-0.5-0.5v-2.5c0-0.3,0.2-0.5,0.5-0.5h3.4c0.3,0,0.5,0.2,0.5,0.5v2.5
		C576.8,42.1,576.6,42.3,576.3,42.3z M576.2,59.2H573c-0.3,0-0.5-0.2-0.5-0.5V44.6c0-0.3,0.2-0.5,0.5-0.5h3.2c0.3,0,0.5,0.2,0.5,0.5
		v14.1C576.7,59,576.5,59.2,576.2,59.2z"/>
	<path class="st4" d="M584.1,59.4c-1.5,0-3.5-0.2-4.8-0.6c-0.3-0.1-0.5-0.3-0.5-0.6v-2.1c0-0.3,0.2-0.5,0.5-0.5c0,0,0.1,0,0.1,0
		c1.4,0.2,3.6,0.4,4.5,0.4c1.3,0,1.6-0.3,1.6-1c0-0.4-0.2-0.7-1-1.1l-3.4-2c-1.5-0.8-2.3-2.2-2.3-3.9c0-2.7,1.8-4.1,5.4-4.1
		c2.1,0,3.4,0.3,4.7,0.6c0.3,0.1,0.5,0.3,0.5,0.6v2.1c0,0.3-0.2,0.5-0.4,0.5c0,0-0.1,0-0.1,0c-0.8-0.1-3-0.3-4.4-0.3
		c-1,0-1.4,0.2-1.4,0.8c0,0.4,0.3,0.6,0.8,0.9l3.3,1.9c2.2,1.3,2.7,2.6,2.7,4.1C589.7,57.5,587.9,59.4,584.1,59.4z"/>
	<path class="st4" d="M599.6,59.2c-0.8,0.1-1.3,0.2-2.1,0.2c-2.9,0-4.4-0.8-4.4-4.5v-7.7l-2.1-0.3c-0.3-0.1-0.6-0.3-0.6-0.6v-1.7
		c0-0.3,0.3-0.6,0.6-0.6h2.1v-2.2c0-0.3,0.2-0.5,0.5-0.5l3.2-0.6c0,0,0.1,0,0.1,0c0.3,0,0.5,0.2,0.5,0.4v2.8h2.2
		c0.3,0,0.5,0.2,0.5,0.5v2.1c0,0.3-0.2,0.5-0.5,0.5h-2.2v7.7c0,1.1,0.1,1.2,0.9,1.2h1.3c0.3,0,0.6,0.2,0.6,0.4v2.1
		C600.1,59,600,59.2,599.6,59.2z"/>
	<path class="st4" d="M612.8,59.2h-3c-0.3,0-0.5-0.2-0.5-0.5v-0.4c-1,0.7-2.1,1.2-3.7,1.2c-2.3,0-4.5-1.1-4.5-4.5v-0.2
		c0-3.1,2-4.5,6.5-4.5h1.4v-1c0-1.5-0.7-1.8-2-1.8c-1.7,0-3.6,0.1-4.4,0.2h-0.1c-0.3,0-0.5-0.1-0.5-0.5V45c0-0.3,0.2-0.5,0.5-0.6
		c1-0.2,2.8-0.6,4.6-0.6c3.8,0,6.2,1.5,6.2,5.4v9.4C613.4,59,613.1,59.2,612.8,59.2z M609.2,52.7h-1.5c-1.8,0-2.3,0.6-2.3,1.9v0.2
		c0,1.1,0.6,1.3,1.7,1.3c0.8,0,1.5-0.3,2.2-0.6V52.7z"/>
	<path class="st4" d="M497.8,84c-0.6,0-1.5-0.1-2.1-0.1v6.4c0,0.3-0.2,0.5-0.5,0.5h-3.4c-0.3,0-0.5-0.2-0.5-0.5V72.6
		c0-0.9,0.4-1.1,1.2-1.3c1.3-0.2,3.5-0.3,5.4-0.3c4,0,7.9,1.4,7.9,6.4v0.2C505.6,82.5,501.7,84,497.8,84z M501.1,77.4
		c0-1.9-1.2-2.6-3.4-2.6c-0.4,0-1.8,0.1-2.1,0.1v5.4c0.3,0,1.8,0.1,2.1,0.1c2.3,0,3.4-0.9,3.4-2.7V77.4z"/>
	<path class="st4" d="M515.1,79.1h-0.2c-1.3,0-2.4,0.4-3.4,0.9v10.3c0,0.3-0.2,0.6-0.5,0.6h-3.2c-0.3,0-0.6-0.3-0.6-0.6v-14
		c0-0.3,0.2-0.5,0.5-0.5h3.1c0.3,0,0.5,0.2,0.5,0.5v0.5c1-0.8,2.3-1.3,3.6-1.3c0.3,0,0.5,0.2,0.5,0.5v2.5
		C515.5,78.8,515.4,79.1,515.1,79.1z"/>
	<path class="st4" d="M522.5,91.1c-4.3,0-6.6-2.7-6.6-6.9v-1.8c0-4.2,2.3-6.9,6.6-6.9s6.6,2.7,6.6,6.9v1.8
		C529.1,88.4,526.8,91.1,522.5,91.1z M524.9,82.4c0-2.1-0.8-3.2-2.3-3.2s-2.4,1.1-2.4,3.2v1.8c0,2.1,0.8,3.2,2.4,3.2
		s2.3-1.1,2.3-3.2V82.4z"/>
	<path class="st4" d="M544.2,78.5l-0.8,0.3c0.3,0.5,0.6,1.3,0.6,2v0.2c0,3.4-2.4,4.9-6.5,4.9c-1.2,0-2.2-0.2-2.7-0.4
		c-0.3,0.2-0.4,0.4-0.4,0.6c0,0.4,0.2,0.6,0.8,0.7l3,0.7c4.6,1,6.2,1.7,6.2,4.3v0.2c0,2.9-2.3,4.3-6.9,4.3c-4.4,0-6.7-1.5-6.7-4.3
		v-0.2c0-1.1,0.4-2.1,1.6-3c-1-0.5-1.3-1.6-1.3-2.5c0-1,0.5-1.7,1.2-2.2c-0.8-0.7-1.2-2.1-1.2-3.1v-0.2c0-3,2-5,6.6-5h6.6
		c0.4,0,0.7,0.3,0.7,0.7v1.5C544.7,78.3,544.5,78.4,544.2,78.5z M539.9,91.7c0-0.5-0.3-0.8-2.7-1.4l-2-0.4c-0.3,0.4-0.5,0.9-0.5,1.8
		v0.2c0,0.9,0.6,1.3,2.6,1.3c2.2,0,2.6-0.6,2.6-1.3V91.7z M539.8,80.7c0-1.1-0.5-1.9-2.3-1.9c-1.9,0-2.4,0.8-2.4,1.9v0.2
		c0,0.9,0.4,1.8,2.4,1.8c1.8,0,2.3-0.7,2.3-1.8V80.7z"/>
	<path class="st4" d="M553.9,79.1h-0.2c-1.3,0-2.4,0.4-3.4,0.9v10.3c0,0.3-0.2,0.6-0.5,0.6h-3.2c-0.3,0-0.6-0.3-0.6-0.6v-14
		c0-0.3,0.2-0.5,0.5-0.5h3.1c0.3,0,0.5,0.2,0.5,0.5v0.5c1-0.8,2.3-1.3,3.6-1.3c0.3,0,0.5,0.2,0.5,0.5v2.5
		C554.3,78.8,554.1,79.1,553.9,79.1z"/>
	<path class="st4" d="M566.1,90.9h-3c-0.3,0-0.5-0.2-0.5-0.5v-0.4c-1,0.7-2.1,1.2-3.7,1.2c-2.3,0-4.5-1.1-4.5-4.5v-0.2
		c0-3.1,2-4.5,6.5-4.5h1.4v-1c0-1.5-0.7-1.8-2-1.8c-1.7,0-3.6,0.1-4.4,0.2h-0.1c-0.3,0-0.5-0.1-0.5-0.5v-2.1c0-0.3,0.2-0.5,0.5-0.6
		c1-0.2,2.8-0.6,4.6-0.6c3.8,0,6.2,1.5,6.2,5.4v9.4C566.7,90.6,566.4,90.9,566.1,90.9z M562.5,84.4H561c-1.8,0-2.3,0.6-2.3,1.9v0.2
		c0,1.1,0.6,1.3,1.7,1.3c0.8,0,1.5-0.3,2.2-0.6V84.4z"/>
	<path class="st4" d="M588.4,90.9h-3.2c-0.3,0-0.5-0.3-0.5-0.6v-9c0-1.7-0.4-2.2-1.6-2.2c-0.4,0-1.2,0.1-2,0.5
		c0.1,0.5,0.1,1.1,0.1,1.7v9c0,0.3-0.2,0.6-0.5,0.6h-3.2c-0.3,0-0.6-0.3-0.6-0.6v-9c0-1.7-0.3-2.2-1.5-2.2c-0.5,0-1.2,0.3-2,0.7
		v10.5c0,0.3-0.2,0.6-0.5,0.6h-3.2c-0.3,0-0.6-0.3-0.6-0.6v-14c0-0.3,0.2-0.5,0.5-0.5h3c0.3,0,0.5,0.2,0.5,0.5v0.6
		c1.1-0.7,2.4-1.3,3.9-1.3c1.4,0,2.4,0.4,3.1,1.3c1.5-0.9,2.6-1.3,4.3-1.3c3.5,0,4.5,2.3,4.5,5.8v9
		C588.9,90.6,588.6,90.9,588.4,90.9z"/>
	<path class="st4" d="M602.4,90.9h-3c-0.3,0-0.5-0.2-0.5-0.5v-0.4c-1,0.7-2.1,1.2-3.7,1.2c-2.3,0-4.5-1.1-4.5-4.5v-0.2
		c0-3.1,2-4.5,6.5-4.5h1.4v-1c0-1.5-0.7-1.8-2-1.8c-1.7,0-3.6,0.1-4.4,0.2h-0.1c-0.3,0-0.5-0.1-0.5-0.5v-2.1c0-0.3,0.2-0.5,0.5-0.6
		c1-0.2,2.8-0.6,4.6-0.6c3.8,0,6.2,1.5,6.2,5.4v9.4C602.9,90.6,602.7,90.9,602.4,90.9z M598.7,84.4h-1.5c-1.8,0-2.3,0.6-2.3,1.9v0.2
		c0,1.1,0.6,1.3,1.7,1.3c0.8,0,1.5-0.3,2.2-0.6V84.4z"/>
	<path class="st4" d="M617,90.4c-1.5,0.4-3.6,0.7-5.6,0.7c-4.3,0-6.6-2.5-6.6-6.8v-2.1c0-4.1,2.2-6.8,6.6-6.8c0.5,0,1.4,0.1,2.2,0.2
		v-4.6c0-0.3,0.2-0.5,0.5-0.5h3.2c0.3,0,0.6,0.2,0.6,0.5v18.5C617.8,90.1,617.7,90.3,617,90.4z M613.5,79.2
		c-0.6-0.1-1.5-0.1-2.2-0.1c-1.9,0-2.3,1.4-2.3,3.2v2.1c0,1.9,0.5,3.2,2.3,3.2c0.9,0,1.7-0.1,2.2-0.2V79.2z"/>
	<path class="st4" d="M626.3,91.1c-4.3,0-6.6-2.7-6.6-6.9v-1.8c0-4.2,2.3-6.9,6.6-6.9s6.6,2.7,6.6,6.9v1.8
		C632.9,88.4,630.6,91.1,626.3,91.1z M628.7,82.4c0-2.1-0.8-3.2-2.3-3.2s-2.4,1.1-2.4,3.2v1.8c0,2.1,0.8,3.2,2.4,3.2
		s2.3-1.1,2.3-3.2V82.4z"/>
	<path class="st4" d="M642.7,79.1h-0.2c-1.3,0-2.4,0.4-3.4,0.9v10.3c0,0.3-0.2,0.6-0.5,0.6h-3.2c-0.3,0-0.6-0.3-0.6-0.6v-14
		c0-0.3,0.2-0.5,0.5-0.5h3.1c0.3,0,0.5,0.2,0.5,0.5v0.5c1-0.8,2.3-1.3,3.6-1.3c0.3,0,0.5,0.2,0.5,0.5v2.5
		C643.1,78.8,643,79.1,642.7,79.1z"/>
</g>
<g>
	<path class="st4" d="M494.1,220.2h-3.5c-0.3,0-0.5-0.2-0.5-0.5v-18.6c0-0.3,0.2-0.5,0.5-0.5h3.5c0.3,0,0.5,0.2,0.5,0.5v18.6
		C494.6,220,494.4,220.2,494.1,220.2z"/>
	<path class="st4" d="M509.6,220.2h-3.2c-0.3,0-0.5-0.3-0.5-0.6v-8.8c0-1.8-0.3-2.5-2-2.5c-0.8,0-1.6,0.4-2.5,0.8v10.4
		c0,0.3-0.2,0.6-0.5,0.6h-3.2c-0.3,0-0.6-0.3-0.6-0.6v-14c0-0.3,0.2-0.5,0.5-0.5h3c0.3,0,0.5,0.2,0.5,0.5v0.6c1.5-1,2.6-1.4,4.3-1.4
		c3.8,0,4.7,2.7,4.7,6v8.8C510.2,219.9,509.9,220.2,509.6,220.2z"/>
	<path class="st4" d="M525.7,207.8l-0.8,0.3c0.3,0.5,0.6,1.3,0.6,2v0.2c0,3.4-2.4,4.9-6.5,4.9c-1.2,0-2.2-0.2-2.7-0.4
		c-0.3,0.2-0.4,0.4-0.4,0.6c0,0.4,0.2,0.6,0.8,0.7l3,0.7c4.6,1,6.2,1.7,6.2,4.3v0.2c0,2.9-2.3,4.3-6.9,4.3c-4.4,0-6.7-1.5-6.7-4.3
		v-0.2c0-1.1,0.4-2.1,1.6-3c-1-0.5-1.3-1.6-1.3-2.5c0-1,0.5-1.7,1.2-2.2c-0.8-0.7-1.2-2.1-1.2-3.1v-0.2c0-3,2-5,6.6-5h6.6
		c0.4,0,0.7,0.3,0.7,0.7v1.5C526.2,207.6,526,207.7,525.7,207.8z M521.4,221.1c0-0.5-0.3-0.8-2.7-1.4l-2-0.4
		c-0.3,0.4-0.5,0.9-0.5,1.8v0.2c0,0.9,0.6,1.3,2.6,1.3c2.2,0,2.6-0.6,2.6-1.3V221.1z M521.3,210.1c0-1.1-0.5-1.9-2.3-1.9
		c-1.9,0-2.4,0.8-2.4,1.9v0.2c0,0.9,0.4,1.8,2.4,1.8c1.8,0,2.3-0.7,2.3-1.8V210.1z"/>
	<path class="st4" d="M539.7,214h-8.4v0.1c0,1.5,0.6,2.9,2.7,2.9c1.7,0,4-0.1,5.1-0.2c0,0,0.1,0,0.1,0c0.3,0,0.5,0.1,0.5,0.4v2
		c0,0.4-0.1,0.6-0.6,0.7c-1.7,0.4-3.1,0.6-5.4,0.6c-3.2,0-6.6-1.7-6.6-6.8v-1.8c0-4.3,2.5-6.9,6.7-6.9c4.3,0,6.5,3,6.5,6.9v1.5
		C540.3,213.7,540.1,214,539.7,214z M536.1,211.2c0-2-0.9-2.9-2.4-2.9c-1.5,0-2.4,1-2.4,2.9v0.1h4.8V211.2z"/>
	<path class="st4" d="M554.6,220.2h-3.2c-0.3,0-0.5-0.3-0.5-0.6v-8.8c0-1.8-0.3-2.5-2-2.5c-0.8,0-1.6,0.4-2.5,0.8v10.4
		c0,0.3-0.2,0.6-0.5,0.6h-3.2c-0.3,0-0.6-0.3-0.6-0.6v-14c0-0.3,0.2-0.5,0.5-0.5h3c0.3,0,0.5,0.2,0.5,0.5v0.6c1.5-1,2.6-1.4,4.3-1.4
		c3.8,0,4.7,2.7,4.7,6v8.8C555.2,219.9,554.9,220.2,554.6,220.2z"/>
	<path class="st4" d="M561.5,203.3H558c-0.3,0-0.5-0.2-0.5-0.5v-2.5c0-0.3,0.2-0.5,0.5-0.5h3.4c0.3,0,0.5,0.2,0.5,0.5v2.5
		C562,203.1,561.8,203.3,561.5,203.3z M561.4,220.2h-3.2c-0.3,0-0.5-0.2-0.5-0.5v-14.1c0-0.3,0.2-0.5,0.5-0.5h3.2
		c0.3,0,0.5,0.2,0.5,0.5v14.1C561.9,220,561.6,220.2,561.4,220.2z"/>
	<path class="st4" d="M576.6,214h-8.4v0.1c0,1.5,0.6,2.9,2.7,2.9c1.7,0,4-0.1,5.1-0.2c0,0,0.1,0,0.1,0c0.3,0,0.5,0.1,0.5,0.4v2
		c0,0.4-0.1,0.6-0.6,0.7c-1.7,0.4-3.1,0.6-5.4,0.6c-3.2,0-6.6-1.7-6.6-6.8v-1.8c0-4.3,2.5-6.9,6.7-6.9c4.3,0,6.5,3,6.5,6.9v1.5
		C577.1,213.7,576.9,214,576.6,214z M572.9,211.2c0-2-0.9-2.9-2.4-2.9c-1.5,0-2.4,1-2.4,2.9v0.1h4.8V211.2z"/>
	<path class="st4" d="M586.9,208.4h-0.2c-1.3,0-2.4,0.4-3.4,0.9v10.3c0,0.3-0.2,0.6-0.5,0.6h-3.2c-0.3,0-0.6-0.3-0.6-0.6v-14
		c0-0.3,0.2-0.5,0.5-0.5h3.1c0.3,0,0.5,0.2,0.5,0.5v0.5c1-0.8,2.3-1.3,3.6-1.3c0.3,0,0.5,0.2,0.5,0.5v2.5
		C587.3,208.1,587.2,208.4,586.9,208.4z"/>
	<path class="st4" d="M595.6,200l-3.2,3.2c-0.2,0.2-0.3,0.3-0.6,0.3H589c-0.2,0-0.3-0.1-0.3-0.2c0-0.1,0.1-0.2,0.1-0.3l2.5-3.1
		c0.2-0.3,0.3-0.4,0.7-0.4h3.5c0.2,0,0.3,0.1,0.3,0.2C595.7,199.9,595.7,199.9,595.6,200z M592.5,220.2h-3.2c-0.3,0-0.6-0.3-0.6-0.6
		v-14c0-0.3,0.3-0.6,0.6-0.6h3.2c0.3,0,0.6,0.3,0.6,0.6v14C593,219.9,592.8,220.2,592.5,220.2z"/>
	<path class="st4" d="M606.6,220.2h-3c-0.3,0-0.5-0.2-0.5-0.5v-0.4c-1,0.7-2.1,1.2-3.7,1.2c-2.3,0-4.5-1.1-4.5-4.5v-0.2
		c0-3.1,2-4.5,6.5-4.5h1.4v-1c0-1.5-0.7-1.8-2-1.8c-1.7,0-3.6,0.1-4.4,0.2h-0.1c-0.3,0-0.5-0.1-0.5-0.5V206c0-0.3,0.2-0.5,0.5-0.6
		c1-0.2,2.8-0.6,4.6-0.6c3.8,0,6.2,1.5,6.2,5.4v9.4C607.1,220,606.9,220.2,606.6,220.2z M602.9,213.7h-1.5c-1.8,0-2.3,0.6-2.3,1.9
		v0.2c0,1.1,0.6,1.3,1.7,1.3c0.8,0,1.5-0.3,2.2-0.6V213.7z"/>
	<path class="st4" d="M627.7,214h-8.4v0.1c0,1.5,0.6,2.9,2.7,2.9c1.7,0,4-0.1,5.1-0.2c0,0,0.1,0,0.1,0c0.3,0,0.5,0.1,0.5,0.4v2
		c0,0.4-0.1,0.6-0.6,0.7c-1.7,0.4-3.1,0.6-5.4,0.6c-3.2,0-6.6-1.7-6.6-6.8v-1.8c0-4.3,2.5-6.9,6.7-6.9c4.3,0,6.5,3,6.5,6.9v1.5
		C628.3,213.7,628,214,627.7,214z M624.1,211.2c0-2-0.9-2.9-2.4-2.9c-1.5,0-2.4,1-2.4,2.9v0.1h4.8V211.2z"/>
	<path class="st4" d="M642.6,220.2h-3.2c-0.3,0-0.5-0.3-0.5-0.6v-8.8c0-1.8-0.3-2.5-2-2.5c-0.8,0-1.6,0.4-2.5,0.8v10.4
		c0,0.3-0.2,0.6-0.5,0.6h-3.2c-0.3,0-0.6-0.3-0.6-0.6v-14c0-0.3,0.2-0.5,0.5-0.5h3c0.3,0,0.5,0.2,0.5,0.5v0.6c1.5-1,2.6-1.4,4.3-1.4
		c3.8,0,4.7,2.7,4.7,6v8.8C643.2,219.9,642.9,220.2,642.6,220.2z"/>
	<path class="st4" d="M504.6,251.9h-3.5c-0.3,0-0.5-0.2-0.5-0.5v-18.6c0-0.3,0.2-0.5,0.5-0.5h3.5c0.3,0,0.5,0.2,0.5,0.5v18.6
		C505.1,251.6,504.9,251.9,504.6,251.9z"/>
	<path class="st4" d="M520.2,251.9H517c-0.3,0-0.5-0.3-0.5-0.6v-8.8c0-1.8-0.3-2.5-2-2.5c-0.8,0-1.6,0.4-2.5,0.8v10.4
		c0,0.3-0.2,0.6-0.5,0.6h-3.2c-0.3,0-0.6-0.3-0.6-0.6v-14c0-0.3,0.2-0.5,0.5-0.5h3c0.3,0,0.5,0.2,0.5,0.5v0.6c1.5-1,2.6-1.4,4.3-1.4
		c3.8,0,4.7,2.7,4.7,6v8.8C520.7,251.6,520.5,251.9,520.2,251.9z"/>
	<path class="st4" d="M530.8,234.6h-1.3c-0.8,0-0.9,0.2-0.9,1.2v0.9h2.2c0.3,0,0.5,0.2,0.5,0.5v2.1c0,0.3-0.2,0.5-0.5,0.5h-2.2v11.4
		c0,0.3-0.2,0.5-0.5,0.5h-3.2c-0.3,0-0.5-0.2-0.5-0.5v-11.4l-2.1-0.3c-0.3-0.1-0.6-0.3-0.6-0.6v-1.7c0-0.3,0.3-0.6,0.6-0.6h2.1v-0.8
		c0-3.7,1.5-4.5,4.4-4.5c0.8,0,1.3,0.1,2.1,0.2c0.3,0.1,0.5,0.3,0.5,0.5v2.1C531.4,234.5,531.2,234.6,530.8,234.6z"/>
	<path class="st4" d="M538.5,252.1c-4.3,0-6.6-2.7-6.6-6.9v-1.8c0-4.2,2.3-6.9,6.6-6.9s6.6,2.7,6.6,6.9v1.8
		C545.1,249.4,542.8,252.1,538.5,252.1z M540.8,243.4c0-2.1-0.8-3.2-2.3-3.2s-2.4,1.1-2.4,3.2v1.8c0,2.1,0.8,3.2,2.4,3.2
		s2.3-1.1,2.3-3.2V243.4z"/>
	<path class="st4" d="M554.9,240.1h-0.2c-1.3,0-2.4,0.4-3.4,0.9v10.3c0,0.3-0.2,0.6-0.5,0.6h-3.2c-0.3,0-0.6-0.3-0.6-0.6v-14
		c0-0.3,0.2-0.5,0.5-0.5h3.1c0.3,0,0.5,0.2,0.5,0.5v0.5c1-0.8,2.3-1.3,3.6-1.3c0.3,0,0.5,0.2,0.5,0.5v2.5
		C555.3,239.8,555.1,240.1,554.9,240.1z"/>
	<path class="st4" d="M576,251.9h-3.2c-0.3,0-0.5-0.3-0.5-0.6v-9c0-1.7-0.4-2.2-1.6-2.2c-0.4,0-1.2,0.1-2,0.5
		c0.1,0.5,0.1,1.1,0.1,1.7v9c0,0.3-0.2,0.6-0.5,0.6H565c-0.3,0-0.6-0.3-0.6-0.6v-9c0-1.7-0.3-2.2-1.5-2.2c-0.5,0-1.2,0.3-2,0.7v10.5
		c0,0.3-0.2,0.6-0.5,0.6h-3.2c-0.3,0-0.6-0.3-0.6-0.6v-14c0-0.3,0.2-0.5,0.5-0.5h3c0.3,0,0.5,0.2,0.5,0.5v0.6
		c1.1-0.7,2.4-1.3,3.9-1.3c1.4,0,2.4,0.4,3.1,1.3c1.5-0.9,2.6-1.3,4.3-1.3c3.5,0,4.5,2.3,4.5,5.8v9
		C576.5,251.6,576.3,251.9,576,251.9z"/>
	<path class="st4" d="M590,251.9h-3c-0.3,0-0.5-0.2-0.5-0.5v-0.4c-1,0.7-2.1,1.2-3.7,1.2c-2.3,0-4.5-1.1-4.5-4.5v-0.2
		c0-3.1,2-4.5,6.5-4.5h1.4v-1c0-1.5-0.7-1.8-2-1.8c-1.7,0-3.6,0.1-4.4,0.2h-0.1c-0.3,0-0.5-0.1-0.5-0.5v-2.1c0-0.3,0.2-0.5,0.5-0.6
		c1-0.2,2.8-0.6,4.6-0.6c3.8,0,6.2,1.5,6.2,5.4v9.4C590.5,251.6,590.3,251.9,590,251.9z M586.3,245.4h-1.5c-1.8,0-2.3,0.6-2.3,1.9
		v0.2c0,1.1,0.6,1.3,1.7,1.3c0.8,0,1.5-0.3,2.2-0.6V245.4z M589.4,231.7l-3.2,3.2c-0.2,0.2-0.3,0.3-0.6,0.3h-2.8
		c-0.2,0-0.2-0.1-0.2-0.2c0-0.1,0-0.2,0.1-0.3l2.5-3.1c0.2-0.3,0.3-0.4,0.7-0.4h3.5c0.2,0,0.3,0.1,0.3,0.2
		C589.5,231.5,589.5,231.6,589.4,231.7z"/>
	<path class="st4" d="M600.4,251.9c-0.8,0.1-1.3,0.2-2.1,0.2c-2.9,0-4.4-0.8-4.4-4.5v-7.7l-2.1-0.3c-0.3-0.1-0.6-0.3-0.6-0.6v-1.7
		c0-0.3,0.3-0.6,0.6-0.6h2.1v-2.2c0-0.3,0.2-0.5,0.5-0.5l3.2-0.6c0,0,0.1,0,0.1,0c0.3,0,0.5,0.2,0.5,0.4v2.8h2.2
		c0.3,0,0.5,0.2,0.5,0.5v2.1c0,0.3-0.2,0.5-0.5,0.5h-2.2v7.7c0,1.1,0.1,1.2,0.9,1.2h1.3c0.3,0,0.6,0.2,0.6,0.4v2.1
		C600.9,251.6,600.8,251.8,600.4,251.9z"/>
	<path class="st4" d="M606.5,235H603c-0.3,0-0.5-0.2-0.5-0.5V232c0-0.3,0.2-0.5,0.5-0.5h3.4c0.3,0,0.5,0.2,0.5,0.5v2.5
		C607,234.8,606.7,235,606.5,235z M606.3,251.9h-3.2c-0.3,0-0.5-0.2-0.5-0.5v-14.1c0-0.3,0.2-0.5,0.5-0.5h3.2c0.3,0,0.5,0.2,0.5,0.5
		v14.1C606.9,251.6,606.6,251.9,606.3,251.9z"/>
	<path class="st4" d="M618.6,251.7c-0.7,0.2-1.9,0.4-3.5,0.4c-3.7,0-6.2-2.4-6.2-6.7v-2.2c0-4.3,2.4-6.7,6.2-6.7
		c1.6,0,2.8,0.2,3.5,0.4c0.4,0.1,0.6,0.2,0.6,0.6v2.3c0,0.3-0.2,0.4-0.5,0.4c0,0,0,0-0.1,0c-1-0.1-1.7-0.2-3.2-0.2
		c-1.2,0-2.2,0.7-2.2,3.1v2.2c0,2.3,1,3.1,2.2,3.1c1.5,0,2.2-0.1,3.2-0.2c0,0,0.1,0,0.1,0c0.3,0,0.5,0.2,0.5,0.4v2.3
		C619.1,251.5,619,251.6,618.6,251.7z"/>
	<path class="st4" d="M632.1,251.9h-3c-0.3,0-0.5-0.2-0.5-0.5v-0.4c-1,0.7-2.1,1.2-3.7,1.2c-2.3,0-4.5-1.1-4.5-4.5v-0.2
		c0-3.1,2-4.5,6.5-4.5h1.4v-1c0-1.5-0.7-1.8-2-1.8c-1.7,0-3.6,0.1-4.4,0.2h-0.1c-0.3,0-0.5-0.1-0.5-0.5v-2.1c0-0.3,0.2-0.5,0.5-0.6
		c1-0.2,2.8-0.6,4.6-0.6c3.8,0,6.2,1.5,6.2,5.4v9.4C632.6,251.6,632.4,251.9,632.1,251.9z M628.4,245.4h-1.5c-1.8,0-2.3,0.6-2.3,1.9
		v0.2c0,1.1,0.6,1.3,1.7,1.3c0.8,0,1.5-0.3,2.2-0.6V245.4z"/>
</g>
</svg>
