<?xml version="1.0" encoding="utf-8"?>
<!-- Generator: Adobe Illustrator 20.1.0, SVG Export Plug-In . SVG Version: 6.00 Build 0)  -->
<svg version="1.1" id="Capa_1" xmlns="http://www.w3.org/2000/svg" xmlns:xlink="http://www.w3.org/1999/xlink" x="0px" y="0px"
	 viewBox="0 0 716.7 277.3" style="enable-background:new 0 0 716.7 277.3;" xml:space="preserve">
<style type="text/css">
	.st0{display:none;fill:#C4122E;}
	.st1{fill:#B600A6;}
	.st2{fill:#A700A6;}
	.st3{fill:#F000A6;}
</style>
<path class="st0" d="M116.1,130c5.4,0.1,9.7-3.9,9.8-9.5c0.1-5.4-4.3-9.6-9.7-9.6c-5.8,0-9.8,4.4-9.8,9.6
	C106.4,125.8,110.6,130.1,116.1,130z M70,125.5c0,1.1,0,2.3,0,3.5c0,0.2,0.3,0.5,0.5,0.5c0.7,0.1,1.4,0.2,2.1,0.3
	c2,0.2,4,0.2,5.9-0.4c4.3-1.4,5.2-6.2,2.9-8.9c-1-1.1-2.3-1.7-3.6-2.1c-0.7-0.2-1.5-0.4-2.1-0.8c-0.4-0.3-0.8-0.9-0.8-1.3
	s0.6-1,1-1.1c0.9-0.2,1.9-0.3,2.8-0.3s1.7,0.3,2.7,0.4c0-1.1,0-2.1,0-3.1c0-0.6-0.2-0.8-0.7-0.9c-1.9-0.3-3.9-0.6-5.9-0.2
	c-3.3,0.6-5.4,3.4-4.8,6.7c0.5,2.4,2.2,3.5,4.3,4.2c0.8,0.3,1.6,0.5,2.4,0.9c0.6,0.3,1.1,0.8,1,1.5c-0.1,0.8-0.6,1.1-1.2,1.3
	c-0.4,0.1-0.8,0.2-1.2,0.2C73.5,125.8,71.8,125.7,70,125.5z M101.3,116.3c0-1.5,0-2.9,0-4.3c0-0.2-0.3-0.6-0.5-0.7
	c-2.3-0.7-4.6-0.8-6.9-0.1c-3.7,1.2-6,3.8-6.5,7.7c-0.5,3.4,0.5,6.4,3.1,8.6c3.2,2.7,6.9,2.8,10.8,1.7c0-1.6,0-3.2,0-4.6
	c-1.4,0.2-2.8,0.5-4.2,0.6c-2.3,0.1-4.5-1.8-4.7-3.9c-0.4-2.9,1-5.2,3.6-5.8C97.8,115.1,99.5,115.5,101.3,116.3z M52.4,124.8
	c-1.5,0.2-2.9,0.5-4.3,0.5c-3,0.1-5.3-3-4.7-5.9c0.7-3.3,3.6-4.4,6.3-3.9c0.9,0.1,1.7,0.5,2.7,0.7c0-1.5,0-2.9,0-4.3
	c0-0.2-0.3-0.5-0.6-0.6c-1.7-0.5-3.5-0.6-5.3-0.4c-5.9,0.8-9.5,6.3-7.8,12.3c1.7,6.1,8.2,7.8,13.3,6.2c0.1,0,0.3-0.3,0.3-0.4
	C52.4,127.5,52.4,126.1,52.4,124.8z M110,88.3c0-4.1,0-8.2,0-12.3c0-1.6-1.5-2.7-3-2.2c-1,0.3-1.6,1.3-1.6,2.7c0,7.9,0,15.8,0,23.7
	c0,0.2,0,0.4,0,0.5c0.2,1.4,1.2,2.3,2.4,2.2c1.3-0.1,2.1-1,2.1-2.5C110,96.4,110,92.3,110,88.3z M58.8,88.3L58.8,88.3
	c0-4.2,0-8.3,0-12.5c0-1.1-0.7-1.9-1.9-2.1c-1-0.2-2,0.4-2.4,1.3c-0.2,0.5-0.2,1.1-0.2,1.7c0,6.9,0,13.9,0,20.8c0,1,0,2,0,3.1
	c0.1,1.5,1,2.4,2.3,2.3c1.2,0,2.3-1,2.2-2.5C58.7,96.4,58.8,92.4,58.8,88.3z M63.4,129.6c0-6.2,0-12.2,0-18.3c-1.5,0-3,0-4.5,0
	c0,6.1,0,12.2,0,18.3C60.5,129.6,62,129.6,63.4,129.6z M46,90.4c0-1.9,0-3.7,0-5.6c0-1.3-0.8-2.2-2-2.4c-1-0.2-2.1,0.6-2.4,1.7
	c-0.1,0.6-0.2,1.2-0.2,1.8c0,3.3,0,6.6,0,9.9c0,1.4,1.1,2.6,2.3,2.6c1.1-0.1,2.3-0.9,2.3-2.6C46,94,46,92.2,46,90.4z M122.7,90.4
	c0-1.9,0-3.8,0-5.7c0-1.1-0.5-1.7-1.5-2.1c-0.9-0.3-1.9-0.2-2.5,0.7c-0.4,0.6-0.6,1.3-0.6,2c-0.1,3.4,0,6.8,0,10.1
	c0,0.3,0,0.6,0.1,0.9c0.2,1.2,1.3,2.1,2.4,2c1.2-0.1,2.1-1,2.1-2.3C122.7,94.1,122.7,92.2,122.7,90.4z M92.6,90.4c0,1.8,0,3.6,0,5.4
	c0,1.5,1,2.6,2.3,2.6s2.3-1.1,2.3-2.6c0-3.6,0-7.2,0-10.8c0-1.5-1-2.6-2.3-2.5c-1.3,0-2.3,1.1-2.3,2.6
	C92.6,86.8,92.6,88.6,92.6,90.4z M71.6,90.4C71.6,90.4,71.5,90.4,71.6,90.4c0-2,0-4,0-6c0-1.1-1.2-2-2.3-1.9c-1.1,0.1-2.1,1-2.1,2.1
	c0,3.9,0,7.8,0,11.7c0,0.8,0.4,1.4,1.1,1.8c1.5,0.8,3.2-0.1,3.3-1.8C71.6,94.3,71.6,92.3,71.6,90.4z M79.8,93.6c0,0.8,0,1.7,0,2.5
	c0,1.2,0.9,2.1,2.1,2.3c1,0.1,2.2-0.7,2.3-1.8c0.1-1.9,0.2-3.9,0-5.8c-0.1-1.3-1.2-2-2.5-1.8c-1.1,0.1-1.9,1.1-1.9,2.3
	C79.8,92,79.8,92.8,79.8,93.6z M33.3,93.6c0-0.8,0-1.6,0-2.4c0-1.4-1-2.3-2.3-2.3s-2.3,0.9-2.3,2.3c0,1.6,0,3.2,0,4.7
	c0,1.3,1.1,2.4,2.3,2.4c1.2,0,2.3-1.1,2.3-2.4C33.3,95.2,33.3,94.4,33.3,93.6z M135.5,93.5L135.5,93.5c0-0.9,0-1.8,0-2.7
	c-0.1-1.2-1-2-2.2-2s-2.2,0.9-2.2,2c0,1.8,0,3.5,0,5.3c0,1.2,1,2.1,2.2,2.2c1.1,0,2.2-0.9,2.2-2.1C135.5,95.3,135.5,94.4,135.5,93.5
	z M133.2,129.4C133.2,129.4,133.3,129.4,133.2,129.4c0.1-0.5,0.2-1,0.2-1.8c0.3,0.8,0.6,1.4,0.9,2.2c0.3-0.8,0.6-1.3,0.8-1.9
	c0.1,0,0.1,0,0.2,0c0,0.5,0,1,0,1.5h0.1c0-0.7,0-1.4,0-2.1c-0.1,0-0.2,0-0.2-0.1c-0.3,0.6-0.5,1.3-0.8,1.9c-0.3-0.7-0.6-1.3-0.8-2
	c-0.1,0-0.2,0.1-0.3,0.1C133.2,128.1,133.2,128.8,133.2,129.4z M132.3,127.4c-0.2,0-0.7,0-1.3,0c0.4,0.1,0.6,0.2,0.9,0.2
	c0,0.7,0,1.3,0,2h0.1C132,128.8,132.2,128.1,132.3,127.4z"/>
<g>
	<path class="st1" d="M56.9,49.5l-0.6,3.3c-1.8,10.4-8.1,12.9-14.4,12.9c-5.5,0-10.2-2.9-10.2-9.7c0-1,0.1-2,0.3-3.2l0.6-3.3
		c1.8-10.3,8.1-12.9,14.4-12.9c5.5,0,10.2,2.8,10.2,9.7C57.2,47.2,57.1,48.3,56.9,49.5z M45.6,44.5c-2.1,0-3.3,1.3-3.9,5l-0.6,3.3
		c-0.2,0.9-0.2,1.6-0.2,2.3c0,1.9,0.8,2.7,2.4,2.7c2.1,0,3.3-1.3,3.9-5l0.6-3.3c0.2-0.9,0.2-1.6,0.2-2.3
		C48,45.3,47.2,44.5,45.6,44.5z"/>
	<path class="st1" d="M74.5,42.8c0.6,0,0.9,0.2,0.8,0.8l-0.8,4.6c-0.1,0.5-0.3,0.8-1,0.8h-2.7l-1.6,9.4c0,0.2-0.1,0.4-0.1,0.6
		c0,0.4,0.2,0.5,0.7,0.5h1.8c0.5,0,0.8,0.1,0.6,0.8l-0.7,4.2c-0.1,0.5-0.2,0.7-1,0.8c-1.6,0.3-2.4,0.4-4.1,0.4c-2.7,0-6-1.1-6-5.5
		c0-0.6,0.1-1.2,0.2-1.9l1.6-9.2l-2.1-0.4c-0.4-0.1-0.8-0.2-0.7-0.8l0.7-4.2c0.1-0.5,0.3-0.8,1-0.8h2.2l0.5-3.1
		c0.1-0.5,0.2-0.7,1-0.8l6.8-1.1c0.8-0.1,1.1,0.2,1,0.8L71.8,43h2.7C74.5,43,74.5,42.8,74.5,42.8z"/>
	<path class="st1" d="M96.9,53.2L96.6,55c-1.4,8.1-5.9,10.8-12.4,10.8c-5.7,0-8.8-3.1-8.8-8.2c0-0.8,0.1-1.7,0.2-2.6l0.3-1.8
		c1.4-8,5.9-10.8,12.4-10.8c5.7,0,8.9,2.8,8.9,8.1C97.1,51.3,97,52.2,96.9,53.2z M87,49.4c-1.3,0-2.2,1.1-2.7,3.7L84,54.9
		c-0.1,0.7-0.2,1.3-0.2,1.8c0,1.5,0.6,1.9,1.6,1.9c1.3,0,2.1-0.8,2.7-3.7l0.3-1.8c0.1-0.7,0.2-1.3,0.2-1.8
		C88.6,49.9,88,49.4,87,49.4z"/>
	<path class="st1" d="M121.5,51.2l-2.3,13.2c-0.1,0.5-0.5,0.8-1,0.8h-6.9c-0.4,0-0.7-0.3-0.7-0.7c0-0.1,0-0.1,0-0.2l2.4-13.1
		c0-0.2,0-0.3,0-0.5c0-1-0.7-1.4-1.6-1.4c-0.7,0-1.5,0.2-2.2,0.6l-2.6,14.5c-0.1,0.5-0.5,0.8-0.9,0.8h-6.9c-0.4,0-0.7-0.3-0.7-0.7
		v-0.1l3.7-20.9c0.1-0.4,0.5-0.8,0.9-0.8h6.3c0.4,0,0.6,0.3,0.6,0.6v0.1l-0.2,1.1c2-1.5,3.4-2.2,6.5-2.2c4.5,0,5.8,3,5.8,6.2
		C121.8,49.5,121.7,50.4,121.5,51.2z M122,35.7l-0.2,1.5c-0.5,3-2.6,4.4-5.4,4.4c-1.1,0-2.4-0.3-3.5-0.9l-1.4-0.8
		c-0.6-0.3-1-0.5-1.3-0.5s-0.5,0.1-0.6,0.5l-0.1,0.6c-0.1,0.4-0.4,0.6-0.8,0.6H105c-0.4,0-0.6-0.2-0.6-0.5c0,0,0-0.1,0-0.2l0.2-1.3
		c0.5-3.2,2.7-4.7,5.3-4.7c1.1,0,2.6,0.3,3.7,0.9l1.4,0.8c0.6,0.3,1.1,0.5,1.4,0.5c0.4,0,0.5-0.2,0.6-0.5l0.1-0.6
		c0.1-0.4,0.4-0.6,0.8-0.6h3.6c0.4,0,0.6,0.2,0.6,0.5C122,35.6,122,35.6,122,35.7z"/>
	<path class="st1" d="M145.4,53.2l-0.3,1.8c-1.4,8.1-5.9,10.8-12.4,10.8c-5.7,0-8.8-3.1-8.8-8.2c0-0.8,0.1-1.7,0.2-2.6l0.3-1.8
		c1.4-8,5.9-10.8,12.4-10.8c5.7,0,8.9,2.8,8.9,8.1C145.7,51.3,145.6,52.2,145.4,53.2z M135.6,49.4c-1.3,0-2.2,1.1-2.7,3.7l-0.3,1.8
		c-0.1,0.7-0.2,1.3-0.2,1.8c0,1.5,0.6,1.9,1.6,1.9c1.3,0,2.1-0.8,2.7-3.7l0.3-1.7c0.1-0.7,0.2-1.3,0.2-1.8
		C137.2,49.9,136.6,49.4,135.6,49.4z"/>
	<path class="st1" d="M180.6,44.4c-0.7,4.1-3.5,6.3-8.1,8.7c-3.1,1.6-5.5,2.9-6.5,4.6h11c0.4,0,0.7,0.3,0.7,0.6v0.1l-1.1,6.1
		c-0.1,0.4-0.5,0.8-1,0.8H157c-0.4,0-0.6-0.3-0.6-0.6v-0.1l0.7-4.2c1-6,4.9-9,9-11.5c4.7-2.9,5.2-2.8,5.4-4c0-0.1,0-0.2,0-0.3
		c0-0.6-0.5-0.8-3-0.8s-5,0.4-7.4,0.4l0,0c-0.3,0-0.6-0.3-0.6-0.6v-0.1l0,0l0.8-4.4c0.1-0.4,0.5-0.6,0.9-0.8
		c2.6-0.9,5.9-1.6,9.4-1.6c6.8,0,9.2,2.7,9.2,6.3C180.7,43.3,180.6,43.8,180.6,44.4z"/>
	<path class="st1" d="M205.7,49l-0.7,4.2c-1.5,8.5-6.1,12.5-13.2,12.5c-5.9,0-9.1-2.8-9.1-8.7c0-1.1,0.1-2.4,0.3-3.8l0.7-4.2
		c1.5-8.5,6.1-12.5,13.2-12.5c5.9,0,9.1,2.8,9.1,8.7C206,46.4,205.9,47.7,205.7,49z M195.6,44.2c-1.1,0-2,0.6-2.7,4.8l-0.7,4.2
		c-0.2,1.2-0.3,2.2-0.3,2.9c0,1.7,0.6,1.9,1.4,1.9c1.1,0,2-0.6,2.7-4.8l0.7-4.2c0.2-1.2,0.3-2.2,0.3-2.9
		C197,44.5,196.4,44.2,195.6,44.2z"/>
	<path class="st1" d="M214.6,57.7l2.1-11.9l-4.8,1.5c-0.2,0.1-0.4,0.1-0.5,0.1c-0.3,0-0.3-0.2-0.3-0.5l1.1-6.5
		c0.1-0.4,0.3-0.6,0.6-0.8l7.4-2.6c0.3-0.1,0.5-0.2,0.9-0.2h5.3c0.4,0,0.7,0.3,0.6,0.8l-3.5,20h4.6c0.4,0,0.7,0.3,0.6,0.8l-1.1,6.1
		c-0.1,0.4-0.5,0.8-0.9,0.8h-18.2c-0.4,0-0.8-0.3-0.7-0.8l1.1-6.1c0.1-0.4,0.5-0.8,1-0.8h4.7L214.6,57.7L214.6,57.7z"/>
	<path class="st1" d="M257.3,37.7l-1,5.6c-0.1,0.4-0.4,0.8-0.9,0.8H245l-0.8,3.1h1.7c7.1,0,9,3.5,9,6.9c0,8.5-5.2,11.6-13.3,11.6
		c-2.8,0-5.6-0.5-7.7-1.4c-0.3-0.1-0.7-0.3-0.7-0.6v-0.1L234,59c0.1-0.6,0.4-0.8,0.8-0.8h0.1c2.2,0.2,5,0.4,6.1,0.4
		c2.6,0,4.5-0.3,4.5-3.1c0-1-0.6-1.6-2.7-1.6h-7c-0.4,0-0.7-0.3-0.7-0.7c0-0.1,0-0.2,0-0.2l3.8-15.3c0.1-0.4,0.5-0.8,0.9-0.8h16.8
		c0.4,0,0.6,0.3,0.6,0.6C257.3,37.6,257.3,37.6,257.3,37.7L257.3,37.7z"/>
</g>
<g>
	<path class="st1" d="M400.6,46.5v0.3c-1.2,8.5-8.6,10-14,10c-0.8,0-1.2,0-2.3-0.1l-1.4,7.9c-0.1,0.4-0.3,0.8-0.9,0.8h-7.4
		c-0.3,0-0.6-0.2-0.6-0.6l4.3-24.4c0.4-2.4,1.1-2.9,3.2-3.2c1.9-0.3,5.8-0.5,8.4-0.5c5.2,0,10.7,2,10.7,8.3
		C400.7,45.4,400.6,45.9,400.6,46.5z M388.8,44.1h-2.3l-0.9,5.2h2.3c1.9,0,3.5-0.8,3.7-2.4v-0.3c0-0.2,0-0.3,0-0.5
		C391.7,44.6,390.6,44.1,388.8,44.1z"/>
	<path class="st1" d="M417.3,42.4c0.6,0,0.9,0.2,0.8,0.8l-1,5.4c-0.1,0.4-0.2,0.8-0.9,0.8H416c-2.3,0-3.5,0.2-4.4,0.6L409,64.5
		c-0.1,0.5-0.2,0.8-0.9,0.8h-6.9c-0.5,0-0.8-0.2-0.7-0.8l3.7-20.9c0.1-0.4,0.3-0.8,0.9-0.8h6c0.5,0,0.8,0.2,0.6,0.8l-0.2,1.1
		c1.5-1.8,3.7-2.3,5.5-2.3H417.3z"/>
	<path class="st1" d="M417.3,64.5l3.7-20.9c0.1-0.5,0.3-0.8,1-0.8h6.8c0.7,0,0.8,0.3,0.7,0.8l-3.7,20.9c-0.1,0.5-0.3,0.8-1,0.8H418
		C417.6,65.3,417.3,64.9,417.3,64.5z M430.3,35.6c0.5,0,0.9,0.1,0.8,0.8l-0.7,3.9c-0.1,0.5-0.3,0.8-1,0.8h-7.2
		c-0.7,0-0.8-0.4-0.7-0.8l0.7-3.9c0.1-0.5,0.3-0.8,1-0.8H430.3z"/>
	<path class="st1" d="M463.7,51.4l-2.3,13.1c-0.1,0.5-0.3,0.8-1,0.8h-6.9c-0.5,0-0.8-0.3-0.7-0.8l2.3-13.1c0-0.2,0.1-0.5,0.1-0.6
		c0-0.8-0.5-1-1.2-1c-0.5,0-1.1,0.1-1.7,0.2c-0.1,0.6-0.1,0.8-0.2,1.4l-2.3,13.1c-0.1,0.5-0.3,0.8-1,0.8H442c-0.6,0-0.8-0.4-0.7-0.8
		l2.3-13.1c0-0.3,0.1-0.5,0.1-0.6c0-0.8-0.4-1-1.2-1c-0.5,0-1.2,0.1-1.7,0.2l-2.6,14.5c-0.1,0.5-0.2,0.8-0.9,0.8h-6.9
		c-0.5,0-0.8-0.2-0.7-0.8l3.7-20.9c0.1-0.4,0.2-0.8,0.9-0.8h6.3c0.5,0,0.7,0.3,0.6,0.8l-0.2,1.1c2.4-1.9,4.4-2.3,6.6-2.3
		c1.9,0,3.6,0.6,4.3,2.3c1.9-1.6,4.2-2.3,6.4-2.3c3.9,0,5.7,2.4,5.7,6.2C464,49.5,463.9,50.4,463.7,51.4z"/>
	<path class="st1" d="M489.4,44.6l-3.5,19.9c-0.1,0.4-0.2,0.8-0.8,0.8h-5.5c-0.7,0-0.8-0.3-0.8-0.8l0.2-1.1
		c-1.8,1.5-3.2,2.2-6.2,2.2c-4.1,0-6.7-2.6-6.7-7c0-1.3,0.1-1.9,0.2-2.6l0.6-3.5c1.4-8.2,6.2-10.2,12.4-10.2c2.9,0,5.9,0.4,8.8,0.9
		C489,43.5,489.6,43.7,489.4,44.6z M478.4,49.4c-1.6,0-2.5,0.6-2.9,3.1l-0.7,3.7c-0.1,0.4-0.1,0.8-0.1,1.1c0,1.1,0.5,1.4,1.5,1.4
		c0.8,0,1.7-0.3,2.4-0.6l1.5-8.6C479.5,49.5,478.9,49.4,478.4,49.4z"/>
	<path class="st1" d="M515.8,43.6L508,60.9c-2.1,4.6-5.1,4.8-7.9,4.8s-5.8-0.2-6.2-4.8l-1.7-17.3l0,0c0-0.4,0.2-0.8,0.8-0.8h7.3
		c0.6,0,0.7,0.4,0.7,0.8l0.3,12.9c0,0.3,0,0.6,0.2,0.6s0.3-0.3,0.5-0.6l4.8-12.9c0.2-0.4,0.3-0.8,1-0.8h7.6
		C515.8,42.8,516,43,515.8,43.6z"/>
	<path class="st1" d="M536.8,53.1l-0.4,2.3c-0.1,0.5-0.5,0.8-1,0.8h-11.5c0,0.3-0.1,0.6-0.1,0.8c0,1.2,0.8,1.6,2.9,1.6
		c1.6,0,5.8-0.2,7.2-0.3c0.6,0,0.8,0.1,0.7,0.7l-0.7,4c-0.1,0.6-0.3,0.9-0.9,1.1c-2.1,0.8-5.9,1.5-9,1.5c-4.9,0-8.7-2.7-8.7-7.9
		c0-0.7,0.1-1.5,0.2-2.3l0.4-2.3c1.4-7.9,6-10.7,12.5-10.7c6,0,8.5,3.5,8.5,8.1C537,51.4,537,52.2,536.8,53.1z M527.3,48.8
		c-1.6,0-2.3,1-2.7,3.2h4.3c0.1-0.5,0.2-0.9,0.2-1.3C529.1,49.5,528.6,48.8,527.3,48.8z"/>
	<path class="st1" d="M554.9,42.4c0.6,0,0.9,0.2,0.8,0.8l-1,5.4c-0.1,0.4-0.2,0.8-0.9,0.8h-0.3c-2.3,0-3.5,0.2-4.4,0.6l-2.6,14.5
		c-0.1,0.5-0.2,0.8-0.9,0.8h-6.9c-0.5,0-0.8-0.2-0.7-0.8l3.7-20.9c0.1-0.4,0.3-0.8,0.9-0.8h6c0.5,0,0.8,0.2,0.6,0.8l-0.2,1.1
		c1.5-1.8,3.7-2.3,5.5-2.3H554.9z"/>
	<path class="st1" d="M579,44.6l-3.5,19.9c-0.1,0.4-0.2,0.8-0.8,0.8h-5.5c-0.7,0-0.8-0.3-0.8-0.8l0.2-1.1c-1.8,1.5-3.2,2.2-6.2,2.2
		c-4.1,0-6.7-2.6-6.7-7c0-1.3,0.1-1.9,0.2-2.6l0.6-3.5c1.4-8.2,6.2-10.2,12.4-10.2c2.9,0,5.9,0.4,8.8,0.9
		C578.6,43.5,579.1,43.7,579,44.6z M568,49.4c-1.6,0-2.5,0.6-2.9,3.1l-0.7,3.7c-0.1,0.4-0.1,0.8-0.1,1.1c0,1.1,0.5,1.4,1.5,1.4
		c0.8,0,1.7-0.3,2.4-0.6l1.5-8.6C569,49.5,568.5,49.4,568,49.4z"/>
	<path class="st1" d="M613.2,44.4c-0.7,4.1-3.5,6.3-8.1,8.7c-3.1,1.6-5.5,2.9-6.5,4.6h11c0.4,0,0.7,0.3,0.7,0.6v0.1l-1.1,6.1
		c-0.1,0.4-0.5,0.8-1,0.8h-18.6c-0.4,0-0.6-0.3-0.6-0.6v-0.1l0.7-4.2c1-6,4.9-9,9-11.5c4.7-2.9,5.2-2.8,5.4-4c0-0.1,0-0.2,0-0.3
		c0-0.6-0.5-0.8-3-0.8s-5,0.4-7.4,0.4l0,0c-0.3,0-0.6-0.3-0.6-0.6v-0.1l0,0l0.8-4.4c0.1-0.4,0.5-0.6,0.9-0.8
		c2.6-0.9,5.9-1.6,9.4-1.6c6.8,0,9.2,2.7,9.2,6.3C613.3,43.3,613.3,43.8,613.2,44.4z"/>
	<path class="st1" d="M638.3,49l-0.7,4.2c-1.5,8.5-6.1,12.5-13.2,12.5c-5.9,0-9.1-2.8-9.1-8.7c0-1.1,0.1-2.4,0.3-3.8l0.7-4.2
		c1.5-8.5,6.1-12.5,13.2-12.5c5.9,0,9.1,2.8,9.1,8.7C638.7,46.4,638.5,47.7,638.3,49z M628.2,44.2c-1.1,0-2,0.6-2.7,4.8l-0.7,4.2
		c-0.2,1.2-0.3,2.2-0.3,2.9c0,1.7,0.6,1.9,1.4,1.9c1.1,0,2-0.6,2.7-4.8l0.7-4.2c0.2-1.2,0.3-2.2,0.3-2.9
		C629.6,44.5,629,44.2,628.2,44.2z"/>
	<path class="st1" d="M647.2,57.7l2.1-11.9l-4.8,1.5c-0.2,0.1-0.4,0.1-0.5,0.1c-0.3,0-0.3-0.2-0.3-0.5l1.1-6.5
		c0.1-0.4,0.3-0.6,0.6-0.8l7.4-2.6c0.3-0.1,0.5-0.2,0.9-0.2h5.3c0.4,0,0.7,0.3,0.6,0.8l-3.5,20h4.6c0.4,0,0.7,0.3,0.6,0.8l-1.1,6.1
		c-0.1,0.4-0.5,0.8-0.9,0.8h-18.2c-0.4,0-0.8-0.3-0.7-0.8l1.1-6.1c0.1-0.4,0.5-0.8,1-0.8h4.7L647.2,57.7L647.2,57.7z"/>
	<path class="st1" d="M689.9,37.7l-1,5.6c-0.1,0.4-0.4,0.8-0.9,0.8h-10.4l-0.8,3.1h1.7c7.1,0,9,3.5,9,6.9c0,8.5-5.2,11.6-13.3,11.6
		c-2.8,0-5.6-0.5-7.7-1.4c-0.3-0.1-0.7-0.3-0.7-0.6v-0.1l0.8-4.6c0.1-0.6,0.4-0.8,0.8-0.8h0.1c2.2,0.2,5,0.4,6.1,0.4
		c2.6,0,4.5-0.3,4.5-3.1c0-1-0.6-1.6-2.7-1.6h-7c-0.4,0-0.7-0.3-0.7-0.7c0-0.1,0-0.2,0-0.2l3.8-15.3c0.1-0.4,0.5-0.8,0.9-0.8h16.8
		c0.4,0,0.6,0.3,0.6,0.6C689.9,37.6,689.9,37.6,689.9,37.7L689.9,37.7z"/>
</g>
<g>
	<path class="st1" d="M54.5,181L51,200.9c-0.1,0.4-0.2,0.8-0.8,0.8h-5.5c-0.7,0-0.8-0.3-0.8-0.8l0.2-1.1c-1.8,1.5-3.2,2.2-6.2,2.2
		c-4.1,0-6.7-2.6-6.7-7c0-1.3,0.1-1.9,0.2-2.6l0.6-3.5c1.4-8.2,6.2-10.2,12.4-10.2c2.9,0,5.9,0.4,8.8,0.9
		C54.1,179.8,54.7,180.1,54.5,181z M43.5,185.8c-1.6,0-2.5,0.6-2.9,3.1l-0.7,3.7c-0.1,0.4-0.1,0.8-0.1,1.1c0,1.1,0.5,1.4,1.5,1.4
		c0.8,0,1.7-0.3,2.4-0.6l1.5-8.6C44.5,185.8,44,185.8,43.5,185.8z"/>
	<path class="st1" d="M68.4,172.7l-5,28.1c-0.1,0.5-0.2,0.8-1,0.8h-6.9c-0.5,0-0.8-0.2-0.7-0.8l5-28.1c0.1-0.5,0.3-0.8,1-0.8h6.9
		C68.2,171.9,68.5,172.1,68.4,172.7z"/>
	<path class="st1" d="M92,180l-3.7,20.9c-0.1,0.4-0.2,0.8-0.9,0.8h-6.3c-0.4,0-0.8-0.2-0.6-0.8l0.2-1.1c-1.8,1.3-3.2,2.2-6.3,2.2
		c-4.4,0-6-3-6-6.5c0-0.8,0.1-1.6,0.2-2.3l2.3-13.2c0.1-0.5,0.5-0.8,1-0.8h6.9c0.5,0,0.8,0.3,0.7,0.8l-2.2,12.6
		c-0.1,0.4-0.2,1-0.2,1.1c0,1,0.7,1.3,1.6,1.3c0.7,0,1.5-0.2,2.2-0.6l2.6-14.5c0.1-0.5,0.3-0.8,0.9-0.8h6.9
		C91.7,179.1,92.1,179.3,92,180z"/>
	<path class="st1" d="M126,187.7l-2.3,13.1c-0.1,0.5-0.3,0.8-1,0.8h-6.9c-0.5,0-0.8-0.3-0.7-0.8l2.3-13.1c0-0.2,0.1-0.5,0.1-0.6
		c0-0.8-0.5-1-1.2-1c-0.5,0-1.1,0.1-1.7,0.2c-0.1,0.6-0.1,0.8-0.2,1.4l-2.3,13.1c-0.1,0.5-0.3,0.8-1,0.8h-6.9
		c-0.6,0-0.8-0.4-0.7-0.8l2.3-13.1c0-0.3,0.1-0.5,0.1-0.6c0-0.8-0.4-1-1.2-1c-0.5,0-1.2,0.1-1.7,0.2l-2.6,14.5
		c-0.1,0.5-0.2,0.8-0.9,0.8h-6.9c-0.5,0-0.8-0.2-0.7-0.8l3.7-20.9c0.1-0.4,0.2-0.8,0.9-0.8h6.3c0.5,0,0.7,0.3,0.6,0.8l-0.2,1.1
		c2.4-1.9,4.4-2.3,6.6-2.3c1.9,0,3.6,0.6,4.3,2.3c1.9-1.6,4.2-2.3,6.4-2.3c3.9,0,5.7,2.4,5.7,6.2C126.3,185.8,126.2,186.8,126,187.7
		z"/>
	<path class="st1" d="M151,187.6l-2.3,13.2c-0.1,0.5-0.2,0.8-1,0.8h-6.9c-0.5,0-0.8-0.2-0.7-0.8l2.3-13.2c0-0.2,0-0.5,0-0.7
		c0-0.8-0.7-1.2-1.6-1.2c-0.7,0-1.5,0.2-2.2,0.6l-2.6,14.5c-0.1,0.5-0.2,0.8-0.9,0.8h-6.9c-0.5,0-0.8-0.3-0.7-0.8l3.7-20.9
		c0.1-0.4,0.5-0.8,0.9-0.8h6.3c0.6,0,0.7,0.3,0.6,0.8l-0.2,1.1c2-1.5,3.8-2.2,6.5-2.2c4.7,0,5.8,3,5.8,6.2
		C151.2,185.8,151.1,186.7,151,187.6z"/>
	<path class="st1" d="M174.9,189.5l-0.3,1.8c-1.4,8.1-5.9,10.8-12.4,10.8c-5.7,0-8.8-3.1-8.8-8.2c0-0.8,0.1-1.7,0.2-2.6l0.3-1.8
		c1.4-8,5.9-10.8,12.4-10.8c5.7,0,8.9,2.8,8.9,8.1C175.1,187.6,175,188.5,174.9,189.5z M165,185.8c-1.3,0-2.2,1.1-2.7,3.7l-0.3,1.8
		c-0.1,0.7-0.2,1.3-0.2,1.8c0,1.5,0.6,1.9,1.6,1.9c1.3,0,2.1-0.8,2.7-3.7l0.3-1.8c0.1-0.7,0.2-1.3,0.2-1.8
		C166.6,186.2,166,185.8,165,185.8z"/>
	<path class="st1" d="M196.4,180.6l-0.9,5c-0.1,0.5-0.2,1-0.9,0.8c-1.1-0.2-5.2-0.7-6.7-0.7c-0.3,0-0.9,0-0.9,0.4
		c0,0.3,0.1,0.4,0.8,0.8l3,1.6c3.4,1.8,3.8,3.8,3.8,5.8c0,5.5-4.5,7.7-11.2,7.7c-3.3,0-5.5-0.5-6.9-1c-0.5-0.2-0.6-0.4-0.6-0.8
		l0.8-4.8c0.1-0.6,0.3-1,1.1-0.9c2.5,0.4,5.2,0.7,6.5,0.7c0.6,0,1.5,0,1.5-0.9c0-0.2-0.1-0.4-0.7-0.8l-3.4-1.9
		c-2.3-1.3-3.4-3-3.4-5.4c0-6.1,5-7.6,10.2-7.6c2.8,0,5.5,0.6,7.1,1C196.3,179.9,196.5,180,196.4,180.6z"/>
</g>
<path class="st2" d="M40,119.6l4.1-23.7l-9.6,3c-0.5,0.2-0.8,0.2-1,0.2c-0.5,0-0.7-0.3-0.6-0.9l2.3-12.9c0.2-0.8,0.5-1.2,1.3-1.5
	l14.8-5.3c0.6-0.2,1.1-0.4,1.8-0.4h10.7c0.8,0,1.4,0.7,1.2,1.5l-7,40h9.2c0.8,0,1.5,0.7,1.3,1.5l-2.1,12.1c-0.2,0.8-1,1.5-1.8,1.5
	H28.1c-0.8,0-1.5-0.7-1.4-1.5l2.1-12.1c0.2-0.8,1.1-1.5,1.9-1.5H40z"/>
<path class="st2" d="M123.7,79.6l-5.4,30.8h3.8c0.8,0,1.3,0.5,1.3,1.3c0,0.1,0,0.2,0,0.2l-1.8,10.5c-0.2,0.8-1,1.5-1.8,1.5H116
	l-1.6,9.3c-0.2,0.8-1,1.5-1.8,1.5h-15c-0.8,0-1.2-0.5-1.2-1.2c0-0.2,0-0.2,0-0.3l1.6-9.3H77.5c-0.8,0-1.2-0.5-1.2-1.2
	c0-0.2,0-0.2,0-0.3l1.7-9.9c0.2-0.8,0.5-1.5,1.1-2.1l31-31.9c0.3-0.3,0.7-0.4,1.1-0.4c0.2,0,0.5,0,0.7,0h10.6c0.8,0,1.2,0.5,1.2,1.2
	C123.7,79.4,123.7,79.5,123.7,79.6z M91.4,110.4h9.8l2.2-12.4L91.4,110.4z"/>
<path class="st2" d="M144.2,121.7l-2,11.6c-0.2,0.8-1.1,1.5-1.9,1.5H127c-0.8,0-1.3-0.5-1.3-1.3c0-0.1,0-0.2,0-0.2l2-11.6
	c0.2-0.8,1.1-1.5,1.9-1.5h13.3c0.8,0,1.3,0.5,1.3,1.3C144.2,121.5,144.2,121.6,144.2,121.7z"/>
<path class="st2" d="M198.1,97.5l-3.1,17.4c-3,17.1-14.2,20.7-25,20.7c-7.3,0-12.4-1.1-16.5-2.4c-0.9-0.3-1.4-0.7-1.4-1.5
	c0-0.2,0.1-0.4,0.1-0.5l1.7-9.5c0.2-1.1,0.8-1.5,1.7-1.5c0.1,0,0.2,0,0.4,0c3.5,0.5,9.6,1.1,14,1.1c5,0,6.3-0.8,7.4-6.4l0.1-0.4
	c-1,0.2-4.4,0.5-5.7,0.5c-9.8,0-16.7-3.7-16.7-13.3c0-15.7,8.9-24.4,25.1-24.4c12.6,0,18.2,7.7,18.2,16.4
	C198.4,94.9,198.3,96.2,198.1,97.5z M177.9,90.5c-4,0-5.2,4.4-5.2,9.5c0,2.4,1.1,3.2,3,3.2c1.6,0,3-0.2,3.7-0.2l1-5.6
	c0.2-1.3,0.3-2.4,0.3-3.2C180.8,91.3,179.6,90.5,177.9,90.5z"/>
<path class="st2" d="M249.3,97.5l-3.1,17.4c-3,17.1-14.2,20.7-25,20.7c-7.3,0-12.4-1.1-16.5-2.4c-0.9-0.3-1.4-0.7-1.4-1.5
	c0-0.2,0.1-0.4,0.1-0.5l1.7-9.5c0.2-1.1,0.8-1.5,1.7-1.5c0.1,0,0.2,0,0.4,0c3.5,0.5,9.6,1.1,14,1.1c5,0,6.3-0.8,7.4-6.4l0.1-0.4
	c-1,0.2-4.4,0.5-5.7,0.5c-9.8,0-16.7-3.7-16.7-13.3c0-15.7,8.9-24.4,25.1-24.4c12.6,0,18.2,7.7,18.2,16.4
	C249.6,94.9,249.5,96.2,249.3,97.5z M229.1,90.5c-4,0-5.2,4.4-5.2,9.5c0,2.4,1.1,3.2,3,3.2c1.6,0,3-0.2,3.7-0.2l1-5.6
	c0.2-1.3,0.3-2.4,0.3-3.2C231.9,91.3,230.8,90.5,229.1,90.5z"/>
<path class="st2" d="M291.9,106c3.7,2.6,5.1,6.4,5.1,9.9c0,15-11.6,19.6-24.6,19.6c-6.6,0-14.6-1.7-17.5-3.1
	c-0.5-0.3-1.3-0.6-1.3-1.3c0-0.1,0-0.2,0-0.2l1.5-8.9c0.2-0.8,1-1.5,1.8-1.5h0.1c4,0,11.2,0.8,16.3,0.8c3.6,0,6.3-1.5,6.3-5.3
	c0-1.8-1-3.3-3.8-3.3h-13.2c-0.8,0-1.3-0.6-1.3-1.3c0-0.1,0-0.2,0-0.2l1.8-9.8c0.2-0.8,1-1.5,1.8-1.5h12.3c3.4,0,6.2-1.7,6.2-5.3
	c0-2-1.5-3-4.8-3c-5.1,0-12,0.8-16.1,0.8h-0.1c-0.7,0-1.2-0.5-1.2-1.2c0-0.1,0-0.2,0-0.2v-0.1l1.5-8.9c0.2-0.8,1.1-1.1,1.9-1.5
	c3.4-1.5,11.5-3.1,18-3.1c12.2,0,18.9,4.1,18.9,12.7C301.6,97.8,298.6,102.2,291.9,106z"/>
<path class="st2" d="M383.5,119.6l4.1-23.7l-9.6,3c-0.5,0.2-0.8,0.2-1,0.2c-0.5,0-0.7-0.3-0.6-0.9l2.3-12.9c0.2-0.8,0.5-1.2,1.3-1.5
	l14.8-5.3c0.6-0.2,1.1-0.4,1.8-0.4h10.7c0.8,0,1.4,0.7,1.2,1.5l-7,40h9.2c0.8,0,1.5,0.7,1.3,1.5l-2.1,12.1c-0.2,0.8-1,1.5-1.8,1.5
	h-36.4c-0.8,0-1.5-0.7-1.4-1.5l2.1-12.1c0.2-0.8,1.1-1.5,1.9-1.5H383.5z"/>
<path class="st2" d="M459.3,106c3.7,2.6,5.1,6.4,5.1,9.9c0,15-11.6,19.6-24.6,19.6c-6.6,0-14.6-1.7-17.5-3.1
	c-0.5-0.3-1.3-0.6-1.3-1.3c0-0.1,0-0.2,0-0.2l1.5-8.9c0.2-0.8,1-1.5,1.8-1.5h0.1c4,0,11.2,0.8,16.3,0.8c3.6,0,6.3-1.5,6.3-5.3
	c0-1.8-1-3.3-3.8-3.3H430c-0.8,0-1.3-0.6-1.3-1.3c0-0.1,0-0.2,0-0.2l1.8-9.8c0.2-0.8,1-1.5,1.8-1.5h12.3c3.4,0,6.2-1.7,6.2-5.3
	c0-2-1.5-3-4.8-3c-5.1,0-12,0.8-16.1,0.8h-0.1c-0.7,0-1.2-0.5-1.2-1.2c0-0.1,0-0.2,0-0.2v-0.1l1.5-8.9c0.2-0.8,1.1-1.1,1.9-1.5
	c3.4-1.5,11.5-3.1,18-3.1c12.2,0,18.9,4.1,18.9,12.7C469,97.8,466,102.2,459.3,106z"/>
<path class="st2" d="M487.7,121.7l-2,11.6c-0.2,0.8-1.1,1.5-1.9,1.5h-13.3c-0.8,0-1.3-0.5-1.3-1.3c0-0.1,0-0.2,0-0.2l2-11.6
	c0.2-0.8,1.1-1.5,1.9-1.5h13.3c0.8,0,1.3,0.5,1.3,1.3C487.7,121.5,487.7,121.6,487.7,121.7z"/>
<path class="st2" d="M541,79.6l-5.4,30.8h3.8c0.8,0,1.3,0.5,1.3,1.3c0,0.1,0,0.2,0,0.2l-1.8,10.5c-0.2,0.8-1,1.5-1.8,1.5h-3.8
	l-1.6,9.3c-0.2,0.8-1,1.5-1.8,1.5H515c-0.8,0-1.2-0.5-1.2-1.2c0-0.2,0-0.2,0-0.3l1.6-9.3h-20.5c-0.8,0-1.2-0.5-1.2-1.2
	c0-0.2,0-0.2,0-0.3l1.7-9.9c0.2-0.8,0.5-1.5,1.1-2.1l31-31.9c0.3-0.3,0.7-0.4,1.1-0.4c0.2,0,0.5,0,0.7,0h10.6c0.8,0,1.2,0.5,1.2,1.2
	C541,79.4,541,79.5,541,79.6z M508.7,110.4h9.8l2.2-12.4L508.7,110.4z"/>
<path class="st2" d="M593.3,81.7l-1.7,9.5c-0.2,1.1-0.8,1.5-1.7,1.5c-0.1,0-0.2,0-0.4,0c-3.5-0.5-9.6-1.1-14-1.1
	c-5,0-6.3,0.8-7.4,6.4l-0.1,0.4c1-0.2,4.4-0.5,5.7-0.5c9.8,0,16.7,3.7,16.7,13.3c0,15.7-8.9,24.4-25.1,24.4
	c-12.6,0-18.2-7.7-18.2-16.4c0-1.2,0.1-2.4,0.3-3.7l3.1-17.4c3-17.1,14.2-20.7,25-20.7c7.3,0,12.4,1.1,16.5,2.4
	c0.9,0.3,1.4,0.7,1.4,1.5C593.4,81.3,593.3,81.5,593.3,81.7z M569.8,109.6c-1.6,0-3,0.2-3.7,0.2l-1,5.6c-0.2,1.3-0.3,2.4-0.3,3.2
	c0,3,1.1,3.7,2.8,3.7c4,0,5.2-4.4,5.2-9.5C572.8,110.4,571.7,109.6,569.8,109.6z"/>
<path class="st2" d="M645,79.6l-1.9,11.2c-0.2,0.8-0.8,1.5-1.8,1.5h-20.8l-1.6,6.2h3.4c14.1,0,18,6.9,18,13.7
	c0,17-10.4,23.3-26.6,23.3c-5.7,0-11.1-1.1-15.3-2.8c-0.6-0.2-1.4-0.6-1.4-1.3c0-0.1,0-0.2,0-0.2l1.6-9.2c0.2-1.1,0.8-1.5,1.7-1.5
	c0.1,0,0.2,0,0.2,0c4.4,0.4,10,0.8,12.2,0.8c5.2,0,8.9-0.6,8.9-6.1c0-2.1-1.3-3.1-5.5-3.1h-14c-0.8,0-1.5-0.5-1.5-1.5
	c0-0.2,0-0.3,0.1-0.5l7.6-30.5c0.2-0.8,1-1.5,1.8-1.5h33.5c0.8,0,1.2,0.5,1.2,1.2C645,79.4,645,79.4,645,79.6L645,79.6z"/>
<path class="st3" d="M349.9,134.2v9c-13.2,9.5-15.5,16.5-15.5,34.2v50.9c0,21-8,27.4-30.7,27.4h-11.5c-2.7,0-4.7-1.7-4.7-4.2v-2
	c0-2.5,2-4,4.7-4h11.5c16.7,0,19.7-2.7,19.7-17.2v-50.9c0-17.7,3.2-28.7,16-38.9c-12.2-9.7-16-20.7-16-38.4v-51
	c0-14.5-3-17.2-19.7-17.2h-11.5c-2.7,0-4.7-1.5-4.7-4v-2c0-2.5,2-4.2,4.7-4.2h11.5c23.2,0,30.7,6.5,30.7,27.4V100
	C334.4,117.7,336.6,124.7,349.9,134.2"/>
<g>
	<path d="M42.6,156.9l-0.3,1.5c-0.7,3.6-2.3,5.3-5.3,5.3c-0.9,0-2.2-0.2-3-0.4l-0.7,4.1c0,0.2-0.2,0.4-0.4,0.4h-0.2
		c-0.2,0-0.3-0.2-0.3-0.4c0,0,0,0,0-0.1l2.7-15.1c0-0.3,0.1-0.4,0.4-0.4c1-0.2,2.2-0.4,3.8-0.4c2.5,0,3.5,1.5,3.5,3.8
		C42.8,155.8,42.8,156.4,42.6,156.9z M39.1,152.4c-1.1,0-2.5,0.2-3.1,0.3l-1.7,9.7c0.8,0.2,2.1,0.3,3,0.3c2.3,0,3.6-1.6,4.1-4.4
		l0.3-1.5c0.1-0.6,0.2-1.2,0.2-1.7C41.9,153.3,41,152.4,39.1,152.4z"/>
	<path d="M54.3,152.4l-1.9,10.7c0,0.2-0.2,0.4-0.5,0.4h-0.2c-0.2,0-0.3-0.2-0.3-0.4c0,0,0-0.1,0-0.1l0.1-0.7
		c-1.2,0.6-2.5,1.3-3.8,1.3c-1.8,0-3.2-1-3.2-3.2c0-0.3,0-0.7,0.1-1.1l0.4-2.5c0.7-3.8,2.2-5.4,5.3-5.4c1.3,0,2.7,0.2,3.6,0.4
		c0.2,0,0.3,0.1,0.3,0.3C54.3,152.3,54.3,152.3,54.3,152.4z M50.2,152.4c-2.5,0-3.7,1.6-4.2,4.5l-0.4,2.5c-0.1,0.4-0.1,0.8-0.1,1.1
		c0,1.9,1.2,2.3,2.5,2.3c1.1,0,2.1-0.5,3.7-1.4l1.5-8.7C52.5,152.6,51.3,152.4,50.2,152.4z"/>
	<path d="M62,151.9l0,0.2c0,0.3-0.2,0.3-0.6,0.3c-0.8,0-1.7,0.2-3.2,1l-1.7,9.7c0,0.2-0.3,0.4-0.5,0.4h-0.1c-0.2,0-0.4-0.2-0.4-0.4
		c0,0,0,0,0-0.1l1.9-11c0-0.2,0.2-0.4,0.5-0.4h0.2c0.2,0,0.3,0.1,0.3,0.3c0,0,0,0.1,0,0.1l-0.1,0.5c1.2-0.7,2.1-1,3.1-1
		C61.8,151.6,62,151.6,62,151.9C62,151.9,62,151.9,62,151.9z"/>
	<path d="M70.3,152l0,0.2c0,0.2-0.2,0.3-0.5,0.3h-2.6l-1.5,8.7c0,0.2-0.1,0.4-0.1,0.6c0,0.8,0.5,0.9,1.3,0.9h1.1
		c0.2,0,0.4,0,0.4,0.2c0,0,0,0,0,0.1l0,0.1c0,0.2-0.1,0.3-0.4,0.4c-0.3,0-0.8,0.1-1.2,0.1c-1.4,0-2.1-0.5-2.1-1.7
		c0-0.2,0-0.4,0.1-0.7l1.6-8.7h-2.2c-0.2,0-0.4-0.1-0.4-0.3c0,0,0-0.1,0-0.1l0-0.2c0-0.3,0.2-0.3,0.5-0.3h2.2l0.4-2.1
		c0-0.2,0.2-0.4,0.4-0.4h0.2c0.2,0,0.3,0.1,0.3,0.3c0,0,0,0.1,0,0.1l-0.4,2.1h2.6C70.1,151.7,70.3,151.7,70.3,152
		C70.3,152,70.3,152,70.3,152z"/>
	<path d="M73.6,151.7c0.3,0,0.3,0.2,0.3,0.4l-1.9,11c0,0.2-0.1,0.4-0.5,0.4h-0.1c-0.3,0-0.4-0.2-0.4-0.4l1.9-11
		c0-0.2,0.1-0.4,0.4-0.4H73.6z M73.8,149.5c-0.3,0-0.4-0.2-0.4-0.4l0.3-1.6c0.1-0.4,0.3-0.4,0.5-0.4h0.1c0.3,0,0.4,0.2,0.4,0.4
		l-0.3,1.6c-0.1,0.3-0.3,0.4-0.5,0.4H73.8z"/>
	<path d="M84.3,152.2l0,0.2c0,0.2-0.2,0.3-0.4,0.3c0,0,0,0-0.1,0h0c-1-0.1-1.9-0.2-2.6-0.2c-2.5,0-3.8,1.9-4.2,4.4l-0.2,1.5
		c-0.1,0.6-0.2,1.1-0.2,1.6c0,1.8,0.8,2.9,2.8,2.9c0.7,0,1.6-0.1,2.7-0.2c0,0,0,0,0,0c0,0,0,0,0.1,0c0.2,0,0.3,0.1,0.3,0.2
		c0,0,0,0,0,0v0l0,0.2c0,0.2-0.2,0.4-0.5,0.4c-1,0.1-2,0.2-2.7,0.2c-2.5,0-3.6-1.5-3.6-3.8c0-0.5,0-1,0.1-1.5l0.2-1.5
		c0.5-3.2,2.1-5.3,5.3-5.3c0.7,0,1.7,0.1,2.6,0.2c0.3,0,0.4,0.1,0.4,0.3C84.3,152.1,84.3,152.1,84.3,152.2
		C84.3,152.1,84.3,152.1,84.3,152.2z"/>
	<path d="M87.8,151.7c0.3,0,0.3,0.2,0.3,0.4l-1.9,11c0,0.2-0.1,0.4-0.5,0.4h-0.1c-0.3,0-0.4-0.2-0.4-0.4l1.9-11
		c0-0.2,0.1-0.4,0.4-0.4H87.8z M88,149.5c-0.3,0-0.4-0.2-0.4-0.4l0.3-1.6c0.1-0.4,0.3-0.4,0.5-0.4h0.1c0.3,0,0.4,0.2,0.4,0.4
		l-0.3,1.6c-0.1,0.3-0.3,0.4-0.5,0.4H88z"/>
	<path d="M98.9,156.9l-0.3,1.5c-0.7,3.6-2.3,5.3-5.3,5.3c-0.9,0-2.2-0.2-3-0.4l-0.7,4.1c0,0.2-0.2,0.4-0.4,0.4H89
		c-0.2,0-0.3-0.2-0.3-0.4c0,0,0,0,0-0.1l2.7-15.1c0-0.3,0.1-0.4,0.4-0.4c1-0.2,2.2-0.4,3.8-0.4c2.5,0,3.5,1.5,3.5,3.8
		C99.1,155.8,99,156.4,98.9,156.9z M95.4,152.4c-1.1,0-2.5,0.2-3.1,0.3l-1.7,9.7c0.8,0.2,2.1,0.3,3,0.3c2.3,0,3.6-1.6,4.1-4.4
		l0.3-1.5c0.1-0.6,0.2-1.2,0.2-1.7C98.1,153.3,97.3,152.4,95.4,152.4z"/>
	<path d="M110.6,152.4l-1.9,10.7c0,0.2-0.2,0.4-0.5,0.4H108c-0.2,0-0.3-0.2-0.3-0.4c0,0,0-0.1,0-0.1l0.1-0.7
		c-1.2,0.6-2.5,1.3-3.8,1.3c-1.8,0-3.2-1-3.2-3.2c0-0.3,0-0.7,0.1-1.1l0.4-2.5c0.7-3.8,2.2-5.4,5.3-5.4c1.3,0,2.7,0.2,3.6,0.4
		c0.2,0,0.3,0.1,0.3,0.3C110.6,152.3,110.6,152.3,110.6,152.4z M106.5,152.4c-2.5,0-3.7,1.6-4.2,4.5l-0.4,2.5
		c-0.1,0.4-0.1,0.8-0.1,1.1c0,1.9,1.2,2.3,2.5,2.3c1.1,0,2.1-0.5,3.7-1.4l1.5-8.7C108.8,152.6,107.6,152.4,106.5,152.4z"/>
	<path d="M120.9,152.2l0,0.2c0,0.2-0.2,0.3-0.4,0.3c0,0,0,0-0.1,0h0c-1-0.1-1.9-0.2-2.6-0.2c-2.5,0-3.8,1.9-4.2,4.4l-0.2,1.5
		c-0.1,0.6-0.2,1.1-0.2,1.6c0,1.8,0.8,2.9,2.8,2.9c0.7,0,1.6-0.1,2.7-0.2c0,0,0,0,0,0c0,0,0,0,0.1,0c0.2,0,0.3,0.1,0.3,0.2
		c0,0,0,0,0,0v0l0,0.2c0,0.2-0.2,0.4-0.5,0.4c-1,0.1-2,0.2-2.7,0.2c-2.5,0-3.6-1.5-3.6-3.8c0-0.5,0-1,0.1-1.5l0.2-1.5
		c0.5-3.2,2.1-5.3,5.3-5.3c0.7,0,1.7,0.1,2.6,0.2c0.3,0,0.4,0.1,0.4,0.3C120.9,152.1,120.9,152.1,120.9,152.2
		C120.9,152.1,120.9,152.1,120.9,152.2z"/>
	<path d="M124.3,151.7c0.3,0,0.3,0.2,0.3,0.4l-1.9,11c0,0.2-0.1,0.4-0.5,0.4H122c-0.3,0-0.4-0.2-0.4-0.4l1.9-11
		c0-0.2,0.1-0.4,0.4-0.4H124.3z M124.5,149.5c-0.3,0-0.4-0.2-0.4-0.4l0.3-1.6c0.1-0.4,0.3-0.4,0.5-0.4h0.1c0.3,0,0.4,0.2,0.4,0.4
		l-0.3,1.6c-0.1,0.3-0.3,0.4-0.5,0.4H124.5z"/>
	<path d="M135.9,156.9l-0.3,1.5c-0.6,3.4-2.3,5.3-5.5,5.3c-2.5,0-3.8-1.5-3.8-3.9c0-0.4,0-0.9,0.1-1.4l0.3-1.5
		c0.6-3.5,2.4-5.3,5.5-5.3c2.5,0,3.7,1.5,3.7,3.8C136,155.9,135.9,156.3,135.9,156.9z M132.1,152.4c-2.5,0-3.9,1.8-4.4,4.4l-0.3,1.5
		c-0.1,0.6-0.2,1.1-0.2,1.5c0,1.9,0.8,2.9,3,2.9c2.5,0,3.9-1.8,4.4-4.4l0.3-1.5c0.1-0.6,0.2-1.1,0.2-1.5
		C135,153.5,134.2,152.4,132.1,152.4z"/>
	<path d="M147.3,155.8l-1.3,7.4c0,0.2-0.2,0.4-0.5,0.4h-0.2c-0.2,0-0.3-0.2-0.3-0.4c0,0,0,0,0-0.1l1.3-7.4c0.1-0.4,0.1-0.7,0.1-1
		c0-1.7-1.1-2.4-2.5-2.4c-1.1,0-2.5,0.4-3.7,0.9l-1.7,9.8c0,0.2-0.3,0.4-0.5,0.4h-0.1c-0.2,0-0.4-0.2-0.4-0.4c0,0,0,0,0-0.1l1.9-11
		c0-0.2,0.2-0.4,0.5-0.4h0.2c0.2,0,0.3,0.2,0.3,0.3c0,0,0,0.1,0,0.1l-0.1,0.4c1.2-0.6,2.4-0.9,3.6-0.9c1.9,0,3.4,0.9,3.4,3.2
		C147.4,155.1,147.3,155.4,147.3,155.8z"/>
	<path d="M158.7,156.8l-0.1,0.6c0,0.2-0.3,0.4-0.5,0.4h-7.5l-0.1,0.5c-0.1,0.5-0.1,1-0.1,1.4c0,2.4,1.3,3.1,3.3,3.1
		c1,0,2.2-0.1,3.4-0.4c0.1,0,0.1,0,0.2,0c0.2,0,0.3,0,0.3,0.2c0,0,0,0.1,0,0.2l0,0.2c-0.1,0.3-0.2,0.3-0.5,0.4
		c-1.1,0.2-2.4,0.4-3.4,0.4c-2.4,0-4.1-1.1-4.1-3.9c0-0.4,0-1,0.1-1.5l0.2-1.5c0.6-3.5,2.5-5.3,5.4-5.3c2.5,0,3.6,1.6,3.6,3.8
		C158.9,155.8,158.8,156.3,158.7,156.8z M155.1,152.4c-2.5,0-3.7,1.7-4.3,4.4l0,0.1h6.9l0-0.1c0.1-0.6,0.2-1.1,0.2-1.5
		C157.9,153.4,157.1,152.4,155.1,152.4z"/>
	<path d="M169,152.1l0,0.2c0,0.3-0.1,0.3-0.3,0.3c0,0-0.2,0-0.2,0c-0.5,0-1.9-0.2-3.1-0.2c-1.8,0-2.9,0.4-2.9,2.1
		c0,0.8,0.7,1.4,1.8,2.1l1.3,0.8c1.7,1.1,2.3,1.7,2.3,2.8c0,2.6-2.1,3.5-4.4,3.5c-1,0-2.4-0.2-3.2-0.3c-0.2,0-0.4-0.1-0.4-0.3
		c0,0,0,0,0,0l0-0.2c0-0.2,0.1-0.3,0.3-0.3c0.1,0,0.1,0,0.2,0c1.2,0.2,2.5,0.3,3.3,0.3c1.9,0,3.2-0.7,3.2-2.6c0-0.7-0.5-1.2-1.9-2.1
		l-1.3-0.8c-1.2-0.8-2.2-1.6-2.2-2.8c0-2.3,1.8-3,3.9-3c1.6,0,2.5,0.1,3.2,0.2C168.8,151.8,169,151.9,169,152.1
		C169,152.1,169,152.1,169,152.1z"/>
	<path d="M185.7,147.5l-2.7,15.3c0,0.3-0.1,0.4-0.4,0.4c-1,0.2-2.5,0.4-3.8,0.4c-2.5,0-3.5-1.6-3.5-3.9c0-0.5,0-1,0.1-1.5l0.2-1.5
		c0.6-3.7,2.4-5.3,5.3-5.3c0.9,0,2.2,0.1,3,0.3l0.8-4.4c0-0.3,0.2-0.4,0.4-0.4h0.2C185.6,147.1,185.7,147.3,185.7,147.5
		C185.7,147.5,185.7,147.5,185.7,147.5L185.7,147.5z M180.8,152.4c-2.3,0-3.7,1.5-4.2,4.4l-0.2,1.5c-0.1,0.6-0.2,1.2-0.2,1.6
		c0,1.9,0.8,2.9,2.7,2.9c1.1,0,2.3-0.1,3.1-0.3l1.7-9.8C183,152.5,181.7,152.4,180.8,152.4z"/>
	<path d="M195.7,156.8l-0.1,0.6c0,0.2-0.3,0.4-0.5,0.4h-7.5l-0.1,0.5c-0.1,0.5-0.1,1-0.1,1.4c0,2.4,1.3,3.1,3.3,3.1
		c1,0,2.2-0.1,3.4-0.4c0.1,0,0.1,0,0.2,0c0.2,0,0.3,0,0.3,0.2c0,0,0,0.1,0,0.2l0,0.2c-0.1,0.3-0.2,0.3-0.5,0.4
		c-1.1,0.2-2.4,0.4-3.4,0.4c-2.4,0-4.1-1.1-4.1-3.9c0-0.4,0-1,0.1-1.5l0.2-1.5c0.6-3.5,2.5-5.3,5.4-5.3c2.5,0,3.6,1.6,3.6,3.8
		C195.8,155.8,195.8,156.3,195.7,156.8z M192.1,152.4c-2.5,0-3.7,1.7-4.3,4.4l0,0.1h6.9l0-0.1c0.1-0.6,0.2-1.1,0.2-1.5
		C194.9,153.4,194.1,152.4,192.1,152.4z"/>
</g>
<g>
	<path d="M42.8,217.8l-0.1,0.6c0,0.2-0.3,0.4-0.5,0.4h-7.5l-0.1,0.5c-0.1,0.5-0.1,1-0.1,1.4c0,2.4,1.3,3.1,3.3,3.1
		c1,0,2.2-0.1,3.4-0.4c0.1,0,0.1,0,0.2,0c0.2,0,0.3,0,0.3,0.2c0,0,0,0.1,0,0.2l0,0.2c-0.1,0.3-0.2,0.3-0.5,0.4
		c-1.1,0.2-2.4,0.4-3.4,0.4c-2.4,0-4.1-1.1-4.1-3.9c0-0.4,0-1,0.1-1.5l0.2-1.5c0.6-3.5,2.5-5.3,5.4-5.3c2.5,0,3.6,1.6,3.6,3.8
		C43,216.8,42.9,217.2,42.8,217.8z M39.2,213.4c-2.5,0-3.7,1.7-4.3,4.4l0,0.1h6.9l0-0.1c0.1-0.6,0.2-1.1,0.2-1.5
		C42,214.4,41.2,213.4,39.2,213.4z"/>
	<path d="M54.2,216.7l-1.3,7.4c0,0.2-0.2,0.4-0.5,0.4h-0.2c-0.2,0-0.3-0.2-0.3-0.4c0,0,0,0,0-0.1l1.3-7.4c0.1-0.4,0.1-0.7,0.1-1
		c0-1.7-1.1-2.4-2.5-2.4c-1.1,0-2.5,0.4-3.7,0.9l-1.7,9.8c0,0.2-0.3,0.4-0.5,0.4h-0.1c-0.2,0-0.4-0.2-0.4-0.4c0,0,0,0,0-0.1l1.9-11
		c0-0.2,0.2-0.4,0.5-0.4h0.2c0.2,0,0.3,0.2,0.3,0.3c0,0,0,0.1,0,0.1l-0.1,0.4c1.2-0.6,2.4-0.9,3.6-0.9c1.9,0,3.4,0.9,3.4,3.2
		C54.3,216,54.3,216.4,54.2,216.7z"/>
	<path d="M70.7,213.3l-1.9,10.7c0,0.2-0.2,0.4-0.5,0.4h-0.2c-0.2,0-0.3-0.2-0.3-0.4c0,0,0-0.1,0-0.1l0.1-0.7
		c-1.2,0.6-2.5,1.3-3.8,1.3c-1.8,0-3.2-1-3.2-3.2c0-0.3,0-0.7,0.1-1.1l0.4-2.5c0.7-3.8,2.2-5.4,5.3-5.4c1.3,0,2.7,0.2,3.6,0.4
		c0.2,0,0.3,0.1,0.3,0.3C70.7,213.2,70.7,213.3,70.7,213.3z M66.7,213.4c-2.5,0-3.7,1.6-4.2,4.5l-0.4,2.5c-0.1,0.4-0.1,0.8-0.1,1.1
		c0,1.9,1.2,2.3,2.5,2.3c1.1,0,2.1-0.5,3.7-1.4l1.5-8.7C68.9,213.5,67.7,213.4,66.7,213.4z"/>
	<path d="M80.6,213.1l0,0.2c0,0.3-0.1,0.3-0.3,0.3c0,0-0.2,0-0.2,0c-0.5,0-1.9-0.2-3.1-0.2c-1.8,0-2.9,0.4-2.9,2.1
		c0,0.8,0.7,1.4,1.8,2.1l1.3,0.8c1.7,1.1,2.3,1.7,2.3,2.8c0,2.6-2.1,3.5-4.4,3.5c-1,0-2.4-0.2-3.2-0.3c-0.2,0-0.4-0.1-0.4-0.3
		c0,0,0,0,0,0l0-0.2c0-0.2,0.1-0.3,0.3-0.3c0.1,0,0.1,0,0.2,0c1.2,0.2,2.5,0.3,3.3,0.3c1.9,0,3.2-0.7,3.2-2.6c0-0.7-0.5-1.2-1.9-2.1
		l-1.3-0.8c-1.2-0.8-2.2-1.6-2.2-2.8c0-2.3,1.8-3,3.9-3c1.6,0,2.5,0.1,3.2,0.2C80.4,212.7,80.6,212.8,80.6,213.1
		C80.6,213,80.6,213.1,80.6,213.1z"/>
	<path d="M84.5,212.6c0.3,0,0.3,0.2,0.3,0.4l-1.9,11c0,0.2-0.1,0.4-0.5,0.4h-0.1c-0.3,0-0.4-0.2-0.4-0.4l1.9-11
		c0-0.2,0.1-0.4,0.4-0.4H84.5z M84.7,210.4c-0.3,0-0.4-0.2-0.4-0.4l0.3-1.6c0.1-0.4,0.3-0.4,0.5-0.4h0.1c0.3,0,0.4,0.2,0.4,0.4
		l-0.3,1.6c-0.1,0.3-0.3,0.4-0.5,0.4H84.7z"/>
	<path d="M96.1,213.3l-2,11.2c-0.6,3.5-2,4.3-4.8,4.3c-1.5,0-2.9-0.2-3.3-0.3c-0.3-0.1-0.4-0.2-0.4-0.3c0,0,0-0.1,0-0.1l0-0.1
		c0-0.2,0.2-0.3,0.4-0.3c0,0,0,0,0.1,0c0.5,0.1,1.9,0.3,3.2,0.3c2.5,0,3.2-0.6,3.8-3.4l0-0.2c-0.7,0.2-2.1,0.3-2.9,0.3
		c-1.7,0-3.8-0.5-3.8-3.7c0-0.5,0-1,0.2-1.7l0.3-1.5c0.7-4.1,2.5-5.3,5.5-5.3c1.3,0,2.7,0.2,3.4,0.4c0.2,0,0.3,0.1,0.3,0.3
		C96.2,213.2,96.1,213.3,96.1,213.3z M92.3,213.4c-2.4,0-3.8,0.9-4.4,4.4l-0.3,1.5c-0.1,0.7-0.2,1.3-0.2,1.8c0,2.3,1.3,2.7,3,2.7
		c0.7,0,2.1-0.2,2.9-0.4l1.7-9.7C94.3,213.5,93.4,213.4,92.3,213.4z"/>
	<path d="M107.1,216.7l-1.3,7.4c0,0.2-0.2,0.4-0.5,0.4h-0.2c-0.2,0-0.3-0.2-0.3-0.4c0,0,0,0,0-0.1l1.3-7.4c0.1-0.4,0.1-0.7,0.1-1
		c0-1.7-1.1-2.4-2.5-2.4c-1.1,0-2.5,0.4-3.7,0.9l-1.7,9.8c0,0.2-0.3,0.4-0.5,0.4h-0.1c-0.2,0-0.4-0.2-0.4-0.4c0,0,0,0,0-0.1l1.9-11
		c0-0.2,0.2-0.4,0.5-0.4h0.2c0.2,0,0.3,0.2,0.3,0.3c0,0,0,0.1,0,0.1l-0.1,0.4c1.2-0.6,2.4-0.9,3.6-0.9c1.9,0,3.4,0.9,3.4,3.2
		C107.2,216,107.2,216.4,107.1,216.7z"/>
	<path d="M118.8,213.3l-1.9,10.7c0,0.2-0.2,0.4-0.5,0.4h-0.2c-0.2,0-0.3-0.2-0.3-0.4c0,0,0-0.1,0-0.1l0.1-0.7
		c-1.2,0.6-2.5,1.3-3.8,1.3c-1.8,0-3.2-1-3.2-3.2c0-0.3,0-0.7,0.1-1.1l0.4-2.5c0.7-3.8,2.2-5.4,5.3-5.4c1.3,0,2.7,0.2,3.6,0.4
		c0.2,0,0.3,0.1,0.3,0.3C118.9,213.2,118.8,213.3,118.8,213.3z M114.8,213.4c-2.5,0-3.7,1.6-4.2,4.5l-0.4,2.5
		c-0.1,0.4-0.1,0.8-0.1,1.1c0,1.9,1.2,2.3,2.5,2.3c1.1,0,2.1-0.5,3.7-1.4l1.5-8.7C117,213.5,115.9,213.4,114.8,213.4z"/>
	<path d="M127.6,213l0,0.2c0,0.2-0.2,0.3-0.5,0.3h-2.6l-1.5,8.7c0,0.2-0.1,0.4-0.1,0.6c0,0.8,0.5,0.9,1.3,0.9h1.1
		c0.2,0,0.4,0,0.4,0.2c0,0,0,0,0,0.1l0,0.1c0,0.2-0.1,0.3-0.4,0.4c-0.3,0-0.8,0.1-1.2,0.1c-1.4,0-2.1-0.5-2.1-1.7
		c0-0.2,0-0.4,0.1-0.7l1.5-8.7h-2.2c-0.2,0-0.4-0.1-0.4-0.3c0,0,0-0.1,0-0.1l0-0.2c0-0.3,0.2-0.3,0.5-0.3h2.2l0.4-2.1
		c0-0.2,0.2-0.4,0.4-0.4h0.2c0.2,0,0.3,0.1,0.3,0.3c0,0,0,0.1,0,0.1l-0.4,2.1h2.6C127.4,212.6,127.6,212.7,127.6,213
		C127.6,212.9,127.6,212.9,127.6,213z"/>
	<path d="M138.4,213l-2,11c0,0.2-0.2,0.4-0.5,0.4h-0.2c-0.2,0-0.3-0.2-0.3-0.4c0,0,0,0,0-0.1c0,0,0,0,0,0l0-0.4
		c-1.2,0.6-2.4,0.9-3.6,0.9c-1.9,0-3.4-0.9-3.4-3.2c0-0.3,0-0.7,0.1-1.1l1.3-7.4c0-0.2,0.2-0.4,0.5-0.4h0.2c0.2,0,0.3,0.2,0.3,0.4
		c0,0,0,0,0,0.1l-1.3,7.4c-0.1,0.4-0.1,0.8-0.1,1.1c0,1.7,1.1,2.3,2.5,2.3c1.1,0,2.5-0.4,3.7-0.9l1.7-9.8c0-0.2,0.3-0.4,0.5-0.4h0.1
		C138.3,212.6,138.4,212.8,138.4,213C138.4,213,138.4,213,138.4,213z"/>
	<path d="M146.1,212.8l0,0.2c0,0.3-0.2,0.3-0.6,0.3c-0.8,0-1.7,0.2-3.2,1l-1.7,9.7c0,0.2-0.3,0.4-0.5,0.4h-0.1
		c-0.2,0-0.4-0.2-0.4-0.4c0,0,0,0,0-0.1l1.9-11c0-0.2,0.2-0.4,0.5-0.4h0.2c0.2,0,0.3,0.1,0.3,0.3c0,0,0,0.1,0,0.1l-0.1,0.5
		c1.2-0.7,2.1-1,3.1-1C145.9,212.5,146.1,212.5,146.1,212.8C146.1,212.8,146.1,212.8,146.1,212.8z"/>
	<path d="M155.7,213.3l-1.9,10.7c0,0.2-0.2,0.4-0.5,0.4h-0.2c-0.2,0-0.3-0.2-0.3-0.4c0,0,0-0.1,0-0.1l0.1-0.7
		c-1.2,0.6-2.5,1.3-3.8,1.3c-1.8,0-3.2-1-3.2-3.2c0-0.3,0-0.7,0.1-1.1l0.4-2.5c0.7-3.8,2.2-5.4,5.3-5.4c1.3,0,2.7,0.2,3.6,0.4
		c0.2,0,0.3,0.1,0.3,0.3C155.7,213.2,155.7,213.3,155.7,213.3z M151.7,213.4c-2.5,0-3.7,1.6-4.2,4.5l-0.4,2.5
		c-0.1,0.4-0.1,0.8-0.1,1.1c0,1.9,1.2,2.3,2.5,2.3c1.1,0,2.1-0.5,3.7-1.4l1.5-8.7C153.9,213.5,152.7,213.4,151.7,213.4z"/>
	<path d="M165.6,213.1l0,0.2c0,0.3-0.1,0.3-0.3,0.3c0,0-0.2,0-0.2,0c-0.5,0-1.9-0.2-3.1-0.2c-1.8,0-2.9,0.4-2.9,2.1
		c0,0.8,0.7,1.4,1.8,2.1l1.3,0.8c1.7,1.1,2.3,1.7,2.3,2.8c0,2.6-2.1,3.5-4.4,3.5c-1,0-2.4-0.2-3.2-0.3c-0.2,0-0.4-0.1-0.4-0.3
		c0,0,0,0,0,0l0-0.2c0-0.2,0.1-0.3,0.3-0.3c0.1,0,0.1,0,0.2,0c1.2,0.2,2.5,0.3,3.3,0.3c1.9,0,3.2-0.7,3.2-2.6c0-0.7-0.5-1.2-1.9-2.1
		l-1.3-0.8c-1.2-0.8-2.2-1.6-2.2-2.8c0-2.3,1.8-3,3.9-3c1.6,0,2.5,0.1,3.2,0.2C165.4,212.7,165.6,212.8,165.6,213.1
		C165.6,213,165.6,213.1,165.6,213.1z"/>
	<path d="M42.2,239.7l0,0.2c0,0.2-0.2,0.3-0.4,0.3c0,0,0,0-0.1,0h0c-1-0.1-1.9-0.2-2.6-0.2c-2.5,0-3.8,1.9-4.2,4.4l-0.2,1.5
		c-0.1,0.6-0.2,1.1-0.2,1.6c0,1.8,0.8,2.9,2.8,2.9c0.7,0,1.6-0.1,2.7-0.2c0,0,0,0,0,0c0,0,0,0,0.1,0c0.2,0,0.3,0.1,0.3,0.2
		c0,0,0,0,0,0v0l0,0.2c0,0.2-0.2,0.4-0.5,0.4c-1,0.1-2,0.2-2.7,0.2c-2.5,0-3.6-1.5-3.6-3.8c0-0.5,0-1,0.1-1.5l0.2-1.5
		c0.5-3.2,2.1-5.3,5.3-5.3c0.7,0,1.7,0.1,2.6,0.2c0.3,0,0.4,0.1,0.4,0.3C42.2,239.6,42.2,239.6,42.2,239.7
		C42.2,239.6,42.2,239.6,42.2,239.7z"/>
	<path d="M52.1,244.4l-0.3,1.5c-0.6,3.4-2.3,5.3-5.5,5.3c-2.5,0-3.8-1.5-3.8-3.9c0-0.4,0-0.9,0.1-1.4l0.3-1.5
		c0.6-3.5,2.4-5.3,5.5-5.3c2.5,0,3.7,1.5,3.7,3.8C52.2,243.4,52.1,243.8,52.1,244.4z M48.3,239.9c-2.5,0-3.9,1.8-4.4,4.4l-0.3,1.5
		c-0.1,0.6-0.2,1.1-0.2,1.5c0,1.9,0.8,2.9,3,2.9c2.5,0,3.9-1.8,4.4-4.4l0.3-1.5c0.1-0.6,0.2-1.1,0.2-1.5
		C51.2,241,50.4,239.9,48.3,239.9z"/>
	<path d="M63.5,243.3l-1.3,7.4c0,0.2-0.2,0.4-0.5,0.4h-0.2c-0.2,0-0.3-0.2-0.3-0.4c0,0,0,0,0-0.1l1.3-7.4c0.1-0.4,0.1-0.7,0.1-1
		c0-1.7-1.1-2.4-2.5-2.4c-1.1,0-2.5,0.4-3.7,0.9l-1.7,9.8c0,0.2-0.3,0.4-0.5,0.4h-0.1c-0.2,0-0.4-0.2-0.4-0.4c0,0,0,0,0-0.1l1.9-11
		c0-0.2,0.2-0.4,0.5-0.4h0.2c0.2,0,0.3,0.2,0.3,0.3c0,0,0,0.1,0,0.1l-0.1,0.4c1.2-0.6,2.4-0.9,3.6-0.9c1.9,0,3.4,0.9,3.4,3.2
		C63.6,242.6,63.5,242.9,63.5,243.3z"/>
	<path d="M79.1,239.7l0,0.2c0,0.2-0.2,0.3-0.4,0.3c0,0,0,0-0.1,0h0c-1-0.1-1.9-0.2-2.6-0.2c-2.5,0-3.8,1.9-4.2,4.4l-0.2,1.5
		c-0.1,0.6-0.2,1.1-0.2,1.6c0,1.8,0.8,2.9,2.8,2.9c0.7,0,1.6-0.1,2.7-0.2c0,0,0,0,0,0c0,0,0,0,0.1,0c0.2,0,0.3,0.1,0.3,0.2
		c0,0,0,0,0,0v0l0,0.2c0,0.2-0.2,0.4-0.5,0.4c-1,0.1-2,0.2-2.7,0.2c-2.5,0-3.6-1.5-3.6-3.8c0-0.5,0-1,0.1-1.5l0.2-1.5
		c0.5-3.2,2.1-5.3,5.3-5.3c0.7,0,1.7,0.1,2.6,0.2c0.3,0,0.4,0.1,0.4,0.3C79.1,239.6,79.1,239.6,79.1,239.7
		C79.1,239.6,79.1,239.6,79.1,239.7z"/>
	<path d="M88.9,244.4l-0.3,1.5c-0.6,3.4-2.3,5.3-5.5,5.3c-2.5,0-3.8-1.5-3.8-3.9c0-0.4,0-0.9,0.1-1.4l0.3-1.5
		c0.6-3.5,2.4-5.3,5.5-5.3c2.5,0,3.7,1.5,3.7,3.8C89.1,243.4,89,243.8,88.9,244.4z M85.2,239.9c-2.5,0-3.9,1.8-4.4,4.4l-0.3,1.5
		c-0.1,0.6-0.2,1.1-0.2,1.5c0,1.9,0.8,2.9,3,2.9c2.5,0,3.9-1.8,4.4-4.4l0.3-1.5c0.1-0.6,0.2-1.1,0.2-1.5
		C88.1,241,87.3,239.9,85.2,239.9z"/>
	<path d="M100.3,243.3l-1.3,7.4c0,0.2-0.2,0.4-0.5,0.4h-0.2c-0.2,0-0.3-0.2-0.3-0.4c0,0,0,0,0-0.1l1.3-7.4c0.1-0.4,0.1-0.7,0.1-1
		c0-1.7-1.1-2.4-2.5-2.4c-1.1,0-2.5,0.4-3.7,0.9l-1.7,9.8c0,0.2-0.3,0.4-0.5,0.4h-0.1c-0.2,0-0.4-0.2-0.4-0.4c0,0,0,0,0-0.1l1.9-11
		c0-0.2,0.2-0.4,0.5-0.4h0.2c0.2,0,0.3,0.2,0.3,0.3c0,0,0,0.1,0,0.1l-0.1,0.4c1.2-0.6,2.4-0.9,3.6-0.9c1.9,0,3.4,0.9,3.4,3.2
		C100.4,242.6,100.4,242.9,100.3,243.3z"/>
	<path d="M111.8,239.7l-4.7,10.1c-0.6,1.2-1.1,1.4-1.7,1.4c-0.6,0-1.2-0.2-1.3-1.4l-1.1-10.1c0,0,0-0.1,0-0.1c0-0.3,0.1-0.5,0.4-0.5
		h0.2c0.2,0,0.3,0.1,0.3,0.4l1.1,10c0.1,0.7,0.3,0.8,0.5,0.8s0.4-0.1,0.8-0.8l4.6-10c0.1-0.3,0.3-0.4,0.5-0.4h0.3
		c0.2,0,0.3,0.1,0.3,0.2C111.9,239.5,111.9,239.6,111.8,239.7z"/>
	<path d="M121.5,244.3l-0.1,0.6c0,0.2-0.3,0.4-0.5,0.4h-7.5l-0.1,0.5c-0.1,0.5-0.1,1-0.1,1.4c0,2.4,1.3,3.1,3.3,3.1
		c1,0,2.2-0.1,3.4-0.4c0.1,0,0.1,0,0.2,0c0.2,0,0.3,0,0.3,0.2c0,0,0,0.1,0,0.2l0,0.2c-0.1,0.3-0.2,0.3-0.5,0.4
		c-1.1,0.2-2.4,0.4-3.4,0.4c-2.4,0-4.1-1.1-4.1-3.9c0-0.4,0-1,0.1-1.5l0.2-1.5c0.6-3.5,2.5-5.3,5.4-5.3c2.5,0,3.6,1.6,3.6,3.8
		C121.7,243.3,121.6,243.8,121.5,244.3z M117.9,239.9c-2.5,0-3.7,1.7-4.3,4.4l0,0.1h6.9l0-0.1c0.1-0.6,0.2-1.1,0.2-1.5
		C120.7,241,119.9,239.9,117.9,239.9z"/>
	<path d="M132.9,243.3l-1.3,7.4c0,0.2-0.2,0.4-0.5,0.4H131c-0.2,0-0.3-0.2-0.3-0.4c0,0,0,0,0-0.1l1.3-7.4c0.1-0.4,0.1-0.7,0.1-1
		c0-1.7-1.1-2.4-2.5-2.4c-1.1,0-2.5,0.4-3.7,0.9l-1.7,9.8c0,0.2-0.3,0.4-0.5,0.4h-0.1c-0.2,0-0.4-0.2-0.4-0.4c0,0,0,0,0-0.1l1.9-11
		c0-0.2,0.2-0.4,0.5-0.4h0.2c0.2,0,0.3,0.2,0.3,0.3c0,0,0,0.1,0,0.1L126,240c1.2-0.6,2.4-0.9,3.6-0.9c1.9,0,3.4,0.9,3.4,3.2
		C133,242.6,133,242.9,132.9,243.3z"/>
	<path d="M137.6,239.2c0.3,0,0.3,0.2,0.3,0.4l-1.9,11c0,0.2-0.1,0.4-0.5,0.4h-0.1c-0.3,0-0.4-0.2-0.4-0.4l1.9-11
		c0-0.2,0.1-0.4,0.4-0.4H137.6z M137.8,237c-0.3,0-0.4-0.2-0.4-0.4l0.3-1.6c0.1-0.4,0.3-0.4,0.5-0.4h0.1c0.3,0,0.4,0.2,0.4,0.4
		l-0.3,1.6c-0.1,0.3-0.3,0.4-0.5,0.4H137.8z"/>
	<path d="M149.1,244.4l-0.3,1.5c-0.6,3.4-2.3,5.3-5.5,5.3c-2.5,0-3.8-1.5-3.8-3.9c0-0.4,0-0.9,0.1-1.4l0.3-1.5
		c0.6-3.5,2.4-5.3,5.5-5.3c2.5,0,3.7,1.5,3.7,3.8C149.3,243.4,149.2,243.8,149.1,244.4z M145.4,239.9c-2.5,0-3.9,1.8-4.4,4.4
		l-0.3,1.5c-0.1,0.6-0.2,1.1-0.2,1.5c0,1.9,0.8,2.9,3,2.9c2.5,0,3.9-1.8,4.4-4.4l0.3-1.5c0.1-0.6,0.2-1.1,0.2-1.5
		C148.3,241,147.5,239.9,145.4,239.9z"/>
	<path d="M151.9,249.1l-0.3,1.6c0,0.2-0.3,0.4-0.5,0.4H151c-0.2,0-0.4-0.1-0.4-0.4c0,0,0,0,0-0.1l0.3-1.6c0-0.2,0.3-0.4,0.5-0.4h0.1
		C151.7,248.7,151.9,248.9,151.9,249.1C151.9,249.1,151.9,249.1,151.9,249.1z"/>
</g>
<g>
	<path class="st1" d="M393.6,181l-3.5,19.9c-0.1,0.4-0.2,0.8-0.8,0.8h-5.5c-0.7,0-0.8-0.3-0.8-0.8l0.2-1.1c-1.8,1.5-3.2,2.2-6.2,2.2
		c-4.1,0-6.7-2.6-6.7-7c0-1.3,0.1-1.9,0.2-2.6l0.6-3.5c1.4-8.2,6.2-10.2,12.4-10.2c2.9,0,5.9,0.4,8.8,0.9
		C393.2,179.8,393.8,180.1,393.6,181z M382.6,185.8c-1.6,0-2.5,0.6-2.9,3.1l-0.7,3.7c-0.1,0.4-0.1,0.8-0.1,1.1
		c0,1.1,0.5,1.4,1.5,1.4c0.8,0,1.7-0.3,2.4-0.6l1.5-8.6C383.6,185.8,383.1,185.8,382.6,185.8z"/>
	<path class="st1" d="M407.5,172.7l-5,28.1c-0.1,0.5-0.2,0.8-1,0.8h-6.9c-0.5,0-0.8-0.2-0.7-0.8l5-28.1c0.1-0.5,0.3-0.8,1-0.8h6.9
		C407.3,171.9,407.6,172.1,407.5,172.7z"/>
	<path class="st1" d="M431.1,180l-3.7,20.9c-0.1,0.4-0.2,0.8-0.9,0.8h-6.3c-0.4,0-0.8-0.2-0.6-0.8l0.2-1.1c-1.8,1.3-3.2,2.2-6.3,2.2
		c-4.4,0-6-3-6-6.5c0-0.8,0.1-1.6,0.2-2.3L410,180c0.1-0.5,0.5-0.8,1-0.8h6.9c0.5,0,0.8,0.3,0.7,0.8l-2.2,12.6
		c-0.1,0.4-0.2,1-0.2,1.1c0,1,0.7,1.3,1.6,1.3c0.7,0,1.5-0.2,2.2-0.6l2.6-14.5c0.1-0.5,0.3-0.8,0.9-0.8h6.9
		C430.8,179.1,431.2,179.3,431.1,180z"/>
	<path class="st1" d="M465.1,187.7l-2.3,13.1c-0.1,0.5-0.3,0.8-1,0.8h-6.9c-0.5,0-0.8-0.3-0.7-0.8l2.3-13.1c0-0.2,0.1-0.5,0.1-0.6
		c0-0.8-0.5-1-1.2-1c-0.5,0-1.1,0.1-1.7,0.2c-0.1,0.6-0.1,0.8-0.2,1.4l-2.3,13.1c-0.1,0.5-0.3,0.8-1,0.8h-6.9
		c-0.6,0-0.8-0.4-0.7-0.8l2.3-13.1c0-0.3,0.1-0.5,0.1-0.6c0-0.8-0.4-1-1.2-1c-0.5,0-1.2,0.1-1.7,0.2l-2.6,14.5
		c-0.1,0.5-0.2,0.8-0.9,0.8h-6.9c-0.5,0-0.8-0.2-0.7-0.8l3.7-20.9c0.1-0.4,0.2-0.8,0.9-0.8h6.3c0.5,0,0.7,0.3,0.6,0.8l-0.2,1.1
		c2.4-1.9,4.4-2.3,6.6-2.3c1.9,0,3.6,0.6,4.3,2.3c1.9-1.6,4.2-2.3,6.4-2.3c3.9,0,5.7,2.4,5.7,6.2
		C465.4,185.8,465.3,186.8,465.1,187.7z"/>
	<path class="st1" d="M490.1,187.6l-2.3,13.2c-0.1,0.5-0.2,0.8-1,0.8h-6.9c-0.5,0-0.8-0.2-0.7-0.8l2.3-13.2c0-0.2,0-0.5,0-0.7
		c0-0.8-0.7-1.2-1.6-1.2c-0.7,0-1.5,0.2-2.2,0.6l-2.6,14.5c-0.1,0.5-0.2,0.8-0.9,0.8h-6.9c-0.5,0-0.8-0.3-0.7-0.8l3.7-20.9
		c0.1-0.4,0.5-0.8,0.9-0.8h6.3c0.6,0,0.7,0.3,0.6,0.8l-0.2,1.1c2-1.5,3.8-2.2,6.5-2.2c4.7,0,5.8,3,5.8,6.2
		C490.3,185.8,490.2,186.7,490.1,187.6z"/>
	<path class="st1" d="M514,189.5l-0.3,1.8c-1.4,8.1-5.9,10.8-12.4,10.8c-5.7,0-8.8-3.1-8.8-8.2c0-0.8,0.1-1.7,0.2-2.6l0.3-1.8
		c1.4-8,5.9-10.8,12.4-10.8c5.7,0,8.9,2.8,8.9,8.1C514.2,187.6,514.1,188.5,514,189.5z M504.1,185.8c-1.3,0-2.2,1.1-2.7,3.7
		l-0.3,1.8c-0.1,0.7-0.2,1.3-0.2,1.8c0,1.5,0.6,1.9,1.6,1.9c1.3,0,2.1-0.8,2.7-3.7l0.3-1.8c0.1-0.7,0.2-1.3,0.2-1.8
		C505.7,186.2,505.1,185.8,504.1,185.8z"/>
	<path class="st1" d="M535.5,180.6l-0.9,5c-0.1,0.5-0.2,1-0.9,0.8c-1.1-0.2-5.2-0.7-6.7-0.7c-0.3,0-0.9,0-0.9,0.4
		c0,0.3,0.1,0.4,0.8,0.8l3,1.6c3.4,1.8,3.8,3.8,3.8,5.8c0,5.5-4.5,7.7-11.2,7.7c-3.3,0-5.5-0.5-6.9-1c-0.5-0.2-0.6-0.4-0.6-0.8
		l0.8-4.8c0.1-0.6,0.3-1,1.1-0.9c2.5,0.4,5.2,0.7,6.5,0.7c0.6,0,1.5,0,1.5-0.9c0-0.2-0.1-0.4-0.7-0.8l-3.4-1.9
		c-2.3-1.3-3.4-3-3.4-5.4c0-6.1,5-7.6,10.2-7.6c2.8,0,5.5,0.6,7.1,1C535.4,179.9,535.6,180,535.5,180.6z"/>
</g>
<g>
	<path d="M381.7,156.9l-0.3,1.5c-0.7,3.6-2.3,5.3-5.3,5.3c-0.9,0-2.2-0.2-3-0.4l-0.7,4.1c0,0.2-0.2,0.4-0.4,0.4h-0.2
		c-0.2,0-0.3-0.2-0.3-0.4c0,0,0,0,0-0.1l2.7-15.1c0-0.3,0.1-0.4,0.4-0.4c1-0.2,2.2-0.4,3.8-0.4c2.5,0,3.5,1.5,3.5,3.8
		C381.9,155.8,381.8,156.4,381.7,156.9z M378.2,152.4c-1.1,0-2.5,0.2-3.1,0.3l-1.7,9.7c0.8,0.2,2.1,0.3,3,0.3c2.3,0,3.6-1.6,4.1-4.4
		l0.3-1.5c0.1-0.6,0.2-1.2,0.2-1.7C380.9,153.3,380.1,152.4,378.2,152.4z"/>
	<path d="M393.4,152.4l-1.9,10.7c0,0.2-0.2,0.4-0.5,0.4h-0.2c-0.2,0-0.3-0.2-0.3-0.4c0,0,0-0.1,0-0.1l0.1-0.7
		c-1.2,0.6-2.5,1.3-3.8,1.3c-1.8,0-3.2-1-3.2-3.2c0-0.3,0-0.7,0.1-1.1l0.4-2.5c0.7-3.8,2.2-5.4,5.3-5.4c1.3,0,2.7,0.2,3.6,0.4
		c0.2,0,0.3,0.1,0.3,0.3C393.4,152.3,393.4,152.3,393.4,152.4z M389.3,152.4c-2.5,0-3.7,1.6-4.2,4.5l-0.4,2.5
		c-0.1,0.4-0.1,0.8-0.1,1.1c0,1.9,1.2,2.3,2.5,2.3c1.1,0,2.1-0.5,3.7-1.4l1.5-8.7C391.5,152.6,390.4,152.4,389.3,152.4z"/>
	<path d="M401,151.9l0,0.2c0,0.3-0.2,0.3-0.6,0.3c-0.8,0-1.7,0.2-3.2,1l-1.7,9.7c0,0.2-0.3,0.4-0.5,0.4h-0.1c-0.2,0-0.4-0.2-0.4-0.4
		c0,0,0,0,0-0.1l1.9-11c0-0.2,0.2-0.4,0.5-0.4h0.2c0.2,0,0.3,0.1,0.3,0.3c0,0,0,0.1,0,0.1l-0.1,0.5c1.2-0.7,2.1-1,3.1-1
		C400.9,151.6,401,151.6,401,151.9C401,151.9,401,151.9,401,151.9z"/>
	<path d="M409.4,152l0,0.2c0,0.2-0.2,0.3-0.5,0.3h-2.6l-1.5,8.7c0,0.2-0.1,0.4-0.1,0.6c0,0.8,0.5,0.9,1.3,0.9h1.1
		c0.2,0,0.4,0,0.4,0.2c0,0,0,0,0,0.1l0,0.1c0,0.2-0.1,0.3-0.4,0.4c-0.3,0-0.8,0.1-1.2,0.1c-1.4,0-2.1-0.5-2.1-1.7
		c0-0.2,0-0.4,0.1-0.7l1.6-8.7H403c-0.2,0-0.4-0.1-0.4-0.3c0,0,0-0.1,0-0.1l0-0.2c0-0.3,0.2-0.3,0.5-0.3h2.2l0.4-2.1
		c0-0.2,0.2-0.4,0.4-0.4h0.2c0.2,0,0.3,0.1,0.3,0.3c0,0,0,0.1,0,0.1l-0.4,2.1h2.6C409.2,151.7,409.4,151.7,409.4,152
		C409.4,152,409.4,152,409.4,152z"/>
	<path d="M412.7,151.7c0.3,0,0.3,0.2,0.3,0.4l-1.9,11c0,0.2-0.1,0.4-0.5,0.4h-0.1c-0.3,0-0.4-0.2-0.4-0.4l1.9-11
		c0-0.2,0.1-0.4,0.4-0.4H412.7z M412.9,149.5c-0.3,0-0.4-0.2-0.4-0.4l0.3-1.6c0.1-0.4,0.3-0.4,0.5-0.4h0.1c0.3,0,0.4,0.2,0.4,0.4
		l-0.3,1.6c-0.1,0.3-0.3,0.4-0.5,0.4H412.9z"/>
	<path d="M423.4,152.2l0,0.2c0,0.2-0.2,0.3-0.4,0.3c0,0,0,0-0.1,0h0c-1-0.1-1.9-0.2-2.6-0.2c-2.5,0-3.8,1.9-4.2,4.4l-0.2,1.5
		c-0.1,0.6-0.2,1.1-0.2,1.6c0,1.8,0.8,2.9,2.8,2.9c0.7,0,1.6-0.1,2.7-0.2c0,0,0,0,0,0c0,0,0,0,0.1,0c0.2,0,0.3,0.1,0.3,0.2
		c0,0,0,0,0,0v0l0,0.2c0,0.2-0.2,0.4-0.5,0.4c-1,0.1-2,0.2-2.7,0.2c-2.5,0-3.6-1.5-3.6-3.8c0-0.5,0-1,0.1-1.5l0.2-1.5
		c0.5-3.2,2.1-5.3,5.3-5.3c0.7,0,1.7,0.1,2.6,0.2c0.3,0,0.4,0.1,0.4,0.3C423.4,152.1,423.4,152.1,423.4,152.2
		C423.4,152.1,423.4,152.1,423.4,152.2z"/>
	<path d="M426.9,151.7c0.3,0,0.3,0.2,0.3,0.4l-1.9,11c0,0.2-0.1,0.4-0.5,0.4h-0.1c-0.3,0-0.4-0.2-0.4-0.4l1.9-11
		c0-0.2,0.1-0.4,0.4-0.4H426.9z M427.1,149.5c-0.3,0-0.4-0.2-0.4-0.4l0.3-1.6c0.1-0.4,0.3-0.4,0.5-0.4h0.1c0.3,0,0.4,0.2,0.4,0.4
		l-0.3,1.6c-0.1,0.3-0.3,0.4-0.5,0.4H427.1z"/>
	<path d="M438,156.9l-0.3,1.5c-0.7,3.6-2.3,5.3-5.3,5.3c-0.9,0-2.2-0.2-3-0.4l-0.7,4.1c0,0.2-0.2,0.4-0.4,0.4h-0.2
		c-0.2,0-0.3-0.2-0.3-0.4c0,0,0,0,0-0.1l2.7-15.1c0-0.3,0.1-0.4,0.4-0.4c1-0.2,2.2-0.4,3.8-0.4c2.5,0,3.5,1.5,3.5,3.8
		C438.2,155.8,438.1,156.4,438,156.9z M434.5,152.4c-1.1,0-2.5,0.2-3.1,0.3l-1.7,9.7c0.8,0.2,2.1,0.3,3,0.3c2.3,0,3.6-1.6,4.1-4.4
		l0.3-1.5c0.1-0.6,0.2-1.2,0.2-1.7C437.2,153.3,436.4,152.4,434.5,152.4z"/>
	<path d="M449.7,152.4l-1.9,10.7c0,0.2-0.2,0.4-0.5,0.4h-0.2c-0.2,0-0.3-0.2-0.3-0.4c0,0,0-0.1,0-0.1l0.1-0.7
		c-1.2,0.6-2.5,1.3-3.8,1.3c-1.8,0-3.2-1-3.2-3.2c0-0.3,0-0.7,0.1-1.1l0.4-2.5c0.7-3.8,2.2-5.4,5.3-5.4c1.3,0,2.7,0.2,3.6,0.4
		c0.2,0,0.3,0.1,0.3,0.3C449.7,152.3,449.7,152.3,449.7,152.4z M445.6,152.4c-2.5,0-3.7,1.6-4.2,4.5l-0.4,2.5
		c-0.1,0.4-0.1,0.8-0.1,1.1c0,1.9,1.2,2.3,2.5,2.3c1.1,0,2.1-0.5,3.7-1.4l1.5-8.7C447.8,152.6,446.7,152.4,445.6,152.4z"/>
	<path d="M460,152.2l0,0.2c0,0.2-0.2,0.3-0.4,0.3c0,0,0,0-0.1,0h0c-1-0.1-1.9-0.2-2.6-0.2c-2.5,0-3.8,1.9-4.2,4.4l-0.2,1.5
		c-0.1,0.6-0.2,1.1-0.2,1.6c0,1.8,0.8,2.9,2.8,2.9c0.7,0,1.6-0.1,2.7-0.2c0,0,0,0,0,0c0,0,0,0,0.1,0c0.2,0,0.3,0.1,0.3,0.2
		c0,0,0,0,0,0v0l0,0.2c0,0.2-0.2,0.4-0.5,0.4c-1,0.1-2,0.2-2.7,0.2c-2.5,0-3.6-1.5-3.6-3.8c0-0.5,0-1,0.1-1.5l0.2-1.5
		c0.5-3.2,2.1-5.3,5.3-5.3c0.7,0,1.7,0.1,2.6,0.2c0.3,0,0.4,0.1,0.4,0.3C460,152.1,460,152.1,460,152.2
		C460,152.1,460,152.1,460,152.2z"/>
	<path d="M463.4,151.7c0.3,0,0.3,0.2,0.3,0.4l-1.9,11c0,0.2-0.1,0.4-0.5,0.4h-0.1c-0.3,0-0.4-0.2-0.4-0.4l1.9-11
		c0-0.2,0.1-0.4,0.4-0.4H463.4z M463.6,149.5c-0.3,0-0.4-0.2-0.4-0.4l0.3-1.6c0.1-0.4,0.3-0.4,0.5-0.4h0.1c0.3,0,0.4,0.2,0.4,0.4
		l-0.3,1.6c-0.1,0.3-0.3,0.4-0.5,0.4H463.6z"/>
	<path d="M474.9,156.9l-0.3,1.5c-0.6,3.4-2.3,5.3-5.5,5.3c-2.5,0-3.8-1.5-3.8-3.9c0-0.4,0-0.9,0.1-1.4l0.3-1.5
		c0.6-3.5,2.4-5.3,5.5-5.3c2.5,0,3.7,1.5,3.7,3.8C475.1,155.9,475,156.3,474.9,156.9z M471.2,152.4c-2.5,0-3.9,1.8-4.4,4.4l-0.3,1.5
		c-0.1,0.6-0.2,1.1-0.2,1.5c0,1.9,0.8,2.9,3,2.9c2.5,0,3.9-1.8,4.4-4.4l0.3-1.5c0.1-0.6,0.2-1.1,0.2-1.5
		C474.1,153.5,473.3,152.4,471.2,152.4z"/>
	<path d="M486.3,155.8l-1.3,7.4c0,0.2-0.2,0.4-0.5,0.4h-0.2c-0.2,0-0.3-0.2-0.3-0.4c0,0,0,0,0-0.1l1.3-7.4c0.1-0.4,0.1-0.7,0.1-1
		c0-1.7-1.1-2.4-2.5-2.4c-1.1,0-2.5,0.4-3.7,0.9l-1.7,9.8c0,0.2-0.3,0.4-0.5,0.4H477c-0.2,0-0.4-0.2-0.4-0.4c0,0,0,0,0-0.1l1.9-11
		c0-0.2,0.2-0.4,0.5-0.4h0.2c0.2,0,0.3,0.2,0.3,0.3c0,0,0,0.1,0,0.1l-0.1,0.4c1.2-0.6,2.4-0.9,3.6-0.9c1.9,0,3.4,0.9,3.4,3.2
		C486.5,155.1,486.4,155.4,486.3,155.8z"/>
	<path d="M497.8,156.8l-0.1,0.6c0,0.2-0.3,0.4-0.5,0.4h-7.5l-0.1,0.5c-0.1,0.5-0.1,1-0.1,1.4c0,2.4,1.3,3.1,3.3,3.1
		c1,0,2.2-0.1,3.4-0.4c0.1,0,0.1,0,0.2,0c0.2,0,0.3,0,0.3,0.2c0,0,0,0.1,0,0.2l0,0.2c-0.1,0.3-0.2,0.3-0.5,0.4
		c-1.1,0.2-2.4,0.4-3.4,0.4c-2.4,0-4.1-1.1-4.1-3.9c0-0.4,0-1,0.1-1.5l0.2-1.5c0.6-3.5,2.5-5.3,5.4-5.3c2.5,0,3.6,1.6,3.6,3.8
		C498,155.8,497.9,156.3,497.8,156.8z M494.2,152.4c-2.5,0-3.7,1.7-4.3,4.4l0,0.1h6.9l0-0.1c0.1-0.6,0.2-1.1,0.2-1.5
		C497,153.4,496.2,152.4,494.2,152.4z"/>
	<path d="M508.1,152.1l0,0.2c0,0.3-0.1,0.3-0.3,0.3c0,0-0.2,0-0.2,0c-0.5,0-1.9-0.2-3.1-0.2c-1.8,0-2.9,0.4-2.9,2.1
		c0,0.8,0.7,1.4,1.8,2.1l1.3,0.8c1.7,1.1,2.3,1.7,2.3,2.8c0,2.6-2.1,3.5-4.4,3.5c-1,0-2.4-0.2-3.2-0.3c-0.2,0-0.4-0.1-0.4-0.3
		c0,0,0,0,0,0l0-0.2c0-0.2,0.1-0.3,0.3-0.3c0.1,0,0.1,0,0.2,0c1.2,0.2,2.5,0.3,3.3,0.3c1.9,0,3.2-0.7,3.2-2.6c0-0.7-0.5-1.2-1.9-2.1
		l-1.3-0.8c-1.2-0.8-2.2-1.6-2.2-2.8c0-2.3,1.8-3,3.9-3c1.6,0,2.5,0.1,3.2,0.2C507.9,151.8,508.1,151.9,508.1,152.1
		C508.1,152.1,508.1,152.1,508.1,152.1z"/>
	<path d="M524.8,147.5l-2.7,15.3c0,0.3-0.1,0.4-0.4,0.4c-1,0.2-2.5,0.4-3.8,0.4c-2.5,0-3.5-1.6-3.5-3.9c0-0.5,0-1,0.1-1.5l0.2-1.5
		c0.6-3.7,2.4-5.3,5.3-5.3c0.9,0,2.2,0.1,3,0.3l0.8-4.4c0-0.3,0.2-0.4,0.4-0.4h0.2C524.7,147.1,524.8,147.3,524.8,147.5
		C524.8,147.5,524.8,147.5,524.8,147.5L524.8,147.5z M519.9,152.4c-2.3,0-3.7,1.5-4.2,4.4l-0.2,1.5c-0.1,0.6-0.2,1.2-0.2,1.6
		c0,1.9,0.8,2.9,2.7,2.9c1.1,0,2.3-0.1,3.1-0.3l1.7-9.8C522.1,152.5,520.7,152.4,519.9,152.4z"/>
	<path d="M534.8,156.8l-0.1,0.6c0,0.2-0.3,0.4-0.5,0.4h-7.5l-0.1,0.5c-0.1,0.5-0.1,1-0.1,1.4c0,2.4,1.3,3.1,3.3,3.1
		c1,0,2.2-0.1,3.4-0.4c0.1,0,0.1,0,0.2,0c0.2,0,0.3,0,0.3,0.2c0,0,0,0.1,0,0.2l0,0.2c-0.1,0.3-0.2,0.3-0.5,0.4
		c-1.1,0.2-2.4,0.4-3.4,0.4c-2.4,0-4.1-1.1-4.1-3.9c0-0.4,0-1,0.1-1.5l0.2-1.5c0.6-3.5,2.5-5.3,5.4-5.3c2.5,0,3.6,1.6,3.6,3.8
		C534.9,155.8,534.9,156.3,534.8,156.8z M531.2,152.4c-2.5,0-3.7,1.7-4.3,4.4l0,0.1h6.9l0-0.1c0.1-0.6,0.2-1.1,0.2-1.5
		C534,153.4,533.2,152.4,531.2,152.4z"/>
</g>
<g>
	<path d="M381.9,217.8l-0.1,0.6c0,0.2-0.3,0.4-0.5,0.4h-7.5l-0.1,0.5c-0.1,0.5-0.1,1-0.1,1.4c0,2.4,1.3,3.1,3.3,3.1
		c1,0,2.2-0.1,3.4-0.4c0.1,0,0.1,0,0.2,0c0.2,0,0.3,0,0.3,0.2c0,0,0,0.1,0,0.2l0,0.2c-0.1,0.3-0.2,0.3-0.5,0.4
		c-1.1,0.2-2.4,0.4-3.4,0.4c-2.4,0-4.1-1.1-4.1-3.9c0-0.4,0-1,0.1-1.5l0.2-1.5c0.6-3.5,2.5-5.3,5.4-5.3c2.5,0,3.6,1.6,3.6,3.8
		C382,216.8,382,217.2,381.9,217.8z M378.3,213.4c-2.5,0-3.7,1.7-4.3,4.4l0,0.1h6.9l0-0.1c0.1-0.6,0.2-1.1,0.2-1.5
		C381.1,214.4,380.3,213.4,378.3,213.4z"/>
	<path d="M393.3,216.7l-1.3,7.4c0,0.2-0.2,0.4-0.5,0.4h-0.2c-0.2,0-0.3-0.2-0.3-0.4c0,0,0,0,0-0.1l1.3-7.4c0.1-0.4,0.1-0.7,0.1-1
		c0-1.7-1.1-2.4-2.5-2.4c-1.1,0-2.5,0.4-3.7,0.9l-1.7,9.8c0,0.2-0.3,0.4-0.5,0.4h-0.1c-0.2,0-0.4-0.2-0.4-0.4c0,0,0,0,0-0.1l1.9-11
		c0-0.2,0.2-0.4,0.5-0.4h0.2c0.2,0,0.3,0.2,0.3,0.3c0,0,0,0.1,0,0.1l-0.1,0.4c1.2-0.6,2.4-0.9,3.6-0.9c1.9,0,3.4,0.9,3.4,3.2
		C393.4,216,393.4,216.4,393.3,216.7z"/>
	<path d="M409.8,213.3l-1.9,10.7c0,0.2-0.2,0.4-0.5,0.4h-0.2c-0.2,0-0.3-0.2-0.3-0.4c0,0,0-0.1,0-0.1l0.1-0.7
		c-1.2,0.6-2.5,1.3-3.8,1.3c-1.8,0-3.2-1-3.2-3.2c0-0.3,0-0.7,0.1-1.1l0.4-2.5c0.7-3.8,2.2-5.4,5.3-5.4c1.3,0,2.7,0.2,3.6,0.4
		c0.2,0,0.3,0.1,0.3,0.3C409.8,213.2,409.8,213.3,409.8,213.3z M405.8,213.4c-2.5,0-3.7,1.6-4.2,4.5l-0.4,2.5
		c-0.1,0.4-0.1,0.8-0.1,1.1c0,1.9,1.2,2.3,2.5,2.3c1.1,0,2.1-0.5,3.7-1.4l1.5-8.7C408,213.5,406.8,213.4,405.8,213.4z"/>
	<path d="M419.6,213.1l0,0.2c0,0.3-0.1,0.3-0.3,0.3c0,0-0.2,0-0.2,0c-0.5,0-1.9-0.2-3.1-0.2c-1.8,0-2.9,0.4-2.9,2.1
		c0,0.8,0.7,1.4,1.8,2.1l1.3,0.8c1.7,1.1,2.3,1.7,2.3,2.8c0,2.6-2.1,3.5-4.4,3.5c-1,0-2.4-0.2-3.2-0.3c-0.2,0-0.4-0.1-0.4-0.3
		c0,0,0,0,0,0l0-0.2c0-0.2,0.1-0.3,0.3-0.3c0.1,0,0.1,0,0.2,0c1.2,0.2,2.5,0.3,3.3,0.3c1.9,0,3.2-0.7,3.2-2.6c0-0.7-0.5-1.2-1.9-2.1
		l-1.3-0.8c-1.2-0.8-2.2-1.6-2.2-2.8c0-2.3,1.8-3,3.9-3c1.6,0,2.5,0.1,3.2,0.2C419.5,212.7,419.6,212.8,419.6,213.1
		C419.6,213,419.6,213.1,419.6,213.1z"/>
	<path d="M423.6,212.6c0.3,0,0.3,0.2,0.3,0.4l-1.9,11c0,0.2-0.1,0.4-0.5,0.4h-0.1c-0.3,0-0.4-0.2-0.4-0.4l1.9-11
		c0-0.2,0.1-0.4,0.4-0.4H423.6z M423.8,210.4c-0.3,0-0.4-0.2-0.4-0.4l0.3-1.6c0.1-0.4,0.3-0.4,0.5-0.4h0.1c0.3,0,0.4,0.2,0.4,0.4
		l-0.3,1.6c-0.1,0.3-0.3,0.4-0.5,0.4H423.8z"/>
	<path d="M435.2,213.3l-2,11.2c-0.6,3.5-2,4.3-4.8,4.3c-1.5,0-2.9-0.2-3.3-0.3c-0.3-0.1-0.4-0.2-0.4-0.3c0,0,0-0.1,0-0.1l0-0.1
		c0-0.2,0.2-0.3,0.4-0.3c0,0,0,0,0.1,0c0.5,0.1,1.9,0.3,3.2,0.3c2.5,0,3.2-0.6,3.8-3.4l0-0.2c-0.7,0.2-2.1,0.3-2.9,0.3
		c-1.7,0-3.8-0.5-3.8-3.7c0-0.5,0-1,0.2-1.7l0.3-1.5c0.7-4.1,2.5-5.3,5.5-5.3c1.3,0,2.7,0.2,3.4,0.4c0.2,0,0.3,0.1,0.3,0.3
		C435.3,213.2,435.2,213.3,435.2,213.3z M431.4,213.4c-2.4,0-3.8,0.9-4.4,4.4l-0.3,1.5c-0.1,0.7-0.2,1.3-0.2,1.8
		c0,2.3,1.3,2.7,3,2.7c0.7,0,2.1-0.2,2.9-0.4l1.7-9.7C433.4,213.5,432.5,213.4,431.4,213.4z"/>
	<path d="M446.2,216.7l-1.3,7.4c0,0.2-0.2,0.4-0.5,0.4h-0.2c-0.2,0-0.3-0.2-0.3-0.4c0,0,0,0,0-0.1l1.3-7.4c0.1-0.4,0.1-0.7,0.1-1
		c0-1.7-1.1-2.4-2.5-2.4c-1.1,0-2.5,0.4-3.7,0.9l-1.7,9.8c0,0.2-0.3,0.4-0.5,0.4h-0.1c-0.2,0-0.4-0.2-0.4-0.4c0,0,0,0,0-0.1l1.9-11
		c0-0.2,0.2-0.4,0.5-0.4h0.2c0.2,0,0.3,0.2,0.3,0.3c0,0,0,0.1,0,0.1l-0.1,0.4c1.2-0.6,2.4-0.9,3.6-0.9c1.9,0,3.4,0.9,3.4,3.2
		C446.3,216,446.2,216.4,446.2,216.7z"/>
	<path d="M457.9,213.3l-1.9,10.7c0,0.2-0.2,0.4-0.5,0.4h-0.2c-0.2,0-0.3-0.2-0.3-0.4c0,0,0-0.1,0-0.1l0.1-0.7
		c-1.2,0.6-2.5,1.3-3.8,1.3c-1.8,0-3.2-1-3.2-3.2c0-0.3,0-0.7,0.1-1.1l0.4-2.5c0.7-3.8,2.2-5.4,5.3-5.4c1.3,0,2.7,0.2,3.6,0.4
		c0.2,0,0.3,0.1,0.3,0.3C458,213.2,457.9,213.3,457.9,213.3z M453.9,213.4c-2.5,0-3.7,1.6-4.2,4.5l-0.4,2.5
		c-0.1,0.4-0.1,0.8-0.1,1.1c0,1.9,1.2,2.3,2.5,2.3c1.1,0,2.1-0.5,3.7-1.4l1.5-8.7C456.1,213.5,454.9,213.4,453.9,213.4z"/>
	<path d="M466.6,213l0,0.2c0,0.2-0.2,0.3-0.5,0.3h-2.6l-1.5,8.7c0,0.2-0.1,0.4-0.1,0.6c0,0.8,0.5,0.9,1.3,0.9h1.1
		c0.2,0,0.4,0,0.4,0.2c0,0,0,0,0,0.1l0,0.1c0,0.2-0.1,0.3-0.4,0.4c-0.3,0-0.8,0.1-1.2,0.1c-1.4,0-2.1-0.5-2.1-1.7
		c0-0.2,0-0.4,0.1-0.7l1.5-8.7h-2.2c-0.2,0-0.4-0.1-0.4-0.3c0,0,0-0.1,0-0.1l0-0.2c0-0.3,0.2-0.3,0.5-0.3h2.2l0.4-2.1
		c0-0.2,0.2-0.4,0.4-0.4h0.2c0.2,0,0.3,0.1,0.3,0.3c0,0,0,0.1,0,0.1l-0.4,2.1h2.6C466.5,212.6,466.6,212.7,466.6,213
		C466.6,212.9,466.6,212.9,466.6,213z"/>
	<path d="M477.5,213l-2,11c0,0.2-0.2,0.4-0.5,0.4h-0.2c-0.2,0-0.3-0.2-0.3-0.4c0,0,0,0,0-0.1c0,0,0,0,0,0l0-0.4
		c-1.2,0.6-2.4,0.9-3.6,0.9c-1.9,0-3.4-0.9-3.4-3.2c0-0.3,0-0.7,0.1-1.1l1.3-7.4c0-0.2,0.2-0.4,0.5-0.4h0.2c0.2,0,0.3,0.2,0.3,0.4
		c0,0,0,0,0,0.1l-1.3,7.4c-0.1,0.4-0.1,0.8-0.1,1.1c0,1.7,1.1,2.3,2.5,2.3c1.1,0,2.5-0.4,3.7-0.9l1.7-9.8c0-0.2,0.3-0.4,0.5-0.4h0.1
		C477.4,212.6,477.5,212.8,477.5,213C477.5,213,477.5,213,477.5,213z"/>
	<path d="M485.2,212.8l0,0.2c0,0.3-0.2,0.3-0.6,0.3c-0.8,0-1.7,0.2-3.2,1l-1.7,9.7c0,0.2-0.3,0.4-0.5,0.4H479
		c-0.2,0-0.4-0.2-0.4-0.4c0,0,0,0,0-0.1l1.9-11c0-0.2,0.2-0.4,0.5-0.4h0.2c0.2,0,0.3,0.1,0.3,0.3c0,0,0,0.1,0,0.1l-0.1,0.5
		c1.2-0.7,2.1-1,3.1-1C485,212.5,485.2,212.5,485.2,212.8C485.2,212.8,485.2,212.8,485.2,212.8z"/>
	<path d="M494.8,213.3l-1.9,10.7c0,0.2-0.2,0.4-0.5,0.4h-0.2c-0.2,0-0.3-0.2-0.3-0.4c0,0,0-0.1,0-0.1l0.1-0.7
		c-1.2,0.6-2.5,1.3-3.8,1.3c-1.8,0-3.2-1-3.2-3.2c0-0.3,0-0.7,0.1-1.1l0.4-2.5c0.7-3.8,2.2-5.4,5.3-5.4c1.3,0,2.7,0.2,3.6,0.4
		c0.2,0,0.3,0.1,0.3,0.3C494.8,213.2,494.8,213.3,494.8,213.3z M490.8,213.4c-2.5,0-3.7,1.6-4.2,4.5l-0.4,2.5
		c-0.1,0.4-0.1,0.8-0.1,1.1c0,1.9,1.2,2.3,2.5,2.3c1.1,0,2.1-0.5,3.7-1.4l1.5-8.7C493,213.5,491.8,213.4,490.8,213.4z"/>
	<path d="M504.6,213.1l0,0.2c0,0.3-0.1,0.3-0.3,0.3c0,0-0.2,0-0.2,0c-0.5,0-1.9-0.2-3.1-0.2c-1.8,0-2.9,0.4-2.9,2.1
		c0,0.8,0.7,1.4,1.8,2.1l1.3,0.8c1.7,1.1,2.3,1.7,2.3,2.8c0,2.6-2.1,3.5-4.4,3.5c-1,0-2.4-0.2-3.2-0.3c-0.2,0-0.4-0.1-0.4-0.3
		c0,0,0,0,0,0l0-0.2c0-0.2,0.1-0.3,0.3-0.3c0.1,0,0.1,0,0.2,0c1.2,0.2,2.5,0.3,3.3,0.3c1.9,0,3.2-0.7,3.2-2.6c0-0.7-0.5-1.2-1.9-2.1
		l-1.3-0.8c-1.2-0.8-2.2-1.6-2.2-2.8c0-2.3,1.8-3,3.9-3c1.6,0,2.5,0.1,3.2,0.2C504.4,212.7,504.6,212.8,504.6,213.1
		C504.6,213,504.6,213.1,504.6,213.1z"/>
	<path d="M381.3,239.7l0,0.2c0,0.2-0.2,0.3-0.4,0.3c0,0,0,0-0.1,0h0c-1-0.1-1.9-0.2-2.6-0.2c-2.5,0-3.8,1.9-4.2,4.4l-0.2,1.5
		c-0.1,0.6-0.2,1.1-0.2,1.6c0,1.8,0.8,2.9,2.8,2.9c0.7,0,1.6-0.1,2.7-0.2c0,0,0,0,0,0c0,0,0,0,0.1,0c0.2,0,0.3,0.1,0.3,0.2
		c0,0,0,0,0,0v0l0,0.2c0,0.2-0.2,0.4-0.5,0.4c-1,0.1-2,0.2-2.7,0.2c-2.5,0-3.6-1.5-3.6-3.8c0-0.5,0-1,0.1-1.5l0.2-1.5
		c0.5-3.2,2.1-5.3,5.3-5.3c0.7,0,1.7,0.1,2.6,0.2c0.3,0,0.4,0.1,0.4,0.3C381.3,239.6,381.3,239.6,381.3,239.7
		C381.3,239.6,381.3,239.6,381.3,239.7z"/>
	<path d="M391.1,244.4l-0.3,1.5c-0.6,3.4-2.3,5.3-5.5,5.3c-2.5,0-3.8-1.5-3.8-3.9c0-0.4,0-0.9,0.1-1.4l0.3-1.5
		c0.6-3.5,2.4-5.3,5.5-5.3c2.5,0,3.7,1.5,3.7,3.8C391.3,243.4,391.2,243.8,391.1,244.4z M387.4,239.9c-2.5,0-3.9,1.8-4.4,4.4
		l-0.3,1.5c-0.1,0.6-0.2,1.1-0.2,1.5c0,1.9,0.8,2.9,3,2.9c2.5,0,3.9-1.8,4.4-4.4l0.3-1.5c0.1-0.6,0.2-1.1,0.2-1.5
		C390.3,241,389.5,239.9,387.4,239.9z"/>
	<path d="M402.6,243.3l-1.3,7.4c0,0.2-0.2,0.4-0.5,0.4h-0.2c-0.2,0-0.3-0.2-0.3-0.4c0,0,0,0,0-0.1l1.3-7.4c0.1-0.4,0.1-0.7,0.1-1
		c0-1.7-1.1-2.4-2.5-2.4c-1.1,0-2.5,0.4-3.7,0.9l-1.7,9.8c0,0.2-0.3,0.4-0.5,0.4h-0.1c-0.2,0-0.4-0.2-0.4-0.4c0,0,0,0,0-0.1l1.9-11
		c0-0.2,0.2-0.4,0.5-0.4h0.2c0.2,0,0.3,0.2,0.3,0.3c0,0,0,0.1,0,0.1l-0.1,0.4c1.2-0.6,2.4-0.9,3.6-0.9c1.9,0,3.4,0.9,3.4,3.2
		C402.7,242.6,402.6,242.9,402.6,243.3z"/>
	<path d="M418.2,239.7l0,0.2c0,0.2-0.2,0.3-0.4,0.3c0,0,0,0-0.1,0h0c-1-0.1-1.9-0.2-2.6-0.2c-2.5,0-3.8,1.9-4.2,4.4l-0.2,1.5
		c-0.1,0.6-0.2,1.1-0.2,1.6c0,1.8,0.8,2.9,2.8,2.9c0.7,0,1.6-0.1,2.7-0.2c0,0,0,0,0,0c0,0,0,0,0.1,0c0.2,0,0.3,0.1,0.3,0.2
		c0,0,0,0,0,0v0l0,0.2c0,0.2-0.2,0.4-0.5,0.4c-1,0.1-2,0.2-2.7,0.2c-2.5,0-3.6-1.5-3.6-3.8c0-0.5,0-1,0.1-1.5l0.2-1.5
		c0.5-3.2,2.1-5.3,5.3-5.3c0.7,0,1.7,0.1,2.6,0.2c0.3,0,0.4,0.1,0.4,0.3C418.2,239.6,418.2,239.6,418.2,239.7
		C418.2,239.6,418.2,239.6,418.2,239.7z"/>
	<path d="M428,244.4l-0.3,1.5c-0.6,3.4-2.3,5.3-5.5,5.3c-2.5,0-3.8-1.5-3.8-3.9c0-0.4,0-0.9,0.1-1.4l0.3-1.5
		c0.6-3.5,2.4-5.3,5.5-5.3c2.5,0,3.7,1.5,3.7,3.8C428.2,243.4,428.1,243.8,428,244.4z M424.3,239.9c-2.5,0-3.9,1.8-4.4,4.4l-0.3,1.5
		c-0.1,0.6-0.2,1.1-0.2,1.5c0,1.9,0.8,2.9,3,2.9c2.5,0,3.9-1.8,4.4-4.4l0.3-1.5c0.1-0.6,0.2-1.1,0.2-1.5
		C427.2,241,426.4,239.9,424.3,239.9z"/>
	<path d="M439.4,243.3l-1.3,7.4c0,0.2-0.2,0.4-0.5,0.4h-0.2c-0.2,0-0.3-0.2-0.3-0.4c0,0,0,0,0-0.1l1.3-7.4c0.1-0.4,0.1-0.7,0.1-1
		c0-1.7-1.1-2.4-2.5-2.4c-1.1,0-2.5,0.4-3.7,0.9l-1.7,9.8c0,0.2-0.3,0.4-0.5,0.4H430c-0.2,0-0.4-0.2-0.4-0.4c0,0,0,0,0-0.1l1.9-11
		c0-0.2,0.2-0.4,0.5-0.4h0.2c0.2,0,0.3,0.2,0.3,0.3c0,0,0,0.1,0,0.1l-0.1,0.4c1.2-0.6,2.4-0.9,3.6-0.9c1.9,0,3.4,0.9,3.4,3.2
		C439.5,242.6,439.5,242.9,439.4,243.3z"/>
	<path d="M450.9,239.7l-4.7,10.1c-0.6,1.2-1.1,1.4-1.7,1.4c-0.6,0-1.2-0.2-1.3-1.4l-1.1-10.1c0,0,0-0.1,0-0.1c0-0.3,0.1-0.5,0.4-0.5
		h0.2c0.2,0,0.3,0.1,0.3,0.4l1.1,10c0.1,0.7,0.3,0.8,0.5,0.8s0.4-0.1,0.8-0.8l4.6-10c0.1-0.3,0.3-0.4,0.5-0.4h0.3
		c0.2,0,0.3,0.1,0.3,0.2C451,239.5,450.9,239.6,450.9,239.7z"/>
	<path d="M460.6,244.3l-0.1,0.6c0,0.2-0.3,0.4-0.5,0.4h-7.5l-0.1,0.5c-0.1,0.5-0.1,1-0.1,1.4c0,2.4,1.3,3.1,3.3,3.1
		c1,0,2.2-0.1,3.4-0.4c0.1,0,0.1,0,0.2,0c0.2,0,0.3,0,0.3,0.2c0,0,0,0.1,0,0.2l0,0.2c-0.1,0.3-0.2,0.3-0.5,0.4
		c-1.1,0.2-2.4,0.4-3.4,0.4c-2.4,0-4.1-1.1-4.1-3.9c0-0.4,0-1,0.1-1.5l0.2-1.5c0.6-3.5,2.5-5.3,5.4-5.3c2.5,0,3.6,1.6,3.6,3.8
		C460.8,243.3,460.7,243.8,460.6,244.3z M457,239.9c-2.5,0-3.7,1.7-4.3,4.4l0,0.1h6.9l0-0.1c0.1-0.6,0.2-1.1,0.2-1.5
		C459.8,241,459,239.9,457,239.9z"/>
	<path d="M472,243.3l-1.3,7.4c0,0.2-0.2,0.4-0.5,0.4h-0.2c-0.2,0-0.3-0.2-0.3-0.4c0,0,0,0,0-0.1l1.3-7.4c0.1-0.4,0.1-0.7,0.1-1
		c0-1.7-1.1-2.4-2.5-2.4c-1.1,0-2.5,0.4-3.7,0.9l-1.7,9.8c0,0.2-0.3,0.4-0.5,0.4h-0.1c-0.2,0-0.4-0.2-0.4-0.4c0,0,0,0,0-0.1l1.9-11
		c0-0.2,0.2-0.4,0.5-0.4h0.2c0.2,0,0.3,0.2,0.3,0.3c0,0,0,0.1,0,0.1l-0.1,0.4c1.2-0.6,2.4-0.9,3.6-0.9c1.9,0,3.4,0.9,3.4,3.2
		C472.1,242.6,472.1,242.9,472,243.3z"/>
	<path d="M476.7,239.2c0.3,0,0.3,0.2,0.3,0.4l-1.9,11c0,0.2-0.1,0.4-0.5,0.4h-0.1c-0.3,0-0.4-0.2-0.4-0.4l1.9-11
		c0-0.2,0.1-0.4,0.4-0.4H476.7z M476.9,237c-0.3,0-0.4-0.2-0.4-0.4l0.3-1.6c0.1-0.4,0.3-0.4,0.5-0.4h0.1c0.3,0,0.4,0.2,0.4,0.4
		l-0.3,1.6c-0.1,0.3-0.3,0.4-0.5,0.4H476.9z"/>
	<path d="M488.2,244.4l-0.3,1.5c-0.6,3.4-2.3,5.3-5.5,5.3c-2.5,0-3.8-1.5-3.8-3.9c0-0.4,0-0.9,0.1-1.4l0.3-1.5
		c0.6-3.5,2.4-5.3,5.5-5.3c2.5,0,3.7,1.5,3.7,3.8C488.4,243.4,488.3,243.8,488.2,244.4z M484.5,239.9c-2.5,0-3.9,1.8-4.4,4.4
		l-0.3,1.5c-0.1,0.6-0.2,1.1-0.2,1.5c0,1.9,0.8,2.9,3,2.9c2.5,0,3.9-1.8,4.4-4.4l0.3-1.5c0.1-0.6,0.2-1.1,0.2-1.5
		C487.4,241,486.6,239.9,484.5,239.9z"/>
	<path d="M491,249.1l-0.3,1.6c0,0.2-0.3,0.4-0.5,0.4H490c-0.2,0-0.4-0.1-0.4-0.4c0,0,0,0,0-0.1l0.3-1.6c0-0.2,0.3-0.4,0.5-0.4h0.1
		C490.8,248.7,491,248.9,491,249.1C491,249.1,491,249.1,491,249.1z"/>
</g>
</svg>
