<?xml version="1.0" encoding="utf-8"?>
<!-- Generator: Adobe Illustrator 19.2.1, SVG Export Plug-In . SVG Version: 6.00 Build 0)  -->
<svg version="1.1" id="Capa_1" xmlns="http://www.w3.org/2000/svg" xmlns:xlink="http://www.w3.org/1999/xlink" x="0px" y="0px"
	 viewBox="0 0 252.8 44.7" style="enable-background:new 0 0 252.8 44.7;" xml:space="preserve">
<style type="text/css">
	.st0{fill:#969696;}
</style>
<g>
	<path class="st0" d="M93.2,3.6h-1.7v14.9h1.7V3.6L93.2,3.6z M111.7,11.9c0-2.9-1.2-4.3-3.5-4.3c-1.6,0-2.7,0.7-3.5,2.2
		c-0.2-0.7-0.6-1.2-1.2-1.6c-0.6-0.4-1.2-0.6-1.9-0.6c-1.4,0-2.5,0.6-3.3,1.9l0,0V7.8h-1.7v10.6h1.7v-6.1c0-1,0.2-1.8,0.7-2.4
		c0.5-0.6,1.1-0.9,1.8-0.9c1.6,0,2.4,1,2.4,3.1v6.3h1.7v-6.1c0-0.9,0.3-1.7,0.8-2.4s1.1-1,1.9-1c0.9,0,1.5,0.3,1.8,0.8
		c0.4,0.5,0.5,1.4,0.5,2.6v6.1h1.7L111.7,11.9L111.7,11.9z M122.1,11.6c0-2.7-1.2-4-3.7-4c-0.6,0-1.3,0.1-2,0.3
		c-0.8,0.2-1.3,0.4-1.6,0.7v1.7c1-0.9,2.2-1.3,3.5-1.3c1.5,0,2.2,0.9,2.2,2.7l-3.2,0.4c-2.3,0.3-3.5,1.5-3.5,3.5
		c0,0.9,0.3,1.7,0.9,2.2c0.6,0.6,1.4,0.8,2.5,0.8c1.4,0,2.5-0.6,3.3-1.9l0,0v1.7h1.7v-6.8H122.1z M120.4,14.2c0,0.9-0.3,1.6-0.8,2.2
		c-0.6,0.6-1.2,0.9-2.1,0.9c-0.6,0-1.1-0.2-1.5-0.5s-0.6-0.7-0.6-1.3c0-0.7,0.2-1.1,0.5-1.4c0.4-0.3,1-0.5,1.8-0.6l2.6-0.4
		L120.4,14.2L120.4,14.2z M134,7.8h-1.7v1.5l0,0c-0.7-1.1-1.8-1.7-3.2-1.7c-1.5,0-2.7,0.5-3.5,1.6c-0.9,1.1-1.3,2.5-1.3,4.3
		c0,1,0.2,2,0.6,2.8c0.4,0.8,0.9,1.4,1.6,1.8s1.4,0.6,2.3,0.6c1.6,0,2.8-0.7,3.7-2l0,0v1.2c0,2.8-1.3,4.2-3.9,4.2
		c-1.1,0-2.2-0.3-3.4-1v1.7c1,0.5,2.1,0.7,3.4,0.7c3.7,0,5.6-1.9,5.6-5.8V7.8H134z M131.4,16.3c-0.6,0.7-1.4,1-2.3,1
		c-0.9,0-1.7-0.4-2.3-1.1c-0.6-0.7-0.9-1.7-0.9-2.8c0-1.4,0.3-2.4,0.9-3.2c0.6-0.8,1.4-1.2,2.5-1.2c0.8,0,1.5,0.3,2.1,0.9
		c0.6,0.6,0.9,1.3,0.9,2.2v1.6C132.3,14.7,132,15.6,131.4,16.3L131.4,16.3z M138.8,3.3C138.6,3.1,138.3,3,138,3s-0.6,0.1-0.8,0.3
		s-0.3,0.5-0.3,0.8s0.1,0.6,0.3,0.8c0.2,0.2,0.5,0.3,0.8,0.3s0.6-0.1,0.8-0.3c0.2-0.2,0.3-0.5,0.3-0.8C139.1,3.7,139,3.5,138.8,3.3
		L138.8,3.3z M138.8,7.8h-1.7v10.6h1.7V7.8L138.8,7.8z M150.8,12c0-1.4-0.3-2.5-0.9-3.2c-0.6-0.8-1.5-1.1-2.7-1.1
		c-1.5,0-2.7,0.7-3.5,2l0,0V7.8H142v10.6h1.7v-6.1c0-1,0.3-1.8,0.8-2.4c0.6-0.6,1.3-1,2.1-1c1.6,0,2.5,1.1,2.5,3.4v6.1h1.7V12
		L150.8,12z M162.2,12.7c0-1.6-0.4-2.9-1.2-3.8s-1.8-1.3-3.2-1.3c-0.9,0-1.7,0.2-2.5,0.7c-0.7,0.5-1.3,1.2-1.8,2
		c-0.4,0.9-0.6,1.8-0.6,2.9c0,1.7,0.4,3.1,1.3,4.1c0.9,1,2,1.5,3.6,1.5c1.5,0,2.8-0.3,3.7-1v-1.6c-1,0.8-2.1,1.2-3.3,1.2
		c-1.1,0-1.9-0.3-2.5-1c-0.6-0.6-0.9-1.5-1-2.7h7.5V12.7L162.2,12.7z M154.7,12.1c0.1-0.9,0.5-1.7,1.1-2.3s1.2-0.9,2-0.9
		s1.5,0.3,1.9,0.8c0.5,0.5,0.7,1.3,0.7,2.3L154.7,12.1L154.7,12.1z M175,3.6h-1.8l-5.7,14.9h1.9l1.5-4.2h6.3l1.6,4.2h1.9L175,3.6
		L175,3.6z M171.5,12.7l2.3-6.3c0.1-0.2,0.2-0.6,0.2-1l0,0c0.1,0.5,0.2,0.9,0.2,1l2.3,6.3H171.5L171.5,12.7z M189.5,16.4
		c-0.8,0.6-1.7,0.9-2.6,0.9c-1.1,0-2-0.4-2.6-1.1c-0.7-0.7-1-1.7-1-2.9s0.3-2.3,1-3C185,9.4,185.9,9,187,9c0.9,0,1.7,0.3,2.5,0.8
		V8.1c-0.7-0.4-1.5-0.5-2.5-0.5c-1.7,0-3,0.5-4,1.6s-1.5,2.5-1.5,4.2c0,1,0.2,1.9,0.6,2.8c0.4,0.8,1,1.4,1.8,1.9
		c0.8,0.4,1.6,0.7,2.6,0.7c1.1,0,2.1-0.2,2.9-0.7L189.5,16.4L189.5,16.4z M199.3,11.6c0-2.7-1.2-4-3.7-4c-0.6,0-1.3,0.1-2,0.3
		c-0.8,0.2-1.3,0.4-1.6,0.7v1.7c1-0.9,2.2-1.3,3.5-1.3c1.5,0,2.2,0.9,2.2,2.7l-3.2,0.4c-2.3,0.3-3.5,1.5-3.5,3.5
		c0,0.9,0.3,1.7,0.9,2.2c0.6,0.6,1.4,0.8,2.5,0.8c1.4,0,2.5-0.6,3.3-1.9l0,0v1.7h1.7L199.3,11.6L199.3,11.6z M197.6,14.2
		c0,0.9-0.3,1.6-0.8,2.2c-0.6,0.6-1.2,0.9-2.1,0.9c-0.6,0-1.1-0.2-1.5-0.5s-0.6-0.7-0.6-1.3c0-0.7,0.2-1.1,0.5-1.4
		c0.4-0.3,1-0.5,1.8-0.6l2.6-0.4v1.1H197.6z M211.2,2.7h-1.7v6.6l0,0c-0.7-1.1-1.7-1.7-3.2-1.7s-2.7,0.5-3.5,1.6
		c-0.9,1.1-1.3,2.5-1.3,4.2c0,1.6,0.4,2.9,1.2,3.9s1.9,1.4,3.2,1.4c1.6,0,2.9-0.7,3.7-2.1l0,0v1.8h1.7L211.2,2.7L211.2,2.7z
		 M208.6,16.3c-0.6,0.7-1.4,1-2.3,1c-1,0-1.7-0.4-2.3-1.1c-0.6-0.7-0.9-1.7-0.9-2.9c0-1.3,0.3-2.4,0.9-3.2c0.6-0.8,1.4-1.1,2.4-1.1
		c0.8,0,1.5,0.3,2.1,0.9c0.6,0.6,0.9,1.3,0.9,2.2v1.6C209.5,14.7,209.2,15.6,208.6,16.3L208.6,16.3z M222.8,12.7
		c0-1.6-0.4-2.9-1.2-3.8s-1.8-1.3-3.2-1.3c-0.9,0-1.7,0.2-2.5,0.7c-0.7,0.5-1.3,1.2-1.8,2c-0.4,0.9-0.6,1.8-0.6,2.9
		c0,1.7,0.4,3.1,1.3,4.1c0.9,1,2,1.5,3.6,1.5c1.5,0,2.8-0.3,3.7-1v-1.6c-1,0.8-2.1,1.2-3.3,1.2c-1.1,0-1.9-0.3-2.5-1
		c-0.6-0.6-0.9-1.5-1-2.7h7.5V12.7L222.8,12.7z M215.3,12.1c0.1-0.9,0.5-1.7,1.1-2.3s1.2-0.9,2-0.9s1.5,0.3,1.9,0.8
		c0.5,0.5,0.7,1.3,0.7,2.3L215.3,12.1L215.3,12.1z M240.1,11.9c0-2.9-1.2-4.3-3.5-4.3c-1.6,0-2.7,0.7-3.5,2.2
		c-0.2-0.7-0.6-1.2-1.2-1.6c-0.6-0.4-1.2-0.6-1.9-0.6c-1.4,0-2.5,0.6-3.3,1.9l0,0V7.8H225v10.6h1.7v-6.1c0-1,0.2-1.8,0.7-2.4
		c0.5-0.6,1.1-0.9,1.8-0.9c1.6,0,2.4,1,2.4,3.1v6.3h1.7v-6.1c0-0.9,0.3-1.7,0.8-2.4s1.1-1,1.9-1c0.9,0,1.5,0.3,1.8,0.8
		c0.4,0.5,0.5,1.4,0.5,2.6v6.1h1.7v-6.5H240.1z M249.6,7.8l-3,8.2c-0.1,0.4-0.2,0.6-0.2,0.8h-0.1l-0.2-0.8l-2.9-8.2h-1.9l4.2,10.6
		l-0.9,2c-0.4,1-1.1,1.5-1.9,1.5c-0.3,0-0.6-0.1-1-0.2v1.5c0.3,0.1,0.7,0.1,1.1,0.1c1.6,0,2.8-1.1,3.7-3.3l4.9-12.3h-1.8V7.8z"/>
	<path class="st0" d="M17.1,3.6h-2.2l-4.7,10.3c-0.1,0.3-0.4,0.9-0.7,1.8H9.4c-0.1-0.4-0.3-1-0.7-1.8L4.2,3.6H1.9v14.9h1.7v-10
		c0-1.3,0-2.3-0.1-2.9l0,0c0.2,0.7,0.3,1.2,0.4,1.5L9,18.5h0.9L15,7c0.1-0.3,0.3-0.8,0.4-1.4l0,0c-0.1,1.1-0.1,2.1-0.1,2.9v10H17
		V3.6H17.1z M22.1,3.3C21.9,3.1,21.6,3,21.3,3s-0.6,0.1-0.8,0.3c-0.2,0.2-0.3,0.5-0.3,0.8s0.1,0.6,0.3,0.8C20.7,5,21,5.1,21.3,5.1
		s0.6-0.1,0.8-0.3c0.2-0.2,0.3-0.5,0.3-0.8C22.4,3.7,22.3,3.5,22.1,3.3L22.1,3.3z M22.1,7.8h-1.7v10.6h1.7V7.8L22.1,7.8z M32.4,16.4
		c-0.8,0.6-1.7,0.9-2.6,0.9c-1.1,0-2-0.4-2.6-1.1c-0.7-0.7-1-1.7-1-2.9s0.3-2.3,1-3C27.9,9.4,28.8,9,29.9,9c0.9,0,1.7,0.3,2.5,0.8
		V8.1c-0.7-0.4-1.5-0.5-2.5-0.5c-1.7,0-3,0.5-4,1.6s-1.5,2.5-1.5,4.2c0,1,0.2,1.9,0.6,2.8c0.4,0.8,1,1.4,1.8,1.9
		c0.8,0.4,1.6,0.7,2.6,0.7c1.1,0,2.1-0.2,2.9-0.7L32.4,16.4L32.4,16.4z M40.2,7.8c-0.2-0.1-0.6-0.1-1-0.1c-0.6,0-1.2,0.2-1.7,0.6
		c-0.5,0.4-0.9,1-1.1,1.7l0,0V7.8h-1.7v10.6h1.7V13c0-1.1,0.2-2.1,0.7-2.8s1.1-1.1,1.8-1.1c0.6,0,1,0.1,1.3,0.3V7.8L40.2,7.8z
		 M49.8,9.1c-0.9-1-2.1-1.5-3.7-1.5c-1.7,0-3,0.5-4,1.5s-1.4,2.4-1.4,4.2c0,1.6,0.5,3,1.4,4s2.2,1.5,3.8,1.5s2.9-0.5,3.9-1.5
		s1.4-2.4,1.4-4.1C51.1,11.4,50.7,10,49.8,9.1L49.8,9.1z M48.5,16.2c-0.6,0.7-1.4,1.1-2.5,1.1s-2-0.4-2.6-1.1c-0.6-0.7-1-1.7-1-3
		s0.3-2.4,1-3.1C44,9.4,44.9,9,46,9s1.9,0.4,2.5,1.1c0.6,0.7,0.9,1.7,0.9,3.1C49.4,14.5,49.1,15.5,48.5,16.2L48.5,16.2z M58.6,13.9
		c-0.4-0.5-1.1-0.9-2.1-1.4c-0.8-0.3-1.4-0.6-1.6-0.9c-0.3-0.3-0.4-0.6-0.4-1.1c0-0.4,0.2-0.8,0.5-1.1C55.3,9.2,55.8,9,56.4,9
		c0.9,0,1.7,0.3,2.4,0.8V8.1c-0.7-0.3-1.4-0.5-2.3-0.5c-1.1,0-2,0.3-2.7,0.9c-0.7,0.6-1.1,1.3-1.1,2.2c0,0.8,0.2,1.4,0.6,1.8
		c0.4,0.5,1.1,0.9,2,1.3c0.9,0.4,1.5,0.8,1.8,1c0.3,0.3,0.4,0.6,0.4,1c0,1-0.7,1.5-2,1.5c-1,0-1.9-0.3-2.8-1v1.8
		c0.8,0.4,1.6,0.6,2.6,0.6c1.2,0,2.1-0.3,2.8-0.9s1.1-1.3,1.1-2.2C59.3,14.9,59.1,14.3,58.6,13.9L58.6,13.9z M69.7,9.1
		c-0.9-1-2.1-1.5-3.7-1.5c-1.7,0-3,0.5-4,1.5s-1.4,2.4-1.4,4.2c0,1.6,0.5,3,1.4,4s2.2,1.5,3.8,1.5c1.6,0,2.9-0.5,3.9-1.5
		s1.4-2.4,1.4-4.1C71.1,11.4,70.6,10,69.7,9.1L69.7,9.1z M68.5,16.2c-0.6,0.7-1.4,1.1-2.5,1.1s-2-0.4-2.6-1.1c-0.6-0.7-1-1.7-1-3
		s0.3-2.4,1-3.1C64,9.4,64.8,9,65.9,9s1.9,0.4,2.5,1.1c0.6,0.7,0.9,1.7,0.9,3.1C69.3,14.5,69,15.5,68.5,16.2L68.5,16.2z M78.3,2.7
		C78,2.6,77.6,2.5,77,2.5c-1,0-1.8,0.3-2.4,1s-1,1.5-1,2.6v1.7h-1.8v1.4h1.8v9.2h1.7V9.3h2.5V7.8h-2.5V6.2c0-1.5,0.6-2.3,1.8-2.3
		c0.4,0,0.8,0.1,1.1,0.3V2.7H78.3z M84.7,16.9c-0.3,0.2-0.7,0.3-1.1,0.3c-0.6,0-1-0.2-1.2-0.5C82.1,16.5,82,16,82,15.3v-6h2.7V7.8
		H82V4.7l-1.7,0.6v2.6h-1.8v1.4h1.8v6.3c0,2.1,0.9,3.1,2.8,3.1c0.7,0,1.2-0.1,1.6-0.3L84.7,16.9L84.7,16.9z"/>
	<path class="st0" d="M7.4,27.7c-0.7-0.6-1.6-0.9-2.9-0.9H1.4v11.5h1.3V34h1.5c1.2,0,2.2-0.3,3-1s1.1-1.6,1.1-2.7
		C8.4,29.2,8.1,28.3,7.4,27.7L7.4,27.7z M6.3,32.1c-0.5,0.4-1.2,0.6-2.1,0.6H2.8V28h1.6c1.8,0,2.7,0.8,2.7,2.3
		C7,31.1,6.8,31.7,6.3,32.1L6.3,32.1z M14.5,30.1C14.3,30,14,30,13.7,30c-0.5,0-0.9,0.2-1.3,0.5c-0.4,0.3-0.7,0.8-0.8,1.3l0,0v-1.7
		h-1.3v8.2h1.3v-4.2c0-0.9,0.2-1.6,0.5-2.1c0.4-0.5,0.8-0.8,1.4-0.8c0.4,0,0.8,0.1,1,0.3L14.5,30.1L14.5,30.1z M21.8,31.1
		c-0.7-0.8-1.6-1.1-2.9-1.1s-2.3,0.4-3.1,1.2c-0.7,0.8-1.1,1.9-1.1,3.2s0.4,2.3,1.1,3c0.7,0.8,1.7,1.2,2.9,1.2c1.2,0,2.2-0.4,3-1.2
		c0.7-0.8,1.1-1.8,1.1-3.1C22.9,32.9,22.5,31.8,21.8,31.1L21.8,31.1z M20.8,36.6c-0.5,0.5-1.1,0.8-2,0.8c-0.8,0-1.5-0.3-2-0.8
		c-0.5-0.6-0.7-1.3-0.7-2.3s0.2-1.8,0.7-2.4s1.2-0.8,2-0.8s1.5,0.3,2,0.8c0.5,0.6,0.7,1.3,0.7,2.4C21.5,35.3,21.3,36,20.8,36.6
		L20.8,36.6z M31.6,30.1h-1.3v1.1l0,0c-0.5-0.9-1.4-1.3-2.5-1.3s-2.1,0.4-2.7,1.2c-0.7,0.8-1,1.9-1,3.3c0,0.8,0.1,1.5,0.4,2.1
		s0.7,1.1,1.2,1.4c0.5,0.3,1.1,0.5,1.8,0.5c1.3,0,2.2-0.5,2.8-1.6l0,0v0.9c0,2.1-1,3.2-3,3.2c-0.8,0-1.7-0.3-2.6-0.8v1.3
		c0.8,0.4,1.7,0.6,2.7,0.6c2.9,0,4.3-1.5,4.3-4.5v-7.4H31.6z M29.6,36.6c-0.5,0.5-1.1,0.8-1.8,0.8c-0.7,0-1.3-0.3-1.8-0.8
		c-0.4-0.5-0.7-1.3-0.7-2.2c0-1.1,0.2-1.9,0.7-2.5c0.5-0.6,1.1-0.9,1.9-0.9c0.6,0,1.2,0.2,1.6,0.7c0.5,0.5,0.7,1,0.7,1.7v1.2
		C30.3,35.4,30,36.1,29.6,36.6L29.6,36.6z M38.3,30.1C38.1,30,37.8,30,37.5,30c-0.5,0-0.9,0.2-1.3,0.5c-0.4,0.3-0.7,0.8-0.8,1.3l0,0
		v-1.7H34v8.2h1.3v-4.2c0-0.9,0.2-1.6,0.5-2.1c0.4-0.5,0.8-0.8,1.4-0.8c0.4,0,0.8,0.1,1,0.3L38.3,30.1L38.3,30.1z M45.3,33
		c0-2-1-3.1-2.9-3.1c-0.5,0-1,0.1-1.6,0.3c-0.6,0.2-1,0.3-1.2,0.5V32c0.8-0.7,1.7-1,2.7-1c1.1,0,1.7,0.7,1.7,2.1l-2.5,0.3
		c-1.8,0.3-2.7,1.1-2.7,2.7c0,0.7,0.2,1.3,0.7,1.7s1.1,0.6,1.9,0.6c1.1,0,2-0.5,2.5-1.5l0,0v1.3h1.3L45.3,33L45.3,33z M44,35
		c0,0.7-0.2,1.3-0.6,1.7c-0.4,0.5-1,0.7-1.6,0.7c-0.5,0-0.8-0.1-1.1-0.4c-0.3-0.2-0.4-0.6-0.4-1c0-0.5,0.1-0.9,0.4-1.1
		c0.3-0.2,0.7-0.4,1.4-0.5l2-0.3V35H44z M59.1,33.3c0-2.2-0.9-3.3-2.7-3.3c-1.2,0-2.1,0.6-2.7,1.7c-0.2-0.5-0.5-1-0.9-1.3
		S51.9,30,51.4,30c-1.1,0-2,0.5-2.5,1.5l0,0v-1.3h-1.3v8.2h1.3v-4.7c0-0.8,0.2-1.4,0.6-1.9c0.4-0.5,0.8-0.7,1.4-0.7
		c1.2,0,1.9,0.8,1.9,2.4v4.9H54v-4.7c0-0.7,0.2-1.3,0.6-1.8c0.4-0.5,0.9-0.8,1.4-0.8c0.7,0,1.1,0.2,1.4,0.6c0.3,0.4,0.4,1.1,0.4,2
		v4.7h1.3L59.1,33.3L59.1,33.3z M76.8,26.8h-1.7l-3.6,8c-0.1,0.2-0.3,0.7-0.6,1.4h-0.1c-0.1-0.3-0.3-0.8-0.5-1.4l-3.5-8H65v11.5h1.3
		v-7.7c0-1,0-1.8-0.1-2.2l0,0c0.1,0.5,0.2,0.9,0.3,1.2l3.9,8.8h0.7l3.9-8.8c0.1-0.2,0.2-0.6,0.3-1.1l0,0c-0.1,0.9-0.1,1.6-0.1,2.2
		v7.7h1.3V26.8H76.8z M85.9,33.9c0-1.2-0.3-2.2-0.9-2.9c-0.6-0.7-1.4-1-2.5-1c-0.7,0-1.3,0.2-1.9,0.6s-1,0.9-1.4,1.6
		c-0.3,0.7-0.5,1.4-0.5,2.2c0,1.3,0.3,2.4,1,3.1c0.7,0.8,1.6,1.1,2.7,1.1c1.2,0,2.1-0.3,2.9-0.8v-1.2c-0.8,0.6-1.6,0.9-2.5,0.9
		c-0.8,0-1.5-0.2-1.9-0.7c-0.5-0.5-0.7-1.2-0.7-2.1H86L85.9,33.9L85.9,33.9z M80.2,33.4c0.1-0.7,0.4-1.3,0.8-1.7s1-0.7,1.6-0.7
		s1.1,0.2,1.5,0.6s0.5,1,0.5,1.8H80.2L80.2,33.4z M99.2,33.3c0-2.2-0.9-3.3-2.7-3.3c-1.2,0-2.1,0.6-2.7,1.7c-0.2-0.5-0.5-1-0.9-1.3
		S92,30,91.5,30c-1.1,0-2,0.5-2.5,1.5l0,0v-1.3h-1.3v8.2H89v-4.7c0-0.8,0.2-1.4,0.6-1.9c0.4-0.5,0.8-0.7,1.4-0.7
		c1.2,0,1.9,0.8,1.9,2.4v4.9h1.3v-4.7c0-0.7,0.2-1.3,0.6-1.8s0.9-0.8,1.4-0.8c0.7,0,1.1,0.2,1.4,0.6s0.4,1.1,0.4,2v4.7h1.3v-5.1
		H99.2z M108.1,31c-0.6-0.7-1.4-1.1-2.4-1.1c-1.2,0-2.2,0.5-2.8,1.6l0,0v-5.4h-1.3v12.1h1.3V37l0,0c0.6,0.9,1.4,1.4,2.5,1.4
		s2.1-0.4,2.7-1.2c0.7-0.8,1-1.9,1-3.3C109,32.7,108.7,31.7,108.1,31L108.1,31z M107,36.5c-0.5,0.6-1.1,0.9-1.9,0.9
		c-0.7,0-1.2-0.2-1.7-0.7s-0.7-1-0.7-1.7v-1.1c0-0.8,0.2-1.5,0.7-2s1.1-0.8,1.8-0.8c0.7,0,1.3,0.3,1.7,0.8c0.4,0.5,0.6,1.2,0.6,2.1
		C107.7,35,107.4,35.9,107,36.5L107,36.5z M117.3,33.9c0-1.2-0.3-2.2-0.9-2.9c-0.6-0.7-1.4-1-2.5-1c-0.7,0-1.3,0.2-1.9,0.6
		s-1,0.9-1.4,1.6c-0.3,0.7-0.5,1.4-0.5,2.2c0,1.3,0.3,2.4,1,3.1c0.7,0.8,1.6,1.1,2.7,1.1c1.2,0,2.1-0.3,2.9-0.8v-1.2
		c-0.8,0.6-1.6,0.9-2.5,0.9c-0.8,0-1.5-0.2-1.9-0.7c-0.5-0.5-0.7-1.2-0.7-2.1h5.8L117.3,33.9L117.3,33.9z M111.6,33.4
		c0.1-0.7,0.4-1.3,0.8-1.7c0.4-0.4,1-0.7,1.6-0.7s1.1,0.2,1.5,0.6s0.5,1,0.5,1.8H111.6L111.6,33.4z M123.3,30.1
		c-0.2-0.1-0.4-0.1-0.8-0.1c-0.5,0-0.9,0.2-1.3,0.5s-0.7,0.8-0.8,1.3l0,0v-1.7H119v8.2h1.3v-4.2c0-0.9,0.2-1.6,0.5-2.1
		c0.4-0.5,0.8-0.8,1.4-0.8c0.4,0,0.8,0.1,1,0.3L123.3,30.1L123.3,30.1z"/>
</g>
</svg>
