<?xml version="1.0" encoding="utf-8"?>
<!-- Generator: Adobe Illustrator 19.2.1, SVG Export Plug-In . SVG Version: 6.00 Build 0)  -->
<svg version="1.1" id="Capa_1" xmlns="http://www.w3.org/2000/svg" xmlns:xlink="http://www.w3.org/1999/xlink" x="0px" y="0px"
	 viewBox="0 0 716.7 252.7" style="enable-background:new 0 0 716.7 252.7;" xml:space="preserve">
<style type="text/css">
	.st0{fill:#F000A6;}
	.st1{fill:#7C00C9;}
	.st2{clip-path:url(#SVGID_2_);fill:#F000A6;}
</style>
<g>
	<g>
		<path class="st0" d="M494.4,21.9c-1.3,7.2-6.1,11-14.1,15.2c-5.3,2.8-9.5,5.1-11.3,8h19.1c0.7,0,1.2,0.5,1.2,1.1
			c0,0.1,0,0.1,0,0.2L487.5,57c-0.1,0.7-0.9,1.3-1.7,1.3h-32.3c-0.7,0-1.1-0.5-1.1-1.1c0-0.1,0-0.1,0-0.2l1.3-7.3
			c1.8-10.4,8.6-15.7,15.7-20c8.2-5,9-4.9,9.4-7c0-0.2,0.1-0.4,0.1-0.5c0-1-0.9-1.5-5.3-1.5c-4.3,0-8.8,0.7-13,0.7h-0.1
			c-0.6,0-1-0.5-1-1.1c0-0.1,0-0.1,0-0.2V20l1.3-7.6c0.1-0.7,0.8-1.1,1.5-1.3c4.5-1.6,10.2-2.8,16.3-2.8c11.8,0,16.1,4.8,16.1,11
			C494.7,20.1,494.6,20.9,494.4,21.9z"/>
		<path class="st0" d="M538.2,30l-1.3,7.2C534.3,52,526.3,59,514,59c-10.3,0-15.8-4.9-15.8-15.2c0-2,0.2-4.2,0.6-6.6L500,30
			c2.6-14.8,10.6-21.7,22.9-21.7c10.3,0,15.8,4.9,15.8,15.2C538.8,25.4,538.6,27.6,538.2,30z M520.6,21.6c-2,0-3.5,1-4.8,8.4
			l-1.3,7.2c-0.4,2.1-0.5,3.8-0.5,5c0,2.9,1,3.4,2.4,3.4c2,0,3.5-1,4.8-8.4l1.3-7.2c0.4-2.1,0.5-3.8,0.5-5
			C523,22.1,522,21.6,520.6,21.6z"/>
		<path class="st0" d="M553.7,45.1l3.6-20.7l-8.4,2.6c-0.4,0.1-0.7,0.2-0.9,0.2c-0.5,0-0.6-0.3-0.5-0.8l2-11.2
			c0.1-0.7,0.5-1.1,1.1-1.3l12.9-4.6c0.5-0.2,0.9-0.3,1.5-0.3h9.3c0.7,0,1.2,0.6,1.1,1.3l-6.1,34.8h8c0.7,0,1.3,0.6,1.1,1.3
			L576.6,57c-0.1,0.7-0.9,1.3-1.6,1.3h-31.7c-0.7,0-1.3-0.6-1.2-1.3l1.9-10.6c0.1-0.7,0.9-1.3,1.7-1.3H553.7z"/>
	</g>
	<g>
		<path class="st0" d="M144.4,45.1l3.6-20.7l-8.4,2.6c-0.4,0.1-0.7,0.2-0.9,0.2c-0.5,0-0.6-0.3-0.5-0.8l2-11.2
			c0.1-0.7,0.5-1.1,1.1-1.3l12.9-4.6c0.5-0.2,0.9-0.3,1.5-0.3h9.3c0.7,0,1.2,0.6,1.1,1.3L160,45.1h8c0.7,0,1.3,0.6,1.1,1.3L167.3,57
			c-0.1,0.7-0.9,1.3-1.6,1.3H134c-0.7,0-1.3-0.6-1.2-1.3l1.9-10.6c0.1-0.7,0.9-1.3,1.7-1.3H144.4z"/>
		<path class="st0" d="M218.8,21.9c-1.3,7.2-6.1,11-14.1,15.2c-5.3,2.8-9.5,5.1-11.3,8h19.1c0.7,0,1.2,0.5,1.2,1.1
			c0,0.1,0,0.1,0,0.2L211.8,57c-0.1,0.7-0.9,1.3-1.7,1.3h-32.3c-0.7,0-1.1-0.5-1.1-1.1c0-0.1,0-0.1,0-0.2l1.3-7.3
			c1.8-10.4,8.6-15.7,15.7-20c8.2-5,9-4.9,9.4-7c0-0.2,0.1-0.4,0.1-0.5c0-1-0.9-1.5-5.3-1.5c-4.3,0-8.8,0.7-13,0.7h-0.1
			c-0.6,0-1-0.5-1-1.1c0-0.1,0-0.1,0-0.2V20l1.3-7.6c0.1-0.7,0.8-1.1,1.5-1.3c4.5-1.6,10.2-2.8,16.3-2.8c11.8,0,16.1,4.8,16.1,11
			C219.1,20.1,218.9,20.9,218.8,21.9z"/>
		<path class="st0" d="M235.1,46.9L233.4,57c-0.1,0.7-0.9,1.3-1.7,1.3h-11.6c-0.7,0-1.1-0.5-1.1-1.1c0-0.1,0-0.1,0-0.2l1.7-10.1
			c0.1-0.7,0.9-1.3,1.7-1.3H234c0.7,0,1.1,0.5,1.1,1.1C235.1,46.7,235.1,46.8,235.1,46.9z"/>
		<path class="st0" d="M253.2,45.1l3.6-20.7l-8.4,2.6c-0.4,0.1-0.7,0.2-0.9,0.2c-0.5,0-0.6-0.3-0.5-0.8l2-11.2
			c0.1-0.7,0.5-1.1,1.1-1.3L263,9.2c0.5-0.2,0.9-0.3,1.5-0.3h9.3c0.7,0,1.2,0.6,1.1,1.3l-6.1,34.8h8c0.7,0,1.3,0.6,1.1,1.3L276.1,57
			c-0.1,0.7-0.9,1.3-1.6,1.3h-31.7c-0.7,0-1.3-0.6-1.2-1.3l1.9-10.6c0.1-0.7,0.9-1.3,1.7-1.3H253.2z"/>
		<path class="st0" d="M297.7,45.1l3.6-20.7l-8.4,2.6c-0.4,0.1-0.7,0.2-0.9,0.2c-0.5,0-0.6-0.3-0.5-0.8l2-11.2
			c0.1-0.7,0.5-1.1,1.1-1.3l12.9-4.6c0.5-0.2,0.9-0.3,1.5-0.3h9.3c0.7,0,1.2,0.6,1.1,1.3l-6.1,34.8h8c0.7,0,1.3,0.6,1.1,1.3
			L320.6,57c-0.1,0.7-0.9,1.3-1.6,1.3h-31.7c-0.7,0-1.3-0.6-1.2-1.3l1.9-10.6c0.1-0.7,0.9-1.3,1.7-1.3H297.7z"/>
		<path class="st0" d="M363.7,33.2c3.2,2.3,4.5,5.6,4.5,8.6c0,13-10.1,17.1-21.4,17.1c-5.7,0-12.7-1.5-15.2-2.7
			c-0.5-0.3-1.1-0.5-1.1-1.1c0-0.1,0-0.1,0-0.2l1.3-7.7c0.1-0.7,0.9-1.3,1.6-1.3h0.1c3.5,0,9.8,0.7,14.2,0.7c3.1,0,5.5-1.3,5.5-4.6
			c0-1.6-0.9-2.9-3.3-2.9h-11.5c-0.7,0-1.1-0.5-1.1-1.1c0-0.1,0-0.1,0-0.2l1.5-8.6c0.1-0.7,0.9-1.3,1.6-1.3H351
			c2.9,0,5.4-1.5,5.4-4.6c0-1.7-1.3-2.6-4.2-2.6c-4.5,0-10.4,0.7-14,0.7h-0.1c-0.6,0-1.1-0.5-1.1-1.1c0-0.1,0-0.1,0-0.2V20l1.3-7.7
			c0.1-0.7,0.9-1,1.7-1.3c3-1.3,10-2.7,15.7-2.7c10.6,0,16.4,3.6,16.4,11C372.1,26,369.5,29.9,363.7,33.2z"/>
	</g>
	<g>
		<path class="st1" d="M424.6,37.7h-9.4v9.4c0,0.7-0.3,1.3-1.1,1.3h-8.6c-0.7,0-1.1-0.6-1.1-1.3v-9.4H395c-0.7,0-1.3-0.3-1.3-1.1V28
			c0-0.7,0.6-1.1,1.3-1.1h9.4v-9.4c0-0.7,0.3-1.3,1.1-1.3h8.6c0.7,0,1.1,0.6,1.1,1.3v9.4h9.4c0.7,0,1.3,0.3,1.3,1.1v8.6
			C426,37.3,425.4,37.7,424.6,37.7z"/>
	</g>
	<g>
		<path class="st1" d="M293.2,195.8l-3.5,20c-0.1,0.3-0.3,0.3-0.5,0.3h-5.5c-0.5,0-0.5-0.3-0.5-0.6l1.6-9c0-0.1,0-0.3-0.1-0.3
			c-0.1,0-0.2,0.1-0.3,0.3l-2.7,3.2c-0.3,0.4-0.5,0.5-0.9,0.5h-1.7c-0.3,0-0.5-0.1-0.7-0.5l-1.5-3.2c-0.1-0.2-0.1-0.3-0.3-0.3
			c-0.1,0-0.2,0-0.2,0.3l-1.6,9c-0.1,0.3-0.1,0.6-0.5,0.6h-5.5c-0.3,0-0.6-0.1-0.5-0.5l3.5-19.8c0.1-0.5,0.6-1,1.2-1h3.8
			c0.9,0,1.2,0.3,1.5,0.9l2.8,6.3c0.1,0.2,0.2,0.3,0.3,0.3c0.1,0,0.3-0.1,0.4-0.3l5-6.3c0.5-0.6,1-0.9,1.8-0.9h3.8
			C293.1,194.8,293.3,195.3,293.2,195.8z"/>
		<path class="st1" d="M293,215.5l2.8-15.7c0.1-0.3,0.3-0.6,0.8-0.6h5.1c0.5,0,0.6,0.3,0.5,0.6l-2.8,15.7c-0.1,0.3-0.2,0.6-0.7,0.6
			h-5.1C293.2,216.1,292.9,215.8,293,215.5z M302.7,193.8c0.3,0,0.7,0.1,0.6,0.6l-0.5,2.9c-0.1,0.3-0.2,0.6-0.8,0.6h-5.4
			c-0.5,0-0.6-0.3-0.5-0.6l0.5-2.9c0.1-0.3,0.2-0.6,0.7-0.6H302.7z"/>
		<path class="st1" d="M315.8,199.4c0.3,0.1,0.5,0.2,0.5,0.5l-0.7,3.9c-0.1,0.3-0.4,0.6-0.7,0.6h0c-0.9,0-1.9-0.2-3.1-0.2
			c-1.2,0-1.6,0.7-1.9,2.4l-0.3,1.9c-0.1,0.4-0.1,0.8-0.1,1.1c0,0.9,0.3,1.3,1.2,1.3c1.1,0,2.2-0.1,3.1-0.2c0.5,0,0.6,0.3,0.5,0.6
			l-0.7,3.9c-0.1,0.3-0.3,0.5-0.7,0.5c-1.2,0.3-2.5,0.5-4.1,0.5c-4,0-5.8-2.6-5.8-5.9c0-0.6,0.1-1.2,0.2-1.9l0.3-1.9
			c0.9-5.3,3.7-7.8,8.4-7.8C313.5,198.9,315,199.2,315.8,199.4z"/>
		<path class="st1" d="M328.5,198.9c0.5,0,0.7,0.1,0.6,0.6l-0.7,4c-0.1,0.3-0.1,0.6-0.7,0.6h-0.2c-1.7,0-2.6,0.1-3.3,0.5l-1.9,10.9
			c-0.1,0.3-0.2,0.6-0.7,0.6h-5.2c-0.3,0-0.6-0.1-0.5-0.6l2.8-15.7c0.1-0.3,0.2-0.6,0.7-0.6h4.5c0.3,0,0.6,0.2,0.5,0.6l-0.2,0.8
			c1.1-1.3,2.8-1.7,4.1-1.7H328.5z"/>
		<path class="st1" d="M345.2,207l-0.2,1.3c-1.1,6.1-4.4,8.1-9.3,8.1c-4.3,0-6.6-2.3-6.6-6.1c0-0.6,0.1-1.3,0.2-1.9l0.2-1.3
			c1-6,4.4-8.1,9.3-8.1c4.2,0,6.7,2.1,6.7,6C345.4,205.6,345.3,206.3,345.2,207z M337.8,204.2c-1,0-1.7,0.8-2,2.8l-0.2,1.3
			c-0.1,0.5-0.1,1-0.1,1.3c0,1.1,0.4,1.5,1.2,1.5c1,0,1.6-0.6,2-2.8l0.2-1.3c0.1-0.5,0.1-1,0.1-1.3
			C339,204.5,338.5,204.2,337.8,204.2z"/>
		<path class="st1" d="M361.3,200.3l-0.7,3.7c-0.1,0.4-0.1,0.7-0.7,0.6c-0.9-0.1-3.9-0.5-5-0.5c-0.3,0-0.7,0-0.7,0.3
			c0,0.2,0.1,0.3,0.6,0.6l2.3,1.2c2.6,1.3,2.9,2.8,2.9,4.4c0,4.1-3.4,5.8-8.4,5.8c-2.5,0-4.2-0.4-5.2-0.7c-0.4-0.1-0.5-0.3-0.4-0.6
			l0.6-3.6c0.1-0.5,0.3-0.7,0.9-0.7c1.9,0.3,3.9,0.5,4.9,0.5c0.5,0,1.1,0,1.1-0.7c0-0.2-0.1-0.3-0.5-0.6l-2.6-1.4
			c-1.7-0.9-2.6-2.3-2.6-4.1c0-4.6,3.7-5.7,7.7-5.7c2.1,0,4.1,0.4,5.3,0.8C361.2,199.8,361.4,199.9,361.3,200.3z"/>
		<path class="st1" d="M378.4,207l-0.2,1.3c-1.1,6.1-4.4,8.1-9.3,8.1c-4.3,0-6.6-2.3-6.6-6.1c0-0.6,0.1-1.3,0.2-1.9l0.2-1.3
			c1-6,4.4-8.1,9.3-8.1c4.2,0,6.7,2.1,6.7,6C378.6,205.6,378.6,206.3,378.4,207z M371,204.2c-1,0-1.7,0.8-2,2.8l-0.2,1.3
			c-0.1,0.5-0.1,1-0.1,1.3c0,1.1,0.4,1.5,1.2,1.5c1,0,1.6-0.6,2-2.8l0.2-1.3c0.1-0.5,0.1-1,0.1-1.3
			C372.2,204.5,371.8,204.2,371,204.2z"/>
		<path class="st1" d="M392.5,193.6c0.5,0.1,0.5,0.3,0.5,0.6l-0.5,3.1c-0.1,0.3-0.2,0.6-0.7,0.6h-1c-0.7,0-0.9,0-1.1,1l-0.1,0.3h1.9
			c0.4,0,0.6,0.1,0.5,0.6l-0.6,3.5c-0.1,0.3-0.2,0.6-0.7,0.6h-2l-2.1,12c-0.8,4.7-2.9,5.6-6.5,5.6c-0.8,0-1.9-0.1-2.7-0.3
			c-0.4-0.1-0.5-0.3-0.5-0.6l0.5-3.1c0.1-0.3,0.2-0.6,0.7-0.6h0.8c0.7,0,0.9,0,1.1-1l2.1-12l-1.8-0.3c-0.3,0-0.6-0.2-0.5-0.6
			l0.5-3.2c0.1-0.3,0.2-0.6,0.7-0.6h1.9l0.1-0.4c0.7-4.7,2.9-5.6,6.5-5.6C390.5,193.2,391.7,193.4,392.5,193.6z"/>
		<path class="st1" d="M403.8,199.2c0.5,0,0.7,0.1,0.6,0.6l-0.6,3.5c-0.1,0.3-0.2,0.6-0.7,0.6H401l-1.2,7c0,0.2-0.1,0.3-0.1,0.4
			c0,0.3,0.1,0.4,0.5,0.4h1.4c0.4,0,0.6,0.1,0.5,0.6l-0.5,3.1c-0.1,0.3-0.1,0.5-0.7,0.6c-1.2,0.2-1.8,0.3-3.1,0.3
			c-2,0-4.5-0.8-4.5-4.2c0-0.4,0.1-0.9,0.1-1.4l1.2-6.9l-1.6-0.3c-0.3-0.1-0.6-0.2-0.5-0.6l0.5-3.2c0.1-0.3,0.2-0.6,0.7-0.6h1.6
			l0.4-2.4c0.1-0.3,0.2-0.5,0.7-0.6l5.1-0.9c0.6-0.1,0.8,0.1,0.7,0.6l-0.6,3.2H403.8z"/>
	</g>
	<g>
		<path class="st1" d="M287.7,231.4l-0.5,2.6c-1.4,7.3-5.1,9.6-11.1,9.6c-3.1,0-5.2-0.2-7-0.5c-0.5-0.1-0.8-0.3-0.8-0.8
			c0-0.1,0-0.3,0-0.4l3.2-18.3c0.1-0.9,0.5-1.1,1.2-1.2c1.8-0.3,4-0.5,7.1-0.5c4.7,0,8,2.4,8,7.2
			C287.9,229.7,287.9,230.5,287.7,231.4z M278.9,227.5h-1.3l-1.8,10.3h1.3c2,0,2.7-0.7,3.3-3.8l0.5-2.6c0.1-0.8,0.2-1.4,0.2-1.9
			C281.1,227.9,280.4,227.5,278.9,227.5z"/>
		<path class="st1" d="M300.9,226.1c0.5,0,0.7,0.1,0.6,0.6l-0.7,4c-0.1,0.3-0.1,0.6-0.7,0.6h-0.2c-1.7,0-2.6,0.1-3.3,0.5l-1.9,10.9
			c-0.1,0.3-0.2,0.6-0.7,0.6h-5.2c-0.3,0-0.6-0.1-0.5-0.6l2.8-15.7c0.1-0.3,0.2-0.6,0.7-0.6h4.5c0.3,0,0.6,0.2,0.5,0.6l-0.2,0.8
			c1.1-1.3,2.8-1.7,4.1-1.7H300.9z"/>
		<path class="st1" d="M317.2,234.2l-0.3,1.7c-0.1,0.3-0.4,0.6-0.7,0.6h-8.7c0,0.2-0.1,0.5-0.1,0.6c0,0.9,0.6,1.2,2.2,1.2
			c1.2,0,4.4-0.1,5.4-0.2c0.5,0,0.6,0.1,0.5,0.5l-0.5,3c-0.1,0.5-0.2,0.7-0.7,0.8c-1.6,0.6-4.4,1.1-6.8,1.1c-3.7,0-6.5-2-6.5-6
			c0-0.5,0.1-1.1,0.2-1.7l0.3-1.7c1.1-5.9,4.5-8.1,9.4-8.1c4.5,0,6.4,2.7,6.4,6.1C317.4,232.9,317.4,233.5,317.2,234.2z
			 M310.1,230.9c-1.2,0-1.7,0.8-2,2.4h3.2c0.1-0.4,0.1-0.7,0.1-1C311.5,231.5,311.1,230.9,310.1,230.9z"/>
		<path class="st1" d="M336.3,227.8l-2.6,14.9c-0.1,0.3-0.2,0.6-0.6,0.6h-4.1c-0.5,0-0.6-0.3-0.6-0.6l0.1-0.8
			c-1.3,1.1-2.4,1.7-4.7,1.7c-3.1,0-5-1.9-5-5.2c0-0.9,0.1-1.4,0.1-1.9l0.5-2.7c1.1-6.2,4.6-7.6,9.3-7.6c2.2,0,4.4,0.3,6.6,0.7
			C336,226.9,336.4,227.1,336.3,227.8z M328.1,231.4c-1.2,0-1.9,0.4-2.2,2.4l-0.5,2.8c-0.1,0.3-0.1,0.6-0.1,0.8c0,0.9,0.4,1,1.1,1
			c0.6,0,1.3-0.2,1.8-0.5l1.1-6.5C328.9,231.4,328.4,231.4,328.1,231.4z"/>
		<path class="st1" d="M362.1,232.9l-1.7,9.8c-0.1,0.3-0.2,0.6-0.7,0.6h-5.2c-0.4,0-0.6-0.2-0.5-0.6l1.7-9.8c0-0.2,0.1-0.3,0.1-0.5
			c0-0.6-0.3-0.8-0.9-0.8c-0.4,0-0.8,0.1-1.3,0.2c-0.1,0.4-0.1,0.6-0.1,1.1l-1.7,9.8c-0.1,0.3-0.2,0.6-0.7,0.6h-5.2
			c-0.5,0-0.6-0.3-0.5-0.6l1.7-9.8c0-0.2,0.1-0.3,0.1-0.5c0-0.6-0.3-0.7-0.9-0.7c-0.4,0-0.9,0.1-1.3,0.2l-1.9,10.9
			c-0.1,0.3-0.1,0.6-0.7,0.6h-5.2c-0.3,0-0.6-0.2-0.5-0.6l2.8-15.7c0.1-0.3,0.1-0.6,0.7-0.6h4.7c0.4,0,0.5,0.3,0.5,0.6l-0.2,0.9
			c1.8-1.4,3.3-1.7,4.9-1.7c1.4,0,2.7,0.5,3.2,1.7c1.5-1.2,3.2-1.7,4.8-1.7c3,0,4.2,1.8,4.2,4.6
			C362.3,231.4,362.2,232.1,362.1,232.9z"/>
		<path class="st1" d="M381.5,223.1l-0.7,4.3c-0.1,0.3-0.1,0.6-0.7,0.6c-1.5-0.1-4.8-0.4-6.9-0.4c-0.3,0-0.7,0.1-0.7,0.5
			c0,0.3,0.2,0.5,0.9,0.9l3.7,2.2c2,1.2,2.8,2.9,2.8,4.6c0,5.5-4.7,7.9-9.7,7.9c-2.5,0-4.5-0.4-6-0.9c-0.3-0.1-0.6-0.3-0.5-0.6
			l0.7-4.3c0.1-0.3,0.2-0.6,0.7-0.6c1.2,0.1,4.2,0.5,6.1,0.5c0.7,0,1.2-0.3,1.2-0.9c0-0.4-0.1-0.6-0.6-0.9l-3.9-2.5
			c-1.9-1.2-2.5-3.2-2.5-4.8c0-5.3,4-7,8.8-7c2.5,0,5.6,0.4,6.8,0.8C381.3,222.6,381.5,222.7,381.5,223.1z"/>
		<path class="st1" d="M398.5,233.8l-0.4,2.2c-0.9,5.1-3.9,7.6-9.2,7.6c-0.3,0-1.1-0.1-1.5-0.2l-0.8,4.7c-0.1,0.3-0.3,0.6-0.7,0.6
			h-5.1c-0.3,0-0.6-0.1-0.6-0.6l3.6-20.3c0.1-0.5,0.3-0.8,1.3-1c1.4-0.3,3.9-0.7,6.9-0.7c4.2,0,6.7,2.4,6.7,6
			C398.6,232.7,398.6,233.2,398.5,233.8z M391,231.4c-0.7,0-1,0-1.5,0.1l-1.2,6.8c0.5,0,0.9,0.1,1.5,0.1c1.2,0,1.6-0.7,1.9-2.4
			l0.4-2.2c0.1-0.4,0.1-0.8,0.1-1.1C392.2,231.8,391.9,231.4,391,231.4z"/>
		<path class="st1" d="M417.5,227.8l-2.6,14.9c-0.1,0.3-0.2,0.6-0.6,0.6h-4.1c-0.5,0-0.6-0.3-0.6-0.6l0.1-0.8
			c-1.3,1.1-2.4,1.7-4.7,1.7c-3.1,0-5-1.9-5-5.2c0-0.9,0.1-1.4,0.1-1.9l0.5-2.7c1.1-6.2,4.6-7.6,9.3-7.6c2.2,0,4.4,0.3,6.6,0.7
			C417.2,226.9,417.6,227.1,417.5,227.8z M409.2,231.4c-1.2,0-1.9,0.4-2.2,2.4l-0.5,2.8c-0.1,0.3-0.1,0.6-0.1,0.8c0,0.9,0.4,1,1.1,1
			c0.6,0,1.3-0.2,1.8-0.5l1.1-6.5C410,231.4,409.6,231.4,409.2,231.4z"/>
		<path class="st1" d="M430.4,226.1c0.5,0,0.7,0.1,0.6,0.6l-0.7,4c-0.1,0.3-0.1,0.6-0.7,0.6h-0.2c-1.7,0-2.6,0.1-3.3,0.5l-1.9,10.9
			c-0.1,0.3-0.2,0.6-0.7,0.6h-5.2c-0.3,0-0.6-0.1-0.5-0.6l2.8-15.7c0.1-0.3,0.2-0.6,0.7-0.6h4.5c0.3,0,0.6,0.2,0.5,0.6l-0.2,0.8
			c1.1-1.3,2.8-1.7,4.1-1.7H430.4z"/>
		<path class="st1" d="M449.6,226.4c0.5,0,0.5,0.5,0.3,0.7l-5.9,7.6l3.3,7.9c0.1,0.3,0,0.7-0.5,0.7h-5.8c-0.3,0-0.6-0.1-0.8-0.6
			l-2.2-6.8l-1.2,6.8c-0.1,0.3-0.2,0.6-0.7,0.6h-5.1c-0.4,0-0.6-0.2-0.5-0.6l3.7-21.1c0.1-0.3,0.3-0.6,0.7-0.6h5
			c0.4,0,0.7,0.1,0.6,0.6l-2.1,11.8l4.4-6.4c0.4-0.6,0.7-0.6,1-0.6H449.6z"/>
	</g>
	<g>
		<path class="st0" d="M468.2,74.4l-0.4,1.9c-1,5.2-3.7,6.9-8,6.9c-2.2,0-3.8-0.2-5-0.4c-0.4-0.1-0.6-0.2-0.6-0.6c0-0.1,0-0.2,0-0.3
			l2.3-13.2c0.1-0.6,0.3-0.8,0.9-0.9c1.3-0.2,2.9-0.4,5.1-0.4c3.4,0,5.8,1.8,5.8,5.2C468.3,73.1,468.3,73.7,468.2,74.4z M461.8,71.6
			h-0.9l-1.3,7.4h0.9c1.4,0,1.9-0.5,2.4-2.8l0.4-1.9c0.1-0.6,0.2-1,0.2-1.4C463.4,71.9,462.9,71.6,461.8,71.6z"/>
		<path class="st0" d="M480.7,76.4l-0.2,0.9c-0.8,4.4-3.2,5.8-6.7,5.8c-3.1,0-4.8-1.6-4.8-4.4c0-0.4,0-0.9,0.1-1.4l0.2-0.9
			c0.7-4.3,3.2-5.8,6.7-5.8c3.1,0,4.8,1.5,4.8,4.3C480.8,75.4,480.8,75.9,480.7,76.4z M475.4,74.4c-0.7,0-1.2,0.6-1.4,2l-0.2,0.9
			c-0.1,0.4-0.1,0.7-0.1,1c0,0.8,0.3,1.1,0.8,1.1c0.7,0,1.2-0.4,1.4-2l0.2-0.9c0.1-0.4,0.1-0.7,0.1-1
			C476.2,74.6,475.9,74.4,475.4,74.4z"/>
		<path class="st0" d="M491,70.9c0.2,0.1,0.4,0.1,0.3,0.4l-0.5,2.8c0,0.2-0.3,0.4-0.5,0.4h0c-0.7,0-1.4-0.1-2.2-0.1
			c-0.8,0-1.2,0.5-1.4,1.8l-0.2,1.4c-0.1,0.3-0.1,0.6-0.1,0.8c0,0.6,0.2,0.9,0.9,0.9c0.8,0,1.6-0.1,2.2-0.1c0.4,0,0.4,0.2,0.4,0.4
			l-0.5,2.8c0,0.2-0.2,0.3-0.5,0.4c-0.8,0.2-1.8,0.4-3,0.4c-2.9,0-4.2-1.8-4.2-4.2c0-0.4,0-0.9,0.1-1.4l0.2-1.4
			c0.7-3.8,2.6-5.6,6-5.6C489.4,70.6,490.5,70.8,491,70.9z"/>
		<path class="st0" d="M502.8,76.4l-0.2,1.3c0,0.2-0.3,0.4-0.5,0.4h-6.2c0,0.2,0,0.3,0,0.5c0,0.7,0.4,0.9,1.6,0.9
			c0.9,0,3.2-0.1,3.9-0.1c0.3,0,0.5,0.1,0.4,0.4l-0.4,2.2c-0.1,0.4-0.2,0.5-0.5,0.6c-1.1,0.4-3.2,0.8-4.9,0.8
			c-2.6,0-4.7-1.4-4.7-4.3c0-0.4,0-0.8,0.1-1.2l0.2-1.3c0.8-4.3,3.3-5.8,6.8-5.8c3.2,0,4.6,1.9,4.6,4.4
			C503,75.4,502.9,75.9,502.8,76.4z M497.7,74c-0.8,0-1.2,0.6-1.4,1.7h2.3c0-0.3,0.1-0.5,0.1-0.7C498.7,74.4,498.4,74,497.7,74z"/>
		<path class="st0" d="M516.2,75.4l-1.3,7.1c0,0.2-0.1,0.5-0.5,0.5h-3.7c-0.3,0-0.4-0.1-0.4-0.5l1.3-7.1c0-0.1,0-0.2,0-0.4
			c0-0.4-0.4-0.6-0.9-0.6c-0.4,0-0.8,0.1-1.2,0.3l-1.4,7.8c0,0.2-0.1,0.5-0.5,0.5h-3.7c-0.2,0-0.5-0.1-0.4-0.5l2-11.3
			c0-0.2,0.2-0.4,0.5-0.4h3.4c0.3,0,0.4,0.2,0.4,0.4l-0.1,0.6c1.1-0.8,2.1-1.2,3.5-1.2c2.5,0,3.1,1.6,3.1,3.3
			C516.3,74.4,516.2,74.9,516.2,75.4z"/>
		<path class="st0" d="M526,70.8c0.3,0,0.5,0.1,0.4,0.4l-0.4,2.5c0,0.2-0.1,0.5-0.5,0.5H524l-0.9,5.1c0,0.1,0,0.2,0,0.3
			c0,0.2,0.1,0.3,0.4,0.3h1c0.3,0,0.4,0.1,0.4,0.4l-0.4,2.2c0,0.2-0.1,0.4-0.5,0.5c-0.9,0.1-1.3,0.2-2.2,0.2c-1.4,0-3.2-0.6-3.2-3
			c0-0.3,0-0.7,0.1-1l0.9-5l-1.1-0.2c-0.2,0-0.4-0.1-0.4-0.5l0.4-2.3c0-0.2,0.2-0.4,0.5-0.4h1.2l0.3-1.7c0-0.2,0.1-0.4,0.5-0.4
			l3.7-0.6c0.4-0.1,0.6,0.1,0.5,0.4l-0.4,2.3H526z"/>
		<path class="st0" d="M538,76.4l-0.2,1.3c0,0.2-0.3,0.4-0.5,0.4H531c0,0.2,0,0.3,0,0.5c0,0.7,0.4,0.9,1.6,0.9
			c0.9,0,3.2-0.1,3.9-0.1c0.3,0,0.5,0.1,0.4,0.4l-0.4,2.2c-0.1,0.4-0.2,0.5-0.5,0.6c-1.1,0.4-3.2,0.8-4.9,0.8
			c-2.6,0-4.7-1.4-4.7-4.3c0-0.4,0-0.8,0.1-1.2l0.2-1.3c0.8-4.3,3.3-5.8,6.8-5.8c3.2,0,4.6,1.9,4.6,4.4
			C538.1,75.4,538.1,75.9,538,76.4z M532.9,74c-0.8,0-1.2,0.6-1.4,1.7h2.3c0-0.3,0.1-0.5,0.1-0.7C533.9,74.4,533.6,74,532.9,74z"/>
		<path class="st0" d="M549.5,71.6l-0.5,2.7c0,0.3-0.1,0.5-0.5,0.4c-0.6-0.1-2.8-0.4-3.6-0.4c-0.2,0-0.5,0-0.5,0.2
			c0,0.2,0,0.2,0.5,0.5l1.6,0.9c1.8,1,2.1,2,2.1,3.2c0,3-2.5,4.1-6,4.1c-1.8,0-3-0.3-3.8-0.5c-0.3-0.1-0.4-0.2-0.3-0.5l0.5-2.6
			c0.1-0.3,0.2-0.5,0.6-0.5c1.3,0.2,2.8,0.4,3.5,0.4c0.3,0,0.8,0,0.8-0.5c0-0.1-0.1-0.2-0.4-0.4l-1.8-1c-1.2-0.7-1.8-1.6-1.8-2.9
			c0-3.3,2.7-4.1,5.5-4.1c1.5,0,3,0.3,3.8,0.6C549.4,71.2,549.5,71.3,549.5,71.6z"/>
	</g>
	<g>
		<path class="st0" d="M146.8,83h-4.3c-0.2,0-0.4-0.2-0.4-0.4l0-2.3H139l-0.8,2.3c-0.1,0.2-0.3,0.4-0.5,0.4h-4.3
			c-0.2,0-0.3-0.1-0.3-0.2c0-0.1,0-0.1,0-0.2l4.6-12.5c0.8-2.1,2.5-2.7,5-2.7c2.5,0,4,0.6,4,2.7l0.3,12.5v0
			C147.1,82.8,147,83,146.8,83z M142.2,71.4c-0.2,0-0.2,0.1-0.2,0.3l-1.6,4.8h1.9l0.1-4.8c0,0,0-0.1,0-0.1
			C142.3,71.4,142.3,71.4,142.2,71.4z"/>
		<path class="st0" d="M155.9,67.3l-2.7,15.2c0,0.2-0.1,0.5-0.5,0.5H149c-0.2,0-0.5-0.1-0.4-0.5l2.7-15.2c0-0.2,0.2-0.4,0.5-0.4h3.7
			C155.8,66.9,156,67,155.9,67.3z"/>
		<path class="st0" d="M168.6,71.2l-2,11.3c0,0.2-0.1,0.4-0.5,0.4h-3.4c-0.2,0-0.4-0.1-0.4-0.4l0.1-0.6c-1,0.7-1.8,1.2-3.4,1.2
			c-2.3,0-3.2-1.6-3.2-3.5c0-0.4,0-0.8,0.1-1.3l1.3-7.1c0-0.2,0.3-0.5,0.5-0.5h3.7c0.3,0,0.4,0.1,0.4,0.5l-1.2,6.8
			c0,0.2-0.1,0.5-0.1,0.6c0,0.6,0.4,0.7,0.9,0.7c0.4,0,0.8-0.1,1.2-0.3l1.4-7.8c0-0.2,0.1-0.5,0.5-0.5h3.7
			C168.5,70.8,168.7,70.9,168.6,71.2z"/>
		<path class="st0" d="M187,75.4l-1.2,7.1c0,0.2-0.2,0.5-0.5,0.5h-3.7c-0.3,0-0.4-0.2-0.4-0.5l1.2-7.1c0-0.1,0-0.2,0-0.3
			c0-0.5-0.2-0.6-0.7-0.6c-0.3,0-0.6,0-0.9,0.1c0,0.3,0,0.4-0.1,0.8l-1.2,7.1c0,0.2-0.1,0.5-0.5,0.5h-3.7c-0.3,0-0.4-0.2-0.4-0.5
			l1.2-7.1c0-0.1,0-0.2,0-0.4c0-0.4-0.2-0.5-0.6-0.5c-0.3,0-0.7,0-0.9,0.1l-1.4,7.8c0,0.2-0.1,0.5-0.5,0.5h-3.7
			c-0.2,0-0.5-0.1-0.4-0.5l2-11.3c0-0.2,0.1-0.4,0.5-0.4h3.4c0.3,0,0.4,0.2,0.4,0.4l-0.1,0.6c1.3-1,2.4-1.2,3.5-1.2
			c1,0,1.9,0.3,2.3,1.2c1.1-0.9,2.3-1.2,3.4-1.2c2.1,0,3.1,1.3,3.1,3.3C187.2,74.4,187.1,74.9,187,75.4z"/>
		<path class="st0" d="M200.5,75.4l-1.3,7.1c0,0.2-0.1,0.5-0.5,0.5H195c-0.3,0-0.4-0.1-0.4-0.5l1.3-7.1c0-0.1,0-0.2,0-0.4
			c0-0.4-0.4-0.6-0.9-0.6c-0.4,0-0.8,0.1-1.2,0.3l-1.4,7.8c0,0.2-0.1,0.5-0.5,0.5h-3.7c-0.2,0-0.5-0.1-0.4-0.5l2-11.3
			c0-0.2,0.2-0.4,0.5-0.4h3.4c0.3,0,0.4,0.2,0.4,0.4l-0.1,0.6c1.1-0.8,2.1-1.2,3.5-1.2c2.5,0,3.1,1.6,3.1,3.3
			C200.6,74.4,200.6,74.9,200.5,75.4z"/>
		<path class="st0" d="M213.4,76.4l-0.2,0.9c-0.8,4.4-3.2,5.8-6.7,5.8c-3.1,0-4.8-1.6-4.8-4.4c0-0.4,0-0.9,0.1-1.4l0.2-0.9
			c0.7-4.3,3.2-5.8,6.7-5.8c3.1,0,4.8,1.5,4.8,4.3C213.5,75.4,213.5,75.9,213.4,76.4z M208.1,74.4c-0.7,0-1.2,0.6-1.4,2l-0.2,0.9
			c-0.1,0.4-0.1,0.7-0.1,1c0,0.8,0.3,1.1,0.8,1.1c0.7,0,1.2-0.4,1.4-2l0.2-0.9c0.1-0.4,0.1-0.7,0.1-1
			C208.9,74.6,208.6,74.4,208.1,74.4z"/>
		<path class="st0" d="M225,71.6l-0.5,2.7c0,0.3-0.1,0.5-0.5,0.4c-0.6-0.1-2.8-0.4-3.6-0.4c-0.2,0-0.5,0-0.5,0.2
			c0,0.2,0,0.2,0.5,0.5l1.6,0.9c1.8,1,2.1,2,2.1,3.2c0,3-2.5,4.1-6,4.1c-1.8,0-3-0.3-3.8-0.5c-0.3-0.1-0.4-0.2-0.3-0.5l0.5-2.6
			c0.1-0.3,0.2-0.5,0.6-0.5c1.3,0.2,2.8,0.4,3.5,0.4c0.3,0,0.8,0,0.8-0.5c0-0.1-0.1-0.2-0.4-0.4l-1.8-1c-1.2-0.7-1.8-1.6-1.8-2.9
			c0-3.3,2.7-4.1,5.5-4.1c1.5,0,3,0.3,3.8,0.6C224.9,71.2,225,71.3,225,71.6z"/>
	</g>
	<g>
		<defs>
			<rect id="SVGID_1_" x="19.5" y="-11.3" width="677.6" height="266"/>
		</defs>
		<clipPath id="SVGID_2_">
			<use xlink:href="#SVGID_1_"  style="overflow:visible;"/>
		</clipPath>
		<path class="st2" d="M345.3,183.1h26c27.4-38.3,47.7-44.8,99-44.8h147.4c60.7,0,79.5-23.1,79.5-88.8V16.2
			c0-7.9-5.1-13.7-12.3-13.7h-5.8c-7.2,0-11.6,5.8-11.6,13.7v33.2c0,48.4-7.9,57.1-49.8,57.1H470.3c-51.3,0-83.1,9.4-112.7,46.2
			c-28.2-35.4-60-46.2-111.2-46.2H99c-41.9,0-49.8-8.7-49.8-57.1V16.2c0-7.9-4.3-13.7-11.6-13.7h-5.8c-7.2,0-12.3,5.8-12.3,13.7
			v33.2c0,67.2,18.8,88.8,79.5,88.8h147.4C297.7,138.3,317.9,144.8,345.3,183.1"/>
	</g>
</g>
</svg>
