<?xml version="1.0" encoding="utf-8"?>
<!-- Generator: Adobe Illustrator 19.2.1, SVG Export Plug-In . SVG Version: 6.00 Build 0)  -->
<svg version="1.1" id="Capa_1" xmlns="http://www.w3.org/2000/svg" xmlns:xlink="http://www.w3.org/1999/xlink" x="0px" y="0px"
	 viewBox="0 0 716.7 135.3" style="enable-background:new 0 0 716.7 135.3;" xml:space="preserve">
<style type="text/css">
	.st0{fill:#B600A6;}
	.st1{fill:#F000A6;}
</style>
<g>
	<g>
		<path class="st0" d="M50.1,26.2l-4.7,26.6c-0.1,0.4-0.4,0.4-0.7,0.4h-7.3c-0.7,0-0.7-0.4-0.6-0.8l2.1-11.9c0-0.2,0-0.3-0.2-0.3
			c-0.2,0-0.2,0.1-0.4,0.3l-3.6,4.2c-0.5,0.5-0.7,0.7-1.1,0.7h-2.2c-0.4,0-0.6-0.2-0.9-0.7l-2.1-4.2c-0.1-0.2-0.2-0.3-0.3-0.3
			c-0.2,0-0.2,0-0.3,0.3l-2.1,11.9c-0.1,0.4-0.2,0.8-0.7,0.8h-7.4c-0.3,0-0.8-0.1-0.6-0.6l4.7-26.4c0.1-0.7,0.8-1.3,1.6-1.3h5
			c1.1,0,1.6,0.4,2,1.3l3.7,8.4c0.1,0.3,0.2,0.4,0.4,0.4c0.2,0,0.3-0.2,0.5-0.4l6.7-8.4c0.6-0.8,1.3-1.3,2.4-1.3h5
			C50,24.9,50.2,25.5,50.1,26.2z"/>
		<path class="st0" d="M73.8,32.6l-3.5,19.9c-0.1,0.4-0.2,0.8-0.8,0.8h-5.5c-0.7,0-0.8-0.3-0.8-0.8l0.2-1.1
			c-1.8,1.5-3.2,2.2-6.2,2.2c-4.1,0-6.7-2.6-6.7-7c0-1.3,0.1-1.9,0.2-2.6l0.6-3.5c1.4-8.2,6.2-10.2,12.4-10.2c2.9,0,5.9,0.4,8.8,0.9
			C73.5,31.4,74,31.7,73.8,32.6z M62.9,37.4c-1.6,0-2.5,0.6-2.9,3.1l-0.7,3.7c-0.1,0.4-0.1,0.8-0.1,1.1c0,1.1,0.5,1.4,1.5,1.4
			c0.8,0,1.7-0.3,2.4-0.6l1.5-8.6C63.9,37.4,63.3,37.4,62.9,37.4z"/>
		<path class="st0" d="M91,30.3c0.6,0,0.9,0.2,0.8,0.8l-1,5.4c-0.1,0.4-0.2,0.8-0.9,0.8h-0.3c-2.3,0-3.5,0.2-4.4,0.6l-2.6,14.5
			c-0.1,0.5-0.2,0.8-0.9,0.8h-6.9c-0.5,0-0.8-0.2-0.7-0.8l3.7-20.9c0.1-0.4,0.3-0.8,0.9-0.8h6c0.5,0,0.8,0.2,0.6,0.8l-0.2,1.1
			c1.5-1.8,3.7-2.3,5.5-2.3H91z"/>
		<path class="st0" d="M112.5,31.5l-0.7,4.1c-0.2,0.8-0.3,1.1-1.3,2.2l-7.4,8.1c-0.2,0.2-0.3,0.3-0.3,0.5c0,0.2,0.2,0.3,0.4,0.3h6
			c0.3,0,0.6,0.1,0.5,0.6l-0.9,5.3c-0.1,0.4-0.3,0.8-0.9,0.8H91.6c-0.5,0-0.7-0.3-0.6-0.8l0.7-4c0.2-0.8,0.3-1.2,1-1.9l7.8-8.5
			c0.2-0.2,0.3-0.3,0.3-0.5c0-0.2-0.2-0.2-0.4-0.2h-5.9c-0.3,0-0.6-0.2-0.5-0.6l1-5.3c0.1-0.4,0.2-0.8,0.9-0.8h16.1
			C112.2,30.7,112.6,30.9,112.5,31.5z"/>
		<path class="st0" d="M134.3,41.1l-0.3,1.8c-1.4,8.1-5.9,10.8-12.4,10.8c-5.7,0-8.8-3.1-8.8-8.2c0-0.8,0.1-1.7,0.2-2.6l0.3-1.8
			c1.4-8,5.9-10.8,12.4-10.8c5.7,0,8.9,2.8,8.9,8.1C134.6,39.2,134.4,40.2,134.3,41.1z M124.4,37.4c-1.3,0-2.2,1.1-2.7,3.7l-0.3,1.8
			c-0.1,0.7-0.2,1.3-0.2,1.8c0,1.5,0.6,1.9,1.6,1.9c1.3,0,2.1-0.8,2.7-3.7l0.3-1.8c0.1-0.7,0.2-1.3,0.2-1.8
			C126,37.8,125.4,37.4,124.4,37.4z"/>
		<path class="st0" d="M168.5,32.6L165,52.5c-0.1,0.4-0.2,0.8-0.8,0.8h-5.5c-0.7,0-0.8-0.3-0.8-0.8l0.2-1.1
			c-1.8,1.5-3.2,2.2-6.2,2.2c-4.1,0-6.7-2.6-6.7-7c0-1.3,0.1-1.9,0.2-2.6l0.6-3.5c1.4-8.2,6.2-10.2,12.4-10.2c2.9,0,5.9,0.4,8.8,0.9
			C168.1,31.4,168.7,31.7,168.5,32.6z M157.5,37.4c-1.6,0-2.5,0.6-2.9,3.1l-0.7,3.7c-0.1,0.4-0.1,0.8-0.1,1.1c0,1.1,0.5,1.4,1.5,1.4
			c0.8,0,1.7-0.3,2.4-0.6l1.5-8.6C158.5,37.4,158,37.4,157.5,37.4z"/>
	</g>
	<g>
		<path class="st0" d="M41.3,69.3c0.5,0,0.9,0.2,0.8,0.8l-4.8,27.1c-0.1,0.6-0.5,1.1-1.8,1.3c-1.9,0.3-5.2,0.9-9.2,0.9
			c-5.6,0-8.9-3.5-8.9-8.2c0-0.6,0.1-1.3,0.2-1.9l0.5-3c1.3-7.2,5.2-10.2,11.9-10.2c0.9,0,1.9,0.1,2.4,0.2l1.1-6.3
			c0.1-0.5,0.3-0.8,0.9-0.8H41.3z M29.2,83.2c-1.6,0-2.2,1-2.6,3.1l-0.5,3c-0.1,0.6-0.2,1-0.2,1.5c0,1.1,0.5,1.7,1.6,1.7
			c1,0,1.3,0,2.1-0.1l1.6-9C30.6,83.3,30.1,83.2,29.2,83.2z"/>
		<path class="st0" d="M41,98.2l3.7-20.9c0.1-0.5,0.3-0.8,1-0.8h6.8c0.7,0,0.8,0.3,0.7,0.8l-3.7,20.9c-0.1,0.5-0.3,0.8-1,0.8h-6.8
			C41.3,99.1,40.9,98.7,41,98.2z M54,69.3c0.5,0,0.9,0.1,0.8,0.8L54,74c-0.1,0.5-0.3,0.8-1,0.8h-7.2c-0.7,0-0.8-0.4-0.7-0.8l0.7-3.9
			c0.1-0.5,0.3-0.8,1-0.8H54z"/>
		<path class="st0" d="M71.4,76.8c0.4,0.1,0.7,0.3,0.6,0.7l-0.9,5.2c-0.1,0.4-0.5,0.8-0.9,0.8h0c-1.2,0-2.6-0.2-4.1-0.2
			c-1.6,0-2.2,1-2.6,3.2L63,89.1c-0.1,0.6-0.2,1.1-0.2,1.5c0,1.2,0.5,1.7,1.6,1.7c1.5,0,2.9-0.2,4.2-0.2c0.7,0,0.8,0.3,0.7,0.8
			l-0.9,5.2c-0.1,0.5-0.5,0.6-0.9,0.7c-1.6,0.3-3.3,0.6-5.5,0.6c-5.3,0-7.7-3.4-7.7-7.9c0-0.8,0.1-1.6,0.2-2.5l0.5-2.5
			c1.3-7,4.9-10.4,11.1-10.4C68.3,76.2,70.3,76.5,71.4,76.8z"/>
		<path class="st0" d="M71.7,98.2l3.7-20.9c0.1-0.5,0.3-0.8,1-0.8h6.8c0.7,0,0.8,0.3,0.7,0.8l-3.7,20.9c-0.1,0.5-0.3,0.8-1,0.8h-6.8
			C72,99.1,71.6,98.7,71.7,98.2z M84.7,69.3c0.5,0,0.9,0.1,0.8,0.8L84.7,74c-0.1,0.5-0.3,0.8-1,0.8h-7.2c-0.7,0-0.8-0.4-0.7-0.8
			l0.7-3.9c0.1-0.5,0.3-0.8,1-0.8H84.7z"/>
		<path class="st0" d="M106.3,86.9l-0.4,2.3c-0.1,0.5-0.5,0.8-1,0.8H93.4c0,0.3-0.1,0.6-0.1,0.8c0,1.2,0.8,1.6,2.9,1.6
			c1.6,0,5.8-0.2,7.2-0.3c0.6,0,0.8,0.1,0.7,0.7l-0.7,4c-0.1,0.6-0.3,0.9-0.9,1.1c-2.1,0.8-5.9,1.5-9,1.5c-4.9,0-8.7-2.7-8.7-7.9
			c0-0.7,0.1-1.5,0.2-2.3l0.4-2.3c1.4-7.9,6-10.7,12.5-10.7c6,0,8.5,3.5,8.5,8.1C106.6,85.1,106.5,86,106.3,86.9z M96.9,82.6
			c-1.6,0-2.3,1-2.7,3.2h4.3c0.1-0.5,0.2-0.9,0.2-1.3C98.7,83.3,98.2,82.6,96.9,82.6z"/>
		<path class="st0" d="M141.5,85.2l-2.3,13.1c-0.1,0.5-0.3,0.8-1,0.8h-6.9c-0.5,0-0.8-0.3-0.7-0.8l2.3-13.1c0-0.2,0.1-0.5,0.1-0.6
			c0-0.8-0.5-1-1.2-1c-0.5,0-1.1,0.1-1.7,0.2c-0.1,0.6-0.1,0.8-0.2,1.4l-2.3,13.1c-0.1,0.5-0.3,0.8-1,0.8h-6.9
			c-0.6,0-0.8-0.4-0.7-0.8l2.3-13.1c0-0.3,0.1-0.5,0.1-0.6c0-0.8-0.4-1-1.2-1c-0.5,0-1.2,0.1-1.7,0.2l-2.6,14.5
			c-0.1,0.5-0.2,0.8-0.9,0.8h-6.9c-0.5,0-0.8-0.2-0.7-0.8l3.7-20.9c0.1-0.4,0.2-0.8,0.9-0.8h6.3c0.5,0,0.7,0.3,0.6,0.8l-0.2,1.1
			c2.4-1.9,4.4-2.3,6.6-2.3c1.9,0,3.6,0.6,4.3,2.3c1.9-1.6,4.2-2.3,6.4-2.3c3.9,0,5.7,2.4,5.7,6.2C141.8,83.2,141.7,84.2,141.5,85.2
			z"/>
		<path class="st0" d="M166.2,86.3l-0.5,3c-1.3,7-5.7,10.2-12.3,10.2c-3.9,0-7.1-0.6-8.9-0.9c-1.1-0.2-1.4-0.6-1.3-1.3l4.8-27.1
			c0.1-0.5,0.3-0.8,1-0.8h6.8c0.5,0,0.8,0.2,0.6,0.8l-1.1,6.2c0.5-0.1,1.4-0.2,2.1-0.2c6.1,0,8.9,3.4,8.9,8
			C166.4,84.9,166.3,85.6,166.2,86.3z M156,83.2c-0.6,0-1.2,0-1.8,0.1l-1.6,9c0.7,0.1,1.1,0.1,2.1,0.1c1.8,0,2.2-1.3,2.6-3.1l0.5-3
			c0.1-0.4,0.1-0.8,0.1-1.2C157.8,83.9,157.4,83.2,156,83.2z"/>
		<path class="st0" d="M184.2,76.2c0.6,0,0.9,0.2,0.8,0.8l-1,5.4c-0.1,0.4-0.2,0.8-0.9,0.8h-0.3c-2.3,0-3.5,0.2-4.4,0.6l-2.6,14.5
			c-0.1,0.5-0.2,0.8-0.9,0.8h-6.9c-0.5,0-0.8-0.2-0.7-0.8l3.7-20.9c0.1-0.4,0.3-0.8,0.9-0.8h6c0.5,0,0.8,0.2,0.6,0.8l-0.2,1.1
			c1.5-1.8,3.7-2.3,5.5-2.3H184.2z"/>
		<path class="st0" d="M205.9,86.9l-0.4,2.3c-0.1,0.5-0.5,0.8-1,0.8H193c0,0.3-0.1,0.6-0.1,0.8c0,1.2,0.8,1.6,2.9,1.6
			c1.6,0,5.8-0.2,7.2-0.3c0.6,0,0.8,0.1,0.7,0.7l-0.7,4c-0.1,0.6-0.3,0.9-0.9,1.1c-2.1,0.8-5.9,1.5-9,1.5c-4.9,0-8.7-2.7-8.7-7.9
			c0-0.7,0.1-1.5,0.2-2.3l0.4-2.3c1.4-7.9,6-10.7,12.5-10.7c6,0,8.5,3.5,8.5,8.1C206.1,85.1,206.1,86,205.9,86.9z M196.4,82.6
			c-1.6,0-2.3,1-2.7,3.2h4.3c0.1-0.5,0.2-0.9,0.2-1.3C198.2,83.3,197.7,82.6,196.4,82.6z"/>
	</g>
	<g>
		<path class="st0" d="M511.5,45.6l2.1-11.9l-4.8,1.5c-0.2,0.1-0.4,0.1-0.5,0.1c-0.3,0-0.3-0.2-0.3-0.5l1.1-6.5
			c0.1-0.4,0.3-0.6,0.6-0.8l7.4-2.6c0.3-0.1,0.5-0.2,0.9-0.2h5.3c0.4,0,0.7,0.3,0.6,0.8l-3.5,20h4.6c0.4,0,0.7,0.3,0.6,0.8l-1.1,6.1
			c-0.1,0.4-0.5,0.8-0.9,0.8h-18.2c-0.4,0-0.8-0.3-0.7-0.8l1.1-6.1c0.1-0.4,0.5-0.8,1-0.8H511.5z"/>
		<path class="st0" d="M553.7,34.6l-1.5,8.7c-1.5,8.6-7.1,10.3-12.5,10.3c-3.7,0-6.2-0.5-8.2-1.2c-0.5-0.2-0.7-0.3-0.7-0.7
			c0-0.1,0-0.2,0-0.3l0.8-4.7c0.1-0.5,0.4-0.8,0.8-0.8c0,0,0.1,0,0.2,0c1.8,0.2,4.8,0.5,7,0.5c2.5,0,3.1-0.4,3.7-3.2l0-0.2
			c-0.5,0.1-2.2,0.3-2.9,0.3c-4.9,0-8.4-1.9-8.4-6.6c0-7.9,4.5-12.2,12.6-12.2c6.3,0,9.1,3.9,9.1,8.2
			C553.8,33.3,553.8,33.9,553.7,34.6z M543.6,31.1c-2,0-2.6,2.2-2.6,4.8c0,1.2,0.5,1.6,1.5,1.6c0.8,0,1.5-0.1,1.9-0.1l0.5-2.8
			c0.1-0.6,0.2-1.2,0.2-1.6C545,31.5,544.4,31.1,543.6,31.1z"/>
		<path class="st0" d="M563.6,46.7l-1,5.8c-0.1,0.4-0.5,0.8-1,0.8H555c-0.4,0-0.6-0.3-0.6-0.6c0,0,0-0.1,0-0.1l1-5.8
			c0.1-0.4,0.5-0.8,1-0.8h6.6c0.4,0,0.6,0.3,0.6,0.6C563.6,46.6,563.6,46.6,563.6,46.7z"/>
		<path class="st0" d="M591.1,32.3c-0.7,4.1-3.5,6.3-8.1,8.7c-3.1,1.6-5.5,2.9-6.5,4.6h11c0.4,0,0.7,0.3,0.7,0.6c0,0,0,0.1,0,0.1
			l-1.1,6.1c-0.1,0.4-0.5,0.8-1,0.8h-18.6c-0.4,0-0.6-0.3-0.6-0.6c0,0,0-0.1,0-0.1l0.7-4.2c1-6,4.9-9,9-11.5c4.7-2.9,5.2-2.8,5.4-4
			c0-0.1,0-0.2,0-0.3c0-0.6-0.5-0.8-3-0.8c-2.5,0-5,0.4-7.4,0.4h0c-0.3,0-0.6-0.3-0.6-0.6c0,0,0-0.1,0-0.1v0l0.8-4.4
			c0.1-0.4,0.5-0.6,0.9-0.8c2.6-0.9,5.9-1.6,9.4-1.6c6.8,0,9.2,2.7,9.2,6.3C591.3,31.3,591.2,31.8,591.1,32.3z"/>
		<path class="st0" d="M616.7,25.6l-1,5.6c-0.1,0.4-0.4,0.8-0.9,0.8h-10.4l-0.8,3.1h1.7c7.1,0,9,3.5,9,6.9c0,8.5-5.2,11.6-13.3,11.6
			c-2.8,0-5.6-0.5-7.7-1.4c-0.3-0.1-0.7-0.3-0.7-0.6c0,0,0-0.1,0-0.1l0.8-4.6c0.1-0.6,0.4-0.8,0.8-0.8c0,0,0.1,0,0.1,0
			c2.2,0.2,5,0.4,6.1,0.4c2.6,0,4.5-0.3,4.5-3.1c0-1-0.6-1.6-2.7-1.6h-7c-0.4,0-0.7-0.3-0.7-0.7c0-0.1,0-0.2,0-0.2l3.8-15.3
			c0.1-0.4,0.5-0.8,0.9-0.8h16.8c0.4,0,0.6,0.3,0.6,0.6C616.7,25.5,616.7,25.6,616.7,25.6L616.7,25.6z"/>
		<path class="st0" d="M641.4,25.6l-2.7,15.4h1.9c0.4,0,0.6,0.3,0.6,0.6c0,0,0,0.1,0,0.1l-0.9,5.2c-0.1,0.4-0.5,0.8-0.9,0.8h-1.9
			l-0.8,4.7c-0.1,0.4-0.5,0.8-0.9,0.8h-7.4c-0.4,0-0.6-0.3-0.6-0.6c0-0.1,0-0.1,0-0.2l0.8-4.7h-10.2c-0.4,0-0.6-0.3-0.6-0.6
			c0-0.1,0-0.1,0-0.2l0.8-5c0.1-0.4,0.3-0.7,0.6-1.1l15.5-16c0.2-0.2,0.3-0.2,0.5-0.2c0.1,0,0.2,0,0.3,0h5.3c0.4,0,0.6,0.3,0.6,0.6
			C641.4,25.5,641.4,25.6,641.4,25.6z M625.3,41.1h4.9l1.1-6.2L625.3,41.1z"/>
	</g>
	<g>
		<path class="st0" d="M528.2,69.3c0.5,0,0.9,0.2,0.8,0.8l-4.8,27.1c-0.1,0.6-0.5,1.1-1.8,1.3c-1.9,0.3-5.2,0.9-9.2,0.9
			c-5.6,0-8.9-3.5-8.9-8.2c0-0.6,0.1-1.3,0.2-1.9l0.5-3c1.3-7.2,5.2-10.2,11.9-10.2c0.9,0,1.9,0.1,2.4,0.2l1.1-6.3
			c0.1-0.5,0.3-0.8,0.9-0.8H528.2z M516.1,83.2c-1.6,0-2.2,1-2.6,3.1l-0.5,3c-0.1,0.6-0.2,1-0.2,1.5c0,1.1,0.5,1.7,1.6,1.7
			c1,0,1.3,0,2.1-0.1l1.6-9C517.6,83.3,517,83.2,516.1,83.2z"/>
		<path class="st0" d="M550,86.9l-0.4,2.3c-0.1,0.5-0.5,0.8-1,0.8h-11.5c0,0.3-0.1,0.6-0.1,0.8c0,1.2,0.8,1.6,2.9,1.6
			c1.6,0,5.8-0.2,7.2-0.3c0.6,0,0.8,0.1,0.7,0.7l-0.7,4c-0.1,0.6-0.3,0.9-0.9,1.1c-2.1,0.8-5.9,1.5-9,1.5c-4.9,0-8.7-2.7-8.7-7.9
			c0-0.7,0.1-1.5,0.2-2.3l0.4-2.3c1.4-7.9,6-10.7,12.5-10.7c6,0,8.5,3.5,8.5,8.1C550.3,85.1,550.2,86,550,86.9z M540.6,82.6
			c-1.6,0-2.3,1-2.7,3.2h4.3c0.1-0.5,0.2-0.9,0.2-1.3C542.4,83.3,541.9,82.6,540.6,82.6z"/>
		<path class="st0" d="M571.2,78l-0.9,5c-0.1,0.5-0.2,1-0.9,0.8c-1.1-0.2-5.2-0.7-6.7-0.7c-0.3,0-0.9,0-0.9,0.4
			c0,0.3,0.1,0.4,0.8,0.8l3,1.6c3.4,1.8,3.8,3.8,3.8,5.8c0,5.5-4.5,7.7-11.2,7.7c-3.3,0-5.5-0.5-6.9-1c-0.5-0.2-0.6-0.4-0.6-0.8
			l0.8-4.8c0.1-0.6,0.3-1,1.1-0.9c2.5,0.4,5.2,0.7,6.5,0.7c0.6,0,1.5,0,1.5-0.9c0-0.2-0.1-0.4-0.7-0.8l-3.4-1.9
			c-2.3-1.3-3.4-3-3.4-5.4c0-6.1,5-7.6,10.2-7.6c2.8,0,5.5,0.6,7.1,1C571.1,77.3,571.3,77.5,571.2,78z"/>
		<path class="st0" d="M589.5,76.8c0.4,0.1,0.7,0.3,0.6,0.7l-0.9,5.2c-0.1,0.4-0.5,0.8-0.9,0.8h0c-1.2,0-2.6-0.2-4.1-0.2
			c-1.6,0-2.2,1-2.6,3.2l-0.5,2.5c-0.1,0.6-0.2,1.1-0.2,1.5c0,1.2,0.5,1.7,1.6,1.7c1.5,0,2.9-0.2,4.2-0.2c0.7,0,0.8,0.3,0.7,0.8
			l-0.9,5.2c-0.1,0.5-0.5,0.6-0.9,0.7c-1.6,0.3-3.3,0.6-5.5,0.6c-5.3,0-7.7-3.4-7.7-7.9c0-0.8,0.1-1.6,0.2-2.5l0.5-2.5
			c1.3-7,4.9-10.4,11.1-10.4C586.5,76.2,588.5,76.5,589.5,76.8z"/>
		<path class="st0" d="M613.9,78.4l-3.5,19.9c-0.1,0.4-0.2,0.8-0.8,0.8h-5.5c-0.7,0-0.8-0.3-0.8-0.8l0.2-1.1
			c-1.8,1.5-3.2,2.2-6.2,2.2c-4.1,0-6.7-2.6-6.7-7c0-1.3,0.1-1.9,0.2-2.6l0.6-3.5c1.4-8.2,6.2-10.2,12.4-10.2c2.9,0,5.9,0.4,8.8,0.9
			C613.5,77.2,614.1,77.5,613.9,78.4z M602.9,83.2c-1.6,0-2.5,0.6-2.9,3.1l-0.7,3.7c-0.1,0.4-0.1,0.8-0.1,1.1c0,1.1,0.5,1.4,1.5,1.4
			c0.8,0,1.7-0.3,2.4-0.6l1.5-8.6C604,83.2,603.4,83.2,602.9,83.2z"/>
		<path class="st0" d="M631.1,76.2c0.6,0,0.9,0.2,0.8,0.8l-1,5.4c-0.1,0.4-0.2,0.8-0.9,0.8h-0.3c-2.3,0-3.5,0.2-4.4,0.6l-2.6,14.5
			c-0.1,0.5-0.2,0.8-0.9,0.8H615c-0.5,0-0.8-0.2-0.7-0.8l3.7-20.9c0.1-0.4,0.3-0.8,0.9-0.8h6c0.5,0,0.8,0.2,0.6,0.8l-0.2,1.1
			c1.5-1.8,3.7-2.3,5.5-2.3H631.1z"/>
		<path class="st0" d="M653.3,77c1.3,0.3,1.4,0.5,1.3,1.2L651,98.9c-1,5.7-4.8,8.1-12,8.1c-3.4,0-6.3-0.8-7.4-1.3
			c-0.5-0.2-0.6-0.5-0.5-1.1l0.6-3.7c0.1-0.5,0.3-0.8,0.9-0.8c1.7,0.2,5.6,0.5,7.6,0.5c1.7,0,2.5-0.3,2.7-1.7l0.2-0.8
			c-0.5,0.1-1.6,0.2-2.4,0.2c-6.1,0-8.9-3.4-8.9-8c0-0.7,0.1-1.4,0.2-2.1l0.3-1.8c1.2-7.1,6-10.2,12.3-10.2
			C648.4,76.2,651.8,76.5,653.3,77z M643.6,83.2c-2.3,0-2.6,1.3-2.9,3.1l-0.3,1.8c-0.1,0.5-0.1,0.9-0.1,1.4c0,1,0.2,1.7,2,1.7
			c0.4,0,0.7,0,1.9-0.1l1.4-7.8C644.8,83.2,644.2,83.2,643.6,83.2z"/>
		<path class="st0" d="M679.1,78.4l-3.5,19.9c-0.1,0.4-0.2,0.8-0.8,0.8h-5.5c-0.7,0-0.8-0.3-0.8-0.8l0.2-1.1
			c-1.8,1.5-3.2,2.2-6.2,2.2c-4.1,0-6.7-2.6-6.7-7c0-1.3,0.1-1.9,0.2-2.6l0.6-3.5c1.4-8.2,6.2-10.2,12.4-10.2c2.9,0,5.9,0.4,8.8,0.9
			C678.7,77.2,679.3,77.5,679.1,78.4z M668.1,83.2c-1.6,0-2.5,0.6-2.9,3.1l-0.7,3.7c-0.1,0.4-0.1,0.8-0.1,1.1c0,1.1,0.5,1.4,1.5,1.4
			c0.8,0,1.7-0.3,2.4-0.6l1.5-8.6C669.2,83.2,668.6,83.2,668.1,83.2z"/>
		<path class="st0" d="M699.7,78l-0.9,5c-0.1,0.5-0.2,1-0.9,0.8c-1.1-0.2-5.2-0.7-6.7-0.7c-0.3,0-0.9,0-0.9,0.4
			c0,0.3,0.1,0.4,0.8,0.8l3,1.6c3.4,1.8,3.8,3.8,3.8,5.8c0,5.5-4.5,7.7-11.2,7.7c-3.3,0-5.5-0.5-6.9-1c-0.5-0.2-0.6-0.4-0.6-0.8
			l0.8-4.8c0.1-0.6,0.3-1,1.1-0.9c2.5,0.4,5.2,0.7,6.5,0.7c0.6,0,1.5,0,1.5-0.9c0-0.2-0.1-0.4-0.7-0.8l-3.4-1.9
			c-2.3-1.3-3.4-3-3.4-5.4c0-6.1,5-7.6,10.2-7.6c2.8,0,5.5,0.6,7.1,1C699.6,77.3,699.8,77.5,699.7,78z"/>
	</g>
	<g>
		<path class="st1" d="M300.6,45.1c-1.5,8.2-7,12.6-16.2,17.5c-6.1,3.2-10.9,5.9-13,9.2h21.9c0.8,0,1.4,0.5,1.4,1.3
			c0,0.1,0,0.2,0,0.2l-2.1,12.1c-0.2,0.8-1.1,1.5-1.9,1.5h-37.1c-0.8,0-1.3-0.5-1.3-1.3c0-0.1,0-0.2,0-0.2l1.5-8.4
			c2.1-11.9,9.9-18,18-23c9.5-5.7,10.3-5.6,10.8-8c0-0.2,0.1-0.5,0.1-0.6c0-1.1-1-1.7-6-1.7c-5,0-10.1,0.8-14.9,0.8h-0.1
			c-0.7,0-1.1-0.5-1.1-1.2c0-0.1,0-0.2,0-0.2V43l1.5-8.8c0.2-0.8,0.9-1.2,1.8-1.5c5.2-1.8,11.8-3.2,18.7-3.2
			c13.5,0,18.5,5.5,18.5,12.6C300.9,43.1,300.8,44.1,300.6,45.1z"/>
		<path class="st1" d="M350.9,54.4l-1.5,8.3c-3,17-12.1,25-26.3,25c-11.8,0-18.2-5.7-18.2-17.4c0-2.3,0.2-4.8,0.7-7.6l1.5-8.3
			c3-17,12.1-25,26.3-25c11.8,0,18.2,5.7,18.2,17.4C351.6,49.2,351.3,51.7,350.9,54.4z M330.6,44.8c-2.3,0-4,1.1-5.5,9.6l-1.5,8.3
			c-0.5,2.4-0.6,4.4-0.6,5.7c0,3.4,1.1,3.9,2.7,3.9c2.3,0,4-1.1,5.5-9.6l1.5-8.3c0.5-2.4,0.6-4.4,0.6-5.7
			C333.4,45.4,332.2,44.8,330.6,44.8z"/>
		<path class="st1" d="M368.7,71.8l4.1-23.7l-9.6,3c-0.5,0.2-0.8,0.2-1,0.2c-0.5,0-0.7-0.3-0.6-0.9l2.3-12.9
			c0.2-0.8,0.5-1.2,1.3-1.5l14.8-5.3c0.6-0.2,1.1-0.4,1.8-0.4h10.7c0.8,0,1.4,0.7,1.2,1.5l-7,40h9.2c0.8,0,1.5,0.7,1.3,1.5L395,85.4
			c-0.2,0.8-1,1.5-1.8,1.5h-36.4c-0.8,0-1.5-0.7-1.4-1.5l2.1-12.1c0.2-0.8,1.1-1.5,1.9-1.5H368.7z"/>
		<path class="st1" d="M454.1,31.8L452.2,43c-0.2,0.8-0.8,1.5-1.8,1.5h-20.8l-1.6,6.2h3.4c14.1,0,18,6.9,18,13.7
			c0,17-10.4,23.3-26.6,23.3c-5.7,0-11.1-1.1-15.3-2.8c-0.6-0.2-1.4-0.6-1.4-1.3c0-0.1,0-0.2,0-0.2l1.6-9.2c0.2-1.1,0.8-1.5,1.7-1.5
			c0.1,0,0.2,0,0.2,0c4.4,0.4,10,0.8,12.2,0.8c5.2,0,8.9-0.6,8.9-6.1c0-2.1-1.3-3.1-5.5-3.1h-14c-0.8,0-1.5-0.5-1.5-1.5
			c0-0.2,0-0.3,0.1-0.5l7.6-30.5c0.2-0.8,1-1.5,1.8-1.5h33.5c0.8,0,1.2,0.5,1.2,1.2C454.1,31.5,454.1,31.6,454.1,31.8L454.1,31.8z"
			/>
	</g>
	<g>
		<path class="st1" d="M241.1,65.7v4c-5.6,4.3-6.5,7.4-6.5,15.3v22.8c0,9.4-3.4,12.3-12.9,12.3h-4.8c-1.2,0-2-0.8-2-1.9v-0.9
			c0-1.1,0.8-1.8,2-1.8h4.8c7,0,8.3-1.2,8.3-7.7V85c0-7.9,1.4-12.9,6.7-17.5c-5.1-4.4-6.7-9.3-6.7-17.2V27.5c0-6.5-1.3-7.7-8.3-7.7
			h-4.8c-1.2,0-2-0.7-2-1.8v-0.9c0-1.1,0.8-1.9,2-1.9h4.8c9.8,0,12.9,2.9,12.9,12.3v22.8C234.6,58.3,235.6,61.4,241.1,65.7"/>
		<path class="st1" d="M487.8,65.7v4c-5.6,4.3-6.5,7.4-6.5,15.3v22.8c0,9.4-3.4,12.3-12.9,12.3h-4.8c-1.2,0-2-0.8-2-1.9v-0.9
			c0-1.1,0.8-1.8,2-1.8h4.8c7,0,8.3-1.2,8.3-7.7V85c0-7.9,1.4-12.9,6.7-17.5c-5.1-4.4-6.7-9.3-6.7-17.2V27.5c0-6.5-1.3-7.7-8.3-7.7
			h-4.8c-1.2,0-2-0.7-2-1.8v-0.9c0-1.1,0.8-1.9,2-1.9h4.8c9.8,0,12.9,2.9,12.9,12.3v22.8C481.3,58.3,482.2,61.4,487.8,65.7"/>
	</g>
</g>
</svg>
