<?xml version="1.0" encoding="utf-8"?>
<!-- Generator: Adobe Illustrator 19.2.1, SVG Export Plug-In . SVG Version: 6.00 Build 0)  -->
<svg version="1.1" id="Capa_1" xmlns="http://www.w3.org/2000/svg" xmlns:xlink="http://www.w3.org/1999/xlink" x="0px" y="0px"
	 viewBox="0 0 500 283.3" style="enable-background:new 0 0 500 283.3;" xml:space="preserve">
<style type="text/css">
	.st0{fill:#3A0048;}
	.st1{fill:#F000A6;}
	.st2{fill:#FFFFFF;}
	.st3{fill:none;stroke:#391754;stroke-width:2.3375;}
</style>
<g>
	<rect x="19.7" y="10.5" class="st0" width="45.2" height="262.3"/>
	<g>
		<path class="st1" d="M34.6,237.5c0.3,0,0.5,0.2,0.4,0.6c-0.1,0.8-0.2,2.1-0.2,3.2c0,1,0.2,2,3.2,2.5l2,0.4
			c0.7,0.1,1.2,0.2,1.6,0.2c1.5,0,1.6-0.7,1.6-1.6c0-0.9-0.1-2.5-0.2-3.2c0-0.4,0.1-0.4,0.4-0.4l3.8,0.7c0.3,0,0.4,0.1,0.5,0.6
			c0.3,0.8,0.5,1.9,0.5,3.3c0,4.4-2.3,6.5-6,6.5c-0.7,0-1.4-0.1-2.2-0.2l-2-0.4c-6.1-1.1-8.2-4-8.2-9c0-1.3,0.2-2.6,0.5-3.2
			c0.1-0.3,0.2-0.5,0.5-0.4L34.6,237.5z"/>
		<path class="st1" d="M35,222.4l12.6,2.2c0.3,0,0.5,0.1,0.5,0.5v3.5c0,0.4-0.2,0.5-0.5,0.5l-0.7-0.1c1,1.1,1.4,2.1,1.4,3.9
			c0,2.6-1.6,4.3-4.4,4.3c-0.8,0-1.2,0-1.6-0.1l-2.2-0.4c-5.2-0.9-6.4-3.9-6.4-7.8c0-1.8,0.3-3.7,0.6-5.6
			C34.2,222.6,34.4,222.3,35,222.4z M38,229.3c0,1,0.4,1.6,2,1.9l2.3,0.4c0.3,0,0.5,0.1,0.7,0.1c0.7,0,0.9-0.3,0.9-0.9
			c0-0.5-0.2-1.1-0.4-1.5l-5.4-1C38,228.7,38,229.1,38,229.3z"/>
		<path class="st1" d="M33.5,211.5c0-0.4,0.1-0.6,0.5-0.5l3.4,0.6c0.3,0,0.5,0.1,0.5,0.6v0.2c0,1.5,0.1,2.2,0.4,2.8l9.2,1.6
			c0.3,0,0.5,0.1,0.5,0.6v4.3c0,0.3-0.1,0.5-0.5,0.5l-13.2-2.3c-0.3,0-0.5-0.2-0.5-0.6v-3.8c0-0.3,0.1-0.5,0.5-0.4l0.7,0.1
			c-1.1-1-1.4-2.3-1.4-3.5V211.5z"/>
		<path class="st1" d="M33.5,200.9c0-0.4,0.1-0.6,0.5-0.5l3.4,0.6c0.3,0,0.5,0.1,0.5,0.6v0.2c0,1.5,0.1,2.2,0.4,2.8l9.2,1.6
			c0.3,0,0.5,0.1,0.5,0.6v4.3c0,0.3-0.1,0.5-0.5,0.5l-13.2-2.3c-0.3,0-0.5-0.2-0.5-0.6v-3.8c0-0.3,0.1-0.5,0.5-0.4l0.7,0.1
			c-1.1-1-1.4-2.3-1.4-3.5V200.9z"/>
		<path class="st1" d="M40.3,187.2l1.5,0.3c0.3,0,0.5,0.3,0.5,0.6v7.3c0.2,0,0.4,0,0.5,0c0.8,0,1-0.5,1-1.9c0-1-0.1-3.7-0.2-4.6
			c0-0.4,0.1-0.5,0.4-0.5l2.5,0.5c0.4,0.1,0.6,0.2,0.7,0.6c0.5,1.3,0.9,3.7,0.9,5.7c0,3.1-1.7,5.5-5,5.5c-0.5,0-0.9,0-1.4-0.1
			l-1.5-0.3c-5-0.9-6.8-3.8-6.8-7.9c0-3.8,2.2-5.4,5.1-5.4C39.2,187,39.8,187.1,40.3,187.2z M37.6,193.2c0,1,0.7,1.4,2,1.7v-2.7
			c-0.3,0-0.6-0.1-0.8-0.1C38,192,37.6,192.3,37.6,193.2z"/>
		<path class="st1" d="M33.5,175.7c0-0.4,0.1-0.6,0.5-0.5l3.4,0.6c0.3,0,0.5,0.1,0.5,0.6v0.2c0,1.5,0.1,2.2,0.4,2.8l9.2,1.6
			c0.3,0,0.5,0.1,0.5,0.6v4.3c0,0.3-0.1,0.5-0.5,0.5L34.3,184c-0.3,0-0.5-0.2-0.5-0.6v-3.8c0-0.3,0.1-0.5,0.5-0.4l0.7,0.1
			c-1.1-1-1.4-2.3-1.4-3.5V175.7z"/>
		<path class="st1" d="M35,161l12.6,2.2c0.3,0,0.5,0.1,0.5,0.5v3.5c0,0.4-0.2,0.5-0.5,0.5l-0.7-0.1c1,1.1,1.4,2.1,1.4,3.9
			c0,2.6-1.6,4.3-4.4,4.3c-0.8,0-1.2,0-1.6-0.1l-2.2-0.4c-5.2-0.9-6.4-3.9-6.4-7.8c0-1.8,0.3-3.7,0.6-5.6
			C34.2,161.2,34.4,160.9,35,161z M38,167.9c0,1,0.4,1.6,2,1.9l2.3,0.4c0.3,0,0.5,0.1,0.7,0.1c0.7,0,0.9-0.3,0.9-0.9
			c0-0.5-0.2-1.1-0.4-1.5l-5.4-1C38,167.3,38,167.6,38,167.9z"/>
		<path class="st1" d="M34.7,147.9l3.1,0.6c0.3,0,0.6,0.1,0.5,0.6c-0.1,0.7-0.4,3.3-0.4,4.2c0,0.2,0,0.6,0.3,0.6
			c0.2,0,0.3,0,0.5-0.5l1-1.9c1.1-2.2,2.4-2.4,3.7-2.4c3.5,0,4.9,2.9,4.9,7.1c0,2.1-0.3,3.5-0.6,4.4c-0.1,0.3-0.3,0.4-0.5,0.4
			l-3-0.5c-0.4-0.1-0.6-0.2-0.6-0.7c0.2-1.6,0.5-3.3,0.5-4.1c0-0.4,0-0.9-0.6-0.9c-0.1,0-0.3,0.1-0.5,0.5l-1.2,2.2
			c-0.8,1.4-1.9,2.1-3.4,2.1c-3.9,0-4.8-3.1-4.8-6.5c0-1.8,0.4-3.5,0.7-4.5C34.3,148,34.4,147.9,34.7,147.9z"/>
		<path class="st1" d="M35,126.9l12.6,2.2c0.3,0,0.5,0.1,0.5,0.5v3.5c0,0.4-0.2,0.5-0.5,0.5l-0.7-0.1c1,1.1,1.4,2.1,1.4,3.9
			c0,2.6-1.6,4.3-4.4,4.3c-0.8,0-1.2,0-1.6-0.1l-2.2-0.4c-5.2-0.9-6.4-3.9-6.4-7.8c0-1.8,0.3-3.7,0.6-5.6
			C34.2,127.1,34.4,126.8,35,126.9z M38,133.8c0,1,0.4,1.6,2,1.9l2.3,0.4c0.3,0,0.5,0.1,0.7,0.1c0.7,0,0.9-0.3,0.9-0.9
			c0-0.5-0.2-1.1-0.4-1.5l-5.4-1C38,133.2,38,133.5,38,133.8z"/>
		<path class="st1" d="M34.7,113.8l3.1,0.6c0.3,0,0.6,0.1,0.5,0.6c-0.1,0.7-0.4,3.3-0.4,4.2c0,0.2,0,0.6,0.3,0.6
			c0.2,0,0.3,0,0.5-0.5l1-1.9c1.1-2.2,2.4-2.4,3.7-2.4c3.5,0,4.9,2.9,4.9,7.1c0,2.1-0.3,3.5-0.6,4.4c-0.1,0.3-0.3,0.4-0.5,0.4
			l-3-0.5c-0.4-0.1-0.6-0.2-0.6-0.7c0.2-1.6,0.5-3.3,0.5-4.1c0-0.4,0-0.9-0.6-0.9c-0.1,0-0.3,0.1-0.5,0.5l-1.2,2.2
			c-0.8,1.4-1.9,2.1-3.4,2.1c-3.9,0-4.8-3.1-4.8-6.5c0-1.8,0.4-3.5,0.7-4.5C34.3,113.9,34.4,113.8,34.7,113.8z"/>
		<path class="st1" d="M40.4,99.4l1.1,0.2c5.1,0.9,6.8,3.7,6.8,7.9c0,3.6-1.9,5.6-5.2,5.6c-0.5,0-1.1,0-1.6-0.1l-1.1-0.2
			c-5-0.9-6.8-3.7-6.8-7.9c0-3.6,1.8-5.6,5.1-5.6C39.2,99.2,39.7,99.3,40.4,99.4z M38,105.6c0,0.8,0.7,1.4,2.4,1.7l1.1,0.2
			c0.5,0.1,0.8,0.1,1.1,0.1c0.9,0,1.2-0.4,1.2-1c0-0.8-0.5-1.4-2.4-1.7l-1.1-0.2c-0.5-0.1-0.8-0.1-1.1-0.1
			C38.3,104.7,38,105,38,105.6z"/>
		<path class="st1" d="M33.9,87.3c0.1-0.3,0.2-0.4,0.5-0.4l3.3,0.6c0.3,0,0.5,0.3,0.5,0.6v0c0,0.8-0.1,1.6-0.1,2.6
			c0,1,0.6,1.4,2.1,1.6l1.6,0.3c0.4,0.1,0.7,0.1,1,0.1c0.7,0,1.1-0.3,1.1-1c0-1-0.1-1.9-0.1-2.6c0-0.4,0.2-0.5,0.5-0.5l3.3,0.6
			c0.3,0,0.4,0.3,0.5,0.6c0.2,1,0.4,2.1,0.4,3.5c0,3.4-2.1,4.9-5,4.9c-0.5,0-1,0-1.6-0.1l-1.6-0.3c-4.4-0.8-6.6-3.1-6.6-7.1
			C33.5,89.2,33.8,87.9,33.9,87.3z"/>
		<path class="st1" d="M29.2,78.9c0-0.3,0.1-0.6,0.5-0.5l2.5,0.4c0.3,0,0.5,0.2,0.5,0.7v4.6c0,0.4-0.2,0.5-0.5,0.5l-2.5-0.4
			c-0.3,0-0.5-0.2-0.5-0.6V78.9z M47.5,87.1l-13.2-2.3c-0.3,0-0.5-0.2-0.5-0.7v-4.3c0-0.5,0.2-0.5,0.5-0.4l13.2,2.3
			c0.3,0,0.5,0.2,0.5,0.6v4.3C48,86.9,47.8,87.1,47.5,87.1z"/>
		<path class="st1" d="M35,63.9l12.6,2.2c0.3,0,0.5,0.1,0.5,0.5V70c0,0.4-0.2,0.5-0.5,0.5l-0.7-0.1c1,1.1,1.4,2.1,1.4,3.9
			c0,2.6-1.6,4.3-4.4,4.3c-0.8,0-1.2,0-1.6-0.1L40,78.1c-5.2-0.9-6.4-3.9-6.4-7.8c0-1.8,0.3-3.7,0.6-5.6
			C34.2,64.2,34.4,63.8,35,63.9z M38,70.9c0,1,0.4,1.6,2,1.9l2.3,0.4c0.3,0,0.5,0.1,0.7,0.1c0.7,0,0.9-0.3,0.9-0.9
			c0-0.5-0.2-1.1-0.4-1.5l-5.4-1C38,70.2,38,70.6,38,70.9z"/>
		<path class="st1" d="M29.2,48.1c0-0.3,0.1-0.6,0.5-0.5l17.1,3c0.4,0.1,0.7,0.3,0.8,1.1c0.2,1.2,0.6,3.3,0.6,5.8
			c0,3.5-2.2,5.6-5.2,5.6c-0.4,0-0.8,0-1.2-0.1L40,62.7c-4.6-0.8-6.4-3.3-6.4-7.5c0-0.6,0.1-1.2,0.1-1.5l-4-0.7
			c-0.3,0-0.5-0.2-0.5-0.6V48.1z M38,55.7c0,1,0.6,1.4,2,1.6l1.9,0.3c0.4,0.1,0.7,0.1,0.9,0.1c0.7,0,1.1-0.3,1.1-1
			c0-0.6,0-0.8-0.1-1.3l-5.7-1C38,54.8,38,55.2,38,55.7z"/>
		<path class="st1" d="M35,33l12.6,2.2c0.3,0,0.5,0.1,0.5,0.5v3.5c0,0.4-0.2,0.5-0.5,0.5l-0.7-0.1c1,1.1,1.4,2.1,1.4,3.9
			c0,2.6-1.6,4.3-4.4,4.3c-0.8,0-1.2,0-1.6-0.1L40,47.2c-5.2-0.9-6.4-3.9-6.4-7.8c0-1.8,0.3-3.7,0.6-5.6C34.2,33.3,34.4,32.9,35,33z
			 M38,40c0,1,0.4,1.6,2,1.9l2.3,0.4c0.3,0,0.5,0.1,0.7,0.1c0.7,0,0.9-0.3,0.9-0.9c0-0.5-0.2-1.1-0.4-1.5l-5.4-1
			C38,39.3,38,39.7,38,40z"/>
		<path class="st1" d="M34.7,20l3.1,0.6c0.3,0,0.6,0.1,0.5,0.6c-0.1,0.7-0.4,3.3-0.4,4.2c0,0.2,0,0.6,0.3,0.6c0.2,0,0.3,0,0.5-0.5
			l1-1.9c1.1-2.1,2.4-2.4,3.7-2.4c3.5,0,4.9,2.9,4.9,7.1c0,2.1-0.3,3.5-0.6,4.4c-0.1,0.3-0.3,0.4-0.5,0.4l-3-0.5
			c-0.4-0.1-0.6-0.2-0.6-0.7c0.2-1.6,0.5-3.3,0.5-4.1c0-0.4,0-0.9-0.6-0.9c-0.1,0-0.3,0.1-0.5,0.5l-1.2,2.1
			c-0.8,1.4-1.9,2.2-3.4,2.2c-3.9,0-4.8-3.1-4.8-6.5c0-1.8,0.4-3.5,0.7-4.5C34.3,20.1,34.4,20,34.7,20z"/>
	</g>
	<rect x="121.3" y="10.5" class="st0" width="358.9" height="56.9"/>
	<rect x="121.3" y="78.6" class="st0" width="358.9" height="56.9"/>
	<rect x="121.3" y="146.6" class="st0" width="358.9" height="56.9"/>
	<rect x="121.3" y="214.6" class="st0" width="358.9" height="56.9"/>
	<g>
		<g>
			<path class="st2" d="M151.4,45h-1.6c-0.1,0-0.3-0.1-0.3-0.3l-0.7-2.8h-3.4l-0.7,2.8c0,0.1-0.1,0.3-0.3,0.3h-1.6
				c-0.1,0-0.3-0.1-0.3-0.3c0,0,0,0,0-0.1l2.4-9.3c0.4-1.4,1.4-1.5,2.1-1.5c0.6,0,1.7,0.1,2.1,1.5l2.4,9.3c0,0,0,0.1,0,0.1
				C151.7,44.9,151.5,45,151.4,45z M147.4,35.9c0-0.2-0.1-0.2-0.2-0.2c-0.1,0-0.2,0.1-0.2,0.2l-1.1,4.4h2.6L147.4,35.9z"/>
			<path class="st2" d="M159.4,45h-1.4c-0.2,0-0.3-0.1-0.3-0.3v-4.8c0-1.3-0.1-1.7-1.3-1.7c-0.5,0-1.1,0.2-1.7,0.5v6
				c0,0.2-0.1,0.3-0.3,0.3h-1.4c-0.2,0-0.3-0.1-0.3-0.3V37c0-0.2,0.1-0.3,0.3-0.3h1.3c0.2,0,0.3,0.1,0.3,0.3v0.3
				c0.9-0.5,1.4-0.7,2.4-0.7c2.1,0,2.6,1.4,2.6,3.3v4.8C159.7,44.9,159.6,45,159.4,45z"/>
			<path class="st2" d="M167.6,45h-1.3c-0.2,0-0.3-0.1-0.3-0.3v-0.2c-0.7,0.4-1.4,0.7-2.1,0.7c-1.2,0-2.6-0.5-2.6-2.5v-0.1
				c0-1.7,1-2.6,3.6-2.6h0.9v-0.7c0-1-0.4-1.2-1.3-1.2c-0.9,0-1.9,0.1-2.4,0.1c0,0-0.1,0-0.1,0c-0.1,0-0.3,0-0.3-0.3v-0.9
				c0-0.2,0.1-0.3,0.3-0.3c0.6-0.1,1.5-0.2,2.5-0.2c2.1,0,3.3,0.9,3.3,2.8v5.3C167.9,44.9,167.7,45,167.6,45z M165.9,41.4H165
				c-1.3,0-1.6,0.4-1.6,1.3v0.1c0,0.7,0.3,0.9,1.1,0.9c0.5,0,1.1-0.2,1.5-0.4V41.4z"/>
			<path class="st2" d="M171.5,45h-1.4c-0.2,0-0.3-0.1-0.3-0.3V34.1c0-0.2,0.1-0.3,0.3-0.3h1.4c0.2,0,0.3,0.1,0.3,0.3v10.7
				C171.8,44.9,171.7,45,171.5,45z"/>
			<path class="st2" d="M175.5,35.6h-1.4c-0.2,0-0.3-0.1-0.3-0.3V34c0-0.2,0.1-0.3,0.3-0.3h1.4c0.2,0,0.3,0.1,0.3,0.3v1.3
				C175.8,35.4,175.7,35.6,175.5,35.6z M175.5,45h-1.4c-0.2,0-0.3-0.1-0.3-0.3V37c0-0.2,0.1-0.3,0.3-0.3h1.4c0.2,0,0.3,0.1,0.3,0.3
				v7.7C175.8,44.9,175.7,45,175.5,45z"/>
			<path class="st2" d="M180.5,45.1c-0.6,0-1.8-0.1-2.6-0.3c-0.2,0-0.3-0.2-0.3-0.3v-0.9c0-0.1,0.1-0.2,0.3-0.2c0,0,0,0,0.1,0
				c0.7,0.1,2,0.2,2.5,0.2c0.9,0,1.1-0.3,1.1-0.7c0-0.3-0.2-0.5-0.7-0.8l-2-1.2c-0.7-0.4-1.2-1.2-1.2-2c0-1.5,0.9-2.2,2.8-2.2
				c1.2,0,1.9,0.1,2.6,0.3c0.2,0,0.3,0.2,0.3,0.3v0.9c0,0.2-0.1,0.3-0.2,0.3c0,0,0,0-0.1,0c-0.4-0.1-1.6-0.2-2.4-0.2
				c-0.7,0-1,0.2-1,0.6c0,0.2,0.2,0.4,0.6,0.6l1.9,1.2c1.2,0.8,1.4,1.5,1.4,2.3C183.4,44.1,182.4,45.1,180.5,45.1z"/>
			<path class="st2" d="M189.4,45c-0.4,0.1-0.7,0.1-1,0.1c-1.7,0-2.4-0.4-2.4-2.4v-4.6l-1.4-0.2c-0.2,0-0.3-0.1-0.3-0.3V37
				c0-0.2,0.1-0.3,0.3-0.3h1.4v-1.2c0-0.2,0.1-0.3,0.3-0.3l1.4-0.2c0,0,0,0,0.1,0c0.1,0,0.2,0.1,0.2,0.2v1.5h1.3
				c0.2,0,0.3,0.1,0.3,0.3v0.9c0,0.2-0.1,0.3-0.3,0.3H188v4.6c0,0.7,0,0.8,0.6,0.8h0.8c0.2,0,0.3,0.1,0.3,0.2v0.9
				C189.7,44.9,189.6,45,189.4,45z"/>
			<path class="st2" d="M196.9,45h-1.3c-0.2,0-0.3-0.1-0.3-0.3v-0.2c-0.7,0.4-1.4,0.7-2.1,0.7c-1.2,0-2.6-0.5-2.6-2.5v-0.1
				c0-1.7,1-2.6,3.6-2.6h0.9v-0.7c0-1-0.4-1.2-1.3-1.2c-0.9,0-1.9,0.1-2.4,0.1c0,0-0.1,0-0.1,0c-0.1,0-0.3,0-0.3-0.3v-0.9
				c0-0.2,0.1-0.3,0.3-0.3c0.6-0.1,1.5-0.2,2.5-0.2c2.1,0,3.3,0.9,3.3,2.8v5.3C197.2,44.9,197.1,45,196.9,45z M195.2,41.4h-0.9
				c-1.3,0-1.6,0.4-1.6,1.3v0.1c0,0.7,0.3,0.9,1.1,0.9c0.5,0,1.1-0.2,1.5-0.4V41.4z"/>
			<path class="st2" d="M206.3,40.9c-0.4,0-1,0-1.3-0.1v3.9c0,0.2-0.1,0.3-0.3,0.3h-1.5c-0.2,0-0.3-0.1-0.3-0.3V34.5
				c0-0.3,0.2-0.4,0.5-0.4c0.8-0.1,1.8-0.2,2.9-0.2c2.3,0,4.3,0.8,4.3,3.4v0.1C210.6,40.1,208.6,40.9,206.3,40.9z M208.6,37.3
				c0-1.2-0.7-1.7-2.2-1.7c-0.3,0-1.1,0-1.3,0.1v3.5c0.2,0,1.1,0,1.3,0c1.6,0,2.2-0.6,2.2-1.8V37.3z"/>
			<path class="st2" d="M216.1,38.2c-0.8,0-1.4,0.2-2,0.5v6c0,0.2-0.1,0.3-0.3,0.3h-1.4c-0.2,0-0.3-0.1-0.3-0.3V37
				c0-0.2,0.1-0.3,0.3-0.3h1.3c0.2,0,0.3,0.1,0.3,0.3v0.3c0.7-0.6,1.5-0.7,2.1-0.7c0.2,0,0.3,0.1,0.3,0.3v1.1
				C216.4,38.1,216.2,38.2,216.1,38.2z"/>
			<path class="st2" d="M220.9,45.1c-2.3,0-3.5-1.6-3.5-3.7v-1.2c0-2.1,1.2-3.7,3.5-3.7c2.3,0,3.5,1.6,3.5,3.7v1.2
				C224.5,43.6,223.2,45.1,220.9,45.1z M222.5,40.3c0-1.2-0.5-2-1.6-2s-1.6,0.8-1.6,2v1.2c0,1.2,0.5,2,1.6,2s1.6-0.8,1.6-2V40.3z"/>
			<path class="st2" d="M233.2,38l-0.5,0.2c0.2,0.3,0.4,0.7,0.4,1.2v0.1c0,1.9-1.3,2.7-3.5,2.7c-0.8,0-1.3-0.1-1.6-0.3
				c-0.2,0.1-0.3,0.3-0.3,0.4c0,0.3,0.2,0.4,0.5,0.5l1.7,0.4c2,0.5,3.3,0.8,3.3,2.4v0.1c0,1.5-1.1,2.3-3.6,2.3
				c-2.4,0-3.7-0.9-3.7-2.5v-0.1c0-0.6,0.3-1.2,0.8-1.6c-0.4-0.3-0.7-0.8-0.7-1.4v0c0-0.5,0.2-0.9,0.6-1.2c-0.4-0.5-0.6-1-0.6-1.7
				v-0.1c0-1.5,1-2.7,3.5-2.7h3.5c0.2,0,0.4,0.2,0.4,0.4v0.6C233.4,37.9,233.3,38,233.2,38z M231.3,45.6c0-0.3-0.2-0.5-1.7-0.9
				l-1.3-0.3c-0.2,0.3-0.4,0.5-0.4,1v0.1c0,0.6,0.4,1,1.8,1c1.4,0,1.7-0.3,1.7-0.8V45.6z M231.1,39.4c0-0.7-0.3-1.3-1.6-1.3
				c-1.3,0-1.6,0.6-1.6,1.3v0.1c0,0.5,0.2,1.2,1.6,1.2c1.2,0,1.6-0.4,1.6-1.2V39.4z"/>
			<path class="st2" d="M238.8,38.2c-0.8,0-1.4,0.2-2,0.5v6c0,0.2-0.1,0.3-0.3,0.3h-1.4c-0.2,0-0.3-0.1-0.3-0.3V37
				c0-0.2,0.1-0.3,0.3-0.3h1.3c0.2,0,0.3,0.1,0.3,0.3v0.3c0.7-0.6,1.5-0.7,2.1-0.7c0.2,0,0.3,0.1,0.3,0.3v1.1
				C239.1,38.1,238.9,38.2,238.8,38.2z"/>
			<path class="st2" d="M246.2,45H245c-0.2,0-0.3-0.1-0.3-0.3v-0.2c-0.7,0.4-1.4,0.7-2.1,0.7c-1.2,0-2.6-0.5-2.6-2.5v-0.1
				c0-1.7,1-2.6,3.6-2.6h0.9v-0.7c0-1-0.4-1.2-1.3-1.2c-0.9,0-1.9,0.1-2.4,0.1c0,0-0.1,0-0.1,0c-0.1,0-0.3,0-0.3-0.3v-0.9
				c0-0.2,0.1-0.3,0.3-0.3c0.6-0.1,1.5-0.2,2.5-0.2c2.1,0,3.3,0.9,3.3,2.8v5.3C246.5,44.9,246.4,45,246.2,45z M244.6,41.4h-0.9
				c-1.3,0-1.6,0.4-1.6,1.3v0.1c0,0.7,0.3,0.9,1.1,0.9c0.5,0,1.1-0.2,1.5-0.4V41.4z"/>
			<path class="st2" d="M258.8,45h-1.4c-0.2,0-0.3-0.1-0.3-0.3v-5c0-1.1-0.2-1.4-1.1-1.4c-0.3,0-0.8,0.1-1.4,0.4
				c0,0.3,0.1,0.7,0.1,1.1v5c0,0.2-0.1,0.3-0.3,0.3h-1.4c-0.2,0-0.3-0.1-0.3-0.3v-5c0-1.1-0.2-1.4-1-1.4c-0.3,0-0.8,0.2-1.4,0.5v6
				c0,0.2-0.1,0.3-0.3,0.3h-1.4c-0.2,0-0.3-0.1-0.3-0.3V37c0-0.2,0.1-0.3,0.3-0.3h1.3c0.2,0,0.3,0.1,0.3,0.3v0.3
				c0.6-0.4,1.2-0.7,2.1-0.7c0.8,0,1.4,0.3,1.7,0.7c0.8-0.4,1.4-0.7,2.4-0.7c2,0,2.5,1.4,2.5,3.1v5C259.1,44.9,258.9,45,258.8,45z"
				/>
			<path class="st2" d="M266.9,45h-1.3c-0.2,0-0.3-0.1-0.3-0.3v-0.2c-0.7,0.4-1.4,0.7-2.1,0.7c-1.2,0-2.6-0.5-2.6-2.5v-0.1
				c0-1.7,1-2.6,3.6-2.6h0.9v-0.7c0-1-0.4-1.2-1.3-1.2c-0.9,0-1.9,0.1-2.4,0.1c0,0-0.1,0-0.1,0c-0.1,0-0.3,0-0.3-0.3v-0.9
				c0-0.2,0.1-0.3,0.3-0.3c0.6-0.1,1.5-0.2,2.5-0.2c2.1,0,3.3,0.9,3.3,2.8v5.3C267.2,44.9,267.1,45,266.9,45z M265.2,41.4h-0.9
				c-1.3,0-1.6,0.4-1.6,1.3v0.1c0,0.7,0.3,0.9,1.1,0.9c0.5,0,1.1-0.2,1.5-0.4V41.4z"/>
			<path class="st2" d="M275.3,44.8c-0.9,0.2-2,0.4-3,0.4c-2.4,0-3.5-1.4-3.5-3.7v-1.1c0-2.3,1.2-3.7,3.5-3.7c0.4,0,0.9,0,1.4,0.1
				v-2.6c0-0.2,0.1-0.3,0.3-0.3h1.4c0.2,0,0.3,0.1,0.3,0.3v10.3C275.7,44.6,275.7,44.7,275.3,44.8z M273.8,38.3
				c-0.4-0.1-1.1-0.1-1.4-0.1c-1.3,0-1.6,0.9-1.6,2.1v1.1c0,1.2,0.3,2.1,1.6,2.1c0.5,0,1.1,0,1.4-0.1V38.3z"/>
			<path class="st2" d="M280.9,45.1c-2.3,0-3.5-1.6-3.5-3.7v-1.2c0-2.1,1.2-3.7,3.5-3.7c2.3,0,3.5,1.6,3.5,3.7v1.2
				C284.5,43.6,283.3,45.1,280.9,45.1z M282.5,40.3c0-1.2-0.5-2-1.6-2c-1,0-1.6,0.8-1.6,2v1.2c0,1.2,0.5,2,1.6,2c1,0,1.6-0.8,1.6-2
				V40.3z"/>
			<path class="st2" d="M290.1,38.2c-0.8,0-1.4,0.2-2,0.5v6c0,0.2-0.1,0.3-0.3,0.3h-1.4c-0.2,0-0.3-0.1-0.3-0.3V37
				c0-0.2,0.1-0.3,0.3-0.3h1.3c0.2,0,0.3,0.1,0.3,0.3v0.3c0.7-0.6,1.5-0.7,2.1-0.7c0.2,0,0.3,0.1,0.3,0.3v1.1
				C290.4,38.1,290.3,38.2,290.1,38.2z"/>
		</g>
	</g>
	<g>
		<g>
			<path class="st2" d="M145.2,113.1h-1.5c-0.2,0-0.3-0.1-0.3-0.3v-10.4c0-0.2,0.1-0.3,0.3-0.3h1.5c0.2,0,0.3,0.1,0.3,0.3v10.4
				C145.5,112.9,145.4,113.1,145.2,113.1z"/>
			<path class="st2" d="M154.2,113.1h-1.4c-0.2,0-0.3-0.1-0.3-0.3v-4.8c0-1.3-0.1-1.7-1.3-1.7c-0.5,0-1.1,0.2-1.7,0.5v6
				c0,0.2-0.1,0.3-0.3,0.3h-1.4c-0.2,0-0.3-0.1-0.3-0.3V105c0-0.2,0.1-0.3,0.3-0.3h1.3c0.2,0,0.3,0.1,0.3,0.3v0.3
				c0.9-0.5,1.4-0.7,2.4-0.7c2.1,0,2.6,1.4,2.6,3.3v4.8C154.5,112.9,154.3,113.1,154.2,113.1z"/>
			<path class="st2" d="M163.4,106.1l-0.5,0.2c0.2,0.3,0.4,0.7,0.4,1.2v0.1c0,1.9-1.3,2.7-3.5,2.7c-0.8,0-1.3-0.1-1.6-0.3
				c-0.2,0.1-0.3,0.3-0.3,0.4c0,0.3,0.2,0.4,0.5,0.5l1.7,0.4c2,0.5,3.3,0.8,3.3,2.4v0.1c0,1.5-1.1,2.3-3.6,2.3
				c-2.4,0-3.7-0.9-3.7-2.5v-0.1c0-0.6,0.3-1.2,0.8-1.6c-0.4-0.3-0.7-0.8-0.7-1.4v0c0-0.5,0.2-0.9,0.6-1.2c-0.4-0.5-0.6-1-0.6-1.7
				v-0.1c0-1.5,1-2.7,3.5-2.7h3.5c0.2,0,0.4,0.2,0.4,0.4v0.6C163.6,106,163.6,106,163.4,106.1z M161.5,113.7c0-0.3-0.2-0.5-1.7-0.9
				l-1.3-0.3c-0.2,0.3-0.4,0.5-0.4,1v0.1c0,0.6,0.4,1,1.8,1c1.4,0,1.7-0.3,1.7-0.8V113.7z M161.4,107.5c0-0.7-0.3-1.3-1.6-1.3
				c-1.3,0-1.6,0.6-1.6,1.3v0.1c0,0.5,0.2,1.2,1.6,1.2c1.2,0,1.6-0.4,1.6-1.2V107.5z"/>
			<path class="st2" d="M171.6,109.6h-4.8v0c0,0.9,0.4,1.9,1.8,1.9c1.1,0,2.1-0.1,2.7-0.1c0,0,0,0,0,0c0.1,0,0.3,0.1,0.3,0.2v1
				c0,0.2,0,0.3-0.3,0.4c-1,0.2-1.5,0.3-2.9,0.3c-1.5,0-3.6-0.8-3.6-3.7v-1.1c0-2.3,1.3-3.8,3.6-3.8c2.3,0,3.5,1.6,3.5,3.8v0.8
				C171.8,109.5,171.8,109.6,171.6,109.6z M169.9,108.1c0-1.2-0.6-1.8-1.6-1.8c-0.9,0-1.6,0.7-1.6,1.8v0.1L169.9,108.1L169.9,108.1z
				"/>
			<path class="st2" d="M180.1,113.1h-1.4c-0.2,0-0.3-0.1-0.3-0.3v-4.8c0-1.3-0.1-1.7-1.3-1.7c-0.5,0-1.1,0.2-1.7,0.5v6
				c0,0.2-0.1,0.3-0.3,0.3h-1.4c-0.2,0-0.3-0.1-0.3-0.3V105c0-0.2,0.1-0.3,0.3-0.3h1.3c0.2,0,0.3,0.1,0.3,0.3v0.3
				c0.9-0.5,1.4-0.7,2.4-0.7c2.1,0,2.6,1.4,2.6,3.3v4.8C180.4,112.9,180.2,113.1,180.1,113.1z"/>
			<path class="st2" d="M184,103.6h-1.4c-0.2,0-0.3-0.1-0.3-0.3V102c0-0.2,0.1-0.3,0.3-0.3h1.4c0.2,0,0.3,0.1,0.3,0.3v1.3
				C184.3,103.5,184.2,103.6,184,103.6z M184,113.1h-1.4c-0.2,0-0.3-0.1-0.3-0.3V105c0-0.2,0.1-0.3,0.3-0.3h1.4
				c0.2,0,0.3,0.1,0.3,0.3v7.7C184.3,112.9,184.2,113.1,184,113.1z"/>
			<path class="st2" d="M192.8,109.6H188v0c0,0.9,0.4,1.9,1.8,1.9c1.1,0,2.1-0.1,2.7-0.1c0,0,0,0,0,0c0.1,0,0.3,0.1,0.3,0.2v1
				c0,0.2,0,0.3-0.3,0.4c-1,0.2-1.5,0.3-2.9,0.3c-1.5,0-3.6-0.8-3.6-3.7v-1.1c0-2.3,1.3-3.8,3.6-3.8c2.3,0,3.5,1.6,3.5,3.8v0.8
				C193.1,109.5,193,109.6,192.8,109.6z M191.1,108.1c0-1.2-0.6-1.8-1.6-1.8c-0.9,0-1.6,0.7-1.6,1.8v0.1L191.1,108.1L191.1,108.1z"
				/>
			<path class="st2" d="M198.7,106.3c-0.8,0-1.4,0.2-2,0.5v6c0,0.2-0.1,0.3-0.3,0.3H195c-0.2,0-0.3-0.1-0.3-0.3V105
				c0-0.2,0.1-0.3,0.3-0.3h1.3c0.2,0,0.3,0.1,0.3,0.3v0.3c0.7-0.6,1.5-0.7,2.1-0.7c0.2,0,0.3,0.1,0.3,0.3v1.1
				C199,106.1,198.9,106.3,198.7,106.3z"/>
			<path class="st2" d="M203.8,101.8l-1.7,1.8c-0.1,0.1-0.2,0.2-0.4,0.2h-1.3c-0.1,0-0.1,0-0.1-0.1c0,0,0-0.1,0.1-0.1l1.4-1.8
				c0.1-0.2,0.2-0.2,0.4-0.2h1.6c0.1,0,0.2,0,0.2,0.1C203.8,101.7,203.8,101.7,203.8,101.8z M202.3,112.8c0,0.2-0.1,0.3-0.3,0.3
				h-1.4c-0.2,0-0.3-0.1-0.3-0.3V105c0-0.2,0.1-0.3,0.3-0.3h1.4c0.2,0,0.3,0.1,0.3,0.3L202.3,112.8L202.3,112.8z"/>
			<path class="st2" d="M210.2,113.1h-1.3c-0.2,0-0.3-0.1-0.3-0.3v-0.2c-0.7,0.4-1.4,0.7-2.1,0.7c-1.2,0-2.6-0.5-2.6-2.5v-0.1
				c0-1.7,1-2.6,3.6-2.6h0.9v-0.7c0-1-0.4-1.2-1.3-1.2c-0.9,0-1.9,0.1-2.4,0.1c0,0-0.1,0-0.1,0c-0.1,0-0.3,0-0.3-0.3v-0.9
				c0-0.2,0.1-0.3,0.3-0.3c0.6-0.1,1.5-0.2,2.5-0.2c2.1,0,3.3,0.9,3.3,2.8v5.3C210.5,112.9,210.3,113.1,210.2,113.1z M208.5,109.4
				h-0.9c-1.3,0-1.6,0.4-1.6,1.3v0.1c0,0.7,0.3,0.9,1.1,0.9c0.5,0,1.1-0.2,1.5-0.4V109.4z"/>
			<path class="st2" d="M222.6,109.6h-4.8v0c0,0.9,0.4,1.9,1.8,1.9c1.1,0,2.1-0.1,2.7-0.1c0,0,0,0,0,0c0.1,0,0.3,0.1,0.3,0.2v1
				c0,0.2,0,0.3-0.3,0.4c-1,0.2-1.5,0.3-2.9,0.3c-1.5,0-3.6-0.8-3.6-3.7v-1.1c0-2.3,1.3-3.8,3.6-3.8c2.3,0,3.5,1.6,3.5,3.8v0.8
				C222.9,109.5,222.8,109.6,222.6,109.6z M220.9,108.1c0-1.2-0.6-1.8-1.6-1.8c-0.9,0-1.6,0.7-1.6,1.8v0.1L220.9,108.1L220.9,108.1z
				"/>
			<path class="st2" d="M231.1,113.1h-1.4c-0.2,0-0.3-0.1-0.3-0.3v-4.8c0-1.3-0.1-1.7-1.3-1.7c-0.5,0-1.1,0.2-1.7,0.5v6
				c0,0.2-0.1,0.3-0.3,0.3h-1.4c-0.2,0-0.3-0.1-0.3-0.3V105c0-0.2,0.1-0.3,0.3-0.3h1.3c0.2,0,0.3,0.1,0.3,0.3v0.3
				c0.9-0.5,1.4-0.7,2.4-0.7c2.1,0,2.6,1.4,2.6,3.3v4.8C231.4,112.9,231.3,113.1,231.1,113.1z"/>
			<path class="st2" d="M239,113.1h-1.5c-0.2,0-0.3-0.1-0.3-0.3v-10.4c0-0.2,0.1-0.3,0.3-0.3h1.5c0.2,0,0.3,0.1,0.3,0.3v10.4
				C239.3,112.9,239.1,113.1,239,113.1z"/>
			<path class="st2" d="M247.9,113.1h-1.4c-0.2,0-0.3-0.1-0.3-0.3v-4.8c0-1.3-0.1-1.7-1.3-1.7c-0.5,0-1.1,0.2-1.7,0.5v6
				c0,0.2-0.1,0.3-0.3,0.3h-1.4c-0.2,0-0.3-0.1-0.3-0.3V105c0-0.2,0.1-0.3,0.3-0.3h1.3c0.2,0,0.3,0.1,0.3,0.3v0.3
				c0.9-0.5,1.4-0.7,2.4-0.7c2.1,0,2.6,1.4,2.6,3.3v4.8C248.2,112.9,248,113.1,247.9,113.1z"/>
			<path class="st2" d="M254.5,103.1h-0.7c-0.7,0-0.9,0.2-0.9,0.9v0.7h1.4c0.2,0,0.3,0.1,0.3,0.3v0.9c0,0.2-0.1,0.3-0.3,0.3h-1.4
				v6.6c0,0.2-0.1,0.3-0.3,0.3h-1.3c-0.2,0-0.3-0.1-0.3-0.3v-6.6l-1.3-0.2c-0.2,0-0.3-0.1-0.3-0.3V105c0-0.2,0.1-0.3,0.3-0.3h1.3
				V104c0-1.9,1-2.4,2.6-2.4c0.4,0,0.6,0.1,0.9,0.1c0.1,0,0.3,0.1,0.3,0.2v0.9C254.7,103,254.6,103.1,254.5,103.1z"/>
			<path class="st2" d="M259.2,113.2c-2.3,0-3.5-1.6-3.5-3.7v-1.2c0-2.1,1.2-3.7,3.5-3.7c2.3,0,3.5,1.6,3.5,3.7v1.2
				C262.8,111.6,261.5,113.2,259.2,113.2z M260.8,108.3c0-1.2-0.5-2-1.6-2c-1,0-1.6,0.8-1.6,2v1.2c0,1.2,0.5,2,1.6,2
				c1,0,1.6-0.8,1.6-2V108.3z"/>
			<path class="st2" d="M268.4,106.3c-0.8,0-1.4,0.2-2,0.5v6c0,0.2-0.1,0.3-0.3,0.3h-1.4c-0.2,0-0.3-0.1-0.3-0.3V105
				c0-0.2,0.1-0.3,0.3-0.3h1.3c0.2,0,0.3,0.1,0.3,0.3v0.3c0.7-0.6,1.5-0.7,2.1-0.7c0.2,0,0.3,0.1,0.3,0.3v1.1
				C268.7,106.1,268.6,106.3,268.4,106.3z"/>
			<path class="st2" d="M280.3,113.1H279c-0.2,0-0.3-0.1-0.3-0.3v-5c0-1.1-0.2-1.4-1.1-1.4c-0.3,0-0.8,0.1-1.4,0.4
				c0,0.3,0.1,0.7,0.1,1.1v5c0,0.2-0.1,0.3-0.3,0.3h-1.4c-0.2,0-0.3-0.1-0.3-0.3v-5c0-1.1-0.2-1.4-1-1.4c-0.3,0-0.8,0.2-1.4,0.5v6
				c0,0.2-0.1,0.3-0.3,0.3h-1.4c-0.2,0-0.3-0.1-0.3-0.3V105c0-0.2,0.1-0.3,0.3-0.3h1.3c0.2,0,0.3,0.1,0.3,0.3v0.3
				c0.6-0.4,1.2-0.7,2.1-0.7c0.8,0,1.4,0.3,1.7,0.7c0.8-0.4,1.4-0.7,2.4-0.7c2,0,2.5,1.4,2.5,3.1v5
				C280.6,112.9,280.5,113.1,280.3,113.1z"/>
			<path class="st2" d="M288.4,113.1h-1.3c-0.2,0-0.3-0.1-0.3-0.3v-0.2c-0.7,0.4-1.4,0.7-2.1,0.7c-1.2,0-2.6-0.5-2.6-2.5v-0.1
				c0-1.7,1-2.6,3.6-2.6h0.9v-0.7c0-1-0.4-1.2-1.3-1.2c-0.9,0-1.9,0.1-2.4,0.1c0,0-0.1,0-0.1,0c-0.1,0-0.3,0-0.3-0.3v-0.9
				c0-0.2,0.1-0.3,0.3-0.3c0.6-0.1,1.5-0.2,2.5-0.2c2.1,0,3.3,0.9,3.3,2.8v5.3C288.7,112.9,288.6,113.1,288.4,113.1z M286.8,109.4
				h-0.9c-1.3,0-1.6,0.4-1.6,1.3v0.1c0,0.7,0.3,0.9,1.1,0.9c0.5,0,1.1-0.2,1.5-0.4V109.4z M288,101.8l-1.7,1.8
				c-0.1,0.1-0.2,0.2-0.4,0.2h-1.3c-0.1,0-0.1,0-0.1-0.1c0,0,0-0.1,0.1-0.1l1.4-1.8c0.1-0.2,0.2-0.2,0.4-0.2h1.6
				c0.1,0,0.2,0,0.2,0.1C288.1,101.7,288.1,101.7,288,101.8z"/>
			<path class="st2" d="M295,113.1c-0.4,0.1-0.7,0.1-1,0.1c-1.7,0-2.4-0.4-2.4-2.4v-4.6l-1.4-0.2c-0.2,0-0.3-0.1-0.3-0.3V105
				c0-0.2,0.1-0.3,0.3-0.3h1.4v-1.2c0-0.2,0.1-0.3,0.3-0.3l1.4-0.2c0,0,0,0,0.1,0c0.1,0,0.2,0.1,0.2,0.2v1.5h1.3
				c0.2,0,0.3,0.1,0.3,0.3v0.9c0,0.2-0.1,0.3-0.3,0.3h-1.3v4.6c0,0.7,0,0.8,0.6,0.8h0.8c0.2,0,0.3,0.1,0.3,0.2v0.9
				C295.3,113,295.2,113.1,295,113.1z"/>
			<path class="st2" d="M298.4,103.6H297c-0.2,0-0.3-0.1-0.3-0.3V102c0-0.2,0.1-0.3,0.3-0.3h1.4c0.2,0,0.3,0.1,0.3,0.3v1.3
				C298.7,103.5,298.6,103.6,298.4,103.6z M298.4,113.1H297c-0.2,0-0.3-0.1-0.3-0.3V105c0-0.2,0.1-0.3,0.3-0.3h1.4
				c0.2,0,0.3,0.1,0.3,0.3v7.7C298.6,112.9,298.5,113.1,298.4,113.1z"/>
			<path class="st2" d="M305.6,113c-0.3,0.1-1,0.2-1.9,0.2c-1.9,0-3.4-1.2-3.4-3.6v-1.4c0-2.4,1.5-3.6,3.4-3.6
				c0.9,0,1.6,0.1,1.9,0.2c0.3,0.1,0.3,0.1,0.3,0.4v1c0,0.1-0.1,0.2-0.3,0.2c0,0,0,0,0,0c-0.6-0.1-0.9-0.1-1.9-0.1
				c-0.7,0-1.4,0.4-1.4,1.9v1.4c0,1.5,0.7,1.9,1.4,1.9c1,0,1.3,0,1.9-0.1c0,0,0,0,0,0c0.1,0,0.3,0.1,0.3,0.2v1
				C305.9,112.9,305.9,112.9,305.6,113z"/>
			<path class="st2" d="M313.4,113.1h-1.3c-0.2,0-0.3-0.1-0.3-0.3v-0.2c-0.7,0.4-1.4,0.7-2.1,0.7c-1.2,0-2.6-0.5-2.6-2.5v-0.1
				c0-1.7,1-2.6,3.6-2.6h0.9v-0.7c0-1-0.4-1.2-1.3-1.2c-0.9,0-1.9,0.1-2.4,0.1c0,0-0.1,0-0.1,0c-0.1,0-0.3,0-0.3-0.3v-0.9
				c0-0.2,0.1-0.3,0.3-0.3c0.6-0.1,1.5-0.2,2.5-0.2c2.1,0,3.3,0.9,3.3,2.8v5.3C313.7,112.9,313.6,113.1,313.4,113.1z M311.8,109.4
				h-0.9c-1.3,0-1.6,0.4-1.6,1.3v0.1c0,0.7,0.3,0.9,1.1,0.9c0.5,0,1.1-0.2,1.5-0.4V109.4z"/>
		</g>
	</g>
	<g>
		<g>
			<path class="st2" d="M150.3,161.6h-2.6v9c0,0.2-0.1,0.3-0.3,0.3h-1.5c-0.2,0-0.3-0.1-0.3-0.3v-9H143c-0.2,0-0.3-0.1-0.3-0.3v-1.2
				c0-0.2,0.1-0.3,0.3-0.3h7.2c0.2,0,0.3,0.1,0.3,0.3v1.2C150.6,161.5,150.4,161.6,150.3,161.6z"/>
			<path class="st2" d="M158.4,167.4h-4.8v0c0,0.9,0.4,1.9,1.8,1.9c1.1,0,2.1-0.1,2.7-0.1c0,0,0,0,0,0c0.1,0,0.3,0.1,0.3,0.2v1
				c0,0.2,0,0.3-0.3,0.4c-1,0.2-1.5,0.3-2.9,0.3c-1.5,0-3.6-0.8-3.6-3.7v-1.1c0-2.3,1.3-3.8,3.6-3.8c2.3,0,3.5,1.6,3.5,3.8v0.8
				C158.7,167.3,158.6,167.4,158.4,167.4z M156.8,165.9c0-1.2-0.6-1.8-1.6-1.8c-0.9,0-1.6,0.7-1.6,1.8v0.1L156.8,165.9L156.8,165.9z
				"/>
			<path class="st2" d="M162.2,170.9h-1.4c-0.2,0-0.3-0.1-0.3-0.3v-10.7c0-0.2,0.1-0.3,0.3-0.3h1.4c0.2,0,0.3,0.1,0.3,0.3v10.7
				C162.4,170.7,162.3,170.9,162.2,170.9z"/>
			<path class="st2" d="M171,167.4h-4.8v0c0,0.9,0.4,1.9,1.8,1.9c1.1,0,2.1-0.1,2.7-0.1c0,0,0,0,0,0c0.1,0,0.3,0.1,0.3,0.2v1
				c0,0.2,0,0.3-0.3,0.4c-1,0.2-1.5,0.3-2.9,0.3c-1.5,0-3.6-0.8-3.6-3.7v-1.1c0-2.3,1.3-3.8,3.6-3.8c2.3,0,3.5,1.6,3.5,3.8v0.8
				C171.3,167.3,171.2,167.4,171,167.4z M169.3,165.9c0-1.2-0.6-1.8-1.6-1.8c-0.9,0-1.6,0.7-1.6,1.8v0.1L169.3,165.9L169.3,165.9z"
				/>
			<path class="st2" d="M177.9,170.8c-0.3,0.1-1,0.2-1.9,0.2c-1.9,0-3.4-1.2-3.4-3.6V166c0-2.4,1.5-3.6,3.4-3.6
				c0.9,0,1.6,0.1,1.9,0.2c0.3,0.1,0.3,0.1,0.3,0.4v1c0,0.1-0.1,0.2-0.3,0.2c0,0,0,0,0,0c-0.6-0.1-0.9-0.1-1.9-0.1
				c-0.7,0-1.4,0.4-1.4,1.9v1.4c0,1.5,0.7,1.9,1.4,1.9c1,0,1.3,0,1.9-0.1c0,0,0,0,0,0c0.1,0,0.3,0.1,0.3,0.2v1
				C178.2,170.7,178.2,170.7,177.9,170.8z"/>
			<path class="st2" d="M183.1,171c-2.3,0-3.5-1.6-3.5-3.7v-1.2c0-2.1,1.2-3.7,3.5-3.7c2.3,0,3.5,1.6,3.5,3.7v1.2
				C186.7,169.4,185.5,171,183.1,171z M184.7,166.1c0-1.2-0.5-2-1.6-2c-1,0-1.6,0.8-1.6,2v1.2c0,1.2,0.5,2,1.6,2c1,0,1.6-0.8,1.6-2
				V166.1z"/>
			<path class="st2" d="M198.7,170.9h-1.4c-0.2,0-0.3-0.1-0.3-0.3v-5c0-1.1-0.2-1.4-1.1-1.4c-0.3,0-0.8,0.1-1.4,0.4
				c0,0.3,0.1,0.7,0.1,1.1v5c0,0.2-0.1,0.3-0.3,0.3H193c-0.2,0-0.3-0.1-0.3-0.3v-5c0-1.1-0.2-1.4-1-1.4c-0.3,0-0.8,0.2-1.4,0.5v6
				c0,0.2-0.1,0.3-0.3,0.3h-1.4c-0.2,0-0.3-0.1-0.3-0.3v-7.7c0-0.2,0.1-0.3,0.3-0.3h1.3c0.2,0,0.3,0.1,0.3,0.3v0.3
				c0.6-0.4,1.2-0.7,2.1-0.7c0.8,0,1.4,0.3,1.7,0.7c0.8-0.4,1.4-0.7,2.4-0.7c2,0,2.5,1.4,2.5,3.1v5
				C199,170.7,198.9,170.9,198.7,170.9z"/>
			<path class="st2" d="M207.5,170.9h-1.4c-0.2,0-0.3-0.1-0.3-0.3v-0.3c-0.8,0.5-1.4,0.7-2.3,0.7c-0.7,0-1.4-0.2-1.8-0.6
				c-0.5-0.5-0.7-1.5-0.7-2.7v-4.8c0-0.2,0.1-0.3,0.3-0.3h1.4c0.2,0,0.3,0.1,0.3,0.3v4.8c0,0.7,0.1,1.2,0.3,1.4
				c0.2,0.2,0.5,0.3,0.9,0.3c0.5,0,1.3-0.4,1.7-0.6v-5.9c0-0.2,0.1-0.3,0.3-0.3h1.4c0.2,0,0.3,0.1,0.3,0.3v7.7
				C207.7,170.7,207.6,170.9,207.5,170.9z"/>
			<path class="st2" d="M216.2,170.9h-1.4c-0.2,0-0.3-0.1-0.3-0.3v-4.8c0-1.3-0.1-1.7-1.3-1.7c-0.5,0-1.1,0.2-1.7,0.5v6
				c0,0.2-0.1,0.3-0.3,0.3H210c-0.2,0-0.3-0.1-0.3-0.3v-7.7c0-0.2,0.1-0.3,0.3-0.3h1.3c0.2,0,0.3,0.1,0.3,0.3v0.3
				c0.9-0.5,1.4-0.7,2.4-0.7c2.1,0,2.6,1.4,2.6,3.3v4.8C216.5,170.7,216.4,170.9,216.2,170.9z"/>
			<path class="st2" d="M220.2,161.4h-1.4c-0.2,0-0.3-0.1-0.3-0.3v-1.3c0-0.2,0.1-0.3,0.3-0.3h1.4c0.2,0,0.3,0.1,0.3,0.3v1.3
				C220.5,161.3,220.3,161.4,220.2,161.4z M220.1,170.9h-1.4c-0.2,0-0.3-0.1-0.3-0.3v-7.7c0-0.2,0.1-0.3,0.3-0.3h1.4
				c0.2,0,0.3,0.1,0.3,0.3v7.7C220.4,170.7,220.3,170.9,220.1,170.9z"/>
			<path class="st2" d="M227.4,170.8c-0.3,0.1-1,0.2-1.9,0.2c-1.9,0-3.4-1.2-3.4-3.6V166c0-2.4,1.5-3.6,3.4-3.6
				c0.9,0,1.6,0.1,1.9,0.2c0.3,0.1,0.3,0.1,0.3,0.4v1c0,0.1-0.1,0.2-0.3,0.2c0,0,0,0,0,0c-0.6-0.1-0.9-0.1-1.9-0.1
				c-0.7,0-1.4,0.4-1.4,1.9v1.4c0,1.5,0.7,1.9,1.4,1.9c1,0,1.3,0,1.9-0.1c0,0,0,0,0,0c0.1,0,0.3,0.1,0.3,0.2v1
				C227.7,170.7,227.6,170.7,227.4,170.8z"/>
			<path class="st2" d="M235.2,170.9H234c-0.2,0-0.3-0.1-0.3-0.3v-0.2c-0.7,0.4-1.4,0.7-2.1,0.7c-1.2,0-2.6-0.5-2.6-2.5v-0.1
				c0-1.7,1-2.6,3.6-2.6h0.9v-0.7c0-1-0.4-1.2-1.3-1.2c-0.9,0-1.9,0.1-2.4,0.1c0,0-0.1,0-0.1,0c-0.1,0-0.3,0-0.3-0.3V163
				c0-0.2,0.1-0.3,0.3-0.3c0.6-0.1,1.5-0.2,2.5-0.2c2.1,0,3.3,0.9,3.3,2.8v5.3C235.5,170.7,235.4,170.9,235.2,170.9z M233.6,167.2
				h-0.9c-1.3,0-1.6,0.4-1.6,1.3v0.1c0,0.7,0.3,0.9,1.1,0.9c0.5,0,1.1-0.2,1.5-0.4V167.2z"/>
			<path class="st2" d="M242.4,170.8c-0.3,0.1-1,0.2-1.9,0.2c-1.9,0-3.4-1.2-3.4-3.6V166c0-2.4,1.5-3.6,3.4-3.6
				c0.9,0,1.6,0.1,1.9,0.2c0.3,0.1,0.3,0.1,0.3,0.4v1c0,0.1-0.1,0.2-0.3,0.2c0,0,0,0,0,0c-0.6-0.1-0.9-0.1-1.9-0.1
				c-0.7,0-1.4,0.4-1.4,1.9v1.4c0,1.5,0.7,1.9,1.4,1.9c1,0,1.3,0,1.9-0.1c0,0,0,0,0,0c0.1,0,0.3,0.1,0.3,0.2v1
				C242.7,170.7,242.7,170.7,242.4,170.8z"/>
			<path class="st2" d="M246.1,161.4h-1.4c-0.2,0-0.3-0.1-0.3-0.3v-1.3c0-0.2,0.1-0.3,0.3-0.3h1.4c0.2,0,0.3,0.1,0.3,0.3v1.3
				C246.4,161.3,246.3,161.4,246.1,161.4z M246.1,170.9h-1.4c-0.2,0-0.3-0.1-0.3-0.3v-7.7c0-0.2,0.1-0.3,0.3-0.3h1.4
				c0.2,0,0.3,0.1,0.3,0.3v7.7C246.4,170.7,246.2,170.9,246.1,170.9z"/>
			<path class="st2" d="M251.6,171c-2.3,0-3.5-1.6-3.5-3.7v-1.2c0-2.1,1.2-3.7,3.5-3.7c2.3,0,3.5,1.6,3.5,3.7v1.2
				C255.2,169.4,254,171,251.6,171z M253.2,166.1c0-1.2-0.5-2-1.6-2c-1,0-1.6,0.8-1.6,2v1.2c0,1.2,0.5,2,1.6,2c1,0,1.6-0.8,1.6-2
				V166.1z"/>
			<path class="st2" d="M263.4,170.9H262c-0.2,0-0.3-0.1-0.3-0.3v-4.8c0-1.3-0.1-1.7-1.3-1.7c-0.5,0-1.1,0.2-1.7,0.5v6
				c0,0.2-0.1,0.3-0.3,0.3h-1.4c-0.2,0-0.3-0.1-0.3-0.3v-7.7c0-0.2,0.1-0.3,0.3-0.3h1.3c0.2,0,0.3,0.1,0.3,0.3v0.3
				c0.9-0.5,1.4-0.7,2.4-0.7c2.1,0,2.6,1.4,2.6,3.3v4.8C263.7,170.7,263.5,170.9,263.4,170.9z"/>
			<path class="st2" d="M272.1,167.4h-4.8v0c0,0.9,0.4,1.9,1.8,1.9c1.1,0,2.1-0.1,2.7-0.1c0,0,0,0,0,0c0.1,0,0.3,0.1,0.3,0.2v1
				c0,0.2,0,0.3-0.3,0.4c-1,0.2-1.5,0.3-2.9,0.3c-1.5,0-3.6-0.8-3.6-3.7v-1.1c0-2.3,1.3-3.8,3.6-3.8c2.3,0,3.5,1.6,3.5,3.8v0.8
				C272.4,167.3,272.3,167.4,272.1,167.4z M270.5,165.9c0-1.2-0.6-1.8-1.6-1.8c-0.9,0-1.6,0.7-1.6,1.8v0.1L270.5,165.9L270.5,165.9z
				"/>
			<path class="st2" d="M276.8,171c-0.6,0-1.8-0.1-2.6-0.3c-0.2,0-0.3-0.2-0.3-0.3v-0.9c0-0.1,0.1-0.2,0.3-0.2c0,0,0,0,0.1,0
				c0.7,0.1,2,0.2,2.5,0.2c0.9,0,1.1-0.3,1.1-0.7c0-0.3-0.2-0.5-0.7-0.8l-2-1.2c-0.7-0.4-1.2-1.2-1.2-2c0-1.5,0.9-2.2,2.8-2.2
				c1.2,0,1.9,0.1,2.6,0.3c0.2,0,0.3,0.2,0.3,0.3v0.9c0,0.2-0.1,0.3-0.2,0.3c0,0,0,0-0.1,0c-0.4-0.1-1.6-0.2-2.4-0.2
				c-0.7,0-1,0.2-1,0.6c0,0.2,0.2,0.4,0.6,0.6l1.9,1.2c1.2,0.8,1.4,1.5,1.4,2.3C279.7,170,278.7,171,276.8,171z"/>
			<path class="st2" d="M283.4,168.9l-1.3,3.1c-0.1,0.2-0.1,0.3-0.3,0.3h-1c-0.1,0-0.2-0.1-0.2-0.2c0,0,0-0.1,0-0.1l0.9-3.1
				c0.1-0.2,0.1-0.3,0.3-0.3h1.4c0.1,0,0.2,0.1,0.2,0.2C283.4,168.8,283.4,168.9,283.4,168.9z"/>
		</g>
	</g>
	<g>
		<g>
			<path class="st2" d="M149.7,188.7c-0.2,0.1-1.2,0.2-2.3,0.2c-1.8,0-4.2-0.9-4.2-4.5v-2.2c0-3.7,2.4-4.5,4.2-4.5
				c1.1,0,2.1,0.2,2.3,0.2c0.2,0.1,0.3,0.1,0.3,0.3v1c0,0.2-0.1,0.3-0.3,0.3c0,0,0,0,0,0c-0.5,0-1.5-0.1-2.3-0.1
				c-1.2,0-2.1,0.7-2.1,2.8v2.2c0,2.1,0.9,2.8,2.1,2.8c0.8,0,1.8-0.1,2.3-0.1c0,0,0,0,0,0c0.2,0,0.3,0.1,0.3,0.3v1
				C150,188.5,149.9,188.6,149.7,188.7z"/>
			<path class="st2" d="M155,188.9c-2.3,0-3.5-1.6-3.5-3.7V184c0-2.1,1.2-3.7,3.5-3.7s3.5,1.6,3.5,3.7v1.2
				C158.5,187.3,157.3,188.9,155,188.9z M156.5,184c0-1.2-0.5-2-1.6-2c-1,0-1.6,0.8-1.6,2v1.2c0,1.2,0.5,2,1.6,2c1,0,1.6-0.8,1.6-2
				V184z"/>
			<path class="st2" d="M166.7,188.8h-1.4c-0.2,0-0.3-0.1-0.3-0.3v-4.8c0-1.3-0.1-1.7-1.3-1.7c-0.5,0-1.1,0.2-1.7,0.5v6
				c0,0.2-0.1,0.3-0.3,0.3h-1.4c-0.2,0-0.3-0.1-0.3-0.3v-7.7c0-0.2,0.1-0.3,0.3-0.3h1.3c0.2,0,0.3,0.1,0.3,0.3v0.3
				c0.9-0.5,1.4-0.7,2.4-0.7c2.1,0,2.6,1.4,2.6,3.3v4.8C167,188.6,166.9,188.8,166.7,188.8z"/>
			<path class="st2" d="M175.5,185.3h-4.8v0c0,0.9,0.4,1.9,1.8,1.9c1.1,0,2.1-0.1,2.7-0.1c0,0,0,0,0,0c0.1,0,0.3,0.1,0.3,0.2v1
				c0,0.2,0,0.3-0.3,0.4c-1,0.2-1.5,0.3-2.9,0.3c-1.5,0-3.6-0.8-3.6-3.7v-1.1c0-2.3,1.3-3.8,3.6-3.8c2.3,0,3.5,1.6,3.5,3.8v0.8
				C175.8,185.2,175.7,185.3,175.5,185.3z M173.8,183.9c0-1.2-0.6-1.8-1.6-1.8c-0.9,0-1.6,0.7-1.6,1.8v0.1L173.8,183.9L173.8,183.9z
				"/>
			<path class="st2" d="M182.4,188.7c-0.3,0.1-1,0.2-1.9,0.2c-1.9,0-3.4-1.2-3.4-3.6v-1.4c0-2.4,1.5-3.6,3.4-3.6
				c0.9,0,1.6,0.1,1.9,0.2c0.3,0.1,0.3,0.1,0.3,0.4v1c0,0.1-0.1,0.2-0.3,0.2c0,0,0,0,0,0c-0.6-0.1-0.9-0.1-1.9-0.1
				c-0.7,0-1.4,0.4-1.4,1.9v1.4c0,1.5,0.7,1.9,1.4,1.9c1,0,1.3,0,1.9-0.1c0,0,0,0,0,0c0.1,0,0.3,0.1,0.3,0.2v1
				C182.7,188.6,182.7,188.7,182.4,188.7z"/>
			<path class="st2" d="M188.7,188.8c-0.4,0.1-0.7,0.1-1,0.1c-1.7,0-2.4-0.4-2.4-2.4v-4.6l-1.4-0.2c-0.2,0-0.3-0.1-0.3-0.3v-0.7
				c0-0.2,0.1-0.3,0.3-0.3h1.4v-1.2c0-0.2,0.1-0.3,0.3-0.3l1.4-0.2c0,0,0,0,0.1,0c0.1,0,0.2,0.1,0.2,0.2v1.5h1.3
				c0.2,0,0.3,0.1,0.3,0.3v0.9c0,0.2-0.1,0.3-0.3,0.3h-1.3v4.6c0,0.7,0,0.8,0.6,0.8h0.8c0.2,0,0.3,0.1,0.3,0.2v0.9
				C189,188.7,188.9,188.8,188.7,188.8z"/>
			<path class="st2" d="M192.1,179.3h-1.4c-0.2,0-0.3-0.1-0.3-0.3v-1.3c0-0.2,0.1-0.3,0.3-0.3h1.4c0.2,0,0.3,0.1,0.3,0.3v1.3
				C192.4,179.2,192.3,179.3,192.1,179.3z M192.1,188.8h-1.4c-0.2,0-0.3-0.1-0.3-0.3v-7.7c0-0.2,0.1-0.3,0.3-0.3h1.4
				c0.2,0,0.3,0.1,0.3,0.3v7.7C192.4,188.6,192.2,188.8,192.1,188.8z"/>
			<path class="st2" d="M201.1,180.8l-1.9,6.7c-0.3,1.1-1.1,1.4-1.8,1.4c-0.8,0-1.5-0.3-1.8-1.4l-1.9-6.7c0,0,0-0.1,0-0.1
				c0-0.1,0.1-0.2,0.2-0.2h1.5c0.1,0,0.3,0.1,0.3,0.3l1.4,6.2c0.1,0.3,0.2,0.4,0.3,0.4c0.1,0,0.2-0.1,0.3-0.4l1.4-6.2
				c0-0.2,0.2-0.3,0.3-0.3h1.5c0.1,0,0.2,0.1,0.2,0.2C201.2,180.7,201.2,180.8,201.1,180.8z"/>
			<path class="st2" d="M204.2,179.3h-1.4c-0.2,0-0.3-0.1-0.3-0.3v-1.3c0-0.2,0.1-0.3,0.3-0.3h1.4c0.2,0,0.3,0.1,0.3,0.3v1.3
				C204.5,179.2,204.4,179.3,204.2,179.3z M204.2,188.8h-1.4c-0.2,0-0.3-0.1-0.3-0.3v-7.7c0-0.2,0.1-0.3,0.3-0.3h1.4
				c0.2,0,0.3,0.1,0.3,0.3v7.7C204.5,188.6,204.3,188.8,204.2,188.8z"/>
			<path class="st2" d="M212.7,188.5c-0.9,0.2-2,0.4-3,0.4c-2.4,0-3.5-1.4-3.5-3.7v-1.1c0-2.3,1.2-3.7,3.5-3.7c0.4,0,0.9,0,1.4,0.1
				v-2.6c0-0.2,0.1-0.3,0.3-0.3h1.4c0.2,0,0.3,0.1,0.3,0.3v10.3C213.1,188.3,213,188.4,212.7,188.5z M211.1,182
				c-0.4-0.1-1.1-0.1-1.4-0.1c-1.3,0-1.6,0.9-1.6,2.1v1.1c0,1.2,0.3,2.1,1.6,2.1c0.5,0,1.1,0,1.4-0.1V182z"/>
			<path class="st2" d="M220.9,188.8h-1.3c-0.2,0-0.3-0.1-0.3-0.3v-0.2c-0.7,0.4-1.4,0.7-2.1,0.7c-1.2,0-2.6-0.5-2.6-2.5v-0.1
				c0-1.7,1-2.6,3.6-2.6h0.9v-0.7c0-1-0.4-1.2-1.3-1.2c-0.9,0-1.9,0.1-2.4,0.1c0,0-0.1,0-0.1,0c-0.1,0-0.3,0-0.3-0.3v-0.9
				c0-0.2,0.1-0.3,0.3-0.3c0.6-0.1,1.5-0.2,2.5-0.2c2.1,0,3.3,0.9,3.3,2.8v5.3C221.2,188.7,221,188.8,220.9,188.8z M219.2,185.1
				h-0.9c-1.3,0-1.6,0.4-1.6,1.3v0.1c0,0.7,0.3,0.9,1.1,0.9c0.5,0,1.1-0.2,1.5-0.4V185.1z"/>
			<path class="st2" d="M229.3,188.5c-0.9,0.2-2,0.4-3,0.4c-2.4,0-3.5-1.4-3.5-3.7v-1.1c0-2.3,1.2-3.7,3.5-3.7c0.4,0,0.9,0,1.4,0.1
				v-2.6c0-0.2,0.1-0.3,0.3-0.3h1.4c0.2,0,0.3,0.1,0.3,0.3v10.3C229.7,188.3,229.7,188.4,229.3,188.5z M227.8,182
				c-0.4-0.1-1.1-0.1-1.4-0.1c-1.3,0-1.6,0.9-1.6,2.1v1.1c0,1.2,0.3,2.1,1.6,2.1c0.5,0,1.1,0,1.4-0.1V182z"/>
			<path class="st2" d="M242.3,180.8l-2.5,8.6c-0.5,1.6-1,2.3-3,2.3c-0.5,0-1.2-0.1-1.6-0.2c-0.2,0-0.3-0.1-0.3-0.3v-0.9
				c0-0.2,0.1-0.3,0.3-0.3c0,0,0,0,0,0c0.4,0,1.3,0.1,1.7,0.1c0.6,0,1-0.2,1.2-0.9l0.1-0.4H238c-0.4,0-1-0.1-1.3-1.2l-1.9-6.8
				c0,0,0-0.1,0-0.1c0-0.1,0.1-0.2,0.3-0.2h1.5c0.1,0,0.3,0.1,0.3,0.3l1.5,6c0.1,0.3,0.1,0.3,0.2,0.3h0c0,0,0.1,0,0.1,0c0,0,0,0,0,0
				l1.6-6.4c0-0.1,0.1-0.3,0.3-0.3h1.5C242.2,180.4,242.3,180.6,242.3,180.8C242.3,180.7,242.3,180.8,242.3,180.8z"/>
			<path class="st2" d="M255.3,188.8h-1.8c-0.2,0-0.2-0.1-0.3-0.3l-2.1-4h-0.2c-0.4,0-1,0-1.3-0.1v4c0,0.2-0.1,0.3-0.3,0.3h-1.5
				c-0.2,0-0.3-0.1-0.3-0.3v-10.2c0-0.3,0.2-0.4,0.5-0.4c0.8-0.1,1.8-0.2,2.9-0.2c2.3,0,4.3,0.8,4.3,3.3v0.1c0,1.6-0.8,2.5-2,3
				l2.3,4.3c0,0,0,0.1,0,0.1C255.5,188.7,255.4,188.8,255.3,188.8z M253.1,181c0-1.1-0.7-1.6-2.2-1.6c-0.3,0-1.1,0-1.3,0.1v3.3
				c0.2,0,1.1,0,1.3,0c1.5,0,2.2-0.4,2.2-1.7V181z"/>
			<path class="st2" d="M263.5,185.3h-4.8v0c0,0.9,0.4,1.9,1.8,1.9c1.1,0,2.1-0.1,2.7-0.1c0,0,0,0,0,0c0.1,0,0.3,0.1,0.3,0.2v1
				c0,0.2,0,0.3-0.3,0.4c-1,0.2-1.5,0.3-2.9,0.3c-1.5,0-3.6-0.8-3.6-3.7v-1.1c0-2.3,1.3-3.8,3.6-3.8c2.3,0,3.5,1.6,3.5,3.8v0.8
				C263.8,185.2,263.7,185.3,263.5,185.3z M261.9,183.9c0-1.2-0.6-1.8-1.6-1.8c-0.9,0-1.6,0.7-1.6,1.8v0.1L261.9,183.9L261.9,183.9z
				"/>
			<path class="st2" d="M271.7,188.5c-0.9,0.2-2,0.4-3,0.4c-2.4,0-3.5-1.4-3.5-3.7v-1.1c0-2.3,1.2-3.7,3.5-3.7c0.4,0,0.9,0,1.4,0.1
				v-2.6c0-0.2,0.1-0.3,0.3-0.3h1.4c0.2,0,0.3,0.1,0.3,0.3v10.3C272.1,188.3,272.1,188.4,271.7,188.5z M270.2,182
				c-0.4-0.1-1.1-0.1-1.4-0.1c-1.3,0-1.6,0.9-1.6,2.1v1.1c0,1.2,0.3,2.1,1.6,2.1c0.5,0,1.1,0,1.4-0.1V182z"/>
			<path class="st2" d="M280.6,185.3h-4.8v0c0,0.9,0.4,1.9,1.8,1.9c1.1,0,2.1-0.1,2.7-0.1c0,0,0,0,0,0c0.1,0,0.3,0.1,0.3,0.2v1
				c0,0.2,0,0.3-0.3,0.4c-1,0.2-1.5,0.3-2.9,0.3c-1.5,0-3.6-0.8-3.6-3.7v-1.1c0-2.3,1.3-3.8,3.6-3.8c2.3,0,3.5,1.6,3.5,3.8v0.8
				C280.9,185.2,280.8,185.3,280.6,185.3z M278.9,183.9c0-1.2-0.6-1.8-1.6-1.8s-1.6,0.7-1.6,1.8v0.1L278.9,183.9L278.9,183.9z"/>
			<path class="st2" d="M285.2,188.9c-0.6,0-1.8-0.1-2.6-0.3c-0.2,0-0.3-0.2-0.3-0.3v-0.9c0-0.1,0.1-0.2,0.3-0.2c0,0,0,0,0.1,0
				c0.7,0.1,2,0.2,2.5,0.2c0.9,0,1.1-0.3,1.1-0.7c0-0.3-0.2-0.5-0.7-0.8l-2-1.2c-0.7-0.4-1.2-1.2-1.2-2c0-1.5,0.9-2.2,2.8-2.2
				c1.2,0,1.9,0.1,2.6,0.3c0.2,0,0.3,0.2,0.3,0.3v0.9c0,0.2-0.1,0.3-0.2,0.3c0,0,0,0-0.1,0c-0.4-0.1-1.6-0.2-2.4-0.2
				c-0.7,0-1,0.2-1,0.6c0,0.2,0.2,0.4,0.6,0.6l1.9,1.2c1.2,0.8,1.4,1.5,1.4,2.3C288.1,187.9,287.2,188.9,285.2,188.9z"/>
		</g>
	</g>
	<g>
		<g>
			<path class="st2" d="M145.2,238.9h-1.5c-0.2,0-0.3-0.1-0.3-0.3v-10.4c0-0.2,0.1-0.3,0.3-0.3h1.5c0.2,0,0.3,0.1,0.3,0.3v10.4
				C145.5,238.8,145.4,238.9,145.2,238.9z"/>
			<path class="st2" d="M154.2,238.9h-1.4c-0.2,0-0.3-0.1-0.3-0.3v-4.8c0-1.3-0.1-1.7-1.3-1.7c-0.5,0-1.1,0.2-1.7,0.5v6
				c0,0.2-0.1,0.3-0.3,0.3h-1.4c-0.2,0-0.3-0.1-0.3-0.3v-7.7c0-0.2,0.1-0.3,0.3-0.3h1.3c0.2,0,0.3,0.1,0.3,0.3v0.3
				c0.9-0.5,1.4-0.7,2.4-0.7c2.1,0,2.6,1.4,2.6,3.3v4.8C154.5,238.8,154.3,238.9,154.2,238.9z"/>
			<path class="st2" d="M163.4,231.9l-0.5,0.2c0.2,0.3,0.4,0.7,0.4,1.2v0.1c0,1.9-1.3,2.7-3.5,2.7c-0.8,0-1.3-0.1-1.6-0.3
				c-0.2,0.1-0.3,0.3-0.3,0.4c0,0.3,0.2,0.4,0.5,0.5l1.7,0.4c2,0.5,3.3,0.8,3.3,2.4v0.1c0,1.5-1.1,2.3-3.6,2.3
				c-2.4,0-3.7-0.9-3.7-2.5v-0.1c0-0.6,0.3-1.2,0.8-1.6c-0.4-0.3-0.7-0.8-0.7-1.4v0c0-0.5,0.2-0.9,0.6-1.2c-0.4-0.5-0.6-1-0.6-1.7
				v-0.1c0-1.5,1-2.7,3.5-2.7h3.5c0.2,0,0.4,0.2,0.4,0.4v0.6C163.6,231.8,163.6,231.9,163.4,231.9z M161.5,239.5
				c0-0.3-0.2-0.5-1.7-0.9l-1.3-0.3c-0.2,0.3-0.4,0.5-0.4,1v0.1c0,0.6,0.4,1,1.8,1c1.4,0,1.7-0.3,1.7-0.8V239.5z M161.4,233.3
				c0-0.7-0.3-1.3-1.6-1.3c-1.3,0-1.6,0.6-1.6,1.3v0.1c0,0.5,0.2,1.2,1.6,1.2c1.2,0,1.6-0.4,1.6-1.2V233.3z"/>
			<path class="st2" d="M171.6,235.4h-4.8v0c0,0.9,0.4,1.9,1.8,1.9c1.1,0,2.1-0.1,2.7-0.1c0,0,0,0,0,0c0.1,0,0.3,0.1,0.3,0.2v1
				c0,0.2,0,0.3-0.3,0.4c-1,0.2-1.5,0.3-2.9,0.3c-1.5,0-3.6-0.8-3.6-3.7v-1.1c0-2.3,1.3-3.8,3.6-3.8c2.3,0,3.5,1.6,3.5,3.8v0.8
				C171.8,235.3,171.8,235.4,171.6,235.4z M169.9,234c0-1.2-0.6-1.8-1.6-1.8c-0.9,0-1.6,0.7-1.6,1.8v0.1L169.9,234L169.9,234z"/>
			<path class="st2" d="M180.1,238.9h-1.4c-0.2,0-0.3-0.1-0.3-0.3v-4.8c0-1.3-0.1-1.7-1.3-1.7c-0.5,0-1.1,0.2-1.7,0.5v6
				c0,0.2-0.1,0.3-0.3,0.3h-1.4c-0.2,0-0.3-0.1-0.3-0.3v-7.7c0-0.2,0.1-0.3,0.3-0.3h1.3c0.2,0,0.3,0.1,0.3,0.3v0.3
				c0.9-0.5,1.4-0.7,2.4-0.7c2.1,0,2.6,1.4,2.6,3.3v4.8C180.4,238.8,180.2,238.9,180.1,238.9z"/>
			<path class="st2" d="M184,229.5h-1.4c-0.2,0-0.3-0.1-0.3-0.3v-1.3c0-0.2,0.1-0.3,0.3-0.3h1.4c0.2,0,0.3,0.1,0.3,0.3v1.3
				C184.3,229.3,184.2,229.5,184,229.5z M184,238.9h-1.4c-0.2,0-0.3-0.1-0.3-0.3v-7.7c0-0.2,0.1-0.3,0.3-0.3h1.4
				c0.2,0,0.3,0.1,0.3,0.3v7.7C184.3,238.8,184.2,238.9,184,238.9z"/>
			<path class="st2" d="M192.8,235.4H188v0c0,0.9,0.4,1.9,1.8,1.9c1.1,0,2.1-0.1,2.7-0.1c0,0,0,0,0,0c0.1,0,0.3,0.1,0.3,0.2v1
				c0,0.2,0,0.3-0.3,0.4c-1,0.2-1.5,0.3-2.9,0.3c-1.5,0-3.6-0.8-3.6-3.7v-1.1c0-2.3,1.3-3.8,3.6-3.8c2.3,0,3.5,1.6,3.5,3.8v0.8
				C193.1,235.3,193,235.4,192.8,235.4z M191.1,234c0-1.2-0.6-1.8-1.6-1.8c-0.9,0-1.6,0.7-1.6,1.8v0.1L191.1,234L191.1,234z"/>
			<path class="st2" d="M198.7,232.1c-0.8,0-1.4,0.2-2,0.5v6c0,0.2-0.1,0.3-0.3,0.3H195c-0.2,0-0.3-0.1-0.3-0.3v-7.7
				c0-0.2,0.1-0.3,0.3-0.3h1.3c0.2,0,0.3,0.1,0.3,0.3v0.3c0.7-0.6,1.5-0.7,2.1-0.7c0.2,0,0.3,0.1,0.3,0.3v1.1
				C199,232,198.9,232.1,198.7,232.1z"/>
			<path class="st2" d="M203.8,227.6l-1.7,1.8c-0.1,0.1-0.2,0.2-0.4,0.2h-1.3c-0.1,0-0.1,0-0.1-0.1c0,0,0-0.1,0.1-0.1l1.4-1.8
				c0.1-0.2,0.2-0.2,0.4-0.2h1.6c0.1,0,0.2,0,0.2,0.1C203.8,227.5,203.8,227.6,203.8,227.6z M202.3,238.6c0,0.2-0.1,0.3-0.3,0.3
				h-1.4c-0.2,0-0.3-0.1-0.3-0.3v-7.7c0-0.2,0.1-0.3,0.3-0.3h1.4c0.2,0,0.3,0.1,0.3,0.3L202.3,238.6L202.3,238.6z"/>
			<path class="st2" d="M210.2,238.9h-1.3c-0.2,0-0.3-0.1-0.3-0.3v-0.2c-0.7,0.4-1.4,0.7-2.1,0.7c-1.2,0-2.6-0.5-2.6-2.5v-0.1
				c0-1.7,1-2.6,3.6-2.6h0.9v-0.7c0-1-0.4-1.2-1.3-1.2c-0.9,0-1.9,0.1-2.4,0.1c0,0-0.1,0-0.1,0c-0.1,0-0.3,0-0.3-0.3V231
				c0-0.2,0.1-0.3,0.3-0.3c0.6-0.1,1.5-0.2,2.5-0.2c2.1,0,3.3,0.9,3.3,2.8v5.3C210.5,238.8,210.3,238.9,210.2,238.9z M208.5,235.3
				h-0.9c-1.3,0-1.6,0.4-1.6,1.3v0.1c0,0.7,0.3,0.9,1.1,0.9c0.5,0,1.1-0.2,1.5-0.4V235.3z"/>
			<path class="st2" d="M222.6,235.4h-4.8v0c0,0.9,0.4,1.9,1.8,1.9c1.1,0,2.1-0.1,2.7-0.1c0,0,0,0,0,0c0.1,0,0.3,0.1,0.3,0.2v1
				c0,0.2,0,0.3-0.3,0.4c-1,0.2-1.5,0.3-2.9,0.3c-1.5,0-3.6-0.8-3.6-3.7v-1.1c0-2.3,1.3-3.8,3.6-3.8c2.3,0,3.5,1.6,3.5,3.8v0.8
				C222.9,235.3,222.8,235.4,222.6,235.4z M220.9,234c0-1.2-0.6-1.8-1.6-1.8c-0.9,0-1.6,0.7-1.6,1.8v0.1L220.9,234L220.9,234z"/>
			<path class="st2" d="M231.1,238.9h-1.4c-0.2,0-0.3-0.1-0.3-0.3v-4.8c0-1.3-0.1-1.7-1.3-1.7c-0.5,0-1.1,0.2-1.7,0.5v6
				c0,0.2-0.1,0.3-0.3,0.3h-1.4c-0.2,0-0.3-0.1-0.3-0.3v-7.7c0-0.2,0.1-0.3,0.3-0.3h1.3c0.2,0,0.3,0.1,0.3,0.3v0.3
				c0.9-0.5,1.4-0.7,2.4-0.7c2.1,0,2.6,1.4,2.6,3.3v4.8C231.4,238.8,231.3,238.9,231.1,238.9z"/>
			<path class="st2" d="M244,229.6h-2.6v9c0,0.2-0.1,0.3-0.3,0.3h-1.5c-0.2,0-0.3-0.1-0.3-0.3v-9h-2.6c-0.2,0-0.3-0.1-0.3-0.3v-1.2
				c0-0.2,0.1-0.3,0.3-0.3h7.2c0.2,0,0.3,0.1,0.3,0.3v1.2C244.3,229.5,244.2,229.6,244,229.6z"/>
			<path class="st2" d="M252.1,235.4h-4.8v0c0,0.9,0.4,1.9,1.8,1.9c1.1,0,2.1-0.1,2.7-0.1c0,0,0,0,0,0c0.1,0,0.3,0.1,0.3,0.2v1
				c0,0.2,0,0.3-0.3,0.4c-1,0.2-1.5,0.3-2.9,0.3c-1.5,0-3.6-0.8-3.6-3.7v-1.1c0-2.3,1.3-3.8,3.6-3.8c2.3,0,3.5,1.6,3.5,3.8v0.8
				C252.4,235.3,252.4,235.4,252.1,235.4z M250.5,234c0-1.2-0.6-1.8-1.6-1.8c-0.9,0-1.6,0.7-1.6,1.8v0.1L250.5,234L250.5,234z"/>
			<path class="st2" d="M255.9,238.9h-1.4c-0.2,0-0.3-0.1-0.3-0.3V228c0-0.2,0.1-0.3,0.3-0.3h1.4c0.2,0,0.3,0.1,0.3,0.3v10.7
				C256.1,238.8,256,238.9,255.9,238.9z"/>
			<path class="st2" d="M264.7,235.4h-4.8v0c0,0.9,0.4,1.9,1.8,1.9c1.1,0,2.1-0.1,2.7-0.1c0,0,0,0,0,0c0.1,0,0.3,0.1,0.3,0.2v1
				c0,0.2,0,0.3-0.3,0.4c-1,0.2-1.5,0.3-2.9,0.3c-1.5,0-3.6-0.8-3.6-3.7v-1.1c0-2.3,1.3-3.8,3.6-3.8c2.3,0,3.5,1.6,3.5,3.8v0.8
				C265,235.3,264.9,235.4,264.7,235.4z M263,234c0-1.2-0.6-1.8-1.6-1.8c-0.9,0-1.6,0.7-1.6,1.8v0.1L263,234L263,234z"/>
			<path class="st2" d="M271.6,238.9c-0.3,0.1-1,0.2-1.9,0.2c-1.9,0-3.4-1.2-3.4-3.6v-1.4c0-2.4,1.5-3.6,3.4-3.6
				c0.9,0,1.6,0.1,1.9,0.2c0.3,0.1,0.3,0.1,0.3,0.4v1c0,0.1-0.1,0.2-0.3,0.2c0,0,0,0,0,0c-0.6-0.1-0.9-0.1-1.9-0.1
				c-0.7,0-1.4,0.4-1.4,1.9v1.4c0,1.5,0.7,1.9,1.4,1.9c1,0,1.3,0,1.9-0.1c0,0,0,0,0,0c0.1,0,0.3,0.1,0.3,0.2v1
				C271.9,238.7,271.9,238.8,271.6,238.9z"/>
			<path class="st2" d="M276.9,239c-2.3,0-3.5-1.6-3.5-3.7v-1.2c0-2.1,1.2-3.7,3.5-3.7c2.3,0,3.5,1.6,3.5,3.7v1.2
				C280.4,237.5,279.2,239,276.9,239z M278.4,234.2c0-1.2-0.5-2-1.6-2c-1,0-1.6,0.8-1.6,2v1.2c0,1.2,0.5,2,1.6,2c1,0,1.6-0.8,1.6-2
				V234.2z"/>
			<path class="st2" d="M292.4,238.9H291c-0.2,0-0.3-0.1-0.3-0.3v-5c0-1.1-0.2-1.4-1.1-1.4c-0.3,0-0.8,0.1-1.4,0.4
				c0,0.3,0.1,0.7,0.1,1.1v5c0,0.2-0.1,0.3-0.3,0.3h-1.4c-0.2,0-0.3-0.1-0.3-0.3v-5c0-1.1-0.2-1.4-1-1.4c-0.3,0-0.8,0.2-1.4,0.5v6
				c0,0.2-0.1,0.3-0.3,0.3h-1.4c-0.2,0-0.3-0.1-0.3-0.3v-7.7c0-0.2,0.1-0.3,0.3-0.3h1.3c0.2,0,0.3,0.1,0.3,0.3v0.3
				c0.6-0.4,1.2-0.7,2.1-0.7c0.8,0,1.4,0.3,1.7,0.7c0.8-0.4,1.4-0.7,2.4-0.7c2,0,2.5,1.4,2.5,3.1v5
				C292.7,238.8,292.6,238.9,292.4,238.9z"/>
			<path class="st2" d="M301.2,238.9h-1.4c-0.2,0-0.3-0.1-0.3-0.3v-0.3c-0.8,0.5-1.4,0.7-2.3,0.7c-0.7,0-1.4-0.2-1.8-0.6
				c-0.5-0.5-0.7-1.5-0.7-2.7v-4.8c0-0.2,0.1-0.3,0.3-0.3h1.4c0.2,0,0.3,0.1,0.3,0.3v4.8c0,0.7,0.1,1.2,0.3,1.4
				c0.2,0.2,0.5,0.3,0.9,0.3c0.5,0,1.3-0.4,1.7-0.6v-5.9c0-0.2,0.1-0.3,0.3-0.3h1.4c0.2,0,0.3,0.1,0.3,0.3v7.7
				C301.5,238.8,301.3,238.9,301.2,238.9z"/>
			<path class="st2" d="M309.9,238.9h-1.4c-0.2,0-0.3-0.1-0.3-0.3v-4.8c0-1.3-0.1-1.7-1.3-1.7c-0.5,0-1.1,0.2-1.7,0.5v6
				c0,0.2-0.1,0.3-0.3,0.3h-1.4c-0.2,0-0.3-0.1-0.3-0.3v-7.7c0-0.2,0.1-0.3,0.3-0.3h1.3c0.2,0,0.3,0.1,0.3,0.3v0.3
				c0.9-0.5,1.4-0.7,2.4-0.7c2.1,0,2.6,1.4,2.6,3.3v4.8C310.2,238.8,310.1,238.9,309.9,238.9z"/>
			<path class="st2" d="M313.9,229.5h-1.4c-0.2,0-0.3-0.1-0.3-0.3v-1.3c0-0.2,0.1-0.3,0.3-0.3h1.4c0.2,0,0.3,0.1,0.3,0.3v1.3
				C314.2,229.3,314.1,229.5,313.9,229.5z M313.9,238.9h-1.4c-0.2,0-0.3-0.1-0.3-0.3v-7.7c0-0.2,0.1-0.3,0.3-0.3h1.4
				c0.2,0,0.3,0.1,0.3,0.3v7.7C314.1,238.8,314,238.9,313.9,238.9z"/>
			<path class="st2" d="M321.1,238.9c-0.3,0.1-1,0.2-1.9,0.2c-1.9,0-3.4-1.2-3.4-3.6v-1.4c0-2.4,1.5-3.6,3.4-3.6
				c0.9,0,1.6,0.1,1.9,0.2c0.3,0.1,0.3,0.1,0.3,0.4v1c0,0.1-0.1,0.2-0.3,0.2c0,0,0,0,0,0c-0.6-0.1-0.9-0.1-1.9-0.1
				c-0.7,0-1.4,0.4-1.4,1.9v1.4c0,1.5,0.7,1.9,1.4,1.9c1,0,1.3,0,1.9-0.1c0,0,0,0,0,0c0.1,0,0.3,0.1,0.3,0.2v1
				C321.4,238.7,321.4,238.8,321.1,238.9z"/>
			<path class="st2" d="M328.9,238.9h-1.3c-0.2,0-0.3-0.1-0.3-0.3v-0.2c-0.7,0.4-1.4,0.7-2.1,0.7c-1.2,0-2.6-0.5-2.6-2.5v-0.1
				c0-1.7,1-2.6,3.6-2.6h0.9v-0.7c0-1-0.4-1.2-1.3-1.2c-0.9,0-1.9,0.1-2.4,0.1c0,0-0.1,0-0.1,0c-0.1,0-0.3,0-0.3-0.3V231
				c0-0.2,0.1-0.3,0.3-0.3c0.6-0.1,1.5-0.2,2.5-0.2c2.1,0,3.3,0.9,3.3,2.8v5.3C329.2,238.8,329.1,238.9,328.9,238.9z M327.3,235.3
				h-0.9c-1.3,0-1.6,0.4-1.6,1.3v0.1c0,0.7,0.3,0.9,1.1,0.9c0.5,0,1.1-0.2,1.5-0.4V235.3z"/>
			<path class="st2" d="M336.1,238.9c-0.3,0.1-1,0.2-1.9,0.2c-1.9,0-3.4-1.2-3.4-3.6v-1.4c0-2.4,1.5-3.6,3.4-3.6
				c0.9,0,1.6,0.1,1.9,0.2c0.3,0.1,0.3,0.1,0.3,0.4v1c0,0.1-0.1,0.2-0.3,0.2c0,0,0,0,0,0c-0.6-0.1-0.9-0.1-1.9-0.1
				c-0.7,0-1.4,0.4-1.4,1.9v1.4c0,1.5,0.7,1.9,1.4,1.9c1,0,1.3,0,1.9-0.1c0,0,0,0,0,0c0.1,0,0.3,0.1,0.3,0.2v1
				C336.5,238.7,336.4,238.8,336.1,238.9z"/>
			<path class="st2" d="M339.8,229.5h-1.4c-0.2,0-0.3-0.1-0.3-0.3v-1.3c0-0.2,0.1-0.3,0.3-0.3h1.4c0.2,0,0.3,0.1,0.3,0.3v1.3
				C340.1,229.3,340,229.5,339.8,229.5z M339.8,238.9h-1.4c-0.2,0-0.3-0.1-0.3-0.3v-7.7c0-0.2,0.1-0.3,0.3-0.3h1.4
				c0.2,0,0.3,0.1,0.3,0.3v7.7C340.1,238.8,339.9,238.9,339.8,238.9z"/>
			<path class="st2" d="M345.3,239c-2.3,0-3.5-1.6-3.5-3.7v-1.2c0-2.1,1.2-3.7,3.5-3.7c2.3,0,3.5,1.6,3.5,3.7v1.2
				C348.9,237.5,347.7,239,345.3,239z M346.9,234.2c0-1.2-0.5-2-1.6-2c-1,0-1.6,0.8-1.6,2v1.2c0,1.2,0.5,2,1.6,2c1,0,1.6-0.8,1.6-2
				V234.2z"/>
			<path class="st2" d="M357.1,238.9h-1.4c-0.2,0-0.3-0.1-0.3-0.3v-4.8c0-1.3-0.1-1.7-1.3-1.7c-0.5,0-1.1,0.2-1.7,0.5v6
				c0,0.2-0.1,0.3-0.3,0.3h-1.4c-0.2,0-0.3-0.1-0.3-0.3v-7.7c0-0.2,0.1-0.3,0.3-0.3h1.3c0.2,0,0.3,0.1,0.3,0.3v0.3
				c0.9-0.5,1.4-0.7,2.4-0.7c2.1,0,2.6,1.4,2.6,3.3v4.8C357.4,238.8,357.3,238.9,357.1,238.9z"/>
			<path class="st2" d="M365.8,235.4H361v0c0,0.9,0.4,1.9,1.8,1.9c1.1,0,2.1-0.1,2.7-0.1c0,0,0,0,0,0c0.1,0,0.3,0.1,0.3,0.2v1
				c0,0.2,0,0.3-0.3,0.4c-1,0.2-1.5,0.3-2.9,0.3c-1.5,0-3.6-0.8-3.6-3.7v-1.1c0-2.3,1.3-3.8,3.6-3.8c2.3,0,3.5,1.6,3.5,3.8v0.8
				C366.1,235.3,366,235.4,365.8,235.4z M364.2,234c0-1.2-0.6-1.8-1.6-1.8s-1.6,0.7-1.6,1.8v0.1L364.2,234L364.2,234z"/>
			<path class="st2" d="M370.5,239c-0.6,0-1.8-0.1-2.6-0.3c-0.2,0-0.3-0.2-0.3-0.3v-0.9c0-0.1,0.1-0.2,0.3-0.2c0,0,0,0,0.1,0
				c0.7,0.1,2,0.2,2.5,0.2c0.9,0,1.1-0.3,1.1-0.7c0-0.3-0.2-0.5-0.7-0.8l-2-1.2c-0.7-0.4-1.2-1.2-1.2-2c0-1.5,0.9-2.2,2.8-2.2
				c1.2,0,1.9,0.1,2.6,0.3c0.2,0,0.3,0.2,0.3,0.3v0.9c0,0.2-0.1,0.3-0.2,0.3c0,0,0,0-0.1,0c-0.4-0.1-1.6-0.2-2.4-0.2
				c-0.7,0-1,0.2-1,0.6c0,0.2,0.2,0.4,0.6,0.6l1.9,1.2c1.2,0.8,1.4,1.5,1.4,2.3C373.4,238,372.5,239,370.5,239z"/>
			<path class="st2" d="M377.1,237l-1.3,3.1c-0.1,0.2-0.1,0.3-0.3,0.3h-1c-0.1,0-0.2-0.1-0.2-0.2c0,0,0-0.1,0-0.1l0.9-3.1
				c0.1-0.2,0.1-0.3,0.3-0.3h1.4c0.1,0,0.2,0.1,0.2,0.2C377.1,236.9,377.1,236.9,377.1,237z"/>
		</g>
	</g>
	<g>
		<g>
			<path class="st2" d="M149.7,256.7c-0.2,0.1-1.2,0.2-2.3,0.2c-1.8,0-4.2-0.9-4.2-4.5v-2.2c0-3.7,2.4-4.5,4.2-4.5
				c1.1,0,2.1,0.2,2.3,0.2c0.2,0.1,0.3,0.1,0.3,0.3v1c0,0.2-0.1,0.3-0.3,0.3c0,0,0,0,0,0c-0.5,0-1.5-0.1-2.3-0.1
				c-1.2,0-2.1,0.7-2.1,2.8v2.2c0,2.1,0.9,2.8,2.1,2.8c0.8,0,1.8-0.1,2.3-0.1c0,0,0,0,0,0c0.2,0,0.3,0.1,0.3,0.3v1
				C150,256.6,149.9,256.7,149.7,256.7z"/>
			<path class="st2" d="M155,257c-2.3,0-3.5-1.6-3.5-3.7v-1.2c0-2.1,1.2-3.7,3.5-3.7s3.5,1.6,3.5,3.7v1.2
				C158.5,255.4,157.3,257,155,257z M156.5,252.1c0-1.2-0.5-2-1.6-2c-1,0-1.6,0.8-1.6,2v1.2c0,1.2,0.5,2,1.6,2c1,0,1.6-0.8,1.6-2
				V252.1z"/>
			<path class="st2" d="M166.7,256.8h-1.4c-0.2,0-0.3-0.1-0.3-0.3v-4.8c0-1.3-0.1-1.7-1.3-1.7c-0.5,0-1.1,0.2-1.7,0.5v6
				c0,0.2-0.1,0.3-0.3,0.3h-1.4c-0.2,0-0.3-0.1-0.3-0.3v-7.7c0-0.2,0.1-0.3,0.3-0.3h1.3c0.2,0,0.3,0.1,0.3,0.3v0.3
				c0.9-0.5,1.4-0.7,2.4-0.7c2.1,0,2.6,1.4,2.6,3.3v4.8C167,256.7,166.9,256.8,166.7,256.8z"/>
			<path class="st2" d="M175.5,253.4h-4.8v0c0,0.9,0.4,1.9,1.8,1.9c1.1,0,2.1-0.1,2.7-0.1c0,0,0,0,0,0c0.1,0,0.3,0.1,0.3,0.2v1
				c0,0.2,0,0.3-0.3,0.4c-1,0.2-1.5,0.3-2.9,0.3c-1.5,0-3.6-0.8-3.6-3.7v-1.1c0-2.3,1.3-3.8,3.6-3.8c2.3,0,3.5,1.6,3.5,3.8v0.8
				C175.8,253.2,175.7,253.4,175.5,253.4z M173.8,251.9c0-1.2-0.6-1.8-1.6-1.8c-0.9,0-1.6,0.7-1.6,1.8v0.1L173.8,251.9L173.8,251.9z
				"/>
			<path class="st2" d="M182.4,256.8c-0.3,0.1-1,0.2-1.9,0.2c-1.9,0-3.4-1.2-3.4-3.6V252c0-2.4,1.5-3.6,3.4-3.6
				c0.9,0,1.6,0.1,1.9,0.2c0.3,0.1,0.3,0.1,0.3,0.4v1c0,0.1-0.1,0.2-0.3,0.2c0,0,0,0,0,0c-0.6-0.1-0.9-0.1-1.9-0.1
				c-0.7,0-1.4,0.4-1.4,1.9v1.4c0,1.5,0.7,1.9,1.4,1.9c1,0,1.3,0,1.9-0.1c0,0,0,0,0,0c0.1,0,0.3,0.1,0.3,0.2v1
				C182.7,256.6,182.7,256.7,182.4,256.8z"/>
			<path class="st2" d="M188.7,256.9c-0.4,0.1-0.7,0.1-1,0.1c-1.7,0-2.4-0.4-2.4-2.4V250l-1.4-0.2c-0.2,0-0.3-0.1-0.3-0.3v-0.7
				c0-0.2,0.1-0.3,0.3-0.3h1.4v-1.2c0-0.2,0.1-0.3,0.3-0.3l1.4-0.2c0,0,0,0,0.1,0c0.1,0,0.2,0.1,0.2,0.2v1.5h1.3
				c0.2,0,0.3,0.1,0.3,0.3v0.9c0,0.2-0.1,0.3-0.3,0.3h-1.3v4.6c0,0.7,0,0.8,0.6,0.8h0.8c0.2,0,0.3,0.1,0.3,0.2v0.9
				C189,256.7,188.9,256.8,188.7,256.9z"/>
			<path class="st2" d="M192.1,247.4h-1.4c-0.2,0-0.3-0.1-0.3-0.3v-1.3c0-0.2,0.1-0.3,0.3-0.3h1.4c0.2,0,0.3,0.1,0.3,0.3v1.3
				C192.4,247.3,192.3,247.4,192.1,247.4z M192.1,256.8h-1.4c-0.2,0-0.3-0.1-0.3-0.3v-7.7c0-0.2,0.1-0.3,0.3-0.3h1.4
				c0.2,0,0.3,0.1,0.3,0.3v7.7C192.4,256.7,192.2,256.8,192.1,256.8z"/>
			<path class="st2" d="M201.1,248.8l-1.9,6.7c-0.3,1.1-1.1,1.4-1.8,1.4c-0.8,0-1.5-0.3-1.8-1.4l-1.9-6.7c0,0,0-0.1,0-0.1
				c0-0.1,0.1-0.2,0.2-0.2h1.5c0.1,0,0.3,0.1,0.3,0.3l1.4,6.2c0.1,0.3,0.2,0.4,0.3,0.4c0.1,0,0.2-0.1,0.3-0.4l1.4-6.2
				c0-0.2,0.2-0.3,0.3-0.3h1.5c0.1,0,0.2,0.1,0.2,0.2C201.2,248.8,201.2,248.8,201.1,248.8z"/>
			<path class="st2" d="M204.2,247.4h-1.4c-0.2,0-0.3-0.1-0.3-0.3v-1.3c0-0.2,0.1-0.3,0.3-0.3h1.4c0.2,0,0.3,0.1,0.3,0.3v1.3
				C204.5,247.3,204.4,247.4,204.2,247.4z M204.2,256.8h-1.4c-0.2,0-0.3-0.1-0.3-0.3v-7.7c0-0.2,0.1-0.3,0.3-0.3h1.4
				c0.2,0,0.3,0.1,0.3,0.3v7.7C204.5,256.7,204.3,256.8,204.2,256.8z"/>
			<path class="st2" d="M212.7,256.6c-0.9,0.2-2,0.4-3,0.4c-2.4,0-3.5-1.4-3.5-3.7v-1.1c0-2.3,1.2-3.7,3.5-3.7c0.4,0,0.9,0,1.4,0.1
				v-2.6c0-0.2,0.1-0.3,0.3-0.3h1.4c0.2,0,0.3,0.1,0.3,0.3v10.3C213.1,256.4,213,256.5,212.7,256.6z M211.1,250.1
				c-0.4-0.1-1.1-0.1-1.4-0.1c-1.3,0-1.6,0.9-1.6,2.1v1.1c0,1.2,0.3,2.1,1.6,2.1c0.5,0,1.1,0,1.4-0.1V250.1z"/>
			<path class="st2" d="M220.9,256.8h-1.3c-0.2,0-0.3-0.1-0.3-0.3v-0.2c-0.7,0.4-1.4,0.7-2.1,0.7c-1.2,0-2.6-0.5-2.6-2.5v-0.1
				c0-1.7,1-2.6,3.6-2.6h0.9v-0.7c0-1-0.4-1.2-1.3-1.2c-0.9,0-1.9,0.1-2.4,0.1c0,0-0.1,0-0.1,0c-0.1,0-0.3,0-0.3-0.3v-0.9
				c0-0.2,0.1-0.3,0.3-0.3c0.6-0.1,1.5-0.2,2.5-0.2c2.1,0,3.3,0.9,3.3,2.8v5.3C221.2,256.7,221,256.8,220.9,256.8z M219.2,253.2
				h-0.9c-1.3,0-1.6,0.4-1.6,1.3v0.1c0,0.7,0.3,0.9,1.1,0.9c0.5,0,1.1-0.2,1.5-0.4V253.2z"/>
			<path class="st2" d="M229.3,256.6c-0.9,0.2-2,0.4-3,0.4c-2.4,0-3.5-1.4-3.5-3.7v-1.1c0-2.3,1.2-3.7,3.5-3.7c0.4,0,0.9,0,1.4,0.1
				v-2.6c0-0.2,0.1-0.3,0.3-0.3h1.4c0.2,0,0.3,0.1,0.3,0.3v10.3C229.7,256.4,229.7,256.5,229.3,256.6z M227.8,250.1
				c-0.4-0.1-1.1-0.1-1.4-0.1c-1.3,0-1.6,0.9-1.6,2.1v1.1c0,1.2,0.3,2.1,1.6,2.1c0.5,0,1.1,0,1.4-0.1V250.1z"/>
			<path class="st2" d="M242.3,248.8l-2.5,8.6c-0.5,1.6-1,2.3-3,2.3c-0.5,0-1.2-0.1-1.6-0.2c-0.2,0-0.3-0.1-0.3-0.3v-0.9
				c0-0.2,0.1-0.3,0.3-0.3c0,0,0,0,0,0c0.4,0,1.3,0.1,1.7,0.1c0.6,0,1-0.2,1.2-0.9l0.1-0.4H238c-0.4,0-1-0.1-1.3-1.2l-1.9-6.8
				c0,0,0-0.1,0-0.1c0-0.1,0.1-0.2,0.3-0.2h1.5c0.1,0,0.3,0.1,0.3,0.3l1.5,6c0.1,0.3,0.1,0.3,0.2,0.3h0c0,0,0.1,0,0.1,0c0,0,0,0,0,0
				l1.6-6.4c0-0.1,0.1-0.3,0.3-0.3h1.5C242.2,248.5,242.3,248.6,242.3,248.8C242.3,248.8,242.3,248.8,242.3,248.8z"/>
			<path class="st2" d="M255.3,256.8h-1.8c-0.2,0-0.2-0.1-0.3-0.3l-2.1-4h-0.2c-0.4,0-1,0-1.3-0.1v4c0,0.2-0.1,0.3-0.3,0.3h-1.5
				c-0.2,0-0.3-0.1-0.3-0.3v-10.2c0-0.3,0.2-0.4,0.5-0.4c0.8-0.1,1.8-0.2,2.9-0.2c2.3,0,4.3,0.8,4.3,3.3v0.1c0,1.6-0.8,2.5-2,3
				l2.3,4.3c0,0,0,0.1,0,0.1C255.5,256.8,255.4,256.8,255.3,256.8z M253.1,249.1c0-1.1-0.7-1.6-2.2-1.6c-0.3,0-1.1,0-1.3,0.1v3.3
				c0.2,0,1.1,0,1.3,0c1.5,0,2.2-0.4,2.2-1.7V249.1z"/>
			<path class="st2" d="M263.5,253.4h-4.8v0c0,0.9,0.4,1.9,1.8,1.9c1.1,0,2.1-0.1,2.7-0.1c0,0,0,0,0,0c0.1,0,0.3,0.1,0.3,0.2v1
				c0,0.2,0,0.3-0.3,0.4c-1,0.2-1.5,0.3-2.9,0.3c-1.5,0-3.6-0.8-3.6-3.7v-1.1c0-2.3,1.3-3.8,3.6-3.8c2.3,0,3.5,1.6,3.5,3.8v0.8
				C263.8,253.2,263.7,253.4,263.5,253.4z M261.9,251.9c0-1.2-0.6-1.8-1.6-1.8c-0.9,0-1.6,0.7-1.6,1.8v0.1L261.9,251.9L261.9,251.9z
				"/>
			<path class="st2" d="M271.7,256.6c-0.9,0.2-2,0.4-3,0.4c-2.4,0-3.5-1.4-3.5-3.7v-1.1c0-2.3,1.2-3.7,3.5-3.7c0.4,0,0.9,0,1.4,0.1
				v-2.6c0-0.2,0.1-0.3,0.3-0.3h1.4c0.2,0,0.3,0.1,0.3,0.3v10.3C272.1,256.4,272.1,256.5,271.7,256.6z M270.2,250.1
				c-0.4-0.1-1.1-0.1-1.4-0.1c-1.3,0-1.6,0.9-1.6,2.1v1.1c0,1.2,0.3,2.1,1.6,2.1c0.5,0,1.1,0,1.4-0.1V250.1z"/>
			<path class="st2" d="M280.6,253.4h-4.8v0c0,0.9,0.4,1.9,1.8,1.9c1.1,0,2.1-0.1,2.7-0.1c0,0,0,0,0,0c0.1,0,0.3,0.1,0.3,0.2v1
				c0,0.2,0,0.3-0.3,0.4c-1,0.2-1.5,0.3-2.9,0.3c-1.5,0-3.6-0.8-3.6-3.7v-1.1c0-2.3,1.3-3.8,3.6-3.8c2.3,0,3.5,1.6,3.5,3.8v0.8
				C280.9,253.2,280.8,253.4,280.6,253.4z M278.9,251.9c0-1.2-0.6-1.8-1.6-1.8s-1.6,0.7-1.6,1.8v0.1L278.9,251.9L278.9,251.9z"/>
			<path class="st2" d="M285.2,257c-0.6,0-1.8-0.1-2.6-0.3c-0.2,0-0.3-0.2-0.3-0.3v-0.9c0-0.1,0.1-0.2,0.3-0.2c0,0,0,0,0.1,0
				c0.7,0.1,2,0.2,2.5,0.2c0.9,0,1.1-0.3,1.1-0.7c0-0.3-0.2-0.5-0.7-0.8l-2-1.2c-0.7-0.4-1.2-1.2-1.2-2c0-1.5,0.9-2.2,2.8-2.2
				c1.2,0,1.9,0.1,2.6,0.3c0.2,0,0.3,0.2,0.3,0.3v0.9c0,0.2-0.1,0.3-0.2,0.3c0,0,0,0-0.1,0c-0.4-0.1-1.6-0.2-2.4-0.2
				c-0.7,0-1,0.2-1,0.6c0,0.2,0.2,0.4,0.6,0.6l1.9,1.2c1.2,0.8,1.4,1.5,1.4,2.3C288.1,255.9,287.2,257,285.2,257z"/>
		</g>
	</g>
	<polyline class="st3" points="113.8,38.9 93.5,38.9 93.5,243.1 113.8,243.1 	"/>
	<line class="st3" x1="92.9" y1="107" x2="114.4" y2="107"/>
	<line class="st3" x1="92.9" y1="179.2" x2="114.4" y2="179.2"/>
	<line class="st3" x1="71.5" y1="142.8" x2="92.9" y2="142.8"/>
</g>
</svg>
