<?xml version="1.0" encoding="utf-8"?>
<!-- Generator: Adobe Illustrator 19.2.1, SVG Export Plug-In . SVG Version: 6.00 Build 0)  -->
<svg version="1.1" id="Capa_1" xmlns="http://www.w3.org/2000/svg" xmlns:xlink="http://www.w3.org/1999/xlink" x="0px" y="0px"
	 viewBox="0 0 716.7 368.7" style="enable-background:new 0 0 716.7 368.7;" xml:space="preserve">
<style type="text/css">
	.st0{clip-path:url(#SVGID_2_);}
	.st1{clip-path:url(#SVGID_6_);}
	.st2{clip-path:url(#SVGID_10_);}
	.st3{fill:none;stroke:#7C00C9;stroke-width:3.6121;}
</style>
<g>
	<g>
		<defs>
			<rect id="SVGID_1_" x="201" y="44.5" width="278.1" height="62.5"/>
		</defs>
		<clipPath id="SVGID_2_">
			<use xlink:href="#SVGID_1_"  style="overflow:visible;"/>
		</clipPath>
		<g class="st0">
			<defs>
				<rect id="SVGID_3_" x="199.6" y="42.6" width="281.5" height="65.9"/>
			</defs>
			<clipPath id="SVGID_4_">
				<use xlink:href="#SVGID_3_"  style="overflow:visible;"/>
			</clipPath>
			<g transform="matrix(1 0 0 1 0 0)" style="clip-path:url(#SVGID_4_);">
				
					<image style="overflow:visible;" width="333" height="78" xlink:href="F2FEE3DE.jpg"  transform="matrix(0.8454 0 0 0.8454 199.5899 42.5524)">
				</image>
			</g>
		</g>
	</g>
	<g>
		<defs>
			<rect id="SVGID_5_" x="14" y="175.9" width="102.8" height="107.8"/>
		</defs>
		<clipPath id="SVGID_6_">
			<use xlink:href="#SVGID_5_"  style="overflow:visible;"/>
		</clipPath>
		<g class="st1">
			<defs>
				<rect id="SVGID_7_" x="14" y="175.9" width="102.8" height="107.8"/>
			</defs>
			<clipPath id="SVGID_8_">
				<use xlink:href="#SVGID_7_"  style="overflow:visible;"/>
			</clipPath>
			<g style="clip-path:url(#SVGID_8_);">
				
					<image style="overflow:visible;" width="223" height="234" xlink:href="F2FEE3E2.png"  transform="matrix(0.4609 0 0 0.4609 13.9994 175.8863)">
				</image>
			</g>
		</g>
	</g>
	<g>
		<defs>
			<rect id="SVGID_9_" x="537.9" y="159.5" width="164.7" height="164.7"/>
		</defs>
		<clipPath id="SVGID_10_">
			<use xlink:href="#SVGID_9_"  style="overflow:visible;"/>
		</clipPath>
		<g class="st2">
			<defs>
				<rect id="SVGID_11_" x="537.9" y="159.5" width="164.7" height="164.7"/>
			</defs>
			<clipPath id="SVGID_12_">
				<use xlink:href="#SVGID_11_"  style="overflow:visible;"/>
			</clipPath>
			<g style="clip-path:url(#SVGID_12_);">
				
					<image style="overflow:visible;" width="518" height="518" xlink:href="F2FEE3E5.png"  transform="matrix(0.318 0 0 0.318 537.9324 159.4518)">
				</image>
			</g>
		</g>
	</g>
	<g>
		<defs>
			<rect id="SVGID_13_" x="231" y="209.4" width="223.6" height="64.8"/>
		</defs>
		<clipPath id="SVGID_14_">
			<use xlink:href="#SVGID_13_"  style="overflow:visible;"/>
		</clipPath>
		<g style="clip-path:url(#SVGID_14_);">
			
				<image style="overflow:visible;" width="774" height="225" xlink:href="F2FEE3E6.png"  transform="matrix(0.2889 0 0 0.288 231.0208 209.4232)">
			</image>
		</g>
	</g>
	<line class="st3" x1="344.1" y1="121.3" x2="344.1" y2="169.1"/>
	<polyline class="st3" points="618.5,175.9 618.5,146.6 67.2,146.6 67.2,175.9 	"/>
</g>
</svg>
