<?xml version="1.0" encoding="utf-8"?>
<!-- Generator: Adobe Illustrator 19.2.1, SVG Export Plug-In . SVG Version: 6.00 Build 0)  -->
<svg version="1.1" id="Capa_1" xmlns="http://www.w3.org/2000/svg" xmlns:xlink="http://www.w3.org/1999/xlink" x="0px" y="0px"
	 viewBox="0 0 716.7 252.7" style="enable-background:new 0 0 716.7 252.7;" xml:space="preserve">
<style type="text/css">
	.st0{fill:none;stroke:#7C00C9;stroke-width:3.3348;}
	.st1{clip-path:url(#SVGID_2_);}
	.st2{clip-path:url(#SVGID_6_);}
</style>
<g>
	<line class="st0" x1="344.6" y1="88.3" x2="344.6" y2="132.4"/>
	<polyline class="st0" points="597.9,138.7 597.9,111.7 88.9,111.7 88.9,138.7 	"/>
	<g>
		<defs>
			<rect id="SVGID_1_" x="246.6" y="10.7" width="200.1" height="77.9"/>
		</defs>
		<clipPath id="SVGID_2_">
			<use xlink:href="#SVGID_1_"  style="overflow:visible;"/>
		</clipPath>
		<g class="st1">
			<defs>
				<rect id="SVGID_3_" x="245.3" y="9.5" width="202.6" height="80.4"/>
			</defs>
			<clipPath id="SVGID_4_">
				<use xlink:href="#SVGID_3_"  style="overflow:visible;"/>
			</clipPath>
			<g transform="matrix(1 0 0 1 1.525879e-005 0)" style="clip-path:url(#SVGID_4_);">
				
					<image style="overflow:visible;" width="517" height="205" xlink:href="39B314C9.jpg"  transform="matrix(0.392 0 0 0.392 245.3343 9.5242)">
				</image>
			</g>
		</g>
	</g>
	<g>
		<defs>
			<rect id="SVGID_5_" x="20" y="148" width="149.1" height="93.9"/>
		</defs>
		<clipPath id="SVGID_6_">
			<use xlink:href="#SVGID_5_"  style="overflow:visible;"/>
		</clipPath>
		<g class="st2">
			<defs>
				<rect id="SVGID_7_" x="20" y="148" width="149.1" height="95.1"/>
			</defs>
			<clipPath id="SVGID_8_">
				<use xlink:href="#SVGID_7_"  style="overflow:visible;"/>
			</clipPath>
			<g style="clip-path:url(#SVGID_8_);">
				
					<image style="overflow:visible;" width="240" height="153" xlink:href="39B314CB.jpg"  transform="matrix(0.6214 0 0 0.6214 20.0006 148.0412)">
				</image>
			</g>
		</g>
	</g>
	<g>
		<defs>
			<rect id="SVGID_9_" x="504.1" y="148" width="192.6" height="78.6"/>
		</defs>
		<clipPath id="SVGID_10_">
			<use xlink:href="#SVGID_9_"  style="overflow:visible;"/>
		</clipPath>
		<g style="clip-path:url(#SVGID_10_);">
			
				<image style="overflow:visible;" width="760" height="310" xlink:href="39B314CE.jpg"  transform="matrix(0.2534 0 0 0.2534 504.0847 148.0412)">
			</image>
		</g>
	</g>
</g>
</svg>
