<?xml version="1.0" encoding="utf-8"?>
<!-- Generator: Adobe Illustrator 20.0.0, SVG Export Plug-In . SVG Version: 6.00 Build 0)  -->
<svg version="1.1" id="Capa_1" xmlns="http://www.w3.org/2000/svg" xmlns:xlink="http://www.w3.org/1999/xlink" x="0px" y="0px"
	 viewBox="0 0 500 206" style="enable-background:new 0 0 500 206;" xml:space="preserve">
<style type="text/css">
	.st0{fill:none;stroke:#391754;stroke-width:3;}
	.st1{fill:#3A0048;}
	.st2{fill:#F000A6;}
	.st3{fill:#FFFFFF;}
</style>
<g>
	<line class="st0" x1="233.8" y1="101.7" x2="280" y2="101.7"/>
	<polyline class="st0" points="334,42.7 281.5,42.7 281.5,160.2 334,160.2 	"/>
	<rect x="307.8" y="8.8" class="st1" width="186.3" height="71"/>
	<rect x="307.8" y="126.2" class="st1" width="186.3" height="71"/>
	<rect x="5.9" y="44.2" class="st1" width="238.8" height="112"/>
	<g>
		<path class="st2" d="M51.3,75.6c-0.1,0.4-0.2,0.6-0.7,0.6c-1-0.1-2.8-0.3-4.1-0.3c-1.2,0-2.5,0.3-3.3,4.1l-0.5,2.5
			c-0.2,0.8-0.2,1.5-0.2,2c0,2,1,2.1,2,2.1c1.2,0,3.2-0.2,4.2-0.3c0.5-0.1,0.6,0.2,0.5,0.6l-0.9,4.9c-0.1,0.4-0.2,0.5-0.7,0.7
			c-1.1,0.3-2.5,0.6-4.2,0.6c-5.7,0-8.4-3-8.4-7.8c0-0.9,0.1-1.8,0.3-2.8l0.5-2.5c1.5-7.9,5.1-10.6,11.6-10.6c1.7,0,3.3,0.3,4.2,0.6
			c0.3,0.1,0.6,0.2,0.6,0.7L51.3,75.6z"/>
		<path class="st2" d="M70.7,76l-2.8,16.2c-0.1,0.3-0.2,0.6-0.6,0.6h-4.4c-0.6,0-0.7-0.3-0.6-0.6l0.1-0.9c-1.4,1.2-2.6,1.8-5.1,1.8
			c-3.3,0-5.5-2.1-5.5-5.7c0-1,0.1-1.5,0.2-2.1l0.5-2.9c1.1-6.7,5-8.2,10-8.2c2.3,0,4.8,0.3,7.2,0.7C70.3,75.1,70.8,75.3,70.7,76z
			 M61.7,79.9c-1.3,0-2,0.5-2.4,2.5l-0.6,3c-0.1,0.3-0.1,0.7-0.1,0.9c0,0.9,0.4,1.1,1.2,1.1c0.6,0,1.4-0.2,1.9-0.5l1.2-7
			C62.6,79.9,62.1,79.9,61.7,79.9z"/>
		<path class="st2" d="M84.6,74.2c0.5,0,0.7,0.2,0.7,0.6l-0.8,4.4c-0.1,0.3-0.2,0.6-0.7,0.6h-0.2c-1.9,0-2.9,0.2-3.6,0.5l-2.1,11.8
			c-0.1,0.4-0.2,0.7-0.7,0.7h-5.6c-0.4,0-0.7-0.1-0.6-0.7l3-17c0.1-0.3,0.2-0.6,0.7-0.6h4.9c0.4,0,0.6,0.2,0.5,0.6L79.9,76
			c1.2-1.5,3-1.8,4.5-1.8H84.6z"/>
		<path class="st2" d="M98.2,74.2c0.5,0,0.7,0.2,0.7,0.6l-0.8,4.4c-0.1,0.3-0.2,0.6-0.7,0.6h-0.2c-1.9,0-2.9,0.2-3.6,0.5l-2.1,11.8
			c-0.1,0.4-0.2,0.7-0.7,0.7h-5.6c-0.4,0-0.7-0.1-0.6-0.7l3-17c0.1-0.3,0.2-0.6,0.7-0.6h4.9c0.4,0,0.6,0.2,0.5,0.6L93.5,76
			c1.2-1.5,3-1.8,4.5-1.8H98.2z"/>
		<path class="st2" d="M115.9,82.9l-0.3,1.9c-0.1,0.4-0.4,0.7-0.8,0.7h-9.4c0,0.2-0.1,0.5-0.1,0.7c0,1,0.6,1.3,2.4,1.3
			c1.3,0,4.7-0.2,5.9-0.2c0.5,0,0.7,0.1,0.6,0.6l-0.6,3.3c-0.1,0.5-0.2,0.7-0.7,0.9c-1.7,0.7-4.8,1.2-7.3,1.2c-4,0-7-2.2-7-6.4
			c0-0.6,0.1-1.2,0.2-1.9l0.3-1.9c1.1-6.4,4.9-8.7,10.2-8.7c4.9,0,6.9,2.9,6.9,6.6C116,81.5,116,82.2,115.9,82.9z M108.2,79.4
			c-1.3,0-1.9,0.8-2.2,2.6h3.5c0.1-0.4,0.1-0.7,0.1-1.1C109.6,79.9,109.2,79.4,108.2,79.4z"/>
		<path class="st2" d="M130.5,74.2c0.5,0,0.7,0.2,0.7,0.6l-0.8,4.4c-0.1,0.3-0.2,0.6-0.7,0.6h-0.2c-1.9,0-2.9,0.2-3.6,0.5l-2.1,11.8
			c-0.1,0.4-0.2,0.7-0.7,0.7h-5.6c-0.4,0-0.7-0.1-0.6-0.7l3-17c0.1-0.3,0.2-0.6,0.7-0.6h4.9c0.4,0,0.6,0.2,0.5,0.6l-0.2,0.9
			c1.2-1.5,3-1.8,4.5-1.8H130.5z"/>
		<path class="st2" d="M149.5,76l-2.8,16.2c-0.1,0.3-0.2,0.6-0.6,0.6h-4.4c-0.6,0-0.7-0.3-0.6-0.6l0.1-0.9c-1.4,1.2-2.6,1.8-5.1,1.8
			c-3.3,0-5.5-2.1-5.5-5.7c0-1,0.1-1.5,0.2-2.1l0.5-2.9c1.1-6.7,5-8.2,10-8.2c2.3,0,4.8,0.3,7.2,0.7C149.2,75.1,149.6,75.3,149.5,76
			z M140.6,79.9c-1.3,0-2,0.5-2.4,2.5l-0.6,3c-0.1,0.3-0.1,0.7-0.1,0.9c0,0.9,0.4,1.1,1.2,1.1c0.6,0,1.4-0.2,1.9-0.5l1.2-7
			C141.4,79.9,140.9,79.9,140.6,79.9z"/>
		<path class="st2" d="M166.2,75.7l-0.7,4c-0.1,0.4-0.1,0.8-0.7,0.7c-0.9-0.2-4.2-0.6-5.4-0.6c-0.3,0-0.7,0-0.7,0.3
			c0,0.2,0.1,0.3,0.7,0.7l2.4,1.3c2.8,1.5,3.1,3.1,3.1,4.7c0,4.5-3.7,6.2-9.1,6.2c-2.7,0-4.5-0.4-5.6-0.8c-0.4-0.2-0.5-0.3-0.5-0.7
			l0.7-3.9c0.1-0.5,0.3-0.8,0.9-0.7c2,0.3,4.2,0.6,5.3,0.6c0.5,0,1.2,0,1.2-0.7c0-0.2-0.1-0.3-0.6-0.6l-2.8-1.5
			c-1.8-1-2.8-2.4-2.8-4.4c0-5,4-6.2,8.3-6.2c2.3,0,4.5,0.5,5.8,0.8C166.1,75.1,166.3,75.2,166.2,75.7z"/>
	</g>
	<g>
		<path class="st2" d="M53.7,105l-2.8,16.2c-0.1,0.3-0.2,0.6-0.6,0.6h-4.4c-0.6,0-0.7-0.3-0.6-0.6l0.1-0.9c-1.4,1.2-2.6,1.8-5.1,1.8
			c-3.3,0-5.5-2.1-5.5-5.7c0-1,0.1-1.5,0.2-2.1l0.5-2.9c1.1-6.7,5-8.2,10-8.2c2.3,0,4.8,0.3,7.2,0.7C53.4,104,53.8,104.3,53.7,105z
			 M44.7,108.9c-1.3,0-2,0.5-2.4,2.5l-0.6,3c-0.1,0.3-0.1,0.7-0.1,0.9c0,0.9,0.4,1.1,1.2,1.1c0.6,0,1.4-0.2,1.9-0.5l1.2-7
			C45.6,108.9,45.1,108.9,44.7,108.9z"/>
		<path class="st2" d="M70.4,104.7l-0.7,4c-0.1,0.4-0.1,0.8-0.7,0.7c-0.9-0.2-4.2-0.6-5.4-0.6c-0.3,0-0.7,0-0.7,0.3
			c0,0.2,0.1,0.3,0.7,0.7l2.4,1.3c2.8,1.5,3.1,3.1,3.1,4.7c0,4.5-3.7,6.2-9.1,6.2c-2.7,0-4.5-0.4-5.6-0.8c-0.4-0.2-0.5-0.3-0.5-0.7
			l0.7-3.9c0.1-0.5,0.3-0.8,0.9-0.7c2,0.3,4.2,0.6,5.3,0.6c0.5,0,1.2,0,1.2-0.7c0-0.2-0.1-0.3-0.6-0.6l-2.8-1.5
			c-1.8-1-2.8-2.5-2.8-4.4c0-5,4-6.2,8.3-6.2c2.3,0,4.5,0.5,5.8,0.8C70.3,104.1,70.4,104.2,70.4,104.7z"/>
		<path class="st2" d="M88.9,111.9l-0.2,1.4c-1.1,6.6-4.8,8.7-10.1,8.7c-4.7,0-7.2-2.5-7.2-6.6c0-0.7,0.1-1.4,0.2-2.1l0.2-1.4
			c1.1-6.5,4.8-8.7,10.1-8.7c4.6,0,7.2,2.3,7.2,6.5C89.1,110.4,89,111.1,88.9,111.9z M80.9,108.9c-1.1,0-1.8,0.9-2.2,3l-0.2,1.4
			c-0.1,0.6-0.2,1.1-0.2,1.5c0,1.2,0.5,1.6,1.3,1.6c1.1,0,1.7-0.6,2.2-3L82,112c0.1-0.6,0.2-1.1,0.2-1.5
			C82.2,109.2,81.7,108.9,80.9,108.9z"/>
		<path class="st2" d="M104.4,103.7c0.3,0.1,0.6,0.2,0.5,0.6l-0.7,4.2c-0.1,0.3-0.4,0.7-0.7,0.7l0,0c-1,0-2.1-0.2-3.3-0.2
			c-1.3,0-1.8,0.8-2.1,2.6l-0.4,2c-0.1,0.5-0.1,0.9-0.1,1.2c0,1,0.4,1.4,1.3,1.4c1.2,0,2.4-0.1,3.4-0.2c0.6,0,0.7,0.3,0.6,0.7
			L102,121c-0.1,0.4-0.4,0.5-0.7,0.6c-1.3,0.3-2.7,0.5-4.5,0.5c-4.3,0-6.3-2.8-6.3-6.4c0-0.7,0.1-1.3,0.2-2l0.4-2
			c1-5.7,4-8.4,9.1-8.4C102,103.2,103.6,103.5,104.4,103.7z"/>
		<path class="st2" d="M104.7,121.1l3-17c0.1-0.4,0.3-0.7,0.8-0.7h5.5c0.6,0,0.6,0.3,0.6,0.7l-3,17c-0.1,0.4-0.2,0.7-0.8,0.7h-5.5
			C104.9,121.8,104.7,121.5,104.7,121.1z M115.2,97.6c0.4,0,0.7,0.1,0.6,0.7l-0.6,3.2c-0.1,0.4-0.2,0.7-0.8,0.7h-5.9
			c-0.6,0-0.7-0.3-0.6-0.7l0.6-3.2c0.1-0.4,0.2-0.7,0.8-0.7H115.2z"/>
		<path class="st2" d="M134.5,105l-2.8,16.2c-0.1,0.3-0.2,0.6-0.6,0.6h-4.4c-0.6,0-0.7-0.3-0.6-0.6l0.1-0.9
			c-1.4,1.2-2.6,1.8-5.1,1.8c-3.3,0-5.5-2.1-5.5-5.7c0-1,0.1-1.5,0.2-2.1l0.5-2.9c1.1-6.7,5-8.2,10-8.2c2.3,0,4.8,0.3,7.2,0.7
			C134.1,104,134.6,104.3,134.5,105z M125.5,108.9c-1.3,0-2,0.5-2.4,2.5l-0.6,3c-0.1,0.3-0.1,0.7-0.1,0.9c0,0.9,0.4,1.1,1.2,1.1
			c0.6,0,1.4-0.2,1.9-0.5l1.2-7C126.4,108.9,125.9,108.9,125.5,108.9z"/>
		<path class="st2" d="M154.8,97.6c0.4,0,0.7,0.1,0.6,0.7l-3.9,22c-0.1,0.5-0.4,0.9-1.5,1.1c-1.5,0.3-4.2,0.7-7.4,0.7
			c-4.5,0-7.2-2.9-7.2-6.7c0-0.5,0.1-1,0.2-1.6l0.4-2.4c1.1-5.9,4.2-8.2,9.6-8.2c0.7,0,1.6,0.1,2,0.2l0.9-5.1
			c0.1-0.4,0.2-0.7,0.7-0.7H154.8z M144.9,108.9c-1.3,0-1.8,0.8-2.1,2.5l-0.4,2.4c-0.1,0.5-0.1,0.8-0.1,1.2c0,0.9,0.4,1.4,1.3,1.4
			c0.8,0,1.1,0,1.7-0.1l1.3-7.3C146.1,108.9,145.6,108.9,144.9,108.9z"/>
		<path class="st2" d="M174.1,105l-2.8,16.2c-0.1,0.3-0.2,0.6-0.6,0.6h-4.4c-0.6,0-0.7-0.3-0.6-0.6l0.1-0.9
			c-1.4,1.2-2.6,1.8-5.1,1.8c-3.3,0-5.5-2.1-5.5-5.7c0-1,0.1-1.5,0.2-2.1l0.5-2.9c1.1-6.7,5-8.2,10-8.2c2.3,0,4.8,0.3,7.2,0.7
			C173.8,104,174.2,104.3,174.1,105z M165.1,108.9c-1.3,0-2,0.5-2.4,2.5l-0.6,3c-0.1,0.3-0.1,0.7-0.1,0.9c0,0.9,0.4,1.1,1.2,1.1
			c0.6,0,1.4-0.2,1.9-0.5l1.2-7C166,108.9,165.5,108.9,165.1,108.9z"/>
		<path class="st2" d="M190.8,104.7l-0.7,4c-0.1,0.4-0.1,0.8-0.7,0.7c-0.9-0.2-4.2-0.6-5.4-0.6c-0.3,0-0.7,0-0.7,0.3
			c0,0.2,0.1,0.3,0.7,0.7l2.4,1.3c2.8,1.5,3.1,3.1,3.1,4.7c0,4.5-3.7,6.2-9.1,6.2c-2.7,0-4.5-0.4-5.6-0.8c-0.4-0.2-0.5-0.3-0.5-0.7
			l0.7-3.9c0.1-0.5,0.3-0.8,0.9-0.7c2,0.3,4.2,0.6,5.3,0.6c0.5,0,1.2,0,1.2-0.7c0-0.2-0.1-0.3-0.6-0.6l-2.8-1.5
			c-1.8-1-2.8-2.5-2.8-4.4c0-5,4-6.2,8.3-6.2c2.3,0,4.5,0.5,5.8,0.8C190.7,104.1,190.8,104.2,190.8,104.7z"/>
	</g>
</g>
<g>
	<path class="st3" d="M378.5,38.3h-2.8c-0.2,0-0.4-0.2-0.4-0.4l-0.7-3.3h-4.1l-0.7,3.3c0,0.2-0.2,0.4-0.4,0.4h-2.8
		c-0.2,0-0.3-0.1-0.3-0.3c0,0,0-0.1,0-0.1l3-12.3c0.5-1.9,1.9-2.2,3.3-2.2s2.8,0.3,3.3,2.2l3,12.3c0,0,0,0.1,0,0.1
		C378.9,38.2,378.7,38.3,378.5,38.3z M372.9,26.5c0-0.2-0.1-0.3-0.3-0.3s-0.2,0.1-0.3,0.3l-1.2,5.5h3L372.9,26.5z"/>
	<path class="st3" d="M389.1,38.3h-2.4c-0.2,0-0.4-0.2-0.4-0.4v-6.6c0-1.4-0.3-1.8-1.5-1.8c-0.6,0-1.2,0.3-1.9,0.6v7.8
		c0,0.2-0.2,0.4-0.4,0.4h-2.4c-0.2,0-0.4-0.2-0.4-0.4V27.3c0-0.2,0.2-0.4,0.4-0.4h2.2c0.2,0,0.4,0.2,0.4,0.4v0.5c1.1-0.8,2-1,3.2-1
		c2.9,0,3.5,2,3.5,4.5v6.6C389.6,38.1,389.4,38.3,389.1,38.3z"/>
	<path class="st3" d="M399.7,38.3h-2.2c-0.2,0-0.4-0.2-0.4-0.4v-0.3c-0.8,0.6-1.6,0.9-2.8,0.9c-1.7,0-3.4-0.8-3.4-3.4v-0.2
		c0-2.3,1.5-3.4,4.9-3.4h1.1v-0.7c0-1.1-0.6-1.4-1.5-1.4c-1.3,0-2.7,0.1-3.3,0.1H392c-0.2,0-0.4-0.1-0.4-0.4v-1.6
		c0-0.2,0.1-0.4,0.4-0.4c0.7-0.2,2.1-0.4,3.4-0.4c2.9,0,4.6,1.2,4.6,4.1v7.1C400.1,38.2,399.9,38.3,399.7,38.3z M396.9,33.5h-1.1
		c-1.4,0-1.7,0.5-1.7,1.5v0.2c0,0.8,0.4,1,1.3,1c0.6,0,1.2-0.2,1.6-0.4V33.5z"/>
	<path class="st3" d="M404.7,38.3h-2.4c-0.2,0-0.4-0.2-0.4-0.4V23.5c0-0.2,0.2-0.4,0.4-0.4h2.4c0.2,0,0.4,0.2,0.4,0.4v14.4
		C405.1,38.1,404.9,38.3,404.7,38.3z"/>
	<path class="st3" d="M409.8,25.7h-2.6c-0.2,0-0.4-0.2-0.4-0.4v-1.8c0-0.2,0.2-0.4,0.4-0.4h2.6c0.2,0,0.4,0.2,0.4,0.4v1.8
		C410.2,25.5,410,25.7,409.8,25.7z M409.7,38.3h-2.4c-0.2,0-0.4-0.2-0.4-0.4V27.3c0-0.2,0.2-0.4,0.4-0.4h2.4c0.2,0,0.4,0.2,0.4,0.4
		v10.6C410.1,38.2,409.9,38.3,409.7,38.3z"/>
	<path class="st3" d="M415.6,38.5c-1.1,0-2.6-0.2-3.6-0.4c-0.2-0.1-0.4-0.2-0.4-0.5V36c0-0.2,0.1-0.4,0.4-0.4c0,0,0.1,0,0.1,0
		c1.1,0.1,2.7,0.3,3.4,0.3c1,0,1.2-0.3,1.2-0.8c0-0.3-0.2-0.5-0.7-0.8l-2.6-1.5c-1.1-0.6-1.8-1.6-1.8-2.9c0-2,1.3-3.1,4.1-3.1
		c1.6,0,2.5,0.2,3.5,0.5c0.2,0.1,0.4,0.2,0.4,0.5v1.6c0,0.2-0.1,0.4-0.3,0.4c0,0,0,0-0.1,0c-0.6-0.1-2.3-0.3-3.3-0.3
		c-0.8,0-1.1,0.1-1.1,0.6c0,0.3,0.2,0.5,0.6,0.7l2.5,1.4c1.6,1,2,2,2,3.1C419.9,37,418.5,38.5,415.6,38.5z"/>
	<path class="st3" d="M427.3,38.4c-0.6,0.1-1,0.2-1.6,0.2c-2.2,0-3.3-0.6-3.3-3.4v-5.8l-1.6-0.3c-0.2,0-0.4-0.2-0.4-0.4v-1.3
		c0-0.2,0.2-0.4,0.4-0.4h1.6v-1.6c0-0.2,0.2-0.4,0.4-0.4l2.4-0.4c0,0,0,0,0.1,0c0.2,0,0.4,0.1,0.4,0.3v2.1h1.6
		c0.2,0,0.4,0.2,0.4,0.4V29c0,0.2-0.2,0.4-0.4,0.4h-1.6v5.8c0,0.8,0.1,0.9,0.7,0.9h1c0.3,0,0.4,0.1,0.4,0.3V38
		C427.7,38.2,427.6,38.3,427.3,38.4z"/>
	<path class="st3" d="M437.3,38.3H435c-0.2,0-0.4-0.2-0.4-0.4v-0.3c-0.8,0.6-1.6,0.9-2.8,0.9c-1.7,0-3.4-0.8-3.4-3.4v-0.2
		c0-2.3,1.5-3.4,4.9-3.4h1.1v-0.7c0-1.1-0.6-1.4-1.5-1.4c-1.3,0-2.7,0.1-3.3,0.1h-0.1c-0.2,0-0.4-0.1-0.4-0.4v-1.6
		c0-0.2,0.1-0.4,0.4-0.4c0.7-0.2,2.1-0.4,3.4-0.4c2.9,0,4.6,1.2,4.6,4.1v7.1C437.7,38.2,437.5,38.3,437.3,38.3z M434.5,33.5h-1.1
		c-1.4,0-1.7,0.5-1.7,1.5v0.2c0,0.8,0.4,1,1.3,1c0.6,0,1.2-0.2,1.6-0.4V33.5z"/>
	<path class="st3" d="M350.7,57c-0.5,0-1.1,0-1.6-0.1v4.8c0,0.2-0.2,0.4-0.4,0.4h-2.6c-0.2,0-0.4-0.2-0.4-0.4V48.4
		c0-0.7,0.3-0.9,0.9-1c1-0.2,2.6-0.3,4-0.3c3,0,6,1.1,6,4.8v0.2C356.6,55.9,353.6,57,350.7,57z M353.2,52c0-1.4-0.9-2-2.5-2
		c-0.3,0-1.4,0-1.6,0.1v4.1c0.2,0,1.4,0,1.6,0c1.8,0,2.5-0.7,2.5-2V52z"/>
	<path class="st3" d="M363.7,53.3h-0.2c-1,0-1.8,0.3-2.6,0.7v7.8c0,0.2-0.2,0.4-0.4,0.4h-2.4c-0.2,0-0.4-0.2-0.4-0.4V51.2
		c0-0.2,0.2-0.4,0.4-0.4h2.4c0.2,0,0.4,0.2,0.4,0.4v0.4c0.7-0.6,1.7-1,2.7-1c0.2,0,0.4,0.2,0.4,0.4v1.9
		C364,53.1,363.9,53.3,363.7,53.3z"/>
	<path class="st3" d="M369.3,62.3c-3.2,0-5-2-5-5.2v-1.4c0-3.2,1.8-5.2,5-5.2c3.2,0,5,2,5,5.2v1.4C374.3,60.3,372.5,62.3,369.3,62.3
		z M371.1,55.8c0-1.6-0.6-2.4-1.8-2.4s-1.8,0.8-1.8,2.4v1.4c0,1.6,0.6,2.4,1.8,2.4s1.8-0.8,1.8-2.4V55.8z"/>
	<path class="st3" d="M385.6,52.9l-0.6,0.2c0.2,0.4,0.4,1,0.4,1.5v0.2c0,2.6-1.8,3.7-4.9,3.7c-0.9,0-1.7-0.1-2.1-0.3
		c-0.2,0.1-0.3,0.3-0.3,0.5c0,0.3,0.1,0.5,0.6,0.6l2.2,0.5c3.5,0.8,4.6,1.3,4.6,3.2V63c0,2.2-1.7,3.2-5.2,3.2c-3.3,0-5-1.2-5-3.2
		v-0.2c0-0.8,0.3-1.6,1.2-2.2c-0.7-0.4-1-1.2-1-1.8c0-0.7,0.4-1.3,0.9-1.7c-0.6-0.6-0.9-1.6-0.9-2.4v-0.2c0-2.2,1.5-3.8,5-3.8h4.9
		c0.3,0,0.5,0.2,0.5,0.5v1.1C386,52.7,385.9,52.8,385.6,52.9z M382.4,62.8c0-0.4-0.3-0.6-2-1l-1.5-0.3c-0.2,0.3-0.4,0.7-0.4,1.4V63
		c0,0.7,0.5,1,2,1c1.6,0,1.9-0.4,1.9-1V62.8z M382.3,54.5c0-0.8-0.4-1.4-1.8-1.4c-1.4,0-1.8,0.6-1.8,1.4v0.2c0,0.7,0.3,1.4,1.8,1.4
		c1.4,0,1.8-0.5,1.8-1.4V54.5z"/>
	<path class="st3" d="M392.9,53.3h-0.2c-1,0-1.8,0.3-2.6,0.7v7.8c0,0.2-0.2,0.4-0.4,0.4h-2.4c-0.2,0-0.4-0.2-0.4-0.4V51.2
		c0-0.2,0.2-0.4,0.4-0.4h2.4c0.2,0,0.4,0.2,0.4,0.4v0.4c0.7-0.6,1.7-1,2.7-1c0.2,0,0.4,0.2,0.4,0.4v1.9
		C393.2,53.1,393.1,53.3,392.9,53.3z"/>
	<path class="st3" d="M402.1,62.2h-2.2c-0.2,0-0.4-0.2-0.4-0.4v-0.3c-0.8,0.6-1.6,0.9-2.8,0.9c-1.7,0-3.4-0.8-3.4-3.4v-0.2
		c0-2.3,1.5-3.4,4.9-3.4h1.1v-0.7c0-1.1-0.6-1.4-1.5-1.4c-1.3,0-2.7,0.1-3.3,0.1h-0.1c-0.2,0-0.4-0.1-0.4-0.4v-1.6
		c0-0.2,0.1-0.4,0.4-0.4c0.7-0.2,2.1-0.4,3.4-0.4c2.9,0,4.6,1.2,4.6,4.1v7.1C402.5,62,402.3,62.2,402.1,62.2z M399.4,57.3h-1.1
		c-1.4,0-1.7,0.5-1.7,1.5v0.2c0,0.8,0.4,1,1.3,1c0.6,0,1.2-0.2,1.6-0.4V57.3z"/>
	<path class="st3" d="M418.9,62.2h-2.4c-0.2,0-0.4-0.2-0.4-0.4V55c0-1.3-0.3-1.6-1.2-1.6c-0.3,0-0.9,0.1-1.5,0.4
		c0,0.4,0.1,0.9,0.1,1.3v6.8c0,0.2-0.2,0.4-0.4,0.4h-2.4c-0.2,0-0.4-0.2-0.4-0.4V55c0-1.3-0.2-1.6-1.2-1.6c-0.4,0-0.9,0.2-1.5,0.5
		v7.9c0,0.2-0.2,0.4-0.4,0.4h-2.4c-0.2,0-0.4-0.2-0.4-0.4V51.2c0-0.2,0.2-0.4,0.4-0.4h2.3c0.2,0,0.4,0.2,0.4,0.4v0.4
		c0.8-0.6,1.8-1,2.9-1c1.1,0,1.8,0.3,2.3,1c1.2-0.7,1.9-1,3.2-1c2.6,0,3.4,1.7,3.4,4.4v6.8C419.3,62,419.1,62.2,418.9,62.2z"/>
	<path class="st3" d="M429.4,62.2h-2.2c-0.2,0-0.4-0.2-0.4-0.4v-0.3c-0.8,0.6-1.6,0.9-2.8,0.9c-1.7,0-3.4-0.8-3.4-3.4v-0.2
		c0-2.3,1.5-3.4,4.9-3.4h1.1v-0.7c0-1.1-0.6-1.4-1.5-1.4c-1.3,0-2.7,0.1-3.3,0.1h-0.1c-0.2,0-0.4-0.1-0.4-0.4v-1.6
		c0-0.2,0.1-0.4,0.4-0.4c0.7-0.2,2.1-0.4,3.4-0.4c2.9,0,4.6,1.2,4.6,4.1v7.1C429.8,62,429.6,62.2,429.4,62.2z M426.6,57.3h-1.1
		c-1.4,0-1.7,0.5-1.7,1.5v0.2c0,0.8,0.4,1,1.3,1c0.6,0,1.2-0.2,1.6-0.4V57.3z"/>
	<path class="st3" d="M440.4,61.8c-1.1,0.3-2.7,0.5-4.2,0.5c-3.2,0-5-1.9-5-5.1v-1.5c0-3.1,1.6-5.1,5-5.1c0.4,0,1.1,0.1,1.6,0.1
		v-3.4c0-0.2,0.2-0.4,0.4-0.4h2.4c0.2,0,0.4,0.2,0.4,0.4v13.9C441,61.6,440.9,61.7,440.4,61.8z M437.8,53.4
		c-0.5-0.1-1.2-0.1-1.6-0.1c-1.4,0-1.8,1-1.8,2.4v1.5c0,1.4,0.4,2.4,1.8,2.4c0.7,0,1.3-0.1,1.6-0.1V53.4z"/>
	<path class="st3" d="M447.4,62.3c-3.2,0-5-2-5-5.2v-1.4c0-3.2,1.8-5.2,5-5.2c3.2,0,5,2,5,5.2v1.4C452.4,60.3,450.6,62.3,447.4,62.3
		z M449.2,55.8c0-1.6-0.6-2.4-1.8-2.4s-1.8,0.8-1.8,2.4v1.4c0,1.6,0.6,2.4,1.8,2.4s1.8-0.8,1.8-2.4V55.8z"/>
	<path class="st3" d="M459.8,53.3h-0.2c-1,0-1.8,0.3-2.6,0.7v7.8c0,0.2-0.2,0.4-0.4,0.4h-2.4c-0.2,0-0.4-0.2-0.4-0.4V51.2
		c0-0.2,0.2-0.4,0.4-0.4h2.4c0.2,0,0.4,0.2,0.4,0.4v0.4c0.7-0.6,1.7-1,2.7-1c0.2,0,0.4,0.2,0.4,0.4v1.9
		C460.1,53.1,459.9,53.3,459.8,53.3z"/>
</g>
<g>
	<path class="st3" d="M347.9,158h-2.7c-0.2,0-0.4-0.2-0.4-0.4v-14c0-0.2,0.1-0.4,0.4-0.4h2.7c0.2,0,0.4,0.2,0.4,0.4v14
		C348.3,157.8,348.1,158,347.9,158z"/>
	<path class="st3" d="M359.6,158h-2.4c-0.2,0-0.4-0.2-0.4-0.4V151c0-1.4-0.3-1.8-1.5-1.8c-0.6,0-1.2,0.3-1.9,0.6v7.8
		c0,0.2-0.2,0.4-0.4,0.4h-2.4c-0.2,0-0.4-0.2-0.4-0.4V147c0-0.2,0.2-0.4,0.4-0.4h2.2c0.2,0,0.4,0.2,0.4,0.4v0.5c1.1-0.8,2-1,3.2-1
		c2.9,0,3.5,2,3.5,4.5v6.6C360,157.8,359.8,158,359.6,158z"/>
	<path class="st3" d="M371.7,148.7l-0.6,0.2c0.2,0.4,0.4,1,0.4,1.5v0.2c0,2.6-1.8,3.7-4.9,3.7c-0.9,0-1.7-0.1-2.1-0.3
		c-0.2,0.1-0.3,0.3-0.3,0.5c0,0.3,0.1,0.5,0.6,0.6l2.2,0.5c3.5,0.8,4.6,1.3,4.6,3.2v0.2c0,2.2-1.7,3.2-5.2,3.2c-3.3,0-5-1.2-5-3.2
		v-0.2c0-0.8,0.3-1.6,1.2-2.2c-0.7-0.4-1-1.2-1-1.8c0-0.7,0.4-1.3,0.9-1.7c-0.6-0.6-0.9-1.6-0.9-2.4v-0.2c0-2.2,1.5-3.8,5-3.8h4.9
		c0.3,0,0.5,0.2,0.5,0.5v1.1C372,148.5,371.9,148.6,371.7,148.7z M368.5,158.7c0-0.4-0.3-0.6-2-1l-1.5-0.3c-0.2,0.3-0.4,0.7-0.4,1.4
		v0.2c0,0.7,0.5,1,2,1c1.6,0,1.9-0.4,1.9-1V158.7z M368.4,150.4c0-0.8-0.4-1.4-1.8-1.4c-1.4,0-1.8,0.6-1.8,1.4v0.2
		c0,0.7,0.3,1.4,1.8,1.4c1.4,0,1.8-0.5,1.8-1.4V150.4z"/>
	<path class="st3" d="M382.2,153.3h-6.3v0c0,1.1,0.5,2.2,2,2.2c1.3,0,3-0.1,3.8-0.2c0,0,0,0,0.1,0c0.2,0,0.4,0.1,0.4,0.3v1.5
		c0,0.3-0.1,0.5-0.4,0.5c-1.3,0.3-2.3,0.5-4.1,0.5c-2.4,0-5-1.3-5-5.1v-1.4c0-3.2,1.9-5.2,5-5.2c3.3,0,4.9,2.2,4.9,5.2v1.2
		C382.7,153.1,382.5,153.3,382.2,153.3z M379.5,151.2c0-1.5-0.7-2.2-1.8-2.2c-1.1,0-1.8,0.8-1.8,2.2v0.1L379.5,151.2L379.5,151.2z"
		/>
	<path class="st3" d="M393.5,158h-2.4c-0.2,0-0.4-0.2-0.4-0.4V151c0-1.4-0.3-1.8-1.5-1.8c-0.6,0-1.2,0.3-1.9,0.6v7.8
		c0,0.2-0.2,0.4-0.4,0.4h-2.4c-0.2,0-0.4-0.2-0.4-0.4V147c0-0.2,0.2-0.4,0.4-0.4h2.2c0.2,0,0.4,0.2,0.4,0.4v0.5c1.1-0.8,2-1,3.2-1
		c2.9,0,3.5,2,3.5,4.5v6.6C393.9,157.8,393.7,158,393.5,158z"/>
	<path class="st3" d="M398.6,145.3H396c-0.2,0-0.4-0.2-0.4-0.4v-1.8c0-0.2,0.2-0.4,0.4-0.4h2.6c0.2,0,0.4,0.2,0.4,0.4v1.8
		C399,145.1,398.8,145.3,398.6,145.3z M398.5,158h-2.4c-0.2,0-0.4-0.2-0.4-0.4V147c0-0.2,0.2-0.4,0.4-0.4h2.4c0.2,0,0.4,0.2,0.4,0.4
		v10.6C398.9,157.8,398.7,158,398.5,158z"/>
	<path class="st3" d="M410,153.3h-6.3v0c0,1.1,0.5,2.2,2,2.2c1.3,0,3-0.1,3.8-0.2c0,0,0,0,0.1,0c0.2,0,0.4,0.1,0.4,0.3v1.5
		c0,0.3-0.1,0.5-0.4,0.5c-1.3,0.3-2.3,0.5-4.1,0.5c-2.4,0-5-1.3-5-5.1v-1.4c0-3.2,1.9-5.2,5-5.2c3.3,0,4.9,2.2,4.9,5.2v1.2
		C410.4,153.1,410.2,153.3,410,153.3z M407.2,151.2c0-1.5-0.7-2.2-1.8-2.2c-1.1,0-1.8,0.8-1.8,2.2v0.1L407.2,151.2L407.2,151.2z"/>
	<path class="st3" d="M417.8,149.1h-0.2c-1,0-1.8,0.3-2.6,0.7v7.8c0,0.2-0.2,0.4-0.4,0.4h-2.4c-0.2,0-0.4-0.2-0.4-0.4V147
		c0-0.2,0.2-0.4,0.4-0.4h2.4c0.2,0,0.4,0.2,0.4,0.4v0.4c0.7-0.6,1.7-1,2.7-1c0.2,0,0.4,0.2,0.4,0.4v1.9
		C418.1,148.9,418,149.1,417.8,149.1z"/>
	<path class="st3" d="M424.3,142.8l-2.4,2.4c-0.2,0.2-0.2,0.2-0.5,0.2h-2.1c-0.1,0-0.2-0.1-0.2-0.1c0-0.1,0-0.1,0.1-0.2l1.8-2.3
		c0.2-0.2,0.3-0.3,0.5-0.3h2.6c0.1,0,0.2,0.1,0.2,0.1C424.4,142.7,424.4,142.8,424.3,142.8z M421.9,158h-2.4c-0.2,0-0.4-0.2-0.4-0.4
		V147c0-0.2,0.2-0.4,0.4-0.4h2.4c0.2,0,0.4,0.2,0.4,0.4v10.5C422.4,157.8,422.2,158,421.9,158z"/>
	<path class="st3" d="M432.6,158h-2.2c-0.2,0-0.4-0.2-0.4-0.4v-0.3c-0.8,0.6-1.6,0.9-2.8,0.9c-1.7,0-3.4-0.8-3.4-3.4v-0.2
		c0-2.3,1.5-3.4,4.9-3.4h1.1v-0.7c0-1.1-0.6-1.4-1.5-1.4c-1.3,0-2.7,0.1-3.3,0.1h-0.1c-0.2,0-0.4-0.1-0.4-0.4v-1.6
		c0-0.2,0.1-0.4,0.4-0.4c0.7-0.2,2.1-0.4,3.4-0.4c2.9,0,4.6,1.2,4.6,4.1v7.1C433,157.8,432.8,158,432.6,158z M429.8,153.1h-1.1
		c-1.4,0-1.7,0.5-1.7,1.5v0.2c0,0.8,0.4,1,1.3,1c0.6,0,1.2-0.2,1.6-0.4V153.1z"/>
	<path class="st3" d="M448.5,153.3h-6.3v0c0,1.1,0.5,2.2,2,2.2c1.3,0,3-0.1,3.8-0.2c0,0,0,0,0.1,0c0.2,0,0.4,0.1,0.4,0.3v1.5
		c0,0.3-0.1,0.5-0.4,0.5c-1.3,0.3-2.3,0.5-4.1,0.5c-2.4,0-5-1.3-5-5.1v-1.4c0-3.2,1.9-5.2,5-5.2c3.3,0,4.9,2.2,4.9,5.2v1.2
		C448.9,153.1,448.7,153.3,448.5,153.3z M445.7,151.2c0-1.5-0.7-2.2-1.8-2.2c-1.1,0-1.8,0.8-1.8,2.2v0.1L445.7,151.2L445.7,151.2z"
		/>
	<path class="st3" d="M459.7,158h-2.4c-0.2,0-0.4-0.2-0.4-0.4V151c0-1.4-0.3-1.8-1.5-1.8c-0.6,0-1.2,0.3-1.9,0.6v7.8
		c0,0.2-0.2,0.4-0.4,0.4h-2.4c-0.2,0-0.4-0.2-0.4-0.4V147c0-0.2,0.2-0.4,0.4-0.4h2.2c0.2,0,0.4,0.2,0.4,0.4v0.5c1.1-0.8,2-1,3.2-1
		c2.9,0,3.5,2,3.5,4.5v6.6C460.1,157.8,459.9,158,459.7,158z"/>
	<path class="st3" d="M355.8,181.8h-2.7c-0.2,0-0.4-0.2-0.4-0.4v-14c0-0.2,0.1-0.4,0.4-0.4h2.7c0.2,0,0.4,0.2,0.4,0.4v14
		C356.2,181.7,356.1,181.8,355.8,181.8z"/>
	<path class="st3" d="M367.5,181.8h-2.4c-0.2,0-0.4-0.2-0.4-0.4v-6.6c0-1.4-0.3-1.8-1.5-1.8c-0.6,0-1.2,0.3-1.9,0.6v7.8
		c0,0.2-0.2,0.4-0.4,0.4h-2.4c-0.2,0-0.4-0.2-0.4-0.4v-10.6c0-0.2,0.2-0.4,0.4-0.4h2.2c0.2,0,0.4,0.2,0.4,0.4v0.5c1.1-0.8,2-1,3.2-1
		c2.9,0,3.5,2,3.5,4.5v6.6C367.9,181.6,367.7,181.8,367.5,181.8z"/>
	<path class="st3" d="M375.5,168.9h-1c-0.6,0-0.7,0.1-0.7,0.9v0.7h1.6c0.2,0,0.4,0.2,0.4,0.4v1.6c0,0.2-0.2,0.4-0.4,0.4h-1.6v8.6
		c0,0.2-0.2,0.4-0.4,0.4h-2.4c-0.2,0-0.4-0.2-0.4-0.4v-8.6l-1.6-0.3c-0.2,0-0.4-0.2-0.4-0.4v-1.3c0-0.2,0.2-0.4,0.4-0.4h1.6v-0.6
		c0-2.8,1.2-3.4,3.3-3.4c0.6,0,1,0.1,1.6,0.2c0.2,0,0.4,0.2,0.4,0.4v1.5C376,168.7,375.8,168.9,375.5,168.9z"/>
	<path class="st3" d="M381.3,182c-3.2,0-5-2-5-5.2v-1.4c0-3.2,1.8-5.2,5-5.2c3.2,0,5,2,5,5.2v1.4C386.3,180,384.5,182,381.3,182z
		 M383.1,175.5c0-1.6-0.6-2.4-1.8-2.4s-1.8,0.8-1.8,2.4v1.4c0,1.6,0.6,2.4,1.8,2.4s1.8-0.8,1.8-2.4V175.5z"/>
	<path class="st3" d="M393.7,173h-0.2c-1,0-1.8,0.3-2.6,0.7v7.8c0,0.2-0.2,0.4-0.4,0.4h-2.4c-0.2,0-0.4-0.2-0.4-0.4v-10.6
		c0-0.2,0.2-0.4,0.4-0.4h2.4c0.2,0,0.4,0.2,0.4,0.4v0.4c0.7-0.6,1.7-1,2.7-1c0.2,0,0.4,0.2,0.4,0.4v1.9
		C394,172.8,393.8,173,393.7,173z"/>
	<path class="st3" d="M409.5,181.8h-2.4c-0.2,0-0.4-0.2-0.4-0.4v-6.8c0-1.3-0.3-1.6-1.2-1.6c-0.3,0-0.9,0.1-1.5,0.4
		c0,0.4,0.1,0.9,0.1,1.3v6.8c0,0.2-0.2,0.4-0.4,0.4h-2.4c-0.2,0-0.4-0.2-0.4-0.4v-6.8c0-1.3-0.2-1.6-1.2-1.6c-0.4,0-0.9,0.2-1.5,0.5
		v7.9c0,0.2-0.2,0.4-0.4,0.4h-2.4c-0.2,0-0.4-0.2-0.4-0.4v-10.6c0-0.2,0.2-0.4,0.4-0.4h2.3c0.2,0,0.4,0.2,0.4,0.4v0.4
		c0.8-0.6,1.8-1,2.9-1c1.1,0,1.8,0.3,2.3,1c1.2-0.7,1.9-1,3.2-1c2.6,0,3.4,1.7,3.4,4.4v6.8C410,181.6,409.8,181.8,409.5,181.8z"/>
	<path class="st3" d="M420.1,181.8h-2.2c-0.2,0-0.4-0.2-0.4-0.4v-0.3c-0.8,0.6-1.6,0.9-2.8,0.9c-1.7,0-3.4-0.8-3.4-3.4v-0.2
		c0-2.3,1.5-3.4,4.9-3.4h1.1v-0.7c0-1.1-0.6-1.4-1.5-1.4c-1.3,0-2.7,0.1-3.3,0.1h-0.1c-0.2,0-0.4-0.1-0.4-0.4v-1.6
		c0-0.2,0.1-0.4,0.4-0.4c0.7-0.2,2.1-0.4,3.4-0.4c2.9,0,4.6,1.2,4.6,4.1v7.1C420.5,181.7,420.3,181.8,420.1,181.8z M417.3,177h-1.1
		c-1.4,0-1.7,0.5-1.7,1.5v0.2c0,0.8,0.4,1,1.3,1c0.6,0,1.2-0.2,1.6-0.4V177z M419.7,166.7l-2.4,2.4c-0.2,0.2-0.2,0.2-0.5,0.2h-2.1
		c-0.1,0-0.2-0.1-0.2-0.1c0-0.1,0-0.1,0.1-0.2l1.8-2.3c0.2-0.2,0.3-0.3,0.5-0.3h2.6c0.1,0,0.2,0.1,0.2,0.1
		C419.7,166.5,419.7,166.6,419.7,166.7z"/>
	<path class="st3" d="M427.9,181.9c-0.6,0.1-1,0.2-1.6,0.2c-2.2,0-3.3-0.6-3.3-3.4v-5.8l-1.6-0.3c-0.2,0-0.4-0.2-0.4-0.4v-1.3
		c0-0.2,0.2-0.4,0.4-0.4h1.6v-1.6c0-0.2,0.2-0.4,0.4-0.4l2.4-0.4c0,0,0,0,0.1,0c0.2,0,0.4,0.1,0.4,0.3v2.1h1.6
		c0.2,0,0.4,0.2,0.4,0.4v1.6c0,0.2-0.2,0.4-0.4,0.4h-1.6v5.8c0,0.8,0.1,0.9,0.7,0.9h1c0.3,0,0.4,0.1,0.4,0.3v1.5
		C428.3,181.7,428.2,181.8,427.9,181.9z"/>
	<path class="st3" d="M432.5,169.2h-2.6c-0.2,0-0.4-0.2-0.4-0.4v-1.8c0-0.2,0.2-0.4,0.4-0.4h2.6c0.2,0,0.4,0.2,0.4,0.4v1.8
		C432.9,169,432.7,169.2,432.5,169.2z M432.4,181.8H430c-0.2,0-0.4-0.2-0.4-0.4v-10.6c0-0.2,0.2-0.4,0.4-0.4h2.4
		c0.2,0,0.4,0.2,0.4,0.4v10.6C432.8,181.7,432.6,181.8,432.4,181.8z"/>
	<path class="st3" d="M441.6,181.7c-0.6,0.1-1.5,0.3-2.6,0.3c-2.8,0-4.6-1.8-4.6-5v-1.7c0-3.2,1.8-5,4.6-5c1.2,0,2.1,0.2,2.6,0.3
		c0.3,0.1,0.4,0.2,0.4,0.5v1.8c0,0.2-0.2,0.3-0.4,0.3c0,0,0,0,0,0c-0.7-0.1-1.3-0.1-2.4-0.1c-0.9,0-1.6,0.5-1.6,2.3v1.7
		c0,1.8,0.7,2.3,1.6,2.3c1.1,0,1.7-0.1,2.4-0.1c0,0,0,0,0,0c0.2,0,0.4,0.1,0.4,0.3v1.8C442,181.6,441.9,181.6,441.6,181.7z"/>
	<path class="st3" d="M451.8,181.8h-2.2c-0.2,0-0.4-0.2-0.4-0.4v-0.3c-0.8,0.6-1.6,0.9-2.8,0.9c-1.7,0-3.4-0.8-3.4-3.4v-0.2
		c0-2.3,1.5-3.4,4.9-3.4h1.1v-0.7c0-1.1-0.6-1.4-1.5-1.4c-1.3,0-2.7,0.1-3.3,0.1h-0.1c-0.2,0-0.4-0.1-0.4-0.4v-1.6
		c0-0.2,0.1-0.4,0.4-0.4c0.7-0.2,2.1-0.4,3.4-0.4c2.9,0,4.6,1.2,4.6,4.1v7.1C452.2,181.7,452,181.8,451.8,181.8z M449,177h-1.1
		c-1.4,0-1.7,0.5-1.7,1.5v0.2c0,0.8,0.4,1,1.3,1c0.6,0,1.2-0.2,1.6-0.4V177z"/>
</g>
</svg>
