<?xml version="1.0" encoding="utf-8"?>
<!-- Generator: Adobe Illustrator 19.2.1, SVG Export Plug-In . SVG Version: 6.00 Build 0)  -->
<svg version="1.1" id="Capa_1" xmlns="http://www.w3.org/2000/svg" xmlns:xlink="http://www.w3.org/1999/xlink" x="0px" y="0px"
	 viewBox="0 0 500 283.3" style="enable-background:new 0 0 500 283.3;" xml:space="preserve">
<style type="text/css">
	.st0{fill:#590079;}
	.st1{fill:#F000A6;}
</style>
<g>
	<g>
		<g>
			<path class="st0" d="M280.8,176.5c-1.9,10.8-9.2,16.5-21.2,22.9c-8,4.2-14.3,7.7-17,12h28.7c1,0,1.8,0.7,1.8,1.7
				c0,0.1,0,0.2,0,0.3l-2.8,15.9c-0.2,1.1-1.4,2-2.5,2h-48.6c-1,0-1.7-0.7-1.7-1.7c0-0.1,0-0.2,0-0.3l1.9-11
				c2.7-15.6,12.9-23.6,23.6-30.1c12.4-7.5,13.5-7.3,14.1-10.5c0-0.3,0.1-0.6,0.1-0.8c0-1.5-1.3-2.2-7.9-2.2c-6.5,0-13.2,1-19.5,1
				h-0.1c-0.9,0-1.5-0.7-1.5-1.6c0-0.1,0-0.2,0-0.3v-0.1l2-11.5c0.2-1.1,1.2-1.6,2.3-2c6.8-2.4,15.4-4.2,24.5-4.2
				c17.7,0,24.2,7.2,24.2,16.5C281.2,173.8,281,175.1,280.8,176.5z"/>
			<path class="st0" d="M347.1,161.7l-2.2,12.4c-0.2,1.4-1,2-2.2,2c-0.1,0-0.3,0-0.5,0c-4.6-0.6-12.6-1.4-18.4-1.4
				c-6.5,0-8.2,1.1-9.7,8.4l-0.1,0.5c1.3-0.2,5.8-0.7,7.5-0.7c12.8,0,21.9,4.9,21.9,17.4c0,20.6-11.7,32-32.9,32
				c-16.5,0-23.9-10.1-23.9-21.5c0-1.6,0.1-3.2,0.4-4.9l4-22.8c3.9-22.4,18.6-27.1,32.8-27.1c9.6,0,16.3,1.4,21.6,3.1
				c1.2,0.4,1.8,0.9,1.8,1.9C347.2,161.2,347.1,161.5,347.1,161.7z M316.3,198.3c-2.1,0-3.9,0.2-4.9,0.3l-1.3,7.3
				c-0.3,1.7-0.4,3.1-0.4,4.2c0,3.9,1.5,4.9,3.7,4.9c5.3,0,6.8-5.8,6.8-12.5C320.2,199.3,318.8,198.3,316.3,198.3z"/>
		</g>
	</g>
	<g>
		<g>
			<path class="st0" d="M90.9,158.6L89,169.7c-0.3,1.9-1.3,3.3-2,4.4l-34.5,54.8c-0.6,1-1.3,2-2.4,2H28.8c-0.9,0-1.4-0.2-1.4-0.7
				c0-0.3,0.2-0.8,0.5-1.3l34.4-53.6h-23c-1,0-1.7-0.7-1.7-1.7c0-0.1,0-0.2,0-0.3l2.5-14.7c0.2-1.1,1.4-2,2.5-2h46.7
				c1,0,1.6,0.7,1.6,1.6C90.9,158.4,90.9,158.5,90.9,158.6z"/>
			<path class="st0" d="M154.5,188.3l-1.9,10.9c-3.9,22.2-15.9,32.7-34.5,32.7c-15.5,0-23.8-7.4-23.8-22.8c0-3,0.3-6.3,0.9-9.9
				l1.9-10.9c3.9-22.2,15.9-32.7,34.5-32.7c15.5,0,23.8,7.4,23.8,22.8C155.4,181.4,155.1,184.7,154.5,188.3z M128,175.7
				c-3,0-5.3,1.5-7.2,12.6l-1.9,10.9c-0.6,3.2-0.8,5.7-0.8,7.5c0,4.4,1.5,5.1,3.6,5.1c3,0,5.3-1.5,7.2-12.6l1.9-10.9
				c0.6-3.2,0.8-5.7,0.8-7.5C131.6,176.4,130.1,175.7,128,175.7z"/>
		</g>
	</g>
	<g>
		<g>
			<path class="st0" d="M46.2,70l5.4-31.1L39,42.8c-0.6,0.2-1,0.3-1.3,0.3c-0.7,0-0.9-0.4-0.8-1.2l3-16.9c0.2-1,0.7-1.6,1.7-2
				L61,16.1c0.8-0.3,1.4-0.5,2.3-0.5h14c1.1,0,1.8,0.9,1.6,2L69.7,70h12.1c1.1,0,1.9,0.9,1.7,2l-2.8,15.9c-0.2,1.1-1.3,2-2.4,2H30.6
				c-1.1,0-2-0.9-1.8-2L31.6,72c0.2-1.1,1.4-2,2.5-2H46.2z"/>
			<path class="st0" d="M156.9,47.3L155,58.2c-3.9,22.2-15.9,32.7-34.5,32.7c-15.5,0-23.8-7.4-23.8-22.8c0-3,0.3-6.3,0.9-9.9
				l1.9-10.9c3.9-22.2,15.9-32.7,34.5-32.7c15.5,0,23.8,7.4,23.8,22.8C157.8,40.4,157.5,43.7,156.9,47.3z M130.4,34.7
				c-3,0-5.3,1.5-7.2,12.6l-1.9,10.9c-0.6,3.2-0.8,5.7-0.8,7.5c0,4.4,1.5,5.1,3.6,5.1c3,0,5.3-1.5,7.2-12.6l1.9-10.9
				c0.6-3.2,0.8-5.7,0.8-7.5C134,35.4,132.5,34.7,130.4,34.7z"/>
			<path class="st0" d="M182.6,72.7L180,87.9c-0.2,1.1-1.4,2-2.5,2h-17.4c-1,0-1.7-0.7-1.7-1.7c0-0.1,0-0.2,0-0.3l2.6-15.2
				c0.2-1.1,1.4-2,2.5-2h17.4c1,0,1.7,0.7,1.7,1.7C182.6,72.5,182.6,72.6,182.6,72.7z"/>
			<path class="st0" d="M254,20.3l-2.2,12.4c-0.2,1.4-1,2-2.2,2c-0.1,0-0.3,0-0.5,0c-4.6-0.6-12.6-1.4-18.4-1.4
				c-6.5,0-8.2,1.1-9.7,8.4l-0.1,0.5c1.3-0.2,5.8-0.7,7.5-0.7c12.8,0,21.9,4.9,21.9,17.4c0,20.6-11.7,32-32.9,32
				c-16.5,0-23.9-10.1-23.9-21.5c0-1.6,0.1-3.2,0.4-4.9l4-22.8c3.9-22.4,18.6-27.1,32.8-27.1c9.6,0,16.3,1.4,21.6,3.1
				c1.2,0.4,1.8,0.9,1.8,1.9C254.1,19.8,254,20.1,254,20.3z M223.2,56.9c-2.1,0-3.9,0.2-4.9,0.3l-1.3,7.3c-0.3,1.7-0.4,3.1-0.4,4.2
				c0,3.9,1.5,4.9,3.7,4.9c5.3,0,6.8-5.8,6.8-12.5C227.1,57.9,225.7,56.9,223.2,56.9z"/>
			<path class="st0" d="M319.4,17.6L312.3,58h5c1,0,1.7,0.7,1.7,1.7c0,0.1,0,0.2,0,0.3l-2.4,13.7c-0.2,1.1-1.3,2-2.4,2h-5l-2.1,12.2
				c-0.2,1.1-1.3,2-2.4,2h-19.5c-1,0-1.6-0.7-1.6-1.6c0-0.2,0-0.3,0-0.4l2.1-12.2h-26.8c-1,0-1.6-0.7-1.6-1.6c0-0.2,0-0.3,0-0.4
				l2.2-13c0.2-1,0.7-1.9,1.5-2.8l40.6-41.8c0.4-0.4,0.9-0.5,1.4-0.5c0.3,0,0.6,0,0.9,0h13.9c1,0,1.6,0.7,1.6,1.6
				C319.4,17.3,319.4,17.5,319.4,17.6z M277.1,58h12.8l2.9-16.2L277.1,58z"/>
			<path class="st0" d="M388.7,35.1c-1.9,10.8-9.2,16.5-21.2,22.9c-8,4.2-14.3,7.7-17,12h28.7c1,0,1.8,0.7,1.8,1.7
				c0,0.1,0,0.2,0,0.3l-2.8,15.9c-0.2,1.1-1.4,2-2.5,2h-48.6c-1,0-1.7-0.7-1.7-1.7c0-0.1,0-0.2,0-0.3l1.9-11
				c2.7-15.6,12.9-23.6,23.6-30.1c12.4-7.5,13.5-7.3,14.1-10.5c0-0.3,0.1-0.6,0.1-0.8c0-1.5-1.3-2.2-7.9-2.2c-6.5,0-13.2,1-19.5,1
				h-0.1c-0.9,0-1.5-0.7-1.5-1.6c0-0.1,0-0.2,0-0.3v-0.1l2-11.5c0.2-1.1,1.2-1.6,2.3-2c6.8-2.4,15.4-4.2,24.5-4.2
				c17.7,0,24.2,7.2,24.2,16.5C389.1,32.4,388.9,33.7,388.7,35.1z"/>
		</g>
	</g>
	<g>
		<path class="st1" d="M247.2,246.5l-3.8,21.6c-0.1,0.3-0.3,0.3-0.6,0.3h-5.9c-0.6,0-0.6-0.3-0.5-0.6l1.7-9.7c0-0.2,0-0.3-0.2-0.3
			c-0.1,0-0.2,0.1-0.3,0.3l-2.9,3.4c-0.4,0.4-0.6,0.6-0.9,0.6H232c-0.3,0-0.5-0.1-0.7-0.6l-1.7-3.4c-0.1-0.2-0.2-0.3-0.3-0.3
			c-0.1,0-0.2,0-0.2,0.3l-1.7,9.7c-0.1,0.3-0.2,0.6-0.6,0.6h-6c-0.3,0-0.6-0.1-0.5-0.5l3.8-21.4c0.1-0.6,0.7-1.1,1.3-1.1h4.1
			c0.9,0,1.3,0.3,1.6,1l3,6.9c0.1,0.2,0.2,0.3,0.3,0.3c0.1,0,0.3-0.1,0.4-0.3l5.5-6.9c0.5-0.7,1.1-1,2-1h4.1
			C247.1,245.4,247.3,245.9,247.2,246.5z"/>
		<path class="st1" d="M264.9,258.5l-0.3,1.9c-0.1,0.4-0.4,0.7-0.8,0.7h-9.4c0,0.2-0.1,0.5-0.1,0.7c0,1,0.6,1.3,2.4,1.3
			c1.3,0,4.7-0.2,5.9-0.2c0.5,0,0.7,0.1,0.6,0.6l-0.6,3.3c-0.1,0.5-0.2,0.7-0.7,0.9c-1.7,0.7-4.8,1.2-7.3,1.2c-4,0-7-2.2-7-6.4
			c0-0.6,0.1-1.2,0.2-1.9l0.3-1.9c1.1-6.4,4.9-8.7,10.2-8.7c4.9,0,6.9,2.9,6.9,6.6C265.1,257.1,265,257.8,264.9,258.5z M257.2,255
			c-1.3,0-1.9,0.8-2.2,2.6h3.5c0.1-0.4,0.1-0.7,0.1-1.1C258.6,255.6,258.2,255,257.2,255z"/>
		<path class="st1" d="M293.5,257.1l-1.9,10.6c-0.1,0.4-0.2,0.7-0.8,0.7h-5.6c-0.4,0-0.7-0.2-0.6-0.7l1.9-10.6
			c0-0.2,0.1-0.4,0.1-0.5c0-0.7-0.4-0.8-1-0.8c-0.4,0-0.9,0.1-1.4,0.2c-0.1,0.5-0.1,0.6-0.2,1.1l-1.9,10.6c-0.1,0.4-0.2,0.7-0.8,0.7
			h-5.6c-0.5,0-0.6-0.3-0.6-0.7l1.9-10.6c0-0.2,0.1-0.4,0.1-0.5c0-0.7-0.3-0.8-1-0.8c-0.4,0-1,0.1-1.4,0.2l-2.1,11.8
			c-0.1,0.4-0.2,0.7-0.7,0.7h-5.6c-0.4,0-0.7-0.2-0.6-0.7l3-17c0.1-0.3,0.2-0.6,0.7-0.6h5.1c0.4,0,0.6,0.3,0.5,0.6l-0.2,0.9
			c1.9-1.5,3.6-1.9,5.3-1.9c1.5,0,2.9,0.5,3.5,1.9c1.6-1.3,3.4-1.9,5.2-1.9c3.2,0,4.6,2,4.6,5C293.7,255.5,293.6,256.3,293.5,257.1z
			"/>
		<path class="st1" d="M313.5,258.1l-0.4,2.4c-1,5.7-4.6,8.2-10,8.2c-3.2,0-5.8-0.5-7.2-0.7c-0.9-0.2-1.1-0.5-1-1.1l3.9-22
			c0.1-0.4,0.3-0.7,0.8-0.7h5.6c0.4,0,0.6,0.2,0.5,0.7l-0.9,5.1c0.4-0.1,1.1-0.2,1.7-0.2c4.9,0,7.2,2.8,7.2,6.5
			C313.6,256.9,313.6,257.5,313.5,258.1z M305.2,255.5c-0.5,0-1,0-1.5,0.1l-1.3,7.3c0.6,0.1,0.9,0.1,1.7,0.1c1.5,0,1.8-1.1,2.1-2.5
			l0.4-2.4c0.1-0.3,0.1-0.7,0.1-1C306.7,256.1,306.4,255.5,305.2,255.5z"/>
		<path class="st1" d="M328.1,249.8c0.5,0,0.7,0.2,0.7,0.6l-0.8,4.4c-0.1,0.3-0.2,0.6-0.7,0.6H327c-1.9,0-2.9,0.2-3.6,0.5l-2.1,11.8
			c-0.1,0.4-0.2,0.7-0.7,0.7H315c-0.4,0-0.7-0.1-0.6-0.7l3-17c0.1-0.3,0.2-0.6,0.7-0.6h4.9c0.4,0,0.6,0.2,0.5,0.6l-0.2,0.9
			c1.2-1.5,3-1.8,4.5-1.8H328.1z"/>
		<path class="st1" d="M345.8,258.5l-0.3,1.9c-0.1,0.4-0.4,0.7-0.8,0.7h-9.4c0,0.2-0.1,0.5-0.1,0.7c0,1,0.6,1.3,2.4,1.3
			c1.3,0,4.7-0.2,5.9-0.2c0.5,0,0.7,0.1,0.6,0.6l-0.6,3.3c-0.1,0.5-0.2,0.7-0.7,0.9c-1.7,0.7-4.8,1.2-7.3,1.2c-4,0-7-2.2-7-6.4
			c0-0.6,0.1-1.2,0.2-1.9l0.3-1.9c1.1-6.4,4.9-8.7,10.2-8.7c4.9,0,6.9,2.9,6.9,6.6C345.9,257.1,345.9,257.8,345.8,258.5z M338.1,255
			c-1.3,0-1.9,0.8-2.2,2.6h3.5c0.1-0.4,0.1-0.7,0.1-1.1C339.5,255.6,339.1,255,338.1,255z"/>
		<path class="st1" d="M363,251.3l-0.7,4c-0.1,0.4-0.1,0.8-0.7,0.7c-0.9-0.2-4.2-0.6-5.4-0.6c-0.3,0-0.7,0-0.7,0.3
			c0,0.2,0.1,0.3,0.7,0.7l2.4,1.3c2.8,1.5,3.1,3.1,3.1,4.7c0,4.5-3.7,6.2-9.1,6.2c-2.7,0-4.5-0.4-5.6-0.8c-0.4-0.2-0.5-0.3-0.5-0.7
			l0.7-3.9c0.1-0.5,0.3-0.8,0.9-0.7c2,0.3,4.2,0.6,5.3,0.6c0.5,0,1.2,0,1.2-0.7c0-0.2-0.1-0.3-0.6-0.6l-2.8-1.5
			c-1.8-1-2.8-2.5-2.8-4.4c0-5,4-6.2,8.3-6.2c2.3,0,4.5,0.5,5.8,0.8C362.9,250.8,363,250.9,363,251.3z"/>
		<path class="st1" d="M373.3,250.8l-3,17c-0.1,0.4-0.4,0.7-0.8,0.7H364c-0.3,0-0.6-0.2-0.6-0.6c0,0,0-0.1,0-0.1l3-17
			c0.1-0.4,0.5-0.7,0.8-0.7h5.5c0.3,0,0.6,0.2,0.6,0.5C373.3,250.7,373.3,250.7,373.3,250.8z M377.3,244.7l-4.7,3.7
			c-0.3,0.2-0.4,0.3-0.8,0.3h-4.8c-0.2,0-0.2-0.1-0.2-0.2c0-0.1,0.1-0.2,0.2-0.3l3.3-3.5c0.3-0.3,0.5-0.5,1-0.5h5.9
			c0.2,0,0.3,0.1,0.3,0.2S377.5,244.6,377.3,244.7z"/>
		<path class="st1" d="M393.1,251.6l-2.8,16.2c-0.1,0.3-0.2,0.6-0.6,0.6h-4.4c-0.6,0-0.7-0.3-0.6-0.6l0.1-0.9
			c-1.4,1.2-2.6,1.8-5.1,1.8c-3.3,0-5.5-2.1-5.5-5.7c0-1,0.1-1.5,0.2-2.1l0.5-2.9c1.1-6.7,5-8.2,10-8.2c2.3,0,4.8,0.3,7.2,0.7
			C392.8,250.7,393.2,250.9,393.1,251.6z M384.2,255.5c-1.3,0-2,0.5-2.4,2.5l-0.6,3c-0.1,0.3-0.1,0.7-0.1,0.9c0,0.9,0.4,1.1,1.2,1.1
			c0.6,0,1.4-0.2,1.9-0.5l1.2-7C385,255.5,384.5,255.5,384.2,255.5z"/>
		<path class="st1" d="M409.8,251.3l-0.7,4c-0.1,0.4-0.1,0.8-0.7,0.7c-0.9-0.2-4.2-0.6-5.4-0.6c-0.3,0-0.7,0-0.7,0.3
			c0,0.2,0.1,0.3,0.7,0.7l2.5,1.3c2.8,1.5,3.1,3.1,3.1,4.7c0,4.5-3.7,6.2-9.1,6.2c-2.7,0-4.5-0.4-5.6-0.8c-0.4-0.2-0.5-0.3-0.5-0.7
			l0.7-3.9c0.1-0.5,0.3-0.8,0.9-0.7c2,0.3,4.2,0.6,5.3,0.6c0.5,0,1.2,0,1.2-0.7c0-0.2-0.1-0.3-0.6-0.6l-2.8-1.5
			c-1.8-1-2.8-2.5-2.8-4.4c0-5,4-6.2,8.3-6.2c2.3,0,4.5,0.5,5.8,0.8C409.7,250.8,409.9,250.9,409.8,251.3z"/>
		<path class="st1" d="M438.8,255.5l-0.5,2.7c-1.5,8.4-6.6,10.5-11.7,10.5c-4.5,0-8.2-2.3-8.2-7.9c0-0.8,0.1-1.6,0.2-2.6l0.5-2.7
			c1.5-8.4,6.6-10.5,11.7-10.5c4.5,0,8.2,2.3,8.2,7.9C439,253.7,438.9,254.6,438.8,255.5z M429.6,251.5c-1.7,0-2.7,1.1-3.2,4
			l-0.5,2.7c-0.1,0.7-0.2,1.3-0.2,1.8c0,1.6,0.6,2.2,1.9,2.2c1.7,0,2.7-1.1,3.2-4l0.5-2.7c0.1-0.7,0.2-1.3,0.2-1.8
			C431.6,252.1,430.9,251.5,429.6,251.5z"/>
		<path class="st1" d="M458.4,268.4H452c-0.3,0-0.5-0.3-0.5-0.6l0-3.5h-4.7l-1.1,3.5c-0.1,0.3-0.4,0.6-0.8,0.6h-6.5
			c-0.2,0-0.4-0.1-0.4-0.3c0-0.1,0-0.2,0.1-0.3l7-18.7c1.2-3.2,3.8-4,7.5-4c3.8,0,6,0.8,6,4l0.4,18.7v0
			C459,268.2,458.7,268.4,458.4,268.4z M451.5,251c-0.2,0-0.2,0.2-0.3,0.4l-2.4,7.2h2.9l0.1-7.2c0-0.1,0-0.1,0-0.2
			C451.7,251.1,451.7,251,451.5,251z"/>
		<path class="st1" d="M472.6,246l-3.8,21.8c-0.1,0.3-0.2,0.6-0.7,0.6h-6c-0.4,0-0.6-0.3-0.5-0.6l3.8-21.8c0.1-0.3,0.2-0.6,0.8-0.6
			h6C472.5,245.4,472.7,245.6,472.6,246z"/>
	</g>
	<g>
		<path class="st1" d="M49.2,255.1l-0.5,2.8c-1.5,7.9-5.6,10.4-12,10.4c-3.3,0-5.7-0.2-7.5-0.6c-0.6-0.1-0.9-0.3-0.9-0.9
			c0-0.1,0-0.3,0-0.4l3.5-19.8c0.2-0.9,0.5-1.2,1.3-1.3c2-0.3,4.4-0.6,7.7-0.6c5.1,0,8.7,2.6,8.7,7.8
			C49.5,253.3,49.4,254.2,49.2,255.1z M39.7,251h-1.4l-2,11.1h1.4c2.2,0,2.9-0.7,3.6-4.2l0.5-2.8c0.2-0.8,0.2-1.5,0.2-2.1
			C42.1,251.4,41.3,251,39.7,251z"/>
		<path class="st1" d="M68,258.2l-0.2,1.4c-1.1,6.6-4.8,8.7-10.1,8.7c-4.7,0-7.2-2.5-7.2-6.6c0-0.7,0.1-1.4,0.2-2.1l0.2-1.4
			c1.1-6.5,4.8-8.7,10.1-8.7c4.6,0,7.2,2.3,7.2,6.5C68.2,256.7,68.2,257.4,68,258.2z M60,255.1c-1.1,0-1.8,0.9-2.2,3l-0.2,1.4
			c-0.1,0.6-0.2,1.1-0.2,1.5c0,1.2,0.5,1.6,1.3,1.6c1.1,0,1.7-0.6,2.2-3l0.2-1.4c0.1-0.6,0.2-1.1,0.2-1.5
			C61.3,255.5,60.8,255.1,60,255.1z"/>
		<path class="st1" d="M83.6,250c0.3,0.1,0.6,0.2,0.5,0.6l-0.7,4.2c-0.1,0.3-0.4,0.7-0.7,0.7h0c-1,0-2.1-0.2-3.3-0.2
			c-1.3,0-1.8,0.8-2.1,2.6l-0.4,2c-0.1,0.5-0.1,0.9-0.1,1.2c0,1,0.4,1.4,1.3,1.4c1.2,0,2.4-0.1,3.4-0.2c0.6,0,0.7,0.3,0.6,0.7
			l-0.7,4.2c-0.1,0.4-0.4,0.5-0.7,0.6c-1.3,0.3-2.7,0.5-4.5,0.5c-4.3,0-6.3-2.8-6.3-6.4c0-0.7,0.1-1.3,0.2-2l0.4-2
			c1-5.7,4-8.4,9.1-8.4C81.1,249.4,82.8,249.7,83.6,250z"/>
		<path class="st1" d="M101.4,258.1L101,260c-0.1,0.4-0.4,0.7-0.8,0.7h-9.4c0,0.2-0.1,0.5-0.1,0.7c0,1,0.6,1.3,2.4,1.3
			c1.3,0,4.7-0.2,5.9-0.2c0.5,0,0.7,0.1,0.6,0.6l-0.6,3.3c-0.1,0.5-0.2,0.7-0.7,0.9c-1.7,0.7-4.8,1.2-7.3,1.2c-4,0-7-2.2-7-6.4
			c0-0.6,0.1-1.2,0.2-1.9l0.3-1.9c1.1-6.4,4.9-8.7,10.2-8.7c4.9,0,6.9,2.9,6.9,6.6C101.5,256.7,101.5,257.4,101.4,258.1z
			 M93.7,254.6c-1.3,0-1.9,0.8-2.2,2.6H95c0.1-0.4,0.1-0.7,0.1-1.1C95.1,255.2,94.7,254.6,93.7,254.6z"/>
		<path class="st1" d="M121.4,256.6l-1.9,10.7c-0.1,0.4-0.2,0.7-0.8,0.7h-5.6c-0.4,0-0.7-0.2-0.6-0.7l1.9-10.7c0-0.2,0-0.4,0-0.6
			c0-0.6-0.6-1-1.3-1c-0.6,0-1.2,0.2-1.8,0.5l-2.1,11.8c-0.1,0.4-0.1,0.7-0.7,0.7H103c-0.4,0-0.7-0.2-0.6-0.7l3-17
			c0.1-0.3,0.4-0.6,0.7-0.6h5.1c0.5,0,0.6,0.3,0.5,0.6l-0.2,0.9c1.6-1.2,3.1-1.8,5.3-1.8c3.8,0,4.7,2.4,4.7,5
			C121.6,255.2,121.5,255.9,121.4,256.6z"/>
		<path class="st1" d="M136.2,249.7c0.5,0,0.7,0.1,0.7,0.7l-0.7,3.8c-0.1,0.4-0.2,0.7-0.8,0.7h-2.2l-1.3,7.6c0,0.2-0.1,0.3-0.1,0.5
			c0,0.3,0.1,0.4,0.6,0.4h1.5c0.4,0,0.6,0.1,0.5,0.7l-0.6,3.4c-0.1,0.4-0.2,0.6-0.8,0.7c-1.3,0.2-2,0.3-3.3,0.3
			c-2.2,0-4.9-0.9-4.9-4.5c0-0.5,0.1-1,0.2-1.6l1.3-7.5l-1.7-0.3c-0.3-0.1-0.7-0.2-0.6-0.7l0.6-3.4c0.1-0.4,0.2-0.7,0.8-0.7h1.8
			l0.4-2.5c0.1-0.4,0.2-0.6,0.8-0.7l5.5-0.9c0.7-0.1,0.9,0.2,0.8,0.6l-0.6,3.5H136.2z"/>
		<path class="st1" d="M154.2,258.1l-0.3,1.9c-0.1,0.4-0.4,0.7-0.8,0.7h-9.4c0,0.2-0.1,0.5-0.1,0.7c0,1,0.6,1.3,2.4,1.3
			c1.3,0,4.7-0.2,5.9-0.2c0.5,0,0.7,0.1,0.6,0.6l-0.6,3.3c-0.1,0.5-0.2,0.7-0.7,0.9c-1.7,0.7-4.8,1.2-7.3,1.2c-4,0-7-2.2-7-6.4
			c0-0.6,0.1-1.2,0.2-1.9l0.3-1.9c1.1-6.4,4.9-8.7,10.2-8.7c4.9,0,6.9,2.9,6.9,6.6C154.4,256.7,154.4,257.4,154.2,258.1z
			 M146.6,254.6c-1.3,0-1.9,0.8-2.2,2.6h3.5c0.1-0.4,0.1-0.7,0.1-1.1C148,255.2,147.6,254.6,146.6,254.6z"/>
		<path class="st1" d="M171.4,250.9l-0.7,4c-0.1,0.4-0.1,0.8-0.7,0.7c-0.9-0.2-4.2-0.6-5.4-0.6c-0.3,0-0.7,0-0.7,0.3
			c0,0.2,0.1,0.3,0.7,0.7l2.4,1.3c2.8,1.5,3.1,3.1,3.1,4.7c0,4.5-3.7,6.2-9.1,6.2c-2.7,0-4.5-0.4-5.6-0.8c-0.4-0.2-0.5-0.3-0.5-0.7
			l0.7-3.9c0.1-0.5,0.3-0.8,0.9-0.7c2,0.3,4.2,0.6,5.3,0.6c0.5,0,1.2,0,1.2-0.7c0-0.2-0.1-0.3-0.6-0.6l-2.8-1.5
			c-1.8-1-2.8-2.4-2.8-4.4c0-5,4-6.2,8.3-6.2c2.3,0,4.5,0.5,5.8,0.8C171.4,250.4,171.5,250.5,171.4,250.9z"/>
	</g>
	<g>
		<path class="st1" d="M49.7,127.1h-6.4c-0.3,0-0.5-0.3-0.5-0.6l0-3.5h-4.7l-1.1,3.5c-0.1,0.3-0.4,0.6-0.8,0.6h-6.5
			c-0.2,0-0.4-0.1-0.4-0.3c0-0.1,0-0.2,0.1-0.3l7-18.7c1.2-3.2,3.8-4,7.5-4c3.8,0,6,0.8,6,4l0.4,18.7v0
			C50.3,126.8,50.1,127.1,49.7,127.1z M42.8,109.6c-0.2,0-0.2,0.2-0.3,0.4l-2.4,7.2h2.9L43,110c0-0.1,0-0.1,0-0.2
			C43,109.7,43,109.6,42.8,109.6z"/>
		<path class="st1" d="M63.5,103.5l-4,22.8c-0.1,0.4-0.2,0.7-0.8,0.7h-5.6c-0.4,0-0.7-0.2-0.6-0.7l4-22.8c0.1-0.4,0.3-0.7,0.8-0.7
			h5.6C63.3,102.9,63.6,103.1,63.5,103.5z"/>
		<path class="st1" d="M82.7,109.4l-3,17c-0.1,0.3-0.2,0.6-0.7,0.6h-5.1c-0.3,0-0.6-0.1-0.5-0.6l0.2-0.9c-1.5,1-2.6,1.8-5.1,1.8
			c-3.5,0-4.8-2.5-4.8-5.3c0-0.6,0.1-1.3,0.2-1.9l1.9-10.7c0.1-0.4,0.4-0.7,0.8-0.7h5.6c0.4,0,0.7,0.2,0.6,0.7l-1.8,10.2
			c-0.1,0.3-0.1,0.8-0.1,0.9c0,0.8,0.6,1.1,1.3,1.1c0.6,0,1.2-0.2,1.8-0.5l2.1-11.8c0.1-0.4,0.2-0.7,0.7-0.7h5.6
			C82.4,108.8,82.8,108.9,82.7,109.4z"/>
		<path class="st1" d="M110.3,115.8l-1.9,10.6c-0.1,0.4-0.2,0.7-0.8,0.7h-5.6c-0.4,0-0.7-0.2-0.6-0.7l1.9-10.6
			c0-0.2,0.1-0.4,0.1-0.5c0-0.7-0.4-0.8-1-0.8c-0.4,0-0.9,0.1-1.4,0.2c-0.1,0.5-0.1,0.6-0.2,1.1l-1.9,10.6c-0.1,0.4-0.2,0.7-0.8,0.7
			h-5.6c-0.5,0-0.6-0.3-0.6-0.7l1.9-10.6c0-0.2,0.1-0.4,0.1-0.5c0-0.7-0.3-0.8-1-0.8c-0.4,0-1,0.1-1.4,0.2l-2.1,11.8
			c-0.1,0.4-0.2,0.7-0.7,0.7h-5.6c-0.4,0-0.7-0.2-0.6-0.7l3-17c0.1-0.3,0.2-0.6,0.7-0.6h5.1c0.4,0,0.6,0.3,0.5,0.6l-0.2,0.9
			c1.9-1.5,3.6-1.9,5.3-1.9c1.5,0,2.9,0.5,3.5,1.9c1.6-1.3,3.4-1.9,5.2-1.9c3.2,0,4.6,2,4.6,5C110.6,114.2,110.5,115,110.3,115.8z"
			/>
		<path class="st1" d="M130.6,115.6l-1.9,10.7c-0.1,0.4-0.2,0.7-0.8,0.7h-5.6c-0.4,0-0.7-0.2-0.6-0.7l1.9-10.7c0-0.2,0-0.4,0-0.6
			c0-0.6-0.6-1-1.3-1c-0.6,0-1.2,0.2-1.8,0.5l-2.1,11.8c-0.1,0.4-0.1,0.7-0.7,0.7h-5.6c-0.4,0-0.7-0.2-0.6-0.7l3-17
			c0.1-0.3,0.4-0.6,0.7-0.6h5.1c0.5,0,0.6,0.3,0.5,0.6l-0.2,0.9c1.6-1.2,3.1-1.8,5.3-1.8c3.8,0,4.7,2.4,4.7,5
			C130.8,114.2,130.7,114.9,130.6,115.6z"/>
		<path class="st1" d="M150,117.2l-0.2,1.4c-1.1,6.6-4.8,8.7-10.1,8.7c-4.7,0-7.2-2.5-7.2-6.6c0-0.7,0.1-1.4,0.2-2.1l0.2-1.4
			c1.1-6.5,4.8-8.7,10.1-8.7c4.6,0,7.2,2.3,7.2,6.5C150.2,115.7,150.1,116.4,150,117.2z M142,114.2c-1.1,0-1.8,0.9-2.2,3l-0.2,1.4
			c-0.1,0.6-0.2,1.1-0.2,1.5c0,1.2,0.5,1.6,1.3,1.6c1.1,0,1.7-0.6,2.2-3l0.2-1.4c0.1-0.6,0.2-1.1,0.2-1.5
			C143.3,114.5,142.8,114.2,142,114.2z"/>
		<path class="st1" d="M167.4,109.9l-0.7,4c-0.1,0.4-0.1,0.8-0.7,0.7c-0.9-0.2-4.2-0.6-5.4-0.6c-0.3,0-0.7,0-0.7,0.3
			c0,0.2,0.1,0.3,0.7,0.7l2.4,1.3c2.8,1.5,3.1,3.1,3.1,4.7c0,4.5-3.7,6.2-9.1,6.2c-2.7,0-4.5-0.4-5.6-0.8c-0.4-0.2-0.5-0.3-0.5-0.7
			l0.7-3.9c0.1-0.5,0.3-0.8,0.9-0.7c2,0.3,4.2,0.6,5.3,0.6c0.5,0,1.2,0,1.2-0.7c0-0.2-0.1-0.3-0.6-0.6l-2.8-1.5
			c-1.8-1-2.8-2.5-2.8-4.4c0-5,4-6.2,8.3-6.2c2.3,0,4.5,0.5,5.8,0.8C167.4,109.4,167.5,109.5,167.4,109.9z"/>
	</g>
</g>
</svg>
