<?xml version="1.0" encoding="utf-8"?>
<!-- Generator: Adobe Illustrator 19.2.1, SVG Export Plug-In . SVG Version: 6.00 Build 0)  -->
<svg version="1.1" id="Capa_1" xmlns="http://www.w3.org/2000/svg" xmlns:xlink="http://www.w3.org/1999/xlink" x="0px" y="0px"
	 viewBox="0 0 199.6 80.4" style="enable-background:new 0 0 199.6 80.4;" xml:space="preserve">
<style type="text/css">
	.st0{fill:#E20025;}
	.st1{fill:#FFFFFF;}
	.st2{enable-background:new    ;}
	.st3{fill:#5D5D5D;}
</style>
<g>
	<polygon class="st0" points="197.1,46.5 2.6,46.5 2.6,2.1 197.1,2.1 	"/>
	<path class="st1" d="M88.1,27.5h11.4l-6-9.7l-11,17.5h-5l13.4-21c0.6-0.8,1.6-1.4,2.6-1.4s2,0.5,2.6,1.4l13.5,21.1h-5.1l-2.3-3.9
		H90.7L88.1,27.5L88.1,27.5z M140.3,31.4V13.2H136v20.1c0,0.5,0.2,1.1,0.6,1.5s1,0.6,1.6,0.6h19.4l2.5-3.9L140.3,31.4L140.3,31.4z
		 M69.7,28.2c4.2,0,7.5-3.4,7.5-7.5s-3.3-7.5-7.5-7.5H51v22.2h4.3V17.1h14.1c2,0,3.6,1.6,3.6,3.6s-1.6,3.6-3.6,3.6h-12l12.7,11.1
		h6.2l-8.6-7.2H69.7L69.7,28.2z M24.8,35.4c-6.1,0-11.1-5-11.1-11.1s5-11.1,11.1-11.1h12.9c6.1,0,11.1,5,11.1,11.1
		s-5,11.1-11.1,11.1H24.8L24.8,35.4z M37.4,31.4c4,0,7.2-3.2,7.2-7.2c0-3.9-3.2-7.2-7.2-7.2H25.1c-4,0-7.2,3.2-7.2,7.2
		s3.2,7.2,7.2,7.2L37.4,31.4L37.4,31.4z M118.4,35.4c-6.1,0-11.1-5-11.1-11.1s5-11.1,11.1-11.1h15.3l-2.5,3.9h-12.5
		c-4,0-7.2,3.2-7.2,7.2s3.2,7.2,7.2,7.2h15.4l-2.5,3.9H118.4L118.4,35.4z M170.6,31.4c-3.3,0-6-2.2-6.9-5.2h18.2l2.5-3.9h-20.8
		c0.9-3,3.6-5.2,6.9-5.2H183l2.5-3.9h-15.3c-6.1,0-11.1,5-11.1,11.1s5,11.1,11.1,11.1h13.2l2.5-3.9L170.6,31.4L170.6,31.4z"/>
	<path class="st1" d="M187.9,15.5c0-1.1,0.9-2,2-2s2,0.9,2,2s-0.9,2-2,2S187.9,16.6,187.9,15.5L187.9,15.5z M189.9,18
		c1.4,0,2.5-1.1,2.5-2.5s-1.1-2.5-2.5-2.5s-2.5,1.1-2.5,2.5S188.5,18,189.9,18L189.9,18z M189.6,14.1c0.4,0,0.5,0,0.7,0.1
		c0.5,0.2,0.6,0.6,0.6,0.8c0,0,0,0.1,0,0.2s-0.1,0.3-0.3,0.5c0,0,0,0-0.1,0.1l0.6,1.2h-0.6l-0.6-1.1h-0.4V17H189v-2.8L189.6,14.1
		L189.6,14.1z M189.8,15.3c0.2,0,0.3,0,0.5-0.2c0-0.1,0.1-0.1,0.1-0.2s-0.1-0.3-0.2-0.3c-0.1-0.1-0.3-0.1-0.5-0.1h-0.2v0.8H189.8
		L189.8,15.3z"/>
</g>
<g class="st2">
	<path class="st3" d="M49.7,58v8.9c0,1.9-0.4,3.2-1.1,4.1c-0.9,1-2.3,1.5-4.4,1.5c-1.9,0-3.4-0.4-4.3-1.3c-0.9-0.8-1.3-2.1-1.3-3.8
		V58H42v8.5c0,1.3,0.1,2.1,0.2,2.5c0.3,0.9,1,1.3,2,1.3s1.7-0.4,2-1.3c0.1-0.4,0.2-1.2,0.2-2.4V58H49.7z"/>
	<path class="st3" d="M53.7,72.1V58h4.6l3.1,7.4c0.8,1.8,1.3,3.4,1.7,4.9C63,69.7,63,69,62.9,68.4c0-0.2,0-0.9-0.1-2.2L62.6,58h3.2
		v14.2h-4.5L58,64.4c-0.5-1.1-1-2.7-1.7-4.8c0.2,1.7,0.2,3.1,0.3,4.1l0.2,8.4H53.7z"/>
	<path class="st3" d="M69.8,72.1V58h3.3v14.2L69.8,72.1L69.8,72.1z"/>
	<path class="st3" d="M79.8,72.1L75.6,58h3.6l1.7,7.4c0.2,1,0.5,2.6,0.9,4.6c0.2-1.8,0.5-3.3,0.9-4.6l2-7.4h3.5l-4.3,14.2L79.8,72.1
		L79.8,72.1z"/>
	<path class="st3" d="M90.6,72.1V58h8.9v2.2h-5.4v3.4h5v2.2h-5v4.1h5.6v2.3h-9.1V72.1z"/>
	<path class="st3" d="M107.9,58c1.8,0,3.1,0.2,3.8,0.6c0.9,0.5,1.3,1.5,1.3,3c0,1-0.1,1.7-0.4,2.2c-0.4,0.7-1,1.1-2,1.3
		c1.1,0.2,1.8,0.6,2.1,1.1c0.3,0.4,0.4,1.2,0.4,2.2c0,0.1,0,0.2,0,0.4c0,0.2,0,0.3,0,0.4c0,1.2,0.1,2.2,0.4,2.9H110
		c-0.2-0.5-0.2-1.4-0.3-2.8c0-0.4,0-0.8,0-1.1c0-0.6-0.1-1.1-0.4-1.4s-0.8-0.5-1.5-0.5h-1.4v5.8H103V58H107.9z M106.4,64.1h0.8
		c0.9,0,1.5-0.1,1.9-0.4c0.4-0.3,0.6-0.8,0.6-1.6c0-0.7-0.2-1.3-0.6-1.5c-0.3-0.2-0.9-0.4-1.8-0.4h-0.9V64.1z"/>
	<path class="st3" d="M116.4,67.8h3.5v0.4c0,0.7,0.1,1.2,0.3,1.5c0.3,0.4,0.8,0.6,1.5,0.6c1.1,0,1.7-0.5,1.7-1.6
		c0-0.7-0.7-1.4-2.2-2.2c-0.1,0-0.1-0.1-0.2-0.1c-0.7-0.4-1.6-1-2.8-1.7c-0.6-0.5-1-0.9-1.2-1.3c-0.2-0.4-0.4-1-0.4-1.6
		c0-1.3,0.5-2.2,1.5-2.9c0.9-0.6,2.2-1,3.7-1c3.3,0,4.9,1.3,4.9,3.9V62h-3.4v-0.1c0-1.3-0.6-2-1.7-2c-0.5,0-0.9,0.1-1.2,0.4
		s-0.4,0.6-0.4,1.1c0,0.8,0.9,1.6,2.8,2.6c0.3,0.2,0.7,0.4,1.1,0.6c1,0.5,1.6,1,2.1,1.5c0.5,0.6,0.8,1.3,0.8,2.2
		c0,2.8-1.8,4.2-5.5,4.2c-1.7,0-2.9-0.3-3.7-1c-0.8-0.7-1.3-1.7-1.3-3.1c0-0.1,0-0.1,0-0.2C116.4,67.9,116.4,67.8,116.4,67.8z"/>
	<path class="st3" d="M130.4,72.1V58h3.3v14.2L130.4,72.1L130.4,72.1z"/>
	<path class="st3" d="M140.3,72.1V60.3h-3.7V58h11v2.3h-3.8v11.8H140.3z"/>
	<path class="st3" d="M153,72.1v-5.3l-4.3-8.8h3.8l2.4,5.9l2.6-5.9h3.6l-4.6,8.8v5.3H153z"/>
</g>
</svg>
