<?xml version="1.0" encoding="utf-8"?>
<!-- Generator: Adobe Illustrator 20.0.0, SVG Export Plug-In . SVG Version: 6.00 Build 0)  -->
<svg version="1.1" id="Capa_1" xmlns="http://www.w3.org/2000/svg" xmlns:xlink="http://www.w3.org/1999/xlink" x="0px" y="0px"
	 viewBox="0 0 716.7 508.5" style="enable-background:new 0 0 716.7 508.5;" xml:space="preserve">
<style type="text/css">
	.st0{display:none;fill:#C4122E;}
	.st1{fill:#B600A6;}
	.st2{fill:#8400A6;}
	.st3{fill:#F000A6;}
</style>
<path class="st0" d="M116.1,245.6c5.4,0.1,9.7-3.9,9.8-9.5c0.1-5.4-4.3-9.6-9.7-9.6c-5.8,0-9.8,4.4-9.8,9.6
	C106.4,241.4,110.6,245.7,116.1,245.6z M70,241.1c0,1.1,0,2.3,0,3.5c0,0.2,0.3,0.5,0.5,0.5c0.7,0.1,1.4,0.2,2.1,0.3
	c2,0.2,4,0.2,5.9-0.4c4.3-1.4,5.2-6.2,2.9-8.9c-1-1.1-2.3-1.7-3.6-2.1c-0.7-0.2-1.5-0.4-2.1-0.8c-0.4-0.3-0.8-0.9-0.8-1.3
	c0-0.4,0.6-1,1-1.1c0.9-0.2,1.9-0.3,2.8-0.3s1.7,0.3,2.7,0.4c0-1.1,0-2.1,0-3.1c0-0.6-0.2-0.8-0.7-0.9c-1.9-0.3-3.9-0.6-5.9-0.2
	c-3.3,0.6-5.4,3.4-4.8,6.7c0.5,2.4,2.2,3.5,4.3,4.2c0.8,0.3,1.6,0.5,2.4,0.9c0.6,0.3,1.1,0.8,1,1.5c-0.1,0.8-0.6,1.1-1.2,1.3
	c-0.4,0.1-0.8,0.2-1.2,0.2C73.5,241.4,71.8,241.3,70,241.1z M101.3,231.9c0-1.5,0-2.9,0-4.3c0-0.2-0.3-0.6-0.5-0.7
	c-2.3-0.7-4.6-0.8-6.9-0.1c-3.7,1.2-6,3.8-6.5,7.7c-0.5,3.4,0.5,6.4,3.1,8.6c3.2,2.7,6.9,2.8,10.8,1.7c0-1.6,0-3.2,0-4.6
	c-1.4,0.2-2.8,0.5-4.2,0.6c-2.3,0.1-4.5-1.8-4.7-3.9c-0.4-2.9,1-5.2,3.6-5.8C97.8,230.7,99.5,231.1,101.3,231.9z M52.4,240.4
	c-1.5,0.2-2.9,0.5-4.3,0.5c-3,0.1-5.3-3-4.7-5.9c0.7-3.3,3.6-4.4,6.3-3.9c0.9,0.1,1.7,0.5,2.7,0.7c0-1.5,0-2.9,0-4.3
	c0-0.2-0.3-0.5-0.6-0.6c-1.7-0.5-3.5-0.6-5.3-0.4c-5.9,0.8-9.5,6.3-7.8,12.3c1.7,6.1,8.2,7.8,13.3,6.2c0.1,0,0.3-0.3,0.3-0.4
	C52.4,243.1,52.4,241.7,52.4,240.4z M110,203.9c0-4.1,0-8.2,0-12.3c0-1.6-1.5-2.7-3-2.2c-1,0.3-1.6,1.3-1.6,2.7c0,7.9,0,15.8,0,23.7
	c0,0.2,0,0.4,0,0.5c0.2,1.4,1.2,2.3,2.4,2.2c1.3-0.1,2.1-1,2.1-2.5C110,212,110,207.9,110,203.9z M58.8,203.9L58.8,203.9
	c0-4.2,0-8.3,0-12.5c0-1.1-0.7-1.9-1.9-2.1c-1-0.2-2,0.4-2.4,1.3c-0.2,0.5-0.2,1.1-0.2,1.7c0,6.9,0,13.9,0,20.8c0,1,0,2,0,3.1
	c0.1,1.5,1,2.4,2.3,2.3c1.2,0,2.3-1,2.2-2.5C58.7,212,58.8,208,58.8,203.9z M63.4,245.2c0-6.2,0-12.2,0-18.3c-1.5,0-3,0-4.5,0
	c0,6.1,0,12.2,0,18.3C60.5,245.2,62,245.2,63.4,245.2z M46,206c0-1.9,0-3.7,0-5.6c0-1.3-0.8-2.2-2-2.4c-1-0.2-2.1,0.6-2.4,1.7
	c-0.1,0.6-0.2,1.2-0.2,1.8c0,3.3,0,6.6,0,9.9c0,1.4,1.1,2.6,2.3,2.6c1.1-0.1,2.3-0.9,2.3-2.6C46,209.6,46,207.8,46,206z M122.7,206
	c0-1.9,0-3.8,0-5.7c0-1.1-0.5-1.7-1.5-2.1c-0.9-0.3-1.9-0.2-2.5,0.7c-0.4,0.6-0.6,1.3-0.6,2c-0.1,3.4,0,6.8,0,10.1
	c0,0.3,0,0.6,0.1,0.9c0.2,1.2,1.3,2.1,2.4,2c1.2-0.1,2.1-1,2.1-2.3C122.7,209.7,122.7,207.8,122.7,206z M92.6,206c0,1.8,0,3.6,0,5.4
	c0,1.5,1,2.6,2.3,2.6s2.3-1.1,2.3-2.6c0-3.6,0-7.2,0-10.8c0-1.5-1-2.6-2.3-2.5c-1.3,0-2.3,1.1-2.3,2.6
	C92.6,202.4,92.6,204.2,92.6,206z M71.6,206C71.6,206,71.5,206,71.6,206c0-2,0-4,0-6c0-1.1-1.2-2-2.3-1.9c-1.1,0.1-2.1,1-2.1,2.1
	c0,3.9,0,7.8,0,11.7c0,0.8,0.4,1.4,1.1,1.8c1.5,0.8,3.2-0.1,3.3-1.8C71.6,209.9,71.6,207.9,71.6,206z M79.8,209.2c0,0.8,0,1.7,0,2.5
	c0,1.2,0.9,2.1,2.1,2.3c1,0.1,2.2-0.7,2.3-1.8c0.1-1.9,0.2-3.9,0-5.8c-0.1-1.3-1.2-2-2.5-1.8c-1.1,0.1-1.9,1.1-1.9,2.3
	C79.8,207.6,79.8,208.4,79.8,209.2z M33.3,209.2c0-0.8,0-1.6,0-2.4c0-1.4-1-2.3-2.3-2.3s-2.3,0.9-2.3,2.3c0,1.6,0,3.2,0,4.7
	c0,1.3,1.1,2.4,2.3,2.4c1.2,0,2.3-1.1,2.3-2.4C33.3,210.8,33.3,210,33.3,209.2z M135.5,209.1L135.5,209.1c0-0.9,0-1.8,0-2.7
	c-0.1-1.2-1-2-2.2-2s-2.2,0.9-2.2,2c0,1.8,0,3.5,0,5.3c0,1.2,1,2.1,2.2,2.2c1.1,0,2.2-0.9,2.2-2.1
	C135.5,210.9,135.5,210,135.5,209.1z M133.2,245C133.2,245,133.3,245,133.2,245c0.1-0.5,0.2-1,0.2-1.8c0.3,0.8,0.6,1.4,0.9,2.2
	c0.3-0.8,0.6-1.3,0.8-1.9c0.1,0,0.1,0,0.2,0c0,0.5,0,1,0,1.5h0.1c0-0.7,0-1.4,0-2.1c-0.1,0-0.2,0-0.2-0.1c-0.3,0.6-0.5,1.3-0.8,1.9
	c-0.3-0.7-0.6-1.3-0.8-2c-0.1,0-0.2,0.1-0.3,0.1C133.2,243.7,133.2,244.3,133.2,245z M132.3,242.9c-0.2,0-0.7,0-1.3,0
	c0.4,0.1,0.6,0.2,0.9,0.2c0,0.7,0,1.3,0,2h0.1C132,244.4,132.2,243.7,132.3,242.9z"/>
<g>
	<g>
		<path class="st1" d="M72.6,227.5c0.4,0.1,0.7,0.3,0.6,0.7l-0.9,5.2c-0.1,0.4-0.5,0.8-0.9,0.8l0,0c-1.2,0-2.6-0.2-4.1-0.2
			c-1.6,0-2.2,1-2.6,3.2l-0.5,2.5c-0.1,0.6-0.2,1.1-0.2,1.5c0,1.2,0.5,1.7,1.6,1.7c1.5,0,2.9-0.2,4.2-0.2c0.7,0,0.8,0.3,0.7,0.8
			l-0.9,5.2c-0.1,0.5-0.5,0.6-0.9,0.7c-1.6,0.3-3.3,0.6-5.5,0.6c-5.3,0-7.7-3.4-7.7-7.9c0-0.8,0.1-1.6,0.2-2.5l0.5-2.5
			c1.3-7,4.9-10.4,11.1-10.4C69.5,226.9,71.6,227.3,72.6,227.5z"/>
		<path class="st1" d="M97,229.2L93.5,249c-0.1,0.4-0.2,0.8-0.8,0.8h-5.5c-0.7,0-0.8-0.3-0.8-0.8l0.2-1.1c-1.8,1.5-3.2,2.2-6.2,2.2
			c-4.1,0-6.7-2.6-6.7-7c0-1.3,0.1-1.9,0.2-2.6l0.6-3.5c1.4-8.2,6.2-10.2,12.4-10.2c2.9,0,5.9,0.4,8.8,0.9
			C96.6,228,97.1,228.2,97,229.2z M86,233.9c-1.6,0-2.5,0.6-2.9,3.1l-0.7,3.7c-0.1,0.4-0.1,0.8-0.1,1.1c0,1.1,0.5,1.4,1.5,1.4
			c0.8,0,1.7-0.3,2.4-0.6l1.5-8.6C87,234,86.5,233.9,86,233.9z"/>
		<path class="st1" d="M120.7,235.8l-2.3,13.2c-0.1,0.5-0.2,0.8-1,0.8h-6.9c-0.5,0-0.8-0.2-0.7-0.8l2.3-13.2c0-0.2,0-0.5,0-0.7
			c0-0.8-0.7-1.2-1.6-1.2c-0.7,0-1.5,0.2-2.2,0.6l-2.6,14.5c-0.1,0.5-0.2,0.8-0.9,0.8h-6.9c-0.5,0-0.8-0.3-0.7-0.8l3.8-21
			c0.1-0.4,0.5-0.8,0.9-0.8h6.3c0.6,0,0.7,0.3,0.6,0.8l-0.2,1.1c2-1.5,3.8-2.2,6.5-2.2c4.7,0,5.8,3,5.8,6.2
			C121,234,120.9,234.9,120.7,235.8z"/>
		<path class="st1" d="M146.9,220.1c0.5,0,0.9,0.2,0.8,0.8l-4.8,27.1c-0.1,0.6-0.5,1.1-1.8,1.3c-1.9,0.3-5.2,0.9-9.2,0.9
			c-5.6,0-8.9-3.5-8.9-8.2c0-0.6,0.1-1.3,0.2-1.9l0.5-3c1.3-7.2,5.2-10.2,11.9-10.2c0.9,0,1.9,0.1,2.4,0.2l1.1-6.3
			c0.1-0.5,0.3-0.8,0.9-0.8L146.9,220.1L146.9,220.1z M134.8,233.9c-1.6,0-2.2,1-2.6,3.1l-0.5,3c-0.1,0.6-0.2,1-0.2,1.5
			c0,1.1,0.5,1.7,1.6,1.7c1,0,1.3,0,2.1-0.1l1.6-9C136.2,234,135.7,233.9,134.8,233.9z"/>
		<path class="st1" d="M146.6,249l3.7-20.9c0.1-0.5,0.3-0.8,1-0.8h6.8c0.7,0,0.8,0.3,0.7,0.8l-3.7,20.9c-0.1,0.5-0.3,0.8-1,0.8h-6.8
			C146.9,249.8,146.5,249.4,146.6,249z M159.6,220.1c0.5,0,0.9,0.1,0.8,0.8l-0.7,3.9c-0.1,0.5-0.3,0.8-1,0.8h-7.2
			c-0.7,0-0.8-0.4-0.7-0.8l0.7-3.9c0.1-0.5,0.3-0.8,1-0.8H159.6z"/>
		<path class="st1" d="M183.7,220.1c0.5,0,0.9,0.2,0.8,0.8l-4.8,27.1c-0.1,0.6-0.5,1.1-1.8,1.3c-1.9,0.3-5.2,0.9-9.2,0.9
			c-5.6,0-8.9-3.5-8.9-8.2c0-0.6,0.1-1.3,0.2-1.9l0.5-3c1.3-7.2,5.2-10.2,11.9-10.2c0.9,0,1.9,0.1,2.4,0.2l1.1-6.3
			c0.1-0.5,0.3-0.8,0.9-0.8L183.7,220.1L183.7,220.1z M171.6,233.9c-1.6,0-2.2,1-2.6,3.1l-0.5,3c-0.1,0.6-0.2,1-0.2,1.5
			c0,1.1,0.5,1.7,1.6,1.7c1,0,1.3,0,2.1-0.1l1.6-9C173.1,234,172.5,233.9,171.6,233.9z"/>
		<path class="st1" d="M207.5,229.2L204,249c-0.1,0.4-0.2,0.8-0.8,0.8h-5.5c-0.7,0-0.8-0.3-0.8-0.8l0.2-1.1
			c-1.8,1.5-3.2,2.2-6.2,2.2c-4.1,0-6.7-2.6-6.7-7c0-1.3,0.1-1.9,0.2-2.6l0.6-3.5c1.4-8.2,6.2-10.2,12.4-10.2c2.9,0,5.9,0.4,8.8,0.9
			C207.1,228,207.7,228.2,207.5,229.2z M196.5,233.9c-1.6,0-2.5,0.6-2.9,3.1l-0.7,3.7c-0.1,0.4-0.1,0.8-0.1,1.1
			c0,1.1,0.5,1.4,1.5,1.4c0.8,0,1.7-0.3,2.4-0.6l1.5-8.6C197.6,234,197,233.9,196.5,233.9z"/>
		<path class="st1" d="M224.1,227.3c0.6,0,0.9,0.2,0.8,0.8l-0.8,4.6c-0.1,0.5-0.3,0.8-1,0.8h-2.7l-1.6,9.4c0,0.2-0.1,0.4-0.1,0.6
			c0,0.4,0.2,0.5,0.7,0.5h1.8c0.5,0,0.8,0.1,0.7,0.8l-0.7,4.2c-0.1,0.5-0.2,0.7-1,0.8c-1.6,0.3-2.4,0.4-4.1,0.4c-2.7,0-6-1.1-6-5.5
			c0-0.6,0.1-1.2,0.2-1.9l1.6-9.2l-2.1-0.4c-0.4-0.1-0.8-0.2-0.7-0.8l0.7-4.2c0.1-0.5,0.3-0.8,1-0.8h2.2l0.5-3.1
			c0.1-0.5,0.2-0.7,1-0.8l6.8-1.1c0.8-0.1,1.1,0.2,1,0.8l-0.8,4.3h2.6V227.3z"/>
		<path class="st1" d="M246.5,237.7l-0.3,1.8c-1.4,8.1-5.9,10.8-12.4,10.8c-5.7,0-8.8-3.1-8.8-8.2c0-0.8,0.1-1.7,0.2-2.6l0.3-1.8
			c1.4-8,5.9-10.8,12.4-10.8c5.7,0,8.9,2.8,8.9,8.1C246.8,235.8,246.7,236.7,246.5,237.7z M236.7,233.9c-1.3,0-2.2,1.1-2.7,3.7
			l-0.3,1.8c-0.1,0.7-0.2,1.3-0.2,1.8c0,1.5,0.6,1.9,1.6,1.9c1.3,0,2.1-0.8,2.7-3.7l0.3-1.8c0.1-0.7,0.2-1.3,0.2-1.8
			C238.3,234.4,237.7,233.9,236.7,233.9z"/>
		<path class="st1" d="M268,228.7l-0.9,5c-0.1,0.5-0.2,1-0.9,0.8c-1.1-0.2-5.2-0.7-6.7-0.7c-0.3,0-0.9,0-0.9,0.4
			c0,0.3,0.1,0.4,0.8,0.8l3,1.6c3.4,1.8,3.8,3.8,3.8,5.8c0,5.5-4.5,7.7-11.2,7.7c-3.3,0-5.5-0.5-6.9-1c-0.5-0.2-0.6-0.4-0.6-0.8
			l0.8-4.8c0.1-0.6,0.3-1,1.1-0.9c2.5,0.4,5.2,0.7,6.5,0.7c0.6,0,1.5,0,1.5-0.9c0-0.2-0.1-0.4-0.7-0.8l-3.4-1.9
			c-2.3-1.3-3.4-3-3.4-5.4c0-6.1,5-7.6,10.2-7.6c2.8,0,5.5,0.6,7.1,1C267.9,228.1,268.1,228.2,268,228.7z"/>
	</g>
	<g>
		<path class="st1" d="M71.5,272.7c0.6,0,0.9,0.2,0.8,0.8l-1,5.4c-0.1,0.4-0.2,0.8-0.9,0.8h-0.3c-2.3,0-3.5,0.2-4.4,0.6l-2.6,14.5
			c-0.1,0.5-0.2,0.8-0.9,0.8h-6.9c-0.5,0-0.8-0.2-0.7-0.8l3.7-20.9c0.1-0.4,0.3-0.8,0.9-0.8h6c0.5,0,0.8,0.2,0.6,0.8l-0.2,1.1
			c1.5-1.8,3.7-2.3,5.5-2.3H71.5z"/>
		<path class="st1" d="M93.2,283.4l-0.4,2.3c-0.1,0.5-0.5,0.8-1,0.8H80.3c0,0.3-0.1,0.6-0.1,0.8c0,1.2,0.8,1.6,2.9,1.6
			c1.6,0,5.8-0.2,7.2-0.3c0.6,0,0.8,0.1,0.7,0.7l-0.7,4c-0.1,0.6-0.3,0.9-0.9,1.1c-2.1,0.8-5.9,1.5-9,1.5c-4.9,0-8.7-2.7-8.7-7.9
			c0-0.7,0.1-1.5,0.2-2.3l0.4-2.3c1.4-7.9,6-10.7,12.5-10.7c6,0,8.5,3.5,8.5,8.1C93.5,281.7,93.4,282.6,93.2,283.4z M83.8,279.1
			c-1.6,0-2.3,1-2.7,3.2h4.3c0.1-0.5,0.2-0.9,0.2-1.3C85.6,279.8,85.1,279.1,83.8,279.1z"/>
		<path class="st1" d="M117.2,273.5c1.3,0.3,1.4,0.5,1.3,1.2l-3.6,20.7c-1,5.7-4.8,8.1-12,8.1c-3.4,0-6.3-0.8-7.4-1.3
			c-0.5-0.2-0.6-0.5-0.5-1.1l0.6-3.7c0.1-0.5,0.3-0.8,0.9-0.8c1.7,0.2,5.6,0.5,7.6,0.5c1.7,0,2.5-0.3,2.7-1.7l0.2-0.8
			c-0.5,0.1-1.6,0.2-2.4,0.2c-6.1,0-8.9-3.4-8.9-8c0-0.7,0.1-1.4,0.2-2.1l0.3-1.8c1.2-7.1,6-10.2,12.3-10.2
			C112.3,272.7,115.6,273.1,117.2,273.5z M107.5,279.7c-2.3,0-2.6,1.3-2.9,3.1l-0.3,1.8c-0.1,0.5-0.1,0.9-0.1,1.4c0,1,0.2,1.7,2,1.7
			c0.4,0,0.7,0,1.9-0.1l1.4-7.8C108.7,279.8,108.1,279.7,107.5,279.7z"/>
		<path class="st1" d="M118.9,294.8l3.7-20.9c0.1-0.5,0.3-0.8,1-0.8h6.8c0.7,0,0.8,0.3,0.7,0.8l-3.7,20.9c-0.1,0.5-0.3,0.8-1,0.8
			h-6.8C119.2,295.6,118.9,295.2,118.9,294.8z M131.9,265.9c0.5,0,0.9,0.1,0.8,0.8l-0.7,3.9c-0.1,0.5-0.3,0.8-1,0.8h-7.2
			c-0.7,0-0.8-0.4-0.7-0.8l0.7-3.9c0.1-0.5,0.3-0.8,1-0.8H131.9z"/>
		<path class="st1" d="M153.8,283.5l-0.3,1.8c-1.4,8.1-5.9,10.8-12.4,10.8c-5.7,0-8.8-3.1-8.8-8.2c0-0.8,0.1-1.7,0.2-2.6l0.3-1.8
			c1.4-8,5.9-10.8,12.4-10.8c5.7,0,8.9,2.8,8.9,8.1C154.1,281.6,154,282.5,153.8,283.5z M144,279.7c-1.3,0-2.2,1.1-2.7,3.7l-0.3,1.8
			c-0.1,0.7-0.2,1.3-0.2,1.8c0,1.5,0.6,1.9,1.6,1.9c1.3,0,2.1-0.8,2.7-3.7l0.3-1.8c0.1-0.7,0.2-1.3,0.2-1.8
			C145.5,280.2,144.9,279.7,144,279.7z"/>
		<path class="st1" d="M178.5,281.6l-2.3,13.2c-0.1,0.5-0.2,0.8-1,0.8h-6.9c-0.5,0-0.8-0.2-0.7-0.8l2.3-13.2c0-0.2,0-0.5,0-0.7
			c0-0.8-0.7-1.2-1.6-1.2c-0.7,0-1.5,0.2-2.2,0.6l-2.6,14.5c-0.1,0.5-0.2,0.8-0.9,0.8h-6.9c-0.5,0-0.8-0.3-0.7-0.8l3.7-20.9
			c0.1-0.4,0.5-0.8,0.9-0.8h6.3c0.6,0,0.7,0.3,0.6,0.8l-0.2,1.1c2-1.5,3.8-2.2,6.5-2.2c4.7,0,5.8,3,5.8,6.2
			C178.7,279.8,178.6,280.7,178.5,281.6z"/>
		<path class="st1" d="M202.1,283.4l-0.4,2.3c-0.1,0.5-0.5,0.8-1,0.8h-11.5c0,0.3-0.1,0.6-0.1,0.8c0,1.2,0.8,1.6,2.9,1.6
			c1.6,0,5.8-0.2,7.2-0.3c0.6,0,0.8,0.1,0.7,0.7l-0.7,4c-0.1,0.6-0.3,0.9-0.9,1.1c-2.1,0.8-5.9,1.5-9,1.5c-4.9,0-8.7-2.7-8.7-7.9
			c0-0.7,0.1-1.5,0.2-2.3l0.4-2.3c1.4-7.9,6-10.7,12.5-10.7c6,0,8.5,3.5,8.5,8.1C202.4,281.7,202.3,282.6,202.1,283.4z M192.7,279.1
			c-1.6,0-2.3,1-2.7,3.2h4.3c0.1-0.5,0.2-0.9,0.2-1.3C194.5,279.8,194,279.1,192.7,279.1z"/>
		<path class="st1" d="M223.3,274.5l-0.9,5c-0.1,0.5-0.2,1-0.9,0.8c-1.1-0.2-5.2-0.7-6.7-0.7c-0.3,0-0.9,0-0.9,0.4
			c0,0.3,0.1,0.4,0.8,0.8l3,1.6c3.4,1.8,3.8,3.8,3.8,5.8c0,5.5-4.5,7.7-11.2,7.7c-3.3,0-5.5-0.5-6.9-1c-0.5-0.2-0.6-0.4-0.6-0.8
			l0.8-4.8c0.1-0.6,0.3-1,1.1-0.9c2.5,0.4,5.2,0.7,6.5,0.7c0.6,0,1.5,0,1.5-0.9c0-0.2-0.1-0.4-0.7-0.8l-3.4-1.9
			c-2.3-1.3-3.4-3-3.4-5.4c0-6.1,5-7.6,10.2-7.6c2.8,0,5.5,0.6,7.1,1C223.2,273.9,223.4,274,223.3,274.5z"/>
	</g>
	<g>
		<path class="st2" d="M89,182.8c3.7,2.6,5.1,6.4,5.1,9.9c0,15-11.6,19.6-24.6,19.6c-6.6,0-14.6-1.7-17.5-3.1
			c-0.5-0.3-1.3-0.6-1.3-1.3c0-0.1,0-0.2,0-0.2l1.5-8.9c0.2-0.8,1-1.5,1.8-1.5h0.1c4,0,11.2,0.8,16.3,0.8c3.6,0,6.3-1.5,6.3-5.3
			c0-1.8-1-3.3-3.8-3.3H59.8c-0.8,0-1.3-0.6-1.3-1.3c0-0.1,0-0.2,0-0.2l1.8-9.8c0.2-0.8,1-1.5,1.8-1.5h12.3c3.4,0,6.2-1.7,6.2-5.3
			c0-2-1.5-3-4.8-3c-5.1,0-12,0.8-16.1,0.8h-0.1c-0.7,0-1.2-0.5-1.2-1.2c0-0.1,0-0.2,0-0.2v-0.1l1.5-8.9c0.2-0.8,1.1-1.1,1.9-1.5
			c3.4-1.5,11.5-3.1,18-3.1c12.2,0,18.9,4.1,18.9,12.7C98.7,174.5,95.7,179,89,182.8z"/>
		<path class="st2" d="M151.5,156.4l-1.5,8.5c-0.2,1.5-1,2.5-1.5,3.4L122.2,210c-0.5,0.8-1,1.5-1.8,1.5h-16.3
			c-0.7,0-1.1-0.2-1.1-0.5c0-0.2,0.2-0.6,0.4-1l26.3-40.9h-17.6c-0.8,0-1.3-0.5-1.3-1.3c0-0.1,0-0.2,0-0.2l1.9-11.2
			c0.2-0.8,1.1-1.5,1.9-1.5h35.7c0.8,0,1.2,0.5,1.2,1.2C151.5,156.2,151.5,156.3,151.5,156.4z"/>
	</g>
	<g>
		<path class="st2" d="M361.4,148.2l2.1-11.9l-4.8,1.5c-0.2,0.1-0.4,0.1-0.5,0.1c-0.3,0-0.3-0.2-0.3-0.5l1.1-6.5
			c0.1-0.4,0.3-0.6,0.6-0.8l7.4-2.6c0.3-0.1,0.5-0.2,0.9-0.2h5.3c0.4,0,0.7,0.3,0.6,0.8l-3.5,20h4.6c0.4,0,0.7,0.3,0.6,0.8l-1.1,6.1
			c-0.1,0.4-0.5,0.8-0.9,0.8h-18.2c-0.4,0-0.8-0.3-0.7-0.8l1.1-6.1c0.1-0.4,0.5-0.8,1-0.8L361.4,148.2L361.4,148.2z"/>
	</g>
	<g>
		<path class="st1" d="M414.5,137v0.3c-1.2,8.5-8.6,10-14,10c-0.8,0-1.2,0-2.3-0.1l-1.4,7.9c-0.1,0.4-0.3,0.8-0.9,0.8h-7.4
			c-0.3,0-0.6-0.2-0.6-0.6l4.3-24.4c0.4-2.4,1.1-2.9,3.2-3.2c1.9-0.3,5.8-0.5,8.4-0.5c5.2,0,10.7,2,10.7,8.3
			C414.6,135.9,414.6,136.4,414.5,137z M402.8,134.6h-2.3l-0.9,5.2h2.3c1.9,0,3.5-0.8,3.7-2.4v-0.3c0-0.2,0-0.3,0-0.5
			C405.6,135.2,404.5,134.6,402.8,134.6z"/>
		<path class="st1" d="M439.2,134.1l-3.7,20.9c-0.1,0.4-0.2,0.8-0.9,0.8h-6.3c-0.4,0-0.8-0.2-0.6-0.8l0.2-1.1
			c-1.8,1.3-3.2,2.2-6.3,2.2c-4.4,0-6-3-6-6.5c0-0.8,0.1-1.6,0.2-2.3l2.3-13.2c0.1-0.5,0.5-0.8,1-0.8h6.9c0.5,0,0.8,0.3,0.7,0.8
			l-2.2,12.6c-0.1,0.4-0.2,1-0.2,1.1c0,1,0.7,1.3,1.6,1.3c0.7,0,1.5-0.2,2.2-0.6l2.6-14.5c0.1-0.5,0.3-0.8,0.9-0.8h6.9
			C438.9,133.3,439.3,133.4,439.2,134.1z"/>
		<path class="st1" d="M462.7,141.8l-2.3,13.2c-0.1,0.5-0.2,0.8-1,0.8h-6.9c-0.5,0-0.8-0.2-0.7-0.8l2.3-13.2c0-0.2,0-0.5,0-0.7
			c0-0.8-0.7-1.2-1.6-1.2c-0.7,0-1.5,0.2-2.2,0.6l-2.6,14.5c-0.1,0.5-0.2,0.8-0.9,0.8H440c-0.5,0-0.8-0.3-0.7-0.8l3.7-21
			c0.1-0.4,0.5-0.8,0.9-0.8h6.3c0.6,0,0.7,0.3,0.6,0.8l-0.2,1.1c2-1.5,3.8-2.2,6.5-2.2c4.7,0,5.8,3,5.8,6.2
			C463,140,462.9,140.9,462.7,141.8z"/>
		<path class="st1" d="M481,133.3c0.6,0,0.9,0.2,0.8,0.8l-0.8,4.6c-0.1,0.5-0.3,0.8-1,0.8h-2.7l-1.6,9.4c0,0.2-0.1,0.4-0.1,0.6
			c0,0.4,0.2,0.5,0.7,0.5h1.8c0.5,0,0.8,0.1,0.6,0.8L478,155c-0.1,0.5-0.2,0.7-1,0.8c-1.6,0.3-2.4,0.4-4.1,0.4c-2.7,0-6-1.1-6-5.5
			c0-0.6,0.1-1.2,0.2-1.9l1.6-9.2l-2.1-0.4c-0.4-0.1-0.8-0.2-0.7-0.8l0.7-4.2c0.1-0.5,0.3-0.8,1-0.8h2.2l0.5-3.1
			c0.1-0.5,0.2-0.7,1-0.8l6.8-1.1c0.8-0.1,1.1,0.2,1,0.8l-0.8,4.3h2.7V133.3z"/>
		<path class="st1" d="M505.2,135.2l-3.5,19.9c-0.1,0.4-0.2,0.8-0.8,0.8h-5.5c-0.7,0-0.8-0.3-0.8-0.8l0.2-1.1
			c-1.8,1.5-3.2,2.2-6.2,2.2c-4.1,0-6.7-2.6-6.7-7c0-1.3,0.1-1.9,0.2-2.6l0.6-3.5c1.4-8.2,6.2-10.2,12.4-10.2c2.9,0,5.9,0.4,8.8,0.9
			C504.8,134,505.3,134.2,505.2,135.2z M494.2,139.9c-1.6,0-2.5,0.6-2.9,3.1l-0.7,3.7c-0.1,0.4-0.1,0.8-0.1,1.1
			c0,1.1,0.5,1.4,1.5,1.4c0.8,0,1.7-0.3,2.4-0.6l1.5-8.6C495.2,140,494.6,139.9,494.2,139.9z"/>
		<path class="st1" d="M538.2,155.8h-7.9c-0.4,0-0.6-0.3-0.6-0.8v-4.3h-5.8l-1.4,4.3c-0.2,0.4-0.5,0.8-1,0.8h-8
			c-0.3,0-0.5-0.2-0.5-0.4c0-0.1,0-0.2,0.1-0.3l8.6-23.1c1.5-3.9,4.6-4.9,9.3-4.9s7.4,1,7.4,4.9l0.5,23.1l0,0
			C538.9,155.5,538.6,155.8,538.2,155.8z M529.7,134.4c-0.3,0-0.3,0.2-0.4,0.5l-3,8.9h3.5l0.2-8.9c0-0.1,0-0.2,0-0.2
			C530,134.5,529.9,134.4,529.7,134.4z"/>
		<path class="st1" d="M558.4,132.9c0.6,0,0.9,0.2,0.8,0.8l-1,5.4c-0.1,0.4-0.2,0.8-0.9,0.8H557c-2.3,0-3.5,0.2-4.4,0.6L550,155
			c-0.1,0.5-0.2,0.8-0.9,0.8h-6.9c-0.5,0-0.8-0.2-0.7-0.8l3.7-20.9c0.1-0.4,0.3-0.8,0.9-0.8h6c0.5,0,0.8,0.2,0.6,0.8l-0.2,1.1
			c1.5-1.8,3.7-2.3,5.5-2.3L558.4,132.9L558.4,132.9z"/>
		<path class="st1" d="M580.2,143.6l-0.4,2.3c-0.1,0.5-0.5,0.8-1,0.8h-11.5c0,0.3-0.1,0.6-0.1,0.8c0,1.2,0.8,1.6,2.9,1.6
			c1.6,0,5.8-0.2,7.2-0.3c0.6,0,0.8,0.1,0.7,0.7l-0.7,4c-0.1,0.6-0.3,0.9-0.9,1.1c-2.1,0.8-5.9,1.5-9,1.5c-4.9,0-8.7-2.7-8.7-7.9
			c0-0.7,0.1-1.5,0.2-2.3l0.4-2.3c1.4-7.9,6-10.7,12.5-10.7c6,0,8.5,3.5,8.5,8.1C580.5,141.9,580.4,142.8,580.2,143.6z M570.8,139.3
			c-1.6,0-2.3,1-2.7,3.2h4.3c0.1-0.5,0.2-0.9,0.2-1.3C572.6,140,572.1,139.3,570.8,139.3z"/>
		<path class="st1" d="M604.9,141.8l-2.3,13.2c-0.1,0.5-0.2,0.8-1,0.8h-6.9c-0.5,0-0.8-0.2-0.7-0.8l2.3-13.2c0-0.2,0-0.5,0-0.7
			c0-0.8-0.7-1.2-1.6-1.2c-0.7,0-1.5,0.2-2.2,0.6L590,155c-0.1,0.5-0.2,0.8-0.9,0.8h-6.9c-0.5,0-0.8-0.3-0.7-0.8l3.7-20.9
			c0.1-0.4,0.5-0.8,0.9-0.8h6.3c0.6,0,0.7,0.3,0.6,0.8l-0.2,1.1c2-1.5,3.8-2.2,6.5-2.2c4.7,0,5.8,3,5.8,6.2
			C605.2,140,605,140.9,604.9,141.8z"/>
		<path class="st1" d="M630.6,135.2l-3.5,19.9c-0.1,0.4-0.2,0.8-0.8,0.8h-5.5c-0.7,0-0.8-0.3-0.8-0.8l0.2-1.1
			c-1.8,1.5-3.2,2.2-6.2,2.2c-4.1,0-6.7-2.6-6.7-7c0-1.3,0.1-1.9,0.2-2.6l0.6-3.5c1.4-8.2,6.2-10.2,12.4-10.2c2.9,0,5.9,0.4,8.8,0.9
			C630.2,134,630.7,134.2,630.6,135.2z M619.6,139.9c-1.6,0-2.5,0.6-2.9,3.1l-0.7,3.7c-0.1,0.4-0.1,0.8-0.1,1.1
			c0,1.1,0.5,1.4,1.5,1.4c0.8,0,1.7-0.3,2.4-0.6l1.5-8.6C620.6,140,620,139.9,619.6,139.9z"/>
		<path class="st1" d="M651.1,134.7l-0.9,5c-0.1,0.5-0.2,1-0.9,0.8c-1.1-0.2-5.2-0.7-6.7-0.7c-0.3,0-0.9,0-0.9,0.4
			c0,0.3,0.1,0.4,0.8,0.8l3,1.6c3.4,1.8,3.8,3.8,3.8,5.8c0,5.5-4.5,7.7-11.2,7.7c-3.3,0-5.5-0.5-6.9-1c-0.5-0.2-0.6-0.4-0.6-0.8
			l0.8-4.8c0.1-0.6,0.3-1,1.1-0.9c2.5,0.4,5.2,0.7,6.5,0.7c0.6,0,1.5,0,1.5-0.9c0-0.2-0.1-0.4-0.7-0.8l-3.4-1.9
			c-2.3-1.3-3.4-3-3.4-5.4c0-6.1,5-7.6,10.2-7.6c2.8,0,5.5,0.6,7.1,1C651,134.1,651.2,134.2,651.1,134.7z"/>
	</g>
	<g>
		<path class="st2" d="M361.4,256.1l2.1-11.9l-4.8,1.5c-0.2,0.1-0.4,0.1-0.5,0.1c-0.3,0-0.3-0.2-0.3-0.5l1.1-6.5
			c0.1-0.4,0.3-0.6,0.6-0.8l7.4-2.6c0.3-0.1,0.5-0.2,0.9-0.2h5.3c0.4,0,0.7,0.3,0.6,0.8l-3.5,20h4.6c0.4,0,0.7,0.3,0.6,0.8l-1.1,6.1
			c-0.1,0.4-0.5,0.8-0.9,0.8h-18.2c-0.4,0-0.8-0.3-0.7-0.8l1.1-6.1c0.1-0.4,0.5-0.8,1-0.8h4.7V256.1z"/>
		<path class="st2" d="M404.1,236.1l-1,5.6c-0.1,0.4-0.4,0.8-0.9,0.8h-10.4l-0.8,3.1h1.7c7.1,0,9,3.5,9,6.9
			c0,8.5-5.2,11.6-13.3,11.6c-2.8,0-5.6-0.5-7.7-1.4c-0.3-0.1-0.7-0.3-0.7-0.6V262l0.8-4.6c0.1-0.6,0.4-0.8,0.8-0.8h0.1
			c2.2,0.2,5,0.4,6.1,0.4c2.6,0,4.5-0.3,4.5-3.1c0-1-0.6-1.6-2.7-1.6h-7c-0.4,0-0.7-0.3-0.7-0.7c0-0.1,0-0.2,0-0.2l3.8-15.3
			c0.1-0.4,0.5-0.8,0.9-0.8h16.8c0.4,0,0.6,0.3,0.6,0.6C404.1,236,404.1,236,404.1,236.1L404.1,236.1z"/>
	</g>
	<g>
		<path class="st1" d="M437.3,263.7h-7.9c-0.4,0-0.6-0.3-0.6-0.8v-4.3H423l-1.4,4.3c-0.2,0.4-0.5,0.8-1,0.8h-8
			c-0.3,0-0.5-0.2-0.5-0.4c0-0.1,0-0.2,0.1-0.3l8.6-23.1c1.5-3.9,4.6-4.9,9.3-4.9c4.7,0,7.4,1,7.4,4.9L438,263l0,0
			C438,263.4,437.7,263.7,437.3,263.7z M428.8,242.2c-0.3,0-0.3,0.2-0.4,0.5l-3,8.9h3.5l0.2-8.9c0-0.1,0-0.2,0-0.2
			C429,242.4,429,242.2,428.8,242.2z"/>
		<path class="st1" d="M464.1,249.7l-2.3,13.2c-0.1,0.5-0.2,0.8-1,0.8H454c-0.5,0-0.8-0.2-0.7-0.8l2.3-13.2c0-0.2,0-0.5,0-0.7
			c0-0.8-0.7-1.2-1.6-1.2c-0.7,0-1.5,0.2-2.2,0.6l-2.6,14.5c-0.1,0.5-0.2,0.8-0.9,0.8h-6.9c-0.5,0-0.8-0.3-0.7-0.8l3.7-20.9
			c0.1-0.4,0.5-0.8,0.9-0.8h6.3c0.6,0,0.7,0.3,0.6,0.8l-0.2,1.1c2-1.5,3.8-2.2,6.5-2.2c4.7,0,5.8,3,5.8,6.2
			C464.4,247.9,464.3,248.8,464.1,249.7z"/>
		<path class="st1" d="M482.4,241.2c0.6,0,0.9,0.2,0.8,0.8l-0.8,4.6c-0.1,0.5-0.3,0.8-1,0.8h-2.7l-1.6,9.4c0,0.2-0.1,0.4-0.1,0.6
			c0,0.4,0.2,0.5,0.7,0.5h1.8c0.5,0,0.8,0.1,0.6,0.8l-0.7,4.2c-0.1,0.5-0.2,0.7-1,0.8c-1.6,0.3-2.4,0.4-4.1,0.4c-2.7,0-6-1.1-6-5.5
			c0-0.6,0.1-1.2,0.2-1.9l1.6-9.2l-2.1-0.4c-0.4-0.1-0.8-0.2-0.7-0.8l0.7-4.2c0.1-0.5,0.3-0.8,1-0.8h2.2l0.5-3.1
			c0.1-0.5,0.2-0.7,1-0.8l6.8-1.1c0.8-0.1,1.1,0.2,1,0.8l-0.8,4.3h2.7V241.2z"/>
		<path class="st1" d="M504.8,251.6l-0.3,1.8c-1.4,8.1-5.9,10.8-12.4,10.8c-5.7,0-8.8-3.1-8.8-8.2c0-0.8,0.1-1.7,0.2-2.6l0.3-1.8
			c1.4-8,5.9-10.8,12.4-10.8c5.7,0,8.9,2.8,8.9,8.1C505.1,249.7,505,250.6,504.8,251.6z M495,247.8c-1.3,0-2.2,1.1-2.7,3.7l-0.3,1.8
			c-0.1,0.7-0.2,1.3-0.2,1.8c0,1.5,0.6,1.9,1.6,1.9c1.3,0,2.1-0.8,2.7-3.7l0.3-1.8c0.1-0.7,0.2-1.3,0.2-1.8
			C496.5,248.3,496,247.8,495,247.8z"/>
		<path class="st1" d="M523.6,233.7c0.7,0.2,0.7,0.4,0.6,0.8l-0.7,4.2c-0.1,0.5-0.3,0.8-1,0.8h-1.3c-0.9,0-1.3,0-1.5,1.3l-0.1,0.4
			h2.6c0.6,0,0.8,0.2,0.7,0.8l-0.8,4.6c-0.1,0.5-0.3,0.8-1,0.8h-2.6l-2.8,16c-1.1,6.3-3.9,7.5-8.6,7.5c-1,0-2.5-0.2-3.6-0.4
			c-0.6-0.1-0.7-0.4-0.6-0.8l0.7-4.2c0.1-0.5,0.2-0.8,1-0.8h1.1c0.9,0,1.3,0,1.5-1.3l2.8-16l-2.4-0.3c-0.4,0-0.8-0.2-0.7-0.8
			l0.7-4.3c0.1-0.5,0.3-0.8,1-0.8h2.5l0.1-0.5c1-6.3,3.9-7.4,8.6-7.4C520.8,233.3,522.5,233.5,523.6,233.7z"/>
		<path class="st1" d="M546,243.1l-3.5,19.9c-0.1,0.4-0.2,0.8-0.8,0.8h-5.5c-0.7,0-0.8-0.3-0.8-0.8l0.2-1.1
			c-1.8,1.5-3.2,2.2-6.2,2.2c-4.1,0-6.7-2.6-6.7-7c0-1.3,0.1-1.9,0.2-2.6l0.6-3.5c1.4-8.2,6.2-10.2,12.4-10.2c2.9,0,5.9,0.4,8.8,0.9
			C545.6,241.9,546.1,242.1,546,243.1z M535,247.8c-1.6,0-2.5,0.6-2.9,3.1l-0.7,3.7c-0.1,0.4-0.1,0.8-0.1,1.1c0,1.1,0.5,1.4,1.5,1.4
			c0.8,0,1.7-0.3,2.4-0.6l1.5-8.6C536,247.9,535.4,247.8,535,247.8z"/>
		<path class="st1" d="M569,241.6c1.3,0.3,1.4,0.5,1.3,1.2l-3.6,20.7c-1,5.7-4.8,8.1-12,8.1c-3.4,0-6.3-0.8-7.4-1.3
			c-0.5-0.2-0.6-0.5-0.5-1.1l0.6-3.7c0.1-0.5,0.3-0.8,0.9-0.8c1.7,0.2,5.6,0.5,7.6,0.5c1.7,0,2.5-0.3,2.7-1.7l0.2-0.8
			c-0.5,0.1-1.6,0.2-2.4,0.2c-6.1,0-8.9-3.4-8.9-8c0-0.7,0.1-1.4,0.2-2.1l0.3-1.8c1.2-7.1,6-10.2,12.3-10.2
			C564.1,240.8,567.4,241.2,569,241.6z M559.3,247.8c-2.3,0-2.6,1.3-2.9,3.1l-0.3,1.8c-0.1,0.5-0.1,0.9-0.1,1.4c0,1,0.2,1.7,2,1.7
			c0.4,0,0.7,0,1.9-0.1l1.4-7.8C560.5,247.9,559.9,247.8,559.3,247.8z"/>
		<path class="st1" d="M594.8,243.1l-3.5,19.9c-0.1,0.4-0.2,0.8-0.8,0.8H585c-0.7,0-0.8-0.3-0.8-0.8l0.2-1.1
			c-1.8,1.5-3.2,2.2-6.2,2.2c-4.1,0-6.7-2.6-6.7-7c0-1.3,0.1-1.9,0.2-2.6l0.6-3.5c1.4-8.2,6.2-10.2,12.4-10.2c2.9,0,5.9,0.4,8.8,0.9
			C594.4,241.9,595,242.1,594.8,243.1z M583.8,247.8c-1.6,0-2.5,0.6-2.9,3.1l-0.7,3.7c-0.1,0.4-0.1,0.8-0.1,1.1
			c0,1.1,0.5,1.4,1.5,1.4c0.8,0,1.7-0.3,2.4-0.6l1.5-8.6C584.9,247.9,584.3,247.8,583.8,247.8z"/>
		<path class="st1" d="M615.4,242.6l-0.9,5c-0.1,0.5-0.2,1-0.9,0.8c-1.1-0.2-5.2-0.7-6.7-0.7c-0.3,0-0.9,0-0.9,0.4
			c0,0.3,0.1,0.4,0.8,0.8l3,1.6c3.4,1.8,3.8,3.8,3.8,5.8c0,5.5-4.5,7.7-11.2,7.7c-3.3,0-5.5-0.5-6.9-1c-0.5-0.2-0.6-0.4-0.6-0.8
			l0.8-4.8c0.1-0.6,0.3-1,1.1-0.9c2.5,0.4,5.2,0.7,6.5,0.7c0.6,0,1.5,0,1.5-0.9c0-0.2-0.1-0.4-0.7-0.8l-3.4-1.9
			c-2.3-1.3-3.4-3-3.4-5.4c0-6.1,5-7.6,10.2-7.6c2.8,0,5.5,0.6,7.1,1C615.3,242,615.5,242.1,615.4,242.6z"/>
		<path class="st1" d="M632.6,241.2c0.6,0,0.9,0.2,0.8,0.8l-0.8,4.6c-0.1,0.5-0.3,0.8-1,0.8h-2.7l-1.6,9.4c0,0.2-0.1,0.4-0.1,0.6
			c0,0.4,0.2,0.5,0.7,0.5h1.8c0.5,0,0.8,0.1,0.6,0.8l-0.7,4.2c-0.1,0.5-0.2,0.7-1,0.8c-1.6,0.3-2.4,0.4-4.1,0.4c-2.7,0-6-1.1-6-5.5
			c0-0.6,0.1-1.2,0.2-1.9l1.6-9.2l-2.1-0.4c-0.4-0.1-0.8-0.2-0.7-0.8l0.7-4.2c0.1-0.5,0.3-0.8,1-0.8h2.2l0.5-3.1
			c0.1-0.5,0.2-0.7,1-0.8l6.8-1.1c0.8-0.1,1.1,0.2,1,0.8l-0.8,4.3h2.7V241.2z"/>
		<path class="st1" d="M656.7,243.1l-3.5,19.9c-0.1,0.4-0.2,0.8-0.8,0.8H647c-0.7,0-0.8-0.3-0.8-0.8l0.2-1.1
			c-1.8,1.5-3.2,2.2-6.2,2.2c-4.1,0-6.7-2.6-6.7-7c0-1.3,0.1-1.9,0.2-2.6l0.6-3.5c1.4-8.2,6.2-10.2,12.4-10.2c2.9,0,5.9,0.4,8.8,0.9
			C656.4,241.9,656.9,242.1,656.7,243.1z M645.7,247.8c-1.6,0-2.5,0.6-2.9,3.1l-0.7,3.7c-0.1,0.4-0.1,0.8-0.1,1.1
			c0,1.1,0.5,1.4,1.5,1.4c0.8,0,1.7-0.3,2.4-0.6l1.5-8.6C646.8,247.9,646.2,247.8,645.7,247.8z"/>
	</g>
	<g>
		<path class="st2" d="M377.6,181.5l-2.7,15.4h1.9c0.4,0,0.6,0.3,0.6,0.6v0.1l-0.9,5.2c-0.1,0.4-0.5,0.8-0.9,0.8h-1.9l-0.8,4.7
			c-0.1,0.4-0.5,0.8-0.9,0.8h-7.4c-0.4,0-0.6-0.3-0.6-0.6c0-0.1,0-0.1,0-0.2l0.8-4.7h-10.2c-0.4,0-0.6-0.3-0.6-0.6
			c0-0.1,0-0.1,0-0.2l0.8-5c0.1-0.4,0.3-0.7,0.6-1.1l15.5-16c0.2-0.2,0.3-0.2,0.5-0.2c0.1,0,0.2,0,0.3,0h5.3c0.4,0,0.6,0.3,0.6,0.6
			C377.6,181.4,377.6,181.5,377.6,181.5z M361.5,197h4.9l1.1-6.2L361.5,197z"/>
	</g>
	<g>
		<path class="st1" d="M409.1,188c-0.1,0.5-0.3,0.8-0.9,0.7c-1.2-0.2-3.4-0.3-5-0.3c-1.5,0-3.1,0.3-4,5.1l-0.6,3.1
			c-0.2,1-0.3,1.8-0.3,2.5c0,2.4,1.2,2.6,2.5,2.6c1.5,0,3.9-0.2,5.1-0.3c0.6-0.1,0.7,0.2,0.6,0.7l-1.1,6c-0.1,0.5-0.2,0.6-0.9,0.8
			c-1.3,0.4-3.1,0.7-5.2,0.7c-7,0-10.3-3.7-10.3-9.5c0-1.1,0.1-2.3,0.3-3.5l0.6-3.1c1.8-9.7,6.3-13,14.3-13c2.1,0,4.1,0.3,5.1,0.7
			c0.4,0.2,0.8,0.3,0.7,0.8L409.1,188z"/>
		<path class="st1" d="M431.1,197l-0.3,1.8c-1.4,8.1-5.9,10.8-12.4,10.8c-5.7,0-8.8-3.1-8.8-8.2c0-0.8,0.1-1.7,0.2-2.6l0.3-1.8
			c1.4-8,5.9-10.8,12.4-10.8c5.7,0,8.9,2.8,8.9,8.1C431.4,195.1,431.3,196.1,431.1,197z M421.3,193.3c-1.3,0-2.2,1.1-2.7,3.7
			l-0.3,1.8c-0.1,0.7-0.2,1.3-0.2,1.8c0,1.5,0.6,1.9,1.6,1.9c1.3,0,2.1-0.8,2.7-3.7l0.3-1.8c0.1-0.7,0.2-1.3,0.2-1.8
			C422.9,193.7,422.3,193.3,421.3,193.3z"/>
		<path class="st1" d="M457.9,187.4l-10.5,22.9c-1.9,4-4.3,6.7-10.7,6.7c-1.7,0-4.6-0.4-5.6-0.8c-0.6-0.2-0.8-0.3-0.7-0.8l0.8-4.4
			c0.1-0.4,0.2-0.9,1-0.8c1.6,0.1,4,0.3,5.7,0.3c0.8,0,1.4-0.2,1.7-0.9l0.6-1.3h-0.5c-1.4,0-2.8-0.4-3.2-3l-2.3-17.9
			c-0.1-0.6,0.2-0.8,1-0.8h7.3c0.5,0,0.6,0.4,0.6,0.8l0.5,11.9c0,0.3,0.1,0.5,0.3,0.5h0.3l4.6-12.4c0.2-0.4,0.4-0.8,1-0.8h7.9
			C457.9,186.6,458.1,186.8,457.9,187.4z"/>
		<path class="st1" d="M480.1,195.2l-2.3,13.1c-0.1,0.5-0.3,0.8-1,0.8H470c-0.5,0-0.8-0.3-0.7-0.8l2.3-13c0-0.3,0.1-0.5,0.1-0.7
			c0-0.9-0.5-1.2-1.8-1.2c-0.7,0-1.3,0.1-2,0.2l-2.6,14.7c-0.1,0.5-0.2,0.8-0.9,0.8h-6.9c-0.5,0-0.8-0.2-0.7-0.8l5-28.1
			c0.1-0.4,0.2-0.8,0.9-0.8h7c0.4,0,0.8,0.2,0.6,0.8l-1.2,6.8c1.6-0.4,2.9-0.7,4.5-0.7c4.5,0,6.8,2.6,6.8,6.7
			C480.3,193.6,480.3,194.4,480.1,195.2z"/>
		<path class="st1" d="M505.8,188.5l-3.5,19.9c-0.1,0.4-0.2,0.8-0.8,0.8H496c-0.7,0-0.8-0.3-0.8-0.8l0.2-1.1
			c-1.8,1.5-3.2,2.2-6.2,2.2c-4.1,0-6.7-2.6-6.7-7c0-1.3,0.1-1.9,0.2-2.6l0.6-3.5c1.4-8.2,6.2-10.2,12.4-10.2c2.9,0,5.9,0.4,8.8,0.9
			C505.4,187.3,505.9,187.6,505.8,188.5z M494.8,193.3c-1.6,0-2.5,0.6-2.9,3.1l-0.7,3.7c-0.1,0.4-0.1,0.8-0.1,1.1
			c0,1.1,0.5,1.4,1.5,1.4c0.8,0,1.7-0.3,2.4-0.6l1.5-8.6C495.8,193.3,495.2,193.3,494.8,193.3z"/>
		<path class="st1" d="M506.2,208.3l3.7-20.9c0.1-0.5,0.3-0.8,1-0.8h6.8c0.7,0,0.8,0.3,0.7,0.8l-3.7,20.9c-0.1,0.5-0.3,0.8-1,0.8
			H507C506.5,209.1,506.2,208.8,506.2,208.3z M519.2,179.4c0.5,0,0.9,0.1,0.8,0.8l-0.7,3.9c-0.1,0.5-0.3,0.8-1,0.8H511
			c-0.7,0-0.8-0.4-0.7-0.8l0.7-3.9c0.1-0.5,0.3-0.8,1-0.8H519.2z"/>
		<path class="st1" d="M541.4,187.2c1.1,0.2,1.4,0.6,1.3,1.3l-4.8,27.1c-0.1,0.5-0.2,0.8-1,0.8H530c-0.5,0-0.8-0.2-0.6-0.8l1.1-6.3
			c-0.5,0.1-1.6,0.2-2.1,0.2c-5.5,0-8.9-3.2-8.9-8.1c0-0.7,0.1-1.4,0.2-2.1l0.5-3c1.3-7.4,6-10.2,12.3-10.2
			C536.4,186.2,539.6,186.8,541.4,187.2z M531.7,193.3c-2.3,0-2.7,1.3-3.1,3.1l-0.5,3c-0.1,0.4-0.1,0.8-0.1,1.2c0,1,0.2,1.9,1.9,1.9
			c0.6,0,0.7,0,1.8-0.1l1.6-9C532.4,193.3,532.2,193.3,531.7,193.3z"/>
		<path class="st1" d="M567.7,187.5l-3.7,20.9c-0.1,0.4-0.2,0.8-0.9,0.8h-6.3c-0.4,0-0.8-0.2-0.6-0.8l0.2-1.1
			c-1.8,1.3-3.2,2.2-6.3,2.2c-4.4,0-6-3-6-6.5c0-0.8,0.1-1.6,0.2-2.3l2.3-13.2c0.1-0.5,0.5-0.8,1-0.8h6.9c0.5,0,0.8,0.3,0.7,0.8
			l-2.2,12.6c-0.1,0.4-0.2,1-0.2,1.1c0,1,0.7,1.3,1.6,1.3c0.7,0,1.5-0.2,2.2-0.6l2.6-14.5c0.1-0.5,0.3-0.8,0.9-0.8h6.9
			C567.4,186.6,567.8,186.8,567.7,187.5z"/>
		<path class="st1" d="M590,197l-0.4,2.3c-0.1,0.5-0.5,0.8-1,0.8h-11.5c0,0.3-0.1,0.6-0.1,0.8c0,1.2,0.8,1.6,2.9,1.6
			c1.6,0,5.8-0.2,7.2-0.3c0.6,0,0.8,0.1,0.7,0.7l-0.7,4c-0.1,0.6-0.3,0.9-0.9,1.1c-2.1,0.8-5.9,1.5-9,1.5c-4.9,0-8.7-2.7-8.7-7.9
			c0-0.7,0.1-1.5,0.2-2.3l0.4-2.3c1.4-7.9,6-10.7,12.5-10.7c6,0,8.5,3.5,8.5,8.1C590.3,195.2,590.2,196.1,590,197z M580.6,192.7
			c-1.6,0-2.3,1-2.7,3.2h4.3c0.1-0.5,0.2-0.9,0.2-1.3C582.4,193.3,581.9,192.7,580.6,192.7z"/>
	</g>
	<g>
		<path class="st2" d="M361.4,309.4l2.1-11.9l-4.8,1.5c-0.2,0.1-0.4,0.1-0.5,0.1c-0.3,0-0.3-0.2-0.3-0.5l1.1-6.5
			c0.1-0.4,0.3-0.6,0.6-0.8l7.4-2.6c0.3-0.1,0.5-0.2,0.9-0.2h5.3c0.4,0,0.7,0.3,0.6,0.8l-3.5,20h4.6c0.4,0,0.7,0.3,0.6,0.8l-1.1,6.1
			c-0.1,0.4-0.5,0.8-0.9,0.8h-18.2c-0.4,0-0.8-0.3-0.7-0.8l1.1-6.1c0.1-0.4,0.5-0.8,1-0.8h4.7V309.4z"/>
		<path class="st2" d="M404.1,289.4l-1,5.6c-0.1,0.4-0.4,0.8-0.9,0.8h-10.4l-0.8,3.1h1.7c7.1,0,9,3.5,9,6.9
			c0,8.5-5.2,11.6-13.3,11.6c-2.8,0-5.6-0.5-7.7-1.4c-0.3-0.1-0.7-0.3-0.7-0.6v-0.1l0.8-4.6c0.1-0.6,0.4-0.8,0.8-0.8h0.1
			c2.2,0.2,5,0.4,6.1,0.4c2.6,0,4.5-0.3,4.5-3.1c0-1-0.6-1.6-2.7-1.6h-7c-0.4,0-0.7-0.3-0.7-0.7c0-0.1,0-0.2,0-0.2l3.8-15.3
			c0.1-0.4,0.5-0.8,0.9-0.8h16.8c0.4,0,0.6,0.3,0.6,0.6C404.1,289.3,404.1,289.4,404.1,289.4L404.1,289.4z"/>
	</g>
	<g>
		<path class="st1" d="M427.5,289.4l-4.7,26.8c-0.1,0.4-0.2,0.8-0.9,0.8h-7.4c-0.5,0-0.7-0.3-0.6-0.8l4.7-26.8
			c0.1-0.4,0.3-0.8,1-0.8h7.4C427.3,288.7,427.5,288.9,427.5,289.4z"/>
		<path class="st1" d="M449.7,295.1c1.1,0.2,1.4,0.6,1.3,1.3l-4.8,27.1c-0.1,0.5-0.2,0.8-1,0.8h-6.8c-0.5,0-0.8-0.2-0.6-0.8l1.1-6.3
			c-0.5,0.1-1.6,0.2-2.1,0.2c-5.5,0-8.9-3.2-8.9-8.1c0-0.7,0.1-1.4,0.2-2.1l0.5-3c1.3-7.4,6-10.2,12.3-10.2
			C444.7,294.1,447.9,294.7,449.7,295.1z M440,301.2c-2.3,0-2.7,1.3-3.1,3.1l-0.5,3c-0.1,0.4-0.1,0.8-0.1,1.2c0,1,0.2,1.9,1.9,1.9
			c0.6,0,0.7,0,1.8-0.1l1.6-9C440.7,301.2,440.5,301.2,440,301.2z"/>
		<path class="st1" d="M476,295.4l-3.7,20.9c-0.1,0.4-0.2,0.8-0.9,0.8h-6.3c-0.4,0-0.8-0.2-0.6-0.8l0.2-1.1
			c-1.8,1.3-3.2,2.2-6.3,2.2c-4.4,0-6-3-6-6.5c0-0.8,0.1-1.6,0.2-2.3l2.3-13.2c0.1-0.5,0.5-0.8,1-0.8h6.9c0.5,0,0.8,0.3,0.7,0.8
			l-2.2,12.6c-0.1,0.4-0.2,1-0.2,1.1c0,1,0.7,1.3,1.6,1.3c0.7,0,1.5-0.2,2.2-0.6l2.6-14.5c0.1-0.5,0.3-0.8,0.9-0.8h6.9
			C475.7,294.5,476.1,294.7,476,295.4z"/>
		<path class="st1" d="M476.3,316.2l3.7-20.9c0.1-0.5,0.3-0.8,1-0.8h6.8c0.7,0,0.8,0.3,0.7,0.8l-3.7,20.9c-0.1,0.5-0.3,0.8-1,0.8
			H477C476.5,317,476.2,316.7,476.3,316.2z M489.2,287.3c0.5,0,0.9,0.1,0.8,0.8l-0.7,3.9c-0.1,0.5-0.3,0.8-1,0.8H481
			c-0.7,0-0.8-0.4-0.7-0.8l0.7-3.9c0.1-0.5,0.3-0.8,1-0.8H489.2z"/>
		<path class="st1" d="M511.4,295.1c1.1,0.2,1.4,0.6,1.3,1.3l-4.8,27.1c-0.1,0.5-0.2,0.8-1,0.8h-6.8c-0.5,0-0.8-0.2-0.6-0.8l1.1-6.3
			c-0.5,0.1-1.6,0.2-2.1,0.2c-5.5,0-8.9-3.2-8.9-8.1c0-0.7,0.1-1.4,0.2-2.1l0.5-3c1.3-7.4,6-10.2,12.3-10.2
			C506.5,294.1,509.7,294.7,511.4,295.1z M501.8,301.2c-2.3,0-2.7,1.3-3.1,3.1l-0.5,3c-0.1,0.4-0.1,0.8-0.1,1.2c0,1,0.2,1.9,1.9,1.9
			c0.6,0,0.7,0,1.8-0.1l1.6-9C502.5,301.2,502.3,301.2,501.8,301.2z"/>
		<path class="st1" d="M537.7,295.4l-3.7,20.9c-0.1,0.4-0.2,0.8-0.9,0.8h-6.3c-0.4,0-0.8-0.2-0.6-0.8l0.2-1.1
			c-1.8,1.3-3.2,2.2-6.3,2.2c-4.4,0-6-3-6-6.5c0-0.8,0.1-1.6,0.2-2.3l2.3-13.2c0.1-0.5,0.5-0.8,1-0.8h6.9c0.5,0,0.8,0.3,0.7,0.8
			L523,308c-0.1,0.4-0.2,1-0.2,1.1c0,1,0.7,1.3,1.6,1.3c0.7,0,1.5-0.2,2.2-0.6l2.6-14.5c0.1-0.5,0.3-0.8,0.9-0.8h6.9
			C537.5,294.5,537.9,294.7,537.7,295.4z"/>
		<path class="st1" d="M560.1,304.9l-0.4,2.3c-0.1,0.5-0.5,0.8-1,0.8h-11.5c0,0.3-0.1,0.6-0.1,0.8c0,1.2,0.8,1.6,2.9,1.6
			c1.6,0,5.8-0.2,7.2-0.3c0.6,0,0.8,0.1,0.7,0.7l-0.7,4c-0.1,0.6-0.3,0.9-0.9,1.1c-2.1,0.8-5.9,1.5-9,1.5c-4.9,0-8.7-2.7-8.7-7.9
			c0-0.7,0.1-1.5,0.2-2.3l0.4-2.3c1.4-7.9,6-10.7,12.5-10.7c6,0,8.5,3.5,8.5,8.1C560.3,303.1,560.2,304,560.1,304.9z M550.6,300.6
			c-1.6,0-2.3,1-2.7,3.2h4.3c0.1-0.5,0.2-0.9,0.2-1.3C552.4,301.2,551.9,300.6,550.6,300.6z"/>
	</g>
	<g>
		<path class="st2" d="M378.5,343.8c-0.7,4.1-3.5,6.3-8.1,8.7c-3.1,1.6-5.5,2.9-6.5,4.6h11c0.4,0,0.7,0.3,0.7,0.6v0.1l-1.1,6.1
			c-0.1,0.4-0.5,0.8-1,0.8H355c-0.4,0-0.6-0.3-0.6-0.6V364l0.7-4.2c1-6,4.9-9,9-11.5c4.7-2.9,5.2-2.8,5.4-4c0-0.1,0-0.2,0-0.3
			c0-0.6-0.5-0.8-3-0.8s-5,0.4-7.4,0.4l0,0c-0.3,0-0.6-0.3-0.6-0.6v-0.1l0,0l0.8-4.4c0.1-0.4,0.5-0.6,0.9-0.8
			c2.6-0.9,5.9-1.6,9.4-1.6c6.8,0,9.2,2.7,9.2,6.3C378.7,342.8,378.6,343.3,378.5,343.8z"/>
	</g>
	<g>
		<path class="st1" d="M417.4,337.2l-8.6,23.1c-1.5,3.9-4.6,4.9-9.2,4.9c-4.7,0-7.4-1-7.5-4.9l-0.5-23.1c0-0.6,0.2-0.8,0.7-0.8h7.9
			c0.5,0,0.6,0.3,0.6,0.8l-0.3,20.2v0.1c0,0.3,0,0.4,0.3,0.4s0.3-0.2,0.4-0.5l6.8-20.2c0.2-0.4,0.4-0.8,1-0.8h8
			c0.3,0,0.5,0.1,0.5,0.3C417.4,336.9,417.4,337.1,417.4,337.2z"/>
		<path class="st1" d="M438.2,344.1l-3.5,19.9c-0.1,0.4-0.2,0.8-0.8,0.8h-5.5c-0.7,0-0.8-0.3-0.8-0.8l0.2-1.1
			c-1.8,1.5-3.2,2.2-6.2,2.2c-4.1,0-6.7-2.6-6.7-7c0-1.3,0.1-1.9,0.2-2.6l0.6-3.5c1.4-8.2,6.2-10.2,12.4-10.2c2.9,0,5.9,0.4,8.8,0.9
			C437.8,342.9,438.3,343.2,438.2,344.1z M427.2,348.9c-1.6,0-2.5,0.6-2.9,3.1l-0.7,3.7c-0.1,0.4-0.1,0.8-0.1,1.1
			c0,1.1,0.5,1.4,1.5,1.4c0.8,0,1.7-0.3,2.4-0.6l1.5-8.6C428.2,348.9,427.6,348.9,427.2,348.9z"/>
		<path class="st1" d="M452,335.8l-5,28.1c-0.1,0.5-0.2,0.8-1,0.8h-6.9c-0.5,0-0.8-0.2-0.7-0.8l5-28.1c0.1-0.5,0.3-0.8,1-0.8h6.9
			C451.8,335,452.1,335.3,452,335.8z"/>
		<path class="st1" d="M474,352l-0.5,3c-1.2,6.8-5.2,10.2-12.3,10.2c-0.5,0-1.5-0.1-2.1-0.2l-1.1,6.3c-0.1,0.5-0.4,0.8-0.9,0.8h-6.8
			c-0.4,0-0.8-0.2-0.8-0.8l4.8-27.1c0.1-0.6,0.5-1.1,1.8-1.3c1.9-0.3,5.2-0.9,9.2-0.9c5.6,0,8.9,3.2,8.9,8.1
			C474.2,350.6,474.1,351.3,474,352z M464.1,348.9c-1,0-1.3,0-2.1,0.1l-1.6,9c0.6,0,1.2,0.1,2.1,0.1c1.6,0,2.2-1,2.6-3.1l0.5-3
			c0.1-0.5,0.2-1,0.2-1.4C465.7,349.4,465.2,348.9,464.1,348.9z"/>
		<path class="st1" d="M499.3,344.1l-3.5,19.9c-0.1,0.4-0.2,0.8-0.8,0.8h-5.5c-0.7,0-0.8-0.3-0.8-0.8l0.2-1.1
			c-1.8,1.5-3.2,2.2-6.2,2.2c-4.1,0-6.7-2.6-6.7-7c0-1.3,0.1-1.9,0.2-2.6l0.6-3.5c1.4-8.2,6.2-10.2,12.4-10.2c2.9,0,5.9,0.4,8.8,0.9
			C498.9,342.9,499.5,343.2,499.3,344.1z M488.3,348.9c-1.6,0-2.5,0.6-2.9,3.1l-0.7,3.7c-0.1,0.4-0.1,0.8-0.1,1.1
			c0,1.1,0.5,1.4,1.5,1.4c0.8,0,1.7-0.3,2.4-0.6l1.5-8.6C489.4,348.9,488.8,348.9,488.3,348.9z"/>
		<path class="st1" d="M516.5,341.9c0.6,0,0.9,0.2,0.8,0.8l-1,5.4c-0.1,0.4-0.2,0.8-0.9,0.8h-0.3c-2.3,0-3.5,0.2-4.4,0.6l-2.6,14.5
			c-0.1,0.5-0.2,0.8-0.9,0.8h-6.9c-0.5,0-0.8-0.2-0.7-0.8l3.7-20.9c0.1-0.4,0.3-0.8,0.9-0.8h6c0.5,0,0.8,0.2,0.6,0.8l-0.2,1.1
			c1.5-1.8,3.7-2.3,5.5-2.3H516.5z"/>
		<path class="st1" d="M539.9,344.1l-3.5,19.9c-0.1,0.4-0.2,0.8-0.8,0.8h-5.5c-0.7,0-0.8-0.3-0.8-0.8l0.2-1.1
			c-1.8,1.5-3.2,2.2-6.2,2.2c-4.1,0-6.7-2.6-6.7-7c0-1.3,0.1-1.9,0.2-2.6l0.6-3.5c1.4-8.2,6.2-10.2,12.4-10.2c2.9,0,5.9,0.4,8.8,0.9
			C539.5,342.9,540,343.2,539.9,344.1z M528.9,348.9c-1.6,0-2.5,0.6-2.9,3.1l-0.7,3.7c-0.1,0.4-0.1,0.8-0.1,1.1
			c0,1.1,0.5,1.4,1.5,1.4c0.8,0,1.7-0.3,2.4-0.6l1.5-8.6C529.9,348.9,529.3,348.9,528.9,348.9z"/>
		<path class="st1" d="M540.3,363.9L544,343c0.1-0.5,0.3-0.8,1-0.8h6.8c0.7,0,0.8,0.3,0.7,0.8l-3.7,20.9c-0.1,0.5-0.3,0.8-1,0.8H541
			C540.6,364.8,540.3,364.4,540.3,363.9z M553.3,335c0.5,0,0.9,0.1,0.8,0.8l-0.7,3.9c-0.1,0.5-0.3,0.8-1,0.8h-7.2
			c-0.7,0-0.8-0.4-0.7-0.8l0.7-3.9c0.1-0.5,0.3-0.8,1-0.8H553.3z"/>
		<path class="st1" d="M573,343.7l-0.9,5c-0.1,0.5-0.2,1-0.9,0.8c-1.1-0.2-5.2-0.7-6.7-0.7c-0.3,0-0.9,0-0.9,0.4
			c0,0.3,0.1,0.4,0.8,0.8l3,1.6c3.4,1.8,3.8,3.8,3.8,5.8c0,5.5-4.5,7.7-11.2,7.7c-3.3,0-5.5-0.5-6.9-1c-0.5-0.2-0.6-0.4-0.6-0.8
			l0.8-4.8c0.1-0.6,0.3-1,1.1-0.9c2.5,0.4,5.2,0.7,6.5,0.7c0.6,0,1.5,0,1.5-0.9c0-0.2-0.1-0.4-0.7-0.8l-3.4-1.9
			c-2.3-1.3-3.4-3-3.4-5.4c0-6.1,5-7.6,10.2-7.6c2.8,0,5.5,0.6,7.1,1C572.9,343,573.1,343.2,573,343.7z"/>
		<path class="st1" d="M595.8,352.6l-0.3,1.8c-1.4,8.1-5.9,10.8-12.4,10.8c-5.7,0-8.8-3.1-8.8-8.2c0-0.8,0.1-1.7,0.2-2.6l0.3-1.8
			c1.4-8,5.9-10.8,12.4-10.8c5.7,0,8.9,2.8,8.9,8.1C596.1,350.8,596,351.7,595.8,352.6z M586,348.9c-1.3,0-2.2,1.1-2.7,3.7l-0.3,1.8
			c-0.1,0.7-0.2,1.3-0.2,1.8c0,1.5,0.6,1.9,1.6,1.9c1.3,0,2.1-0.8,2.7-3.7l0.3-1.8c0.1-0.7,0.2-1.3,0.2-1.8
			C587.5,349.3,587,348.9,586,348.9z"/>
	</g>
	<path class="st3" d="M324.2,245.5V263c-24.2,18.5-28.4,32.2-28.4,66.8v99.5c0,41-14.6,53.6-56.3,53.6h-21c-5,0-8.7-3.4-8.7-8.3
		v-3.9c0-4.9,3.7-7.8,8.7-7.8h21c30.6,0,36.1-5.4,36.1-33.6v-99.5c0-34.6,5.9-56.1,29.3-76.1c-22.4-19-29.3-40.5-29.3-75.1V79.2
		c0-28.3-5.5-33.6-36.1-33.6h-21c-5,0-8.7-2.9-8.7-7.8v-3.9c0-4.9,3.7-8.3,8.7-8.3h21c42.5,0,56.3,12.7,56.3,53.6v99.5
		C295.9,213.3,300,226.9,324.2,245.5"/>
</g>
</svg>
