<?xml version="1.0" encoding="utf-8"?>
<!-- Generator: Adobe Illustrator 19.2.1, SVG Export Plug-In . SVG Version: 6.00 Build 0)  -->
<svg version="1.1" id="Capa_1" xmlns="http://www.w3.org/2000/svg" xmlns:xlink="http://www.w3.org/1999/xlink" x="0px" y="0px"
	 viewBox="0 0 200 111.3" style="enable-background:new 0 0 200 111.3;" xml:space="preserve">
<style type="text/css">
	.st0{fill:#364395;}
	.st1{fill:#FFFFFF;}
</style>
<g>
	<rect x="0" class="st0" width="200" height="59.6"/>
	<path class="st1" d="M140.1,17.8c-6.2,0-11.5,5.3-11.5,11.6c0,7.2,4.9,12.4,11.6,12.4c6.3,0,11.5-5.5,11.5-12.4
		C151.7,23,146.5,17.8,140.1,17.8 M140.2,38.9c-5.4,0-7.3-5.6-7.3-9.3c0-3.4,2-8.8,7.2-8.8c5,0,7.3,5.1,7.3,8.7
		C147.4,34.1,144.9,38.9,140.2,38.9 M31.1,17.8c4.1,0,8.4,1.8,8.4,6.9c0,4.9-4.8,7.8-9.7,7.8c0-0.8,0-1.6,0-2.5
		c3.8-0.3,5.8-2.1,5.8-5.1c0-2.6-2.1-4.4-5.1-4.4H28c0,7.5,0.1,18.4,0.4,21.1c-1.6-0.3-2.9-0.3-4.6,0c0.4-3.3,0.6-20.6,0-23.7
		c0,0,3.1,0.1,3.7,0.1C28.3,17.8,30.3,17.8,31.1,17.8 M70,18c-1.2,4.6-6.1,17.9-8.5,23.6c1.5-0.2,3.2-0.2,3.9,0
		c0.8-2.5,1.6-5.6,2-6.7c2.5-0.2,5.4-0.2,8.3,0c0.9,2.4,1.4,4,2.2,6.7c1.5-0.1,3.1-0.1,4.7,0C80.4,35.9,74.9,21.3,74,18
		C72.8,18.1,71.3,18.1,70,18 M68.5,31.7c0,0,2.3-6.7,3-9c0,0,2.3,6.6,3.2,9C72.1,31.9,70.9,31.9,68.5,31.7 M48.8,38.6
		c2.5,0.1,8.4-0.2,8.4-0.2c0,2.5-0.1,3.3-0.1,3.3c-2.2-0.3-8.9-0.4-12.5,0c0.5-5.7,0.4-17.6,0-23.7c3.3,0.3,9.7,0.2,12.4,0v3.3
		c-2.3-0.2-6-0.4-8.1-0.4c0,0-0.1,5.5,0,6.9c3.7,0.3,6.5-0.2,7.7-0.3v3.3c0,0-4.3-0.4-7.7-0.2C48.8,32.8,48.8,36.1,48.8,38.6
		 M176.2,41c0,0.1,0.1,0.5,0.1,0.5c-1-0.2-2.6-0.2-3.6,0c-1.9-2.8-9.3-12.9-12.2-16.6c-0.1,5.5-0.2,13.9,0.2,16.6
		c-0.4,0-1.1,0-1.4,0c-1,0-1.4-0.1-2.3,0.1c0.5-2.9,0.6-20.4,0-23.5c1.4,0,2.6,0,3,0c0.3,0,0.6-0.1,0.6-0.1s7.9,10.7,12.1,16.2
		c0-2.1,0.2-12.7-0.2-16.3c0.6,0.1,1.2,0.3,1.9,0.3c0.6,0,1.3-0.2,1.9-0.3C175.7,22.4,175.5,37.7,176.2,41 M102.5,24.2
		c0,3.8-2.6,6-5,6.5c1.8,2.3,8.3,10.9,8.3,10.9c-1.6-0.2-4-0.2-5.3-0.1c-2.1-3.2-5.6-8.2-6.9-9.9c0-0.9,0-1.6-0.1-2.6
		c4,0.1,4.9-2.6,4.9-4.5c0-2.5-2.3-3.8-4.6-3.8h-2c-0.2,4.5,0.2,15.6,0.4,20.8c-1.6-0.2-3.3-0.1-4.6,0c0.5-3.8,0.4-21,0-23.6
		c0,0,2.5,0.2,3.6,0.1c1-0.1,1.9-0.1,3-0.1C96.8,17.9,102.5,18.5,102.5,24.2 M119.2,28.1c2.6,1.7,4.6,3.2,4.6,6.7
		c0,5.1-4,6.9-7.4,6.9c-2.8,0-5.8-1.5-7.2-2.5c0.5-1,1.1-2.1,1.4-3.5c1.5,1.7,3.9,2.9,5.5,2.9c2.1,0,3.4-1.2,3.4-3.1
		c0.1-1.5-1-2.5-2.3-3.6c-1-0.8-3.4-2.4-4-2.8c-1.9-1.6-3.1-2.9-3.1-5.4c0-3.3,2.9-5.8,6.9-5.8c2,0,3.9,0.6,6.2,2.1
		c-0.6,0.9-1.3,2.2-1.8,3.4c-0.9-1.2-2.3-2.6-4.3-2.6c-1.9,0-3,1.1-3,2.8c0,0.6,0.4,1.2,1.2,2C116.3,26.2,117.5,27,119.2,28.1"/>
	<g>
		<path class="st0" d="M6.1,86.5H5.7L0,72.9h1.9l4,9.5l4-9.5h1.9L6.1,86.5z"/>
		<path class="st0" d="M29.7,80.6c0,0.3,0,0.7,0,1.1c0,0.4-0.1,0.8-0.2,1.2c-0.1,0.4-0.2,0.8-0.4,1.2c-0.2,0.4-0.5,0.8-0.9,1.1
			c-0.6,0.5-1.2,0.9-2,1.1c-0.7,0.2-1.5,0.3-2.2,0.3c-0.5,0-0.9,0-1.4-0.1c-0.5-0.1-0.9-0.2-1.4-0.4c-0.4-0.2-0.8-0.4-1.2-0.7
			c-0.4-0.3-0.7-0.7-1-1.1c-0.2-0.3-0.3-0.6-0.4-0.9c-0.1-0.3-0.2-0.7-0.2-1c0-0.3-0.1-0.6-0.1-0.9s0-0.6,0-0.8v-7.7h1.9v7.7
			c0,0.4,0,0.8,0,1.2c0,0.3,0.1,0.6,0.1,0.8c0.1,0.2,0.1,0.5,0.3,0.6c0.1,0.2,0.2,0.4,0.4,0.5c0.3,0.3,0.7,0.6,1.1,0.8
			c0.5,0.2,1.1,0.3,1.9,0.3c0.5,0,1-0.1,1.4-0.2c0.4-0.1,0.7-0.3,1-0.5c0.3-0.2,0.5-0.4,0.7-0.6c0.2-0.2,0.3-0.4,0.4-0.6
			c0.1-0.2,0.2-0.5,0.3-0.9c0.1-0.4,0.1-0.9,0.1-1.6v-7.7h1.9V80.6z"/>
		<path class="st0" d="M45.2,74.6h-5.6v4.1H45v1.8h-5.4v4.2h5.8v1.8h-7.7V72.9h7.5V74.6z"/>
		<path class="st0" d="M57.3,83h-4.7v-1.9h4.7V83z"/>
		<path class="st0" d="M76.4,86.5h-1.9l-1.8-4h-5.6l-1.7,4h-1.9l5.7-13.7h1.3L76.4,86.5z M71.9,80.7l-2.1-4.9l-2,4.9H71.9z"/>
		<path class="st0" d="M88.6,86.5v-1.1c-0.4,0.5-0.8,0.8-1.3,1c-0.5,0.2-0.9,0.3-1.3,0.3c-0.1,0-0.3,0-0.5-0.1
			c-0.2,0-0.4-0.1-0.6-0.2c-0.2-0.1-0.5-0.2-0.7-0.4c-0.2-0.2-0.4-0.4-0.6-0.7c-0.1-0.1-0.1-0.2-0.2-0.4c-0.1-0.1-0.1-0.3-0.2-0.5
			c0-0.2-0.1-0.4-0.1-0.7c0-0.3,0-0.6,0-1v-5.1h1.7v5.1c0,0.3,0,0.5,0,0.8c0,0.3,0.1,0.6,0.2,0.8c0.1,0.3,0.3,0.5,0.5,0.6
			c0.2,0.2,0.6,0.3,1,0.3c0.4,0,0.8-0.1,1.2-0.3c0.4-0.2,0.7-0.5,0.9-0.9v-6.4h1.7v8.9H88.6z"/>
		<path class="st0" d="M100.2,77.5h2.8v1.6h-2.8V83c0,0.3,0,0.5,0,0.7c0,0.2,0,0.3,0,0.4c0,0.1,0,0.2,0.1,0.3c0,0.1,0.1,0.1,0.2,0.2
			c0.2,0.2,0.3,0.3,0.5,0.3c0.2,0,0.3,0,0.4,0c0.2,0,0.4,0,0.8-0.1c0.3-0.1,0.7-0.2,1.2-0.5V86c-0.4,0.2-0.8,0.4-1.2,0.5
			c-0.4,0.1-0.7,0.1-1,0.1c-0.2,0-0.3,0-0.5-0.1c-0.2,0-0.4-0.1-0.6-0.2c-0.2-0.1-0.4-0.2-0.6-0.3c-0.2-0.1-0.4-0.3-0.5-0.5
			c-0.2-0.3-0.3-0.7-0.4-1.2c0-0.4,0-0.9,0-1.3v-4H97v-0.2l3.2-3.3V77.5z"/>
		<path class="st0" d="M112,78.7c0.3-0.4,0.7-0.8,1.2-1c0.5-0.2,1-0.4,1.5-0.4c0.7,0,1.2,0.2,1.7,0.5c0.4,0.3,0.8,0.7,0.9,1.2
			c0.1,0.3,0.2,0.7,0.3,1.1c0.1,0.4,0.1,0.8,0.1,1.3v5.1h-1.7v-5.5c0-0.4,0-0.6-0.1-0.9c-0.1-0.2-0.1-0.4-0.2-0.5
			c-0.2-0.3-0.4-0.5-0.6-0.6c-0.3-0.1-0.5-0.2-0.8-0.2c-0.4,0-0.8,0.1-1.1,0.3c-0.3,0.2-0.7,0.5-1.1,1v6.4h-1.7V72.9h1.7V78.7z"/>
		<path class="st0" d="M129.6,77.3c0.6,0,1.3,0.1,1.8,0.3c0.6,0.2,1.1,0.5,1.5,0.9c0.4,0.4,0.7,0.9,1,1.5c0.2,0.6,0.4,1.2,0.4,1.9
			c0,0.8-0.1,1.5-0.4,2.1c-0.3,0.6-0.7,1.1-1.1,1.4c-0.5,0.4-1,0.7-1.5,0.8c-0.5,0.2-1.1,0.3-1.6,0.3c-0.7,0-1.3-0.1-1.9-0.4
			c-0.6-0.2-1.1-0.6-1.5-1c-0.4-0.4-0.7-0.9-0.9-1.5c-0.2-0.6-0.3-1.2-0.3-1.8c0-0.6,0.1-1.2,0.3-1.8c0.2-0.6,0.5-1.1,0.9-1.5
			c0.4-0.4,0.9-0.8,1.5-1C128.3,77.5,128.9,77.3,129.6,77.3z M129.5,78.9c-0.4,0-0.8,0.1-1.1,0.2c-0.3,0.1-0.6,0.3-0.9,0.6
			c-0.3,0.3-0.5,0.6-0.6,1c-0.1,0.4-0.2,0.8-0.2,1.3c0,0.6,0.1,1,0.3,1.4c0.2,0.4,0.4,0.7,0.7,0.9c0.3,0.2,0.6,0.4,0.9,0.5
			c0.3,0.1,0.7,0.2,1,0.2c0.4,0,0.8-0.1,1.2-0.2c0.3-0.2,0.6-0.4,0.9-0.6c0.3-0.3,0.4-0.6,0.6-1c0.1-0.4,0.2-0.8,0.2-1.2
			c0-0.6-0.1-1-0.3-1.4c-0.2-0.4-0.4-0.7-0.7-0.9c-0.3-0.2-0.6-0.4-1-0.5C130.2,79,129.8,78.9,129.5,78.9z"/>
		<path class="st0" d="M143.2,77.5v2.1c0.1-0.2,0.3-0.5,0.5-0.7c0.2-0.3,0.4-0.5,0.6-0.7c0.2-0.2,0.4-0.4,0.7-0.6
			c0.3-0.1,0.5-0.2,0.8-0.2c0.1,0,0.2,0,0.3,0c0.1,0,0.3,0.1,0.4,0.1c0.2,0.1,0.4,0.2,0.6,0.3c0.2,0.1,0.5,0.3,0.7,0.6l-0.9,1.6
			c-0.1-0.1-0.1-0.1-0.3-0.2c-0.1-0.1-0.3-0.2-0.4-0.3c-0.2-0.1-0.3-0.2-0.5-0.2c-0.2-0.1-0.3-0.1-0.5-0.1c-0.2,0-0.4,0-0.6,0.1
			c-0.2,0.1-0.5,0.2-0.7,0.5c-0.2,0.2-0.4,0.5-0.6,0.9c-0.2,0.4-0.2,0.8-0.2,1.3v4.7h-1.7v-8.9H143.2z"/>
		<path class="st0" d="M155.4,73.8c0.3,0,0.5,0.1,0.7,0.3c0.2,0.2,0.3,0.4,0.3,0.7c0,0.3-0.1,0.5-0.3,0.7c-0.2,0.2-0.4,0.3-0.7,0.3
			c-0.3,0-0.6-0.1-0.8-0.4c-0.2-0.2-0.3-0.5-0.3-0.7c0-0.3,0.1-0.5,0.3-0.7C154.9,73.9,155.1,73.8,155.4,73.8z M156.3,86.5h-1.7
			v-8.9h1.7V86.5z"/>
		<path class="st0" d="M166.2,84.8h4.6v1.6h-7.6l4.6-7.3h-4.4v-1.7h7.4L166.2,84.8z"/>
		<path class="st0" d="M184.9,85.6c-0.2,0.1-0.3,0.2-0.5,0.3c-0.2,0.1-0.4,0.2-0.7,0.3c-0.3,0.1-0.6,0.2-1,0.3
			c-0.4,0.1-0.8,0.1-1.2,0.1c-0.2,0-0.5,0-0.7,0c-0.2,0-0.5-0.1-0.7-0.2c-0.3-0.1-0.5-0.2-0.8-0.4c-0.3-0.2-0.5-0.4-0.8-0.7
			c-0.3-0.3-0.5-0.6-0.7-0.9c-0.2-0.3-0.3-0.6-0.4-0.9c-0.1-0.3-0.1-0.6-0.2-0.9c0-0.3,0-0.5,0-0.7c0-0.7,0.1-1.3,0.3-1.9
			c0.2-0.6,0.5-1.1,0.8-1.5c0.4-0.4,0.8-0.7,1.3-0.9c0.5-0.2,1-0.3,1.6-0.3c0.5,0,1,0.1,1.4,0.3c0.4,0.2,0.8,0.4,1.1,0.7
			c0.3,0.3,0.6,0.7,0.8,1.1c0.2,0.4,0.3,0.9,0.4,1.4c0.1,0.3,0.1,0.6,0.1,0.8c0,0.2,0,0.4,0,0.6H179c0,0.3,0.1,0.7,0.2,1
			c0.1,0.3,0.3,0.6,0.5,0.9c0.2,0.3,0.5,0.5,0.9,0.7c0.3,0.2,0.8,0.2,1.2,0.2c0.6,0,1.1-0.1,1.7-0.3c0.5-0.2,1-0.5,1.5-0.8V85.6z
			 M183.4,81.1c0-0.1,0-0.3-0.1-0.5c0-0.2-0.1-0.5-0.3-0.7c-0.1-0.3-0.4-0.5-0.6-0.7c-0.3-0.2-0.7-0.3-1.2-0.3
			c-0.3,0-0.6,0.1-0.9,0.2c-0.3,0.1-0.6,0.3-0.8,0.6c-0.2,0.3-0.4,0.5-0.5,0.8c-0.1,0.3-0.1,0.5-0.1,0.7H183.4z"/>
		<path class="st0" d="M199.9,86.5h-3.7c-0.9,0-1.6-0.2-2.1-0.5c-0.5-0.3-1-0.7-1.3-1.2c-0.3-0.5-0.5-1-0.6-1.5
			c-0.1-0.5-0.2-1-0.2-1.5c0-0.7,0.1-1.4,0.4-1.9c0.2-0.6,0.6-1,1-1.4c0.4-0.4,0.9-0.7,1.4-0.9c0.5-0.2,1-0.3,1.6-0.3
			c0.4,0,0.8,0,1.1,0.1c0.3,0.1,0.6,0.2,0.7,0.2v-4.8h1.7V86.5z M198.2,79.3c-0.2-0.1-0.4-0.2-0.6-0.3c-0.2-0.1-0.6-0.1-1-0.1
			c-0.4,0-0.7,0.1-1.1,0.2c-0.3,0.1-0.6,0.3-0.9,0.6c-0.3,0.3-0.5,0.6-0.6,1c-0.2,0.4-0.2,0.9-0.2,1.4c0,0.8,0.1,1.3,0.4,1.8
			c0.3,0.4,0.6,0.7,0.9,0.9c0.2,0.1,0.5,0.2,0.7,0.2c0.3,0,0.6,0,1.1,0h1.3V79.3z"/>
	</g>
	<path class="st0" d="M11,99.2H6.4v11.9H4.5V99.2H0v-1.7h11V99.2z"/>
	<path class="st0" d="M28.3,110.2c-0.2,0.1-0.3,0.2-0.5,0.3c-0.2,0.1-0.4,0.2-0.7,0.3c-0.3,0.1-0.6,0.2-0.9,0.3
		c-0.4,0.1-0.8,0.1-1.2,0.1c-0.2,0-0.5,0-0.7,0c-0.2,0-0.5-0.1-0.7-0.2c-0.3-0.1-0.5-0.2-0.8-0.4c-0.3-0.2-0.5-0.4-0.8-0.7
		c-0.3-0.3-0.5-0.6-0.7-0.9c-0.2-0.3-0.3-0.6-0.4-0.9c-0.1-0.3-0.1-0.6-0.2-0.9c0-0.3,0-0.5,0-0.7c0-0.7,0.1-1.3,0.3-1.9
		c0.2-0.6,0.5-1.1,0.8-1.5c0.4-0.4,0.8-0.7,1.3-0.9c0.5-0.2,1-0.3,1.6-0.3c0.5,0,1,0.1,1.4,0.3s0.8,0.4,1.1,0.7
		c0.3,0.3,0.6,0.7,0.8,1.1c0.2,0.4,0.3,0.9,0.4,1.4c0.1,0.3,0.1,0.6,0.1,0.8c0,0.2,0,0.4,0,0.6h-6.1c0,0.3,0.1,0.7,0.2,1
		c0.1,0.3,0.3,0.6,0.5,0.9c0.2,0.3,0.5,0.5,0.9,0.7c0.3,0.2,0.8,0.2,1.2,0.2c0.6,0,1.1-0.1,1.7-0.3c0.5-0.2,1-0.5,1.5-0.8V110.2z
		 M26.7,105.7c0-0.1,0-0.3-0.1-0.5c0-0.2-0.1-0.5-0.3-0.7c-0.1-0.3-0.4-0.5-0.6-0.7c-0.3-0.2-0.7-0.3-1.2-0.3
		c-0.3,0-0.6,0.1-0.9,0.2c-0.3,0.1-0.6,0.3-0.8,0.6c-0.2,0.3-0.4,0.5-0.5,0.8c-0.1,0.3-0.1,0.5-0.1,0.7H26.7z"/>
	<path class="st0" d="M46,104.5c-0.5-0.3-0.9-0.5-1.3-0.7c-0.4-0.2-0.8-0.2-1.2-0.2c-0.4,0-0.7,0.1-0.9,0.3
		c-0.2,0.2-0.2,0.4-0.2,0.5c0,0.3,0.2,0.5,0.5,0.8c0.3,0.2,0.8,0.5,1.4,0.9c0.6,0.3,1.1,0.7,1.6,1.2c0.4,0.5,0.6,1,0.6,1.6
		c0,0.2,0,0.5-0.1,0.7c-0.1,0.3-0.2,0.6-0.5,0.8c-0.2,0.3-0.5,0.5-0.9,0.7c-0.4,0.2-0.9,0.3-1.5,0.3c-0.6,0-1.2-0.1-1.6-0.2
		c-0.4-0.2-0.9-0.4-1.3-0.6v-1.9c0.6,0.4,1.2,0.7,1.7,0.9c0.5,0.2,0.9,0.3,1.1,0.3c0.1,0,0.3,0,0.4-0.1c0.2,0,0.3-0.1,0.4-0.2
		c0.1-0.1,0.2-0.2,0.3-0.3c0.1-0.1,0.1-0.2,0.1-0.4c0-0.3-0.1-0.6-0.4-0.8c-0.2-0.2-0.6-0.4-1-0.6c-0.4-0.2-0.7-0.4-1-0.6
		c-0.3-0.2-0.6-0.4-0.9-0.7c-0.2-0.2-0.4-0.5-0.6-0.8c-0.1-0.3-0.2-0.6-0.2-1c0-0.7,0.3-1.2,0.8-1.7c0.5-0.4,1.2-0.7,2-0.7
		c0.3,0,0.6,0,0.9,0.1c0.3,0.1,0.5,0.1,0.7,0.2c0.2,0.1,0.4,0.2,0.6,0.2c0.2,0.1,0.3,0.2,0.4,0.2V104.5z"/>
	<path class="st0" d="M61.1,102.2h2.8v1.6h-2.8v3.9c0,0.3,0,0.5,0,0.7c0,0.2,0,0.3,0,0.4c0,0.1,0,0.2,0.1,0.3c0,0.1,0.1,0.2,0.2,0.2
		c0.2,0.2,0.3,0.3,0.5,0.3c0.2,0,0.3,0.1,0.4,0.1c0.2,0,0.4,0,0.8-0.1c0.3-0.1,0.7-0.2,1.2-0.5v1.7c-0.4,0.2-0.8,0.4-1.2,0.5
		c-0.4,0.1-0.7,0.1-1,0.1c-0.2,0-0.3,0-0.5,0c-0.2,0-0.4-0.1-0.6-0.2c-0.2-0.1-0.4-0.2-0.6-0.3c-0.2-0.1-0.4-0.3-0.5-0.5
		c-0.2-0.3-0.3-0.7-0.4-1.2c0-0.4,0-0.9,0-1.3v-4h-1.5v-0.2l3.2-3.3V102.2z"/>
	<path class="st0" d="M103.6,100.5c-0.7-0.4-1.4-0.7-2.2-1c-0.8-0.2-1.6-0.4-2.4-0.4c-0.8,0-1.5,0.1-2.2,0.4
		c-0.6,0.3-1.2,0.7-1.6,1.1c-0.5,0.5-0.8,1-1,1.7c-0.2,0.6-0.4,1.3-0.4,2c0,0.6,0.1,1.3,0.3,1.9c0.2,0.6,0.5,1.2,1,1.6
		c0.4,0.5,1,0.9,1.6,1.2c0.7,0.3,1.4,0.4,2.3,0.4c0.8,0,1.7-0.1,2.5-0.4c0.8-0.3,1.5-0.6,2.2-1.1v2.1c-0.8,0.4-1.6,0.7-2.3,0.9
		c-0.8,0.2-1.6,0.3-2.5,0.3c-1.2,0-2.3-0.2-3.2-0.6c-0.9-0.4-1.6-1-2.2-1.6c-0.6-0.7-1-1.4-1.3-2.2s-0.4-1.6-0.4-2.4
		c0-0.9,0.2-1.8,0.5-2.7c0.4-0.9,0.8-1.6,1.5-2.2c0.6-0.6,1.4-1.1,2.3-1.5c0.9-0.4,1.8-0.6,2.9-0.6c0.5,0,1,0,1.5,0.1
		c0.5,0.1,0.9,0.2,1.3,0.3c0.4,0.1,0.7,0.2,1.1,0.4c0.3,0.1,0.6,0.2,0.8,0.3V100.5z"/>
	<path class="st0" d="M123.8,110.2c-0.2,0.1-0.3,0.2-0.5,0.3c-0.2,0.1-0.4,0.2-0.7,0.3c-0.3,0.1-0.6,0.2-1,0.3
		c-0.4,0.1-0.8,0.1-1.2,0.1c-0.2,0-0.5,0-0.7,0c-0.2,0-0.5-0.1-0.7-0.2c-0.3-0.1-0.5-0.2-0.8-0.4c-0.3-0.2-0.5-0.4-0.8-0.7
		c-0.3-0.3-0.5-0.6-0.7-0.9c-0.2-0.3-0.3-0.6-0.4-0.9c-0.1-0.3-0.1-0.6-0.2-0.9c0-0.3,0-0.5,0-0.7c0-0.7,0.1-1.3,0.3-1.9
		c0.2-0.6,0.5-1.1,0.8-1.5c0.4-0.4,0.8-0.7,1.3-0.9c0.5-0.2,1-0.3,1.6-0.3c0.5,0,1,0.1,1.4,0.3c0.4,0.2,0.8,0.4,1.1,0.7
		c0.3,0.3,0.6,0.7,0.8,1.1c0.2,0.4,0.3,0.9,0.4,1.4c0.1,0.3,0.1,0.6,0.1,0.8c0,0.2,0,0.4,0,0.6h-6.1c0,0.3,0.1,0.7,0.2,1
		c0.1,0.3,0.3,0.6,0.5,0.9c0.2,0.3,0.5,0.5,0.9,0.7c0.3,0.2,0.8,0.2,1.2,0.2c0.6,0,1.1-0.1,1.7-0.3c0.5-0.2,1-0.5,1.5-0.8V110.2z
		 M122.2,105.7c0-0.1,0-0.3-0.1-0.5c0-0.2-0.1-0.5-0.3-0.7c-0.1-0.3-0.4-0.5-0.6-0.7c-0.3-0.2-0.7-0.3-1.2-0.3
		c-0.3,0-0.6,0.1-0.9,0.2c-0.3,0.1-0.6,0.3-0.8,0.6c-0.2,0.3-0.4,0.5-0.5,0.8c-0.1,0.3-0.1,0.5-0.1,0.7H122.2z"/>
	<path class="st0" d="M138.2,102.2l0,1.1c0.4-0.5,0.8-0.8,1.3-1c0.5-0.2,0.9-0.3,1.3-0.3c0.1,0,0.3,0,0.5,0c0.2,0,0.4,0.1,0.7,0.2
		c0.2,0.1,0.5,0.2,0.7,0.4c0.2,0.2,0.4,0.4,0.6,0.7c0.1,0.1,0.1,0.2,0.2,0.4c0.1,0.1,0.1,0.3,0.2,0.5c0,0.2,0.1,0.4,0.1,0.7
		c0,0.3,0,0.6,0,1v5.1H142V106c0-0.5,0-0.9-0.1-1.2c0-0.3-0.2-0.6-0.4-0.8c-0.2-0.2-0.4-0.3-0.6-0.4c-0.2-0.1-0.4-0.1-0.7-0.1
		c-0.4,0-0.8,0.1-1.1,0.3c-0.4,0.2-0.7,0.5-0.9,0.9v6.4h-1.8v-8.9H138.2z"/>
	<path class="st0" d="M158.8,102.2h2.8v1.6h-2.8v3.9c0,0.3,0,0.5,0,0.7c0,0.2,0,0.3,0,0.4c0,0.1,0,0.2,0.1,0.3
		c0,0.1,0.1,0.2,0.2,0.2c0.2,0.2,0.3,0.3,0.5,0.3c0.2,0,0.3,0.1,0.4,0.1c0.2,0,0.4,0,0.8-0.1c0.3-0.1,0.7-0.2,1.2-0.5v1.7
		c-0.4,0.2-0.8,0.4-1.2,0.5c-0.4,0.1-0.7,0.1-1,0.1c-0.2,0-0.3,0-0.5,0c-0.2,0-0.4-0.1-0.6-0.2c-0.2-0.1-0.4-0.2-0.6-0.3
		c-0.2-0.1-0.4-0.3-0.5-0.5c-0.2-0.3-0.3-0.7-0.4-1.2c0-0.4,0-0.9,0-1.3v-4h-1.5v-0.2l3.2-3.3V102.2z"/>
	<path class="st0" d="M181.3,110.2c-0.2,0.1-0.3,0.2-0.5,0.3c-0.2,0.1-0.4,0.2-0.7,0.3c-0.3,0.1-0.6,0.2-0.9,0.3
		c-0.4,0.1-0.8,0.1-1.2,0.1c-0.2,0-0.5,0-0.7,0c-0.2,0-0.5-0.1-0.7-0.2c-0.3-0.1-0.5-0.2-0.8-0.4c-0.3-0.2-0.5-0.4-0.8-0.7
		c-0.3-0.3-0.5-0.6-0.7-0.9c-0.2-0.3-0.3-0.6-0.4-0.9c-0.1-0.3-0.1-0.6-0.2-0.9c0-0.3,0-0.5,0-0.7c0-0.7,0.1-1.3,0.3-1.9
		c0.2-0.6,0.5-1.1,0.8-1.5c0.4-0.4,0.8-0.7,1.3-0.9c0.5-0.2,1-0.3,1.6-0.3c0.5,0,1,0.1,1.4,0.3s0.8,0.4,1.1,0.7
		c0.3,0.3,0.6,0.7,0.8,1.1c0.2,0.4,0.3,0.9,0.4,1.4c0.1,0.3,0.1,0.6,0.1,0.8c0,0.2,0,0.4,0,0.6h-6.1c0,0.3,0.1,0.7,0.2,1
		c0.1,0.3,0.3,0.6,0.5,0.9c0.2,0.3,0.5,0.5,0.9,0.7c0.3,0.2,0.8,0.2,1.2,0.2c0.6,0,1.1-0.1,1.7-0.3c0.5-0.2,1-0.5,1.5-0.8V110.2z
		 M179.7,105.7c0-0.1,0-0.3-0.1-0.5c0-0.2-0.1-0.5-0.3-0.7c-0.1-0.3-0.4-0.5-0.6-0.7c-0.3-0.2-0.7-0.3-1.2-0.3
		c-0.3,0-0.6,0.1-0.9,0.2c-0.3,0.1-0.6,0.3-0.8,0.6c-0.2,0.3-0.4,0.5-0.5,0.8c-0.1,0.3-0.1,0.5-0.1,0.7H179.7z"/>
	<path class="st0" d="M195.4,102.2v2.1c0.1-0.2,0.3-0.5,0.5-0.7c0.2-0.3,0.4-0.5,0.6-0.7c0.2-0.2,0.4-0.4,0.7-0.6
		c0.3-0.1,0.5-0.2,0.8-0.2c0.1,0,0.2,0,0.3,0c0.1,0,0.3,0.1,0.4,0.1c0.2,0.1,0.4,0.2,0.6,0.3c0.2,0.1,0.5,0.3,0.7,0.6l-0.9,1.6
		c-0.1-0.1-0.1-0.1-0.3-0.2c-0.1-0.1-0.3-0.2-0.4-0.3c-0.2-0.1-0.3-0.2-0.5-0.2c-0.2-0.1-0.3-0.1-0.5-0.1c-0.2,0-0.4,0-0.6,0.1
		c-0.2,0.1-0.5,0.2-0.7,0.5c-0.2,0.2-0.4,0.5-0.6,0.9c-0.2,0.4-0.2,0.8-0.2,1.3v4.7h-1.7v-8.9H195.4z"/>
</g>
</svg>
