<?xml version="1.0" encoding="utf-8"?>
<!-- Generator: Adobe Illustrator 19.2.1, SVG Export Plug-In . SVG Version: 6.00 Build 0)  -->
<svg version="1.1" id="Capa_1" xmlns="http://www.w3.org/2000/svg" xmlns:xlink="http://www.w3.org/1999/xlink" x="0px" y="0px"
	 viewBox="0 0 716.7 508.5" style="enable-background:new 0 0 716.7 508.5;" xml:space="preserve">
<style type="text/css">
	.st0{display:none;fill:#C4122E;}
	.st1{fill:#B600A6;}
	.st2{fill:#F000A6;}
</style>
<path class="st0" d="M116.1,245.6c5.4,0.1,9.7-3.9,9.8-9.5c0.1-5.4-4.3-9.6-9.7-9.6c-5.8,0-9.8,4.4-9.8,9.6
	C106.4,241.4,110.6,245.7,116.1,245.6z M70,241.1c0,1.1,0,2.3,0,3.5c0,0.2,0.3,0.5,0.5,0.5c0.7,0.1,1.4,0.2,2.1,0.3
	c2,0.2,4,0.2,5.9-0.4c4.3-1.4,5.2-6.2,2.9-8.9c-1-1.1-2.3-1.7-3.6-2.1c-0.7-0.2-1.5-0.4-2.1-0.8c-0.4-0.3-0.8-0.9-0.8-1.3
	c0-0.4,0.6-1,1-1.1c0.9-0.2,1.9-0.3,2.8-0.3c0.9,0,1.7,0.3,2.7,0.4c0-1.1,0-2.1,0-3.1c0-0.6-0.2-0.8-0.7-0.9
	c-1.9-0.3-3.9-0.6-5.9-0.2c-3.3,0.6-5.4,3.4-4.8,6.7c0.5,2.4,2.2,3.5,4.3,4.2c0.8,0.3,1.6,0.5,2.4,0.9c0.6,0.3,1.1,0.8,1,1.5
	c-0.1,0.8-0.6,1.1-1.2,1.3c-0.4,0.1-0.8,0.2-1.2,0.2C73.5,241.4,71.8,241.3,70,241.1z M101.3,231.9c0-1.5,0-2.9,0-4.3
	c0-0.2-0.3-0.6-0.5-0.7c-2.3-0.7-4.6-0.8-6.9-0.1c-3.7,1.2-6,3.8-6.5,7.7c-0.5,3.4,0.5,6.4,3.1,8.6c3.2,2.7,6.9,2.8,10.8,1.7
	c0-1.6,0-3.2,0-4.6c-1.4,0.2-2.8,0.5-4.2,0.6c-2.3,0.1-4.5-1.8-4.7-3.9c-0.4-2.9,1-5.2,3.6-5.8C97.8,230.7,99.5,231.1,101.3,231.9z
	 M52.4,240.4c-1.5,0.2-2.9,0.5-4.3,0.5c-3,0.1-5.3-3-4.7-5.9c0.7-3.3,3.6-4.4,6.3-3.9c0.9,0.1,1.7,0.5,2.7,0.7c0-1.5,0-2.9,0-4.3
	c0-0.2-0.3-0.5-0.6-0.6c-1.7-0.5-3.5-0.6-5.3-0.4c-5.9,0.8-9.5,6.3-7.8,12.3c1.7,6.1,8.2,7.8,13.3,6.2c0.1,0,0.3-0.3,0.3-0.4
	C52.4,243.1,52.4,241.7,52.4,240.4z M110,203.9c0-4.1,0-8.2,0-12.3c0-1.6-1.5-2.7-3-2.2c-1,0.3-1.6,1.3-1.6,2.7c0,7.9,0,15.8,0,23.7
	c0,0.2,0,0.4,0,0.5c0.2,1.4,1.2,2.3,2.4,2.2c1.3-0.1,2.1-1,2.1-2.5C110,212,110,207.9,110,203.9z M58.8,203.9
	C58.8,203.9,58.8,203.9,58.8,203.9c0-4.2,0-8.3,0-12.5c0-1.1-0.7-1.9-1.9-2.1c-1-0.2-2,0.4-2.4,1.3c-0.2,0.5-0.2,1.1-0.2,1.7
	c0,6.9,0,13.9,0,20.8c0,1,0,2,0,3.1c0.1,1.5,1,2.4,2.3,2.3c1.2,0,2.3-1,2.2-2.5C58.7,212,58.8,208,58.8,203.9z M63.4,245.2
	c0-6.2,0-12.2,0-18.3c-1.5,0-3,0-4.5,0c0,6.1,0,12.2,0,18.3C60.5,245.2,62,245.2,63.4,245.2z M46,206c0-1.9,0-3.7,0-5.6
	c0-1.3-0.8-2.2-2-2.4c-1-0.2-2.1,0.6-2.4,1.7c-0.1,0.6-0.2,1.2-0.2,1.8c0,3.3,0,6.6,0,9.9c0,1.4,1.1,2.6,2.3,2.6
	c1.1-0.1,2.3-0.9,2.3-2.6C46,209.6,46,207.8,46,206z M122.7,206c0-1.9,0-3.8,0-5.7c0-1.1-0.5-1.7-1.5-2.1c-0.9-0.3-1.9-0.2-2.5,0.7
	c-0.4,0.6-0.6,1.3-0.6,2c-0.1,3.4,0,6.8,0,10.1c0,0.3,0,0.6,0.1,0.9c0.2,1.2,1.3,2.1,2.4,2c1.2-0.1,2.1-1,2.1-2.3
	C122.7,209.7,122.7,207.8,122.7,206z M92.6,206c0,1.8,0,3.6,0,5.4c0,1.5,1,2.6,2.3,2.6c1.3,0,2.3-1.1,2.3-2.6c0-3.6,0-7.2,0-10.8
	c0-1.5-1-2.6-2.3-2.5c-1.3,0-2.3,1.1-2.3,2.6C92.6,202.4,92.6,204.2,92.6,206z M71.6,206C71.6,206,71.5,206,71.6,206c0-2,0-4,0-6
	c0-1.1-1.2-2-2.3-1.9c-1.1,0.1-2.1,1-2.1,2.1c0,3.9,0,7.8,0,11.7c0,0.8,0.4,1.4,1.1,1.8c1.5,0.8,3.2-0.1,3.3-1.8
	C71.6,209.9,71.6,207.9,71.6,206z M79.8,209.2c0,0.8,0,1.7,0,2.5c0,1.2,0.9,2.1,2.1,2.3c1,0.1,2.2-0.7,2.3-1.8
	c0.1-1.9,0.2-3.9,0-5.8c-0.1-1.3-1.2-2-2.5-1.8c-1.1,0.1-1.9,1.1-1.9,2.3C79.8,207.6,79.8,208.4,79.8,209.2z M33.3,209.2
	c0-0.8,0-1.6,0-2.4c0-1.4-1-2.3-2.3-2.3c-1.3,0-2.3,0.9-2.3,2.3c0,1.6,0,3.2,0,4.7c0,1.3,1.1,2.4,2.3,2.4c1.2,0,2.3-1.1,2.3-2.4
	C33.3,210.8,33.3,210,33.3,209.2z M135.5,209.1C135.5,209.1,135.5,209.1,135.5,209.1c0-0.9,0-1.8,0-2.7c-0.1-1.2-1-2-2.2-2
	c-1.2,0-2.2,0.9-2.2,2c0,1.8,0,3.5,0,5.3c0,1.2,1,2.1,2.2,2.2c1.1,0,2.2-0.9,2.2-2.1C135.5,210.9,135.5,210,135.5,209.1z M133.2,245
	C133.2,245,133.3,245,133.2,245c0.1-0.5,0.2-1,0.2-1.8c0.3,0.8,0.6,1.4,0.9,2.2c0.3-0.8,0.6-1.3,0.8-1.9c0.1,0,0.1,0,0.2,0
	c0,0.5,0,1,0,1.5c0,0,0.1,0,0.1,0c0-0.7,0-1.4,0-2.1c-0.1,0-0.2,0-0.2-0.1c-0.3,0.6-0.5,1.3-0.8,1.9c-0.3-0.7-0.6-1.3-0.8-2
	c-0.1,0-0.2,0.1-0.3,0.1C133.2,243.7,133.2,244.3,133.2,245z M132.3,242.9c-0.2,0-0.7,0-1.3,0c0.4,0.1,0.6,0.2,0.9,0.2
	c0,0.7,0,1.3,0,2c0,0,0.1,0,0.1,0C132,244.4,132.2,243.7,132.3,242.9z"/>
<g>
	<g>
		<path class="st1" d="M106.3,51.6C104.2,63.7,96,70,82.7,77.1c-8.9,4.7-15.9,8.6-19,13.4h32c1.1,0,2,0.8,2,1.9c0,0.1,0,0.2,0,0.3
			l-3.1,17.7c-0.2,1.2-1.6,2.2-2.8,2.2H37.6c-1.1,0-1.9-0.8-1.9-1.9c0-0.1,0-0.2,0-0.3l2.1-12.3c3-17.4,14.4-26.3,26.3-33.6
			c13.8-8.4,15-8.1,15.7-11.7c0-0.3,0.1-0.7,0.1-0.9c0-1.7-1.4-2.5-8.8-2.5c-7.2,0-14.7,1.1-21.7,1.1h-0.1c-1,0-1.7-0.8-1.7-1.8
			c0-0.1,0-0.2,0-0.3v-0.1l2.2-12.8c0.2-1.2,1.3-1.8,2.6-2.2c7.6-2.7,17.2-4.7,27.3-4.7c19.7,0,27,8,27,18.4
			C106.7,48.6,106.5,50.1,106.3,51.6z"/>
		<path class="st1" d="M181,32.1l-2.8,16.4c-0.2,1.2-1.1,2.2-2.7,2.2h-30.3l-2.3,9h5c20.6,0,26.3,10.1,26.3,20.1
			c0,24.9-15.2,34-38.8,34c-8.2,0-16.3-1.6-22.4-4.1c-0.9-0.3-2-0.9-2-1.9c0-0.1,0-0.2,0-0.3l2.3-13.4c0.3-1.7,1.2-2.2,2.5-2.2
			c0.1,0,0.2,0,0.3,0c6.4,0.6,14.6,1.1,17.8,1.1c7.6,0,13-0.9,13-8.9c0-3-1.9-4.6-8-4.6h-20.5c-1.2,0-2.1-0.8-2.1-2.1
			c0-0.2,0-0.4,0.1-0.7l11.1-44.6c0.3-1.2,1.5-2.2,2.7-2.2h48.9c1.1,0,1.8,0.8,1.8,1.8c0,0.1,0,0.2,0,0.3V32.1z"/>
	</g>
	<g>
		<path class="st1" d="M106.3,250.5l-2.8,16.4c-0.2,1.2-1.1,2.2-2.7,2.2H70.5l-2.3,9h5c20.6,0,26.3,10.1,26.3,20.1
			c0,24.9-15.2,34-38.8,34c-8.2,0-16.3-1.6-22.4-4.1c-0.9-0.3-2-0.9-2-1.9c0-0.1,0-0.2,0-0.3l2.3-13.4c0.3-1.7,1.2-2.2,2.5-2.2
			c0.1,0,0.2,0,0.3,0c6.4,0.6,14.6,1.1,17.8,1.1c7.6,0,13-0.9,13-8.9c0-3-1.9-4.6-8-4.6H43.8c-1.2,0-2.1-0.8-2.1-2.1
			c0-0.2,0-0.4,0.1-0.7l11.1-44.6c0.3-1.2,1.5-2.2,2.7-2.2h48.9c1.1,0,1.8,0.8,1.8,1.8c0,0.1,0,0.2,0,0.3V250.5z"/>
		<path class="st1" d="M179.6,283.6l-2.1,12.1c-4.3,24.7-17.7,36.5-38.5,36.5c-17.3,0-26.5-8.2-26.5-25.4c0-3.3,0.3-7,1-11l2.1-12.1
			c4.3-24.7,17.7-36.4,38.5-36.4c17.3,0,26.5,8.2,26.5,25.4C180.6,275.9,180.3,279.6,179.6,283.6z M150.1,269.6c-3.3,0-5.9,1.7-8,14
			l-2.1,12.1c-0.7,3.6-0.9,6.4-0.9,8.4c0,4.9,1.7,5.7,4,5.7c3.3,0,5.9-1.7,8-14l2.1-12.1c0.7-3.6,0.9-6.4,0.9-8.4
			C154.1,270.3,152.4,269.6,150.1,269.6z"/>
	</g>
	<g>
		<path class="st1" d="M409.6,70.7c5.3,3.8,7.5,9.4,7.5,14.5c0,21.8-16.9,28.6-35.9,28.6c-9.6,0-21.3-2.5-25.5-4.6
			c-0.8-0.4-1.9-0.9-1.9-1.9c0-0.1,0-0.2,0-0.3l2.2-12.9c0.2-1.2,1.5-2.2,2.7-2.2h0.1c5.9,0,16.4,1.1,23.9,1.1
			c5.2,0,9.3-2.1,9.3-7.7c0-2.7-1.4-4.8-5.6-4.8h-19.3c-1.1,0-1.9-0.9-1.9-1.9c0-0.1,0-0.2,0-0.3l2.6-14.4c0.2-1.2,1.5-2.2,2.7-2.2
			h17.9c4.9,0,9-2.5,9-7.7c0-2.9-2.1-4.3-7-4.3c-7.5,0-17.5,1.1-23.5,1.1h-0.1c-1,0-1.8-0.8-1.8-1.8c0-0.1,0-0.2,0-0.3v-0.1
			l2.2-12.9c0.2-1.2,1.6-1.7,2.8-2.2c5-2.1,16.7-4.6,26.3-4.6c17.8,0,27.5,6,27.5,18.5C423.8,58.6,419.4,65.1,409.6,70.7z"/>
		<path class="st1" d="M500.9,32.1l-2.1,12.4c-0.3,2.1-1.5,3.7-2.2,4.9l-38.5,61.1c-0.7,1.1-1.5,2.2-2.7,2.2h-23.7
			c-1,0-1.6-0.2-1.6-0.8c0-0.3,0.2-0.9,0.6-1.4L469,50.7h-25.6c-1.1,0-1.9-0.8-1.9-1.9c0-0.1,0-0.2,0-0.3l2.8-16.4
			c0.2-1.2,1.6-2.2,2.8-2.2h52.1c1.1,0,1.8,0.8,1.8,1.8C500.9,31.9,500.9,32,500.9,32.1z"/>
	</g>
	<g>
		<path class="st1" d="M413.5,296.5h-15.8v15.7c0,1.2-0.6,2.2-1.8,2.2h-14.5c-1.2,0-1.8-1-1.8-2.2v-15.7h-15.7
			c-1.2,0-2.2-0.6-2.2-1.8v-14.5c0-1.2,1-1.8,2.2-1.8h15.7v-15.8c0-1.2,0.6-2.2,1.8-2.2h14.5c1.2,0,1.8,1,1.8,2.2v15.8h15.8
			c1.2,0,2.2,0.6,2.2,1.8v14.5C415.8,296,414.8,296.5,413.5,296.5z"/>
		<path class="st1" d="M492.6,250.5l-7.9,45h5.6c1.1,0,1.9,0.8,1.9,1.9c0,0.1,0,0.2,0,0.3l-2.7,15.3c-0.2,1.2-1.4,2.2-2.7,2.2h-5.6
			l-2.3,13.6c-0.2,1.2-1.4,2.2-2.7,2.2h-21.7c-1.1,0-1.8-0.8-1.8-1.8c0-0.2,0-0.3,0-0.4l2.3-13.6h-29.9c-1.1,0-1.8-0.8-1.8-1.8
			c0-0.2,0-0.3,0-0.4l2.5-14.5c0.2-1.1,0.8-2.1,1.7-3.1l45.3-46.6c0.4-0.4,1-0.6,1.6-0.6c0.3,0,0.7,0,1,0h15.5
			c1.1,0,1.8,0.8,1.8,1.8C492.6,250.2,492.6,250.4,492.6,250.5z M445.4,295.5h14.3l3.2-18.1L445.4,295.5z"/>
		<path class="st1" d="M568.5,283.6l-2.1,12.1c-4.3,24.7-17.7,36.5-38.5,36.5c-17.3,0-26.5-8.2-26.5-25.4c0-3.3,0.3-7,1-11l2.1-12.1
			c4.3-24.7,17.7-36.4,38.5-36.4c17.3,0,26.5,8.2,26.5,25.4C569.5,275.9,569.1,279.6,568.5,283.6z M538.9,269.6c-3.3,0-5.9,1.7-8,14
			l-2.1,12.1c-0.7,3.6-0.9,6.4-0.9,8.4c0,4.9,1.7,5.7,4,5.7c3.3,0,5.9-1.7,8-14l2.1-12.1c0.7-3.6,0.9-6.4,0.9-8.4
			C542.9,270.3,541.3,269.6,538.9,269.6z"/>
		<path class="st1" d="M643.1,283.6l-2.1,12.1c-4.3,24.7-17.7,36.5-38.5,36.5c-17.3,0-26.5-8.2-26.5-25.4c0-3.3,0.3-7,1-11l2.1-12.1
			c4.3-24.7,17.7-36.4,38.5-36.4c17.3,0,26.5,8.2,26.5,25.4C644.1,275.9,643.8,279.6,643.1,283.6z M613.6,269.6c-3.3,0-5.9,1.7-8,14
			l-2.1,12.1c-0.7,3.6-0.9,6.4-0.9,8.4c0,4.9,1.7,5.7,4,5.7c3.3,0,5.9-1.7,8-14l2.1-12.1c0.7-3.6,0.9-6.4,0.9-8.4
			C617.6,270.3,615.9,269.6,613.6,269.6z"/>
	</g>
	<g>
		<path class="st2" d="M73.5,133.7l-1.3,7.4c-0.1,0.5-0.3,1-1.2,1h-9.9c-1.2,0-1.6,0.3-1.9,1.6l-0.5,2.6h11.5c0.6,0,0.9,0.3,0.8,1
			l-1.2,6.9c-0.1,0.5-0.6,1-1.2,1H57.2l-0.4,2.4c-0.1,0.8-0.1,1-0.1,1.2c0,0.7,0.4,0.9,1.4,0.9h9.9c0.6,0,0.9,0.3,0.8,1l-1.3,7.4
			c-0.1,0.5-0.2,0.9-1.2,1c-2.1,0.2-5.7,0.5-10,0.5c-6.1,0-11.4-2.1-11.4-8.8c0-0.8,0-1.7,0.2-2.7l2.6-14.5c2-11,9-11.5,15.2-11.5
			c4.3,0,7.8,0.3,9.8,0.5C73.3,132.8,73.6,133.1,73.5,133.7z"/>
		<path class="st2" d="M105.8,141.2L95.2,155l6.5,13.1c0.2,0.5,0,1.1-0.7,1.1H90.8c-0.7,0-1.1-0.2-1.5-1.1l-2.7-5.8l-4.1,5.9
			c-0.3,0.5-0.8,1-1.4,1h-9.6c-0.5,0-0.6-0.7-0.3-1l10.9-14.3l-6.1-12.2c-0.5-0.9,0-1.4,0.5-1.4h9.8c1.3,0,1.5,0.5,1.7,1l2.5,5.5
			l3.8-5.5c0.5-0.8,0.8-1,1.9-1h9.1C105.9,140.2,106.2,140.6,105.8,141.2z"/>
		<path class="st2" d="M133.7,142.6l-4.5,25.6c-0.1,0.5-0.4,1-1,1h-7c-0.5,0-1-0.3-1-0.8c0,0,0-0.1,0-0.1l0.2-1.4
			c-2.3,2-4.9,2.8-7.4,2.8c-4.9,0-9.3-3.3-9.3-9.8c0-0.8,0.1-1.6,0.2-2.5l0.8-4.6c1.8-10.6,7.9-13,15.9-13c3.7,0,7.6,0.5,11.3,1.2
			c1,0.2,1.7,0.4,1.7,1.3C133.8,142.3,133.8,142.4,133.7,142.6z M119.6,148.7c-2.1,0-3.2,0.7-3.8,4l-1,5.5c-0.1,0.2-0.1,0.5-0.1,0.7
			c0,1.5,0.6,1.8,1.9,1.8c1,0,2.2-0.4,3-0.8l2-11C120.9,148.8,120.2,148.7,119.6,148.7z M133.4,131.7l-7.4,5.8
			c-0.4,0.3-0.6,0.5-1.3,0.5h-7.6c-0.2,0-0.4-0.1-0.4-0.3c0-0.1,0.1-0.3,0.3-0.5l5.3-5.5c0.5-0.5,0.7-0.7,1.5-0.7h9.4
			c0.3,0,0.5,0.1,0.5,0.3C133.7,131.4,133.6,131.5,133.4,131.7z"/>
		<path class="st2" d="M177.8,151.3l-2.9,16.8c-0.1,0.6-0.4,1.1-1.2,1.1h-8.8c-0.6,0-1-0.4-0.9-1.1l2.9-16.8c0-0.3,0.1-0.6,0.1-0.8
			c0-1.1-0.6-1.3-1.6-1.3c-0.6,0-1.4,0.1-2.2,0.3c-0.1,0.7-0.1,1-0.2,1.8l-2.9,16.8c-0.1,0.6-0.3,1.1-1.2,1.1h-8.8
			c-0.8,0-1-0.5-0.9-1.1l2.9-16.8c0.1-0.3,0.1-0.6,0.1-0.8c0-1-0.5-1.3-1.5-1.3c-0.6,0-1.6,0.1-2.2,0.3l-3.3,18.6
			c-0.1,0.6-0.2,1.1-1.2,1.1h-8.8c-0.6,0-1.1-0.3-0.9-1.1l4.8-26.9c0.1-0.5,0.2-1,1.1-1h8.1c0.6,0,0.9,0.4,0.8,1l-0.3,1.5
			c3-2.4,5.7-2.9,8.4-2.9c2.4,0,4.6,0.8,5.5,2.9c2.5-2.1,5.4-2.9,8.2-2.9c5.1,0,7.3,3.1,7.3,7.9C178.1,148.8,178,150,177.8,151.3z"
			/>
		<path class="st2" d="M208.2,153.5l-0.5,3c-0.1,0.6-0.6,1-1.2,1h-14.8c0,0.4-0.1,0.8-0.1,1.1c0,1.6,1,2.1,3.8,2.1
			c2.1,0,7.5-0.2,9.3-0.3c0.8,0,1.1,0.1,0.9,0.9l-0.9,5.2c-0.1,0.8-0.4,1.1-1.2,1.4c-2.7,1-7.6,1.9-11.6,1.9
			c-6.3,0-11.1-3.4-11.1-10.2c0-0.9,0.1-1.9,0.3-2.9l0.5-3c1.8-10.2,7.8-13.8,16.1-13.8c7.7,0,10.9,4.6,10.9,10.4
			C208.5,151.2,208.4,152.4,208.2,153.5z M196.1,147.9c-2,0-2.9,1.3-3.4,4.1h5.5c0.1-0.6,0.2-1.2,0.2-1.7
			C198.4,148.8,197.7,147.9,196.1,147.9z"/>
		<path class="st2" d="M239.9,151.1l-3,17c-0.1,0.6-0.2,1.1-1.2,1.1h-8.8c-0.6,0-1-0.3-0.9-1.1l3-17c0-0.3,0-0.6,0-0.9
			c0-1-0.9-1.5-2.1-1.5c-0.9,0-1.9,0.2-2.8,0.7l-3.3,18.6c-0.1,0.6-0.2,1.1-1.2,1.1h-8.8c-0.6,0-1.1-0.3-0.9-1.1l4.8-26.9
			c0.1-0.5,0.6-1,1.1-1h8.1c0.8,0,0.9,0.4,0.8,1l-0.2,1.4c2.6-1.9,4.9-2.8,8.4-2.8c6,0,7.5,3.8,7.5,7.9
			C240.3,148.8,240.1,150,239.9,151.1z"/>
		<path class="st2" d="M270.3,153.5l-0.5,3c-0.1,0.6-0.6,1-1.2,1h-14.8c0,0.4-0.1,0.8-0.1,1.1c0,1.6,1,2.1,3.8,2.1
			c2.1,0,7.5-0.2,9.3-0.3c0.8,0,1.1,0.1,0.9,0.9l-0.9,5.2c-0.1,0.8-0.4,1.1-1.2,1.4c-2.7,1-7.6,1.9-11.6,1.9
			c-6.3,0-11.1-3.4-11.1-10.2c0-0.9,0.1-1.9,0.3-2.9l0.5-3c1.8-10.2,7.8-13.8,16.1-13.8c7.7,0,10.9,4.6,10.9,10.4
			C270.6,151.2,270.5,152.4,270.3,153.5z M258.2,147.9c-2,0-2.9,1.3-3.4,4.1h5.5c0.1-0.6,0.2-1.2,0.2-1.7
			C260.5,148.8,259.8,147.9,258.2,147.9z"/>
		<path class="st2" d="M297.6,142.1l-1.1,6.4c-0.1,0.7-0.2,1.2-1.2,1c-1.5-0.2-6.7-0.9-8.6-0.9c-0.4,0-1.1,0-1.1,0.5
			c0,0.4,0.1,0.5,1.1,1.1l3.9,2.1c4.4,2.3,4.9,4.9,4.9,7.5c0,7.1-5.8,9.9-14.4,9.9c-4.2,0-7.1-0.6-8.9-1.3c-0.6-0.2-0.8-0.5-0.7-1.1
			l1.1-6.1c0.1-0.8,0.4-1.3,1.5-1.1c3.2,0.5,6.6,0.9,8.3,0.9c0.8,0,1.9,0,1.9-1.1c0-0.3-0.1-0.5-0.9-1l-4.4-2.4
			c-2.9-1.6-4.4-3.9-4.4-7c0-7.8,6.4-9.8,13.1-9.8c3.6,0,7.1,0.7,9.1,1.3C297.4,141.2,297.7,141.4,297.6,142.1z"/>
	</g>
	<g>
		<path class="st2" d="M71.9,199.4l-0.5,3c-0.1,0.6-0.6,1-1.2,1H55.3c0,0.4-0.1,0.8-0.1,1.1c0,1.6,1,2.1,3.8,2.1
			c2.1,0,7.5-0.2,9.3-0.3c0.8,0,1.1,0.1,0.9,0.9l-0.9,5.2c-0.1,0.8-0.4,1.1-1.2,1.4c-2.7,1-7.6,1.9-11.6,1.9
			c-6.3,0-11.1-3.4-11.1-10.2c0-0.9,0.1-1.9,0.3-2.9l0.5-3c1.8-10.2,7.8-13.8,16.1-13.8c7.7,0,10.9,4.6,10.9,10.4
			C72.2,197.1,72.1,198.2,71.9,199.4z M59.7,193.8c-2,0-2.9,1.3-3.4,4.1h5.5c0.1-0.6,0.2-1.2,0.2-1.7
			C62,194.7,61.4,193.8,59.7,193.8z"/>
		<path class="st2" d="M105.8,187.1l-10.6,13.7l6.5,13.1c0.2,0.5,0,1.1-0.7,1.1H90.8c-0.7,0-1.1-0.2-1.5-1.1l-2.7-5.8l-4.1,5.9
			c-0.3,0.5-0.8,1-1.4,1h-9.6c-0.5,0-0.6-0.7-0.3-1l10.9-14.3l-6.1-12.2c-0.5-0.9,0-1.4,0.5-1.4h9.8c1.3,0,1.5,0.5,1.7,1l2.5,5.5
			l3.8-5.5c0.5-0.8,0.8-1,1.9-1h9.1C105.9,186.1,106.2,186.5,105.8,187.1z"/>
		<path class="st2" d="M125.5,186.1c0.8,0,1.2,0.2,1,1l-1,5.9c-0.1,0.6-0.3,1.1-1.2,1.1h-3.5l-2.1,12c0,0.3-0.1,0.5-0.1,0.7
			c0,0.5,0.2,0.7,0.9,0.7h2.4c0.7,0,1,0.1,0.8,1l-0.9,5.3c-0.1,0.6-0.2,0.9-1.2,1.1c-2.1,0.3-3.1,0.5-5.3,0.5
			c-3.4,0-7.7-1.4-7.7-7.1c0-0.7,0.1-1.6,0.2-2.5l2.1-11.8l-2.7-0.5c-0.5-0.1-1-0.3-0.9-1.1l0.9-5.4c0.1-0.6,0.4-1,1.3-1h2.8l0.7-4
			c0.1-0.6,0.3-0.9,1.3-1l8.8-1.5c1-0.1,1.4,0.2,1.2,1l-1,5.5H125.5z"/>
		<path class="st2" d="M154,199.4l-0.5,3c-0.1,0.6-0.6,1-1.2,1h-14.8c0,0.4-0.1,0.8-0.1,1.1c0,1.6,1,2.1,3.8,2.1
			c2.1,0,7.5-0.2,9.3-0.3c0.8,0,1.1,0.1,0.9,0.9l-0.9,5.2c-0.1,0.8-0.4,1.1-1.2,1.4c-2.7,1-7.6,1.9-11.6,1.9
			c-6.3,0-11.1-3.4-11.1-10.2c0-0.9,0.1-1.9,0.3-2.9l0.5-3c1.8-10.2,7.8-13.8,16.1-13.8c7.7,0,10.9,4.6,10.9,10.4
			C154.3,197.1,154.2,198.2,154,199.4z M141.8,193.8c-2,0-2.9,1.3-3.4,4.1h5.5c0.1-0.6,0.2-1.2,0.2-1.7
			C144.1,194.7,143.5,193.8,141.8,193.8z"/>
		<path class="st2" d="M177.2,185.6c0.8,0,1.2,0.2,1,1l-1.2,6.9c-0.1,0.5-0.2,1-1.1,1h-0.3c-3,0-4.5,0.2-5.7,0.8l-3.3,18.6
			c-0.1,0.6-0.3,1.1-1.2,1.1h-8.8c-0.6,0-1.1-0.2-0.9-1.1l4.8-26.9c0.1-0.5,0.3-1,1.1-1h7.7c0.6,0,1,0.3,0.8,1l-0.3,1.4
			c2-2.3,4.8-2.9,7.1-2.9H177.2z"/>
		<path class="st2" d="M207.2,197l-3,17c-0.1,0.6-0.2,1.1-1.2,1.1h-8.8c-0.6,0-1-0.3-0.9-1.1l3-17c0-0.3,0-0.6,0-0.9
			c0-1-0.9-1.5-2.1-1.5c-0.9,0-1.9,0.2-2.8,0.7l-3.3,18.6c-0.1,0.6-0.2,1.1-1.2,1.1h-8.8c-0.6,0-1.1-0.3-0.9-1.1l4.8-26.9
			c0.1-0.5,0.6-1,1.1-1h8.1c0.8,0,0.9,0.4,0.8,1l-0.2,1.4c2.6-1.9,4.9-2.8,8.4-2.8c6,0,7.5,3.8,7.5,7.9
			C207.5,194.6,207.4,195.8,207.2,197z"/>
		<path class="st2" d="M237.9,199.4l-0.4,2.3c-1.8,10.4-7.6,13.8-15.9,13.8c-7.4,0-11.3-3.9-11.3-10.5c0-1,0.1-2.2,0.3-3.3l0.4-2.3
			c1.8-10.3,7.6-13.8,15.9-13.8c7.3,0,11.4,3.6,11.4,10.4C238.3,197,238.1,198.2,237.9,199.4z M225.3,194.6c-1.7,0-2.8,1.4-3.4,4.8
			l-0.4,2.3c-0.1,0.9-0.2,1.7-0.2,2.3c0,1.9,0.7,2.5,2,2.5c1.7,0,2.7-1,3.4-4.8l0.4-2.3c0.1-0.9,0.2-1.7,0.2-2.3
			C227.3,195.2,226.5,194.6,225.3,194.6z"/>
		<path class="st2" d="M265.5,187.9l-1.1,6.4c-0.1,0.7-0.2,1.2-1.2,1c-1.5-0.2-6.7-0.9-8.6-0.9c-0.4,0-1.1,0-1.1,0.5
			c0,0.4,0.1,0.5,1.1,1.1l3.9,2.1c4.4,2.3,4.9,4.9,4.9,7.5c0,7.1-5.8,9.9-14.4,9.9c-4.2,0-7.1-0.6-8.9-1.3c-0.6-0.2-0.8-0.5-0.7-1.1
			l1.1-6.1c0.1-0.8,0.4-1.3,1.5-1.1c3.2,0.5,6.6,0.9,8.3,0.9c0.8,0,1.9,0,1.9-1.1c0-0.3-0.1-0.5-0.9-1l-4.4-2.4
			c-2.9-1.6-4.4-3.9-4.4-7c0-7.8,6.4-9.8,13.1-9.8c3.6,0,7.1,0.7,9.1,1.3C265.4,187.1,265.6,187.2,265.5,187.9z"/>
	</g>
	<g>
		<path class="st2" d="M73.5,352.1l-1.3,7.4c-0.1,0.5-0.3,1-1.2,1h-9.9c-1.2,0-1.6,0.3-1.9,1.6l-0.5,2.6h11.5c0.6,0,0.9,0.3,0.8,1
			l-1.2,6.9c-0.1,0.5-0.6,1-1.2,1H57.2l-0.4,2.4c-0.1,0.8-0.1,1-0.1,1.2c0,0.7,0.4,0.9,1.4,0.9h9.9c0.6,0,0.9,0.3,0.8,1l-1.3,7.4
			c-0.1,0.5-0.2,0.9-1.2,1c-2.1,0.2-5.7,0.5-10,0.5c-6.1,0-11.4-2.1-11.4-8.8c0-0.8,0-1.7,0.2-2.7l2.6-14.5c2-11,9-11.5,15.2-11.5
			c4.3,0,7.8,0.3,9.8,0.5C73.3,351.1,73.6,351.4,73.5,352.1z"/>
		<path class="st2" d="M105.8,359.6l-10.6,13.7l6.5,13.1c0.2,0.5,0,1.1-0.7,1.1H90.8c-0.7,0-1.1-0.2-1.5-1.1l-2.7-5.8l-4.1,5.9
			c-0.3,0.5-0.8,1-1.4,1h-9.6c-0.5,0-0.6-0.7-0.3-1l10.9-14.3l-6.1-12.2c-0.5-0.9,0-1.4,0.5-1.4h9.8c1.3,0,1.5,0.5,1.7,1l2.5,5.5
			l3.8-5.5c0.5-0.8,0.8-1,1.9-1h9.1C105.9,358.5,106.2,359,105.8,359.6z"/>
		<path class="st2" d="M133.7,360.9l-4.5,25.6c-0.1,0.5-0.4,1-1,1h-7c-0.5,0-1-0.3-1-0.8c0,0,0-0.1,0-0.1l0.2-1.4
			c-2.3,2-4.9,2.8-7.4,2.8c-4.9,0-9.3-3.3-9.3-9.8c0-0.8,0.1-1.6,0.2-2.5l0.8-4.6c1.8-10.6,7.9-13,15.9-13c3.7,0,7.6,0.5,11.3,1.2
			c1,0.2,1.7,0.4,1.7,1.3C133.8,360.6,133.8,360.8,133.7,360.9z M119.6,367.1c-2.1,0-3.2,0.7-3.8,4l-1,5.5c-0.1,0.2-0.1,0.5-0.1,0.7
			c0,1.5,0.6,1.8,1.9,1.8c1,0,2.2-0.4,3-0.8l2-11C120.9,367.1,120.2,367.1,119.6,367.1z M133.4,350l-7.4,5.8
			c-0.4,0.3-0.6,0.5-1.3,0.5h-7.6c-0.2,0-0.4-0.1-0.4-0.3c0-0.1,0.1-0.3,0.3-0.5l5.3-5.5c0.5-0.5,0.7-0.7,1.5-0.7h9.4
			c0.3,0,0.5,0.1,0.5,0.3C133.7,349.7,133.6,349.9,133.4,350z"/>
		<path class="st2" d="M177.8,369.6l-2.9,16.8c-0.1,0.6-0.4,1.1-1.2,1.1h-8.8c-0.6,0-1-0.4-0.9-1.1l2.9-16.8c0-0.3,0.1-0.6,0.1-0.8
			c0-1.1-0.6-1.3-1.6-1.3c-0.6,0-1.4,0.1-2.2,0.3c-0.1,0.7-0.1,1-0.2,1.8l-2.9,16.8c-0.1,0.6-0.3,1.1-1.2,1.1h-8.8
			c-0.8,0-1-0.5-0.9-1.1l2.9-16.8c0.1-0.3,0.1-0.6,0.1-0.8c0-1-0.5-1.3-1.5-1.3c-0.6,0-1.6,0.1-2.2,0.3l-3.3,18.6
			c-0.1,0.6-0.2,1.1-1.2,1.1h-8.8c-0.6,0-1.1-0.3-0.9-1.1l4.8-26.9c0.1-0.5,0.2-1,1.1-1h8.1c0.6,0,0.9,0.4,0.8,1l-0.3,1.5
			c3-2.4,5.7-2.9,8.4-2.9c2.4,0,4.6,0.8,5.5,2.9c2.5-2.1,5.4-2.9,8.2-2.9c5.1,0,7.3,3.1,7.3,7.9C178.1,367.1,178,368.4,177.8,369.6z
			"/>
		<path class="st2" d="M208.2,371.8l-0.5,3c-0.1,0.6-0.6,1-1.2,1h-14.8c0,0.4-0.1,0.8-0.1,1.1c0,1.6,1,2.1,3.8,2.1
			c2.1,0,7.5-0.2,9.3-0.3c0.8,0,1.1,0.1,0.9,0.9l-0.9,5.2c-0.1,0.8-0.4,1.1-1.2,1.4c-2.7,1-7.6,1.9-11.6,1.9
			c-6.3,0-11.1-3.4-11.1-10.2c0-0.9,0.1-1.9,0.3-2.9l0.5-3c1.8-10.2,7.8-13.8,16.1-13.8c7.7,0,10.9,4.6,10.9,10.4
			C208.5,369.6,208.4,370.7,208.2,371.8z M196.1,366.3c-2,0-2.9,1.3-3.4,4.1h5.5c0.1-0.6,0.2-1.2,0.2-1.7
			C198.4,367.2,197.7,366.3,196.1,366.3z"/>
		<path class="st2" d="M239.9,369.4l-3,17c-0.1,0.6-0.2,1.1-1.2,1.1h-8.8c-0.6,0-1-0.3-0.9-1.1l3-17c0-0.3,0-0.6,0-0.9
			c0-1-0.9-1.5-2.1-1.5c-0.9,0-1.9,0.2-2.8,0.7l-3.3,18.6c-0.1,0.6-0.2,1.1-1.2,1.1h-8.8c-0.6,0-1.1-0.3-0.9-1.1l4.8-26.9
			c0.1-0.5,0.6-1,1.1-1h8.1c0.8,0,0.9,0.4,0.8,1l-0.2,1.4c2.6-1.9,4.9-2.8,8.4-2.8c6,0,7.5,3.8,7.5,7.9
			C240.3,367.1,240.1,368.3,239.9,369.4z"/>
		<path class="st2" d="M270.3,371.8l-0.5,3c-0.1,0.6-0.6,1-1.2,1h-14.8c0,0.4-0.1,0.8-0.1,1.1c0,1.6,1,2.1,3.8,2.1
			c2.1,0,7.5-0.2,9.3-0.3c0.8,0,1.1,0.1,0.9,0.9l-0.9,5.2c-0.1,0.8-0.4,1.1-1.2,1.4c-2.7,1-7.6,1.9-11.6,1.9
			c-6.3,0-11.1-3.4-11.1-10.2c0-0.9,0.1-1.9,0.3-2.9l0.5-3c1.8-10.2,7.8-13.8,16.1-13.8c7.7,0,10.9,4.6,10.9,10.4
			C270.6,369.6,270.5,370.7,270.3,371.8z M258.2,366.3c-2,0-2.9,1.3-3.4,4.1h5.5c0.1-0.6,0.2-1.2,0.2-1.7
			C260.5,367.2,259.8,366.3,258.2,366.3z"/>
		<path class="st2" d="M297.6,360.4l-1.1,6.4c-0.1,0.7-0.2,1.2-1.2,1c-1.5-0.2-6.7-0.9-8.6-0.9c-0.4,0-1.1,0-1.1,0.5
			c0,0.4,0.1,0.5,1.1,1.1l3.9,2.1c4.4,2.3,4.9,4.9,4.9,7.5c0,7.1-5.8,9.9-14.4,9.9c-4.2,0-7.1-0.6-8.9-1.3c-0.6-0.2-0.8-0.5-0.7-1.1
			l1.1-6.1c0.1-0.8,0.4-1.3,1.5-1.1c3.2,0.5,6.6,0.9,8.3,0.9c0.8,0,1.9,0,1.9-1.1c0-0.3-0.1-0.5-0.9-1l-4.4-2.4
			c-2.9-1.6-4.4-3.9-4.4-7c0-7.8,6.4-9.8,13.1-9.8c3.6,0,7.1,0.7,9.1,1.3C297.4,359.6,297.7,359.7,297.6,360.4z"/>
	</g>
	<g>
		<path class="st2" d="M75.1,395.1c0.6,0,1.1,0.2,1,1l-6.1,34.8c-0.1,0.8-0.6,1.4-2.3,1.7c-2.4,0.4-6.7,1.2-11.8,1.2
			c-7.2,0-11.4-4.5-11.4-10.6c0-0.8,0.1-1.6,0.2-2.5l0.7-3.8c1.7-9.3,6.7-13,15.3-13c1.1,0,2.5,0.1,3.1,0.3l1.4-8
			c0.1-0.6,0.3-1,1.1-1H75.1z M59.5,412.9c-2,0-2.8,1.2-3.3,4l-0.7,3.8c-0.1,0.7-0.2,1.3-0.2,1.9c0,1.5,0.6,2.2,2.1,2.2
			c1.3,0,1.7,0,2.6-0.1l2.1-11.6C61.4,413,60.7,412.9,59.5,412.9z"/>
		<path class="st2" d="M103.4,417.8L103,420c-1.8,10.4-7.6,13.8-15.9,13.8c-7.4,0-11.3-3.9-11.3-10.5c0-1,0.1-2.2,0.3-3.3l0.4-2.3
			c1.8-10.3,7.6-13.8,15.9-13.8c7.3,0,11.4,3.6,11.4,10.4C103.7,415.3,103.6,416.5,103.4,417.8z M90.7,412.9c-1.7,0-2.8,1.4-3.4,4.8
			l-0.4,2.3c-0.1,0.9-0.2,1.7-0.2,2.3c0,1.9,0.7,2.5,2,2.5c1.7,0,2.7-1,3.4-4.8l0.4-2.3c0.1-0.9,0.2-1.7,0.2-2.3
			C92.8,413.5,92,412.9,90.7,412.9z"/>
		<path class="st2" d="M128,404.8c0.5,0.1,0.9,0.3,0.8,0.9l-1.2,6.7c-0.1,0.5-0.6,1-1.2,1h-0.1c-1.6,0-3.3-0.3-5.2-0.3
			c-2,0-2.8,1.3-3.3,4.2l-0.6,3.2c-0.1,0.7-0.2,1.4-0.2,2c0,1.5,0.6,2.2,2.1,2.2c2,0,3.8-0.2,5.3-0.3c0.9-0.1,1,0.4,0.9,1l-1.2,6.7
			c-0.1,0.6-0.6,0.8-1.2,0.9c-2,0.4-4.2,0.8-7.1,0.8c-6.8,0-9.9-4.4-9.9-10.1c0-1,0.1-2.1,0.3-3.2l0.6-3.2c1.6-9,6.3-13.3,14.3-13.3
			C124.1,403.9,126.7,404.4,128,404.8z"/>
		<path class="st2" d="M156.1,417.7l-0.5,3c-0.1,0.6-0.6,1-1.2,1h-14.8c0,0.4-0.1,0.8-0.1,1.1c0,1.6,1,2.1,3.8,2.1
			c2.1,0,7.5-0.2,9.3-0.3c0.8,0,1.1,0.1,0.9,0.9l-0.9,5.2c-0.1,0.8-0.4,1.1-1.2,1.4c-2.7,1-7.6,1.9-11.6,1.9
			c-6.3,0-11.1-3.4-11.1-10.2c0-0.9,0.1-1.9,0.3-2.9l0.5-3c1.8-10.2,7.8-13.8,16.1-13.8c7.7,0,10.9,4.6,10.9,10.4
			C156.4,415.4,156.3,416.6,156.1,417.7z M144,412.2c-2,0-2.9,1.3-3.4,4.1h5.5c0.1-0.6,0.2-1.2,0.2-1.7
			C146.3,413,145.6,412.2,144,412.2z"/>
		<path class="st2" d="M187.8,415.3l-3,17c-0.1,0.6-0.2,1.1-1.2,1.1h-8.8c-0.6,0-1-0.3-0.9-1.1l3-17c0-0.3,0-0.6,0-0.9
			c0-1-0.9-1.5-2.1-1.5c-0.9,0-1.9,0.2-2.8,0.7l-3.3,18.6c-0.1,0.6-0.2,1.1-1.2,1.1h-8.8c-0.6,0-1.1-0.3-0.9-1.1l4.8-26.9
			c0.1-0.5,0.6-1,1.1-1h8.1c0.8,0,0.9,0.4,0.8,1l-0.2,1.4c2.6-1.9,4.9-2.8,8.4-2.8c6,0,7.5,3.8,7.5,7.9
			C188.2,413,188,414.2,187.8,415.3z"/>
		<path class="st2" d="M211.3,404.4c0.8,0,1.2,0.2,1,1l-1,5.9c-0.1,0.6-0.3,1.1-1.2,1.1h-3.5l-2.1,12c-0.1,0.3-0.1,0.5-0.1,0.7
			c0,0.5,0.2,0.7,0.9,0.7h2.4c0.7,0,1,0.1,0.8,1l-0.9,5.3c-0.1,0.6-0.2,0.9-1.2,1.1c-2.1,0.3-3.1,0.5-5.3,0.5
			c-3.4,0-7.7-1.4-7.7-7.1c0-0.7,0.1-1.6,0.2-2.5l2.1-11.8l-2.7-0.5c-0.5-0.1-1-0.3-0.9-1.1l0.9-5.4c0.1-0.6,0.4-1,1.3-1h2.8l0.7-4
			c0.1-0.6,0.3-0.9,1.3-1l8.8-1.5c1-0.1,1.4,0.2,1.2,1l-1,5.5H211.3z"/>
		<path class="st2" d="M239.8,417.7l-0.5,3c-0.1,0.6-0.6,1-1.2,1h-14.8c0,0.4-0.1,0.8-0.1,1.1c0,1.6,1,2.1,3.8,2.1
			c2.1,0,7.5-0.2,9.3-0.3c0.8,0,1.1,0.1,0.9,0.9l-0.9,5.2c-0.1,0.8-0.4,1.1-1.2,1.4c-2.7,1-7.6,1.9-11.6,1.9
			c-6.3,0-11.1-3.4-11.1-10.2c0-0.9,0.1-1.9,0.3-2.9l0.5-3c1.8-10.2,7.8-13.8,16.1-13.8c7.7,0,10.9,4.6,10.9,10.4
			C240.1,415.4,240,416.6,239.8,417.7z M227.7,412.2c-2,0-2.9,1.3-3.4,4.1h5.5c0.1-0.6,0.2-1.2,0.2-1.7
			C230,413,229.3,412.2,227.7,412.2z"/>
		<path class="st2" d="M267.1,406.3l-1.1,6.4c-0.1,0.7-0.2,1.2-1.2,1c-1.5-0.2-6.7-0.9-8.6-0.9c-0.4,0-1.1,0-1.1,0.5
			c0,0.4,0.1,0.5,1.1,1.1l3.9,2.1c4.4,2.3,4.9,4.9,4.9,7.5c0,7.1-5.8,9.9-14.4,9.9c-4.2,0-7.1-0.6-8.9-1.3c-0.6-0.2-0.8-0.5-0.7-1.1
			l1.1-6.1c0.1-0.8,0.4-1.3,1.5-1.1c3.2,0.5,6.6,0.9,8.3,0.9c0.8,0,1.9,0,1.9-1.1c0-0.3-0.1-0.5-0.9-1l-4.4-2.4
			c-2.9-1.6-4.4-3.9-4.4-7c0-7.8,6.4-9.8,13.1-9.8c3.6,0,7.1,0.7,9.1,1.3C267,405.4,267.2,405.6,267.1,406.3z"/>
	</g>
	<g>
		<path class="st2" d="M61.5,443.8l-6,34.5c-0.1,0.5-0.2,1-1.2,1h-9.6c-0.7,0-0.9-0.4-0.8-1l6-34.5c0.1-0.5,0.4-1,1.2-1h9.6
			C61.3,442.8,61.6,443.1,61.5,443.8z"/>
		<path class="st2" d="M98.9,443.8L93,477.5c-0.1,0.9-0.6,1.7-2,1.7h-8.4c-0.7,0-1.1-0.5-1.4-1.1l-5.7-13.5
			c-0.1-0.4-0.2-0.4-0.3-0.4c0,0,0,0,0,0c-0.1,0-0.3,0.1-0.3,0.4l-2.4,13.5c-0.1,0.5-0.3,1-1.2,1h-9c-0.5,0-1-0.2-0.8-1l5.9-33.8
			c0.1-0.9,0.7-1.7,2-1.7h8c0.9,0,1.3,0.7,1.6,1.4l5.8,13.5c0.2,0.4,0.3,0.4,0.4,0.4c0.1,0,0.2,0,0.3-0.4l2.5-13.9
			c0.1-0.5,0.3-1,1.2-1h9C98.9,442.8,99,443.3,98.9,443.8z"/>
		<path class="st2" d="M129,479.2h-10.2c-0.5,0-0.8-0.4-0.8-1l0-5.5h-7.5l-1.8,5.5c-0.2,0.5-0.7,1-1.2,1H97.3
			c-0.4,0-0.6-0.2-0.6-0.5c0-0.1,0.1-0.3,0.1-0.4l11-29.6c1.9-5,5.9-6.3,11.9-6.3c6,0,9.5,1.3,9.6,6.3l0.6,29.6v0
			C129.9,478.8,129.5,479.2,129,479.2z M118.1,451.6c-0.4,0-0.4,0.2-0.5,0.6l-3.8,11.4h4.5l0.2-11.4c0-0.1,0-0.2,0-0.2
			C118.4,451.8,118.4,451.6,118.1,451.6z"/>
		<path class="st2" d="M159.8,452c-0.1,0.7-0.4,1-1.1,0.9c-1.6-0.2-4.4-0.4-6.4-0.4c-2,0-4,0.4-5.2,6.5l-0.7,4
			c-0.2,1.3-0.3,2.4-0.3,3.2c0,3.1,1.5,3.3,3.2,3.3c1.9,0,5-0.3,6.6-0.4c0.8-0.1,0.9,0.3,0.8,0.9l-1.4,7.8c-0.1,0.6-0.3,0.8-1.2,1.1
			c-1.7,0.5-3.9,0.9-6.6,0.9c-9,0-13.2-4.7-13.2-12.3c0-1.4,0.1-2.9,0.4-4.5l0.7-4c2.3-12.5,8-16.7,18.3-16.7c2.7,0,5.2,0.4,6.6,0.9
			c0.5,0.2,1,0.4,0.9,1.1L159.8,452z"/>
		<path class="st2" d="M190.1,479.2h-10.2c-0.5,0-0.8-0.4-0.8-1l0-5.5h-7.5l-1.8,5.5c-0.2,0.5-0.7,1-1.2,1h-10.3
			c-0.4,0-0.6-0.2-0.6-0.5c0-0.1,0-0.3,0.1-0.4l11-29.6c1.9-5,5.9-6.3,11.9-6.3c6,0,9.5,1.3,9.6,6.3l0.6,29.6v0
			C191,478.8,190.6,479.2,190.1,479.2z M179.1,451.6c-0.4,0-0.4,0.2-0.5,0.6l-3.8,11.4h4.5l0.2-11.4c0-0.1,0-0.2,0-0.2
			C179.5,451.8,179.4,451.6,179.1,451.6z"/>
		<path class="st2" d="M228.8,455.1l0,0.3c-1.6,10.9-11.1,12.8-18,12.8c-1,0-1.6,0-2.9-0.1l-1.8,10.1c-0.1,0.5-0.3,1-1.2,1h-9.6
			c-0.3,0-0.8-0.2-0.7-0.8l5.5-31.4c0.5-3,1.5-3.7,4.2-4.2c2.5-0.4,7.5-0.6,10.8-0.6c6.6,0,13.8,2.6,13.8,10.6
			C229,453.6,228.9,454.3,228.8,455.1z M213.7,451.9h-3l-1.2,6.6h3c2.5,0,4.5-1,4.8-3.1l0-0.3c0-0.2,0-0.4,0-0.6
			C217.4,452.7,216,451.9,213.7,451.9z"/>
	</g>
	<g>
		<path class="st2" d="M391,133.6l-1.3,7.4c-0.1,0.5-0.3,1-1.2,1h-9.9c-1.2,0-1.6,0.3-1.9,1.6l-0.5,2.6h11.5c0.6,0,0.9,0.3,0.8,1
			l-1.2,6.9c-0.1,0.5-0.6,1-1.2,1h-11.5l-0.4,2.4c-0.1,0.8-0.1,1-0.1,1.2c0,0.7,0.4,0.9,1.4,0.9h9.9c0.6,0,0.9,0.3,0.8,1L385,168
			c-0.1,0.5-0.2,0.9-1.2,1c-2.1,0.2-5.7,0.5-10,0.5c-6.1,0-11.4-2.1-11.4-8.8c0-0.8,0-1.7,0.2-2.7l2.6-14.5c2-11,9-11.5,15.2-11.5
			c4.3,0,7.8,0.3,9.8,0.5C390.8,132.7,391.1,133,391,133.6z"/>
		<path class="st2" d="M423.3,141.1l-10.6,13.7l6.5,13.1c0.2,0.5,0,1.1-0.7,1.1h-10.1c-0.7,0-1.1-0.2-1.5-1.1l-2.7-5.8l-4.1,5.9
			c-0.3,0.5-0.8,1-1.4,1h-9.6c-0.5,0-0.6-0.7-0.3-1l10.9-14.3l-6.1-12.2c-0.5-0.9,0-1.4,0.5-1.4h9.8c1.3,0,1.5,0.5,1.7,1l2.5,5.5
			l3.8-5.5c0.5-0.8,0.8-1,1.9-1h9.1C423.4,140.1,423.7,140.5,423.3,141.1z"/>
		<path class="st2" d="M451.3,142.5l-4.5,25.6c-0.1,0.5-0.4,1-1,1h-7c-0.5,0-1-0.3-1-0.8c0,0,0-0.1,0-0.1l0.2-1.4
			c-2.3,2-4.9,2.8-7.4,2.8c-4.9,0-9.3-3.3-9.3-9.8c0-0.8,0.1-1.6,0.2-2.5l0.8-4.6c1.8-10.6,7.9-13,15.9-13c3.7,0,7.6,0.5,11.3,1.2
			c1,0.2,1.7,0.4,1.7,1.3C451.3,142.2,451.3,142.4,451.3,142.5z M437.1,148.6c-2.1,0-3.2,0.7-3.8,4l-1,5.5c-0.1,0.2-0.1,0.5-0.1,0.7
			c0,1.5,0.6,1.8,1.9,1.8c1,0,2.2-0.4,3-0.8l2-11C438.4,148.7,437.7,148.6,437.1,148.6z M450.9,131.6l-7.4,5.8
			c-0.4,0.3-0.6,0.5-1.3,0.5h-7.6c-0.2,0-0.4-0.1-0.4-0.3c0-0.1,0.1-0.3,0.3-0.5l5.3-5.5c0.5-0.5,0.7-0.7,1.5-0.7h9.4
			c0.3,0,0.5,0.1,0.5,0.3C451.2,131.3,451.1,131.4,450.9,131.6z"/>
		<path class="st2" d="M495.3,151.2l-2.9,16.8c-0.1,0.6-0.4,1.1-1.2,1.1h-8.8c-0.6,0-1-0.4-0.9-1.1l2.9-16.8
			c0.1-0.3,0.1-0.6,0.1-0.8c0-1.1-0.6-1.3-1.6-1.3c-0.6,0-1.4,0.1-2.2,0.3c-0.1,0.7-0.1,1-0.2,1.8l-2.9,16.8
			c-0.1,0.6-0.3,1.1-1.2,1.1h-8.8c-0.8,0-1-0.5-0.9-1.1l2.9-16.8c0.1-0.3,0.1-0.6,0.1-0.8c0-1-0.5-1.3-1.5-1.3
			c-0.6,0-1.6,0.1-2.2,0.3l-3.3,18.6c-0.1,0.6-0.2,1.1-1.2,1.1h-8.8c-0.6,0-1.1-0.3-0.9-1.1l4.8-26.9c0.1-0.5,0.2-1,1.1-1h8.1
			c0.6,0,0.9,0.4,0.8,1l-0.3,1.5c3-2.4,5.7-2.9,8.4-2.9c2.4,0,4.6,0.8,5.5,2.9c2.5-2.1,5.4-2.9,8.2-2.9c5.1,0,7.3,3.1,7.3,7.9
			C495.6,148.7,495.6,149.9,495.3,151.2z"/>
		<path class="st2" d="M525.8,153.4l-0.5,3c-0.1,0.6-0.6,1-1.2,1h-14.8c0,0.4-0.1,0.8-0.1,1.1c0,1.6,1,2.1,3.8,2.1
			c2.1,0,7.5-0.2,9.3-0.3c0.8,0,1.1,0.1,0.9,0.9l-0.9,5.2c-0.1,0.8-0.4,1.1-1.2,1.4c-2.7,1-7.6,1.9-11.6,1.9
			c-6.3,0-11.1-3.4-11.1-10.2c0-0.9,0.1-1.9,0.3-2.9l0.5-3c1.8-10.2,7.8-13.8,16.1-13.8c7.7,0,10.9,4.6,10.9,10.4
			C526.1,151.1,526,152.3,525.8,153.4z M513.6,147.8c-2,0-2.9,1.3-3.4,4.1h5.5c0.1-0.6,0.2-1.2,0.2-1.7
			C515.9,148.7,515.3,147.8,513.6,147.8z"/>
		<path class="st2" d="M557.5,151l-3,17c-0.1,0.6-0.2,1.1-1.2,1.1h-8.8c-0.6,0-1-0.3-0.9-1.1l3-17c0-0.3,0-0.6,0-0.9
			c0-1-0.9-1.5-2.1-1.5c-0.9,0-1.9,0.2-2.8,0.7l-3.3,18.6c-0.1,0.6-0.2,1.1-1.2,1.1h-8.8c-0.6,0-1.1-0.3-0.9-1.1l4.8-26.9
			c0.1-0.5,0.6-1,1.1-1h8.1c0.8,0,0.9,0.4,0.8,1l-0.2,1.4c2.6-1.9,4.9-2.8,8.4-2.8c6,0,7.5,3.8,7.5,7.9
			C557.8,148.7,557.7,149.9,557.5,151z"/>
		<path class="st2" d="M587.9,153.4l-0.5,3c-0.1,0.6-0.6,1-1.2,1h-14.8c0,0.4-0.1,0.8-0.1,1.1c0,1.6,1,2.1,3.8,2.1
			c2.1,0,7.5-0.2,9.3-0.3c0.8,0,1.1,0.1,0.9,0.9l-0.9,5.2c-0.1,0.8-0.4,1.1-1.2,1.4c-2.7,1-7.6,1.9-11.6,1.9
			c-6.3,0-11.1-3.4-11.1-10.2c0-0.9,0.1-1.9,0.3-2.9l0.5-3c1.8-10.2,7.8-13.8,16.1-13.8c7.7,0,10.9,4.6,10.9,10.4
			C588.2,151.1,588.1,152.3,587.9,153.4z M575.7,147.8c-2,0-2.9,1.3-3.4,4.1h5.5c0.1-0.6,0.2-1.2,0.2-1.7
			C578,148.7,577.4,147.8,575.7,147.8z"/>
		<path class="st2" d="M615.1,142l-1.1,6.4c-0.1,0.7-0.2,1.2-1.2,1c-1.5-0.2-6.7-0.9-8.6-0.9c-0.4,0-1.1,0-1.1,0.5
			c0,0.4,0.1,0.5,1.1,1.1l3.9,2.1c4.4,2.3,4.9,4.9,4.9,7.5c0,7.1-5.8,9.9-14.4,9.9c-4.2,0-7.1-0.6-8.9-1.3c-0.6-0.2-0.8-0.5-0.7-1.1
			l1.1-6.1c0.1-0.8,0.4-1.3,1.5-1.1c3.2,0.5,6.6,0.9,8.3,0.9c0.8,0,1.9,0,1.9-1.1c0-0.3-0.1-0.5-0.9-1l-4.4-2.4
			c-2.9-1.6-4.4-3.9-4.4-7c0-7.8,6.4-9.8,13.1-9.8c3.6,0,7.1,0.7,9.1,1.3C614.9,141.1,615.2,141.3,615.1,142z"/>
	</g>
	<g>
		<path class="st2" d="M389.4,199.3l-0.5,3c-0.1,0.6-0.6,1-1.2,1h-14.8c0,0.4-0.1,0.8-0.1,1.1c0,1.6,1,2.1,3.8,2.1
			c2.1,0,7.5-0.2,9.3-0.3c0.8,0,1.1,0.1,0.9,0.9l-0.9,5.2c-0.1,0.8-0.4,1.1-1.2,1.4c-2.7,1-7.6,1.9-11.6,1.9
			c-6.3,0-11.1-3.4-11.1-10.2c0-0.9,0.1-1.9,0.3-2.9l0.5-3c1.8-10.2,7.8-13.8,16.1-13.8c7.7,0,10.9,4.6,10.9,10.4
			C389.7,197,389.6,198.1,389.4,199.3z M377.3,193.7c-2,0-2.9,1.3-3.4,4.1h5.5c0.1-0.6,0.2-1.2,0.2-1.7
			C379.6,194.6,378.9,193.7,377.3,193.7z"/>
		<path class="st2" d="M421.1,196.9l-3,17c-0.1,0.6-0.2,1.1-1.2,1.1h-8.8c-0.6,0-1-0.3-0.9-1.1l3-17c0-0.3,0-0.6,0-0.9
			c0-1-0.9-1.5-2.1-1.5c-0.9,0-1.9,0.2-2.8,0.7l-3.3,18.6c-0.1,0.6-0.2,1.1-1.2,1.1H392c-0.6,0-1.1-0.3-0.9-1.1l4.8-26.9
			c0.1-0.5,0.6-1,1.1-1h8.1c0.8,0,0.9,0.4,0.8,1l-0.2,1.4c2.6-1.9,4.9-2.8,8.4-2.8c6,0,7.5,3.8,7.5,7.9
			C421.5,194.5,421.3,195.7,421.1,196.9z"/>
		<path class="st2" d="M455.9,185.5c0.8,0,1.2,0.2,1,1l-1.2,6.9c-0.1,0.5-0.2,1-1.1,1h-0.3c-3,0-4.5,0.2-5.7,0.8l-3.3,18.6
			c-0.1,0.6-0.3,1.1-1.2,1.1h-8.8c-0.6,0-1.1-0.2-0.9-1.1l4.8-26.9c0.1-0.5,0.3-1,1.1-1h7.8c0.6,0,1,0.3,0.8,1l-0.3,1.4
			c2-2.3,4.8-2.9,7.1-2.9H455.9z"/>
		<path class="st2" d="M483.9,199.3l-0.5,3c-0.1,0.6-0.6,1-1.2,1h-14.8c0,0.4-0.1,0.8-0.1,1.1c0,1.6,1,2.1,3.8,2.1
			c2.1,0,7.5-0.2,9.3-0.3c0.8,0,1.1,0.1,0.9,0.9l-0.9,5.2c-0.1,0.8-0.4,1.1-1.2,1.4c-2.7,1-7.6,1.9-11.6,1.9
			c-6.3,0-11.1-3.4-11.1-10.2c0-0.9,0.1-1.9,0.3-2.9l0.5-3c1.8-10.2,7.8-13.8,16.1-13.8c7.7,0,10.9,4.6,10.9,10.4
			C484.2,197,484.1,198.1,483.9,199.3z M471.7,193.7c-2,0-2.9,1.3-3.4,4.1h5.5c0.1-0.6,0.2-1.2,0.2-1.7
			C474,194.6,473.4,193.7,471.7,193.7z"/>
		<path class="st2" d="M514.6,186.5c1.7,0.4,1.8,0.7,1.7,1.6l-4.7,26.6c-1.3,7.3-6.2,10.4-15.5,10.4c-4.4,0-8-1-9.6-1.6
			c-0.6-0.2-0.8-0.6-0.7-1.4l0.8-4.8c0.1-0.6,0.3-1.1,1.1-1c2.2,0.2,7.2,0.6,9.7,0.6c2.2,0,3.2-0.4,3.5-2.2l0.2-1.1
			c-0.7,0.1-2,0.3-3,0.3c-7.9,0-11.4-4.4-11.4-10.3c0-0.9,0.1-1.8,0.2-2.7l0.4-2.3c1.6-9.1,7.7-13,15.8-13
			C508.3,185.5,512.6,186,514.6,186.5z M502.1,194.5c-2.9,0-3.4,1.7-3.8,4l-0.4,2.3c-0.1,0.6-0.1,1.1-0.1,1.8c0,1.2,0.3,2.2,2.6,2.2
			c0.5,0,0.9,0,2.5-0.1l1.8-10.1C503.7,194.5,502.9,194.5,502.1,194.5z"/>
		<path class="st2" d="M516.9,213.8l4.7-26.8c0.1-0.6,0.4-1,1.3-1h8.8c0.9,0,1,0.4,0.9,1l-4.7,26.8c-0.1,0.6-0.4,1.1-1.3,1.1h-8.8
			C517.2,214.9,516.8,214.4,516.9,213.8z M533.5,176.7c0.6,0,1.1,0.1,1,1l-0.9,5c-0.1,0.6-0.4,1-1.3,1H523c-0.9,0-1-0.5-0.9-1l0.9-5
			c0.1-0.6,0.4-1,1.3-1H533.5z"/>
		<path class="st2" d="M561.7,199.3l-0.4,2.3c-1.8,10.4-7.6,13.8-15.9,13.8c-7.4,0-11.3-3.9-11.3-10.5c0-1,0.1-2.2,0.3-3.3l0.4-2.3
			c1.8-10.3,7.6-13.8,15.9-13.8c7.3,0,11.4,3.6,11.4,10.4C562,196.9,561.9,198.1,561.7,199.3z M549,194.5c-1.7,0-2.8,1.4-3.4,4.8
			l-0.4,2.3c-0.1,0.9-0.2,1.7-0.2,2.3c0,1.9,0.7,2.5,2,2.5c1.7,0,2.7-1,3.4-4.8l0.4-2.3c0.1-0.9,0.2-1.7,0.2-2.3
			C551,195.1,550.3,194.5,549,194.5z"/>
		<path class="st2" d="M593.4,196.9l-3,17c-0.1,0.6-0.2,1.1-1.2,1.1h-8.8c-0.6,0-1-0.3-0.9-1.1l3-17c0-0.3,0-0.6,0-0.9
			c0-1-0.9-1.5-2.1-1.5c-0.9,0-1.9,0.2-2.8,0.7l-3.3,18.6c-0.1,0.6-0.2,1.1-1.2,1.1h-8.8c-0.6,0-1.1-0.3-0.9-1.1l4.8-26.9
			c0.1-0.5,0.6-1,1.1-1h8.1c0.8,0,0.9,0.4,0.8,1l-0.2,1.4c2.6-1.9,4.9-2.8,8.4-2.8c6,0,7.5,3.8,7.5,7.9
			C593.7,194.5,593.6,195.7,593.4,196.9z"/>
		<path class="st2" d="M623.8,199.3l-0.5,3c-0.1,0.6-0.6,1-1.2,1h-14.8c0,0.4-0.1,0.8-0.1,1.1c0,1.6,1,2.1,3.8,2.1
			c2.1,0,7.5-0.2,9.3-0.3c0.8,0,1.1,0.1,0.9,0.9l-0.9,5.2c-0.1,0.8-0.4,1.1-1.2,1.4c-2.7,1-7.6,1.9-11.6,1.9
			c-6.3,0-11.1-3.4-11.1-10.2c0-0.9,0.1-1.9,0.3-2.9l0.5-3c1.8-10.2,7.8-13.8,16.1-13.8c7.7,0,10.9,4.6,10.9,10.4
			C624.1,197,624,198.1,623.8,199.3z M611.6,193.7c-2,0-2.9,1.3-3.4,4.1h5.5c0.1-0.6,0.2-1.2,0.2-1.7
			C613.9,194.6,613.3,193.7,611.6,193.7z"/>
		<path class="st2" d="M651,187.8l-1.1,6.4c-0.1,0.7-0.2,1.2-1.2,1c-1.5-0.2-6.7-0.9-8.6-0.9c-0.4,0-1.1,0-1.1,0.5
			c0,0.4,0.1,0.5,1.1,1.1l3.9,2.1c4.4,2.3,4.9,4.9,4.9,7.5c0,7.1-5.8,9.9-14.4,9.9c-4.2,0-7.1-0.6-8.9-1.3c-0.6-0.2-0.8-0.5-0.7-1.1
			l1.1-6.1c0.1-0.8,0.4-1.3,1.5-1.1c3.2,0.5,6.6,0.9,8.3,0.9c0.8,0,1.9,0,1.9-1.1c0-0.3-0.1-0.5-0.9-1l-4.4-2.4
			c-2.9-1.6-4.4-3.9-4.4-7c0-7.8,6.4-9.8,13.1-9.8c3.6,0,7.1,0.7,9.1,1.3C650.9,187,651.1,187.1,651,187.8z"/>
	</g>
	<g>
		<path class="st2" d="M391,352l-1.3,7.4c-0.1,0.5-0.3,1-1.2,1h-9.9c-1.2,0-1.6,0.3-1.9,1.6l-0.5,2.6h11.5c0.6,0,0.9,0.3,0.8,1
			l-1.2,6.9c-0.1,0.5-0.6,1-1.2,1h-11.5l-0.4,2.4c-0.1,0.8-0.1,1-0.1,1.2c0,0.7,0.4,0.9,1.4,0.9h9.9c0.6,0,0.9,0.3,0.8,1l-1.3,7.4
			c-0.1,0.5-0.2,0.9-1.2,1c-2.1,0.2-5.7,0.5-10,0.5c-6.1,0-11.4-2.1-11.4-8.8c0-0.8,0-1.7,0.2-2.7l2.6-14.5c2-11,9-11.5,15.2-11.5
			c4.3,0,7.8,0.3,9.8,0.5C390.8,351,391.1,351.3,391,352z"/>
		<path class="st2" d="M423.3,359.5l-10.6,13.7l6.5,13.1c0.2,0.5,0,1.1-0.7,1.1h-10.1c-0.7,0-1.1-0.2-1.5-1.1l-2.7-5.8l-4.1,5.9
			c-0.3,0.5-0.8,1-1.4,1h-9.6c-0.5,0-0.6-0.7-0.3-1l10.9-14.3l-6.1-12.2c-0.5-0.9,0-1.4,0.5-1.4h9.8c1.3,0,1.5,0.5,1.7,1l2.5,5.5
			l3.8-5.5c0.5-0.8,0.8-1,1.9-1h9.1C423.4,358.4,423.7,358.9,423.3,359.5z"/>
		<path class="st2" d="M451.3,360.8l-4.5,25.6c-0.1,0.5-0.4,1-1,1h-7c-0.5,0-1-0.3-1-0.8c0,0,0-0.1,0-0.1l0.2-1.4
			c-2.3,2-4.9,2.8-7.4,2.8c-4.9,0-9.3-3.3-9.3-9.8c0-0.8,0.1-1.6,0.2-2.5l0.8-4.6c1.8-10.6,7.9-13,15.9-13c3.7,0,7.6,0.5,11.3,1.2
			c1,0.2,1.7,0.4,1.7,1.3C451.3,360.5,451.3,360.7,451.3,360.8z M437.1,367c-2.1,0-3.2,0.7-3.8,4l-1,5.5c-0.1,0.2-0.1,0.5-0.1,0.7
			c0,1.5,0.6,1.8,1.9,1.8c1,0,2.2-0.4,3-0.8l2-11C438.4,367,437.7,367,437.1,367z M450.9,349.9l-7.4,5.8c-0.4,0.3-0.6,0.5-1.3,0.5
			h-7.6c-0.2,0-0.4-0.1-0.4-0.3c0-0.1,0.1-0.3,0.3-0.5l5.3-5.5c0.5-0.5,0.7-0.7,1.5-0.7h9.4c0.3,0,0.5,0.1,0.5,0.3
			C451.2,349.6,451.1,349.8,450.9,349.9z"/>
		<path class="st2" d="M495.3,369.5l-2.9,16.8c-0.1,0.6-0.4,1.1-1.2,1.1h-8.8c-0.6,0-1-0.4-0.9-1.1l2.9-16.8
			c0.1-0.3,0.1-0.6,0.1-0.8c0-1.1-0.6-1.3-1.6-1.3c-0.6,0-1.4,0.1-2.2,0.3c-0.1,0.7-0.1,1-0.2,1.8l-2.9,16.8
			c-0.1,0.6-0.3,1.1-1.2,1.1h-8.8c-0.8,0-1-0.5-0.9-1.1l2.9-16.8c0.1-0.3,0.1-0.6,0.1-0.8c0-1-0.5-1.3-1.5-1.3
			c-0.6,0-1.6,0.1-2.2,0.3l-3.3,18.6c-0.1,0.6-0.2,1.1-1.2,1.1h-8.8c-0.6,0-1.1-0.3-0.9-1.1l4.8-26.9c0.1-0.5,0.2-1,1.1-1h8.1
			c0.6,0,0.9,0.4,0.8,1l-0.3,1.5c3-2.4,5.7-2.9,8.4-2.9c2.4,0,4.6,0.8,5.5,2.9c2.5-2.1,5.4-2.9,8.2-2.9c5.1,0,7.3,3.1,7.3,7.9
			C495.6,367,495.6,368.3,495.3,369.5z"/>
		<path class="st2" d="M525.8,371.7l-0.5,3c-0.1,0.6-0.6,1-1.2,1h-14.8c0,0.4-0.1,0.8-0.1,1.1c0,1.6,1,2.1,3.8,2.1
			c2.1,0,7.5-0.2,9.3-0.3c0.8,0,1.1,0.1,0.9,0.9l-0.9,5.2c-0.1,0.8-0.4,1.1-1.2,1.4c-2.7,1-7.6,1.9-11.6,1.9
			c-6.3,0-11.1-3.4-11.1-10.2c0-0.9,0.1-1.9,0.3-2.9l0.5-3c1.8-10.2,7.8-13.8,16.1-13.8c7.7,0,10.9,4.6,10.9,10.4
			C526.1,369.5,526,370.6,525.8,371.7z M513.6,366.2c-2,0-2.9,1.3-3.4,4.1h5.5c0.1-0.6,0.2-1.2,0.2-1.7
			C515.9,367.1,515.3,366.2,513.6,366.2z"/>
		<path class="st2" d="M557.5,369.3l-3,17c-0.1,0.6-0.2,1.1-1.2,1.1h-8.8c-0.6,0-1-0.3-0.9-1.1l3-17c0-0.3,0-0.6,0-0.9
			c0-1-0.9-1.5-2.1-1.5c-0.9,0-1.9,0.2-2.8,0.7l-3.3,18.6c-0.1,0.6-0.2,1.1-1.2,1.1h-8.8c-0.6,0-1.1-0.3-0.9-1.1l4.8-26.9
			c0.1-0.5,0.6-1,1.1-1h8.1c0.8,0,0.9,0.4,0.8,1l-0.2,1.4c2.6-1.9,4.9-2.8,8.4-2.8c6,0,7.5,3.8,7.5,7.9
			C557.8,367,557.7,368.2,557.5,369.3z"/>
		<path class="st2" d="M587.9,371.7l-0.5,3c-0.1,0.6-0.6,1-1.2,1h-14.8c0,0.4-0.1,0.8-0.1,1.1c0,1.6,1,2.1,3.8,2.1
			c2.1,0,7.5-0.2,9.3-0.3c0.8,0,1.1,0.1,0.9,0.9l-0.9,5.2c-0.1,0.8-0.4,1.1-1.2,1.4c-2.7,1-7.6,1.9-11.6,1.9
			c-6.3,0-11.1-3.4-11.1-10.2c0-0.9,0.1-1.9,0.3-2.9l0.5-3c1.8-10.2,7.8-13.8,16.1-13.8c7.7,0,10.9,4.6,10.9,10.4
			C588.2,369.5,588.1,370.6,587.9,371.7z M575.7,366.2c-2,0-2.9,1.3-3.4,4.1h5.5c0.1-0.6,0.2-1.2,0.2-1.7
			C578,367.1,577.4,366.2,575.7,366.2z"/>
		<path class="st2" d="M615.1,360.3l-1.1,6.4c-0.1,0.7-0.2,1.2-1.2,1c-1.5-0.2-6.7-0.9-8.6-0.9c-0.4,0-1.1,0-1.1,0.5
			c0,0.4,0.1,0.5,1.1,1.1l3.9,2.1c4.4,2.3,4.9,4.9,4.9,7.5c0,7.1-5.8,9.9-14.4,9.9c-4.2,0-7.1-0.6-8.9-1.3c-0.6-0.2-0.8-0.5-0.7-1.1
			l1.1-6.1c0.1-0.8,0.4-1.3,1.5-1.1c3.2,0.5,6.6,0.9,8.3,0.9c0.8,0,1.9,0,1.9-1.1c0-0.3-0.1-0.5-0.9-1l-4.4-2.4
			c-2.9-1.6-4.4-3.9-4.4-7c0-7.8,6.4-9.8,13.1-9.8c3.6,0,7.1,0.7,9.1,1.3C614.9,359.5,615.2,359.6,615.1,360.3z"/>
	</g>
	<g>
		<path class="st2" d="M393.2,406.4c-0.9,5.3-4.5,8.1-10.4,11.2c-3.9,2.1-7,3.8-8.3,5.9h14.1c0.5,0,0.9,0.3,0.9,0.8c0,0,0,0.1,0,0.1
			l-1.4,7.8c-0.1,0.5-0.7,1-1.2,1H363c-0.5,0-0.8-0.3-0.8-0.8c0,0,0-0.1,0-0.1l0.9-5.4c1.3-7.7,6.3-11.6,11.6-14.8
			c6.1-3.7,6.6-3.6,6.9-5.2c0-0.1,0-0.3,0-0.4c0-0.7-0.6-1.1-3.9-1.1c-3.2,0-6.5,0.5-9.6,0.5h0c-0.4,0-0.7-0.3-0.7-0.8
			c0,0,0-0.1,0-0.1v0l1-5.6c0.1-0.5,0.6-0.8,1.1-1c3.3-1.2,7.6-2.1,12-2.1c8.7,0,11.9,3.5,11.9,8.1
			C393.4,405,393.3,405.7,393.2,406.4z"/>
		<path class="st2" d="M425.5,412.4l-0.9,5.3c-1.9,10.9-7.8,16-16.9,16c-7.6,0-11.7-3.6-11.7-11.2c0-1.5,0.1-3.1,0.4-4.9l0.9-5.3
			c1.9-10.9,7.8-16,16.9-16c7.6,0,11.7,3.6,11.7,11.2C425.9,409,425.7,410.6,425.5,412.4z M412.5,406.2c-1.5,0-2.6,0.7-3.5,6.2
			l-0.9,5.3c-0.3,1.6-0.4,2.8-0.4,3.7c0,2.2,0.7,2.5,1.8,2.5c1.5,0,2.6-0.7,3.5-6.2l0.9-5.3c0.3-1.6,0.4-2.8,0.4-3.7
			C414.2,406.5,413.5,406.2,412.5,406.2z"/>
		<path class="st2" d="M436.9,423.5l2.6-15.3l-6.2,1.9c-0.3,0.1-0.5,0.1-0.6,0.1c-0.3,0-0.4-0.2-0.4-0.6l1.5-8.3
			c0.1-0.5,0.3-0.8,0.8-1l9.5-3.4c0.4-0.1,0.7-0.2,1.1-0.2h6.9c0.5,0,0.9,0.4,0.8,1l-4.5,25.7h5.9c0.5,0,0.9,0.4,0.8,1l-1.4,7.8
			c-0.1,0.5-0.6,1-1.2,1h-23.4c-0.5,0-1-0.4-0.9-1l1.4-7.8c0.1-0.5,0.7-1,1.2-1H436.9z"/>
		<path class="st2" d="M469.7,423.5l2.7-15.3l-6.2,1.9c-0.3,0.1-0.5,0.1-0.6,0.1c-0.3,0-0.4-0.2-0.4-0.6l1.5-8.3
			c0.1-0.5,0.3-0.8,0.8-1l9.5-3.4c0.4-0.1,0.7-0.2,1.1-0.2h6.9c0.5,0,0.9,0.4,0.8,1l-4.5,25.7h5.9c0.5,0,0.9,0.4,0.8,1l-1.4,7.8
			c-0.1,0.5-0.6,1-1.2,1h-23.4c-0.5,0-1-0.4-0.9-1l1.4-7.8c0.1-0.5,0.7-1,1.2-1H469.7z"/>
		<path class="st2" d="M534.4,433.3h-10.2c-0.5,0-0.8-0.4-0.8-1l0-5.5H516l-1.8,5.5c-0.2,0.5-0.7,1-1.2,1h-10.3
			c-0.4,0-0.6-0.2-0.6-0.5c0-0.1,0.1-0.3,0.1-0.4l11-29.6c1.9-5,5.9-6.3,11.9-6.3c6,0,9.5,1.3,9.6,6.3l0.6,29.6v0
			C535.3,432.9,534.9,433.3,534.4,433.3z M523.5,405.7c-0.4,0-0.4,0.2-0.5,0.6l-3.8,11.4h4.5l0.2-11.4c0-0.1,0-0.2,0-0.2
			C523.8,405.8,523.8,405.7,523.5,405.7z"/>
		<path class="st2" d="M582.3,406.4c-0.9,5.3-4.5,8.1-10.4,11.2c-3.9,2.1-7,3.8-8.3,5.9h14.1c0.5,0,0.9,0.3,0.9,0.8c0,0,0,0.1,0,0.1
			l-1.4,7.8c-0.1,0.5-0.7,1-1.2,1h-23.8c-0.5,0-0.8-0.3-0.8-0.8c0,0,0-0.1,0-0.1l0.9-5.4c1.3-7.7,6.3-11.6,11.6-14.8
			c6.1-3.7,6.6-3.6,6.9-5.2c0-0.1,0-0.3,0-0.4c0-0.7-0.6-1.1-3.9-1.1c-3.2,0-6.5,0.5-9.6,0.5h0c-0.4,0-0.7-0.3-0.7-0.8
			c0,0,0-0.1,0-0.1v0l1-5.6c0.1-0.5,0.6-0.8,1.1-1c3.3-1.2,7.6-2.1,12-2.1c8.7,0,11.9,3.5,11.9,8.1
			C582.5,405,582.4,405.7,582.3,406.4z"/>
		<path class="st2" d="M614.6,412.4l-0.9,5.3c-1.9,10.9-7.8,16-16.9,16c-7.6,0-11.7-3.6-11.7-11.2c0-1.5,0.1-3.1,0.4-4.9l0.9-5.3
			c1.9-10.9,7.8-16,16.9-16c7.6,0,11.7,3.6,11.7,11.2C615,409,614.9,410.6,614.6,412.4z M601.6,406.2c-1.5,0-2.6,0.7-3.5,6.2
			l-0.9,5.3c-0.3,1.6-0.4,2.8-0.4,3.7c0,2.2,0.7,2.5,1.8,2.5c1.5,0,2.6-0.7,3.5-6.2l0.9-5.3c0.3-1.6,0.4-2.8,0.4-3.7
			C603.4,406.5,602.6,406.2,601.6,406.2z"/>
		<path class="st2" d="M626,423.5l2.6-15.3l-6.2,1.9c-0.3,0.1-0.5,0.1-0.6,0.1c-0.3,0-0.4-0.2-0.4-0.6l1.5-8.3
			c0.1-0.5,0.3-0.8,0.8-1l9.5-3.4c0.4-0.1,0.7-0.2,1.1-0.2h6.9c0.5,0,0.9,0.4,0.8,1l-4.5,25.7h5.9c0.5,0,0.9,0.4,0.8,1l-1.4,7.8
			c-0.1,0.5-0.6,1-1.2,1h-23.4c-0.5,0-1-0.4-0.9-1l1.4-7.8c0.1-0.5,0.7-1,1.2-1H626z"/>
		<path class="st2" d="M680.9,397.8l-1.2,7.2c-0.1,0.5-0.5,1-1.2,1h-13.3l-1,4h2.2c9.1,0,11.6,4.5,11.6,8.8c0,10.9-6.7,15-17.1,15
			c-3.6,0-7.2-0.7-9.9-1.8c-0.4-0.1-0.9-0.4-0.9-0.8c0,0,0-0.1,0-0.1l1-5.9c0.1-0.7,0.5-1,1.1-1c0.1,0,0.1,0,0.1,0
			c2.8,0.2,6.4,0.5,7.8,0.5c3.3,0,5.7-0.4,5.7-3.9c0-1.3-0.8-2-3.5-2h-9c-0.5,0-0.9-0.3-0.9-0.9c0-0.1,0-0.2,0-0.3l4.9-19.6
			c0.1-0.5,0.6-1,1.2-1h21.5c0.5,0,0.8,0.3,0.8,0.8C680.9,397.6,680.9,397.7,680.9,397.8L680.9,397.8z"/>
	</g>
</g>
</svg>
