<?xml version="1.0" encoding="utf-8"?>
<!-- Generator: Adobe Illustrator 19.2.1, SVG Export Plug-In . SVG Version: 6.00 Build 0)  -->
<svg version="1.1" id="Capa_1" xmlns="http://www.w3.org/2000/svg" xmlns:xlink="http://www.w3.org/1999/xlink" x="0px" y="0px"
	 viewBox="0 0 716.7 852.5" style="enable-background:new 0 0 716.7 852.5;" xml:space="preserve">
<style type="text/css">
	.st0{display:none;fill:#C4122E;}
	.st1{fill:#BB741F;}
	.st2{fill:#A26416;}
	.st3{fill:#C77C22;}
	.st4{fill:#B04B1C;}
	.st5{fill:#994013;}
	.st6{fill:#BB511F;}
	.st7{fill:#B53321;}
	.st8{fill:#9E2B18;}
	.st9{fill:#C13725;}
	.st10{fill:#FFFFFE;}
</style>
<path class="st0" d="M116.1,417.6c5.4,0.1,9.7-3.9,9.8-9.5c0.1-5.4-4.3-9.6-9.7-9.6c-5.8,0-9.8,4.4-9.8,9.6
	C106.4,413.4,110.6,417.7,116.1,417.6z M70,413.1c0,1.1,0,2.3,0,3.5c0,0.2,0.3,0.5,0.5,0.5c0.7,0.1,1.4,0.2,2.1,0.3
	c2,0.2,4,0.2,5.9-0.4c4.3-1.4,5.2-6.2,2.9-8.9c-1-1.1-2.3-1.7-3.6-2.1c-0.7-0.2-1.5-0.4-2.1-0.8c-0.4-0.3-0.8-0.9-0.8-1.3
	c0-0.4,0.6-1,1-1.1c0.9-0.2,1.9-0.3,2.8-0.3c0.9,0,1.7,0.3,2.7,0.4c0-1.1,0-2.1,0-3.1c0-0.6-0.2-0.8-0.7-0.9
	c-1.9-0.3-3.9-0.6-5.9-0.2c-3.3,0.6-5.4,3.4-4.8,6.7c0.5,2.4,2.2,3.5,4.3,4.2c0.8,0.3,1.6,0.5,2.4,0.9c0.6,0.3,1.1,0.8,1,1.5
	c-0.1,0.8-0.6,1.1-1.2,1.3c-0.4,0.1-0.8,0.2-1.2,0.2C73.5,413.4,71.8,413.3,70,413.1z M101.3,403.9c0-1.5,0-2.9,0-4.3
	c0-0.2-0.3-0.6-0.5-0.7c-2.3-0.7-4.6-0.8-6.9-0.1c-3.7,1.2-6,3.8-6.5,7.7c-0.5,3.4,0.5,6.4,3.1,8.6c3.2,2.7,6.9,2.8,10.8,1.7
	c0-1.6,0-3.2,0-4.6c-1.4,0.2-2.8,0.5-4.2,0.6c-2.3,0.1-4.5-1.8-4.7-3.9c-0.4-2.9,1-5.2,3.6-5.8C97.8,402.7,99.5,403.1,101.3,403.9z
	 M52.4,412.4c-1.5,0.2-2.9,0.5-4.3,0.5c-3,0.1-5.3-3-4.7-5.9c0.7-3.3,3.6-4.4,6.3-3.9c0.9,0.1,1.7,0.5,2.7,0.7c0-1.5,0-2.9,0-4.3
	c0-0.2-0.3-0.5-0.6-0.6c-1.7-0.5-3.5-0.6-5.3-0.4c-5.9,0.8-9.5,6.3-7.8,12.3c1.7,6.1,8.2,7.8,13.3,6.2c0.1,0,0.3-0.3,0.3-0.4
	C52.4,415.1,52.4,413.7,52.4,412.4z M110,375.9c0-4.1,0-8.2,0-12.3c0-1.6-1.5-2.7-3-2.2c-1,0.3-1.6,1.3-1.6,2.7c0,7.9,0,15.8,0,23.7
	c0,0.2,0,0.4,0,0.5c0.2,1.4,1.2,2.3,2.4,2.2c1.3-0.1,2.1-1,2.1-2.5C110,384,110,379.9,110,375.9z M58.8,375.9
	C58.8,375.9,58.8,375.9,58.8,375.9c0-4.2,0-8.3,0-12.5c0-1.1-0.7-1.9-1.9-2.1c-1-0.2-2,0.4-2.4,1.3c-0.2,0.5-0.2,1.1-0.2,1.7
	c0,6.9,0,13.9,0,20.8c0,1,0,2,0,3.1c0.1,1.5,1,2.4,2.3,2.3c1.2,0,2.3-1,2.2-2.5C58.7,384,58.8,380,58.8,375.9z M63.4,417.2
	c0-6.2,0-12.2,0-18.3c-1.5,0-3,0-4.5,0c0,6.1,0,12.2,0,18.3C60.5,417.2,62,417.2,63.4,417.2z M46,378c0-1.9,0-3.7,0-5.6
	c0-1.3-0.8-2.2-2-2.4c-1-0.2-2.1,0.6-2.4,1.7c-0.1,0.6-0.2,1.2-0.2,1.8c0,3.3,0,6.6,0,9.9c0,1.4,1.1,2.6,2.3,2.6
	c1.1-0.1,2.3-0.9,2.3-2.6C46,381.6,46,379.8,46,378z M122.7,378c0-1.9,0-3.8,0-5.7c0-1.1-0.5-1.7-1.5-2.1c-0.9-0.3-1.9-0.2-2.5,0.7
	c-0.4,0.6-0.6,1.3-0.6,2c-0.1,3.4,0,6.8,0,10.1c0,0.3,0,0.6,0.1,0.9c0.2,1.2,1.3,2.1,2.4,2c1.2-0.1,2.1-1,2.1-2.3
	C122.7,381.7,122.7,379.8,122.7,378z M92.6,378c0,1.8,0,3.6,0,5.4c0,1.5,1,2.6,2.3,2.6c1.3,0,2.3-1.1,2.3-2.6c0-3.6,0-7.2,0-10.8
	c0-1.5-1-2.6-2.3-2.5c-1.3,0-2.3,1.1-2.3,2.6C92.6,374.4,92.6,376.2,92.6,378z M71.6,378C71.6,378,71.5,378,71.6,378c0-2,0-4,0-6
	c0-1.1-1.2-2-2.3-1.9c-1.1,0.1-2.1,1-2.1,2.1c0,3.9,0,7.8,0,11.7c0,0.8,0.4,1.4,1.1,1.8c1.5,0.8,3.2-0.1,3.3-1.8
	C71.6,381.9,71.6,379.9,71.6,378z M79.8,381.2c0,0.8,0,1.7,0,2.5c0,1.2,0.9,2.1,2.1,2.3c1,0.1,2.2-0.7,2.3-1.8
	c0.1-1.9,0.2-3.9,0-5.8c-0.1-1.3-1.2-2-2.5-1.8c-1.1,0.1-1.9,1.1-1.9,2.3C79.8,379.6,79.8,380.4,79.8,381.2z M33.3,381.2
	c0-0.8,0-1.6,0-2.4c0-1.4-1-2.3-2.3-2.3c-1.3,0-2.3,0.9-2.3,2.3c0,1.6,0,3.2,0,4.7c0,1.3,1.1,2.4,2.3,2.4c1.2,0,2.3-1.1,2.3-2.4
	C33.3,382.8,33.3,382,33.3,381.2z M135.5,381.1C135.5,381.1,135.5,381.1,135.5,381.1c0-0.9,0-1.8,0-2.7c-0.1-1.2-1-2-2.2-2
	c-1.2,0-2.2,0.9-2.2,2c0,1.8,0,3.5,0,5.3c0,1.2,1,2.1,2.2,2.2c1.1,0,2.2-0.9,2.2-2.1C135.5,382.9,135.5,382,135.5,381.1z M133.2,417
	C133.2,417,133.3,417,133.2,417c0.1-0.5,0.2-1,0.2-1.8c0.3,0.8,0.6,1.4,0.9,2.2c0.3-0.8,0.6-1.3,0.8-1.9c0.1,0,0.1,0,0.2,0
	c0,0.5,0,1,0,1.5c0,0,0.1,0,0.1,0c0-0.7,0-1.4,0-2.1c-0.1,0-0.2,0-0.2-0.1c-0.3,0.6-0.5,1.3-0.8,1.9c-0.3-0.7-0.6-1.3-0.8-2
	c-0.1,0-0.2,0.1-0.3,0.1C133.2,415.7,133.2,416.3,133.2,417z M132.3,414.9c-0.2,0-0.7,0-1.3,0c0.4,0.1,0.6,0.2,0.9,0.2
	c0,0.7,0,1.3,0,2c0,0,0.1,0,0.1,0C132,416.4,132.2,415.7,132.3,414.9z"/>
<g>
	<polygon class="st1" points="274.3,490.1 315,470.1 319.9,591.8 279.2,611.8 	"/>
	<polygon class="st2" points="70,493.1 110.7,473.1 315,470.1 274.3,490.1 	"/>
	<polygon class="st3" points="274.3,490.1 279.2,611.8 74.9,614.8 70,493.1 	"/>
	<polygon class="st4" points="271.5,397.1 312.2,377.1 315.7,462.3 275,482.4 	"/>
	<polygon class="st5" points="67.2,400.1 108,380.1 312.2,377.1 271.5,397.1 	"/>
	<polygon class="st6" points="271.5,397.1 275,482.4 70.7,485.4 67.2,400.1 	"/>
	<polygon class="st7" points="296.9,29.5 256.2,49.6 269.9,388.9 310.7,368.9 	"/>
	<polygon class="st8" points="296.9,29.5 92.6,32.5 51.9,52.6 256.2,49.6 	"/>
	<polygon class="st9" points="51.9,52.6 65.7,391.9 269.9,388.9 256.2,49.6 	"/>
	<polygon class="st1" points="596.6,530.8 635.2,511.7 643.5,717.1 604.9,736.2 	"/>
	<polygon class="st2" points="402.9,533.6 441.6,514.6 635.2,511.7 596.6,530.8 	"/>
	<polygon class="st3" points="596.6,530.8 604.9,736.2 411.3,739 402.9,533.6 	"/>
	<polygon class="st4" points="590.8,396 629.4,377 634.6,505 596,524.1 	"/>
	<polygon class="st5" points="397.2,398.9 435.8,379.8 629.4,377 590.8,396 	"/>
	<polygon class="st6" points="590.8,396 596,524.1 402.4,527 397.2,398.9 	"/>
	<polygon class="st7" points="582.4,172.8 621,153.7 629.8,370.8 591.2,389.9 	"/>
	<polygon class="st8" points="388.7,175.7 427.4,156.6 621,153.7 582.4,172.8 	"/>
	<polygon class="st9" points="582.4,172.8 591.2,389.9 397.5,392.7 388.7,175.7 	"/>
	<g>
		<path class="st10" d="M136.8,212.9l-1,6.1c-0.2,1-0.7,1.8-1.1,2.4l-19,30.1c-0.3,0.6-0.7,1.1-1.3,1.1h-11.7
			c-0.5,0-0.8-0.1-0.8-0.4c0-0.2,0.1-0.4,0.3-0.7l18.9-29.5h-12.6c-0.5,0-0.9-0.4-0.9-0.9c0-0.1,0-0.1,0-0.2l1.4-8.1
			c0.1-0.6,0.8-1.1,1.4-1.1h25.7c0.6,0,0.9,0.4,0.9,0.9C136.8,212.8,136.8,212.8,136.8,212.9z"/>
		<path class="st10" d="M173.6,212.9l-1,6.1c-0.2,1-0.7,1.8-1.1,2.4l-19,30.1c-0.3,0.6-0.7,1.1-1.3,1.1h-11.7
			c-0.5,0-0.8-0.1-0.8-0.4c0-0.2,0.1-0.4,0.3-0.7l18.9-29.5h-12.6c-0.5,0-0.9-0.4-0.9-0.9c0-0.1,0-0.1,0-0.2l1.4-8.1
			c0.1-0.6,0.8-1.1,1.4-1.1h25.7c0.5,0,0.9,0.4,0.9,0.9C173.6,212.8,173.6,212.8,173.6,212.9z"/>
		<path class="st10" d="M208.5,229.2l-1,6c-2.1,12.2-8.7,18-19,18c-8.5,0-13.1-4.1-13.1-12.5c0-1.6,0.2-3.5,0.5-5.4l1-6
			c2.1-12.2,8.7-18,19-18c8.5,0,13.1,4.1,13.1,12.5C209,225.4,208.9,227.2,208.5,229.2z M194,222.3c-1.6,0-2.9,0.8-4,6.9l-1,6
			c-0.3,1.8-0.4,3.1-0.4,4.1c0,2.4,0.8,2.8,2,2.8c1.6,0,2.9-0.8,4-6.9l1-6c0.3-1.8,0.4-3.1,0.4-4.1C196,222.7,195.1,222.3,194,222.3
			z"/>
	</g>
	<g>
		<path class="st10" d="M468.1,294.3l3-17.1l-6.9,2.1c-0.3,0.1-0.6,0.2-0.7,0.2c-0.4,0-0.5-0.2-0.4-0.7l1.6-9.3
			c0.1-0.5,0.4-0.9,0.9-1.1l10.7-3.8c0.4-0.2,0.8-0.3,1.3-0.3h7.7c0.6,0,1,0.5,0.9,1.1l-5.1,28.8h6.6c0.6,0,1,0.5,0.9,1.1l-1.5,8.7
			c-0.1,0.6-0.7,1.1-1.3,1.1h-26.2c-0.6,0-1.1-0.5-1-1.1l1.5-8.7c0.1-0.6,0.8-1.1,1.4-1.1H468.1z"/>
		<path class="st10" d="M528.8,278.4l-2.2,12.5c-2.1,12.3-10.2,14.9-18,14.9c-5.3,0-9-0.8-11.9-1.7c-0.7-0.2-1-0.5-1-1
			c0-0.1,0.1-0.3,0.1-0.4l1.2-6.8c0.1-0.8,0.6-1.1,1.2-1.1c0.1,0,0.2,0,0.3,0c2.5,0.3,6.9,0.8,10.1,0.8c3.6,0,4.5-0.6,5.3-4.6
			l0.1-0.3c-0.7,0.1-3.2,0.4-4.1,0.4c-7,0-12-2.7-12-9.6c0-11.3,6.4-17.6,18.1-17.6c9.1,0,13.1,5.6,13.1,11.8
			C529,276.6,528.9,277.5,528.8,278.4z M514.3,273.4c-2.9,0-3.7,3.2-3.7,6.9c0,1.8,0.8,2.3,2.1,2.3c1.2,0,2.1-0.1,2.7-0.2l0.7-4
			c0.2-0.9,0.2-1.7,0.2-2.3C516.3,273.9,515.5,273.4,514.3,273.4z"/>
	</g>
	<g>
		<path class="st9" d="M95.4,628c0.7,0.2,0.9,0.4,0.8,1l-0.5,3c-0.1,0.6-0.2,1-1.1,0.9c-1.5-0.1-4.5-0.4-6.9-0.4
			c-4.3,0-6.9,2.3-7.9,8.3l-1.1,6.5c-0.2,1.1-0.3,2.1-0.3,2.9c0,4.2,1.8,5.3,5.2,5.3c2.3,0,5.3-0.2,6.9-0.4c0.9-0.1,0.9,0.3,0.8,0.9
			l-0.5,3c-0.1,0.6-0.5,0.8-1.1,1c-0.7,0.2-3.7,0.7-7.1,0.7c-5.3,0-10.4-2.5-10.4-10.3c0-1,0.1-2.1,0.3-3.2l1.1-6.5
			c2-11.8,8.5-13.5,14.9-13.5C91.9,627.3,94.8,627.9,95.4,628z"/>
		<path class="st9" d="M118.3,636.4c0.8,0.2,1.1,0.4,1,1.2l-3.8,22c-0.1,0.5-0.6,0.9-1.1,0.9h-3.5c-0.5,0-0.8-0.4-0.7-0.9l0.2-1.3
			c-2.5,1.9-4.7,2.5-6.9,2.5c-4.1,0-7.2-2.6-7.2-7.8c0-1.3,0.2-2.7,0.3-3.5l0.5-3.1c1.1-6.9,5.4-11.1,12.6-11.1
			C112.5,635.3,115.7,635.7,118.3,636.4z M108.8,640.1c-3.8,0-5.3,2.7-5.9,6.3l-0.7,3.7c-0.3,1.5-0.3,2.3-0.3,2.8
			c0,2.5,1.3,3.2,3,3.2c1.7,0,3.5-0.7,5.5-1.9l2.4-13.9C112.2,640.2,110.4,640.1,108.8,640.1z"/>
		<path class="st9" d="M143.7,645.2l-2.5,14.4c-0.1,0.5-0.3,0.9-1.1,0.9H136c-0.5,0-0.8-0.3-0.7-0.9l2.5-14.4
			c0.2-1.1,0.3-1.9,0.3-2.7c0-1.7-0.8-2.3-2.7-2.3c-1.9,0-3.7,0.6-5.7,1.6l-3.1,17.8c-0.1,0.5-0.3,0.9-1.1,0.9h-4.1
			c-0.5,0-0.8-0.3-0.7-0.9l4.1-23.1c0.1-0.5,0.4-0.9,1.2-0.9h3.5c0.6,0,1,0.1,0.8,0.9l-0.2,0.9c2.8-1.6,5.2-2.1,7.3-2.1
			c4.8,0,6.4,2.9,6.4,6.6C144,642.9,143.9,644,143.7,645.2z"/>
		<path class="st9" d="M160.1,630.4c0.6-0.1,0.9,0.3,0.8,0.7l-0.8,4.6h4c0.5,0,0.9,0.1,0.8,0.9l-0.4,2.6c-0.1,0.6-0.4,0.9-1.1,0.9
			h-4l-2.4,13.9c-0.1,0.7-0.2,1.2-0.2,1.5c0,0.8,0.4,0.9,1.5,0.9h2.3c0.4,0,0.9,0,0.8,0.7l-0.5,2.8c-0.1,0.4-0.4,0.7-1,0.8
			c-1.1,0.2-2.1,0.3-3.1,0.3c-3.9,0-6-1.3-6-4.9c0-0.7,0.1-1.4,0.2-2.2l2.4-13.9l-4.1-0.6c-0.6-0.1-0.8-0.4-0.7-0.9l0.4-2
			c0.1-0.5,0.3-0.9,1-0.9h4.2l0.7-3.6c0.1-0.5,0.5-0.8,1-0.9L160.1,630.4z"/>
		<path class="st9" d="M174.1,635.6c0.5,0,0.9,0.2,0.8,0.9l-4.1,23.1c-0.1,0.5-0.3,0.9-1.1,0.9h-4.1c-0.5,0-0.8-0.4-0.7-0.9
			l4.1-23.1c0.1-0.5,0.4-0.9,1-0.9H174.1z M175.8,626.6c0.5,0,0.8,0.3,0.8,0.9l-0.7,3.9c-0.1,0.5-0.5,0.9-1,0.9h-4.3
			c-0.5,0-0.9-0.4-0.8-0.9l0.7-3.9c0.1-0.5,0.4-0.9,1.1-0.9H175.8z"/>
		<path class="st9" d="M201.3,626.9c0.5,0,0.9,0.2,0.8,0.9l-5.4,30.8c-0.1,0.7-0.4,0.9-1.4,1.2c-2.9,0.7-6.2,1.1-9.1,1.1
			c-6.1,0-8.8-3.8-8.8-8.7c0-0.8,0.1-1.6,0.2-2.4l0.6-3.4c1.3-8,5.4-11.1,12.6-11.1c1.1,0,2.6,0.1,4.2,0.3l1.4-7.8
			c0.1-0.5,0.3-0.9,1-0.9H201.3z M189.8,640.1c-3.8,0-5.2,2-5.9,6.3l-0.6,3.4c-0.2,1.1-0.3,1.9-0.3,2.7c0,2.4,1,3.6,3.9,3.6
			c1.6,0,3.4-0.1,4.3-0.3l2.7-15.4C192.8,640.2,190.9,640.1,189.8,640.1z"/>
		<path class="st9" d="M224.5,636.4c0.8,0.2,1.1,0.4,1,1.2l-3.8,22c-0.1,0.5-0.6,0.9-1.1,0.9h-3.5c-0.5,0-0.8-0.4-0.7-0.9l0.2-1.3
			c-2.5,1.9-4.7,2.5-6.9,2.5c-4.1,0-7.2-2.6-7.2-7.8c0-1.3,0.2-2.7,0.3-3.5l0.5-3.1c1.2-6.9,5.4-11.1,12.6-11.1
			C218.7,635.3,221.9,635.7,224.5,636.4z M215,640.1c-3.8,0-5.3,2.7-5.9,6.3l-0.7,3.7c-0.3,1.5-0.3,2.3-0.3,2.8c0,2.5,1.3,3.2,3,3.2
			c1.7,0,3.5-0.7,5.5-1.9l2.4-13.9C218.4,640.2,216.6,640.1,215,640.1z"/>
		<path class="st9" d="M251.6,626.9c0.5,0,0.9,0.2,0.8,0.9l-5.4,30.8c-0.1,0.7-0.4,0.9-1.4,1.2c-2.9,0.7-6.2,1.1-9.1,1.1
			c-6.1,0-8.8-3.8-8.8-8.7c0-0.8,0.1-1.6,0.2-2.4l0.6-3.4c1.3-8,5.4-11.1,12.6-11.1c1.1,0,2.6,0.1,4.2,0.3l1.4-7.8
			c0.1-0.5,0.3-0.9,1-0.9H251.6z M240.1,640.1c-3.8,0-5.2,2-5.9,6.3l-0.6,3.4c-0.2,1.1-0.3,1.9-0.3,2.7c0,2.4,1,3.6,3.9,3.6
			c1.6,0,3.4-0.1,4.3-0.3l2.7-15.4C243.1,640.2,241.2,640.1,240.1,640.1z"/>
		<path class="st9" d="M289,626.9c0.5,0,0.9,0.2,0.8,0.9l-5.4,30.8c-0.1,0.7-0.4,0.9-1.4,1.2c-2.9,0.7-6.2,1.1-9.1,1.1
			c-6.1,0-8.8-3.8-8.8-8.7c0-0.8,0.1-1.6,0.2-2.4l0.6-3.4c1.3-8,5.4-11.1,12.6-11.1c1.1,0,2.6,0.1,4.2,0.3l1.4-7.8
			c0.1-0.5,0.3-0.9,1-0.9H289z M277.5,640.1c-3.8,0-5.2,2-5.9,6.3l-0.6,3.4c-0.2,1.1-0.3,1.9-0.3,2.7c0,2.4,1,3.6,3.9,3.6
			c1.6,0,3.4-0.1,4.3-0.3l2.7-15.4C280.4,640.2,278.5,640.1,277.5,640.1z"/>
		<path class="st9" d="M312.4,646.9l-0.4,2.1c-0.1,0.7-0.4,1.1-1.1,1.1h-14.4c-0.1,0.6-0.2,1.2-0.2,1.8c0,2.4,1.2,4,4.5,4
			c3.2,0,6.3-0.3,8.2-0.5c0.6,0,0.9,0.1,0.8,0.7l-0.5,2.9c-0.1,0.7-0.3,1-1.1,1.2c-3,0.5-4.9,0.8-8.9,0.8c-3.9,0-8.7-2.2-8.7-8.9
			c0-0.8,0-1.7,0.2-2.7l0.5-2.7c1.5-8.3,5.8-11.3,12.6-11.3c5.9,0,8.7,3.9,8.7,9.1C312.7,645.1,312.6,646,312.4,646.9z M303.1,640.3
			c-3.5,0-5.2,2.4-5.7,5.6h9.4c0.1-0.6,0.2-1.1,0.2-1.7C306.9,641.7,305.5,640.3,303.1,640.3z"/>
	</g>
	<g>
		<path class="st9" d="M104.3,671.4c0.5,0,0.9,0.2,0.8,0.9l-4.1,23.1c-0.1,0.5-0.3,0.9-1.1,0.9h-4.1c-0.5,0-0.8-0.4-0.7-0.9
			l4.1-23.1c0.1-0.5,0.4-0.9,1-0.9H104.3z M106,662.4c0.5,0,0.8,0.3,0.8,0.9l-0.7,3.9c-0.1,0.5-0.5,0.9-1,0.9h-4.3
			c-0.5,0-0.9-0.4-0.8-0.9l0.7-3.9c0.1-0.5,0.4-0.9,1.1-0.9H106z"/>
		<path class="st9" d="M129.8,681l-2.5,14.4c-0.1,0.5-0.3,0.9-1.1,0.9h-4.1c-0.5,0-0.8-0.3-0.7-0.9l2.5-14.4
			c0.2-1.1,0.3-1.9,0.3-2.7c0-1.7-0.8-2.3-2.7-2.3c-1.9,0-3.7,0.6-5.7,1.6l-3.1,17.8c-0.1,0.5-0.3,0.9-1.1,0.9h-4.1
			c-0.5,0-0.8-0.3-0.7-0.9l4.1-23.1c0.1-0.5,0.4-0.9,1.2-0.9h3.5c0.6,0,1,0.1,0.8,0.9l-0.2,0.9c2.8-1.6,5.2-2.1,7.3-2.1
			c4.8,0,6.4,2.9,6.4,6.6C130.1,678.7,130,679.8,129.8,681z"/>
		<path class="st9" d="M152.3,672c0.5,0.1,0.8,0.3,0.6,1l-0.4,2.5c-0.1,0.6-0.3,0.9-1,0.8c-1.2-0.2-4.5-0.5-7-0.5
			c-1.6,0-3.4,0.2-3.4,1.8c0,0.8,0.2,1.2,1.3,2l5.2,3.5c2.7,1.8,3.3,3.6,3.3,5.6c0,5.5-4.5,7.9-9.8,7.9c-1.5,0-5.3-0.1-8-0.9
			c-0.6-0.2-0.8-0.4-0.7-1l0.5-2.7c0.1-0.5,0.3-0.8,1.1-0.7c2.1,0.3,5.7,0.5,7.1,0.5c2.2,0,3.8-0.4,3.8-2.5c0-0.7-0.4-1.4-1.5-2.1
			l-4.6-3.2c-2.5-1.7-3.6-3.4-3.6-6.3c0-5.3,5.1-6.7,9.3-6.7C147.1,671.1,149.9,671.4,152.3,672z"/>
		<path class="st9" d="M173.9,671.6c0.7,0.2,0.9,0.4,0.8,1.1l-0.5,2.9c-0.1,0.5-0.3,0.8-1,0.7c-1.4-0.2-2.8-0.3-5.7-0.3
			c-2.1,0-4.4,1.2-5.3,5.8l-0.8,4.1c-0.2,0.8-0.2,1.6-0.2,2.2c0,3,1.6,3.6,3.4,3.6c2.9,0,4.2-0.1,5.8-0.3c0.7-0.1,0.9,0.1,0.8,0.7
			l-0.5,2.9c-0.1,0.7-0.2,1-1.1,1.2c-1.1,0.3-3.1,0.6-5.8,0.6c-5,0-8.4-3.4-8.4-8.5c0-0.7,0.1-1.5,0.2-2.3l0.8-4.1
			c1.5-8.4,6.2-10.7,12-10.7C171,671.1,172.9,671.4,173.9,671.6z"/>
		<path class="st9" d="M192.3,671.9l-0.6,3.2c-0.1,0.5-0.3,0.9-1,0.9c-1.4,0-3.4,0.1-6.4,1.6l-3.1,17.8c-0.1,0.5-0.2,0.9-1.1,0.9
			H176c-0.5,0-0.8-0.3-0.7-0.9l4.1-23.1c0.1-0.5,0.4-0.9,1-0.9h3.8c0.6,0,0.9,0.2,0.8,0.9l-0.2,0.9c2.5-1.9,4.9-2.1,6.7-2.1
			c0.6,0,0.7,0.3,0.7,0.7C192.3,671.9,192.3,671.9,192.3,671.9z"/>
		<path class="st9" d="M201.2,671.4c0.5,0,0.9,0.2,0.8,0.9l-4.1,23.1c-0.1,0.5-0.3,0.9-1.1,0.9h-4.1c-0.5,0-0.8-0.4-0.7-0.9
			l4.1-23.1c0.1-0.5,0.4-0.9,1-0.9H201.2z M202.9,662.4c0.5,0,0.8,0.3,0.8,0.9l-0.7,3.9c-0.1,0.5-0.5,0.9-1,0.9h-4.3
			c-0.5,0-0.9-0.4-0.8-0.9l0.7-3.9c0.1-0.5,0.4-0.9,1.1-0.9H202.9z"/>
		<path class="st9" d="M216.9,666.2c0.6-0.1,0.9,0.3,0.8,0.7l-0.8,4.6h4c0.5,0,0.9,0.1,0.8,0.9l-0.4,2.6c-0.1,0.6-0.4,0.9-1.1,0.9
			h-4l-2.4,13.9c-0.1,0.7-0.2,1.2-0.2,1.5c0,0.8,0.4,0.9,1.5,0.9h2.3c0.4,0,0.9,0,0.8,0.7l-0.5,2.8c-0.1,0.4-0.4,0.7-1,0.8
			c-1.1,0.2-2.1,0.3-3,0.3c-3.9,0-6-1.3-6-4.9c0-0.7,0.1-1.4,0.2-2.2l2.4-13.9l-4.1-0.6c-0.6-0.1-0.8-0.4-0.7-0.9l0.4-2
			c0.1-0.5,0.3-0.9,1-0.9h4.2l0.7-3.6c0.1-0.5,0.5-0.8,1-0.9L216.9,666.2z"/>
		<path class="st9" d="M244.4,682.1l-0.7,3.6c-1.4,7.3-5.5,11-12.5,11c-6,0-8.8-4.2-8.8-8.9c0-0.7,0-1.4,0.2-2.1l0.7-3.6
			c1.3-7.2,5.6-11,12.5-11c6.1,0,8.8,4.1,8.8,8.7C244.6,680.5,244.5,681.3,244.4,682.1z M234.9,676.1c-2.7,0-5,1.6-5.8,6l-0.7,3.6
			c-0.1,0.7-0.2,1.4-0.2,1.9c0,2.6,1.3,4,3.9,4c3.1,0,5-1.9,5.7-6l0.7-3.6c0.1-0.7,0.2-1.4,0.2-1.9
			C238.7,677.5,237.5,676.1,234.9,676.1z"/>
		<path class="st9" d="M266.3,672c0.5,0.1,0.8,0.3,0.6,1l-0.4,2.5c-0.1,0.6-0.3,0.9-1,0.8c-1.2-0.2-4.5-0.5-7-0.5
			c-1.6,0-3.4,0.2-3.4,1.8c0,0.8,0.2,1.2,1.3,2l5.2,3.5c2.7,1.8,3.3,3.6,3.3,5.6c0,5.5-4.5,7.9-9.8,7.9c-1.5,0-5.3-0.1-8-0.9
			c-0.6-0.2-0.8-0.4-0.7-1l0.5-2.7c0.1-0.5,0.3-0.8,1.1-0.7c2.1,0.3,5.7,0.5,7.1,0.5c2.2,0,3.8-0.4,3.8-2.5c0-0.7-0.4-1.4-1.5-2.1
			l-4.6-3.2c-2.5-1.7-3.6-3.4-3.6-6.3c0-5.3,5.1-6.7,9.3-6.7C261.1,671.1,263.9,671.4,266.3,672z"/>
	</g>
	<g>
		<path class="st9" d="M458.4,745.9c0.7,0.2,0.9,0.4,0.8,1l-0.5,3c-0.1,0.6-0.2,1-1.1,0.9c-1.5-0.1-4.5-0.4-6.9-0.4
			c-4.3,0-6.9,2.3-7.9,8.3l-1.1,6.5c-0.2,1.1-0.3,2.1-0.3,2.9c0,4.2,1.8,5.3,5.2,5.3c2.3,0,5.3-0.2,6.9-0.4c0.9-0.1,0.9,0.3,0.8,0.9
			l-0.5,3c-0.1,0.6-0.5,0.8-1.1,1c-0.7,0.2-3.7,0.7-7.1,0.7c-5.3,0-10.4-2.5-10.4-10.3c0-1,0.1-2.1,0.3-3.2l1.1-6.5
			c2-11.8,8.5-13.5,14.9-13.5C455,745.2,457.8,745.8,458.4,745.9z"/>
		<path class="st9" d="M481.7,764.2l-0.7,3.6c-1.4,7.3-5.5,11-12.5,11c-6,0-8.8-4.2-8.8-8.9c0-0.7,0-1.4,0.2-2.1l0.7-3.6
			c1.3-7.2,5.6-11,12.5-11c6.1,0,8.8,4.1,8.8,8.7C481.9,762.6,481.8,763.4,481.7,764.2z M472.2,758.2c-2.7,0-5,1.6-5.8,6l-0.7,3.6
			c-0.1,0.7-0.2,1.4-0.2,1.9c0,2.6,1.3,4,3.9,4c3.1,0,5-1.9,5.7-6l0.7-3.6c0.1-0.7,0.2-1.4,0.2-1.9
			C476,759.6,474.8,758.2,472.2,758.2z"/>
		<path class="st9" d="M495.3,744.8c0.5,0,0.8,0.2,0.7,0.9l-5.6,31.8c-0.1,0.5-0.3,0.9-1,0.9h-4.1c-0.5,0-0.8-0.3-0.7-0.9l5.6-31.8
			c0.1-0.5,0.4-0.9,1-0.9H495.3z"/>
		<path class="st9" d="M518.9,764.8l-0.4,2.1c-0.1,0.7-0.4,1.1-1.1,1.1h-14.4c-0.1,0.6-0.2,1.2-0.2,1.8c0,2.4,1.2,4,4.5,4
			c3.2,0,6.3-0.3,8.2-0.5c0.6,0,0.9,0.1,0.8,0.7l-0.5,2.9c-0.1,0.7-0.3,1-1.1,1.2c-3,0.5-4.9,0.8-8.9,0.8c-3.9,0-8.7-2.2-8.7-8.9
			c0-0.8,0-1.7,0.2-2.7l0.5-2.7c1.5-8.3,5.8-11.3,12.6-11.3c5.9,0,8.7,3.9,8.7,9.1C519.2,763,519.1,763.9,518.9,764.8z M509.6,758.2
			c-3.5,0-5.2,2.4-5.7,5.6h9.4c0.1-0.6,0.2-1.1,0.2-1.7C513.4,759.6,512,758.2,509.6,758.2z"/>
		<path class="st9" d="M544.3,754.3c0.9,0.3,1.1,0.4,1,1.2l-4,22.8c-1.1,6.5-3.8,8.9-11.5,8.9c-4.3,0-7-0.7-8.1-1.1
			c-0.7-0.3-0.8-0.4-0.7-1.1l0.4-2.3c0.1-0.5,0.5-0.8,1-0.8c0,0,0,0,0.1,0c1.9,0.2,6.1,0.5,8.1,0.5c3.4,0,4.5-1,4.9-3.9l0-0.4
			c-1.4,0.3-2.7,0.4-4,0.4c-5.1,0-9.1-2.4-9.1-8.4c0-0.8,0-1.7,0.2-2.7l0.6-3.4c1.4-8.3,5.4-11.1,12.6-11.1
			C538.5,753.2,542,753.7,544.3,754.3z M534.8,758c-3.6,0-5.2,2.1-5.9,6.3l-0.6,3.4c-0.2,1.1-0.3,2-0.3,2.8c0,2.3,1,3.5,3.9,3.5
			c1.1,0,3-0.2,4.3-0.4l2.7-15.3C538.2,758.2,536.4,758,534.8,758z"/>
		<path class="st9" d="M556.5,753.5c0.5,0,0.9,0.2,0.8,0.9l-4.1,23.1c-0.1,0.5-0.3,0.9-1.1,0.9h-4.1c-0.5,0-0.8-0.4-0.7-0.9
			l4.1-23.1c0.1-0.5,0.4-0.9,1-0.9H556.5z M558.2,744.5c0.5,0,0.8,0.3,0.8,0.9l-0.7,3.9c-0.1,0.5-0.5,0.9-1,0.9H553
			c-0.5,0-0.9-0.4-0.8-0.9l0.7-3.9c0.1-0.5,0.4-0.9,1.1-0.9H558.2z"/>
		<path class="st9" d="M581.8,764.2l-0.7,3.6c-1.4,7.3-5.5,11-12.5,11c-6,0-8.8-4.2-8.8-8.9c0-0.7,0-1.4,0.2-2.1l0.7-3.6
			c1.3-7.2,5.6-11,12.5-11c6.1,0,8.8,4.1,8.8,8.7C582,762.6,581.9,763.4,581.8,764.2z M572.3,758.2c-2.7,0-5,1.6-5.8,6l-0.7,3.6
			c-0.1,0.7-0.2,1.4-0.2,1.9c0,2.6,1.3,4,3.9,4c3.1,0,5-1.9,5.7-6l0.7-3.6c0.1-0.7,0.2-1.4,0.2-1.9
			C576.1,759.6,574.9,758.2,572.3,758.2z"/>
		<path class="st9" d="M603.7,754.1c0.5,0.1,0.8,0.3,0.6,1l-0.4,2.5c-0.1,0.6-0.3,0.9-1,0.8c-1.2-0.2-4.5-0.5-7-0.5
			c-1.6,0-3.4,0.2-3.4,1.8c0,0.8,0.2,1.2,1.3,2l5.2,3.5c2.7,1.8,3.3,3.6,3.3,5.6c0,5.5-4.5,7.9-9.8,7.9c-1.5,0-5.3-0.1-8-0.9
			c-0.6-0.2-0.8-0.4-0.7-1l0.5-2.7c0.1-0.5,0.3-0.8,1.1-0.7c2.1,0.3,5.7,0.5,7.1,0.5c2.2,0,3.8-0.4,3.8-2.5c0-0.7-0.4-1.4-1.5-2.1
			l-4.6-3.2c-2.5-1.7-3.6-3.4-3.6-6.3c0-5.3,5.1-6.7,9.3-6.7C598.6,753.2,601.3,753.5,603.7,754.1z"/>
	</g>
	<g>
		<path class="st9" d="M418.8,800.1l-0.6,3.4c-1.3,7.7-5.4,11.1-12.5,11.1c-1.1,0-2.6-0.1-4.2-0.3l-1.4,7.8
			c-0.1,0.5-0.2,0.9-1.1,0.9h-4.1c-0.5,0-0.8-0.3-0.7-0.9l5.4-30.8c0.1-0.7,0.4-0.9,1.4-1.2c2.9-0.7,6.3-1.2,9.1-1.2
			c5.9,0,8.8,3.5,8.8,8.5C419.1,798.3,419,799.2,418.8,800.1z M409.4,793.7c-1.6,0-3.4,0.1-4.3,0.3l-2.7,15.4
			c1.2,0.2,3.1,0.3,4.2,0.3c3.8,0,5.3-2.9,5.8-6.3l0.6-3.4c0.2-1,0.3-1.9,0.3-2.6C413.3,795.1,412.3,793.7,409.4,793.7z"/>
		<path class="st9" d="M443.8,790.1c0.8,0.2,1.1,0.4,1,1.2l-3.8,22c-0.1,0.5-0.6,0.9-1.1,0.9h-3.5c-0.5,0-0.8-0.4-0.7-0.9l0.2-1.3
			c-2.5,1.9-4.7,2.5-6.9,2.5c-4.1,0-7.2-2.6-7.2-7.8c0-1.3,0.2-2.7,0.3-3.5l0.5-3.1c1.1-6.9,5.4-11.1,12.6-11.1
			C437.9,789,441.2,789.4,443.8,790.1z M434.3,793.7c-3.8,0-5.3,2.7-5.9,6.3l-0.7,3.7c-0.3,1.5-0.3,2.3-0.3,2.8c0,2.5,1.3,3.2,3,3.2
			c1.7,0,3.5-0.7,5.5-1.9l2.4-13.9C437.6,793.9,435.9,793.7,434.3,793.7z"/>
		<path class="st9" d="M463.1,789.8l-0.6,3.2c-0.1,0.5-0.3,0.9-1,0.9c-1.4,0-3.4,0.1-6.4,1.6l-3.1,17.8c-0.1,0.5-0.2,0.9-1.1,0.9
			h-4.1c-0.5,0-0.8-0.3-0.7-0.9l4.1-23.1c0.1-0.5,0.4-0.9,1-0.9h3.8c0.6,0,0.9,0.2,0.8,0.9l-0.2,0.9c2.5-1.9,4.9-2.1,6.7-2.1
			c0.6,0,0.7,0.3,0.7,0.7C463.1,789.8,463.1,789.8,463.1,789.8z"/>
		<path class="st9" d="M476,784.1c0.6-0.1,0.9,0.3,0.8,0.7l-0.8,4.6h4c0.5,0,0.9,0.1,0.8,0.9l-0.4,2.6c-0.1,0.6-0.4,0.9-1.1,0.9h-4
			l-2.4,13.9c-0.1,0.7-0.2,1.2-0.2,1.5c0,0.8,0.4,0.9,1.5,0.9h2.3c0.4,0,0.9,0,0.8,0.7l-0.5,2.8c-0.1,0.4-0.4,0.7-1,0.8
			c-1.1,0.2-2.1,0.3-3,0.3c-3.9,0-6-1.3-6-4.9c0-0.7,0.1-1.4,0.2-2.2l2.4-13.9l-4.1-0.6c-0.6-0.1-0.8-0.4-0.7-0.9l0.4-2
			c0.1-0.5,0.3-0.9,1-0.9h4.2l0.7-3.6c0.1-0.5,0.5-0.8,1-0.9L476,784.1z"/>
		<path class="st9" d="M490,789.3c0.5,0,0.9,0.2,0.8,0.9l-4.1,23.1c-0.1,0.5-0.3,0.9-1.1,0.9h-4.1c-0.5,0-0.8-0.4-0.7-0.9l4.1-23.1
			c0.1-0.5,0.4-0.9,1-0.9H490z M491.7,780.3c0.5,0,0.8,0.3,0.8,0.9l-0.7,3.9c-0.1,0.5-0.5,0.9-1,0.9h-4.3c-0.5,0-0.9-0.4-0.8-0.9
			l0.7-3.9c0.1-0.5,0.4-0.9,1.1-0.9H491.7z"/>
		<path class="st9" d="M511.8,789.5c0.7,0.2,0.9,0.4,0.8,1.1l-0.5,2.9c-0.1,0.5-0.3,0.8-1,0.7c-1.4-0.2-2.8-0.3-5.7-0.3
			c-2.1,0-4.4,1.2-5.3,5.8l-0.8,4.1c-0.2,0.8-0.2,1.6-0.2,2.2c0,3,1.6,3.6,3.4,3.6c2.9,0,4.2-0.1,5.8-0.3c0.7-0.1,0.9,0.1,0.8,0.7
			l-0.5,2.9c-0.1,0.7-0.2,1-1.1,1.2c-1.1,0.3-3.1,0.6-5.8,0.6c-5,0-8.4-3.4-8.4-8.5c0-0.7,0.1-1.5,0.2-2.3l0.8-4.1
			c1.5-8.4,6.2-10.7,12-10.7C508.9,789,510.8,789.3,511.8,789.5z"/>
		<path class="st9" d="M522.5,789.3c0.5,0,0.9,0.2,0.8,0.9l-4.1,23.1c-0.1,0.5-0.3,0.9-1.1,0.9h-4.1c-0.5,0-0.8-0.4-0.7-0.9
			l4.1-23.1c0.1-0.5,0.4-0.9,1-0.9H522.5z M524.2,780.3c0.5,0,0.8,0.3,0.8,0.9l-0.7,3.9c-0.1,0.5-0.5,0.9-1,0.9H519
			c-0.5,0-0.9-0.4-0.8-0.9l0.7-3.9c0.1-0.5,0.4-0.9,1.1-0.9H524.2z"/>
		<path class="st9" d="M548,800.1l-0.6,3.4c-1.3,7.7-5.4,11.1-12.5,11.1c-1.1,0-2.6-0.1-4.2-0.3l-1.4,7.8c-0.1,0.5-0.2,0.9-1.1,0.9
			h-4.1c-0.5,0-0.8-0.3-0.7-0.9l5.4-30.8c0.1-0.7,0.4-0.9,1.4-1.2c2.9-0.7,6.3-1.2,9.1-1.2c5.9,0,8.8,3.5,8.8,8.5
			C548.2,798.3,548.2,799.2,548,800.1z M538.6,793.7c-1.6,0-3.4,0.1-4.3,0.3l-2.7,15.4c1.2,0.2,3.1,0.3,4.2,0.3
			c3.8,0,5.3-2.9,5.8-6.3l0.6-3.4c0.2-1,0.3-1.9,0.3-2.6C542.4,795.1,541.5,793.7,538.6,793.7z"/>
		<path class="st9" d="M573,790.1c0.8,0.2,1.1,0.4,1,1.2l-3.8,22c-0.1,0.5-0.6,0.9-1.1,0.9h-3.5c-0.5,0-0.8-0.4-0.7-0.9l0.2-1.3
			c-2.5,1.9-4.7,2.5-6.9,2.5c-4.1,0-7.2-2.6-7.2-7.8c0-1.3,0.2-2.7,0.3-3.5l0.5-3.1c1.1-6.9,5.4-11.1,12.6-11.1
			C567.1,789,570.3,789.4,573,790.1z M563.5,793.7c-3.8,0-5.3,2.7-5.9,6.3l-0.7,3.7c-0.3,1.5-0.3,2.3-0.3,2.8c0,2.5,1.3,3.2,3,3.2
			c1.7,0,3.5-0.7,5.5-1.9l2.4-13.9C566.8,793.9,565,793.7,563.5,793.7z"/>
		<path class="st9" d="M598.3,798.9l-2.5,14.4c-0.1,0.5-0.3,0.9-1.1,0.9h-4.1c-0.5,0-0.8-0.3-0.7-0.9l2.5-14.4
			c0.2-1.1,0.3-1.9,0.3-2.7c0-1.7-0.8-2.3-2.7-2.3c-1.9,0-3.7,0.6-5.7,1.6l-3.1,17.8c-0.1,0.5-0.3,0.9-1.1,0.9h-4.1
			c-0.5,0-0.8-0.3-0.7-0.9l4.1-23.1c0.1-0.5,0.4-0.9,1.2-0.9h3.5c0.6,0,1,0.1,0.8,0.9l-0.2,0.9c2.8-1.6,5.2-2.1,7.3-2.1
			c4.8,0,6.4,2.9,6.4,6.6C598.6,796.6,598.6,797.7,598.3,798.9z"/>
		<path class="st9" d="M614.7,784.1c0.6-0.1,0.9,0.3,0.8,0.7l-0.8,4.6h4c0.5,0,0.9,0.1,0.8,0.9l-0.4,2.6c-0.1,0.6-0.4,0.9-1.1,0.9
			h-4l-2.4,13.9c-0.1,0.7-0.2,1.2-0.2,1.5c0,0.8,0.4,0.9,1.5,0.9h2.3c0.4,0,0.9,0,0.8,0.7l-0.5,2.8c-0.1,0.4-0.4,0.7-1,0.8
			c-1.1,0.2-2.1,0.3-3,0.3c-3.9,0-6-1.3-6-4.9c0-0.7,0.1-1.4,0.2-2.2l2.4-13.9L604,793c-0.6-0.1-0.8-0.4-0.7-0.9l0.4-2
			c0.1-0.5,0.3-0.9,1-0.9h4.2l0.7-3.6c0.1-0.5,0.5-0.8,1-0.9L614.7,784.1z"/>
		<path class="st9" d="M642.1,800.5l-0.4,2.1c-0.1,0.7-0.4,1.1-1.1,1.1h-14.4c-0.1,0.6-0.2,1.2-0.2,1.8c0,2.4,1.2,4,4.5,4
			c3.2,0,6.3-0.3,8.2-0.5c0.6,0,0.9,0.1,0.8,0.7l-0.5,2.9c-0.1,0.7-0.3,1-1.1,1.2c-3,0.5-4.9,0.8-8.9,0.8c-3.9,0-8.7-2.2-8.7-8.9
			c0-0.8,0-1.7,0.2-2.7l0.5-2.7c1.5-8.3,5.8-11.3,12.6-11.3c5.9,0,8.7,3.9,8.7,9.1C642.3,798.8,642.2,799.7,642.1,800.5z M632.7,794
			c-3.5,0-5.2,2.4-5.7,5.6h9.4c0.1-0.6,0.2-1.1,0.2-1.7C636.5,795.4,635.2,794,632.7,794z"/>
		<path class="st9" d="M664.1,789.9c0.5,0.1,0.8,0.3,0.6,1l-0.4,2.5c-0.1,0.6-0.3,0.9-1,0.8c-1.2-0.2-4.5-0.5-7-0.5
			c-1.6,0-3.4,0.2-3.4,1.8c0,0.8,0.2,1.2,1.3,2l5.2,3.5c2.7,1.8,3.3,3.6,3.3,5.6c0,5.5-4.5,7.9-9.8,7.9c-1.5,0-5.3-0.1-8-0.9
			c-0.6-0.2-0.8-0.4-0.7-1l0.5-2.7c0.1-0.5,0.3-0.8,1.1-0.7c2.1,0.3,5.7,0.5,7.1,0.5c2.2,0,3.8-0.4,3.8-2.5c0-0.7-0.4-1.4-1.5-2.1
			l-4.6-3.2c-2.5-1.7-3.6-3.4-3.6-6.3c0-5.3,5.1-6.7,9.3-6.7C659,789,661.7,789.3,664.1,789.9z"/>
	</g>
	<g>
		<path class="st10" d="M481.2,469.1l3-17.1l-6.9,2.1c-0.3,0.1-0.6,0.2-0.7,0.2c-0.4,0-0.5-0.2-0.4-0.7l1.6-9.3
			c0.1-0.5,0.4-0.9,0.9-1.1l10.7-3.8c0.4-0.2,0.8-0.3,1.3-0.3h7.7c0.6,0,1,0.5,0.9,1.1l-5.1,28.8h6.7c0.6,0,1,0.5,0.9,1.1l-1.5,8.7
			c-0.1,0.6-0.7,1.1-1.3,1.1h-26.2c-0.6,0-1.1-0.5-1-1.1l1.5-8.7c0.1-0.6,0.8-1.1,1.4-1.1H481.2z"/>
		<path class="st10" d="M535.8,459.3c2.6,1.9,3.7,4.6,3.7,7.1c0,10.8-8.4,14.1-17.7,14.1c-4.7,0-10.5-1.2-12.6-2.3
			c-0.4-0.2-0.9-0.4-0.9-0.9c0-0.1,0-0.1,0-0.2l1.1-6.4c0.1-0.6,0.7-1.1,1.3-1.1h0.1c2.9,0,8.1,0.5,11.8,0.5c2.6,0,4.6-1,4.6-3.8
			c0-1.3-0.7-2.4-2.7-2.4h-9.5c-0.6,0-0.9-0.4-0.9-0.9c0-0.1,0-0.1,0-0.2l1.3-7.1c0.1-0.6,0.7-1.1,1.3-1.1h8.8
			c2.4,0,4.5-1.2,4.5-3.8c0-1.4-1-2.1-3.5-2.1c-3.7,0-8.6,0.6-11.6,0.6h-0.1c-0.5,0-0.9-0.4-0.9-0.9c0-0.1,0-0.1,0-0.2v-0.1l1.1-6.4
			c0.1-0.6,0.8-0.8,1.4-1.1c2.5-1,8.2-2.3,13-2.3c8.8,0,13.6,3,13.6,9.1C542.7,453.3,540.6,456.5,535.8,459.3z"/>
	</g>
	<g>
		<path class="st10" d="M505.9,621.5c-1,5.9-5.1,9.1-11.7,12.6c-4.4,2.3-7.9,4.2-9.3,6.6h15.8c0.6,0,1,0.4,1,0.9c0,0.1,0,0.1,0,0.2
			l-1.5,8.7c-0.1,0.6-0.8,1.1-1.4,1.1h-26.7c-0.6,0-0.9-0.4-0.9-0.9c0-0.1,0-0.1,0-0.2l1-6c1.5-8.6,7.1-13,13-16.5
			c6.8-4.1,7.4-4,7.8-5.8c0-0.2,0.1-0.3,0.1-0.4c0-0.8-0.7-1.2-4.3-1.2c-3.6,0-7.3,0.6-10.7,0.6h-0.1c-0.5,0-0.8-0.4-0.8-0.9
			c0-0.1,0-0.1,0-0.2v-0.1l1.1-6.3c0.1-0.6,0.7-0.9,1.3-1.1c3.7-1.3,8.5-2.3,13.5-2.3c9.7,0,13.3,4,13.3,9.1
			C506.1,620,506,620.7,505.9,621.5z"/>
		<path class="st10" d="M542.1,628.2l-1,6c-2.1,12.2-8.7,18-19,18c-8.5,0-13.1-4.1-13.1-12.5c0-1.6,0.2-3.5,0.5-5.4l1-6
			c2.1-12.2,8.7-18,19-18c8.5,0,13.1,4.1,13.1,12.5C542.6,624.4,542.4,626.2,542.1,628.2z M527.5,621.2c-1.6,0-2.9,0.8-4,6.9l-1,6
			c-0.3,1.8-0.4,3.1-0.4,4.1c0,2.4,0.8,2.8,2,2.8c1.6,0,2.9-0.8,4-6.9l1-6c0.3-1.8,0.4-3.1,0.4-4.1
			C529.5,621.6,528.7,621.2,527.5,621.2z"/>
	</g>
	<g>
		<path class="st10" d="M152.8,426.7c-1,5.9-5.1,9.1-11.7,12.6c-4.4,2.3-7.9,4.2-9.3,6.6h15.8c0.5,0,1,0.4,1,0.9c0,0.1,0,0.1,0,0.2
			l-1.5,8.7c-0.1,0.6-0.8,1.1-1.4,1.1h-26.7c-0.5,0-0.9-0.4-0.9-0.9c0-0.1,0-0.1,0-0.2l1-6c1.5-8.6,7.1-13,13-16.5
			c6.8-4.1,7.4-4,7.7-5.8c0-0.2,0.1-0.3,0.1-0.4c0-0.8-0.7-1.2-4.3-1.2c-3.6,0-7.3,0.6-10.7,0.6h-0.1c-0.5,0-0.8-0.4-0.8-0.9
			c0-0.1,0-0.1,0-0.2v-0.1l1.1-6.3c0.1-0.6,0.7-0.9,1.3-1.1c3.7-1.3,8.5-2.3,13.5-2.3c9.7,0,13.3,4,13.3,9.1
			C153,425.2,152.9,425.9,152.8,426.7z"/>
		<path class="st10" d="M188.9,433.4l-1,6c-2.1,12.2-8.7,18-19,18c-8.5,0-13.1-4.1-13.1-12.5c0-1.6,0.2-3.5,0.5-5.4l1-6
			c2.1-12.2,8.7-18,19-18c8.5,0,13.1,4.1,13.1,12.5C189.4,429.6,189.3,431.4,188.9,433.4z M174.4,426.5c-1.6,0-2.9,0.8-4,6.9l-1,6
			c-0.3,1.8-0.4,3.1-0.4,4.1c0,2.4,0.8,2.8,2,2.8c1.6,0,2.9-0.8,4-6.9l1-6c0.3-1.8,0.4-3.1,0.4-4.1
			C176.3,426.9,175.5,426.5,174.4,426.5z"/>
		<path class="st10" d="M226.4,417.1l-1.4,8.1c-0.1,0.6-0.6,1.1-1.3,1.1h-15l-1.2,4.5h2.5c10.2,0,13,5,13,9.9
			c0,12.3-7.5,16.8-19.1,16.8c-4.1,0-8-0.8-11-2c-0.4-0.2-1-0.4-1-0.9c0-0.1,0-0.1,0-0.2l1.2-6.6c0.2-0.8,0.6-1.1,1.2-1.1
			c0.1,0,0.1,0,0.2,0c3.1,0.3,7.2,0.5,8.8,0.5c3.7,0,6.4-0.4,6.4-4.4c0-1.5-0.9-2.3-4-2.3h-10.1c-0.6,0-1-0.4-1-1
			c0-0.1,0-0.2,0.1-0.3l5.5-22c0.2-0.6,0.7-1.1,1.3-1.1h24.1c0.6,0,0.9,0.4,0.9,0.9C226.4,416.9,226.4,417,226.4,417.1L226.4,417.1z
			"/>
	</g>
	<g>
		<path class="st10" d="M152.8,538.3c-1,5.9-5.1,9.1-11.7,12.6c-4.4,2.3-7.9,4.2-9.3,6.6h15.8c0.5,0,1,0.4,1,0.9c0,0.1,0,0.1,0,0.2
			l-1.5,8.7c-0.1,0.6-0.8,1.1-1.4,1.1h-26.7c-0.5,0-0.9-0.4-0.9-0.9c0-0.1,0-0.1,0-0.2l1-6c1.5-8.6,7.1-13,13-16.5
			c6.8-4.1,7.4-4,7.7-5.8c0-0.2,0.1-0.3,0.1-0.4c0-0.8-0.7-1.2-4.3-1.2c-3.6,0-7.3,0.6-10.7,0.6h-0.1c-0.5,0-0.8-0.4-0.8-0.9
			c0-0.1,0-0.1,0-0.2v-0.1l1.1-6.3c0.1-0.6,0.7-0.9,1.3-1.1c3.7-1.3,8.5-2.3,13.5-2.3c9.7,0,13.3,4,13.3,9.1
			C153,536.8,152.9,537.5,152.8,538.3z"/>
		<path class="st10" d="M188.8,541.5l-2.2,12.5c-2.1,12.3-10.2,14.9-18,14.9c-5.3,0-9-0.8-11.9-1.7c-0.7-0.2-1-0.5-1-1
			c0-0.1,0.1-0.3,0.1-0.4l1.2-6.8c0.1-0.8,0.6-1.1,1.2-1.1c0.1,0,0.2,0,0.3,0c2.5,0.3,6.9,0.8,10.1,0.8c3.6,0,4.5-0.6,5.3-4.6
			l0.1-0.3c-0.7,0.1-3.2,0.4-4.1,0.4c-7,0-12-2.7-12-9.6c0-11.3,6.4-17.6,18.1-17.6c9.1,0,13.1,5.6,13.1,11.8
			C189,539.7,188.9,540.6,188.8,541.5z M174.2,536.5c-2.9,0-3.7,3.2-3.7,6.9c0,1.8,0.8,2.3,2.1,2.3c1.2,0,2.1-0.1,2.7-0.2l0.7-4
			c0.2-0.9,0.2-1.7,0.2-2.3C176.3,537,175.5,536.5,174.2,536.5z"/>
		<path class="st10" d="M226.4,528.6l-1.4,8.1c-0.1,0.6-0.6,1.1-1.3,1.1h-15l-1.2,4.5h2.5c10.2,0,13,5,13,9.9
			c0,12.3-7.5,16.8-19.1,16.8c-4.1,0-8-0.8-11-2c-0.4-0.2-1-0.4-1-0.9c0-0.1,0-0.1,0-0.2l1.2-6.6c0.2-0.8,0.6-1.1,1.2-1.1
			c0.1,0,0.1,0,0.2,0c3.1,0.3,7.2,0.5,8.8,0.5c3.7,0,6.4-0.4,6.4-4.4c0-1.5-0.9-2.3-4-2.3h-10.1c-0.6,0-1-0.4-1-1
			c0-0.1,0-0.2,0.1-0.3l5.5-22c0.2-0.6,0.7-1.1,1.3-1.1h24.1c0.6,0,0.9,0.4,0.9,0.9C226.4,528.5,226.4,528.5,226.4,528.6
			L226.4,528.6z"/>
	</g>
</g>
</svg>
