<?xml version="1.0" encoding="utf-8"?>
<!-- Generator: Adobe Illustrator 19.2.1, SVG Export Plug-In . SVG Version: 6.00 Build 0)  -->
<svg version="1.1" id="Capa_1" xmlns="http://www.w3.org/2000/svg" xmlns:xlink="http://www.w3.org/1999/xlink" x="0px" y="0px"
	 viewBox="0 0 716.7 355.3" style="enable-background:new 0 0 716.7 355.3;" xml:space="preserve">
<style type="text/css">
	.st0{display:none;fill:#C4122E;}
	.st1{fill:#FF9C00;}
	.st2{fill:#7C00C8;}
	.st3{fill:#FFFFFE;}
	.st4{fill:#F000A6;}
</style>
<path class="st0" d="M116.1,169c5.4,0.1,9.7-3.9,9.8-9.5c0.1-5.4-4.3-9.6-9.7-9.6c-5.8,0-9.8,4.4-9.8,9.6
	C106.4,164.8,110.6,169.1,116.1,169z M70,164.5c0,1.1,0,2.3,0,3.5c0,0.2,0.3,0.5,0.5,0.5c0.7,0.1,1.4,0.2,2.1,0.3
	c2,0.2,4,0.2,5.9-0.4c4.3-1.4,5.2-6.2,2.9-8.9c-1-1.1-2.3-1.7-3.6-2.1c-0.7-0.2-1.5-0.4-2.1-0.8c-0.4-0.3-0.8-0.9-0.8-1.3
	c0-0.4,0.6-1,1-1.1c0.9-0.2,1.9-0.3,2.8-0.3c0.9,0,1.7,0.3,2.7,0.4c0-1.1,0-2.1,0-3.1c0-0.6-0.2-0.8-0.7-0.9
	c-1.9-0.3-3.9-0.6-5.9-0.2c-3.3,0.6-5.4,3.4-4.8,6.7c0.5,2.4,2.2,3.5,4.3,4.2c0.8,0.3,1.6,0.5,2.4,0.9c0.6,0.3,1.1,0.8,1,1.5
	c-0.1,0.8-0.6,1.1-1.2,1.3c-0.4,0.1-0.8,0.2-1.2,0.2C73.5,164.8,71.8,164.7,70,164.5z M101.3,155.3c0-1.5,0-2.9,0-4.3
	c0-0.2-0.3-0.6-0.5-0.7c-2.3-0.7-4.6-0.8-6.9-0.1c-3.7,1.2-6,3.8-6.5,7.7c-0.5,3.4,0.5,6.4,3.1,8.6c3.2,2.7,6.9,2.8,10.8,1.7
	c0-1.6,0-3.2,0-4.6c-1.4,0.2-2.8,0.5-4.2,0.6c-2.3,0.1-4.5-1.8-4.7-3.9c-0.4-2.9,1-5.2,3.6-5.8C97.8,154.1,99.5,154.5,101.3,155.3z
	 M52.4,163.8c-1.5,0.2-2.9,0.5-4.3,0.5c-3,0.1-5.3-3-4.7-5.9c0.7-3.3,3.6-4.4,6.3-3.9c0.9,0.1,1.7,0.5,2.7,0.7c0-1.5,0-2.9,0-4.3
	c0-0.2-0.3-0.5-0.6-0.6c-1.7-0.5-3.5-0.6-5.3-0.4c-5.9,0.8-9.5,6.3-7.8,12.3c1.7,6.1,8.2,7.8,13.3,6.2c0.1,0,0.3-0.3,0.3-0.4
	C52.4,166.5,52.4,165.1,52.4,163.8z M110,127.3c0-4.1,0-8.2,0-12.3c0-1.6-1.5-2.7-3-2.2c-1,0.3-1.6,1.3-1.6,2.7c0,7.9,0,15.8,0,23.7
	c0,0.2,0,0.4,0,0.5c0.2,1.4,1.2,2.3,2.4,2.2c1.3-0.1,2.1-1,2.1-2.5C110,135.4,110,131.3,110,127.3z M58.8,127.3
	C58.8,127.3,58.8,127.3,58.8,127.3c0-4.2,0-8.3,0-12.5c0-1.1-0.7-1.9-1.9-2.1c-1-0.2-2,0.4-2.4,1.3c-0.2,0.5-0.2,1.1-0.2,1.7
	c0,6.9,0,13.9,0,20.8c0,1,0,2,0,3.1c0.1,1.5,1,2.4,2.3,2.3c1.2,0,2.3-1,2.2-2.5C58.7,135.4,58.8,131.4,58.8,127.3z M63.4,168.6
	c0-6.2,0-12.2,0-18.3c-1.5,0-3,0-4.5,0c0,6.1,0,12.2,0,18.3C60.5,168.6,62,168.6,63.4,168.6z M46,129.4c0-1.9,0-3.7,0-5.6
	c0-1.3-0.8-2.2-2-2.4c-1-0.2-2.1,0.6-2.4,1.7c-0.1,0.6-0.2,1.2-0.2,1.8c0,3.3,0,6.6,0,9.9c0,1.4,1.1,2.6,2.3,2.6
	c1.1-0.1,2.3-0.9,2.3-2.6C46,133,46,131.2,46,129.4z M122.7,129.4c0-1.9,0-3.8,0-5.7c0-1.1-0.5-1.7-1.5-2.1
	c-0.9-0.3-1.9-0.2-2.5,0.7c-0.4,0.6-0.6,1.3-0.6,2c-0.1,3.4,0,6.8,0,10.1c0,0.3,0,0.6,0.1,0.9c0.2,1.2,1.3,2.1,2.4,2
	c1.2-0.1,2.1-1,2.1-2.3C122.7,133.1,122.7,131.2,122.7,129.4z M92.6,129.4c0,1.8,0,3.6,0,5.4c0,1.5,1,2.6,2.3,2.6
	c1.3,0,2.3-1.1,2.3-2.6c0-3.6,0-7.2,0-10.8c0-1.5-1-2.6-2.3-2.5c-1.3,0-2.3,1.1-2.3,2.6C92.6,125.8,92.6,127.6,92.6,129.4z
	 M71.6,129.4C71.6,129.4,71.5,129.4,71.6,129.4c0-2,0-4,0-6c0-1.1-1.2-2-2.3-1.9c-1.1,0.1-2.1,1-2.1,2.1c0,3.9,0,7.8,0,11.7
	c0,0.8,0.4,1.4,1.1,1.8c1.5,0.8,3.2-0.1,3.3-1.8C71.6,133.3,71.6,131.3,71.6,129.4z M79.8,132.6c0,0.8,0,1.7,0,2.5
	c0,1.2,0.9,2.1,2.1,2.3c1,0.1,2.2-0.7,2.3-1.8c0.1-1.9,0.2-3.9,0-5.8c-0.1-1.3-1.2-2-2.5-1.8c-1.1,0.1-1.9,1.1-1.9,2.3
	C79.8,131,79.8,131.8,79.8,132.6z M33.3,132.6c0-0.8,0-1.6,0-2.4c0-1.4-1-2.3-2.3-2.3c-1.3,0-2.3,0.9-2.3,2.3c0,1.6,0,3.2,0,4.7
	c0,1.3,1.1,2.4,2.3,2.4c1.2,0,2.3-1.1,2.3-2.4C33.3,134.2,33.3,133.4,33.3,132.6z M135.5,132.5C135.5,132.5,135.5,132.5,135.5,132.5
	c0-0.9,0-1.8,0-2.7c-0.1-1.2-1-2-2.2-2c-1.2,0-2.2,0.9-2.2,2c0,1.8,0,3.5,0,5.3c0,1.2,1,2.1,2.2,2.2c1.1,0,2.2-0.9,2.2-2.1
	C135.5,134.3,135.5,133.4,135.5,132.5z M133.2,168.4C133.2,168.4,133.3,168.4,133.2,168.4c0.1-0.5,0.2-1,0.2-1.8
	c0.3,0.8,0.6,1.4,0.9,2.2c0.3-0.8,0.6-1.3,0.8-1.9c0.1,0,0.1,0,0.2,0c0,0.5,0,1,0,1.5c0,0,0.1,0,0.1,0c0-0.7,0-1.4,0-2.1
	c-0.1,0-0.2,0-0.2-0.1c-0.3,0.6-0.5,1.3-0.8,1.9c-0.3-0.7-0.6-1.3-0.8-2c-0.1,0-0.2,0.1-0.3,0.1
	C133.2,167.1,133.2,167.8,133.2,168.4z M132.3,166.3c-0.2,0-0.7,0-1.3,0c0.4,0.1,0.6,0.2,0.9,0.2c0,0.7,0,1.3,0,2c0,0,0.1,0,0.1,0
	C132,167.8,132.2,167.1,132.3,166.3z"/>
<g>
	<path class="st1" d="M623.8,181.5c45.6,0,82.5-36.9,82.5-82.5c0-45.6-36.9-82.5-82.5-82.5c-45.6,0-82.5,36.9-82.5,82.5
		C541.3,144.6,578.3,181.5,623.8,181.5"/>
	<g>
		<g>
			<path class="st2" d="M65.3,77.3l-0.7,3.8c-0.9,5.4-4.1,8-9.6,8c-1.9,0-4.3-0.2-5.1-0.3c-0.4-0.1-0.6-0.2-0.6-0.6
				c0-0.1,0-0.1,0-0.2l3.1-17.6c0.1-0.5,0.3-0.7,0.8-0.8c0.8-0.1,3.3-0.3,5.2-0.3c4.4,0,6.9,2.3,6.9,6.2
				C65.4,76.1,65.4,76.7,65.3,77.3z M58,72.4c-1,0-1.7,0.1-2.2,0.1L53.4,86c0.5,0,1.2,0.1,2.2,0.1c2.6,0,4.9-1.2,5.5-4.9l0.7-3.8
				c0.1-0.6,0.2-1.2,0.2-1.6C61.8,73,60.3,72.4,58,72.4z"/>
			<path class="st2" d="M79.8,80.9l-0.2,1.3c-0.1,0.4-0.3,0.7-0.6,0.7h-8.5c-0.1,0.4-0.1,0.7-0.1,1.1c0,1.4,0.7,2.3,2.7,2.3
				c1.9,0,3.7-0.2,4.8-0.3c0.3,0,0.5,0.1,0.5,0.4L78,88c-0.1,0.4-0.2,0.6-0.7,0.7c-1.8,0.3-2.9,0.4-5.2,0.4c-2.3,0-5.1-1.3-5.1-5.2
				c0-0.5,0-1,0.1-1.6l0.3-1.6c0.9-4.9,3.4-6.7,7.4-6.7c3.5,0,5.1,2.3,5.1,5.4C80,79.9,79.9,80.4,79.8,80.9z M74.3,77
				c-2.1,0-3.1,1.4-3.4,3.3h5.5c0.1-0.3,0.1-0.7,0.1-1C76.6,77.8,75.8,77,74.3,77z"/>
			<path class="st2" d="M97.3,74.2c0.3,0,0.5,0.1,0.4,0.5l-2.4,13.7c-0.1,0.3-0.2,0.5-0.6,0.5h-2.4c-0.3,0-0.5-0.2-0.4-0.5l2-11.6
				h-5.4l-2.2,12.3c-0.7,3.7-2.5,4.2-5.1,4.2c-0.7,0-1.2-0.1-1.7-0.2c-0.2-0.1-0.4-0.2-0.4-0.4l0.3-1.5c0.1-0.3,0.2-0.4,0.5-0.4h1.2
				c1.3,0,1.6-0.3,1.8-1.6L85,76.8l-2.3-0.4c-0.3-0.1-0.5-0.2-0.4-0.5l0.2-1.2c0.1-0.3,0.2-0.5,0.6-0.5h2.3l0.2-1.3
				c0.7-3.7,2.5-4.2,4.8-4.2c0.9,0,1.8,0.1,2,0.2c0.3,0.1,0.4,0.1,0.4,0.4l-0.3,1.6c-0.1,0.3-0.2,0.4-0.5,0.4H91
				c-1.3,0-1.6,0.3-1.8,1.6l-0.2,1.3H97.3z M98.3,68.9c0.3,0,0.5,0.2,0.4,0.5l-0.4,2.3c-0.1,0.3-0.3,0.5-0.6,0.5h-2.5
				c-0.3,0-0.5-0.2-0.5-0.5l0.4-2.3c0.1-0.3,0.3-0.5,0.6-0.5H98.3z"/>
			<path class="st2" d="M112.3,79.9l-1.5,8.5c-0.1,0.3-0.2,0.5-0.6,0.5h-2.4c-0.3,0-0.5-0.2-0.4-0.5l1.5-8.5
				c0.1-0.7,0.2-1.1,0.2-1.6c0-1-0.4-1.4-1.6-1.4c-1.1,0-2.2,0.4-3.4,0.9l-1.9,10.5c-0.1,0.3-0.2,0.5-0.6,0.5h-2.4
				c-0.3,0-0.5-0.2-0.4-0.5l2.4-13.7c0.1-0.3,0.2-0.5,0.7-0.5h2.1c0.3,0,0.6,0.1,0.5,0.5l-0.1,0.5c1.7-1,3.1-1.3,4.3-1.3
				c2.8,0,3.8,1.7,3.8,3.9C112.5,78.6,112.5,79.2,112.3,79.9z"/>
			<path class="st2" d="M119.7,74.2c0.3,0,0.5,0.1,0.4,0.5l-2.4,13.7c-0.1,0.3-0.2,0.5-0.6,0.5h-2.4c-0.3,0-0.5-0.2-0.4-0.5
				l2.4-13.7c0.1-0.3,0.2-0.5,0.6-0.5H119.7z M120.7,68.9c0.3,0,0.5,0.2,0.4,0.5l-0.4,2.3c-0.1,0.3-0.3,0.5-0.6,0.5h-2.5
				c-0.3,0-0.5-0.2-0.5-0.5l0.4-2.3c0.1-0.3,0.3-0.5,0.6-0.5H120.7z"/>
			<path class="st2" d="M131.2,74.6l-0.3,1.9c-0.1,0.3-0.2,0.5-0.6,0.5c-0.8,0-2,0.1-3.8,0.9l-1.9,10.5c-0.1,0.3-0.1,0.5-0.6,0.5
				h-2.4c-0.3,0-0.5-0.2-0.4-0.5l2.4-13.7c0.1-0.3,0.2-0.5,0.6-0.5h2.3c0.4,0,0.5,0.1,0.4,0.5l-0.1,0.5c1.5-1.1,2.9-1.3,4-1.3
				c0.3,0,0.4,0.2,0.4,0.4C131.2,74.5,131.2,74.5,131.2,74.6z"/>
		</g>
	</g>
	<g>
		<g>
			<path class="st2" d="M43.8,102.6c0.4-0.1,0.5,0.2,0.5,0.4l-0.5,2.7h2.3c0.3,0,0.5,0.1,0.4,0.5l-0.3,1.5c-0.1,0.3-0.2,0.5-0.6,0.5
				h-2.3l-1.4,8.2c-0.1,0.4-0.1,0.7-0.1,0.9c0,0.5,0.2,0.5,0.9,0.5H44c0.3,0,0.5,0,0.5,0.4l-0.3,1.6c-0.1,0.3-0.2,0.4-0.6,0.5
				c-0.7,0.1-1.2,0.2-1.8,0.2c-2.3,0-3.6-0.8-3.6-2.9c0-0.4,0.1-0.8,0.1-1.3l1.4-8.2l-2.4-0.4c-0.4-0.1-0.5-0.2-0.4-0.5l0.2-1.2
				c0.1-0.3,0.2-0.5,0.6-0.5h2.5l0.4-2.1c0.1-0.3,0.3-0.5,0.6-0.5L43.8,102.6z"/>
			<path class="st2" d="M59.9,112.4l-0.2,1.3c-0.1,0.4-0.3,0.7-0.6,0.7h-8.5c-0.1,0.4-0.1,0.7-0.1,1.1c0,1.4,0.7,2.3,2.7,2.3
				c1.9,0,3.7-0.2,4.8-0.3c0.3,0,0.5,0.1,0.5,0.4l-0.3,1.7c-0.1,0.4-0.2,0.6-0.7,0.7c-1.8,0.3-2.9,0.4-5.2,0.4
				c-2.3,0-5.1-1.3-5.1-5.2c0-0.5,0-1,0.1-1.6l0.3-1.6c0.9-4.9,3.4-6.7,7.4-6.7c3.5,0,5.1,2.3,5.1,5.4
				C60.1,111.4,60,111.9,59.9,112.4z M54.4,108.5c-2.1,0-3.1,1.4-3.4,3.3h5.5c0.1-0.3,0.1-0.7,0.1-1
				C56.7,109.3,55.9,108.5,54.4,108.5z"/>
			<path class="st2" d="M81.9,111l-1.6,8.9c-0.1,0.3-0.1,0.5-0.6,0.5h-2.4c-0.3,0-0.5-0.2-0.4-0.5l1.6-8.9c0.1-0.5,0.1-0.9,0.1-1.2
				c0-1-0.4-1.3-1.6-1.3c-0.5,0-1.6,0.2-2.6,0.7c0,0.5,0,1.2-0.1,1.9l-1.6,8.9c-0.1,0.3-0.2,0.5-0.6,0.5h-2.4
				c-0.3,0-0.5-0.2-0.4-0.5l1.6-8.9c0.1-0.5,0.1-0.9,0.1-1.3c0-1-0.4-1.3-1.5-1.3c-0.5,0-1.4,0.3-2.6,0.9L65,119.9
				c-0.1,0.3-0.2,0.5-0.6,0.5H62c-0.3,0-0.5-0.2-0.4-0.5l2.4-13.7c0.1-0.3,0.3-0.5,0.6-0.5h2.3c0.3,0,0.5,0.2,0.4,0.5l-0.1,0.5
				c1.2-0.7,2.3-1.3,3.9-1.3c1.5,0,2.3,0.6,2.8,1.3c1.3-0.9,2.8-1.3,4.6-1.3c2.5,0,3.6,1.5,3.6,3.8C82,109.9,82,110.4,81.9,111z"/>
			<path class="st2" d="M97.5,106.9l-2.3,13c-0.1,0.3-0.3,0.5-0.6,0.5h-2.1c-0.3,0-0.4-0.2-0.4-0.4c0,0,0-0.1,0-0.1l0.1-0.8
				c-1.5,1.1-2.8,1.5-4,1.5c-2.4,0-4.3-1.6-4.3-4.7c0-0.5,0-1,0.1-1.6c0,0,0.2-1.3,0.4-2.3c0.7-4.1,3.2-6.6,7.4-6.6
				c1.7,0,3.6,0.3,5.1,0.7c0.4,0.1,0.6,0.2,0.6,0.5C97.5,106.8,97.5,106.9,97.5,106.9z M91.3,108.4c-2.2,0-3.1,1.6-3.5,3.7l-0.5,2.7
				c-0.1,0.4-0.1,0.8-0.1,1.1c0,1.5,0.8,2,1.8,2c1,0,2.1-0.4,3.3-1.1l1.4-8.2C93.3,108.4,92.3,108.4,91.3,108.4z M97.7,100.5
				l-3.7,3.2c-0.3,0.2-0.4,0.3-0.7,0.3h-2.5c-0.1,0-0.2-0.1-0.2-0.2c0-0.1,0.1-0.2,0.2-0.3l3-3.1c0.3-0.3,0.4-0.4,0.7-0.4h3
				c0.2,0,0.3,0.1,0.3,0.2C97.9,100.4,97.8,100.4,97.7,100.5z"/>
			<path class="st2" d="M106.1,102.6c0.4-0.1,0.5,0.2,0.5,0.4l-0.5,2.7h2.3c0.3,0,0.5,0.1,0.4,0.5l-0.3,1.5
				c-0.1,0.3-0.2,0.5-0.6,0.5h-2.3l-1.4,8.2c-0.1,0.4-0.1,0.7-0.1,0.9c0,0.5,0.2,0.5,0.9,0.5h1.4c0.3,0,0.5,0,0.5,0.4l-0.3,1.6
				c-0.1,0.3-0.2,0.4-0.6,0.5c-0.7,0.1-1.2,0.2-1.8,0.2c-2.3,0-3.6-0.8-3.6-2.9c0-0.4,0.1-0.8,0.1-1.3l1.4-8.2l-2.4-0.4
				c-0.4-0.1-0.5-0.2-0.4-0.5l0.2-1.2c0.1-0.3,0.2-0.5,0.6-0.5h2.5l0.4-2.1c0.1-0.3,0.3-0.5,0.6-0.5L106.1,102.6z"/>
			<path class="st2" d="M114.4,105.7c0.3,0,0.5,0.1,0.4,0.5l-2.4,13.7c-0.1,0.3-0.2,0.5-0.6,0.5h-2.4c-0.3,0-0.5-0.2-0.4-0.5
				l2.4-13.7c0.1-0.3,0.2-0.5,0.6-0.5H114.4z M115.4,100.4c0.3,0,0.5,0.2,0.4,0.5l-0.4,2.3c-0.1,0.3-0.3,0.5-0.6,0.5h-2.5
				c-0.3,0-0.5-0.2-0.5-0.5l0.4-2.3c0.1-0.3,0.3-0.5,0.6-0.5H115.4z"/>
			<path class="st2" d="M127.3,105.9c0.4,0.1,0.5,0.2,0.4,0.7l-0.3,1.7c-0.1,0.3-0.2,0.5-0.6,0.4c-0.8-0.1-1.6-0.2-3.3-0.2
				c-1.2,0-2.6,0.7-3.1,3.4l-0.4,2.4c-0.1,0.5-0.1,0.9-0.1,1.3c0,1.8,1,2.1,2,2.1c1.7,0,2.5-0.1,3.4-0.2c0.4-0.1,0.5,0.1,0.5,0.4
				l-0.3,1.7c-0.1,0.4-0.1,0.6-0.7,0.7c-0.6,0.2-1.8,0.3-3.4,0.3c-3,0-5-2-5-5c0-0.4,0.1-0.9,0.1-1.3l0.4-2.4
				c0.9-4.9,3.7-6.3,7.1-6.3C125.6,105.5,126.7,105.7,127.3,105.9z"/>
			<path class="st2" d="M141.4,106.2c0.5,0.1,0.7,0.2,0.6,0.7l-2.3,13c-0.1,0.3-0.3,0.5-0.6,0.5h-2.1c-0.3,0-0.5-0.2-0.4-0.5
				l0.1-0.8c-1.5,1.1-2.8,1.5-4,1.5c-2.4,0-4.3-1.5-4.3-4.6c0-0.8,0.1-1.6,0.2-2.1l0.3-1.9c0.7-4.1,3.2-6.6,7.4-6.6
				C137.9,105.5,139.8,105.8,141.4,106.2z M135.7,108.4c-2.2,0-3.1,1.6-3.5,3.7l-0.4,2.2c-0.2,0.9-0.2,1.4-0.2,1.7
				c0,1.5,0.8,1.9,1.8,1.9c1,0,2.1-0.4,3.3-1.1l1.4-8.2C137.7,108.4,136.7,108.4,135.7,108.4z"/>
		</g>
	</g>
	<g>
		<path class="st2" d="M50.3,196l-0.7,3.8c-0.9,5.4-4.1,8-9.6,8c-1.9,0-4.3-0.2-5.1-0.3c-0.4-0.1-0.6-0.2-0.6-0.6c0-0.1,0-0.1,0-0.2
			l3.1-17.6c0.1-0.5,0.3-0.7,0.8-0.8c0.8-0.1,3.3-0.3,5.2-0.3c4.4,0,6.9,2.3,6.9,6.2C50.4,194.8,50.4,195.4,50.3,196z M43,191.1
			c-1,0-1.7,0.1-2.2,0.1l-2.4,13.5c0.5,0,1.2,0.1,2.2,0.1c2.6,0,4.9-1.2,5.5-4.9l0.7-3.8c0.1-0.6,0.2-1.2,0.2-1.6
			C46.8,191.7,45.3,191.1,43,191.1z"/>
		<path class="st2" d="M64.8,199.5l-0.2,1.3c-0.1,0.4-0.3,0.7-0.6,0.7h-8.5c-0.1,0.4-0.1,0.7-0.1,1.1c0,1.4,0.7,2.3,2.7,2.3
			c1.9,0,3.7-0.2,4.8-0.3c0.3,0,0.5,0.1,0.5,0.4l-0.3,1.7c-0.1,0.4-0.2,0.6-0.7,0.7c-1.8,0.3-2.9,0.4-5.2,0.4
			c-2.3,0-5.1-1.3-5.1-5.2c0-0.5,0-1,0.1-1.6l0.3-1.6c0.9-4.9,3.4-6.7,7.4-6.7c3.5,0,5.1,2.3,5.1,5.4
			C64.9,198.5,64.9,199.1,64.8,199.5z M59.3,195.7c-2.1,0-3.1,1.4-3.4,3.3h5.5c0.1-0.3,0.1-0.7,0.1-1
			C61.6,196.5,60.7,195.7,59.3,195.7z"/>
		<path class="st2" d="M81.8,192.9c0.3,0,0.5,0.1,0.4,0.5l-2.4,13.7c-0.1,0.3-0.2,0.5-0.6,0.5h-2.4c-0.3,0-0.5-0.2-0.4-0.5l2-11.6
			H73l-2.2,12.3c-0.7,3.7-2.5,4.2-5.1,4.2c-0.7,0-1.2-0.1-1.7-0.2c-0.2-0.1-0.4-0.2-0.4-0.4l0.3-1.5c0.1-0.3,0.2-0.4,0.5-0.4h1.2
			c1.3,0,1.6-0.3,1.8-1.6l2.2-12.3l-2.3-0.4c-0.3-0.1-0.5-0.2-0.4-0.5l0.2-1.2c0.1-0.3,0.2-0.5,0.6-0.5H70l0.2-1.3
			c0.7-3.7,2.5-4.2,4.8-4.2c0.9,0,1.8,0.1,2,0.2c0.3,0.1,0.4,0.1,0.4,0.4l-0.3,1.6c-0.1,0.3-0.2,0.4-0.5,0.4h-1.2
			c-1.3,0-1.6,0.3-1.8,1.6l-0.2,1.3H81.8z M82.8,187.6c0.3,0,0.5,0.2,0.4,0.5l-0.4,2.3c-0.1,0.3-0.3,0.5-0.6,0.5h-2.5
			c-0.3,0-0.5-0.2-0.5-0.5l0.4-2.3c0.1-0.3,0.3-0.5,0.6-0.5H82.8z"/>
		<path class="st2" d="M96.8,198.6l-1.5,8.5c-0.1,0.3-0.2,0.5-0.6,0.5h-2.4c-0.3,0-0.5-0.2-0.4-0.5l1.5-8.5c0.1-0.7,0.2-1.1,0.2-1.6
			c0-1-0.4-1.4-1.6-1.4c-1.1,0-2.2,0.4-3.4,0.9l-1.9,10.5c-0.1,0.3-0.2,0.5-0.6,0.5h-2.4c-0.3,0-0.5-0.2-0.4-0.5l2.4-13.7
			c0.1-0.3,0.2-0.5,0.7-0.5h2.1c0.3,0,0.6,0.1,0.5,0.5l-0.1,0.5c1.7-1,3.1-1.3,4.3-1.3c2.8,0,3.8,1.7,3.8,3.9
			C97,197.2,97,197.9,96.8,198.6z"/>
		<path class="st2" d="M104.2,192.9c0.3,0,0.5,0.1,0.4,0.5l-2.4,13.7c-0.1,0.3-0.2,0.5-0.6,0.5h-2.4c-0.3,0-0.5-0.2-0.4-0.5
			l2.4-13.7c0.1-0.3,0.2-0.5,0.6-0.5H104.2z M105.2,187.6c0.3,0,0.5,0.2,0.4,0.5l-0.4,2.3c-0.1,0.3-0.3,0.5-0.6,0.5h-2.5
			c-0.3,0-0.5-0.2-0.5-0.5l0.4-2.3c0.1-0.3,0.3-0.5,0.6-0.5H105.2z"/>
		<path class="st2" d="M117.1,193c0.4,0.1,0.5,0.2,0.4,0.7l-0.3,1.7c-0.1,0.3-0.2,0.5-0.6,0.4c-0.8-0.1-1.6-0.2-3.3-0.2
			c-1.2,0-2.6,0.7-3.1,3.4l-0.4,2.4c-0.1,0.5-0.1,0.9-0.1,1.3c0,1.8,1,2.1,2,2.1c1.7,0,2.5-0.1,3.4-0.2c0.4-0.1,0.5,0.1,0.5,0.4
			l-0.3,1.7c-0.1,0.4-0.1,0.6-0.7,0.7c-0.6,0.2-1.8,0.3-3.4,0.3c-3,0-5-2-5-5c0-0.4,0.1-0.9,0.1-1.3l0.4-2.4
			c0.9-4.9,3.7-6.3,7.1-6.3C115.4,192.7,116.5,192.9,117.1,193z"/>
		<path class="st2" d="M123.4,192.9c0.3,0,0.5,0.1,0.4,0.5l-2.4,13.7c-0.1,0.3-0.2,0.5-0.6,0.5h-2.4c-0.3,0-0.5-0.2-0.4-0.5
			l2.4-13.7c0.1-0.3,0.2-0.5,0.6-0.5H123.4z M124.4,187.6c0.3,0,0.5,0.2,0.4,0.5l-0.4,2.3c-0.1,0.3-0.3,0.5-0.6,0.5h-2.5
			c-0.3,0-0.5-0.2-0.5-0.5l0.4-2.3c0.1-0.3,0.3-0.5,0.6-0.5H124.4z"/>
		<path class="st2" d="M138.4,199.2l-0.4,2.1c-0.8,4.3-3.3,6.5-7.4,6.5c-3.6,0-5.2-2.5-5.2-5.2c0-0.4,0-0.8,0.1-1.3l0.4-2.1
			c0.8-4.3,3.3-6.5,7.4-6.5c3.6,0,5.2,2.4,5.2,5.1C138.5,198.3,138.4,198.8,138.4,199.2z M132.7,195.7c-1.6,0-3,0.9-3.4,3.5
			l-0.4,2.1c-0.1,0.4-0.1,0.8-0.1,1.1c0,1.5,0.8,2.4,2.3,2.4c1.8,0,3-1.1,3.4-3.5l0.4-2.1c0.1-0.4,0.1-0.8,0.1-1.1
			C135,196.5,134.3,195.7,132.7,195.7z M138.2,187.7l-3.7,3.2c-0.3,0.2-0.4,0.3-0.7,0.3h-2.5c-0.1,0-0.2-0.1-0.2-0.2
			c0-0.1,0.1-0.2,0.2-0.3l3-3.1c0.3-0.3,0.4-0.4,0.7-0.4h3c0.2,0,0.3,0.1,0.3,0.2C138.4,187.5,138.3,187.6,138.2,187.7z"/>
		<path class="st2" d="M153.5,198.6l-1.5,8.5c-0.1,0.3-0.2,0.5-0.6,0.5H149c-0.3,0-0.5-0.2-0.4-0.5l1.5-8.5c0.1-0.7,0.2-1.1,0.2-1.6
			c0-1-0.4-1.4-1.6-1.4c-1.1,0-2.2,0.4-3.4,0.9l-1.9,10.5c-0.1,0.3-0.2,0.5-0.6,0.5h-2.4c-0.3,0-0.5-0.2-0.4-0.5l2.4-13.7
			c0.1-0.3,0.2-0.5,0.7-0.5h2.1c0.3,0,0.6,0.1,0.5,0.5l-0.1,0.5c1.7-1,3.1-1.3,4.3-1.3c2.8,0,3.8,1.7,3.8,3.9
			C153.7,197.2,153.6,197.9,153.5,198.6z"/>
	</g>
	<g>
		<path class="st2" d="M94.2,219.3c0.3,0,0.5,0.1,0.4,0.5l-3.2,18.2c-0.1,0.4-0.2,0.5-0.8,0.7c-1.7,0.4-3.7,0.7-5.4,0.7
			c-3.6,0-5.2-2.2-5.2-5.1c0-0.5,0.1-0.9,0.1-1.4l0.3-2c0.8-4.7,3.2-6.6,7.4-6.6c0.6,0,1.5,0.1,2.5,0.2l0.8-4.6
			c0.1-0.3,0.2-0.5,0.6-0.5H94.2z M87.4,227c-2.2,0-3.1,1.2-3.5,3.7l-0.3,2c-0.1,0.6-0.2,1.1-0.2,1.6c0,1.4,0.6,2.1,2.3,2.1
			c0.9,0,2-0.1,2.5-0.2l1.6-9.1C89.2,227.1,88.1,227,87.4,227z"/>
		<path class="st2" d="M108.1,231.1l-0.2,1.3c-0.1,0.4-0.3,0.7-0.6,0.7h-8.5c-0.1,0.4-0.1,0.7-0.1,1.1c0,1.4,0.7,2.3,2.7,2.3
			c1.9,0,3.7-0.2,4.8-0.3c0.3,0,0.5,0.1,0.5,0.4l-0.3,1.7c-0.1,0.4-0.2,0.6-0.7,0.7c-1.7,0.3-2.9,0.4-5.2,0.4
			c-2.3,0-5.1-1.3-5.1-5.2c0-0.5,0-1,0.1-1.6l0.3-1.6c0.9-4.9,3.4-6.7,7.4-6.7c3.5,0,5.1,2.3,5.1,5.4
			C108.2,230,108.2,230.6,108.1,231.1z M102.6,227.2c-2.1,0-3.1,1.4-3.4,3.3h5.5c0.1-0.3,0.1-0.7,0.1-1
			C104.8,228,104,227.2,102.6,227.2z"/>
	</g>
	<g>
		<path class="st2" d="M43.2,256.1c0.4,0.1,0.5,0.2,0.4,0.7l-0.3,1.7c-0.1,0.3-0.2,0.5-0.6,0.4c-0.8-0.1-1.6-0.2-3.3-0.2
			c-1.2,0-2.6,0.7-3.1,3.4l-0.4,2.4c-0.1,0.5-0.1,0.9-0.1,1.3c0,1.8,1,2.1,2,2.1c1.7,0,2.5-0.1,3.4-0.2c0.4-0.1,0.5,0.1,0.5,0.4
			l-0.3,1.7c-0.1,0.4-0.1,0.6-0.7,0.7c-0.6,0.2-1.8,0.3-3.4,0.3c-3,0-5-2-5-5c0-0.4,0.1-0.9,0.1-1.3l0.4-2.4
			c0.9-4.9,3.7-6.3,7.1-6.3C41.5,255.7,42.6,255.9,43.2,256.1z"/>
		<path class="st2" d="M57.2,256.4c0.5,0.1,0.7,0.2,0.6,0.7l-2.3,13c-0.1,0.3-0.3,0.5-0.6,0.5h-2.1c-0.3,0-0.5-0.2-0.4-0.5l0.1-0.8
			c-1.5,1.1-2.8,1.5-4,1.5c-2.4,0-4.3-1.5-4.3-4.6c0-0.8,0.1-1.6,0.2-2.1l0.3-1.9c0.7-4.1,3.2-6.6,7.4-6.6
			C53.8,255.7,55.7,256,57.2,256.4z M51.6,258.5c-2.2,0-3.1,1.6-3.5,3.7l-0.4,2.2c-0.2,0.9-0.2,1.4-0.2,1.7c0,1.5,0.8,1.9,1.8,1.9
			c1,0,2.1-0.4,3.3-1.1l1.4-8.2C53.6,258.6,52.5,258.5,51.6,258.5z"/>
		<path class="st2" d="M65.9,252.8c0.4-0.1,0.5,0.2,0.5,0.4l-0.5,2.7h2.3c0.3,0,0.5,0.1,0.4,0.5l-0.3,1.5c-0.1,0.3-0.2,0.5-0.6,0.5
			h-2.3l-1.4,8.2c-0.1,0.4-0.1,0.7-0.1,0.9c0,0.5,0.2,0.5,0.9,0.5h1.4c0.3,0,0.5,0,0.5,0.4l-0.3,1.6c-0.1,0.3-0.2,0.4-0.6,0.5
			c-0.7,0.1-1.2,0.2-1.8,0.2c-2.3,0-3.6-0.8-3.6-2.9c0-0.4,0.1-0.8,0.1-1.3l1.4-8.2l-2.4-0.4c-0.4-0.1-0.5-0.2-0.4-0.5l0.2-1.2
			c0.1-0.3,0.2-0.5,0.6-0.5h2.5l0.4-2.1c0.1-0.3,0.3-0.5,0.6-0.5L65.9,252.8z"/>
		<path class="st2" d="M81.8,262.6l-0.2,1.3c-0.1,0.4-0.3,0.7-0.6,0.7h-8.5c-0.1,0.4-0.1,0.7-0.1,1.1c0,1.4,0.7,2.3,2.7,2.3
			c1.9,0,3.7-0.2,4.8-0.3c0.3,0,0.5,0.1,0.5,0.4l-0.3,1.7c-0.1,0.4-0.2,0.6-0.7,0.7c-1.7,0.3-2.9,0.4-5.2,0.4
			c-2.3,0-5.1-1.3-5.1-5.2c0-0.5,0-1,0.1-1.6l0.3-1.6c0.9-4.9,3.4-6.7,7.4-6.7c3.5,0,5.1,2.3,5.1,5.4
			C81.9,261.5,81.9,262.1,81.8,262.6z M76.3,258.7c-2.1,0-3.1,1.4-3.4,3.3h5.5c0.1-0.3,0.1-0.7,0.1-1
			C78.5,259.5,77.7,258.7,76.3,258.7z"/>
		<path class="st2" d="M96.8,256.4c0.5,0.2,0.7,0.3,0.6,0.7L95,270.6c-0.7,3.8-2.2,5.3-6.8,5.3c-2.5,0-4.2-0.4-4.8-0.6
			c-0.4-0.2-0.5-0.3-0.4-0.6l0.3-1.4c0.1-0.3,0.3-0.4,0.6-0.4c0,0,0,0,0.1,0c1.1,0.1,3.6,0.3,4.8,0.3c2,0,2.7-0.6,2.9-2.3l0-0.2
			c-0.8,0.2-1.6,0.3-2.4,0.3c-3,0-5.4-1.4-5.4-4.9c0-0.5,0-1,0.1-1.6l0.3-2c0.8-4.9,3.2-6.6,7.4-6.6C93.4,255.7,95.4,256,96.8,256.4
			z M91.2,258.5c-2.1,0-3.1,1.2-3.5,3.7l-0.3,2c-0.1,0.6-0.2,1.2-0.2,1.6c0,1.4,0.6,2.1,2.3,2.1c0.6,0,1.8-0.1,2.5-0.2l1.6-9
			C93.2,258.7,92.1,258.5,91.2,258.5z"/>
		<path class="st2" d="M111.9,262.2l-0.4,2.1c-0.8,4.3-3.3,6.5-7.4,6.5c-3.6,0-5.2-2.5-5.2-5.2c0-0.4,0-0.8,0.1-1.3l0.4-2.1
			c0.8-4.3,3.3-6.5,7.4-6.5c3.6,0,5.2,2.4,5.2,5.1C112.1,261.3,112,261.8,111.9,262.2z M106.3,258.7c-1.6,0-3,0.9-3.4,3.5l-0.4,2.1
			c-0.1,0.4-0.1,0.8-0.1,1.1c0,1.5,0.8,2.4,2.3,2.4c1.8,0,3-1.1,3.4-3.5l0.4-2.1c0.1-0.4,0.1-0.8,0.1-1.1
			C108.6,259.5,107.9,258.7,106.3,258.7z"/>
		<path class="st2" d="M123.5,256.2l-0.3,1.9c-0.1,0.3-0.2,0.5-0.6,0.5c-0.8,0-2,0.1-3.8,0.9l-1.9,10.5c-0.1,0.3-0.1,0.5-0.6,0.5
			h-2.4c-0.3,0-0.5-0.2-0.4-0.5l2.4-13.7c0.1-0.3,0.2-0.5,0.6-0.5h2.3c0.4,0,0.5,0.1,0.4,0.5l-0.1,0.5c1.5-1.1,2.9-1.3,4-1.3
			c0.3,0,0.4,0.2,0.4,0.4C123.5,256.2,123.5,256.2,123.5,256.2z"/>
		<path class="st2" d="M129.2,256.4l-2.4,13.7c-0.1,0.3-0.3,0.5-0.6,0.5h-2.4c-0.3,0-0.4-0.2-0.4-0.4c0-0.1,0-0.1,0-0.1l2.4-13.7
			c0.1-0.3,0.3-0.5,0.6-0.5h2.4C129,255.9,129.2,256.1,129.2,256.4C129.2,256.4,129.2,256.4,129.2,256.4z M132.9,250.7l-3.7,3.2
			c-0.3,0.2-0.4,0.3-0.7,0.3h-2.5c-0.2,0-0.2-0.1-0.2-0.2c0-0.1,0.1-0.2,0.2-0.3l3-3.1c0.3-0.3,0.4-0.4,0.7-0.4h3
			c0.2,0,0.3,0.1,0.3,0.2C133.1,250.5,133,250.6,132.9,250.7z"/>
		<path class="st2" d="M143.5,256.4c0.5,0.1,0.7,0.2,0.6,0.7l-2.3,13c-0.1,0.3-0.3,0.5-0.6,0.5h-2.1c-0.3,0-0.5-0.2-0.4-0.5l0.1-0.8
			c-1.5,1.1-2.8,1.5-4,1.5c-2.4,0-4.3-1.5-4.3-4.6c0-0.8,0.1-1.6,0.2-2.1l0.3-1.9c0.7-4.1,3.2-6.6,7.4-6.6
			C140,255.7,142,256,143.5,256.4z M137.9,258.5c-2.2,0-3.1,1.6-3.5,3.7l-0.4,2.2c-0.2,0.9-0.2,1.4-0.2,1.7c0,1.5,0.8,1.9,1.8,1.9
			c1,0,2.1-0.4,3.3-1.1l1.4-8.2C139.9,258.6,138.8,258.5,137.9,258.5z"/>
		<path class="st2" d="M156.3,256.3c0.3,0.1,0.4,0.2,0.4,0.6l-0.3,1.5c-0.1,0.4-0.2,0.5-0.6,0.5c-0.7-0.1-2.6-0.3-4.1-0.3
			c-1,0-2,0.1-2,1.1c0,0.4,0.1,0.7,0.8,1.2l3.1,2.1c1.6,1.1,1.9,2.1,1.9,3.3c0,3.3-2.7,4.6-5.8,4.6c-0.9,0-3.1-0.1-4.7-0.5
			c-0.3-0.1-0.4-0.3-0.4-0.6l0.3-1.6c0.1-0.3,0.2-0.5,0.6-0.4c1.2,0.2,3.4,0.3,4.2,0.3c1.3,0,2.2-0.2,2.2-1.5c0-0.4-0.2-0.8-0.9-1.3
			l-2.7-1.9c-1.5-1-2.1-2-2.1-3.7c0-3.1,3-4,5.5-4C153.3,255.7,154.9,255.9,156.3,256.3z"/>
	</g>
	<g>
		<path class="st2" d="M218.6,188.4c0.4,0.1,0.5,0.3,0.5,0.6l-0.3,1.7c-0.1,0.3-0.1,0.6-0.7,0.5c-0.9-0.1-2.7-0.2-4-0.2
			c-2.6,0-4,1.3-4.6,4.9l-0.7,3.8c-0.1,0.7-0.2,1.2-0.2,1.7c0,2.5,1.1,3.2,3.1,3.2c1.4,0,3.2-0.1,4.1-0.2c0.5-0.1,0.5,0.2,0.5,0.5
			l-0.3,1.7c-0.1,0.4-0.3,0.5-0.7,0.6c-0.4,0.1-2.2,0.4-4.2,0.4c-3.1,0-6.2-1.5-6.2-6.1c0-0.6,0.1-1.2,0.2-1.9l0.7-3.8
			c1.2-7,5-8,8.8-8C216.5,188,218.2,188.3,218.6,188.4z"/>
		<path class="st2" d="M232.3,199.2l-0.4,2.1c-0.8,4.3-3.3,6.5-7.4,6.5c-3.6,0-5.2-2.5-5.2-5.2c0-0.4,0-0.8,0.1-1.3l0.4-2.1
			c0.8-4.3,3.3-6.5,7.4-6.5c3.6,0,5.2,2.4,5.2,5.1C232.4,198.3,232.4,198.8,232.3,199.2z M226.7,195.7c-1.6,0-3,0.9-3.4,3.5
			l-0.4,2.1c-0.1,0.4-0.1,0.8-0.1,1.1c0,1.5,0.8,2.4,2.3,2.4c1.8,0,3-1.1,3.4-3.5l0.4-2.1c0.1-0.4,0.1-0.8,0.1-1.1
			C229,196.5,228.2,195.7,226.7,195.7z"/>
		<path class="st2" d="M247.4,198.6l-1.5,8.5c-0.1,0.3-0.2,0.5-0.6,0.5h-2.4c-0.3,0-0.5-0.2-0.4-0.5l1.5-8.5
			c0.1-0.7,0.2-1.1,0.2-1.6c0-1-0.4-1.4-1.6-1.4c-1.1,0-2.2,0.4-3.4,0.9l-1.9,10.5c-0.1,0.3-0.2,0.5-0.6,0.5h-2.4
			c-0.3,0-0.5-0.2-0.4-0.5l2.4-13.7c0.1-0.3,0.2-0.5,0.7-0.5h2.1c0.3,0,0.6,0.1,0.5,0.5l-0.1,0.5c1.7-1,3.1-1.3,4.3-1.3
			c2.8,0,3.8,1.7,3.8,3.9C247.6,197.2,247.5,197.9,247.4,198.6z"/>
		<path class="st2" d="M256.6,189.8c0.4-0.1,0.5,0.2,0.5,0.4l-0.5,2.7h2.3c0.3,0,0.5,0.1,0.4,0.5l-0.3,1.5c-0.1,0.3-0.2,0.5-0.6,0.5
			h-2.3l-1.4,8.2c-0.1,0.4-0.1,0.7-0.1,0.9c0,0.5,0.2,0.5,0.9,0.5h1.4c0.3,0,0.5,0,0.5,0.4l-0.3,1.6c-0.1,0.3-0.2,0.4-0.6,0.5
			c-0.7,0.1-1.2,0.2-1.8,0.2c-2.3,0-3.6-0.8-3.6-2.9c0-0.4,0.1-0.8,0.1-1.3l1.4-8.2l-2.4-0.4c-0.4-0.1-0.5-0.2-0.4-0.5l0.2-1.2
			c0.1-0.3,0.2-0.5,0.6-0.5h2.5l0.4-2.1c0.1-0.3,0.3-0.5,0.6-0.5L256.6,189.8z"/>
		<path class="st2" d="M272.5,199.5l-0.2,1.3c-0.1,0.4-0.3,0.7-0.6,0.7h-8.5c-0.1,0.4-0.1,0.7-0.1,1.1c0,1.4,0.7,2.3,2.7,2.3
			c1.9,0,3.7-0.2,4.8-0.3c0.3,0,0.5,0.1,0.5,0.4l-0.3,1.7c-0.1,0.4-0.2,0.6-0.7,0.7c-1.8,0.3-2.9,0.4-5.2,0.4
			c-2.3,0-5.1-1.3-5.1-5.2c0-0.5,0-1,0.1-1.6l0.3-1.6c0.9-4.9,3.4-6.7,7.4-6.7c3.5,0,5.1,2.3,5.1,5.4
			C272.6,198.5,272.6,199.1,272.5,199.5z M267,195.7c-2.1,0-3.1,1.4-3.4,3.3h5.5c0.1-0.3,0.1-0.7,0.1-1
			C269.2,196.5,268.4,195.7,267,195.7z"/>
		<path class="st2" d="M287.7,198.6l-1.5,8.5c-0.1,0.3-0.2,0.5-0.6,0.5h-2.4c-0.3,0-0.5-0.2-0.4-0.5l1.5-8.5
			c0.1-0.7,0.2-1.1,0.2-1.6c0-1-0.4-1.4-1.6-1.4c-1.1,0-2.2,0.4-3.4,0.9l-1.9,10.5c-0.1,0.3-0.2,0.5-0.6,0.5h-2.4
			c-0.3,0-0.5-0.2-0.4-0.5l2.4-13.7c0.1-0.3,0.2-0.5,0.7-0.5h2.1c0.3,0,0.6,0.1,0.5,0.5l-0.1,0.5c1.7-1,3.1-1.3,4.3-1.3
			c2.8,0,3.8,1.7,3.8,3.9C287.9,197.2,287.8,197.9,287.7,198.6z"/>
		<path class="st2" d="M295.1,192.9c0.3,0,0.5,0.1,0.4,0.5l-2.4,13.7c-0.1,0.3-0.2,0.5-0.6,0.5h-2.4c-0.3,0-0.5-0.2-0.4-0.5
			l2.4-13.7c0.1-0.3,0.2-0.5,0.6-0.5H295.1z M296.1,187.6c0.3,0,0.5,0.2,0.4,0.5l-0.4,2.3c-0.1,0.3-0.3,0.5-0.6,0.5H293
			c-0.3,0-0.5-0.2-0.5-0.5l0.4-2.3c0.1-0.3,0.3-0.5,0.6-0.5H296.1z"/>
		<path class="st2" d="M311.1,187.7c0.3,0,0.5,0.1,0.4,0.5l-3.2,18.2c-0.1,0.4-0.2,0.5-0.8,0.7c-1.7,0.4-3.7,0.7-5.4,0.7
			c-3.6,0-5.2-2.2-5.2-5.1c0-0.5,0.1-0.9,0.1-1.4l0.3-2c0.8-4.7,3.2-6.6,7.4-6.6c0.6,0,1.5,0.1,2.5,0.2l0.8-4.6
			c0.1-0.3,0.2-0.5,0.6-0.5H311.1z M304.3,195.5c-2.2,0-3.1,1.2-3.5,3.7l-0.3,2c-0.1,0.6-0.2,1.1-0.2,1.6c0,1.4,0.6,2.1,2.3,2.1
			c0.9,0,2-0.1,2.5-0.2l1.6-9.1C306.1,195.6,304.9,195.5,304.3,195.5z"/>
		<path class="st2" d="M325.1,199.2l-0.4,2.1c-0.8,4.3-3.3,6.5-7.4,6.5c-3.6,0-5.2-2.5-5.2-5.2c0-0.4,0-0.8,0.1-1.3l0.4-2.1
			c0.8-4.3,3.3-6.5,7.4-6.5c3.6,0,5.2,2.4,5.2,5.1C325.2,198.3,325.1,198.8,325.1,199.2z M319.4,195.7c-1.6,0-3,0.9-3.4,3.5
			l-0.4,2.1c-0.1,0.4-0.1,0.8-0.1,1.1c0,1.5,0.8,2.4,2.3,2.4c1.8,0,2.9-1.1,3.4-3.5l0.4-2.1c0.1-0.4,0.1-0.8,0.1-1.1
			C321.7,196.5,321,195.7,319.4,195.7z"/>
		<path class="st2" d="M338,193.3c0.3,0.1,0.4,0.2,0.4,0.6l-0.3,1.5c-0.1,0.4-0.2,0.5-0.6,0.5c-0.7-0.1-2.6-0.3-4.1-0.3
			c-1,0-2,0.1-2,1.1c0,0.4,0.1,0.7,0.8,1.2l3.1,2.1c1.6,1.1,1.9,2.1,1.9,3.3c0,3.3-2.7,4.6-5.8,4.6c-0.9,0-3.1-0.1-4.7-0.5
			c-0.3-0.1-0.4-0.3-0.4-0.6l0.3-1.6c0.1-0.3,0.2-0.5,0.6-0.4c1.2,0.2,3.4,0.3,4.2,0.3c1.3,0,2.2-0.2,2.2-1.5c0-0.4-0.2-0.8-0.9-1.3
			l-2.7-1.9c-1.5-1-2.1-2-2.1-3.7c0-3.1,3-4,5.5-4C334.9,192.7,336.6,192.9,338,193.3z"/>
	</g>
	<g>
		<path class="st2" d="M212.6,221.3c0.4-0.1,0.5,0.2,0.5,0.4l-0.5,2.7h2.3c0.3,0,0.5,0.1,0.4,0.5l-0.3,1.5c-0.1,0.3-0.2,0.5-0.6,0.5
			h-2.3l-1.4,8.2c-0.1,0.4-0.1,0.7-0.1,0.9c0,0.5,0.2,0.5,0.9,0.5h1.4c0.3,0,0.5,0,0.5,0.4l-0.3,1.6c-0.1,0.3-0.2,0.4-0.6,0.5
			c-0.7,0.1-1.2,0.2-1.8,0.2c-2.3,0-3.6-0.8-3.6-2.9c0-0.4,0.1-0.8,0.1-1.3l1.4-8.2l-2.4-0.4c-0.4-0.1-0.5-0.2-0.4-0.5l0.2-1.2
			c0.1-0.3,0.2-0.5,0.6-0.5h2.5l0.4-2.1c0.1-0.3,0.3-0.5,0.6-0.5L212.6,221.3z"/>
		<path class="st2" d="M228.5,231.1l-0.2,1.3c-0.1,0.4-0.3,0.7-0.6,0.7h-8.5c-0.1,0.4-0.1,0.7-0.1,1.1c0,1.4,0.7,2.3,2.7,2.3
			c1.9,0,3.7-0.2,4.8-0.3c0.3,0,0.5,0.1,0.5,0.4l-0.3,1.7c-0.1,0.4-0.2,0.6-0.7,0.7c-1.8,0.3-2.9,0.4-5.2,0.4
			c-2.3,0-5.1-1.3-5.1-5.2c0-0.5,0-1,0.1-1.6l0.3-1.6c0.9-4.9,3.4-6.7,7.4-6.7c3.5,0,5.1,2.3,5.1,5.4
			C228.6,230,228.6,230.6,228.5,231.1z M223,227.2c-2.1,0-3.1,1.4-3.4,3.3h5.5c0.1-0.3,0.1-0.7,0.1-1
			C225.3,228,224.4,227.2,223,227.2z"/>
		<path class="st2" d="M243.6,230.7l-0.4,2.1c-0.8,4.3-3.3,6.5-7.4,6.5c-3.6,0-5.2-2.5-5.2-5.2c0-0.4,0-0.8,0.1-1.3l0.4-2.1
			c0.8-4.3,3.3-6.5,7.4-6.5c3.6,0,5.2,2.4,5.2,5.1C243.7,229.8,243.7,230.3,243.6,230.7z M238,227.2c-1.6,0-3,0.9-3.4,3.5l-0.4,2.1
			c-0.1,0.4-0.1,0.8-0.1,1.1c0,1.5,0.8,2.4,2.3,2.4c1.8,0,3-1.1,3.4-3.5l0.4-2.1c0.1-0.4,0.1-0.8,0.1-1.1
			C240.2,228,239.5,227.2,238,227.2z M243.4,219.2l-3.7,3.2c-0.3,0.2-0.4,0.3-0.7,0.3h-2.5c-0.1,0-0.2-0.1-0.2-0.2
			c0-0.1,0.1-0.2,0.2-0.3l3-3.1c0.3-0.3,0.4-0.4,0.7-0.4h3c0.2,0,0.3,0.1,0.3,0.2C243.6,219,243.5,219.1,243.4,219.2z"/>
		<path class="st2" d="M255.1,224.7l-0.3,1.9c-0.1,0.3-0.2,0.5-0.6,0.5c-0.8,0-2,0.1-3.8,0.9l-1.9,10.5c-0.1,0.3-0.1,0.5-0.6,0.5
			h-2.4c-0.3,0-0.5-0.2-0.4-0.5l2.4-13.7c0.1-0.3,0.2-0.5,0.6-0.5h2.3c0.4,0,0.5,0.1,0.4,0.5l-0.1,0.5c1.5-1.1,2.9-1.3,4-1.3
			c0.3,0,0.4,0.2,0.4,0.4C255.1,224.7,255.1,224.7,255.1,224.7z"/>
		<path class="st2" d="M260.4,224.4c0.3,0,0.5,0.1,0.4,0.5l-2.4,13.7c-0.1,0.3-0.2,0.5-0.6,0.5h-2.4c-0.3,0-0.5-0.2-0.4-0.5
			l2.4-13.7c0.1-0.3,0.2-0.5,0.6-0.5H260.4z M261.4,219.1c0.3,0,0.5,0.2,0.4,0.5l-0.4,2.3c-0.1,0.3-0.3,0.5-0.6,0.5h-2.5
			c-0.3,0-0.5-0.2-0.5-0.5l0.4-2.3c0.1-0.3,0.3-0.5,0.6-0.5H261.4z"/>
		<path class="st2" d="M273.3,224.6c0.4,0.1,0.5,0.2,0.4,0.7l-0.3,1.7c-0.1,0.3-0.2,0.5-0.6,0.4c-0.8-0.1-1.6-0.2-3.3-0.2
			c-1.2,0-2.6,0.7-3.1,3.4l-0.4,2.4c-0.1,0.5-0.1,0.9-0.1,1.3c0,1.8,1,2.1,2,2.1c1.7,0,2.5-0.1,3.4-0.2c0.4-0.1,0.5,0.1,0.5,0.4
			l-0.3,1.7c-0.1,0.4-0.1,0.6-0.7,0.7c-0.6,0.2-1.8,0.3-3.4,0.3c-3,0-5-2-5-5c0-0.4,0.1-0.9,0.1-1.3l0.4-2.4
			c0.9-4.9,3.7-6.3,7.1-6.3C271.6,224.2,272.7,224.4,273.3,224.6z"/>
		<path class="st2" d="M287.2,230.7l-0.4,2.1c-0.8,4.3-3.3,6.5-7.4,6.5c-3.6,0-5.2-2.5-5.2-5.2c0-0.4,0-0.8,0.1-1.3l0.4-2.1
			c0.8-4.3,3.3-6.5,7.4-6.5c3.6,0,5.2,2.4,5.2,5.1C287.3,229.8,287.3,230.3,287.2,230.7z M281.6,227.2c-1.6,0-3,0.9-3.4,3.5
			l-0.4,2.1c-0.1,0.4-0.1,0.8-0.1,1.1c0,1.5,0.8,2.4,2.3,2.4c1.8,0,3-1.1,3.4-3.5l0.4-2.1c0.1-0.4,0.1-0.8,0.1-1.1
			C283.9,228,283.1,227.2,281.6,227.2z"/>
		<path class="st2" d="M300.1,224.8c0.3,0.1,0.4,0.2,0.4,0.6l-0.3,1.5c-0.1,0.4-0.2,0.5-0.6,0.5c-0.7-0.1-2.6-0.3-4.1-0.3
			c-1,0-2,0.1-2,1.1c0,0.4,0.1,0.7,0.8,1.2l3.1,2.1c1.6,1.1,1.9,2.1,1.9,3.3c0,3.3-2.7,4.6-5.8,4.6c-0.9,0-3.1-0.1-4.7-0.5
			c-0.3-0.1-0.4-0.3-0.4-0.6l0.3-1.6c0.1-0.3,0.2-0.5,0.6-0.4c1.2,0.2,3.4,0.3,4.2,0.3c1.3,0,2.2-0.2,2.2-1.5c0-0.4-0.2-0.8-0.9-1.3
			l-2.7-1.9c-1.5-1-2.1-2-2.1-3.7c0-3.1,3-4,5.5-4C297.1,224.2,298.7,224.4,300.1,224.8z"/>
		<path class="st2" d="M323.1,219.3c0.3,0,0.5,0.1,0.4,0.5l-3.2,18.2c-0.1,0.4-0.2,0.5-0.8,0.7c-1.7,0.4-3.7,0.7-5.4,0.7
			c-3.6,0-5.2-2.2-5.2-5.1c0-0.5,0.1-0.9,0.1-1.4l0.3-2c0.8-4.7,3.2-6.6,7.4-6.6c0.6,0,1.5,0.1,2.5,0.2l0.8-4.6
			c0.1-0.3,0.2-0.5,0.6-0.5H323.1z M316.3,227c-2.2,0-3.1,1.2-3.5,3.7l-0.3,2c-0.1,0.6-0.2,1.1-0.2,1.6c0,1.4,0.6,2.1,2.3,2.1
			c0.9,0,2-0.1,2.5-0.2l1.6-9.1C318,227.1,316.9,227,316.3,227z"/>
		<path class="st2" d="M336.9,231.1l-0.2,1.3c-0.1,0.4-0.3,0.7-0.6,0.7h-8.5c-0.1,0.4-0.1,0.7-0.1,1.1c0,1.4,0.7,2.3,2.7,2.3
			c1.9,0,3.7-0.2,4.8-0.3c0.3,0,0.5,0.1,0.5,0.4l-0.3,1.7c-0.1,0.4-0.2,0.6-0.7,0.7c-1.8,0.3-2.9,0.4-5.2,0.4
			c-2.3,0-5.1-1.3-5.1-5.2c0-0.5,0-1,0.1-1.6l0.3-1.6c0.9-4.9,3.4-6.7,7.4-6.7c3.5,0,5.1,2.3,5.1,5.4
			C337.1,230,337,230.6,336.9,231.1z M331.4,227.2c-2.1,0-3.1,1.4-3.4,3.3h5.5c0.1-0.3,0.1-0.7,0.1-1
			C333.7,228,332.9,227.2,331.4,227.2z"/>
	</g>
	<g>
		<path class="st2" d="M210.8,250.8c0.3,0,0.5,0.1,0.4,0.5l-3.3,18.8c-0.1,0.3-0.2,0.5-0.6,0.5h-2.4c-0.3,0-0.5-0.2-0.4-0.5
			l3.3-18.8c0.1-0.3,0.2-0.5,0.6-0.5H210.8z"/>
		<path class="st2" d="M224.7,256.4c0.5,0.1,0.7,0.2,0.6,0.7l-2.3,13c-0.1,0.3-0.3,0.5-0.6,0.5h-2.1c-0.3,0-0.5-0.2-0.4-0.5l0.1-0.8
			c-1.5,1.1-2.8,1.5-4,1.5c-2.4,0-4.3-1.5-4.3-4.6c0-0.8,0.1-1.6,0.2-2.1l0.3-1.9c0.7-4.1,3.2-6.6,7.4-6.6
			C221.2,255.7,223.1,256,224.7,256.4z M219,258.5c-2.2,0-3.1,1.6-3.5,3.7l-0.4,2.2c-0.2,0.9-0.2,1.4-0.2,1.7c0,1.5,0.8,1.9,1.8,1.9
			c1,0,2.1-0.4,3.3-1.1l1.4-8.2C221,258.6,220,258.5,219,258.5z"/>
		<path class="st2" d="M240.9,252.8c0.4-0.1,0.5,0.2,0.5,0.4l-0.5,2.7h2.3c0.3,0,0.5,0.1,0.4,0.5l-0.3,1.5c-0.1,0.3-0.2,0.5-0.6,0.5
			h-2.3l-1.4,8.2c-0.1,0.4-0.1,0.7-0.1,0.9c0,0.5,0.2,0.5,0.9,0.5h1.4c0.3,0,0.5,0,0.5,0.4l-0.3,1.6c-0.1,0.3-0.2,0.4-0.6,0.5
			c-0.7,0.1-1.2,0.2-1.8,0.2c-2.3,0-3.6-0.8-3.6-2.9c0-0.4,0.1-0.8,0.1-1.3l1.4-8.2l-2.4-0.4c-0.4-0.1-0.5-0.2-0.4-0.5l0.2-1.2
			c0.1-0.3,0.2-0.5,0.6-0.5h2.5l0.4-2.1c0.1-0.3,0.3-0.5,0.6-0.5L240.9,252.8z"/>
		<path class="st2" d="M256.8,262.6l-0.2,1.3c-0.1,0.4-0.3,0.7-0.6,0.7h-8.5c-0.1,0.4-0.1,0.7-0.1,1.1c0,1.4,0.7,2.3,2.7,2.3
			c1.9,0,3.7-0.2,4.8-0.3c0.3,0,0.5,0.1,0.5,0.4l-0.3,1.7c-0.1,0.4-0.2,0.6-0.7,0.7c-1.8,0.3-2.9,0.4-5.2,0.4
			c-2.3,0-5.1-1.3-5.1-5.2c0-0.5,0-1,0.1-1.6l0.3-1.6c0.9-4.9,3.4-6.7,7.4-6.7c3.5,0,5.1,2.3,5.1,5.4
			C256.9,261.5,256.8,262.1,256.8,262.6z M251.3,258.7c-2.1,0-3.1,1.4-3.4,3.3h5.5c0.1-0.3,0.1-0.7,0.1-1
			C253.5,259.5,252.7,258.7,251.3,258.7z"/>
		<path class="st2" d="M278.7,261.2l-1.6,8.9c-0.1,0.3-0.1,0.5-0.6,0.5h-2.4c-0.3,0-0.5-0.2-0.4-0.5l1.6-8.9
			c0.1-0.5,0.1-0.9,0.1-1.2c0-1-0.4-1.3-1.6-1.3c-0.5,0-1.6,0.2-2.6,0.7c0,0.5,0,1.2-0.1,1.9l-1.6,8.9c-0.1,0.3-0.2,0.5-0.6,0.5
			h-2.4c-0.3,0-0.5-0.2-0.4-0.5l1.6-8.9c0.1-0.5,0.1-0.9,0.1-1.3c0-1-0.4-1.3-1.5-1.3c-0.5,0-1.4,0.3-2.6,0.9l-1.9,10.5
			c-0.1,0.3-0.2,0.5-0.6,0.5h-2.4c-0.3,0-0.5-0.2-0.4-0.5l2.4-13.7c0.1-0.3,0.3-0.5,0.6-0.5h2.3c0.3,0,0.5,0.2,0.4,0.5L264,257
			c1.2-0.7,2.3-1.3,3.9-1.3c1.5,0,2.3,0.6,2.8,1.3c1.3-0.9,2.8-1.3,4.6-1.3c2.5,0,3.6,1.5,3.6,3.8
			C278.9,260.1,278.8,260.6,278.7,261.2z"/>
		<path class="st2" d="M294.3,257.1l-2.3,13c-0.1,0.3-0.3,0.5-0.6,0.5h-2.1c-0.3,0-0.4-0.2-0.4-0.4c0,0,0-0.1,0-0.1l0.1-0.8
			c-1.5,1.1-2.8,1.5-4,1.5c-2.4,0-4.3-1.6-4.3-4.7c0-0.5,0-1,0.1-1.6c0,0,0.2-1.3,0.4-2.3c0.7-4.1,3.2-6.6,7.4-6.6
			c1.7,0,3.6,0.3,5.1,0.7c0.4,0.1,0.6,0.2,0.6,0.5C294.4,257,294.4,257,294.3,257.1z M288.1,258.5c-2.2,0-3.1,1.6-3.5,3.7l-0.5,2.7
			c-0.1,0.4-0.1,0.8-0.1,1.1c0,1.5,0.8,2,1.8,2c1,0,2.1-0.4,3.3-1.1l1.4-8.2C290.1,258.6,289.1,258.5,288.1,258.5z M294.5,250.7
			l-3.7,3.2c-0.3,0.2-0.4,0.3-0.7,0.3h-2.5c-0.1,0-0.2-0.1-0.2-0.2c0-0.1,0.1-0.2,0.2-0.3l3-3.1c0.3-0.3,0.4-0.4,0.7-0.4h3
			c0.2,0,0.3,0.1,0.3,0.2C294.7,250.5,294.6,250.6,294.5,250.7z"/>
		<path class="st2" d="M302.5,252.8c0.4-0.1,0.5,0.2,0.5,0.4l-0.5,2.7h2.3c0.3,0,0.5,0.1,0.4,0.5L305,258c-0.1,0.3-0.2,0.5-0.6,0.5
			H302l-1.4,8.2c-0.1,0.4-0.1,0.7-0.1,0.9c0,0.5,0.2,0.5,0.9,0.5h1.4c0.3,0,0.5,0,0.5,0.4l-0.3,1.6c-0.1,0.3-0.2,0.4-0.6,0.5
			c-0.7,0.1-1.2,0.2-1.8,0.2c-2.3,0-3.6-0.8-3.6-2.9c0-0.4,0.1-0.8,0.1-1.3l1.4-8.2l-2.4-0.4c-0.4-0.1-0.5-0.2-0.4-0.5l0.2-1.2
			c0.1-0.3,0.2-0.5,0.6-0.5h2.5l0.4-2.1c0.1-0.3,0.3-0.5,0.6-0.5L302.5,252.8z"/>
		<path class="st2" d="M310.7,255.9c0.3,0,0.5,0.1,0.4,0.5l-2.4,13.7c-0.1,0.3-0.2,0.5-0.6,0.5h-2.4c-0.3,0-0.5-0.2-0.4-0.5
			l2.4-13.7c0.1-0.3,0.2-0.5,0.6-0.5H310.7z M311.8,250.6c0.3,0,0.5,0.2,0.4,0.5l-0.4,2.3c-0.1,0.3-0.3,0.5-0.6,0.5h-2.5
			c-0.3,0-0.5-0.2-0.5-0.5l0.4-2.3c0.1-0.3,0.3-0.5,0.6-0.5H311.8z"/>
		<path class="st2" d="M323.6,256.1c0.4,0.1,0.5,0.2,0.4,0.7l-0.3,1.7c-0.1,0.3-0.2,0.5-0.6,0.4c-0.8-0.1-1.6-0.2-3.3-0.2
			c-1.2,0-2.6,0.7-3.1,3.4l-0.4,2.4c-0.1,0.5-0.1,0.9-0.1,1.3c0,1.8,1,2.1,2,2.1c1.7,0,2.5-0.1,3.4-0.2c0.4-0.1,0.5,0.1,0.5,0.4
			l-0.3,1.7c-0.1,0.4-0.1,0.6-0.7,0.7c-0.6,0.2-1.8,0.3-3.4,0.3c-3,0-5-2-5-5c0-0.4,0.1-0.9,0.1-1.3l0.4-2.4
			c0.9-4.9,3.7-6.3,7.1-6.3C321.9,255.7,323.1,255.9,323.6,256.1z"/>
		<path class="st2" d="M337.7,256.4c0.5,0.1,0.7,0.2,0.6,0.7l-2.3,13c-0.1,0.3-0.3,0.5-0.6,0.5h-2.1c-0.3,0-0.5-0.2-0.4-0.5l0.1-0.8
			c-1.5,1.1-2.8,1.5-4,1.5c-2.4,0-4.3-1.5-4.3-4.6c0-0.8,0.1-1.6,0.2-2.1l0.3-1.9c0.7-4.1,3.2-6.6,7.4-6.6
			C334.2,255.7,336.1,256,337.7,256.4z M332.1,258.5c-2.2,0-3.1,1.6-3.5,3.7l-0.4,2.2c-0.2,0.9-0.2,1.4-0.2,1.7
			c0,1.5,0.8,1.9,1.8,1.9c1,0,2.1-0.4,3.3-1.1l1.4-8.2C334.1,258.6,333,258.5,332.1,258.5z"/>
	</g>
	<g>
		<path class="st2" d="M406.4,199.5l2.8,7.6c0.1,0.3-0.1,0.5-0.4,0.5h-3c-0.3,0-0.4-0.2-0.5-0.5l-2.5-7h-0.5c-0.7,0-1.4-0.1-2.3-0.1
			l-1.2,7.1c-0.1,0.3-0.1,0.5-0.6,0.5h-2.6c-0.3,0-0.5-0.2-0.4-0.5l3.2-18c0.1-0.5,0.4-0.7,1-0.8c1.4-0.2,3.3-0.3,5.2-0.3
			c3.9,0,6.6,1.5,6.6,5.1C411,195.8,409.4,198.5,406.4,199.5z M403.9,191.1c-0.5,0-1.9,0.1-2.3,0.1l-1,5.9c0.4,0,1.9,0.1,2.3,0.1
			c2.7,0,4.5-1,4.5-3.9C407.4,191.6,406.2,191.1,403.9,191.1z"/>
		<path class="st2" d="M424.7,199.5l-0.2,1.3c-0.1,0.4-0.3,0.7-0.6,0.7h-8.5c-0.1,0.4-0.1,0.7-0.1,1.1c0,1.4,0.7,2.3,2.7,2.3
			c1.9,0,3.7-0.2,4.8-0.3c0.3,0,0.5,0.1,0.5,0.4l-0.3,1.7c-0.1,0.4-0.2,0.6-0.7,0.7c-1.7,0.3-2.9,0.4-5.2,0.4
			c-2.3,0-5.1-1.3-5.1-5.2c0-0.5,0-1,0.1-1.6l0.3-1.6c0.9-4.9,3.4-6.7,7.4-6.7c3.5,0,5.1,2.3,5.1,5.4
			C424.8,198.5,424.8,199.1,424.7,199.5z M419.2,195.7c-2.1,0-3.1,1.4-3.4,3.3h5.5c0.1-0.3,0.1-0.7,0.1-1
			C421.5,196.5,420.6,195.7,419.2,195.7z"/>
		<path class="st2" d="M437.7,193.3c0.3,0.1,0.4,0.2,0.4,0.6l-0.3,1.5c-0.1,0.4-0.2,0.5-0.6,0.5c-0.7-0.1-2.6-0.3-4.1-0.3
			c-1,0-2,0.1-2,1.1c0,0.4,0.1,0.7,0.8,1.2l3.1,2.1c1.6,1.1,1.9,2.1,1.9,3.3c0,3.3-2.7,4.6-5.8,4.6c-0.9,0-3.1-0.1-4.7-0.5
			c-0.3-0.1-0.4-0.3-0.4-0.6l0.3-1.6c0.1-0.3,0.2-0.5,0.6-0.4c1.2,0.2,3.4,0.3,4.2,0.3c1.3,0,2.2-0.2,2.2-1.5c0-0.4-0.2-0.8-0.9-1.3
			l-2.7-1.9c-1.5-1-2.1-2-2.1-3.7c0-3.1,3-4,5.5-4C434.7,192.7,436.3,192.9,437.7,193.3z"/>
		<path class="st2" d="M452.5,199.2l-0.4,2.1c-0.8,4.3-3.3,6.5-7.4,6.5c-3.6,0-5.2-2.5-5.2-5.2c0-0.4,0-0.8,0.1-1.3l0.4-2.1
			c0.8-4.3,3.3-6.5,7.4-6.5c3.6,0,5.2,2.4,5.2,5.1C452.7,198.3,452.6,198.8,452.5,199.2z M446.9,195.7c-1.6,0-2.9,0.9-3.4,3.5
			l-0.4,2.1c-0.1,0.4-0.1,0.8-0.1,1.1c0,1.5,0.8,2.4,2.3,2.4c1.8,0,3-1.1,3.4-3.5l0.4-2.1c0.1-0.4,0.1-0.8,0.1-1.1
			C449.2,196.5,448.5,195.7,446.9,195.7z"/>
		<path class="st2" d="M460.6,187.7c0.3,0,0.5,0.1,0.4,0.5l-3.3,18.8c-0.1,0.3-0.2,0.5-0.6,0.5h-2.4c-0.3,0-0.5-0.2-0.4-0.5
			l3.3-18.8c0.1-0.3,0.2-0.5,0.6-0.5H460.6z"/>
		<path class="st2" d="M475.3,192.9c0.5,0,0.5,0.3,0.4,0.6l-5.4,11.9c-0.9,1.9-2.3,2.5-3.7,2.5c-1.3,0-2.6-0.5-2.8-2.5l-1.2-11.9
			c-0.1-0.4,0.2-0.6,0.5-0.6h2.5c0.2,0,0.4,0.2,0.4,0.5l0.6,10.9c0,0.5,0.2,0.7,0.4,0.7c0.2,0,0.4-0.2,0.6-0.7l4.4-10.9
			c0.2-0.5,0.5-0.5,0.7-0.5H475.3z"/>
		<path class="st2" d="M488.4,199.5l-0.2,1.3c-0.1,0.4-0.3,0.7-0.6,0.7h-8.5c-0.1,0.4-0.1,0.7-0.1,1.1c0,1.4,0.7,2.3,2.7,2.3
			c1.9,0,3.7-0.2,4.8-0.3c0.3,0,0.5,0.1,0.5,0.4l-0.3,1.7c-0.1,0.4-0.2,0.6-0.7,0.7c-1.7,0.3-2.9,0.4-5.2,0.4
			c-2.3,0-5.1-1.3-5.1-5.2c0-0.5,0-1,0.1-1.6l0.3-1.6c0.9-4.9,3.4-6.7,7.4-6.7c3.5,0,5.1,2.3,5.1,5.4
			C488.5,198.5,488.5,199.1,488.4,199.5z M482.9,195.7c-2.1,0-3.1,1.4-3.4,3.3h5.5c0.1-0.3,0.1-0.7,0.1-1
			C485.1,196.5,484.3,195.7,482.9,195.7z"/>
		<path class="st2" d="M500.1,193.2l-0.3,1.9c-0.1,0.3-0.2,0.5-0.6,0.5c-0.8,0-2,0.1-3.8,0.9l-1.9,10.5c-0.1,0.3-0.1,0.5-0.6,0.5
			h-2.4c-0.3,0-0.5-0.2-0.4-0.5l2.4-13.7c0.1-0.3,0.2-0.5,0.6-0.5h2.3c0.4,0,0.5,0.1,0.4,0.5l-0.1,0.5c1.5-1.1,2.9-1.3,4-1.3
			c0.3,0,0.4,0.2,0.4,0.4C500.1,193.2,500.1,193.2,500.1,193.2z"/>
	</g>
	<g>
		<path class="st2" d="M404.2,230.8l-0.3,2c-0.8,4.5-3.2,6.6-7.4,6.6c-0.6,0-1.5-0.1-2.5-0.2l-0.8,4.6c-0.1,0.3-0.1,0.5-0.6,0.5
			h-2.4c-0.3,0-0.5-0.2-0.4-0.5l3.2-18.2c0.1-0.4,0.2-0.5,0.8-0.7c1.7-0.4,3.7-0.7,5.4-0.7c3.5,0,5.2,2.1,5.2,5
			C404.4,229.7,404.3,230.2,404.2,230.8z M398.7,227c-0.9,0-2,0.1-2.6,0.2l-1.6,9.1c0.7,0.1,1.9,0.2,2.5,0.2c2.2,0,3.1-1.7,3.4-3.7
			l0.3-2c0.1-0.6,0.2-1.1,0.2-1.5C400.9,227.8,400.4,227,398.7,227z"/>
		<path class="st2" d="M415.7,224.7l-0.3,1.9c-0.1,0.3-0.2,0.5-0.6,0.5c-0.8,0-2,0.1-3.8,0.9l-1.9,10.5c-0.1,0.3-0.1,0.5-0.6,0.5
			h-2.4c-0.3,0-0.5-0.2-0.4-0.5l2.4-13.7c0.1-0.3,0.2-0.5,0.6-0.5h2.3c0.4,0,0.5,0.1,0.4,0.5l-0.1,0.5c1.5-1.1,2.9-1.3,4-1.3
			c0.3,0,0.4,0.2,0.4,0.4C415.7,224.7,415.7,224.7,415.7,224.7z"/>
		<path class="st2" d="M428.6,230.7l-0.4,2.1c-0.8,4.3-3.3,6.5-7.4,6.5c-3.6,0-5.2-2.5-5.2-5.2c0-0.4,0-0.8,0.1-1.3l0.4-2.1
			c0.8-4.3,3.3-6.5,7.4-6.5c3.6,0,5.2,2.4,5.2,5.1C428.7,229.8,428.7,230.3,428.6,230.7z M423,227.2c-1.6,0-3,0.9-3.4,3.5l-0.4,2.1
			c-0.1,0.4-0.1,0.8-0.1,1.1c0,1.5,0.8,2.4,2.3,2.4c1.8,0,3-1.1,3.4-3.5l0.4-2.1c0.1-0.4,0.1-0.8,0.1-1.1
			C425.2,228,424.5,227.2,423,227.2z"/>
		<path class="st2" d="M443.7,230.8l-0.3,2c-0.7,4.4-3.1,6.6-7.4,6.6c-1.7,0-3.6-0.3-5.1-0.7c-0.5-0.2-0.7-0.3-0.6-0.7l3.2-18.2
			c0.1-0.3,0.2-0.5,0.6-0.5h2.4c0.3,0,0.5,0.1,0.4,0.5l-0.8,4.6c1-0.1,1.9-0.2,2.6-0.2c3.6,0,5.2,2,5.2,5
			C443.8,229.7,443.8,230.2,443.7,230.8z M438.1,227c-0.6,0-1.8,0.1-2.6,0.2l-1.6,9.1c0.5,0.1,1.5,0.2,2.5,0.2
			c2.2,0,3.1-1.8,3.4-3.7l0.3-2c0.1-0.6,0.2-1.1,0.2-1.5C440.4,227.8,439.8,227,438.1,227z"/>
		<path class="st2" d="M451.7,219.3c0.3,0,0.5,0.1,0.4,0.5l-3.3,18.8c-0.1,0.3-0.2,0.5-0.6,0.5h-2.4c-0.3,0-0.5-0.2-0.4-0.5
			l3.3-18.8c0.1-0.3,0.2-0.5,0.6-0.5H451.7z"/>
		<path class="st2" d="M465.6,231.1l-0.2,1.3c-0.1,0.4-0.3,0.7-0.6,0.7h-8.5c-0.1,0.4-0.1,0.7-0.1,1.1c0,1.4,0.7,2.3,2.7,2.3
			c1.9,0,3.7-0.2,4.8-0.3c0.3,0,0.5,0.1,0.5,0.4l-0.3,1.7c-0.1,0.4-0.2,0.6-0.7,0.7c-1.8,0.3-2.9,0.4-5.2,0.4
			c-2.3,0-5.1-1.3-5.1-5.2c0-0.5,0-1,0.1-1.6l0.3-1.6c0.9-4.9,3.4-6.7,7.4-6.7c3.5,0,5.1,2.3,5.1,5.4
			C465.8,230,465.7,230.6,465.6,231.1z M460.1,227.2c-2.1,0-3.1,1.4-3.4,3.3h5.5c0.1-0.3,0.1-0.7,0.1-1
			C462.4,228,461.6,227.2,460.1,227.2z"/>
		<path class="st2" d="M487.6,229.7l-1.6,8.9c-0.1,0.3-0.1,0.5-0.6,0.5H483c-0.3,0-0.5-0.2-0.4-0.5l1.6-8.9c0.1-0.5,0.1-0.9,0.1-1.2
			c0-1-0.4-1.3-1.6-1.3c-0.5,0-1.6,0.2-2.6,0.7c0,0.5,0,1.2-0.1,1.9l-1.6,8.9c-0.1,0.3-0.2,0.5-0.6,0.5h-2.4c-0.3,0-0.5-0.2-0.4-0.5
			l1.6-8.9c0.1-0.5,0.1-0.9,0.1-1.3c0-1-0.4-1.3-1.5-1.3c-0.5,0-1.4,0.3-2.6,0.9l-1.9,10.5c-0.1,0.3-0.2,0.5-0.6,0.5h-2.4
			c-0.3,0-0.5-0.2-0.4-0.5l2.4-13.7c0.1-0.3,0.3-0.5,0.6-0.5h2.3c0.3,0,0.5,0.2,0.4,0.5l-0.1,0.5c1.2-0.7,2.3-1.3,3.9-1.3
			c1.5,0,2.3,0.6,2.8,1.3c1.3-0.9,2.8-1.3,4.6-1.3c2.5,0,3.6,1.5,3.6,3.8C487.8,228.5,487.7,229.1,487.6,229.7z"/>
		<path class="st2" d="M502.6,224.9c0.5,0.1,0.7,0.2,0.6,0.7l-2.3,13c-0.1,0.3-0.3,0.5-0.6,0.5h-2.1c-0.3,0-0.5-0.2-0.4-0.5l0.1-0.8
			c-1.5,1.1-2.8,1.5-4,1.5c-2.4,0-4.3-1.5-4.3-4.6c0-0.8,0.1-1.6,0.2-2.1l0.3-1.9c0.7-4.1,3.2-6.6,7.4-6.6
			C499.2,224.2,501.1,224.5,502.6,224.9z M497,227c-2.2,0-3.1,1.6-3.5,3.7l-0.4,2.2c-0.2,0.9-0.2,1.4-0.2,1.7c0,1.5,0.8,1.9,1.8,1.9
			c1,0,2.1-0.4,3.3-1.1l1.4-8.2C499,227.1,498,227,497,227z"/>
	</g>
	<g>
		<path class="st2" d="M413,262.3l-0.3,2c-0.8,4.5-3.2,6.6-7.4,6.6c-0.6,0-1.5-0.1-2.5-0.2l-0.8,4.6c-0.1,0.3-0.1,0.5-0.6,0.5h-2.4
			c-0.3,0-0.5-0.2-0.4-0.5l3.2-18.2c0.1-0.4,0.2-0.5,0.8-0.7c1.7-0.4,3.7-0.7,5.4-0.7c3.5,0,5.2,2.1,5.2,5
			C413.1,261.2,413,261.8,413,262.3z M407.4,258.5c-0.9,0-2,0.1-2.6,0.2l-1.6,9.1c0.7,0.1,1.9,0.2,2.5,0.2c2.2,0,3.1-1.7,3.4-3.7
			l0.3-2c0.1-0.6,0.2-1.1,0.2-1.5C409.7,259.3,409.1,258.5,407.4,258.5z"/>
		<path class="st2" d="M424.5,256.2l-0.3,1.9c-0.1,0.3-0.2,0.5-0.6,0.5c-0.8,0-2,0.1-3.8,0.9l-1.9,10.5c-0.1,0.3-0.1,0.5-0.6,0.5
			h-2.4c-0.3,0-0.5-0.2-0.4-0.5l2.4-13.7c0.1-0.3,0.2-0.5,0.6-0.5h2.3c0.4,0,0.5,0.1,0.4,0.5l-0.1,0.5c1.5-1.1,2.9-1.3,4-1.3
			c0.3,0,0.4,0.2,0.4,0.4C424.5,256.2,424.5,256.2,424.5,256.2z"/>
		<path class="st2" d="M437.9,257.1l-2.3,13c-0.1,0.3-0.3,0.5-0.6,0.5h-2.1c-0.3,0-0.4-0.2-0.4-0.4c0,0,0-0.1,0-0.1l0.1-0.8
			c-1.5,1.1-2.8,1.5-4,1.5c-2.4,0-4.3-1.6-4.3-4.7c0-0.5,0-1,0.1-1.6c0,0,0.2-1.3,0.4-2.3c0.7-4.1,3.2-6.6,7.4-6.6
			c1.7,0,3.6,0.3,5.1,0.7c0.4,0.1,0.6,0.2,0.6,0.5C437.9,257,437.9,257,437.9,257.1z M431.7,258.5c-2.2,0-3.1,1.6-3.5,3.7l-0.5,2.7
			c-0.1,0.4-0.1,0.8-0.1,1.1c0,1.5,0.8,2,1.8,2c1,0,2.1-0.4,3.3-1.1l1.4-8.2C433.7,258.6,432.6,258.5,431.7,258.5z M438.1,250.7
			l-3.7,3.2c-0.3,0.2-0.4,0.3-0.7,0.3h-2.5c-0.1,0-0.2-0.1-0.2-0.2c0-0.1,0.1-0.2,0.2-0.3l3-3.1c0.3-0.3,0.4-0.4,0.7-0.4h3
			c0.2,0,0.3,0.1,0.3,0.2C438.2,250.5,438.2,250.6,438.1,250.7z"/>
		<path class="st2" d="M450.1,256.1c0.4,0.1,0.5,0.2,0.4,0.7l-0.3,1.7c-0.1,0.3-0.2,0.5-0.6,0.4c-0.8-0.1-1.6-0.2-3.3-0.2
			c-1.2,0-2.6,0.7-3.1,3.4l-0.4,2.4c-0.1,0.5-0.1,0.9-0.1,1.3c0,1.8,1,2.1,2,2.1c1.7,0,2.5-0.1,3.4-0.2c0.4-0.1,0.5,0.1,0.5,0.4
			l-0.3,1.7c-0.1,0.4-0.1,0.6-0.7,0.7c-0.6,0.2-1.8,0.3-3.4,0.3c-3,0-5-2-5-5c0-0.4,0.1-0.9,0.1-1.3l0.4-2.4
			c0.9-4.9,3.7-6.3,7.1-6.3C448.4,255.7,449.5,255.9,450.1,256.1z"/>
		<path class="st2" d="M458.7,252.8c0.4-0.1,0.5,0.2,0.5,0.4l-0.5,2.7h2.3c0.3,0,0.5,0.1,0.4,0.5l-0.3,1.5c-0.1,0.3-0.2,0.5-0.6,0.5
			h-2.3l-1.4,8.2c-0.1,0.4-0.1,0.7-0.1,0.9c0,0.5,0.2,0.5,0.9,0.5h1.4c0.3,0,0.5,0,0.5,0.4l-0.3,1.6c-0.1,0.3-0.2,0.4-0.6,0.5
			c-0.7,0.1-1.2,0.2-1.8,0.2c-2.3,0-3.6-0.8-3.6-2.9c0-0.4,0.1-0.8,0.1-1.3l1.4-8.2l-2.4-0.4c-0.4-0.1-0.5-0.2-0.4-0.5l0.2-1.2
			c0.1-0.3,0.2-0.5,0.6-0.5h2.5l0.4-2.1c0.1-0.3,0.3-0.5,0.6-0.5L458.7,252.8z"/>
		<path class="st2" d="M467,255.9c0.3,0,0.5,0.1,0.4,0.5l-2.4,13.7c-0.1,0.3-0.2,0.5-0.6,0.5H462c-0.3,0-0.5-0.2-0.4-0.5l2.4-13.7
			c0.1-0.3,0.2-0.5,0.6-0.5H467z M468,250.6c0.3,0,0.5,0.2,0.4,0.5l-0.4,2.3c-0.1,0.3-0.3,0.5-0.6,0.5h-2.5c-0.3,0-0.5-0.2-0.5-0.5
			l0.4-2.3c0.1-0.3,0.3-0.5,0.6-0.5H468z"/>
		<path class="st2" d="M479.9,256.1c0.4,0.1,0.5,0.2,0.4,0.7l-0.3,1.7c-0.1,0.3-0.2,0.5-0.6,0.4c-0.8-0.1-1.6-0.2-3.3-0.2
			c-1.2,0-2.6,0.7-3.1,3.4l-0.4,2.4c-0.1,0.5-0.1,0.9-0.1,1.3c0,1.8,1,2.1,2,2.1c1.7,0,2.5-0.1,3.4-0.2c0.4-0.1,0.5,0.1,0.5,0.4
			l-0.3,1.7c-0.1,0.4-0.1,0.6-0.7,0.7c-0.6,0.2-1.8,0.3-3.4,0.3c-3,0-5-2-5-5c0-0.4,0.1-0.9,0.1-1.3l0.4-2.4
			c0.9-4.9,3.7-6.3,7.1-6.3C478.2,255.7,479.3,255.9,479.9,256.1z"/>
		<path class="st2" d="M493.8,262.2l-0.4,2.1c-0.8,4.3-3.3,6.5-7.4,6.5c-3.6,0-5.2-2.5-5.2-5.2c0-0.4,0-0.8,0.1-1.3l0.4-2.1
			c0.8-4.3,3.3-6.5,7.4-6.5c3.6,0,5.2,2.4,5.2,5.1C493.9,261.3,493.8,261.8,493.8,262.2z M488.1,258.7c-1.6,0-3,0.9-3.4,3.5
			l-0.4,2.1c-0.1,0.4-0.1,0.8-0.1,1.1c0,1.5,0.8,2.4,2.3,2.4c1.8,0,2.9-1.1,3.4-3.5l0.4-2.1c0.1-0.4,0.1-0.8,0.1-1.1
			C490.4,259.5,489.7,258.7,488.1,258.7z"/>
	</g>
	<g>
		<path class="st2" d="M574.8,188.4c0.4,0.1,0.5,0.2,0.4,0.5l-0.3,1.7c-0.1,0.3-0.1,0.5-0.6,0.5H569c-1.5,0-2.1,0.5-2.5,2.2
			l-0.5,2.8h7.1c0.3,0,0.5,0.1,0.4,0.5l-0.3,1.9c-0.1,0.3-0.2,0.5-0.6,0.5h-7.1l-0.6,3.4c-0.1,0.3-0.1,0.6-0.1,0.9
			c0,1,0.5,1.4,1.7,1.4h5.3c0.3,0,0.5,0.1,0.4,0.5l-0.3,1.7c-0.1,0.4-0.2,0.5-0.6,0.5c-0.9,0.1-1.9,0.4-5,0.4c-3,0-5.2-1.1-5.2-4.1
			c0-0.4,0-0.8,0.1-1.2l1.6-9.1c0.8-4.7,3.4-5.4,7-5.4C573,188,574,188.2,574.8,188.4z"/>
		<path class="st2" d="M589.4,192.9c0.5,0,0.5,0.3,0.4,0.6l-5.4,11.9c-0.9,1.9-2.3,2.5-3.7,2.5c-1.3,0-2.6-0.5-2.8-2.5l-1.2-11.9
			c-0.1-0.4,0.2-0.6,0.5-0.6h2.5c0.2,0,0.4,0.2,0.4,0.5l0.6,10.9c0,0.5,0.2,0.7,0.4,0.7c0.2,0,0.4-0.2,0.6-0.7l4.4-10.9
			c0.2-0.5,0.5-0.5,0.7-0.5H589.4z"/>
		<path class="st2" d="M602.7,193.4c0.5,0.1,0.7,0.2,0.6,0.7l-2.3,13c-0.1,0.3-0.3,0.5-0.6,0.5h-2.1c-0.3,0-0.5-0.2-0.4-0.5l0.1-0.8
			c-1.5,1.1-2.8,1.5-4,1.5c-2.4,0-4.3-1.5-4.3-4.6c0-0.8,0.1-1.6,0.2-2.1l0.3-1.9c0.7-4.1,3.2-6.6,7.4-6.6
			C599.2,192.7,601.1,193,602.7,193.4z M597.1,195.5c-2.2,0-3.1,1.6-3.5,3.7l-0.4,2.2c-0.2,0.9-0.2,1.4-0.2,1.7
			c0,1.5,0.8,1.9,1.8,1.9c1,0,2.1-0.4,3.3-1.1l1.4-8.2C599,195.6,598,195.5,597.1,195.5z"/>
		<path class="st2" d="M610.6,187.7c0.3,0,0.5,0.1,0.4,0.5l-3.3,18.8c-0.1,0.3-0.2,0.5-0.6,0.5h-2.4c-0.3,0-0.5-0.2-0.4-0.5
			l3.3-18.8c0.1-0.3,0.2-0.5,0.6-0.5H610.6z"/>
		<path class="st2" d="M625.2,192.9c0.3,0,0.5,0.2,0.4,0.5l-2.4,13.7c-0.1,0.3-0.3,0.5-0.6,0.5h-2.2c-0.3,0-0.4-0.2-0.4-0.5
			c0,0,0,0,0-0.1l0.1-0.5c-1.3,0.7-2.7,1.3-4.2,1.3c-2,0-3.9-1.1-3.9-4c0-0.6,0.1-1.3,0.2-1.9l1.5-8.5c0.1-0.3,0.2-0.5,0.6-0.5h2.4
			c0.3,0,0.5,0.2,0.4,0.5l-1.5,8.5c-0.1,0.7-0.2,1.1-0.2,1.6c0,1.1,0.4,1.4,1.6,1.4c1.2,0,2.7-0.6,3.4-0.9l1.9-10.5
			c0.1-0.3,0.2-0.5,0.6-0.5H625.2z"/>
		<path class="st2" d="M639.9,193.4c0.5,0.1,0.7,0.2,0.6,0.7l-2.3,13c-0.1,0.3-0.3,0.5-0.6,0.5h-2.1c-0.3,0-0.5-0.2-0.4-0.5l0.1-0.8
			c-1.5,1.1-2.8,1.5-4,1.5c-2.4,0-4.3-1.5-4.3-4.6c0-0.8,0.1-1.6,0.2-2.1l0.3-1.9c0.7-4.1,3.2-6.6,7.4-6.6
			C636.4,192.7,638.3,193,639.9,193.4z M634.3,195.5c-2.2,0-3.1,1.6-3.5,3.7l-0.4,2.2c-0.2,0.9-0.2,1.4-0.2,1.7
			c0,1.5,0.8,1.9,1.8,1.9c1,0,2.1-0.4,3.3-1.1l1.4-8.2C636.2,195.6,635.2,195.5,634.3,195.5z"/>
		<path class="st2" d="M652.7,193c0.4,0.1,0.5,0.2,0.4,0.7l-0.3,1.7c-0.1,0.3-0.2,0.5-0.6,0.4c-0.8-0.1-1.6-0.2-3.3-0.2
			c-1.2,0-2.6,0.7-3.1,3.4l-0.4,2.4c-0.1,0.5-0.1,0.9-0.1,1.3c0,1.8,1,2.1,2,2.1c1.7,0,2.5-0.1,3.4-0.2c0.4-0.1,0.5,0.1,0.5,0.4
			l-0.3,1.7c-0.1,0.4-0.1,0.6-0.7,0.7c-0.6,0.2-1.8,0.3-3.4,0.3c-3,0-5-2-5-5c0-0.4,0.1-0.9,0.1-1.3l0.4-2.4
			c0.9-4.9,3.7-6.3,7.1-6.3C651,192.7,652.1,192.9,652.7,193z"/>
		<path class="st2" d="M659,192.9c0.3,0,0.5,0.1,0.4,0.5l-2.4,13.7c-0.1,0.3-0.2,0.5-0.6,0.5H654c-0.3,0-0.5-0.2-0.4-0.5l2.4-13.7
			c0.1-0.3,0.2-0.5,0.6-0.5H659z M660,187.6c0.3,0,0.5,0.2,0.4,0.5l-0.4,2.3c-0.1,0.3-0.3,0.5-0.6,0.5h-2.5c-0.3,0-0.5-0.2-0.5-0.5
			l0.4-2.3c0.1-0.3,0.3-0.5,0.6-0.5H660z"/>
		<path class="st2" d="M673.9,199.2l-0.4,2.1c-0.8,4.3-3.3,6.5-7.4,6.5c-3.6,0-5.2-2.5-5.2-5.2c0-0.4,0-0.8,0.1-1.3l0.4-2.1
			c0.8-4.3,3.3-6.5,7.4-6.5c3.6,0,5.2,2.4,5.2,5.1C674.1,198.3,674,198.8,673.9,199.2z M668.3,195.7c-1.6,0-3,0.9-3.4,3.5l-0.4,2.1
			c-0.1,0.4-0.1,0.8-0.1,1.1c0,1.5,0.8,2.4,2.3,2.4c1.8,0,3-1.1,3.4-3.5l0.4-2.1c0.1-0.4,0.1-0.8,0.1-1.1
			C670.6,196.5,669.9,195.7,668.3,195.7z M673.8,187.7l-3.7,3.2c-0.3,0.2-0.4,0.3-0.7,0.3h-2.5c-0.1,0-0.2-0.1-0.2-0.2
			c0-0.1,0.1-0.2,0.2-0.3l3-3.1c0.3-0.3,0.4-0.4,0.7-0.4h3c0.2,0,0.3,0.1,0.3,0.2C673.9,187.5,673.9,187.6,673.8,187.7z"/>
		<path class="st2" d="M689,198.6l-1.5,8.5c-0.1,0.3-0.2,0.5-0.6,0.5h-2.4c-0.3,0-0.5-0.2-0.4-0.5l1.5-8.5c0.1-0.7,0.2-1.1,0.2-1.6
			c0-1-0.4-1.4-1.6-1.4c-1.1,0-2.2,0.4-3.4,0.9l-1.9,10.5c-0.1,0.3-0.2,0.5-0.6,0.5h-2.4c-0.3,0-0.5-0.2-0.4-0.5l2.4-13.7
			c0.1-0.3,0.2-0.5,0.7-0.5h2.1c0.3,0,0.6,0.1,0.5,0.5l-0.1,0.5c1.7-1,3.1-1.3,4.3-1.3c2.8,0,3.8,1.7,3.8,3.9
			C689.2,197.2,689.2,197.9,689,198.6z"/>
	</g>
	<g>
		<path class="st2" d="M625.1,219.3c0.3,0,0.5,0.1,0.4,0.5l-3.2,18.2c-0.1,0.4-0.2,0.5-0.8,0.7c-1.7,0.4-3.7,0.7-5.4,0.7
			c-3.6,0-5.2-2.2-5.2-5.1c0-0.5,0.1-0.9,0.1-1.4l0.3-2c0.8-4.7,3.2-6.6,7.4-6.6c0.6,0,1.5,0.1,2.5,0.2l0.8-4.6
			c0.1-0.3,0.2-0.5,0.6-0.5H625.1z M618.4,227c-2.2,0-3.1,1.2-3.5,3.7l-0.3,2c-0.1,0.6-0.2,1.1-0.2,1.6c0,1.4,0.6,2.1,2.3,2.1
			c0.9,0,2-0.1,2.5-0.2l1.6-9.1C620.1,227.1,619,227,618.4,227z"/>
		<path class="st2" d="M639,231.1l-0.2,1.3c-0.1,0.4-0.3,0.7-0.6,0.7h-8.5c-0.1,0.4-0.1,0.7-0.1,1.1c0,1.4,0.7,2.3,2.7,2.3
			c1.9,0,3.7-0.2,4.8-0.3c0.3,0,0.5,0.1,0.5,0.4l-0.3,1.7c-0.1,0.4-0.2,0.6-0.7,0.7c-1.7,0.3-2.9,0.4-5.2,0.4
			c-2.3,0-5.1-1.3-5.1-5.2c0-0.5,0-1,0.1-1.6l0.3-1.6c0.9-4.9,3.4-6.7,7.4-6.7c3.5,0,5.1,2.3,5.1,5.4
			C639.1,230,639.1,230.6,639,231.1z M633.5,227.2c-2.1,0-3.1,1.4-3.4,3.3h5.5c0.1-0.3,0.1-0.7,0.1-1
			C635.7,228,634.9,227.2,633.5,227.2z"/>
	</g>
	<g>
		<path class="st2" d="M569.9,261.2l-1.6,8.9c-0.1,0.4-0.3,0.5-0.6,0.5h-2.4c-0.3,0-0.5-0.2-0.4-0.5l1.6-8.9c0.1-0.3,0.1-0.7,0.1-1
			c0-1.2-0.6-1.6-2.3-1.6c-1,0-1.9,0.1-2.5,0.2l-2,11.3c-0.1,0.3-0.2,0.5-0.6,0.5h-2.4c-0.3,0-0.5-0.2-0.4-0.5l3.3-18.8
			c0.1-0.3,0.2-0.5,0.6-0.5h2.4c0.4,0,0.5,0.2,0.4,0.5l-0.8,4.7c0.8-0.2,1.7-0.3,2.6-0.3c3.5,0,5.2,1.7,5.2,4.2
			C570,260.5,570,260.8,569.9,261.2z"/>
		<path class="st2" d="M584.9,256.4c0.5,0.1,0.7,0.2,0.6,0.7l-2.3,13c-0.1,0.3-0.3,0.5-0.6,0.5h-2.1c-0.3,0-0.5-0.2-0.4-0.5l0.1-0.8
			c-1.5,1.1-2.8,1.5-4,1.5c-2.4,0-4.3-1.5-4.3-4.6c0-0.8,0.1-1.6,0.2-2.1l0.3-1.9c0.7-4.1,3.2-6.6,7.4-6.6
			C581.5,255.7,583.4,256,584.9,256.4z M579.3,258.5c-2.2,0-3.1,1.6-3.5,3.7l-0.4,2.2c-0.2,0.9-0.2,1.4-0.2,1.7
			c0,1.5,0.8,1.9,1.8,1.9c1,0,2.1-0.4,3.3-1.1l1.4-8.2C581.3,258.6,580.2,258.5,579.3,258.5z"/>
		<path class="st2" d="M599.9,262.3l-0.3,2c-0.7,4.4-3.1,6.6-7.4,6.6c-1.7,0-3.6-0.3-5.1-0.7c-0.5-0.2-0.7-0.3-0.6-0.7l3.2-18.2
			c0.1-0.3,0.2-0.5,0.6-0.5h2.4c0.3,0,0.5,0.1,0.4,0.5l-0.8,4.6c1-0.1,1.9-0.2,2.6-0.2c3.6,0,5.2,2,5.2,5
			C600,261.2,600,261.7,599.9,262.3z M594.3,258.5c-0.6,0-1.8,0.1-2.6,0.2l-1.6,9.1c0.5,0.1,1.5,0.2,2.5,0.2c2.2,0,3.1-1.8,3.4-3.7
			l0.3-2c0.1-0.6,0.2-1.1,0.2-1.5C596.6,259.3,596,258.5,594.3,258.5z"/>
		<path class="st2" d="M606.9,255.9c0.3,0,0.5,0.1,0.4,0.5l-2.4,13.7c-0.1,0.3-0.2,0.5-0.6,0.5h-2.4c-0.3,0-0.5-0.2-0.4-0.5
			l2.4-13.7c0.1-0.3,0.2-0.5,0.6-0.5H606.9z M607.9,250.6c0.3,0,0.5,0.2,0.4,0.5l-0.4,2.3c-0.1,0.3-0.3,0.5-0.6,0.5h-2.5
			c-0.3,0-0.5-0.2-0.5-0.5l0.4-2.3c0.1-0.3,0.3-0.5,0.6-0.5H607.9z"/>
		<path class="st2" d="M614.9,250.8c0.3,0,0.5,0.1,0.4,0.5l-3.3,18.8c-0.1,0.3-0.2,0.5-0.6,0.5H609c-0.3,0-0.5-0.2-0.4-0.5l3.3-18.8
			c0.1-0.3,0.2-0.5,0.6-0.5H614.9z"/>
		<path class="st2" d="M621,255.9c0.3,0,0.5,0.1,0.4,0.5l-2.4,13.7c-0.1,0.3-0.2,0.5-0.6,0.5H616c-0.3,0-0.5-0.2-0.4-0.5l2.4-13.7
			c0.1-0.3,0.2-0.5,0.6-0.5H621z M622,250.6c0.3,0,0.5,0.2,0.4,0.5l-0.4,2.3c-0.1,0.3-0.3,0.5-0.6,0.5h-2.5c-0.3,0-0.5-0.2-0.5-0.5
			l0.4-2.3c0.1-0.3,0.3-0.5,0.6-0.5H622z"/>
		<path class="st2" d="M637,250.8c0.3,0,0.5,0.1,0.4,0.5l-3.2,18.2c-0.1,0.4-0.2,0.5-0.8,0.7c-1.7,0.4-3.7,0.7-5.4,0.7
			c-3.6,0-5.2-2.2-5.2-5.1c0-0.5,0.1-0.9,0.1-1.4l0.3-2c0.8-4.7,3.2-6.6,7.4-6.6c0.6,0,1.5,0.1,2.5,0.2l0.8-4.6
			c0.1-0.3,0.2-0.5,0.6-0.5H637z M630.3,258.5c-2.2,0-3.1,1.2-3.5,3.7l-0.3,2c-0.1,0.6-0.2,1.1-0.2,1.6c0,1.4,0.6,2.1,2.3,2.1
			c0.9,0,2-0.1,2.5-0.2l1.6-9.1C632,258.6,630.9,258.5,630.3,258.5z"/>
		<path class="st2" d="M650.8,256.4c0.5,0.1,0.7,0.2,0.6,0.7l-2.3,13c-0.1,0.3-0.3,0.5-0.6,0.5h-2.1c-0.3,0-0.5-0.2-0.4-0.5l0.1-0.8
			c-1.5,1.1-2.8,1.5-4,1.5c-2.4,0-4.3-1.5-4.3-4.6c0-0.8,0.1-1.6,0.2-2.1l0.3-1.9c0.7-4.1,3.2-6.6,7.4-6.6
			C647.3,255.7,649.2,256,650.8,256.4z M645.2,258.5c-2.2,0-3.1,1.6-3.5,3.7l-0.4,2.2c-0.2,0.9-0.2,1.4-0.2,1.7
			c0,1.5,0.8,1.9,1.8,1.9c1,0,2.1-0.4,3.3-1.1l1.4-8.2C647.1,258.6,646.1,258.5,645.2,258.5z"/>
		<path class="st2" d="M666.8,250.8c0.3,0,0.5,0.1,0.4,0.5l-3.2,18.2c-0.1,0.4-0.2,0.5-0.8,0.7c-1.7,0.4-3.7,0.7-5.4,0.7
			c-3.6,0-5.2-2.2-5.2-5.1c0-0.5,0.1-0.9,0.1-1.4l0.3-2c0.8-4.7,3.2-6.6,7.4-6.6c0.6,0,1.5,0.1,2.5,0.2l0.8-4.6
			c0.1-0.3,0.2-0.5,0.6-0.5H666.8z M660,258.5c-2.2,0-3.1,1.2-3.5,3.7l-0.3,2c-0.1,0.6-0.2,1.1-0.2,1.6c0,1.4,0.6,2.1,2.3,2.1
			c0.9,0,2-0.1,2.5-0.2l1.6-9.1C661.7,258.6,660.6,258.5,660,258.5z"/>
		<path class="st2" d="M680.6,262.6l-0.2,1.3c-0.1,0.4-0.3,0.7-0.6,0.7h-8.5c-0.1,0.4-0.1,0.7-0.1,1.1c0,1.4,0.7,2.3,2.7,2.3
			c1.9,0,3.7-0.2,4.8-0.3c0.3,0,0.5,0.1,0.5,0.4l-0.3,1.7c-0.1,0.4-0.2,0.6-0.7,0.7c-1.7,0.3-2.9,0.4-5.2,0.4
			c-2.3,0-5.1-1.3-5.1-5.2c0-0.5,0-1,0.1-1.6l0.3-1.6c0.9-4.9,3.4-6.7,7.4-6.7c3.5,0,5.1,2.3,5.1,5.4
			C680.7,261.5,680.7,262.1,680.6,262.6z M675.1,258.7c-2.1,0-3.1,1.4-3.4,3.3h5.5c0.1-0.3,0.1-0.7,0.1-1
			C677.3,259.5,676.5,258.7,675.1,258.7z"/>
		<path class="st2" d="M693.6,256.3c0.3,0.1,0.4,0.2,0.4,0.6l-0.3,1.5c-0.1,0.4-0.2,0.5-0.6,0.5c-0.7-0.1-2.6-0.3-4.1-0.3
			c-1,0-2,0.1-2,1.1c0,0.4,0.1,0.7,0.8,1.2l3.1,2.1c1.6,1.1,1.9,2.1,1.9,3.3c0,3.3-2.7,4.6-5.8,4.6c-0.9,0-3.1-0.1-4.7-0.5
			c-0.3-0.1-0.4-0.3-0.4-0.6l0.3-1.6c0.1-0.3,0.2-0.5,0.6-0.4c1.2,0.2,3.4,0.3,4.2,0.3c1.3,0,2.2-0.2,2.2-1.5c0-0.4-0.2-0.8-0.9-1.3
			l-2.7-1.9c-1.5-1-2.1-2-2.1-3.7c0-3.1,3-4,5.5-4C690.6,255.7,692.2,255.9,693.6,256.3z"/>
	</g>
	<g>
		<path class="st2" d="M574.3,284.3c0.4-0.1,0.5,0.2,0.5,0.4l-0.5,2.7h2.3c0.3,0,0.5,0.1,0.4,0.5l-0.3,1.5c-0.1,0.3-0.2,0.5-0.6,0.5
			h-2.3l-1.4,8.2c-0.1,0.4-0.1,0.7-0.1,0.9c0,0.5,0.2,0.5,0.9,0.5h1.4c0.3,0,0.5,0,0.5,0.4l-0.3,1.6c-0.1,0.3-0.2,0.4-0.6,0.5
			c-0.7,0.1-1.2,0.2-1.8,0.2c-2.3,0-3.5-0.8-3.5-2.9c0-0.4,0.1-0.8,0.1-1.3l1.4-8.2l-2.4-0.4c-0.4-0.1-0.5-0.2-0.4-0.5l0.2-1.2
			c0.1-0.3,0.2-0.5,0.6-0.5h2.5l0.4-2.1c0.1-0.3,0.3-0.5,0.6-0.5L574.3,284.3z"/>
		<path class="st2" d="M590.2,294.1l-0.2,1.3c-0.1,0.4-0.3,0.7-0.6,0.7h-8.5c-0.1,0.4-0.1,0.7-0.1,1.1c0,1.4,0.7,2.3,2.7,2.3
			c1.9,0,3.7-0.2,4.8-0.3c0.3,0,0.5,0.1,0.5,0.4l-0.3,1.7c-0.1,0.4-0.2,0.6-0.7,0.7c-1.7,0.3-2.9,0.4-5.2,0.4
			c-2.3,0-5.1-1.3-5.1-5.2c0-0.5,0-1,0.1-1.6l0.3-1.6c0.9-4.9,3.4-6.7,7.4-6.7c3.5,0,5.1,2.3,5.1,5.4
			C590.3,293.1,590.2,293.6,590.2,294.1z M584.7,290.2c-2.1,0-3.1,1.4-3.4,3.3h5.5c0.1-0.3,0.1-0.7,0.1-1
			C586.9,291,586.1,290.2,584.7,290.2z"/>
		<path class="st2" d="M605.2,293.7l-0.4,2.1c-0.8,4.3-3.3,6.5-7.4,6.5c-3.6,0-5.2-2.5-5.2-5.2c0-0.4,0-0.8,0.1-1.3l0.4-2.1
			c0.8-4.3,3.3-6.5,7.4-6.5c3.6,0,5.2,2.4,5.2,5.1C605.4,292.8,605.3,293.3,605.2,293.7z M599.6,290.2c-1.6,0-3,0.9-3.4,3.5
			l-0.4,2.1c-0.1,0.4-0.1,0.8-0.1,1.1c0,1.5,0.8,2.4,2.3,2.4c1.8,0,3-1.1,3.4-3.5l0.4-2.1c0.1-0.4,0.1-0.8,0.1-1.1
			C601.9,291,601.2,290.2,599.6,290.2z M605.1,282.2l-3.7,3.2c-0.3,0.2-0.4,0.3-0.7,0.3h-2.5c-0.1,0-0.2-0.1-0.2-0.2
			c0-0.1,0.1-0.2,0.2-0.3l3-3.1c0.3-0.3,0.4-0.4,0.7-0.4h3c0.2,0,0.3,0.1,0.3,0.2C605.2,282,605.2,282.1,605.1,282.2z"/>
		<path class="st2" d="M616.8,287.8l-0.3,1.9c-0.1,0.3-0.2,0.5-0.6,0.5c-0.8,0-2,0.1-3.8,0.9l-1.9,10.5c-0.1,0.3-0.1,0.5-0.6,0.5
			h-2.4c-0.3,0-0.5-0.2-0.4-0.5l2.4-13.7c0.1-0.3,0.2-0.5,0.6-0.5h2.3c0.4,0,0.5,0.1,0.4,0.5l-0.1,0.5c1.5-1.1,2.9-1.3,4-1.3
			c0.3,0,0.4,0.2,0.4,0.4C616.8,287.7,616.8,287.7,616.8,287.8z"/>
		<path class="st2" d="M622.1,287.4c0.3,0,0.5,0.1,0.4,0.5l-2.4,13.7c-0.1,0.3-0.2,0.5-0.6,0.5h-2.4c-0.3,0-0.5-0.2-0.4-0.5
			l2.4-13.7c0.1-0.3,0.2-0.5,0.6-0.5H622.1z M623.1,282.1c0.3,0,0.5,0.2,0.4,0.5l-0.4,2.3c-0.1,0.3-0.3,0.5-0.6,0.5H620
			c-0.3,0-0.5-0.2-0.5-0.5l0.4-2.3c0.1-0.3,0.3-0.5,0.6-0.5H623.1z"/>
		<path class="st2" d="M635,287.6c0.4,0.1,0.5,0.2,0.4,0.7l-0.3,1.7c-0.1,0.3-0.2,0.5-0.6,0.4c-0.8-0.1-1.6-0.2-3.3-0.2
			c-1.2,0-2.6,0.7-3.1,3.4l-0.4,2.4c-0.1,0.5-0.1,0.9-0.1,1.3c0,1.8,1,2.1,2,2.1c1.7,0,2.5-0.1,3.4-0.2c0.4-0.1,0.5,0.1,0.5,0.4
			l-0.3,1.7c-0.1,0.4-0.1,0.6-0.7,0.7c-0.6,0.2-1.8,0.3-3.4,0.3c-3,0-5-2-5-5c0-0.4,0.1-0.9,0.1-1.3l0.4-2.4
			c0.9-4.9,3.7-6.3,7.1-6.3C633.3,287.2,634.4,287.4,635,287.6z"/>
		<path class="st2" d="M649,287.9c0.5,0.1,0.7,0.2,0.6,0.7l-2.3,13c-0.1,0.3-0.3,0.5-0.6,0.5h-2.1c-0.3,0-0.5-0.2-0.4-0.5l0.1-0.8
			c-1.5,1.1-2.8,1.5-4,1.5c-2.4,0-4.3-1.5-4.3-4.6c0-0.8,0.1-1.6,0.2-2.1l0.3-1.9c0.7-4.1,3.2-6.6,7.4-6.6
			C645.6,287.2,647.5,287.5,649,287.9z M643.4,290c-2.2,0-3.1,1.6-3.5,3.7l-0.4,2.2c-0.2,0.9-0.2,1.4-0.2,1.7c0,1.5,0.8,1.9,1.8,1.9
			c1,0,2.1-0.4,3.3-1.1l1.4-8.2C645.4,290.1,644.3,290,643.4,290z"/>
		<path class="st2" d="M661.8,287.8c0.3,0.1,0.4,0.2,0.4,0.6l-0.3,1.5c-0.1,0.4-0.2,0.5-0.6,0.5c-0.7-0.1-2.6-0.3-4.1-0.3
			c-1,0-2,0.1-2,1.1c0,0.4,0.1,0.7,0.8,1.2l3.1,2.1c1.6,1.1,1.9,2.1,1.9,3.3c0,3.3-2.7,4.6-5.8,4.6c-0.9,0-3.1-0.1-4.7-0.5
			c-0.3-0.1-0.4-0.3-0.4-0.6l0.3-1.6c0.1-0.3,0.2-0.5,0.6-0.4c1.2,0.2,3.4,0.3,4.2,0.3c1.3,0,2.2-0.2,2.2-1.5c0-0.4-0.2-0.8-0.9-1.3
			l-2.7-1.9c-1.5-1-2.1-2-2.1-3.7c0-3.1,3-4,5.5-4C658.8,287.2,660.4,287.4,661.8,287.8z"/>
		<path class="st2" d="M684.5,287.4c0.4,0,0.5,0.3,0.3,0.6l-7,15.2c-1.3,2.8-2.5,4.1-6,4.1c-0.9,0-2.1-0.2-2.7-0.3
			c-0.3-0.1-0.5-0.2-0.5-0.4l0.3-1.7c0.1-0.4,0.2-0.5,0.7-0.5c0.7,0.1,2.2,0.2,2.9,0.2c1.1,0,1.7-0.3,2.3-1.7l0.3-0.8h-0.3
			c-0.8,0-1.6-0.2-1.9-2.2l-1.3-12c-0.1-0.5,0.2-0.6,0.6-0.6h2.4c0.5,0,0.5,0.2,0.5,0.5l0.8,10.6c0,0.4,0.1,0.6,0.3,0.6h0.2
			l4.8-11.2c0.1-0.2,0.2-0.4,0.6-0.4H684.5z"/>
	</g>
	<g>
		<path class="st2" d="M584.8,325.3l-0.3,2c-0.8,4.5-3.2,6.6-7.4,6.6c-0.6,0-1.5-0.1-2.5-0.2l-0.8,4.6c-0.1,0.3-0.1,0.5-0.6,0.5
			h-2.4c-0.3,0-0.5-0.2-0.4-0.5l3.2-18.2c0.1-0.4,0.2-0.5,0.8-0.7c1.7-0.4,3.7-0.7,5.4-0.7c3.5,0,5.2,2.1,5.2,5
			C585,324.2,584.9,324.8,584.8,325.3z M579.3,321.6c-0.9,0-2,0.1-2.6,0.2l-1.6,9.1c0.7,0.1,1.9,0.2,2.5,0.2c2.2,0,3.1-1.7,3.4-3.7
			l0.3-2c0.1-0.6,0.2-1.1,0.2-1.5C581.6,322.3,581,321.6,579.3,321.6z"/>
		<path class="st2" d="M596.4,319.3l-0.3,1.9c-0.1,0.3-0.2,0.5-0.6,0.5c-0.8,0-2,0.1-3.8,0.9l-1.9,10.5c-0.1,0.3-0.1,0.5-0.6,0.5
			h-2.4c-0.3,0-0.5-0.2-0.4-0.5l2.4-13.7c0.1-0.3,0.2-0.5,0.6-0.5h2.3c0.4,0,0.5,0.1,0.4,0.5L592,320c1.5-1.1,2.9-1.3,4-1.3
			c0.3,0,0.4,0.2,0.4,0.4C596.4,319.2,596.4,319.2,596.4,319.3z"/>
		<path class="st2" d="M609.7,320.1l-2.3,13c-0.1,0.3-0.3,0.5-0.6,0.5h-2.1c-0.3,0-0.4-0.2-0.4-0.4c0,0,0-0.1,0-0.1l0.1-0.8
			c-1.5,1.1-2.8,1.5-4,1.5c-2.4,0-4.3-1.6-4.3-4.7c0-0.5,0-1,0.1-1.6c0,0,0.2-1.3,0.4-2.3c0.7-4.1,3.2-6.6,7.4-6.6
			c1.7,0,3.6,0.3,5.1,0.7c0.4,0.1,0.6,0.2,0.6,0.5C609.7,320,609.7,320,609.7,320.1z M603.5,321.6c-2.2,0-3.1,1.6-3.5,3.7l-0.5,2.7
			c-0.1,0.4-0.1,0.8-0.1,1.1c0,1.5,0.8,2,1.8,2c1,0,2.1-0.4,3.3-1.1l1.4-8.2C605.5,321.6,604.5,321.6,603.5,321.6z M609.9,313.7
			l-3.7,3.2c-0.3,0.2-0.4,0.3-0.7,0.3h-2.5c-0.1,0-0.2-0.1-0.2-0.2c0-0.1,0.1-0.2,0.2-0.3l3-3.1c0.3-0.3,0.4-0.4,0.7-0.4h3
			c0.2,0,0.3,0.1,0.3,0.2C610.1,313.5,610,313.6,609.9,313.7z"/>
		<path class="st2" d="M622,319.1c0.4,0.1,0.5,0.2,0.4,0.7l-0.3,1.7c-0.1,0.3-0.2,0.5-0.6,0.4c-0.8-0.1-1.6-0.2-3.3-0.2
			c-1.2,0-2.6,0.7-3.1,3.4l-0.4,2.4c-0.1,0.5-0.1,0.9-0.1,1.3c0,1.8,1,2.1,2,2.1c1.7,0,2.5-0.1,3.4-0.2c0.4-0.1,0.5,0.1,0.5,0.4
			l-0.3,1.7c-0.1,0.4-0.1,0.6-0.7,0.7c-0.6,0.2-1.8,0.3-3.4,0.3c-3,0-5-2-5-5c0-0.4,0.1-0.9,0.1-1.3l0.4-2.4
			c0.9-4.9,3.7-6.3,7.1-6.3C620.3,318.7,621.4,318.9,622,319.1z"/>
		<path class="st2" d="M630.6,315.8c0.4-0.1,0.5,0.2,0.5,0.4l-0.5,2.7h2.3c0.3,0,0.5,0.1,0.4,0.5l-0.3,1.5c-0.1,0.3-0.2,0.5-0.6,0.5
			h-2.3l-1.4,8.2c-0.1,0.4-0.1,0.7-0.1,0.9c0,0.5,0.2,0.5,0.9,0.5h1.4c0.3,0,0.5,0,0.5,0.4l-0.3,1.6c-0.1,0.3-0.2,0.4-0.6,0.5
			c-0.7,0.1-1.2,0.2-1.8,0.2c-2.3,0-3.5-0.8-3.5-2.9c0-0.4,0.1-0.8,0.1-1.3l1.4-8.2l-2.4-0.4c-0.4-0.1-0.5-0.2-0.4-0.5l0.2-1.2
			c0.1-0.3,0.2-0.5,0.6-0.5h2.5l0.4-2.1c0.1-0.3,0.3-0.5,0.6-0.5L630.6,315.8z"/>
		<path class="st2" d="M638.8,318.9c0.3,0,0.5,0.1,0.4,0.5l-2.4,13.7c-0.1,0.3-0.2,0.5-0.6,0.5h-2.4c-0.3,0-0.5-0.2-0.4-0.5
			l2.4-13.7c0.1-0.3,0.2-0.5,0.6-0.5H638.8z M639.9,313.6c0.3,0,0.5,0.2,0.4,0.5l-0.4,2.3c-0.1,0.3-0.3,0.5-0.6,0.5h-2.5
			c-0.3,0-0.5-0.2-0.5-0.5l0.4-2.3c0.1-0.3,0.3-0.5,0.6-0.5H639.9z"/>
		<path class="st2" d="M651.7,319.1c0.4,0.1,0.5,0.2,0.4,0.7l-0.3,1.7c-0.1,0.3-0.2,0.5-0.6,0.4c-0.8-0.1-1.6-0.2-3.3-0.2
			c-1.2,0-2.6,0.7-3.1,3.4l-0.4,2.4c-0.1,0.5-0.1,0.9-0.1,1.3c0,1.8,1,2.1,2,2.1c1.7,0,2.5-0.1,3.4-0.2c0.4-0.1,0.5,0.1,0.5,0.4
			l-0.3,1.7c-0.1,0.4-0.1,0.6-0.7,0.7c-0.6,0.2-1.8,0.3-3.4,0.3c-3,0-5-2-5-5c0-0.4,0.1-0.9,0.1-1.3l0.4-2.4
			c0.9-4.9,3.7-6.3,7.1-6.3C650,318.7,651.2,318.9,651.7,319.1z"/>
		<path class="st2" d="M665.8,319.4c0.5,0.1,0.7,0.2,0.6,0.7l-2.3,13c-0.1,0.3-0.3,0.5-0.6,0.5h-2.1c-0.3,0-0.5-0.2-0.4-0.5l0.1-0.8
			c-1.5,1.1-2.8,1.5-4,1.5c-2.4,0-4.3-1.5-4.3-4.6c0-0.8,0.1-1.6,0.2-2.1l0.3-1.9c0.7-4.1,3.2-6.6,7.4-6.6
			C662.3,318.7,664.2,319,665.8,319.4z M660.2,321.6c-2.2,0-3.1,1.6-3.5,3.7l-0.4,2.2c-0.2,0.9-0.2,1.4-0.2,1.7
			c0,1.5,0.8,1.9,1.8,1.9c1,0,2.1-0.4,3.3-1.1l1.4-8.2C662.2,321.6,661.1,321.6,660.2,321.6z"/>
		<path class="st2" d="M678.6,319.3c0.3,0.1,0.4,0.2,0.4,0.6l-0.3,1.5c-0.1,0.4-0.2,0.5-0.6,0.5c-0.7-0.1-2.6-0.3-4.1-0.3
			c-1,0-2,0.1-2,1.1c0,0.4,0.1,0.7,0.8,1.2l3.1,2.1c1.6,1.1,1.9,2.1,1.9,3.3c0,3.3-2.7,4.6-5.8,4.6c-0.9,0-3.1-0.1-4.7-0.5
			c-0.3-0.1-0.4-0.3-0.4-0.6l0.3-1.6c0.1-0.3,0.2-0.5,0.6-0.4c1.2,0.2,3.4,0.3,4.2,0.3c1.3,0,2.2-0.2,2.2-1.5c0-0.4-0.2-0.8-0.9-1.3
			l-2.7-1.9c-1.5-1-2.1-2-2.1-3.7c0-3.1,3-4,5.5-4C675.5,318.7,677.2,318.9,678.6,319.3z"/>
	</g>
	<g>
		<g>
			<path class="st2" d="M431,69.7c0.5,0.1,0.5,0.2,0.4,0.5l-0.3,1.7c-0.1,0.3-0.2,0.5-0.6,0.5h-5.3c-1.5,0-2.1,0.5-2.5,2.2l-0.5,2.8
				h7.1c0.5,0,0.5,0.2,0.4,0.5l-0.3,1.9c-0.1,0.3-0.2,0.5-0.6,0.5h-7.1l-1.4,8c-0.1,0.3-0.3,0.5-0.6,0.5h-2.6
				c-0.3,0-0.4-0.2-0.4-0.4c0-0.1,0-0.1,0-0.1l2.4-13.7c0.8-4.4,3.1-5.4,7-5.4C428.8,69.4,429.9,69.5,431,69.7z"/>
			<path class="st2" d="M444.7,74.7c0.5,0.1,0.7,0.2,0.6,0.7l-2.3,13c-0.1,0.3-0.3,0.5-0.6,0.5h-2.1c-0.3,0-0.5-0.2-0.4-0.5l0.1-0.8
				c-1.5,1.1-2.8,1.5-4,1.5c-2.4,0-4.3-1.5-4.3-4.6c0-0.8,0.1-1.6,0.2-2.1l0.3-1.9c0.7-4.1,3.2-6.6,7.4-6.6
				C441.3,74.1,443.2,74.3,444.7,74.7z M439.1,76.9c-2.2,0-3.1,1.6-3.5,3.7l-0.4,2.2c-0.2,0.9-0.2,1.4-0.2,1.7
				c0,1.5,0.8,1.9,1.8,1.9c1,0,2.1-0.4,3.3-1.1l1.4-8.2C441.1,77,440.1,76.9,439.1,76.9z"/>
			<path class="st2" d="M457.6,74.6c0.3,0.1,0.4,0.2,0.4,0.6l-0.3,1.5c-0.1,0.4-0.2,0.5-0.6,0.5c-0.7-0.1-2.6-0.3-4.1-0.3
				c-1,0-2,0.1-2,1.1c0,0.4,0.1,0.7,0.8,1.2l3.1,2.1c1.6,1.1,1.9,2.1,1.9,3.3c0,3.3-2.7,4.6-5.8,4.6c-0.9,0-3.1-0.1-4.7-0.5
				c-0.3-0.1-0.4-0.3-0.4-0.6l0.3-1.6c0.1-0.3,0.2-0.5,0.6-0.4c1.2,0.2,3.4,0.3,4.2,0.3c1.3,0,2.2-0.2,2.2-1.5
				c0-0.4-0.2-0.8-0.9-1.3l-2.7-1.9c-1.5-1-2.1-2-2.1-3.7c0-3.1,3-4,5.5-4C454.5,74.1,456.1,74.2,457.6,74.6z"/>
			<path class="st2" d="M472.3,80.9l-0.2,1.3c-0.1,0.4-0.3,0.7-0.6,0.7h-8.5c-0.1,0.4-0.1,0.7-0.1,1.1c0,1.4,0.7,2.3,2.7,2.3
				c1.9,0,3.7-0.2,4.8-0.3c0.3,0,0.5,0.1,0.5,0.4l-0.3,1.7c-0.1,0.4-0.2,0.6-0.7,0.7c-1.8,0.3-2.9,0.4-5.2,0.4
				c-2.3,0-5.1-1.3-5.1-5.2c0-0.5,0-1,0.1-1.6l0.3-1.6c0.9-4.9,3.4-6.7,7.4-6.7c3.5,0,5.1,2.3,5.1,5.4
				C472.4,79.9,472.4,80.4,472.3,80.9z M466.8,77c-2.1,0-3.1,1.4-3.4,3.3h5.5c0.1-0.3,0.1-0.7,0.1-1C469,77.8,468.2,77,466.8,77z"/>
		</g>
	</g>
	<g>
		<g>
			<path class="st2" d="M408,112.1l-0.3,2c-0.8,4.5-3.2,6.6-7.4,6.6c-0.6,0-1.5-0.1-2.5-0.2l-0.8,4.6c-0.1,0.3-0.1,0.5-0.6,0.5h-2.4
				c-0.3,0-0.5-0.2-0.4-0.5l3.2-18.2c0.1-0.4,0.2-0.5,0.8-0.7c1.7-0.4,3.7-0.7,5.4-0.7c3.5,0,5.2,2.1,5.2,5
				C408.1,111.1,408,111.6,408,112.1z M402.4,108.4c-0.9,0-2,0.1-2.6,0.2l-1.6,9.1c0.7,0.1,1.9,0.2,2.5,0.2c2.2,0,3.1-1.7,3.4-3.7
				l0.3-2c0.1-0.6,0.2-1.1,0.2-1.5C404.7,109.2,404.1,108.4,402.4,108.4z"/>
			<path class="st2" d="M419.5,106.1l-0.3,1.9c-0.1,0.3-0.2,0.5-0.6,0.5c-0.8,0-2,0.1-3.8,0.9l-1.9,10.5c-0.1,0.3-0.1,0.5-0.6,0.5
				h-2.4c-0.3,0-0.5-0.2-0.4-0.5l2.4-13.7c0.1-0.3,0.2-0.5,0.6-0.5h2.3c0.4,0,0.5,0.1,0.4,0.5l-0.1,0.5c1.5-1.1,2.9-1.3,4-1.3
				c0.3,0,0.4,0.2,0.4,0.4C419.5,106,419.5,106.1,419.5,106.1z"/>
			<path class="st2" d="M433,107l-2.3,13c-0.1,0.3-0.3,0.5-0.6,0.5h-2.1c-0.3,0-0.4-0.2-0.4-0.4c0,0,0-0.1,0-0.1l0.1-0.8
				c-1.5,1.1-2.8,1.5-4,1.5c-2.4,0-4.3-1.6-4.3-4.7c0-0.5,0-1,0.1-1.6c0,0,0.2-1.3,0.4-2.3c0.7-4.1,3.2-6.6,7.4-6.6
				c1.7,0,3.6,0.3,5.1,0.7c0.4,0.1,0.6,0.2,0.6,0.5C433.1,106.8,433.1,106.9,433,107z M426.9,108.4c-2.2,0-3.1,1.6-3.5,3.7l-0.5,2.7
				c-0.1,0.4-0.1,0.8-0.1,1.1c0,1.5,0.8,2,1.8,2c1,0,2.1-0.4,3.3-1.1l1.4-8.2C428.8,108.5,427.8,108.4,426.9,108.4z M433.3,100.5
				l-3.7,3.2c-0.3,0.2-0.4,0.3-0.7,0.3h-2.5c-0.1,0-0.2-0.1-0.2-0.2c0-0.1,0.1-0.2,0.2-0.3l3-3.1c0.3-0.3,0.4-0.4,0.7-0.4h3
				c0.2,0,0.3,0.1,0.3,0.2C433.4,100.4,433.4,100.5,433.3,100.5z"/>
			<path class="st2" d="M445.3,105.9c0.4,0.1,0.5,0.2,0.4,0.7l-0.3,1.7c-0.1,0.3-0.2,0.5-0.6,0.4c-0.8-0.1-1.6-0.2-3.3-0.2
				c-1.2,0-2.6,0.7-3.1,3.4l-0.4,2.4c-0.1,0.5-0.1,0.9-0.1,1.3c0,1.8,1,2.1,2,2.1c1.7,0,2.5-0.1,3.4-0.2c0.4-0.1,0.5,0.1,0.5,0.4
				l-0.3,1.7c-0.1,0.4-0.1,0.6-0.7,0.7c-0.6,0.2-1.8,0.3-3.4,0.3c-3,0-5-2-5-5c0-0.4,0.1-0.9,0.1-1.3l0.4-2.4
				c0.9-4.9,3.7-6.3,7.1-6.3C443.6,105.6,444.7,105.8,445.3,105.9z"/>
			<path class="st2" d="M453.9,102.7c0.4-0.1,0.5,0.2,0.5,0.4l-0.5,2.7h2.3c0.3,0,0.5,0.1,0.4,0.5l-0.3,1.5
				c-0.1,0.3-0.2,0.5-0.6,0.5h-2.3l-1.4,8.2c-0.1,0.4-0.1,0.7-0.1,0.9c0,0.5,0.2,0.5,0.9,0.5h1.4c0.3,0,0.5,0,0.5,0.4l-0.3,1.6
				c-0.1,0.3-0.2,0.4-0.6,0.5c-0.7,0.1-1.2,0.2-1.8,0.2c-2.3,0-3.6-0.8-3.6-2.9c0-0.4,0.1-0.8,0.1-1.3l1.4-8.2l-2.4-0.4
				c-0.4-0.1-0.5-0.2-0.4-0.5l0.2-1.2c0.1-0.3,0.2-0.5,0.6-0.5h2.5l0.4-2.1c0.1-0.3,0.3-0.5,0.6-0.5L453.9,102.7z"/>
			<path class="st2" d="M462.2,105.8c0.3,0,0.5,0.1,0.4,0.5l-2.4,13.7c-0.1,0.3-0.2,0.5-0.6,0.5h-2.4c-0.3,0-0.5-0.2-0.4-0.5
				l2.4-13.7c0.1-0.3,0.2-0.5,0.6-0.5H462.2z M463.2,100.5c0.3,0,0.5,0.2,0.4,0.5l-0.4,2.3c-0.1,0.3-0.3,0.5-0.6,0.5h-2.5
				c-0.3,0-0.5-0.2-0.5-0.5l0.4-2.3c0.1-0.3,0.3-0.5,0.6-0.5H463.2z"/>
			<path class="st2" d="M475.1,105.9c0.4,0.1,0.5,0.2,0.4,0.7l-0.3,1.7c-0.1,0.3-0.2,0.5-0.6,0.4c-0.8-0.1-1.6-0.2-3.3-0.2
				c-1.2,0-2.6,0.7-3.1,3.4l-0.4,2.4c-0.1,0.5-0.1,0.9-0.1,1.3c0,1.8,1,2.1,2,2.1c1.7,0,2.5-0.1,3.4-0.2c0.4-0.1,0.5,0.1,0.5,0.4
				l-0.3,1.7c-0.1,0.4-0.1,0.6-0.7,0.7c-0.6,0.2-1.8,0.3-3.4,0.3c-3,0-5-2-5-5c0-0.4,0.1-0.9,0.1-1.3l0.4-2.4
				c0.9-4.9,3.7-6.3,7.1-6.3C473.4,105.6,474.5,105.8,475.1,105.9z"/>
			<path class="st2" d="M489.1,106.3c0.5,0.1,0.7,0.2,0.6,0.7l-2.3,13c-0.1,0.3-0.3,0.5-0.6,0.5h-2.1c-0.3,0-0.5-0.2-0.4-0.5
				l0.1-0.8c-1.5,1.1-2.8,1.5-4,1.5c-2.4,0-4.3-1.5-4.3-4.6c0-0.8,0.1-1.6,0.2-2.1l0.3-1.9c0.7-4.1,3.2-6.6,7.4-6.6
				C485.7,105.6,487.6,105.8,489.1,106.3z M483.5,108.4c-2.2,0-3.1,1.6-3.5,3.7l-0.4,2.2c-0.2,0.9-0.2,1.4-0.2,1.7
				c0,1.5,0.8,1.9,1.8,1.9c1,0,2.1-0.4,3.3-1.1l1.4-8.2C485.5,108.5,484.4,108.4,483.5,108.4z"/>
		</g>
	</g>
	<g>
		<g>
			<path class="st2" d="M255.4,69.7c0.5,0.1,0.5,0.2,0.4,0.5l-0.3,1.7c-0.1,0.3-0.2,0.5-0.6,0.5h-5.3c-1.5,0-2.1,0.5-2.5,2.2
				l-0.5,2.8h7.1c0.5,0,0.5,0.2,0.4,0.5l-0.3,1.9c-0.1,0.3-0.2,0.5-0.6,0.5h-7.1l-1.4,8c-0.1,0.3-0.3,0.5-0.6,0.5h-2.6
				c-0.3,0-0.4-0.2-0.4-0.4c0-0.1,0-0.1,0-0.1l2.4-13.7c0.8-4.4,3.1-5.4,7-5.4C253.1,69.4,254.3,69.5,255.4,69.7z"/>
			<path class="st2" d="M269.1,74.7c0.5,0.1,0.7,0.2,0.6,0.7l-2.3,13c-0.1,0.3-0.3,0.5-0.6,0.5h-2.1c-0.3,0-0.5-0.2-0.4-0.5l0.1-0.8
				c-1.5,1.1-2.8,1.5-4,1.5c-2.4,0-4.3-1.5-4.3-4.6c0-0.8,0.1-1.6,0.2-2.1l0.3-1.9c0.7-4.1,3.2-6.6,7.4-6.6
				C265.6,74.1,267.5,74.3,269.1,74.7z M263.5,76.9c-2.2,0-3.1,1.6-3.5,3.7l-0.4,2.2c-0.2,0.9-0.2,1.4-0.2,1.7
				c0,1.5,0.8,1.9,1.8,1.9c1,0,2.1-0.4,3.3-1.1l1.4-8.2C265.5,77,264.4,76.9,263.5,76.9z"/>
			<path class="st2" d="M281.9,74.6c0.3,0.1,0.4,0.2,0.4,0.6l-0.3,1.5c-0.1,0.4-0.2,0.5-0.6,0.5c-0.7-0.1-2.6-0.3-4.1-0.3
				c-1,0-2,0.1-2,1.1c0,0.4,0.1,0.7,0.8,1.2l3.1,2.1c1.6,1.1,1.9,2.1,1.9,3.3c0,3.3-2.7,4.6-5.8,4.6c-0.9,0-3.1-0.1-4.7-0.5
				c-0.3-0.1-0.4-0.3-0.4-0.6l0.3-1.6c0.1-0.3,0.2-0.5,0.6-0.4c1.2,0.2,3.4,0.3,4.2,0.3c1.3,0,2.2-0.2,2.2-1.5
				c0-0.4-0.2-0.8-0.9-1.3l-2.7-1.9c-1.5-1-2.1-2-2.1-3.7c0-3.1,3-4,5.5-4C278.8,74.1,280.5,74.2,281.9,74.6z"/>
			<path class="st2" d="M296.6,80.9l-0.2,1.3c-0.1,0.4-0.3,0.7-0.6,0.7h-8.5c-0.1,0.4-0.1,0.7-0.1,1.1c0,1.4,0.7,2.3,2.7,2.3
				c1.9,0,3.7-0.2,4.8-0.3c0.3,0,0.5,0.1,0.5,0.4l-0.3,1.7c-0.1,0.4-0.2,0.6-0.7,0.7c-1.8,0.3-2.9,0.4-5.2,0.4
				c-2.3,0-5.1-1.3-5.1-5.2c0-0.5,0-1,0.1-1.6l0.3-1.6c0.9-4.9,3.4-6.7,7.4-6.7c3.5,0,5.1,2.3,5.1,5.4
				C296.8,79.9,296.7,80.4,296.6,80.9z M291.1,77c-2.1,0-3.1,1.4-3.4,3.3h5.5c0.1-0.3,0.1-0.7,0.1-1C293.4,77.8,292.6,77,291.1,77z"
				/>
		</g>
	</g>
	<g>
		<g>
			<path class="st2" d="M233.1,102.7c0.4-0.1,0.5,0.2,0.5,0.4l-0.5,2.7h2.3c0.3,0,0.5,0.1,0.4,0.5l-0.3,1.5
				c-0.1,0.3-0.2,0.5-0.6,0.5h-2.3l-1.4,8.2c-0.1,0.4-0.1,0.7-0.1,0.9c0,0.5,0.2,0.5,0.9,0.5h1.4c0.3,0,0.5,0,0.5,0.4l-0.3,1.6
				c-0.1,0.3-0.2,0.4-0.6,0.5c-0.7,0.1-1.2,0.2-1.8,0.2c-2.3,0-3.6-0.8-3.6-2.9c0-0.4,0.1-0.8,0.1-1.3l1.4-8.2l-2.4-0.4
				c-0.4-0.1-0.5-0.2-0.4-0.5l0.2-1.2c0.1-0.3,0.2-0.5,0.6-0.5h2.5l0.4-2.1c0.1-0.3,0.3-0.5,0.6-0.5L233.1,102.7z"/>
			<path class="st2" d="M249.2,112.4l-0.2,1.3c-0.1,0.4-0.3,0.7-0.6,0.7h-8.5c-0.1,0.4-0.1,0.7-0.1,1.1c0,1.4,0.7,2.3,2.7,2.3
				c1.9,0,3.7-0.2,4.8-0.3c0.3,0,0.5,0.1,0.5,0.4l-0.3,1.7c-0.1,0.4-0.2,0.6-0.7,0.7c-1.7,0.3-2.9,0.4-5.2,0.4
				c-2.3,0-5.1-1.3-5.1-5.2c0-0.5,0-1,0.1-1.6l0.3-1.6c0.9-4.9,3.4-6.7,7.4-6.7c3.5,0,5.1,2.3,5.1,5.4
				C249.3,111.4,249.3,111.9,249.2,112.4z M243.7,108.5c-2.1,0-3.1,1.4-3.4,3.3h5.5c0.1-0.3,0.1-0.7,0.1-1
				C245.9,109.4,245.1,108.5,243.7,108.5z"/>
			<path class="st2" d="M264.3,112.1l-0.4,2.1c-0.8,4.3-3.3,6.5-7.4,6.5c-3.6,0-5.2-2.5-5.2-5.2c0-0.4,0-0.8,0.1-1.3l0.4-2.1
				c0.8-4.3,3.3-6.5,7.4-6.5c3.6,0,5.2,2.4,5.2,5.1C264.4,111.2,264.3,111.6,264.3,112.1z M258.6,108.5c-1.6,0-3,0.9-3.4,3.5
				l-0.4,2.1c-0.1,0.4-0.1,0.8-0.1,1.1c0,1.5,0.8,2.4,2.3,2.4c1.8,0,3-1.1,3.4-3.5l0.4-2.1c0.1-0.4,0.1-0.8,0.1-1.1
				C260.9,109.4,260.2,108.5,258.6,108.5z M264.1,100.5l-3.7,3.2c-0.3,0.2-0.4,0.3-0.7,0.3h-2.5c-0.1,0-0.2-0.1-0.2-0.2
				c0-0.1,0.1-0.2,0.2-0.3l3-3.1c0.3-0.3,0.4-0.4,0.7-0.4h3c0.2,0,0.3,0.1,0.3,0.2C264.3,100.4,264.2,100.5,264.1,100.5z"/>
			<path class="st2" d="M275.8,106.1l-0.3,1.9c-0.1,0.3-0.2,0.5-0.6,0.5c-0.8,0-2,0.1-3.8,0.9l-1.9,10.5c-0.1,0.3-0.1,0.5-0.6,0.5
				h-2.4c-0.3,0-0.5-0.2-0.4-0.5l2.4-13.7c0.1-0.3,0.2-0.5,0.6-0.5h2.3c0.4,0,0.5,0.1,0.4,0.5l-0.1,0.5c1.5-1.1,2.9-1.3,4-1.3
				c0.3,0,0.4,0.2,0.4,0.4C275.8,106,275.8,106.1,275.8,106.1z"/>
			<path class="st2" d="M281.1,105.8c0.3,0,0.5,0.1,0.4,0.5l-2.4,13.7c-0.1,0.3-0.2,0.5-0.6,0.5h-2.4c-0.3,0-0.5-0.2-0.4-0.5
				l2.4-13.7c0.1-0.3,0.2-0.5,0.6-0.5H281.1z M282.1,100.5c0.3,0,0.5,0.2,0.4,0.5l-0.4,2.3c-0.1,0.3-0.3,0.5-0.6,0.5H279
				c-0.3,0-0.5-0.2-0.5-0.5l0.4-2.3c0.1-0.3,0.3-0.5,0.6-0.5H282.1z"/>
			<path class="st2" d="M294,105.9c0.4,0.1,0.5,0.2,0.4,0.7l-0.3,1.7c-0.1,0.3-0.2,0.5-0.6,0.4c-0.8-0.1-1.6-0.2-3.3-0.2
				c-1.2,0-2.6,0.7-3.1,3.4l-0.4,2.4c-0.1,0.5-0.1,0.9-0.1,1.3c0,1.8,1,2.1,2,2.1c1.7,0,2.5-0.1,3.4-0.2c0.4-0.1,0.5,0.1,0.5,0.4
				l-0.3,1.7c-0.1,0.4-0.1,0.6-0.7,0.7c-0.6,0.2-1.8,0.3-3.4,0.3c-3,0-5-2-5-5c0-0.4,0.1-0.9,0.1-1.3l0.4-2.4
				c0.9-4.9,3.7-6.3,7.1-6.3C292.3,105.6,293.4,105.8,294,105.9z"/>
			<path class="st2" d="M308,106.3c0.5,0.1,0.7,0.2,0.6,0.7l-2.3,13c-0.1,0.3-0.3,0.5-0.6,0.5h-2.1c-0.3,0-0.5-0.2-0.4-0.5l0.1-0.8
				c-1.5,1.1-2.8,1.5-4,1.5c-2.4,0-4.3-1.5-4.3-4.6c0-0.8,0.1-1.6,0.2-2.1l0.3-1.9c0.7-4.1,3.2-6.6,7.4-6.6
				C304.6,105.6,306.5,105.8,308,106.3z M302.4,108.4c-2.2,0-3.1,1.6-3.5,3.7l-0.4,2.2c-0.2,0.9-0.2,1.4-0.2,1.7
				c0,1.5,0.8,1.9,1.8,1.9c1,0,2.1-0.4,3.3-1.1l1.4-8.2C304.4,108.5,303.4,108.4,302.4,108.4z"/>
		</g>
	</g>
	<g>
		<path class="st3" d="M603.2,70.5l-0.9,5.4c-0.1,0.4-0.2,0.7-0.9,0.7h-7.2c-0.9,0-1.2,0.3-1.4,1.2l-0.4,1.9h8.4
			c0.4,0,0.6,0.2,0.6,0.7l-0.9,5.1c-0.1,0.4-0.3,0.7-0.9,0.7h-8.4l-1.7,9.5c-0.1,0.4-0.5,0.7-0.9,0.7h-7c-0.4,0-0.7-0.3-0.6-0.7
			l3.2-18c1.3-7.6,6.1-8.4,11.2-8.4c3.1,0,5.7,0.2,7.2,0.4C603.1,69.8,603.3,70.1,603.2,70.5z"/>
		<path class="st3" d="M623.3,96.5h-7.5c-0.4,0-0.6-0.3-0.6-0.7l0-4h-5.5l-1.3,4c-0.1,0.4-0.5,0.7-0.9,0.7h-7.5
			c-0.3,0-0.5-0.1-0.5-0.4c0-0.1,0-0.2,0.1-0.3l8.1-21.7c1.4-3.7,4.4-4.6,8.7-4.6s6.9,1,7,4.6l0.5,21.7v0
			C624,96.2,623.7,96.5,623.3,96.5z M615.3,76.3c-0.3,0-0.3,0.2-0.4,0.5l-2.8,8.4h3.3l0.1-8.4c0-0.1,0-0.1,0-0.2
			C615.6,76.4,615.5,76.3,615.3,76.3z"/>
		<path class="st3" d="M649.5,71.1l-0.9,5.4c-0.1,0.4-0.2,0.8-0.8,0.7c-1.9-0.2-6-0.5-8.7-0.5c-0.4,0-0.9,0.2-0.9,0.6
			c0,0.3,0.2,0.6,1.2,1.1l4.6,2.7c2.5,1.5,3.5,3.7,3.5,5.8c0,6.9-5.9,9.9-12.2,9.9c-3.1,0-5.6-0.5-7.5-1.1c-0.3-0.1-0.7-0.3-0.6-0.7
			l0.9-5.4c0.1-0.4,0.2-0.8,0.9-0.7c1.5,0.1,5.3,0.6,7.6,0.6c0.8,0,1.5-0.4,1.5-1.1c0-0.5-0.2-0.8-0.8-1.2l-4.9-3.1
			c-2.4-1.5-3.1-4-3.1-6c0-6.7,5.1-8.8,11.1-8.8c3.1,0,7.1,0.5,8.6,1C649.2,70.5,649.5,70.7,649.5,71.1z"/>
		<path class="st3" d="M671.1,70.5l-0.9,5.4c-0.1,0.4-0.3,0.7-0.9,0.7h-7.2c-0.9,0-1.2,0.3-1.4,1.2l-0.4,1.9h8.4
			c0.4,0,0.7,0.3,0.6,0.7l-0.9,5.1c-0.1,0.4-0.5,0.7-0.9,0.7h-8.4l-0.3,1.8c-0.1,0.6-0.1,0.7-0.1,0.9c0,0.5,0.3,0.7,1,0.7h7.2
			c0.4,0,0.6,0.3,0.6,0.7l-0.9,5.4c-0.1,0.4-0.2,0.6-0.9,0.7c-1.5,0.2-4.2,0.4-7.3,0.4c-4.5,0-8.4-1.5-8.4-6.4c0-0.6,0-1.3,0.2-2
			l1.9-10.6c1.4-8.1,6.6-8.4,11.2-8.4c3.1,0,5.7,0.2,7.2,0.4C671,69.8,671.2,70.1,671.1,70.5z"/>
	</g>
	<g>
		<path class="st3" d="M595.2,102l-0.9,5.4c-0.1,0.4-0.2,0.7-0.9,0.7h-7.2c-0.9,0-1.2,0.3-1.4,1.2l-0.4,1.9h8.4
			c0.4,0,0.6,0.2,0.6,0.7l-0.9,5.1c-0.1,0.4-0.3,0.7-0.9,0.7h-8.4l-1.7,9.5c-0.1,0.4-0.5,0.7-0.9,0.7h-7c-0.4,0-0.7-0.3-0.6-0.7
			l3.2-18c1.3-7.6,6.1-8.4,11.2-8.4c3.1,0,5.7,0.2,7.2,0.4C595.1,101.3,595.3,101.6,595.2,102z"/>
	</g>
	<g>
		<path class="st3" d="M607.7,102l-4.4,25.3c-0.1,0.4-0.2,0.7-0.9,0.7h-7c-0.5,0-0.7-0.3-0.6-0.7l4.4-25.3c0.1-0.4,0.3-0.7,0.9-0.7
			h7C607.5,101.3,607.7,101.5,607.7,102z"/>
		<path class="st3" d="M635.1,102l-4.4,24.8c-0.1,0.7-0.4,1.3-1.5,1.3h-6.2c-0.5,0-0.8-0.4-1-0.8l-4.2-9.9c-0.1-0.3-0.2-0.3-0.3-0.3
			c0,0,0,0,0,0c-0.1,0-0.2,0.1-0.3,0.3l-1.7,9.9c-0.1,0.4-0.3,0.7-0.9,0.7h-6.6c-0.4,0-0.7-0.2-0.6-0.7l4.4-24.8
			c0.1-0.7,0.5-1.3,1.5-1.3h5.9c0.6,0,1,0.5,1.2,1l4.3,9.9c0.1,0.3,0.3,0.3,0.3,0.3c0.1,0,0.1,0,0.2-0.3l1.8-10.2
			c0.1-0.4,0.3-0.7,0.9-0.7h6.6C635.1,101.3,635.2,101.6,635.1,102z"/>
		<path class="st3" d="M657.2,128h-7.5c-0.4,0-0.6-0.3-0.6-0.7l0-4h-5.5l-1.3,4c-0.1,0.4-0.5,0.7-0.9,0.7h-7.5
			c-0.3,0-0.5-0.1-0.5-0.4c0-0.1,0-0.2,0.1-0.3l8.1-21.7c1.4-3.7,4.4-4.6,8.7-4.6s6.9,1,7,4.6l0.5,21.7v0
			C657.9,127.7,657.6,128,657.2,128z M649.2,107.8c-0.3,0-0.3,0.2-0.4,0.5l-2.8,8.4h3.3l0.1-8.4c0-0.1,0-0.1,0-0.2
			C649.4,107.9,649.4,107.8,649.2,107.8z"/>
		<path class="st3" d="M676.7,121.8l-0.9,5.4c-0.1,0.4-0.3,0.6-0.9,0.7c-1.5,0.3-3.6,0.4-5.5,0.4c-4.1,0-8.4-1.1-8.4-6.3
			c0-0.6,0-1.3,0.2-2.1l3.2-18c0.1-0.4,0.3-0.7,0.9-0.7h7c0.4,0,0.7,0.2,0.6,0.7l-3.2,18c0,0.1,0,0.3,0,0.4c0,0.6,0.3,0.7,1,0.7h5.4
			C676.5,121.1,676.8,121.3,676.7,121.8z"/>
	</g>
	<path class="st4" d="M95.5,157.8h-6.3c-6.6-10.1-11.5-11.8-24-11.8H29.6c-14.7,0-19.2-6.1-19.2-23.5v-8.8c0-2.1,1.2-3.6,3-3.6h1.4
		c1.7,0,2.8,1.5,2.8,3.6v8.8c0,12.8,1.9,15.1,12.1,15.1h35.7c12.4,0,20.1,2.5,27.3,12.2c6.8-9.3,14.5-12.2,26.9-12.2h35.7
		c10.1,0,12.1-2.3,12.1-15.1v-8.8c0-2.1,1-3.6,2.8-3.6h1.4c1.7,0,3,1.5,3,3.6v8.8c0,17.7-4.5,23.5-19.2,23.5h-35.7
		C107,146,102.1,147.7,95.5,157.8"/>
	<path class="st4" d="M448.1,157.8h-6.3c-6.6-10.1-11.5-11.8-24-11.8h-35.7c-14.7,0-19.2-6.1-19.2-23.5v-8.8c0-2.1,1.2-3.6,3-3.6
		h1.4c1.7,0,2.8,1.5,2.8,3.6v8.8c0,12.8,1.9,15.1,12.1,15.1h35.7c12.4,0,20.1,2.5,27.3,12.2c6.8-9.3,14.5-12.2,26.9-12.2h35.7
		c10.1,0,12.1-2.3,12.1-15.1v-8.8c0-2.1,1-3.6,2.8-3.6h1.4c1.7,0,3,1.5,3,3.6v8.8c0,17.7-4.5,23.5-19.2,23.5h-35.7
		C459.7,146,454.8,147.7,448.1,157.8"/>
	<path class="st4" d="M272.5,157.8h-6.3c-6.6-10.1-11.5-11.8-24-11.8h-35.7c-14.7,0-19.2-6.1-19.2-23.5v-8.8c0-2.1,1.2-3.6,3-3.6
		h1.4c1.7,0,2.8,1.5,2.8,3.6v8.8c0,12.8,1.9,15.1,12.1,15.1h35.7c12.4,0,20.1,2.5,27.3,12.2c6.8-9.3,14.5-12.2,26.9-12.2h35.7
		c10.1,0,12.1-2.3,12.1-15.1v-8.8c0-2.1,1-3.6,2.8-3.6h1.4c1.7,0,3,1.5,3,3.6v8.8c0,17.7-4.5,23.5-19.2,23.5h-35.7
		C284,146,279.1,147.7,272.5,157.8"/>
</g>
</svg>
