<?xml version="1.0" encoding="utf-8"?>
<!-- Generator: Adobe Illustrator 19.2.1, SVG Export Plug-In . SVG Version: 6.00 Build 0)  -->
<svg version="1.1" id="Text" xmlns="http://www.w3.org/2000/svg" xmlns:xlink="http://www.w3.org/1999/xlink" x="0px" y="0px"
	 viewBox="0 0 500 294" style="enable-background:new 0 0 500 294;" xml:space="preserve">
<style type="text/css">
	.st0{fill:#FFFFFF;}
	.st1{fill:#58595B;}
	.st2{fill:#808285;}
	.st3{fill:#F8C44F;}
	.st4{fill:#F7C869;}
	.st5{fill:#EA5560;}
	.st6{fill:#C74852;}
	.st7{fill:#726658;}
	.st8{fill:#BD454D;}
	.st9{fill:#FCCAA4;}
	.st10{fill:#E5AE41;}
	.st11{fill:#78675E;}
	.st12{fill:#AA701B;}
	.st13{fill:#935C14;}
	.st14{fill:#9B8579;}
	.st15{fill:#BCBEC0;}
	.st16{fill:#939598;}
	.st17{fill:#6D6E71;}
	.st18{fill:#E6E7E8;}
	.st19{fill:#20C697;}
	.st20{fill:#8E612B;}
	.st21{fill:#A36F31;}
	.st22{fill:#F1F2F2;}
	.st23{fill:#231F20;}
</style>
<g>
	<g>
		<path class="st0" d="M431.8,81.6c-7.5,0-13.6,5-13.6,11.2c0,5.2,4.4,9.6,10.2,10.8v8l3.2-3c2.9-2.7,6.1-5.2,9.3-7.6
			c2.7-2,4.5-5,4.5-8.3C445.4,86.6,439.3,81.6,431.8,81.6z"/>
		<path class="st1" d="M431.8,79.5c-8.7,0-15.7,6-15.7,13.3c0,5.6,4.1,10.6,10.2,12.5v6.4c0,0.8,0.5,1.6,1.3,1.9
			c0.3,0.1,0.6,0.2,0.8,0.2c0.5,0,1.1-0.2,1.5-0.6l3.2-3c2.9-2.7,6.1-5.2,9.1-7.4c3.4-2.5,5.3-6.2,5.3-10
			C447.5,85.4,440.5,79.5,431.8,79.5z M441,101c-3.2,2.4-6.4,4.8-9.3,7.6l-3.2,3v-8c-5.9-1.2-10.2-5.6-10.2-10.8
			c0-6.2,6.1-11.2,13.6-11.2s13.6,5,13.6,11.2C445.4,96,443.7,99,441,101z"/>
	</g>
	<g>
		<g>
			<polygon class="st0" points="97.5,248.1 97.5,216.9 94,216.9 94,248.1 82.4,248.1 78.9,248.1 78.9,252.4 78.9,256.8 82.4,256.8 
				82.4,252.4 94,252.4 94,256.8 97.5,256.8 97.5,252.4 108.9,252.4 108.9,256.8 112.5,256.8 112.5,252.4 112.5,248.1 108.9,248.1 
							"/>
			<path class="st1" d="M112.5,246H109h-9.3v-29.1c0-1.2-1-2.1-2.1-2.1H94c-1.2,0-2.1,1-2.1,2.1V246h-9.5h-3.5c-1.2,0-2.1,1-2.1,2.1
				v4.2v4.4c0,1.2,1,2.1,2.1,2.1h3.5c1.2,0,2.1-1,2.1-2.1v-2.3h7.4v2.3c0,1.2,1,2.1,2.1,2.1h3.5c1.2,0,2.1-1,2.1-2.1v-2.3h7.1v2.3
				c0,1.2,1,2.1,2.1,2.1h3.5c1.2,0,2.1-1,2.1-2.1v-4.4v-4.2C114.6,247,113.6,246,112.5,246z M112.5,252.4v4.4H109v-4.4H97.5v4.4H94
				v-4.4H82.4v4.4h-3.5v-4.4v-4.2h3.5H94v-31.3h3.5v31.3h11.4h3.5L112.5,252.4L112.5,252.4z"/>
		</g>
		<rect x="94" y="216.9" class="st2" width="3.5" height="6"/>
		<g>
			<path class="st0" d="M117.2,210.9H83.3L74,146.8c-0.2-1.9-2-3.2-3.8-3c-1.9,0.2-3.2,2-3,3.8l9.7,67.1c0.2,1.7,1.7,3,3.4,3h37
				c1.9,0,3.5-1.5,3.5-3.4C120.7,212.4,119.1,210.9,117.2,210.9z"/>
			<path class="st1" d="M117.2,208.7h-32l-9-62.2c-0.4-2.8-2.7-4.9-5.5-4.9c-0.2,0-0.5,0-0.7,0c-1.5,0.2-2.8,0.9-3.7,2.1
				c-0.9,1.2-1.3,2.6-1.1,4.1l0,0l9.7,67.1c0.4,2.8,2.7,4.9,5.5,4.9h37c3.1,0,5.6-2.5,5.6-5.6C122.8,211.2,120.3,208.7,117.2,208.7z
				 M117.2,217.8h-37c-1.7,0-3.2-1.3-3.4-3l-9.7-67.1c-0.2-1.9,1.1-3.6,3-3.8c0.1,0,0.3,0,0.4,0c1.7,0,3.2,1.3,3.4,3l9.3,64.1h33.9
				c1.9,0,3.5,1.5,3.5,3.5C120.7,216.2,119.1,217.8,117.2,217.8z"/>
		</g>
		<g>
			<circle class="st2" cx="80.1" cy="260.5" r="2.9"/>
			<path class="st1" d="M80.1,255.5c-2.8,0-5,2.2-5,5s2.2,5,5,5s5-2.2,5-5S82.8,255.5,80.1,255.5z M80.1,263.3
				c-1.6,0-2.9-1.3-2.9-2.9s1.3-2.9,2.9-2.9s2.9,1.3,2.9,2.9C82.9,262.1,81.7,263.3,80.1,263.3z"/>
		</g>
		<g>
			<circle class="st2" cx="95.3" cy="260.5" r="2.9"/>
			<path class="st1" d="M95.3,255.5c-2.8,0-5,2.2-5,5s2.2,5,5,5s5-2.2,5-5S98.1,255.5,95.3,255.5z M95.3,263.3
				c-1.6,0-2.9-1.3-2.9-2.9s1.3-2.9,2.9-2.9s2.9,1.3,2.9,2.9C98.2,262.1,96.9,263.3,95.3,263.3z"/>
		</g>
		<g>
			<circle class="st2" cx="110.7" cy="260.5" r="2.9"/>
			<path class="st1" d="M110.7,255.5c-2.8,0-5,2.2-5,5s2.2,5,5,5s5-2.2,5-5S113.5,255.5,110.7,255.5z M110.7,263.3
				c-1.6,0-2.9-1.3-2.9-2.9s1.3-2.9,2.9-2.9s2.9,1.3,2.9,2.9C113.6,262.1,112.3,263.3,110.7,263.3z"/>
		</g>
		<g>
			<rect x="91.9" y="230.1" class="st0" width="8" height="9.1"/>
			<path class="st1" d="M99.8,228h-8c-1.2,0-2.1,1-2.1,2.1v9.1c0,1.2,1,2.1,2.1,2.1h8c1.2,0,2.1-1,2.1-2.1v-9.1
				C102,228.9,101,228,99.8,228z M99.8,239.3h-8v-9.1h8V239.3z"/>
		</g>
	</g>
	<g>
		<g>
			<polygon class="st0" points="404.9,248.1 404.9,216.9 401.4,216.9 401.4,248.1 390,248.1 386.5,248.1 386.5,252.4 386.5,256.8 
				390,256.8 390,252.4 401.4,252.4 401.4,256.8 404.9,256.8 404.9,252.4 416.5,252.4 416.5,256.8 420.1,256.8 420.1,252.4 
				420.1,248.1 416.5,248.1 			"/>
			<path class="st1" d="M420.1,246h-3.5h-9.5v-29.1c0-1.2-1-2.1-2.1-2.1h-3.5c-1.2,0-2.1,1-2.1,2.1V246H390h-3.5
				c-1.2,0-2.1,1-2.1,2.1v4.2v4.4c0,1.2,1,2.1,2.1,2.1h3.5c1.2,0,2.1-1,2.1-2.1v-2.3h7.1v2.3c0,1.2,1,2.1,2.1,2.1h3.5
				c1.2,0,2.1-1,2.1-2.1v-2.3h7.4v2.3c0,1.2,1,2.1,2.1,2.1h3.5c1.2,0,2.1-1,2.1-2.1v-4.4v-4.2C422.2,247,421.2,246,420.1,246z
				 M420.1,252.4v4.4h-3.5v-4.4H405v4.4h-3.5v-4.4H390v4.4h-3.5v-4.4v-4.2h3.5h11.4v-31.3h3.5v31.3h11.6h3.5v4.2H420.1z"/>
		</g>
		<rect x="401.4" y="216.9" class="st2" width="3.5" height="6"/>
		<g>
			<path class="st0" d="M428.8,143.8c-1.9-0.2-3.6,1.1-3.8,3l-9.3,64.1h-33.9c-1.9,0-3.4,1.5-3.4,3.5c0,1.9,1.5,3.4,3.4,3.4h37
				c1.7,0,3.2-1.3,3.4-3l9.7-67.1C432,145.8,430.7,144,428.8,143.8z"/>
			<path class="st1" d="M429.1,141.7c-0.2,0-0.5,0-0.7,0c-2.8,0-5.2,2.1-5.5,4.9l-9,62.2h-32.1c-3.1,0-5.6,2.5-5.6,5.6
				s2.5,5.6,5.6,5.6h37c2.8,0,5.2-2.1,5.5-4.9L434,148l0,0C434.3,144.9,432.1,142.1,429.1,141.7z M431.8,147.7l-9.7,67.1
				c-0.2,1.7-1.7,3-3.4,3h-37c-1.9,0-3.4-1.5-3.4-3.4s1.5-3.5,3.4-3.5h33.9l9.3-64.1c0.2-1.7,1.7-3,3.4-3c0.1,0,0.3,0,0.4,0
				C430.7,144,432,145.8,431.8,147.7z"/>
		</g>
		<g>
			<circle class="st2" cx="418.9" cy="260.5" r="2.9"/>
			<path class="st1" d="M418.9,255.5c-2.8,0-5,2.2-5,5s2.2,5,5,5s5-2.2,5-5S421.7,255.5,418.9,255.5z M418.9,263.3
				c-1.6,0-2.9-1.3-2.9-2.9s1.3-2.9,2.9-2.9s2.9,1.3,2.9,2.9C421.8,262.1,420.5,263.3,418.9,263.3z"/>
		</g>
		<g>
			<circle class="st2" cx="403.7" cy="260.5" r="2.9"/>
			<path class="st1" d="M403.7,255.5c-2.8,0-5,2.2-5,5s2.2,5,5,5s5-2.2,5-5S406.4,255.5,403.7,255.5z M403.7,263.3
				c-1.6,0-2.9-1.3-2.9-2.9s1.3-2.9,2.9-2.9s2.9,1.3,2.9,2.9C406.6,262.1,405.3,263.3,403.7,263.3z"/>
		</g>
		<g>
			<circle class="st2" cx="388.3" cy="260.5" r="2.9"/>
			<path class="st1" d="M388.3,255.5c-2.8,0-5,2.2-5,5s2.2,5,5,5s5-2.2,5-5S391,255.5,388.3,255.5z M388.3,263.3
				c-1.6,0-2.9-1.3-2.9-2.9s1.3-2.9,2.9-2.9s2.9,1.3,2.9,2.9C391.2,262.1,389.9,263.3,388.3,263.3z"/>
		</g>
		<g>
			<rect x="399.2" y="230.1" class="st0" width="8" height="9.1"/>
			<path class="st1" d="M407.1,228h-8c-1.2,0-2.1,1-2.1,2.1v9.1c0,1.2,1,2.1,2.1,2.1h8c1.2,0,2.1-1,2.1-2.1v-9.1
				C409.3,228.9,408.3,228,407.1,228z M407.1,239.3h-8v-9.1h8V239.3z"/>
		</g>
	</g>
	<g>
		<path class="st1" d="M257.5,22.5c-0.6,0-1.1,0.5-1.1,1.1v23.9c0,0.6,0.5,1.1,1.1,1.1s1.1-0.5,1.1-1.1V23.6
			C258.6,23,258.1,22.5,257.5,22.5z"/>
		<polygon class="st3" points="249,59.3 151,181.1 370.2,181.1 264.6,57.4 		"/>
		<g>
			<g>
				<circle class="st4" cx="257.5" cy="73" r="8.5"/>
				<path class="st1" d="M257.5,62.4c-5.9,0-10.7,4.8-10.7,10.7c0,5.9,4.8,10.7,10.7,10.7s10.7-4.8,10.7-10.7
					C268.2,67.2,263.4,62.4,257.5,62.4z M257.5,81.6c-4.7,0-8.5-3.8-8.5-8.5s3.8-8.5,8.5-8.5c4.7,0,8.5,3.8,8.5,8.5
					C266.1,77.8,262.2,81.6,257.5,81.6z"/>
			</g>
			<g>
				<polygon class="st5" points="258.4,57.4 256.6,57.4 250.4,57.4 240.7,69.9 256.6,69.9 258.4,69.9 274.3,69.9 264.6,57.4 				"/>
				<path class="st1" d="M266.3,56.1c-0.4-0.5-1-0.8-1.7-0.8h-6.2h-1.9h-6.2c-0.7,0-1.3,0.3-1.7,0.8L239,68.6
					c-0.5,0.6-0.6,1.5-0.2,2.2c0.4,0.7,1.1,1.2,1.9,1.2h15.9h1.9h15.9c0.8,0,1.6-0.5,1.9-1.2c0.4-0.7,0.3-1.6-0.2-2.2L266.3,56.1z
					 M258.4,69.9h-1.9h-15.9l9.7-12.5h6.2h1.9h6.2l9.7,12.5H258.4z"/>
			</g>
			<g>
				<polygon class="st5" points="256.6,48.4 250.4,48.4 250.4,55.9 256.6,55.9 258.4,55.9 264.6,55.9 264.6,48.4 258.4,48.4 				"/>
				<path class="st1" d="M264.6,46.3h-6.2h-1.9h-6.2c-1.2,0-2.1,1-2.1,2.1v7.4c0,1.2,1,2.1,2.1,2.1h6.2h1.9h6.2c1.2,0,2.1-1,2.1-2.1
					v-7.4C266.8,47.3,265.8,46.3,264.6,46.3z M264.6,55.9h-6.2h-1.9h-6.2v-7.4h6.2h1.9h6.2V55.9z"/>
			</g>
			<rect x="250.4" y="53.5" class="st6" width="14.2" height="2.3"/>
			<polygon class="st6" points="242.7,67.3 240.7,69.9 256.6,69.9 258.4,69.9 274.3,69.9 272.3,67.3 			"/>
		</g>
	</g>
	<g>
		<g>
			<polygon class="st7" points="156.4,248.4 156.4,255 176.8,255 176.8,251.7 168.5,247.2 			"/>
			<path class="st1" d="M177.8,249.8l-8.3-4.5c-0.3-0.2-0.7-0.3-1-0.3c-0.1,0-0.1,0-0.2,0l-12.1,1.2c-1.1,0.1-1.9,1-1.9,2.1v6.6
				c0,1.2,1,2.1,2.1,2.1h20.5c1.2,0,2.1-1,2.1-2.1v-3.3C179,250.9,178.5,250.2,177.8,249.8z M176.8,255h-20.5v-6.6l12.1-1.2l8.3,4.5
				L176.8,255L176.8,255z"/>
		</g>
		<g>
			<polygon class="st7" points="142.5,255.7 142.5,262.3 163,262.3 163,259 154.7,254.5 			"/>
			<path class="st1" d="M164,257.1l-8.3-4.5c-0.3-0.2-0.7-0.3-1-0.3c-0.1,0-0.1,0-0.2,0l-12.1,1.2c-1.1,0.1-1.9,1-1.9,2.1v6.6
				c0,1.2,1,2.1,2.1,2.1H163c1.2,0,2.1-1,2.1-2.1V259C165.1,258.2,164.7,257.5,164,257.1z M163,262.3h-20.5v-6.6l12.1-1.2l8.3,4.5
				L163,262.3L163,262.3z"/>
		</g>
		<g>
			<polygon class="st5" points="124.4,195.7 119.9,200 125.9,200.9 151,249.8 165.2,244.9 141.3,195.7 			"/>
			<path class="st1" d="M143.2,194.8c-0.4-0.7-1.1-1.2-1.9-1.2h-16.9c-0.6,0-1.1,0.2-1.5,0.6l-4.4,4.3c-0.6,0.6-0.8,1.4-0.5,2.2
				c0.2,0.8,0.9,1.3,1.7,1.5l4.9,0.7l24.5,48c0.4,0.7,1.1,1.2,1.9,1.2c0.2,0,0.5,0,0.7-0.1l14.2-5c0.6-0.2,1-0.6,1.3-1.2
				c0.2-0.6,0.2-1.2-0.1-1.7L143.2,194.8z M151,249.8l-25-48.9l-6-0.9l4.4-4.3h16.9l23.9,49.2L151,249.8z"/>
		</g>
		<g>
			<path class="st5" d="M124.4,197.8v-10.6l-37.9,1.5v10.8c0,6,4.9,10.9,10.9,10.9h22.9l19.8,48.1l13.4-5.4l-18.9-53.9L124.4,197.8z
				"/>
			<path class="st1" d="M136.6,198.4c-0.3-0.8-0.9-1.3-1.7-1.4l-8.3-1.1v-8.7c0-0.6-0.2-1.1-0.7-1.5c-0.4-0.4-0.9-0.6-1.5-0.6h-0.1
				l-37.9,1.5c-1.1,0-2,1-2,2.1v10.8c0,7.2,5.8,13,13,13h21.5l19.2,46.8c0.3,0.8,1.1,1.3,2,1.3c0.3,0,0.5,0,0.8-0.2l13.4-5.4
				c1.1-0.4,1.6-1.6,1.2-2.7L136.6,198.4z M140,258.4l-19.8-48.1H97.4c-6,0-10.9-4.9-10.9-10.9v-10.8l37.9-1.5v10.6l10.2,1.4
				l18.9,53.9L140,258.4z"/>
		</g>
		<polygon class="st8" points="86.4,192.1 124.4,192.1 124.4,187.2 86.4,188.6 		"/>
		<g>
			<g>
				<path class="st0" d="M166.6,158.5l-28-0.5L123,138c-1.9-2.4-5.4-2.8-7.8-0.9c-2.4,1.9-2.8,5.4-0.9,7.8l17.3,22
					c1,1.3,2.6,2.1,4.3,2.1l30.6,0.6c2.5,0,4.6-1.5,5.4-3.7c0.2-0.5,0.3-1.1,0.3-1.7C172.1,161.1,169.7,158.5,166.6,158.5z"/>
				<path class="st1" d="M166.6,156.4l-26.9-0.5l-15.1-19.2c-1.5-1.9-3.7-2.9-6-2.9l0,0c-1.7,0-3.4,0.6-4.7,1.6
					c-3.3,2.6-3.9,7.5-1.3,10.8l17.3,22c1.4,1.8,3.6,2.9,5.9,2.9l30.6,0.6h0.1c3.3,0,6.2-2.1,7.3-5.2c0.3-0.8,0.4-1.6,0.4-2.4
					c0-2.1-0.7-4-2.2-5.5C170.6,157.2,168.7,156.4,166.6,156.4z M171.8,165.9c-0.8,2.2-2.8,3.7-5.3,3.7h-0.1l-30.6-0.6
					c-1.7,0-3.2-0.8-4.3-2.1l-17.3-22c-1.9-2.4-1.5-5.9,0.9-7.8c1-0.8,2.2-1.2,3.4-1.2c1.6,0,3.3,0.7,4.4,2.1l15.7,20l28,0.5
					c3.1,0.1,5.5,2.6,5.5,5.7C172.1,164.7,171.9,165.3,171.8,165.9z"/>
			</g>
		</g>
		<g>
			<path class="st9" d="M116.8,115.5V110c0-6.4-5.2-11.8-11.6-11.7C99,98.5,94,103.5,94,109.7v2.3h-1.6c-1.6,0-3.1,1-3.6,2.6
				c-0.6,2.2,1,4.3,3.2,4.3h2v17.4h22.7v-13.2h2.9c0.5,0,0.9-0.6,0.7-1.1L116.8,115.5z"/>
			<path class="st1" d="M118.9,115v-5c0-7.6-6.1-13.8-13.5-13.8c-0.1,0-0.2,0-0.3,0c-7.3,0.1-13.3,6.2-13.3,13.5v0.2
				c-2.4,0.2-4.4,1.8-5.1,4.1c-0.5,1.7-0.2,3.4,0.9,4.8c1,1.3,2.6,2.1,4.2,2.2v15.3c0,1.2,1,2.1,2.1,2.1h22.7c1.2,0,2.1-1,2.1-2.1
				v-11.1h0.7c1,0,1.9-0.5,2.4-1.4s0.6-1.9,0.1-2.8L118.9,115z M119.5,123.2h-2.9v13.2H94V119h-2c-2.1,0-3.8-2-3.2-4.3
				c0.4-1.6,1.9-2.6,3.6-2.6H94v-2.3c0-6.2,5-11.3,11.2-11.4c0.1,0,0.1,0,0.2,0c6.3,0,11.4,5.3,11.4,11.7v5.5l3.4,6.6
				C120.4,122.6,120.1,123.2,119.5,123.2z"/>
		</g>
		<g>
			<path class="st3" d="M91.8,101.3l1.6,8.9h1.8l-0.2,8.5h3.5v-12h18.6l5-15.6h-21.4C95.3,91.1,91.1,95.9,91.8,101.3z"/>
			<path class="st1" d="M122.2,88.9L122.2,88.9h-21.4c-3.2,0-6.3,1.4-8.4,3.8s-3.1,5.6-2.7,8.8v0.1l1.6,8.9c0.2,0.9,0.9,1.6,1.7,1.7
				l-0.2,6.4c0,0.6,0.2,1.1,0.6,1.5s0.9,0.6,1.5,0.6h3.5c1.2,0,2.1-1,2.1-2.1v-9.9H117c0.9,0,1.7-0.6,2-1.5l5-15.5
				c0.1-0.2,0.1-0.5,0.1-0.7C124.3,89.9,123.4,88.9,122.2,88.9z M122.2,91.1l-5,15.6H98.5v12H95l0.2-8.5h-1.8l-1.6-8.9
				c-0.7-5.4,3.5-10.2,9-10.2H122.2L122.2,91.1L122.2,91.1z"/>
		</g>
		<path class="st1" d="M111.9,112.6H107c-0.6,0-1.1,0.5-1.1,1.1s0.5,1.1,1.1,1.1h4.9c0.6,0,1.1-0.5,1.1-1.1S112.4,112.6,111.9,112.6
			z"/>
		<path class="st1" d="M109.7,114.5c-0.6,0-1.1,0.5-1.1,1.1v3.2c0,0.6,0.5,1.1,1.1,1.1s1.1-0.5,1.1-1.1v-3.2
			C110.8,114.9,110.3,114.5,109.7,114.5z"/>
		<rect x="108.5" y="124.7" class="st1" width="5.3" height="1"/>
		<circle class="st1" cx="108.4" cy="125.2" r="0.8"/>
		<g>
			<path class="st0" d="M120,136.4H88.8c-2.4,0-4.3,1.9-4.3,4.3v43.6c0,2.4,1.9,4.3,4.3,4.3H120c2.4,0,4.3-1.9,4.3-4.3v-43.6
				C124.4,138.3,122.4,136.4,120,136.4z"/>
			<path class="st1" d="M120,134.2H88.8c-3.6,0-6.5,2.9-6.5,6.5v43.6c0,3.6,2.9,6.5,6.5,6.5H120c3.6,0,6.5-2.9,6.5-6.5v-43.6
				C126.5,137.1,123.6,134.2,120,134.2z M124.4,184.3c0,2.4-1.9,4.3-4.3,4.3H88.8c-2.4,0-4.3-1.9-4.3-4.3v-43.6
				c0-2.4,1.9-4.3,4.3-4.3H120c2.4,0,4.3,1.9,4.3,4.3L124.4,184.3L124.4,184.3z"/>
		</g>
		<g>
			
				<ellipse transform="matrix(0.2895 -0.9572 0.9572 0.2895 -36.5906 278.3044)" class="st9" cx="169.2" cy="163.8" rx="5.7" ry="5.7"/>
			<path class="st1" d="M171.4,156.3c-0.7-0.2-1.5-0.3-2.3-0.3l0,0c-3.5,0-6.5,2.2-7.5,5.6c-1.3,4.1,1.1,8.5,5.2,9.8
				c0.7,0.2,1.5,0.3,2.3,0.3c3.5,0,6.5-2.2,7.5-5.6C177.9,161.9,175.6,157.5,171.4,156.3z M174.6,165.4c-0.7,2.5-3,4.1-5.5,4.1
				c-0.5,0-1.1-0.1-1.7-0.2c-3-0.9-4.7-4.1-3.8-7.1c0.7-2.5,3-4.1,5.5-4.1c0.5,0,1.1,0.1,1.7,0.2
				C173.8,159.2,175.5,162.4,174.6,165.4z"/>
		</g>
		<path class="st10" d="M114.1,100.9c-0.6,1.7-2.2,2.8-4,2.8H99.4c-1.1,0-2,0.9-2,2v13h1v-12H117l5-15.6h-4.5L114.1,100.9z"/>
		<g>
			<g>
				<path class="st0" d="M137.4,159l-28-0.5l-15.7-20c-1.9-2.4-5.4-2.8-7.8-0.9c-2.4,1.9-2.8,5.4-0.9,7.8l17.3,22
					c1,1.3,2.6,2.1,4.3,2.1l30.6,0.6c2.5,0,4.6-1.5,5.4-3.7c0.2-0.5,0.3-1.1,0.3-1.7C142.9,161.6,140.4,159,137.4,159z"/>
				<path class="st1" d="M137.4,156.8l-26.9-0.5l-15.1-19.2c-1.5-1.9-3.7-2.9-6-2.9l0,0c-1.7,0-3.4,0.6-4.7,1.6
					c-3.3,2.6-3.9,7.5-1.3,10.8l17.3,22c1.4,1.8,3.6,2.9,5.9,2.9l30.6,0.6h0.1c3.3,0,6.2-2.1,7.3-5.2c0.3-0.8,0.4-1.6,0.4-2.4
					c0-2.1-0.7-4-2.2-5.5C141.4,157.7,139.4,156.9,137.4,156.8z M142.5,166.3c-0.8,2.2-2.8,3.7-5.3,3.7h-0.1l-30.6-0.6
					c-1.7,0-3.2-0.8-4.3-2.1l-17.3-22c-1.9-2.4-1.5-5.9,0.9-7.8c1-0.8,2.2-1.2,3.4-1.2c1.6,0,3.3,0.7,4.4,2.1l15.7,20l28,0.5
					c3.1,0.1,5.5,2.6,5.5,5.7C142.8,165.2,142.7,165.8,142.5,166.3z"/>
			</g>
		</g>
		<g>
			
				<ellipse transform="matrix(0.2895 -0.9572 0.9572 0.2895 -57.8133 250.5347)" class="st9" cx="139.9" cy="164.2" rx="5.7" ry="5.7"/>
			<path class="st1" d="M142.2,156.7c-0.7-0.2-1.5-0.3-2.3-0.3l0,0c-3.5,0-6.5,2.2-7.5,5.6c-0.6,2-0.4,4.1,0.6,6
				c1,1.8,2.6,3.2,4.6,3.8c0.7,0.2,1.5,0.3,2.3,0.3c3.5,0,6.5-2.2,7.5-5.6c0.6-2,0.4-4.1-0.6-6C145.8,158.7,144.2,157.3,142.2,156.7
				z M145.4,165.9c-0.7,2.5-3,4.1-5.5,4.1c-0.5,0-1.1-0.1-1.7-0.2c-3-0.9-4.7-4.1-3.8-7.1c0.7-2.5,3-4.1,5.5-4.1
				c0.5,0,1.1,0.1,1.7,0.2C144.6,159.7,146.3,162.9,145.4,165.9z"/>
		</g>
	</g>
	<g>
		<g>
			<path class="st11" d="M403.3,106.5l3.3,22c0,0,6.3-2.4,6.3-17.4S403.3,106.5,403.3,106.5z"/>
			<path class="st1" d="M409.3,100.9c-3.5,0-6.9,3.5-7.5,4.2c-0.4,0.5-0.6,1.1-0.5,1.8l3.3,22c0.1,0.6,0.5,1.2,1,1.5
				c0.3,0.2,0.7,0.3,1.1,0.3c0.3,0,0.5,0,0.7-0.1c0.8-0.3,7.7-3.4,7.7-19.4C415.1,102.6,411.9,100.9,409.3,100.9z M406.7,128.5
				l-3.3-22c0,0,3.2-3.5,6-3.5c2,0,3.7,1.8,3.7,8.1C413,126.1,406.7,128.5,406.7,128.5z"/>
		</g>
		<g>
			<polygon class="st7" points="323.6,251.7 323.6,255 344.1,255 344.1,248.4 332,247.2 			"/>
			<path class="st1" d="M344.3,246.3l-12.1-1.2c-0.1,0-0.1,0-0.2,0c-0.3,0-0.7,0.1-1,0.3l-8.3,4.5c-0.7,0.4-1.1,1.1-1.1,1.9v3.3
				c0,1.2,1,2.1,2.1,2.1h20.5c1.2,0,2.1-1,2.1-2.1v-6.6C346.2,247.3,345.4,246.4,344.3,246.3z M344.1,255h-20.5v-3.3l8.3-4.5
				l12.1,1.2v6.6H344.1z"/>
		</g>
		<g>
			<polygon class="st7" points="337.5,259 337.5,262.3 357.9,262.3 357.9,255.7 345.8,254.5 			"/>
			<path class="st1" d="M358.1,253.6l-12.1-1.2c-0.1,0-0.1,0-0.2,0c-0.3,0-0.7,0.1-1,0.3l-8.3,4.5c-0.7,0.4-1.1,1.1-1.1,1.9v3.3
				c0,1.2,1,2.1,2.1,2.1H358c1.2,0,2.1-1,2.1-2.1v-6.6C360,254.6,359.2,253.7,358.1,253.6z M357.9,262.3h-20.5V259l8.3-4.5l12.1,1.2
				v6.6H357.9z"/>
		</g>
		<g>
			<polygon class="st12" points="359.2,195.7 335.3,244.9 349.5,249.8 374.5,200.9 380.5,200 376.1,195.7 			"/>
			<path class="st1" d="M377.6,194.2c-0.4-0.4-0.9-0.6-1.5-0.6h-16.9c-0.8,0-1.6,0.5-1.9,1.2L333.4,244c-0.3,0.5-0.3,1.2-0.1,1.7
				c0.2,0.6,0.7,1,1.3,1.2l14.2,5c0.2,0.1,0.5,0.1,0.7,0.1c0.8,0,1.5-0.4,1.9-1.2l24.5-48l4.9-0.7c0.8-0.1,1.5-0.7,1.7-1.5
				s0-1.6-0.5-2.2L377.6,194.2z M374.5,200.9l-25,48.9l-14.2-5l23.9-49.2h16.9l4.4,4.3L374.5,200.9z"/>
		</g>
		<g>
			<path class="st12" d="M376.1,197.8l-10.2,1.4L347,253l13.4,5.4l19.8-48.1h22.9c6,0,10.9-4.9,10.9-10.9v-10.8l-37.9-1.5
				L376.1,197.8L376.1,197.8z"/>
			<path class="st1" d="M414.1,186.5l-37.9-1.5h-0.1c-0.5,0-1.1,0.2-1.5,0.6c-0.4,0.4-0.7,1-0.7,1.5v8.7l-8.3,1.1
				c-0.8,0.1-1.5,0.6-1.7,1.4l-18.9,54c-0.4,1.1,0.2,2.2,1.2,2.7l13.4,5.4c0.3,0.1,0.5,0.2,0.8,0.2c0.8,0,1.6-0.5,2-1.3l19.2-46.8
				h21.5c7.2,0,13-5.8,13-13v-10.8C416.1,187.5,415.2,186.5,414.1,186.5z M414,199.4c0,6-4.9,10.9-10.9,10.9h-22.9l-19.8,48.1
				L347,253l18.9-53.9l10.2-1.4v-10.6l37.9,1.5V199.4z"/>
		</g>
		<polyline class="st13" points="414,192.1 414,188.6 376.1,187.2 376.1,192.1 		"/>
		<g>
			<g>
				<path class="st0" d="M385.3,137.1c-2.4-1.9-5.9-1.5-7.8,0.9l-15.7,20l-28,0.5c-3.1,0.1-5.5,2.6-5.5,5.7c0,0.6,0.1,1.2,0.3,1.7
					c0.8,2.2,2.9,3.8,5.4,3.7l30.6-0.6c1.7,0,3.2-0.8,4.3-2.1l17.3-22C388.1,142.4,387.7,139,385.3,137.1z"/>
				<path class="st1" d="M386.6,135.4c-1.3-1.1-3-1.6-4.7-1.6c-2.4,0-4.6,1.1-6,2.9l-15.1,19.2l-26.9,0.5c-2.1,0-4,0.9-5.4,2.4
					s-2.2,3.4-2.2,5.5c0,0.8,0.2,1.6,0.4,2.4c1.1,3.1,4,5.2,7.3,5.2h0.1l30.6-0.6c2.3,0,4.5-1.1,5.9-2.9l17.3-22
					C390.5,142.8,390,138,386.6,135.4z M386.2,144.9l-17.3,22c-1,1.3-2.6,2.1-4.3,2.1l-30.6,0.6h-0.1c-2.4,0-4.5-1.6-5.3-3.7
					c-0.2-0.5-0.3-1.1-0.3-1.7c-0.1-3.1,2.4-5.6,5.5-5.7l28-0.5l15.7-20c1.1-1.4,2.7-2.1,4.4-2.1c1.2,0,2.4,0.4,3.4,1.2
					C387.7,139,388.1,142.4,386.2,144.9z"/>
			</g>
		</g>
		<g>
			<path class="st9" d="M408.1,112.1h-1.6v-2.3c0-6.2-5-11.3-11.2-11.4c-6.4-0.1-11.6,5.3-11.6,11.7v5.5l-3.4,6.6
				c-0.3,0.5,0.1,1.1,0.7,1.1h2.9v13.2h22.7v-17.4h2c2.1,0,3.8-2,3.2-4.3C411.2,113.1,409.7,112.1,408.1,112.1z"/>
			<path class="st1" d="M408.6,110v-0.2c0-7.3-6-13.4-13.3-13.5c-0.1,0-0.2,0-0.3,0l0,0c-7.5,0-13.5,6.2-13.5,13.8v5l-3.1,6.1
				c-0.5,0.9-0.4,1.9,0.1,2.8s1.4,1.4,2.4,1.4h0.7v11.1c0,1.2,1,2.1,2.1,2.1h22.7c1.2,0,2.1-1,2.1-2.1V121c1.7,0,3.2-0.8,4.2-2.2
				c1-1.4,1.4-3.1,0.9-4.8C413.1,111.8,411,110.2,408.6,110z M408.5,118.9h-2v17.4h-22.7v-13.2H381c-0.5,0-0.9-0.6-0.7-1.1l3.4-6.6
				V110c0-6.3,5.1-11.7,11.4-11.7c0.1,0,0.1,0,0.2,0c6.2,0.1,11.2,5.2,11.2,11.4v2.3h1.6c1.6,0,3.1,1,3.6,2.6
				C412.3,116.9,410.7,118.9,408.5,118.9z"/>
		</g>
		<rect x="386.7" y="124.7" class="st1" width="5.3" height="1"/>
		<circle class="st1" cx="392.1" cy="125.2" r="0.8"/>
		<g>
			<path class="st0" d="M411.7,136.4h-31.3c-2.4,0-4.3,1.9-4.3,4.3v43.6c0,2.4,1.9,4.3,4.3,4.3h31.3c2.4,0,4.3-1.9,4.3-4.3v-43.6
				C416,138.3,414.1,136.4,411.7,136.4z"/>
			<path class="st1" d="M411.7,134.2h-31.3c-3.6,0-6.5,2.9-6.5,6.5v43.6c0,3.6,2.9,6.5,6.5,6.5h31.3c3.6,0,6.5-2.9,6.5-6.5v-43.6
				C418.2,137.1,415.3,134.2,411.7,134.2z M416,184.3c0,2.4-1.9,4.3-4.3,4.3h-31.3c-2.4,0-4.3-1.9-4.3-4.3v-43.6
				c0-2.4,1.9-4.3,4.3-4.3h31.3c2.4,0,4.3,1.9,4.3,4.3V184.3z"/>
		</g>
		<g>
			
				<ellipse transform="matrix(0.9572 -0.2895 0.2895 0.9572 -33.2394 102.9293)" class="st9" cx="331.3" cy="163.8" rx="5.7" ry="5.7"/>
			<path class="st1" d="M331.3,155.9c-0.8,0-1.5,0.1-2.3,0.3c-4.1,1.3-6.5,5.6-5.2,9.8c1,3.3,4,5.6,7.5,5.6c0.8,0,1.5-0.1,2.3-0.3
				c4.1-1.3,6.5-5.6,5.2-9.8C337.8,158.2,334.8,155.9,331.3,155.9z M333,169.2c-0.6,0.2-1.1,0.2-1.7,0.2c-2.5,0-4.7-1.6-5.5-4.1
				c-0.9-3,0.8-6.2,3.8-7.1c0.6-0.2,1.1-0.2,1.7-0.2c2.5,0,4.7,1.6,5.5,4.1C337.7,165.1,336,168.3,333,169.2z"/>
		</g>
		<g>
			<g>
				<path class="st0" d="M414.6,137.5c-2.4-1.9-5.9-1.5-7.8,0.9l-15.7,20l-28,0.5c-3.1,0.1-5.5,2.6-5.5,5.7c0,0.6,0.1,1.2,0.3,1.7
					c0.8,2.2,2.9,3.8,5.4,3.7l30.6-0.6c1.7,0,3.2-0.8,4.3-2.1l17.3-22C417.4,142.9,417,139.4,414.6,137.5z"/>
				<path class="st1" d="M415.9,135.9c-1.3-1.1-3-1.6-4.7-1.6c-2.4,0-4.6,1.1-6,2.9L390,156.3l-26.9,0.5c-2.1,0-4,0.9-5.4,2.4
					s-2.2,3.4-2.2,5.5c0,0.8,0.2,1.6,0.4,2.4c1.1,3.1,4,5.2,7.3,5.2h0.1l30.6-0.6c2.3,0,4.5-1.1,5.9-2.9l17.3-22
					C419.8,143.3,419.2,138.5,415.9,135.9z M415.5,145.3l-17.3,22c-1,1.3-2.6,2.1-4.3,2.1l-30.6,0.6h-0.1c-2.4,0-4.5-1.6-5.3-3.7
					c-0.2-0.5-0.3-1.1-0.3-1.7c-0.1-3.1,2.4-5.6,5.5-5.7l28-0.5l15.7-20c1.1-1.4,2.7-2.1,4.4-2.1c1.2,0,2.4,0.4,3.4,1.2
					C417,139.4,417.4,142.9,415.5,145.3z"/>
			</g>
		</g>
		<g>
			
				<ellipse transform="matrix(0.9572 -0.2895 0.2895 0.9572 -32.0993 111.4208)" class="st9" cx="360.6" cy="164.2" rx="5.7" ry="5.7"/>
			<path class="st1" d="M360.6,156.4c-0.8,0-1.5,0.1-2.3,0.3c-2,0.6-3.7,2-4.6,3.8c-1,1.8-1.2,4-0.6,6c1,3.3,4,5.6,7.5,5.6
				c0.8,0,1.5-0.1,2.3-0.3c2-0.6,3.7-2,4.6-3.8c1-1.8,1.2-4,0.6-6C367.1,158.6,364.1,156.4,360.6,156.4z M362.2,169.7
				c-0.6,0.2-1.1,0.2-1.7,0.2c-2.5,0-4.7-1.6-5.5-4.1c-0.9-3,0.8-6.2,3.8-7.1c0.6-0.2,1.1-0.2,1.7-0.2c2.5,0,4.7,1.6,5.5,4.1
				C367,165.6,365.3,168.8,362.2,169.7z"/>
		</g>
		<g>
			<path class="st14" d="M395.1,94.4c-13.9,0-12.9,12.5-12.9,12.5h18.9v20.9h5.4v-15.7c2.9-2.7,5.9-0.2,5.9-0.2
				C413.3,101.4,408.9,94.4,395.1,94.4z"/>
			<path class="st1" d="M395.1,92.2c-4.9,0-8.8,1.4-11.4,4.3c-4,4.3-3.6,10.2-3.6,10.5c0.1,1.1,1,2,2.1,2H399v18.8
				c0,1.2,1,2.1,2.1,2.1h5.4c1.2,0,2.1-1,2.1-2.1v-14.7c0.3-0.1,0.6-0.2,0.9-0.2c0.8,0,1.5,0.5,1.5,0.5c0.4,0.3,0.9,0.5,1.4,0.5
				c0.3,0,0.6-0.1,0.8-0.2c0.7-0.3,1.2-1,1.3-1.8c0.6-6.2-0.7-11-3.8-14.4C407.4,94.1,402.2,92.2,395.1,92.2z M412.4,111.8
				c0,0-1.2-1-2.9-1c-0.9,0-2,0.3-3,1.3v15.7h-5.4v-20.9h-18.9c0,0-0.9-12.5,12.9-12.5S413.3,101.4,412.4,111.8z"/>
		</g>
		<path class="st11" d="M382.2,104.9c-0.1,1.2-0.1,2-0.1,2H401v20.9h5.4v-15.7c2.9-2.7,5.9-0.2,5.9-0.2c0.2-2.5,0.1-4.8-0.3-6.9
			h-29.8V104.9z"/>
	</g>
	<g>
		<polygon class="st0" points="380.2,117.7 381.3,115.1 384.6,115.1 384.6,120.3 388.9,120.3 388.9,113.3 380.2,113.3 		"/>
		<path class="st1" d="M388.9,111.2h-8.7c-1.2,0-2.1,1-2.1,2.1v4.4c0,1,0.7,1.9,1.7,2.1c0.1,0,0.3,0,0.4,0c0.8,0,1.6-0.5,2-1.3
			l0.2-0.6v2.4c0,1.2,1,2.1,2.1,2.1h4.3c1.2,0,2.1-1,2.1-2.1v-7C391,112.1,390.1,111.2,388.9,111.2z M388.9,120.3h-4.3v-5.2h-3.2
			l-1.1,2.6v-4.4h8.7v7H388.9z"/>
	</g>
	<path class="st1" d="M387.1,114.5c-0.6,0-1.1,0.5-1.1,1.1v3.2c0,0.6,0.5,1.1,1.1,1.1s1.1-0.5,1.1-1.1v-3.2
		C388.1,114.9,387.6,114.5,387.1,114.5z"/>
	<path class="st1" d="M407.8,113.2h-17.5c-0.6,0-1.1,0.5-1.1,1.1s0.5,1.1,1.1,1.1h17.5c0.6,0,1.1-0.5,1.1-1.1
		S408.4,113.2,407.8,113.2z"/>
	<g>
		<g>
			<rect x="129.1" y="182.6" class="st0" width="10.9" height="64.6"/>
			<path class="st1" d="M140,180.5h-10.9c-1.2,0-2.1,1-2.1,2.1v64.6c0,1.2,1,2.1,2.1,2.1H140c1.2,0,2.1-1,2.1-2.1v-64.6
				C142.1,181.4,141.2,180.5,140,180.5z M140,247.2h-10.9v-64.6H140V247.2z"/>
		</g>
		<g>
			<rect x="129.1" y="182.6" class="st15" width="10.9" height="7"/>
		</g>
		<g>
			<rect x="364.7" y="182.6" class="st0" width="10.9" height="64.6"/>
			<path class="st1" d="M375.6,180.5h-10.9c-1.2,0-2.1,1-2.1,2.1v64.6c0,1.2,1,2.1,2.1,2.1h10.9c1.2,0,2.1-1,2.1-2.1v-64.6
				C377.8,181.4,376.8,180.5,375.6,180.5z M375.6,247.2h-10.9v-64.6h10.9V247.2z"/>
		</g>
		<g>
			<rect x="364.7" y="182.6" class="st15" width="10.9" height="7"/>
		</g>
		<g>
			<rect x="123.7" y="178.7" class="st0" width="257.1" height="4.7"/>
			<path class="st1" d="M380.8,176.6H123.7c-1.2,0-2.1,1-2.1,2.1v4.7c0,1.2,1,2.1,2.1,2.1h257.1c1.2,0,2.1-1,2.1-2.1v-4.7
				C382.9,177.5,382,176.6,380.8,176.6z M380.8,183.4H123.7v-4.7h257.1V183.4z"/>
		</g>
	</g>
	<g>
		<g>
			<path class="st16" d="M320.9,147.6c-0.6-1-1.8-1.3-2.8-0.8c-1,0.6-1.3,1.8-0.8,2.8l14.9,25.9c0.6,1,1.8,1.3,2.8,0.8
				c1-0.6,1.3-1.8,0.8-2.8L320.9,147.6z"/>
			<path class="st1" d="M322.7,146.5c-0.7-1.3-2.1-2.1-3.6-2.1c-0.7,0-1.5,0.2-2.1,0.6c-1,0.6-1.7,1.5-2,2.5
				c-0.3,1.1-0.1,2.2,0.4,3.2l14.9,25.9c0.7,1.3,2.1,2.1,3.6,2.1c0.7,0,1.4-0.2,2.1-0.6c1-0.6,1.7-1.5,2-2.5
				c0.3-1.1,0.1-2.2-0.4-3.2L322.7,146.5z M335,176.3c-0.3,0.2-0.7,0.3-1,0.3c-0.7,0-1.4-0.4-1.8-1l-14.9-25.9
				c-0.6-1-0.2-2.2,0.8-2.8c0.3-0.2,0.7-0.3,1-0.3c0.7,0,1.4,0.4,1.8,1l14.9,25.9C336.3,174.4,336,175.7,335,176.3z"/>
		</g>
		<g>
			<path class="st16" d="M363.9,172.4H334c-1.1,0-2.1,0.9-2.1,2.1c0,1.1,0.9,2.1,2.1,2.1h29.9c1.1,0,2.1-0.9,2.1-2.1
				C365.9,173.3,365,172.4,363.9,172.4z"/>
			<path class="st1" d="M363.9,170.3H334c-2.3,0-4.2,1.9-4.2,4.2s1.9,4.2,4.2,4.2h29.9c2.3,0,4.2-1.9,4.2-4.2
				C368.1,172.1,366.2,170.3,363.9,170.3z M363.9,176.5H334c-1.1,0-2.1-0.9-2.1-2.1c0-1.1,0.9-2.1,2.1-2.1h29.9
				c1.1,0,2.1,0.9,2.1,2.1C365.9,175.6,365,176.5,363.9,176.5z"/>
		</g>
		<rect x="340.3" y="173.7" class="st17" width="5.9" height="1.2"/>
		<rect x="347" y="173.7" class="st17" width="5.9" height="1.2"/>
		<circle class="st17" cx="334" cy="174.4" r="2.1"/>
		<circle class="st0" cx="334" cy="174.4" r="1"/>
	</g>
	<g>
		<rect x="266.1" y="160.6" class="st18" width="38.4" height="13.9"/>
		<path class="st1" d="M305.3,161.9h-39.2c-0.6,0-1.1,0.5-1.1,1.1s0.5,1.1,1.1,1.1h39.2c0.6,0,1.1-0.5,1.1-1.1
			S305.9,161.9,305.3,161.9z"/>
		<path class="st1" d="M305.3,165.1h-39.2c-0.6,0-1.1,0.5-1.1,1.1s0.5,1.1,1.1,1.1h39.2c0.6,0,1.1-0.5,1.1-1.1
			C306.4,165.5,305.9,165.1,305.3,165.1z"/>
		<path class="st1" d="M305.3,168.2h-39.2c-0.6,0-1.1,0.5-1.1,1.1s0.5,1.1,1.1,1.1h39.2c0.6,0,1.1-0.5,1.1-1.1
			S305.9,168.2,305.3,168.2z"/>
		<path class="st1" d="M305.3,171.4h-39.2c-0.6,0-1.1,0.5-1.1,1.1s0.5,1.1,1.1,1.1h39.2c0.6,0,1.1-0.5,1.1-1.1
			S305.9,171.4,305.3,171.4z"/>
		<path class="st1" d="M304.5,158.5h-38.4c-1.2,0-2.1,1-2.1,2.1v13.9c0,1.2,1,2.1,2.1,2.1h38.4c1.2,0,2.1-1,2.1-2.1v-13.9
			C306.6,159.5,305.6,158.5,304.5,158.5z M304.5,174.5h-38.4v-13.9h38.4V174.5z"/>
	</g>
	<g>
		<g>
			<path class="st16" d="M185.4,146.8c-1-0.6-2.2-0.2-2.8,0.8l-14.9,25.9c-0.6,1-0.2,2.2,0.8,2.8s2.2,0.2,2.8-0.8l14.9-25.9
				C186.7,148.6,186.4,147.4,185.4,146.8z"/>
			<path class="st1" d="M186.4,145c-0.6-0.4-1.4-0.6-2.1-0.6l0,0c-1.5,0-2.9,0.8-3.6,2.1l-14.9,25.9c-0.6,1-0.7,2.1-0.4,3.2
				c0.3,1.1,1,2,2,2.5c0.6,0.4,1.4,0.6,2.1,0.6c1.5,0,2.9-0.8,3.6-2.1l14.9-25.9c0.6-1,0.7-2.1,0.4-3.2
				C188.1,146.4,187.4,145.5,186.4,145z M186.1,149.6l-14.9,25.9c-0.4,0.7-1.1,1-1.8,1c-0.3,0-0.7-0.1-1-0.3c-1-0.6-1.3-1.8-0.8-2.8
				l14.9-25.9c0.4-0.7,1.1-1,1.8-1c0.3,0,0.7,0.1,1,0.3C186.4,147.4,186.7,148.6,186.1,149.6z"/>
		</g>
		<g>
			<path class="st16" d="M169.4,172.4h-29.9c-1.1,0-2.1,0.9-2.1,2.1c0,1.1,0.9,2.1,2.1,2.1h29.9c1.1,0,2.1-0.9,2.1-2.1
				C171.5,173.3,170.5,172.4,169.4,172.4z"/>
			<path class="st1" d="M169.4,170.3h-29.9c-2.3,0-4.2,1.9-4.2,4.2s1.9,4.2,4.2,4.2h29.9c2.3,0,4.2-1.9,4.2-4.2
				C173.6,172.1,171.7,170.3,169.4,170.3z M169.4,176.5h-29.9c-1.1,0-2.1-0.9-2.1-2.1c0-1.1,0.9-2.1,2.1-2.1h29.9
				c1.1,0,2.1,0.9,2.1,2.1S170.5,176.5,169.4,176.5z"/>
		</g>
		<rect x="157.2" y="173.7" class="st17" width="5.9" height="1.2"/>
		<rect x="150.5" y="173.7" class="st17" width="5.9" height="1.2"/>
		<circle class="st17" cx="169.4" cy="174.4" r="2.1"/>
		<circle class="st0" cx="169.4" cy="174.4" r="1"/>
	</g>
	<g>
		<g>
			<g>
				<polygon class="st9" points="256.9,198.4 244.6,203.1 246,233.6 244.6,244.4 260.1,244.4 253.2,233.1 				"/>
				<path class="st1" d="M255.4,232.6l3.6-33.9c0-0.1,0-0.2,0-0.3c0-1.2-0.9-2.1-2.1-2.1l0,0h-0.1c-0.3,0-0.5,0.1-0.7,0.2l-12.2,4.7
					c-0.8,0.3-1.4,1.2-1.4,2.1l1.3,30.3l-1.3,10.6c-0.1,0.6,0.1,1.2,0.5,1.7s1,0.7,1.6,0.7h15.5c0.8,0,1.5-0.4,1.9-1.1
					c0.4-0.7,0.4-1.5,0-2.1L255.4,232.6z M244.6,244.4l1.4-10.8l-1.4-30.5l12.2-4.7l0,0l0,0l-3.7,34.7l6.9,11.3H244.6z"/>
			</g>
			<g>
				<path class="st9" d="M267,187.7h-3l-9.1,45.9l-0.7,10.8h19.3l-8.4-11.7l10.1-33.8C277,193.3,272.8,187.7,267,187.7z"/>
				<path class="st1" d="M267,185.6h-3c-1,0-1.9,0.7-2.1,1.7l-9.1,45.9c0,0.1,0,0.2,0,0.3l-0.7,10.8c0,0.6,0.2,1.2,0.6,1.6
					c0.4,0.4,1,0.7,1.5,0.7h19.3c0.8,0,1.5-0.4,1.9-1.2c0.4-0.7,0.3-1.6-0.2-2.2l-7.8-10.9l9.8-32.8c1-3.3,0.4-6.8-1.7-9.5
					C273.6,187.2,270.4,185.6,267,185.6z M275.3,198.9l-10.1,33.8l8.4,11.7h-19.3l0.7-10.8l9.1-45.9h3
					C272.8,187.7,277,193.3,275.3,198.9z"/>
			</g>
			<g>
				<g>
					<path class="st19" d="M263.7,187.7h-0.9c-2.9,0-5.2-2.4-5-5.3l0.8-16c0.1-2.9-2.1-5.3-5-5.3l0,0c-2.9,0-5.2-2.5-5-5.4l0.9-5.7
						c0.2-2.4-1.4-4.6-3.8-5.2c-6.5-1.6-16.1-0.4-21.9,0.6c-2.8,0.5-4.6,3.2-4,6l12.7,51.6c0.5,2.3,2.5,4,4.9,4h27.1
						c2,0,3.8-1.2,4.6-3c1.9-4.4,0.6-9.8-0.6-13.1C267.7,189,265.8,187.7,263.7,187.7z"/>
					<path class="st1" d="M263.7,185.6h-0.9c-0.8,0-1.6-0.3-2.1-0.9c-0.6-0.6-0.8-1.3-0.8-2.2l0.8-16c0.1-2-0.6-3.9-2-5.3
						c-1.4-1.4-3.2-2.2-5.2-2.2c-0.8,0-1.6-0.3-2.1-0.9c-0.5-0.6-0.8-1.3-0.8-2.1l0.9-5.6c0-0.1,0-0.1,0-0.2
						c0.2-3.5-2.1-6.6-5.4-7.4c-2.3-0.6-5-0.9-8.2-0.9v2.1v-2.1l0,0c-5.3,0-10.8,0.8-14.6,1.5c-1.9,0.3-3.6,1.4-4.7,3.1
						c-1.1,1.6-1.5,3.6-1.1,5.5c0,0,0,0,0,0.1l12.7,51.6c0.7,3.3,3.6,5.6,7,5.6h27.1c2.8,0,5.4-1.7,6.6-4.3
						c2.2-4.9,0.9-10.7-0.6-14.7C269.4,187.5,266.7,185.6,263.7,185.6z M269.1,204.1c-0.8,1.8-2.6,3-4.6,3h-27.1
						c-2.4,0-4.4-1.7-4.9-4l-12.7-51.6c-0.6-2.8,1.2-5.5,4-6c3.8-0.7,9.1-1.4,14.2-1.4c2.7,0,5.4,0.2,7.7,0.8c2.4,0.6,4,2.8,3.8,5.2
						l-0.9,5.7c-0.2,2.9,2.1,5.4,5,5.4l0,0c2.9,0,5.2,2.4,5,5.3l-0.8,16c-0.1,2.9,2.1,5.3,5,5.3h0.9c2.1,0,4,1.3,4.7,3.3
						C269.7,194.4,271,199.7,269.1,204.1z"/>
				</g>
			</g>
			<g>
				<path class="st9" d="M232.1,108.5v30.4h6.5c7.2,0,13.1-5.8,13.1-13.1l0,0h3.3l-6.6-11.9L232.1,108.5z"/>
				<path class="st1" d="M250.2,112.9c-0.3-0.5-0.7-0.8-1.2-1l-16.3-5.4c-0.2-0.1-0.4-0.1-0.7-0.1c-0.4,0-0.9,0.1-1.2,0.4
					c-0.6,0.4-0.9,1-0.9,1.7v30.4c0,1.2,1,2.1,2.1,2.1h6.5c7.7,0,14-5.7,15-13.1h1.3c0.8,0,1.4-0.4,1.8-1s0.4-1.5,0-2.1L250.2,112.9
					z M251.7,125.8c0,7.2-5.8,13.1-13.1,13.1h-6.5v-30.4l16.3,5.4l6.6,11.9H251.7z"/>
			</g>
			<g>
				<path class="st20" d="M244.3,99.5c-0.1,0-0.3,0-0.4,0c0,0-15.5-4.8-23.9,5c-8.3,9.7,0,30.3-10.9,38s12.8,15.5,24.9,10
					c12.1-5.6,9.6-38.5,9.6-38.5h0.1C253,113.9,253.5,100.3,244.3,99.5z"/>
				<path class="st1" d="M244.5,97.4c-0.1,0-0.1,0-0.2,0c-1-0.3-4.6-1.2-9-1.2c-7.2,0-13,2.4-16.8,6.9c-4.4,5.1-4.6,12.4-4.9,19.5
					c-0.3,7.5-0.6,14.6-5.6,18.1c-4.1,2.9-3.9,5.9-3.4,7.4c1.7,5.2,11.3,8.3,19.7,8.3c4.1,0,7.8-0.7,10.7-2.1
					c5.8-2.6,9.3-10.4,10.6-23.1c0.6-6.4,0.5-12.4,0.4-15.5c4.5-1,7-4.8,7.1-8.7C253.2,102.7,250.4,97.9,244.5,97.4z M243.8,113.9
					L243.8,113.9c-0.1,0,2.5,33-9.6,38.5c-2.8,1.3-6.3,1.9-9.9,1.9c-11.5,0-23.4-6-15.1-11.9c10.9-7.7,2.5-28.2,10.9-38
					c4.2-4.9,10.3-6.1,15.2-6.1s8.7,1.2,8.7,1.2c0.1,0,0.3,0,0.4,0C253.5,100.3,253,113.9,243.8,113.9z"/>
			</g>
			<g>
				<path class="st21" d="M244.3,99.5c-0.1,0-0.3,0-0.4,0c0,0-13.6-4.2-22.2,3.3l0,0c7.6-2.2,15.5,0.3,15.5,0.3l0,0
					c0.1,0,0.2,0,0.3,0c9.2,0.8,8.6,14.4-0.6,14.4c0,0,2.1,26.8-6.4,36.2l0,0c1.2-0.3,2.4-0.7,3.5-1.2c12.1-5.6,9.6-38.5,9.6-38.5
					h0.1C253,113.9,253.5,100.3,244.3,99.5z"/>
			</g>
		</g>
		<g>
			<path class="st18" d="M259,208.7h-38.7c-2.6,0-4.6,2.1-4.6,4.6s2.1,4.6,4.6,4.6H259c2.6,0,4.6-2.1,4.6-4.6S261.6,208.7,259,208.7
				z"/>
			<path class="st1" d="M259,206.6h-38.7c-3.7,0-6.8,3-6.8,6.8s3,6.8,6.8,6.8H259c3.7,0,6.8-3,6.8-6.8S262.8,206.6,259,206.6z
				 M259,218h-38.7c-2.6,0-4.6-2.1-4.6-4.6s2.1-4.6,4.6-4.6H259c2.6,0,4.6,2.1,4.6,4.6S261.6,218,259,218z"/>
		</g>
		<g>
			<polygon class="st0" points="234.3,248.1 234.3,216.9 230.8,216.9 230.8,248.1 219.2,248.1 215.7,248.1 215.7,252.4 215.7,256.8 
				219.2,256.8 219.2,252.4 230.8,252.4 230.8,256.8 234.3,256.8 234.3,252.4 245.7,252.4 245.7,256.8 249.2,256.8 249.2,252.4 
				249.2,248.1 245.7,248.1 			"/>
			<path class="st1" d="M249.2,246h-3.5h-9.3v-29.1c0-1.2-1-2.1-2.1-2.1h-3.5c-1.2,0-2.1,1-2.1,2.1V246h-9.5h-3.5
				c-1.2,0-2.1,1-2.1,2.1v4.2v4.4c0,1.2,1,2.1,2.1,2.1h3.5c1.2,0,2.1-1,2.1-2.1v-2.3h7.4v2.3c0,1.2,1,2.1,2.1,2.1h3.5
				c1.2,0,2.1-1,2.1-2.1v-2.3h7.1v2.3c0,1.2,1,2.1,2.1,2.1h3.5c1.2,0,2.1-1,2.1-2.1v-4.4v-4.2C251.3,247,250.4,246,249.2,246z
				 M249.2,252.4v4.4h-3.5v-4.4h-11.4v4.4h-3.5v-4.4h-11.6v4.4h-3.5v-4.4v-4.2h3.5h11.6v-31.3h3.5v31.3h11.4h3.5V252.4z"/>
		</g>
		<rect x="230.8" y="216.9" class="st2" width="3.5" height="6"/>
		<g>
			<circle class="st2" cx="216.8" cy="260.5" r="2.9"/>
			<path class="st1" d="M216.8,255.5c-2.8,0-5,2.2-5,5s2.2,5,5,5s5-2.2,5-5S219.6,255.5,216.8,255.5z M216.8,263.3
				c-1.6,0-2.9-1.3-2.9-2.9s1.3-2.9,2.9-2.9s2.9,1.3,2.9,2.9C219.7,262.1,218.4,263.3,216.8,263.3z"/>
		</g>
		<g>
			<circle class="st2" cx="232" cy="260.5" r="2.9"/>
			<path class="st1" d="M232,255.5c-2.8,0-5,2.2-5,5s2.2,5,5,5s5-2.2,5-5S234.8,255.5,232,255.5z M232,263.3c-1.6,0-2.9-1.3-2.9-2.9
				s1.3-2.9,2.9-2.9c1.6,0,2.9,1.3,2.9,2.9C234.9,262.1,233.6,263.3,232,263.3z"/>
		</g>
		<g>
			<circle class="st2" cx="247.4" cy="260.5" r="2.9"/>
			<path class="st1" d="M247.4,255.5c-2.8,0-5,2.2-5,5s2.2,5,5,5s5-2.2,5-5S250.2,255.5,247.4,255.5z M247.4,263.3
				c-1.6,0-2.9-1.3-2.9-2.9s1.3-2.9,2.9-2.9c1.6,0,2.9,1.3,2.9,2.9C250.3,262.1,249,263.3,247.4,263.3z"/>
		</g>
		<g>
			<rect x="228.6" y="230.1" class="st0" width="8" height="9.1"/>
			<path class="st1" d="M236.6,228h-8c-1.2,0-2.1,1-2.1,2.1v9.1c0,1.2,1,2.1,2.1,2.1h8c1.2,0,2.1-1,2.1-2.1v-9.1
				C238.7,228.9,237.8,228,236.6,228z M236.6,239.3h-8v-9.1h8V239.3z"/>
		</g>
		<g>
			<path class="st0" d="M222.6,148h-17.7c-5.8,0-10,5.5-8.5,11.1l13.8,51c1.3,4.7,5.5,7.9,10.3,7.9H253l-16-58.9
				C235.3,152.5,229.3,148,222.6,148z"/>
			<path class="st1" d="M239.1,158.5c-2-7.5-8.8-12.7-16.5-12.7h-17.7c-3.4,0-6.6,1.6-8.7,4.3c-2.1,2.7-2.8,6.2-1.9,9.5l13.8,51
				c1.5,5.6,6.6,9.5,12.4,9.5H253c0.7,0,1.3-0.3,1.7-0.8s0.5-1.2,0.4-1.8L239.1,158.5z M220.4,218c-4.8,0-9.1-3.2-10.3-7.9l-13.8-51
				c-1.5-5.6,2.7-11.1,8.5-11.1h17.7c6.8,0,12.7,4.5,14.5,11.1l15.9,58.9H220.4z"/>
		</g>
		<path class="st22" d="M222.6,148h-17.7c-3.3,0-6.1,1.8-7.6,4.3c1-0.4,2.2-0.7,3.4-0.7h17.7c6.8,0,12.7,4.5,14.5,11.1l14.9,55.3
			h5.1L237,159.1C235.3,152.5,229.3,148,222.6,148z"/>
	</g>
	<g>
		<g>
			<path class="st5" d="M299.2,175.9l-1-4.7l-8.2-14.5l-3.6,2.1l8.4,14.3l3.6,3.2C298.7,176.6,299.3,176.3,299.2,175.9z"/>
			<path class="st1" d="M293.4,174.7l3.6,3.2c0.8,0.7,2.1,0.9,3,0.3c1-0.6,1.5-1.7,1.2-2.8l-1-4.7c0-0.2-0.1-0.4-0.2-0.6l-8.2-14.5
				c-0.3-0.5-0.7-0.9-1.3-1c-0.5-0.1-1.1-0.1-1.6,0.2l-3.6,2.1c-1,0.6-1.3,1.9-0.8,2.9l8.4,14.3
				C293.1,174.4,293.2,174.5,293.4,174.7z M286.4,158.8l3.6-2.1l8.2,14.5l1,4.7c0,0.2-0.1,0.4-0.2,0.5c-0.2,0.1-0.4,0.1-0.5-0.1
				l-3.6-3.2L286.4,158.8z"/>
		</g>
		<path class="st23" d="M295.1,173.4l3.3,3c0.3,0.3,0.8,0,0.7-0.4l-1-4.4L295.1,173.4z"/>
		<polygon class="st0" points="292.4,161 289.9,156.7 286.4,158.8 288.9,163 		"/>
	</g>
	<g>
		<path class="st9" d="M288.3,168.1l-1.1-4.9l-3.2,1.4l-1.1,4.8l-20.9,5l-8.8-24.7c-0.8-2.3-3.4-3.6-5.8-2.7
			c-2.3,0.8-3.6,3.4-2.7,5.8l9.2,25.7c0.7,1.8,2,3.3,3.7,4.3l0,0c1.7,0.9,3.7,1.2,5.6,0.7l26.6-6.3c2.3-0.6,4-2.8,3.6-5.2
			C292.8,169.4,290.6,167.9,288.3,168.1z"/>
		<path class="st1" d="M290.1,166.1l-0.7-3.3c-0.1-0.6-0.5-1.1-1.1-1.4c-0.3-0.2-0.6-0.2-1-0.2c-0.3,0-0.6,0.1-0.8,0.2l-3.2,1.4
			c-0.6,0.3-1.1,0.8-1.2,1.5l-0.8,3.5l-17.8,4.2l-8.2-22.9c-0.9-2.6-3.5-4.4-6.2-4.4v2.1c1.9,0,3.6,1.1,4.2,3l8.8,24.7l20.9-5
			l1.1-4.8l3.2-1.4l1.1,4.9c0.1,0,0.3,0,0.4,0c2.1,0,4.1,1.5,4.4,3.8c0.4,2.4-1.2,4.6-3.6,5.2l-26.6,6.3c-0.6,0.1-1.2,0.2-1.8,0.2
			c-1.3,0-2.6-0.3-3.8-1l0,0c-1.7-0.9-3-2.4-3.7-4.3l-9.2-25.7c-0.8-2.3,0.4-4.9,2.7-5.8c0.5-0.2,1-0.3,1.5-0.3v-2.1
			c-0.8,0-1.5,0.1-2.2,0.4c-1.7,0.6-3,1.8-3.8,3.4c-0.8,1.6-0.8,3.4-0.2,5.1l9.2,25.7c0.8,2.3,2.5,4.2,4.6,5.4
			c1.5,0.8,3.1,1.2,4.8,1.2c0.8,0,1.6-0.1,2.3-0.3l26.6-6.3c3.5-0.8,5.7-4.2,5.2-7.6C294.8,168.7,292.7,166.6,290.1,166.1z"/>
	</g>
	<g>
		<path class="st1" d="M284.5,120.1h-12.7c-0.6,0-1.1,0.5-1.1,1.1s0.5,1.1,1.1,1.1h12.7c0.6,0,1.1-0.5,1.1-1.1
			S285.1,120.1,284.5,120.1z"/>
		<path class="st1" d="M292.1,124.5h-20.2c-0.6,0-1.1,0.5-1.1,1.1s0.5,1.1,1.1,1.1h20.2c0.6,0,1.1-0.5,1.1-1.1
			C293.1,124.9,292.7,124.5,292.1,124.5z"/>
		<path class="st1" d="M288.7,128.8h-16.8c-0.6,0-1.1,0.5-1.1,1.1s0.5,1.1,1.1,1.1h16.8c0.6,0,1.1-0.5,1.1-1.1
			C289.8,129.3,289.3,128.8,288.7,128.8z"/>
		<path class="st1" d="M310.2,120.1h-12.7c-0.6,0-1.1,0.5-1.1,1.1s0.5,1.1,1.1,1.1h12.7c0.6,0,1.1-0.5,1.1-1.1
			S310.8,120.1,310.2,120.1z"/>
		<path class="st1" d="M292.9,120.1h-3.8c-0.6,0-1.1,0.5-1.1,1.1s0.5,1.1,1.1,1.1h3.8c0.6,0,1.1-0.5,1.1-1.1
			S293.5,120.1,292.9,120.1z"/>
		<path class="st1" d="M296,128.8h-3.8c-0.6,0-1.1,0.5-1.1,1.1s0.5,1.1,1.1,1.1h3.8c0.6,0,1.1-0.5,1.1-1.1
			C297,129.3,296.5,128.8,296,128.8z"/>
		<path class="st1" d="M306.3,128.8h-6.5c-0.6,0-1.1,0.5-1.1,1.1s0.5,1.1,1.1,1.1h6.5c0.6,0,1.1-0.5,1.1-1.1
			C307.3,129.3,306.9,128.8,306.3,128.8z"/>
	</g>
	<g>
		<path class="st0" d="M144.8,98.7h-12.7c-0.6,0-1.1,0.5-1.1,1.1s0.5,1.1,1.1,1.1h12.7c0.6,0,1.1-0.5,1.1-1.1
			C145.8,99.2,145.4,98.7,144.8,98.7z"/>
		<path class="st0" d="M152.3,103h-20.2c-0.6,0-1.1,0.5-1.1,1.1s0.5,1.1,1.1,1.1h20.2c0.6,0,1.1-0.5,1.1-1.1
			C153.4,103.5,152.9,103,152.3,103z"/>
		<path class="st0" d="M148.9,107.4h-16.8c-0.6,0-1.1,0.5-1.1,1.1s0.5,1.1,1.1,1.1h16.8c0.6,0,1.1-0.5,1.1-1.1
			S149.5,107.4,148.9,107.4z"/>
		<path class="st0" d="M163.8,98.7h-6.1c-0.6,0-1.1,0.5-1.1,1.1s0.5,1.1,1.1,1.1h6.1c0.6,0,1.1-0.5,1.1-1.1
			C164.8,99.2,164.4,98.7,163.8,98.7z"/>
		<path class="st0" d="M153.1,98.7h-3.8c-0.6,0-1.1,0.5-1.1,1.1s0.5,1.1,1.1,1.1h3.8c0.6,0,1.1-0.5,1.1-1.1
			C154.2,99.2,153.7,98.7,153.1,98.7z"/>
		<path class="st0" d="M156.2,107.4h-3.8c-0.6,0-1.1,0.5-1.1,1.1s0.5,1.1,1.1,1.1h3.8c0.6,0,1.1-0.5,1.1-1.1
			S156.8,107.4,156.2,107.4z"/>
		<path class="st0" d="M166.5,107.4H160c-0.6,0-1.1,0.5-1.1,1.1s0.5,1.1,1.1,1.1h6.5c0.6,0,1.1-0.5,1.1-1.1S167.1,107.4,166.5,107.4
			z"/>
		<path class="st0" d="M168.8,103.1h-12.7c-0.6,0-1.1,0.5-1.1,1.1s0.5,1.1,1.1,1.1h12.7c0.6,0,1.1-0.5,1.1-1.1
			S169.4,103.1,168.8,103.1z"/>
	</g>
	<g>
		<path class="st0" d="M141.7,117h-9.6c-0.6,0-1.1,0.5-1.1,1.1s0.5,1.1,1.1,1.1h9.6c0.6,0,1.1-0.5,1.1-1.1S142.3,117,141.7,117z"/>
		<path class="st0" d="M157,121.4h-24.9c-0.6,0-1.1,0.5-1.1,1.1c0,0.6,0.5,1.1,1.1,1.1H157c0.6,0,1.1-0.5,1.1-1.1
			C158,121.9,157.6,121.4,157,121.4z"/>
		<path class="st0" d="M149.6,125.7h-17.5c-0.6,0-1.1,0.5-1.1,1.1s0.5,1.1,1.1,1.1h17.5c0.6,0,1.1-0.5,1.1-1.1
			C150.7,126.2,150.2,125.7,149.6,125.7z"/>
		<path class="st0" d="M161.1,117h-9.6c-0.6,0-1.1,0.5-1.1,1.1s0.5,1.1,1.1,1.1h9.6c0.6,0,1.1-0.5,1.1-1.1S161.7,117,161.1,117z"/>
		<path class="st0" d="M148,117h-2.9c-0.6,0-1.1,0.5-1.1,1.1s0.5,1.1,1.1,1.1h2.9c0.6,0,1.1-0.5,1.1-1.1S148.6,117,148,117z"/>
		<path class="st0" d="M155.1,125.7h-2.9c-0.6,0-1.1,0.5-1.1,1.1s0.5,1.1,1.1,1.1h2.9c0.6,0,1.1-0.5,1.1-1.1
			C156.2,126.2,155.7,125.7,155.1,125.7z"/>
	</g>
	<g>
		<path class="st0" d="M394.3,68.9h-9.6c-0.6,0-1.1,0.5-1.1,1.1s0.5,1.1,1.1,1.1h9.6c0.6,0,1.1-0.5,1.1-1.1
			C395.3,69.3,394.8,68.9,394.3,68.9z"/>
		<path class="st0" d="M409.5,73.2h-24.9c-0.6,0-1.1,0.5-1.1,1.1s0.5,1.1,1.1,1.1h24.9c0.6,0,1.1-0.5,1.1-1.1S410.1,73.2,409.5,73.2
			z"/>
		<path class="st0" d="M402.2,77.6h-17.5c-0.6,0-1.1,0.5-1.1,1.1s0.5,1.1,1.1,1.1h17.5c0.6,0,1.1-0.5,1.1-1.1
			C403.2,78.1,402.8,77.6,402.2,77.6z"/>
		<path class="st0" d="M413.6,68.9H404c-0.6,0-1.1,0.5-1.1,1.1s0.5,1.1,1.1,1.1h9.6c0.6,0,1.1-0.5,1.1-1.1
			C414.7,69.3,414.2,68.9,413.6,68.9z"/>
		<path class="st0" d="M400.6,68.9h-2.9c-0.6,0-1.1,0.5-1.1,1.1s0.5,1.1,1.1,1.1h2.9c0.6,0,1.1-0.5,1.1-1.1
			C401.6,69.3,401.2,68.9,400.6,68.9z"/>
		<path class="st0" d="M407.7,77.5h-2.9c-0.6,0-1.1,0.5-1.1,1.1s0.5,1.1,1.1,1.1h2.9c0.6,0,1.1-0.5,1.1-1.1
			C408.7,78,408.3,77.5,407.7,77.5z"/>
	</g>
	<g>
		<path class="st1" d="M278.5,138.3h-6.6c-0.6,0-1.1,0.5-1.1,1.1s0.5,1.1,1.1,1.1h6.6c0.6,0,1.1-0.5,1.1-1.1
			C279.6,138.7,279.1,138.3,278.5,138.3z"/>
		<path class="st1" d="M288.7,138.1h-7.3c-0.6,0-1.1,0.5-1.1,1.1s0.5,1.1,1.1,1.1h7.3c0.6,0,1.1-0.5,1.1-1.1
			C289.8,138.6,289.3,138.1,288.7,138.1z"/>
		<path class="st1" d="M294.5,138.1h-3.2c-0.6,0-1.1,0.5-1.1,1.1s0.5,1.1,1.1,1.1h3.2c0.6,0,1.1-0.5,1.1-1.1
			C295.5,138.6,295.1,138.1,294.5,138.1z"/>
		<path class="st1" d="M295,141.7h-23.1c-0.6,0-1.1,0.5-1.1,1.1s0.5,1.1,1.1,1.1H295c0.6,0,1.1-0.5,1.1-1.1
			C296,142.2,295.6,141.7,295,141.7z"/>
		<path class="st1" d="M282.8,145.7h-10.9c-0.6,0-1.1,0.5-1.1,1.1s0.5,1.1,1.1,1.1h10.9c0.6,0,1.1-0.5,1.1-1.1
			C283.8,146.1,283.3,145.7,282.8,145.7z"/>
	</g>
	<g>
		<path class="st0" d="M206.7,76.4C206.7,76.4,206.6,76.4,206.7,76.4l-4.2,0.1c-0.6,0-1,0.5-1,1.1s0.5,1,1.1,1l0,0l4.2-0.1
			c0.6,0,1-0.5,1-1.1C207.7,76.9,207.2,76.4,206.7,76.4z"/>
		<g>
			<path class="st0" d="M194.4,71.5c-3.5,0-6.4,2.9-6.4,6.4s2.9,6.4,6.4,6.4s6.4-2.9,6.4-6.4C200.8,74.4,197.9,71.5,194.4,71.5z
				 M194.4,82.2c-2.3,0-4.3-1.9-4.3-4.3s1.9-4.3,4.3-4.3c2.3,0,4.3,1.9,4.3,4.3S196.7,82.2,194.4,82.2z"/>
			<path class="st0" d="M194.4,64.6c-0.6,0-1.1,0.5-1.1,1.1v4.2c0,0.6,0.5,1.1,1.1,1.1s1.1-0.5,1.1-1.1v-4.2
				C195.5,65,195,64.6,194.4,64.6z"/>
			<path class="st0" d="M202.2,68.3l-2.9,3c-0.4,0.4-0.4,1.1,0,1.5c0.2,0.2,0.5,0.3,0.7,0.3c0.3,0,0.6-0.1,0.8-0.3l2.9-3
				c0.4-0.4,0.4-1.1,0-1.5S202.6,67.9,202.2,68.3z"/>
			<path class="st0" d="M201.1,82.6c-0.4-0.4-1.1-0.4-1.5,0.1c-0.4,0.4-0.4,1.1,0.1,1.5l3.1,2.8c0.2,0.2,0.5,0.3,0.7,0.3
				c0.3,0,0.6-0.1,0.8-0.3c0.4-0.4,0.4-1.1-0.1-1.5L201.1,82.6z"/>
			<path class="st0" d="M194.8,84.9c-0.6,0-1,0.5-1,1.1l0.3,4.2c0,0.6,0.5,1,1.1,1c0,0,0,0,0.1,0c0.6,0,1-0.5,1-1.1l-0.3-4.2
				C195.9,85.3,195.4,84.9,194.8,84.9z"/>
			<path class="st0" d="M188.3,83.4l-2.7,3.2c-0.4,0.4-0.3,1.1,0.1,1.5c0.2,0.2,0.4,0.3,0.7,0.3s0.6-0.1,0.8-0.4l2.7-3.2
				c0.4-0.4,0.3-1.1-0.1-1.5S188.7,82.9,188.3,83.4z"/>
			<path class="st0" d="M186.2,77.6L182,78c-0.6,0.1-1,0.6-1,1.2c0.1,0.5,0.5,1,1.1,1h0.1l4.2-0.4c0.6-0.1,1-0.6,1-1.2
				C187.3,78,186.8,77.6,186.2,77.6z"/>
			<path class="st0" d="M188.7,72l-3.3-2.6c-0.5-0.4-1.1-0.3-1.5,0.2s-0.3,1.1,0.2,1.5l3.3,2.6c0.2,0.2,0.4,0.2,0.7,0.2
				s0.6-0.1,0.8-0.4C189.2,73.1,189.2,72.4,188.7,72z"/>
		</g>
	</g>
	<g>
		<path class="st1" d="M284.1,96.9l-4.2,0.1c-0.6,0-1,0.5-1,1.1s0.5,1,1.1,1l0,0l4.2-0.1c0.6,0,1-0.5,1-1.1S284.7,96.9,284.1,96.9z"
			/>
		<path class="st1" d="M271.8,92c-3.5,0-6.4,2.9-6.4,6.4s2.9,6.4,6.4,6.4s6.4-2.9,6.4-6.4C278.2,94.8,275.4,92,271.8,92z
			 M271.8,102.6c-2.3,0-4.3-1.9-4.3-4.3s1.9-4.3,4.3-4.3s4.3,1.9,4.3,4.3S274.2,102.6,271.8,102.6z"/>
		<path class="st1" d="M276.4,87.7c-0.5-0.2-1.2,0-1.4,0.6c-0.2,0.5,0,1.2,0.6,1.4c2.2,1,4,2.7,5,5c0.2,0.4,0.6,0.6,1,0.6
			c0.1,0,0.3,0,0.4-0.1c0.5-0.2,0.8-0.9,0.6-1.4C281.3,91,279.1,88.9,276.4,87.7z"/>
		<path class="st1" d="M267.3,87.7c-3.2,1.4-5.7,4.2-6.6,7.5c-0.2,0.6,0.2,1.2,0.7,1.3c0.1,0,0.2,0,0.3,0c0.5,0,0.9-0.3,1-0.8
			c0.8-2.7,2.8-5,5.4-6.1c0.5-0.2,0.8-0.9,0.6-1.4S267.9,87.5,267.3,87.7z"/>
		<path class="st1" d="M269,107.4c-2.7-0.8-4.8-2.8-5.9-5.3c-0.2-0.5-0.9-0.8-1.4-0.6c-0.5,0.2-0.8,0.9-0.6,1.4
			c1.3,3.1,4,5.5,7.2,6.5c0.1,0,0.2,0,0.3,0c0.5,0,0.9-0.3,1-0.7C269.9,108.1,269.6,107.5,269,107.4z"/>
		<path class="st1" d="M282.3,100.1c-0.6-0.2-1.1,0.2-1.3,0.7c-0.8,2.8-2.8,5.1-5.4,6.2c-0.5,0.2-0.8,0.9-0.6,1.4
			c0.2,0.4,0.6,0.6,1,0.6c0.1,0,0.3,0,0.4-0.1c3.2-1.4,5.7-4.2,6.6-7.6C283.2,100.8,282.8,100.3,282.3,100.1z"/>
		<path class="st1" d="M271.8,85c-0.6,0-1.1,0.5-1.1,1.1v4.2c0,0.6,0.5,1.1,1.1,1.1s1.1-0.5,1.1-1.1v-4.2
			C272.9,85.5,272.4,85,271.8,85z"/>
		<path class="st1" d="M272.3,105.4c-0.6,0-1,0.5-1,1.1l0.3,4.2c0,0.6,0.5,1,1.1,1c0,0,0,0,0.1,0c0.6,0,1-0.5,1-1.1l-0.3-4.2
			C273.4,105.8,272.9,105.3,272.3,105.4z"/>
		<path class="st1" d="M263.7,98.1l-4.2,0.4c-0.6,0.1-1,0.6-1,1.2c0.1,0.5,0.5,1,1.1,1h0.1l4.2-0.4c0.6-0.1,1-0.6,1-1.2
			C264.8,98.4,264.3,98,263.7,98.1z"/>
	</g>
	<g>
		<g>
			<path class="st1" d="M431.8,85.1c-3.5,0-6.4,2.9-6.4,6.4s2.9,6.4,6.4,6.4s6.4-2.9,6.4-6.4C438.2,87.9,435.4,85.1,431.8,85.1z
				 M431.8,95.7c-2.3,0-4.3-1.9-4.3-4.3s1.9-4.3,4.3-4.3c2.3,0,4.3,1.9,4.3,4.3S434.2,95.7,431.8,95.7z"/>
			<path class="st1" d="M431.8,88.2c-1.8,0-3.3,1.5-3.3,3.3s1.5,3.3,3.3,3.3s3.3-1.5,3.3-3.3C435.1,89.7,433.6,88.2,431.8,88.2z
				 M431.8,92.6c-0.6,0-1.1-0.5-1.1-1.1s0.5-1.1,1.1-1.1s1.1,0.5,1.1,1.1C433,92.1,432.5,92.6,431.8,92.6z"/>
		</g>
	</g>
	<g>
		<path class="st0" d="M352.9,106.6L352.9,106.6l-4.2,0.1c-0.6,0-1,0.5-1,1.1s0.5,1,1.1,1l0,0l4.2-0.1c0.6,0,1-0.5,1-1.1
			C353.9,107.1,353.5,106.6,352.9,106.6z"/>
		<g>
			<path class="st0" d="M340.6,94.7c-0.6,0-1.1,0.5-1.1,1.1v4.2c0,0.6,0.5,1.1,1.1,1.1s1.1-0.5,1.1-1.1v-4.2
				C341.7,95.2,341.2,94.7,340.6,94.7z"/>
			<path class="st0" d="M348.4,98.5l-2.9,3c-0.4,0.4-0.4,1.1,0,1.5c0.2,0.2,0.5,0.3,0.7,0.3c0.3,0,0.6-0.1,0.8-0.3l2.9-3
				c0.4-0.4,0.4-1.1,0-1.5S348.8,98.1,348.4,98.5z"/>
			<path class="st0" d="M347.3,112.7c-0.4-0.4-1.1-0.4-1.5,0.1c-0.4,0.4-0.4,1.1,0.1,1.5l3.1,2.8c0.2,0.2,0.5,0.3,0.7,0.3
				c0.3,0,0.6-0.1,0.8-0.3c0.4-0.4,0.4-1.1-0.1-1.5L347.3,112.7z"/>
			<path class="st0" d="M341.1,115.1c-0.6,0-1,0.5-1,1.1l0.3,4.2c0,0.6,0.5,1,1.1,1c0,0,0,0,0.1,0c0.6,0,1-0.5,1-1.1l-0.3-4.2
				C342.2,115.5,341.7,115.1,341.1,115.1z"/>
			<path class="st0" d="M334.6,113.5l-2.7,3.2c-0.4,0.4-0.3,1.1,0.1,1.5c0.2,0.2,0.4,0.3,0.7,0.3c0.3,0,0.6-0.1,0.8-0.4l2.7-3.2
				c0.4-0.4,0.3-1.1-0.1-1.5C335.6,113,334.9,113.1,334.6,113.5z"/>
			<path class="st0" d="M332.5,107.8l-4.2,0.4c-0.6,0.1-1,0.6-1,1.2c0.1,0.5,0.5,1,1.1,1h0.1l4.2-0.4c0.6-0.1,1-0.6,1-1.2
				C333.6,108.2,333,107.7,332.5,107.8z"/>
			<path class="st0" d="M334.9,102.2l-3.3-2.6c-0.5-0.4-1.1-0.3-1.5,0.2s-0.3,1.1,0.2,1.5l3.3,2.6c0.2,0.2,0.4,0.2,0.7,0.2
				c0.3,0,0.6-0.1,0.8-0.4C335.5,103.2,335.4,102.5,334.9,102.2z"/>
		</g>
	</g>
	<g>
		<path class="st0" d="M318.4,83.5h-17.8c-0.6,0-1.1,0.5-1.1,1.1s0.5,1.1,1.1,1.1h17.8c0.6,0,1.1-0.5,1.1-1.1S319,83.5,318.4,83.5z"
			/>
		<path class="st0" d="M318.2,77c-0.4-0.4-1.1-0.4-1.5,0s-0.4,1.1,0,1.5l6.2,6.1l-5.2,5c-0.4,0.4-0.4,1.1,0,1.5
			c0.2,0.2,0.5,0.3,0.8,0.3s0.5-0.1,0.7-0.3l6-5.8c0.2-0.2,0.3-0.5,0.3-0.8s-0.1-0.6-0.3-0.8L318.2,77z"/>
	</g>
	<g>
		<path class="st0" d="M192.3,119.8h-17.8c-0.6,0-1.1,0.5-1.1,1.1s0.5,1.1,1.1,1.1h17.8c0.6,0,1.1-0.5,1.1-1.1
			S192.9,119.8,192.3,119.8z"/>
		<path class="st0" d="M192,113.3c-0.4-0.4-1.1-0.4-1.5,0s-0.4,1.1,0,1.5l6.2,6.1l-5.2,5c-0.4,0.4-0.4,1.1,0,1.5
			c0.2,0.2,0.5,0.3,0.8,0.3s0.5-0.1,0.7-0.3l6-5.8c0.2-0.2,0.3-0.5,0.3-0.8s-0.1-0.6-0.3-0.8L192,113.3z"/>
	</g>
	<g>
		<g>
			<rect x="97.5" y="62.9" class="st5" width="2.6" height="17.4"/>
			<rect x="100.1" y="70" class="st3" width="2.6" height="10.3"/>
		</g>
		<g>
			<rect x="105.8" y="66.3" class="st5" width="2.6" height="14"/>
			<rect x="108.4" y="68.4" class="st3" width="2.6" height="11.8"/>
		</g>
		<g>
			<rect x="114.2" y="72.3" class="st5" width="2.6" height="7.9"/>
			<rect x="116.8" y="67" class="st3" width="2.6" height="13.2"/>
		</g>
	</g>
	<circle class="st3" cx="357.7" cy="73.5" r="10.6"/>
	<path class="st5" d="M361.8,63.7l-4.1,9.8l10.6-0.8C367.9,68.6,365.4,65.2,361.8,63.7z"/>
	<path class="st0" d="M291.9,49.6c-2.2,0-4,1.8-4,4s1.8,4,4,4s4-1.8,4-4C295.9,51.4,294.1,49.6,291.9,49.6z M291.9,55.5
		c-1.1,0-1.9-0.9-1.9-1.9s0.9-1.9,1.9-1.9c1.1,0,1.9,0.9,1.9,1.9S292.9,55.5,291.9,55.5z"/>
	<path class="st0" d="M297.8,60.5l-3.1-4.9c-0.3-0.5-1-0.6-1.5-0.3s-0.6,1-0.3,1.5l3,4.8c0.1,0.3,0,0.5-0.1,0.5
		c-0.1,0.1-0.2,0.3-0.6,0.3h-7.3c-0.3,0-0.5-0.2-0.6-0.3c-0.1-0.1-0.2-0.3-0.1-0.6l3.4-5.2c0.3-0.5,0.2-1.1-0.3-1.5
		c-0.5-0.3-1.1-0.2-1.5,0.3l-3.4,5.3c0,0.1-0.1,0.1-0.1,0.2c-0.4,0.9-0.3,1.8,0.3,2.6c0.5,0.8,1.4,1.2,2.3,1.2h7.3
		c0.9,0,1.8-0.5,2.3-1.2C298,62.4,298.1,61.5,297.8,60.5C297.9,60.6,297.8,60.6,297.8,60.5z"/>
	<path class="st0" d="M158.2,66.2l-11.5,8.7l-5.4-6.5c-0.4-0.4-1-0.5-1.5-0.1c-0.4,0.4-0.5,1-0.1,1.5l6.1,7.2
		c0.2,0.2,0.5,0.4,0.8,0.4c0.2,0,0.4-0.1,0.6-0.2l12.3-9.3c0.5-0.4,0.6-1,0.2-1.5C159.4,65.9,158.7,65.8,158.2,66.2z"/>
	<g>
		<path class="st0" d="M68.2,66.6c-7.5,0-13.6,5-13.6,11.2c0,3.3,1.7,6.2,4.5,8.3c3.2,2.4,6.4,4.8,9.3,7.6l3.2,3v-8
			c5.9-1.2,10.2-5.6,10.2-10.8C81.8,71.6,75.7,66.6,68.2,66.6z"/>
		<path class="st1" d="M68.2,64.4c-8.7,0-15.7,6-15.7,13.3c0,3.8,1.9,7.5,5.3,10c3,2.2,6.2,4.7,9.1,7.4l3.2,3
			c0.4,0.4,0.9,0.6,1.5,0.6c0.3,0,0.6-0.1,0.8-0.2c0.8-0.3,1.3-1.1,1.3-1.9v-6.4c6.1-1.9,10.2-6.8,10.2-12.5
			C83.9,70.4,76.8,64.4,68.2,64.4z M71.5,88.6v8l-3.2-3c-2.9-2.7-6.1-5.2-9.3-7.6c-2.7-2-4.5-5-4.5-8.3c0-6.2,6.1-11.2,13.6-11.2
			s13.6,5,13.6,11.2C81.8,83,77.4,87.3,71.5,88.6z"/>
	</g>
</g>
</svg>
