<?xml version="1.0" encoding="utf-8"?>
<!-- Generator: Adobe Illustrator 19.2.1, SVG Export Plug-In . SVG Version: 6.00 Build 0)  -->
<svg version="1.1" id="Capa_1" xmlns="http://www.w3.org/2000/svg" xmlns:xlink="http://www.w3.org/1999/xlink" x="0px" y="0px"
	 viewBox="0 0 200 200" style="enable-background:new 0 0 200 200;" xml:space="preserve">
<style type="text/css">
	.st0{fill:#5EB4E7;}
	.st1{fill:#FFFFFF;}
	.st2{fill:#F8C44F;}
	.st3{fill:#020C16;}
</style>
<g>
	<path class="st0" d="M124.9,76c-20.6-20.6-54-20.6-74.6,0s-20.6,54,0,74.5c20.6,20.6,54,20.6,74.6,0S145.5,96.6,124.9,76z"/>
	<path class="st1" d="M113.2,87.6c-14.1-14.1-37.1-14.1-51.1,0s-14.1,37.1,0,51.1c14.2,14.1,37.1,14.1,51.1,0
		S127.3,101.8,113.2,87.6z"/>
	<path class="st2" d="M99.2,101.6c-6.4-6.4-16.8-6.4-23.2,0c-6.4,6.4-6.4,16.8,0,23.2c6.4,6.4,16.8,6.4,23.2,0
		C105.7,118.5,105.7,108.1,99.2,101.6z"/>
	<g>
		<g>
			<path class="st1" d="M87.7,186L87.7,186c-19.5,0-37.7-7.6-51.5-21.3c-28.4-28.4-28.4-74.6,0-102.8c13.7-13.7,32-21.3,51.5-21.3
				s37.7,7.6,51.4,21.3s21.3,32,21.3,51.4s-7.6,37.7-21.3,51.4C125.3,178.4,107,186,87.7,186z M87.7,45.7c-18,0-34.9,7-47.8,19.8
				c-26.3,26.3-26.3,69.1,0,95.4c12.8,12.7,29.7,19.8,47.8,19.8s34.9-7,47.7-19.8c12.7-12.7,19.8-29.6,19.8-47.8
				c0-18-7-34.9-19.8-47.8C122.6,52.8,105.7,45.7,87.7,45.7z"/>
		</g>
	</g>
	<g>
		<g>
			<polygon class="st2" points="142.3,56.9 137.9,43.7 162.8,18.8 167.2,32 			"/>
			<polygon class="st2" points="142.3,56.9 155.4,61.3 180.2,36.4 167.2,32 			"/>
		</g>
		<g>
			<g>
				<path class="st3" d="M141.1,61.8L134.9,43l29-29l6.2,18.8L141.1,61.8z M140.9,44.5l2.6,7.6l20.7-20.7l-2.6-7.6L140.9,44.5z"/>
			</g>
			<g>
				<path class="st3" d="M156.2,64.3l-18.8-6.2l29-29l18.8,6.2L156.2,64.3z M147.1,55.7l7.6,2.6l20.7-20.7l-7.6-2.6L147.1,55.7z"/>
			</g>
		</g>
		<g>
			<path class="st3" d="M86.7,115.2c-0.6,0-1.4-0.3-1.8-0.7c-1-1-1-2.7,0-3.8l84.2-84.2c1-1,2.7-1,3.8,0c1,1,1,2.7,0,3.8l-84.2,84.2
				C88.1,114.9,87.4,115.2,86.7,115.2z"/>
		</g>
	</g>
</g>
</svg>
