<?xml version="1.0" encoding="utf-8"?>
<!-- Generator: Adobe Illustrator 19.2.1, SVG Export Plug-In . SVG Version: 6.00 Build 0)  -->
<svg version="1.1" id="Text" xmlns="http://www.w3.org/2000/svg" xmlns:xlink="http://www.w3.org/1999/xlink" x="0px" y="0px"
	 viewBox="0 0 431.5 256.8" style="enable-background:new 0 0 431.5 256.8;" xml:space="preserve">
<style type="text/css">
	.st0{fill:#FCCAA4;}
	.st1{fill:#58595B;}
	.st2{fill:#FFFFFF;}
	.st3{fill:#5EB4E7;}
	.st4{fill:#F8C44F;}
	.st5{fill:#A7A9AC;}
	.st6{fill:#FE5621;}
	.st7{fill:#939598;}
	.st8{fill:#F1F2F2;}
	.st9{fill:#E6E7E8;}
	.st10{fill:#808285;}
	.st11{fill:#C2B59B;}
	.st12{fill:#726658;}
	.st13{fill:#169CC2;}
	.st14{fill:#9B8579;}
	.st15{fill:#A8987B;}
	.st16{fill:#78675E;}
	.st17{fill:#66DDFF;}
	.st18{fill:#564A3D;}
	.st19{fill:#8E612B;}
	.st20{fill:#6E4B21;}
	.st21{display:none;}
	.st22{display:inline;}
	.st23{fill:#F7C869;}
	.st24{fill:#EA5560;}
	.st25{fill:#C74852;}
	.st26{fill:#BD454D;}
	.st27{display:inline;fill:#58595B;}
	.st28{fill:#BCBEC0;}
	.st29{fill:#6D6E71;}
	.st30{fill:#20C697;}
	.st31{fill:#A36F31;}
	.st32{fill:#231F20;}
	.st33{display:inline;fill:#F8C44F;}
	.st34{display:inline;fill:#EA5560;}
	.st35{display:inline;fill:#FFFFFF;}
</style>
<g>
	<g>
		<path class="st0" d="M193.5,138.1c-0.4,0.1-0.7,0.6-0.5,1l0.4,1.2l-0.9,0.3l-1.9-6c-0.1-0.4-0.4-0.5-0.8-0.4l-0.7,0.2
			c-0.4,0.1-0.5,0.4-0.4,0.8l1.4,4.3l-0.7,0.2l-1.6-5.2c-0.1-0.4-0.4-0.5-0.8-0.4l-0.4,0.1c-0.4,0.1-0.5,0.4-0.4,0.8l1.8,5.7
			l-0.5,0.1l-1.6-4.9c-0.1-0.4-0.4-0.5-0.8-0.4h-0.1c-0.4,0.1-0.5,0.4-0.4,0.8l1.6,4.9l-0.4,0.1l-1-3.4c-0.1-0.4-0.4-0.5-0.8-0.4
			c-0.3,0.1-0.5,0.4-0.4,0.8l1.5,5.9l3.6,6.7l5.5-1.7l2.6-5.5l-1.7-5.5C194.4,138.3,193.9,138,193.5,138.1z"/>
		<path class="st1" d="M196.2,138.1c-0.4-1-1.3-1.8-2.5-1.8c-0.3,0-0.5,0.1-0.8,0.1h-0.1l-0.7-2.2c-0.3-1-1.3-1.6-2.3-1.6
			c-0.2,0-0.5,0.1-0.7,0.1l-0.7,0.2h-0.1c-0.4-0.3-0.9-0.4-1.3-0.4l0,0c-0.2,0-0.5,0.1-0.7,0.1l-0.4,0.1c-0.6,0.2-1.1,0.6-1.4,1.2
			c0,0.1-0.1,0.1-0.1,0.2l0,0c-0.6,0.2-1.1,0.6-1.4,1.2c-0.1,0.4-0.3,0.7-0.3,1c-0.9,0.5-1.4,1.6-1.1,2.7l1.5,5.9
			c0,0.1,0.1,0.3,0.1,0.4l3.6,6.7c0.3,0.6,0.9,0.9,1.6,0.9c0.1,0,0.4,0,0.5-0.1l5.5-1.7c0.4-0.1,0.8-0.4,1-0.9l2.6-5.5
			c0.2-0.4,0.2-0.9,0.1-1.3L196.2,138.1z M193.7,149.6l-5.5,1.7l-3.6-6.7l-1.5-5.9c-0.1-0.4,0.1-0.7,0.4-0.8c0.1,0,0.1,0,0.2,0
			c0.3,0,0.5,0.1,0.6,0.4l1,3.4l0.4-0.1l-1.6-4.9c-0.1-0.4,0.1-0.7,0.4-0.8h0.1c0.1,0,0.1,0,0.2,0c0.3,0,0.5,0.1,0.6,0.4l1.6,4.9
			l0.5-0.1l-1.8-5.7c-0.1-0.4,0.1-0.7,0.4-0.8l0.4-0.1c0.1,0,0.1,0,0.2,0c0.3,0,0.5,0.1,0.6,0.4l1.6,5.2l0.7-0.2l-1.4-4.3
			c-0.1-0.4,0.1-0.7,0.4-0.8l0.7-0.2c0.1,0,0.1,0,0.2,0c0.3,0,0.5,0.1,0.6,0.4l1.9,6l0.9-0.3l-0.4-1.2c-0.1-0.4,0.1-0.9,0.5-1
			c0.1,0,0.1-0.1,0.2-0.1c0.4,0,0.7,0.2,0.8,0.6l1.7,5.5L193.7,149.6z"/>
	</g>
	<g>
		<path class="st2" d="M198.1,157l-1.8-8.3l-9,3.9l3.3,21.4l0,0c0.3,1.6,1.3,3.1,2.8,3.9l0,0c2.7,1.5,6.1,0.5,7.6-2.2l10.8-19.5
			l-9.5-7.4L198.1,157z"/>
		<path class="st1" d="M213,154.7l-9.5-7.4c-0.3-0.2-0.7-0.4-1-0.4c-0.1,0-0.2,0-0.4,0.1c-0.5,0.1-1,0.4-1.2,0.9l-2,4l-0.7-3.5
			c-0.1-0.5-0.4-1-0.9-1.2c-0.2-0.1-0.5-0.2-0.8-0.2c-0.2,0-0.4,0.1-0.7,0.1l-9,3.9c-0.7,0.3-1.1,1.1-1,1.9l3.3,21.4
			c0,0.1,0.1,0.2,0.1,0.3c0.4,2.1,1.8,3.8,3.7,4.9c1,0.6,2.3,0.9,3.5,0.9c2.7,0,5.2-1.4,6.4-3.8l10.8-19.5
			C213.9,156.2,213.7,155.3,213,154.7z M201.1,175.7c-1,1.9-2.9,2.9-4.9,2.9c-0.9,0-1.8-0.2-2.7-0.7l0,0c-1.6-0.8-2.5-2.3-2.8-3.9
			l0,0l-3.3-21.4l9-3.9l1.8,8.3l4.3-8.3l9.5,7.4L201.1,175.7z"/>
	</g>
	<g>
		<g>
			<rect x="169.3" y="32" class="st2" width="131.7" height="91.4"/>
			<path class="st1" d="M301.1,30.3H169.3c-1,0-1.7,0.8-1.7,1.7v91.4c0,1,0.8,1.7,1.7,1.7h131.7c1,0,1.7-0.8,1.7-1.7V32
				C302.8,31,302.1,30.3,301.1,30.3z M301.1,123.4H169.3V32h131.7L301.1,123.4L301.1,123.4z"/>
		</g>
		<g>
			<g>
				<g>
					
						<rect x="181.7" y="50" transform="matrix(2.317856e-003 -1 1 2.317856e-003 126.5664 248.0182)" class="st3" width="11.8" height="21.1"/>
					
						<rect x="187.2" y="55.6" transform="matrix(2.318687e-003 -1 1 2.318687e-003 132.0991 253.4862)" class="st4" width="11.8" height="9.9"/>
					<polygon class="st2" points="195.3,60.4 193.8,59.2 191.5,61.7 190.1,60.2 187.1,63.1 185.2,61.1 182.8,64 180.3,61.5 
						177.4,65.2 177.6,65.3 180.4,61.9 182.8,64.4 185.2,61.5 187.1,63.4 190.1,60.5 191.5,62 193.8,59.5 195.3,60.8 197.2,59 
						197.1,58.8 					"/>
					<polygon class="st2" points="197.4,59.4 197.5,58.4 196.6,58.6 					"/>
				</g>
				<g>
					<g>
						<polygon class="st5" points="187.6,80 188.1,80 188.1,73.2 187.6,73.5 						"/>
						<polygon class="st5" points="184.5,80 185,80 185,74.7 184.5,74.9 						"/>
						<polygon class="st5" points="178.4,80 178.9,80 178.9,77.5 178.4,77.7 						"/>
						<polygon class="st5" points="183.5,80 184,80 184,75.1 183.5,75.3 						"/>
						<polygon class="st5" points="186.6,80 187,80 187,73.8 186.6,74 						"/>
						<polygon class="st5" points="179.4,80 179.9,80 179.9,77 179.4,77.2 						"/>
						<polygon class="st5" points="182.5,80 182.9,80 183,75.6 182.5,75.9 						"/>
						<polygon class="st5" points="180.5,80 180.9,80 180.9,76.5 180.5,76.8 						"/>
						<polygon class="st5" points="181.4,80 182,80 182,76.1 181.4,76.3 						"/>
						<polygon class="st5" points="185.5,80 186,80 186.1,74.2 185.5,74.4 						"/>
						<polygon class="st5" points="195.8,80 196.2,80 196.3,69.6 195.8,69.8 						"/>
						<polygon class="st5" points="193.7,80 194.2,80 194.2,70.5 193.8,70.7 						"/>
						<polygon class="st5" points="194.7,80 195.3,80 195.3,70 194.7,70.3 						"/>
						<polygon class="st5" points="196.8,80 197.3,80 197.3,69.1 196.8,69.3 						"/>
						<polygon class="st5" points="189.7,80 190.1,80 190.1,72.3 189.7,72.6 						"/>
						<polygon class="st5" points="192.7,80 193.2,80 193.2,70.9 192.7,71.1 						"/>
						<polygon class="st5" points="188.6,80 189.1,80 189.1,72.8 188.6,73 						"/>
						<polygon class="st5" points="190.6,80 191.2,80 191.2,71.9 190.7,72.1 						"/>
						<polygon class="st5" points="191.7,80 192.2,80 192.2,71.4 191.7,71.6 						"/>
					</g>
				</g>
				
					<rect x="204.1" y="55.7" transform="matrix(2.319178e-003 -1 1 2.319178e-003 121.246 286.8095)" class="st6" width="0.4" height="54"/>
				<g>
					
						<rect x="205.4" y="51.4" transform="matrix(2.323782e-003 -1 1 2.323782e-003 149.4156 260.9901)" class="st5" width="0.3" height="8.5"/>
					
						<rect x="205.4" y="52.5" transform="matrix(2.323806e-003 -1 1 2.323806e-003 148.2486 262.2024)" class="st5" width="0.3" height="8.5"/>
					
						<rect x="205.3" y="53.7" transform="matrix(2.318641e-003 -1 1 2.318641e-003 147.0832 263.2655)" class="st5" width="0.3" height="8.5"/>
					
						<rect x="205.4" y="54.8" transform="matrix(2.323794e-003 -1 1 2.323794e-003 145.9153 264.4774)" class="st5" width="0.3" height="8.5"/>
					
						<rect x="205.4" y="56" transform="matrix(2.318641e-003 -1 1 2.318641e-003 144.8244 265.6155)" class="st5" width="0.3" height="8.5"/>
					
						<rect x="205.3" y="57.1" transform="matrix(2.318641e-003 -1 1 2.318641e-003 143.6579 266.6784)" class="st5" width="0.3" height="8.5"/>
					
						<rect x="205.3" y="58.3" transform="matrix(2.313511e-003 -1 1 2.313511e-003 142.4177 267.816)" class="st5" width="0.3" height="8.5"/>
					
						<rect x="205.4" y="59.4" transform="matrix(2.323794e-003 -1 1 2.323794e-003 141.398 269.028)" class="st5" width="0.3" height="8.5"/>
					
						<rect x="205.3" y="60.5" transform="matrix(2.318638e-003 -1 1 2.318638e-003 140.2326 270.0913)" class="st5" width="0.3" height="8.5"/>
				</g>
				<g>
					
						<rect x="216.1" y="51.4" transform="matrix(2.318629e-003 -1 1 2.318629e-003 160.0705 271.7434)" class="st5" width="0.3" height="8.5"/>
					
						<rect x="216" y="52.5" transform="matrix(2.323794e-003 -1 1 2.323794e-003 158.903 272.8061)" class="st5" width="0.3" height="8.5"/>
					
						<rect x="216" y="53.7" transform="matrix(2.318641e-003 -1 1 2.318641e-003 157.6629 273.9438)" class="st5" width="0.3" height="8.5"/>
					
						<rect x="216.1" y="54.8" transform="matrix(2.318641e-003 -1 1 2.318641e-003 156.6452 275.1564)" class="st5" width="0.3" height="8.5"/>
					
						<rect x="216" y="55.9" transform="matrix(2.323782e-003 -1 1 2.323782e-003 155.4778 276.219)" class="st5" width="0.3" height="8.5"/>
					
						<rect x="216" y="57.1" transform="matrix(2.318641e-003 -1 1 2.318641e-003 154.2375 277.3565)" class="st5" width="0.3" height="8.5"/>
					
						<rect x="216.1" y="58.3" transform="matrix(2.318652e-003 -1 1 2.318652e-003 153.1452 278.6435)" class="st5" width="0.3" height="8.5"/>
					
						<rect x="216" y="59.5" transform="matrix(2.323794e-003 -1 1 2.323794e-003 151.9028 279.7804)" class="st5" width="0.3" height="8.5"/>
					
						<rect x="216" y="60.6" transform="matrix(2.323782e-003 -1 1 2.323782e-003 150.7364 280.8434)" class="st5" width="0.3" height="8.5"/>
				</g>
				<g>
					
						<rect x="226.7" y="51.5" transform="matrix(2.313499e-003 -1 1 2.313499e-003 170.5764 282.4961)" class="st5" width="0.3" height="8.5"/>
					
						<rect x="226.7" y="52.6" transform="matrix(2.318652e-003 -1 1 2.318652e-003 169.4091 283.5589)" class="st5" width="0.3" height="8.5"/>
					
						<rect x="226.7" y="53.7" transform="matrix(2.323782e-003 -1 1 2.323782e-003 168.3158 284.6962)" class="st5" width="0.3" height="8.5"/>
					
						<rect x="226.7" y="54.9" transform="matrix(2.313511e-003 -1 1 2.313511e-003 167.1512 285.909)" class="st5" width="0.3" height="8.5"/>
					
						<rect x="226.7" y="56" transform="matrix(2.318641e-003 -1 1 2.318641e-003 165.9836 286.9716)" class="st5" width="0.3" height="8.5"/>
					
						<rect x="226.7" y="57.2" transform="matrix(2.323782e-003 -1 1 2.323782e-003 164.8903 288.109)" class="st5" width="0.3" height="8.5"/>
					
						<rect x="226.7" y="58.3" transform="matrix(2.318629e-003 -1 1 2.318629e-003 163.7248 289.3216)" class="st5" width="0.3" height="8.5"/>
					
						<rect x="226.7" y="59.5" transform="matrix(2.318652e-003 -1 1 2.318652e-003 162.5585 290.3846)" class="st5" width="0.3" height="8.5"/>
					
						<rect x="226.7" y="60.7" transform="matrix(2.323782e-003 -1 1 2.323782e-003 161.3903 291.5963)" class="st5" width="0.3" height="8.5"/>
				</g>
				<g>
					<path class="st5" d="M207.7,71.7c-2,0-3.7,1.6-3.7,3.7c0,2,1.6,3.7,3.7,3.7c2,0,3.7-1.6,3.7-3.7
						C211.3,73.3,209.7,71.7,207.7,71.7z M207.7,78.5c-1.7,0-3.1-1.4-3.1-3.2c0-1.7,1.4-3.1,3.2-3.1c1.7,0,3.1,1.4,3.1,3.2
						C210.9,77.1,209.5,78.5,207.7,78.5z"/>
					<path class="st5" d="M216.7,71.7c-2,0-3.7,1.6-3.7,3.7c0,2,1.6,3.7,3.7,3.7c2,0,3.7-1.6,3.7-3.7
						C220.4,73.3,218.7,71.7,216.7,71.7z M216.7,78.5c-1.7,0-3.1-1.4-3.1-3.2c0-1.7,1.4-3.1,3.2-3.1c1.7,0,3.1,1.4,3.1,3.2
						C219.9,77.1,218.5,78.5,216.7,78.5z"/>
					<path class="st5" d="M226.1,71.7c-2,0-3.7,1.6-3.7,3.7c0,2,1.6,3.7,3.7,3.7c2,0,3.7-1.6,3.7-3.7S228.1,71.7,226.1,71.7z
						 M226.1,78.5c-1.7,0-3.1-1.4-3.1-3.2c0-1.7,1.4-3.1,3.2-3.1c1.7,0,3.1,1.4,3.1,3.2C229.2,77.1,227.8,78.5,226.1,78.5z"/>
					
						<ellipse transform="matrix(2.313594e-003 -1 1 2.313594e-003 131.8129 282.8354)" class="st5" cx="207.7" cy="75.4" rx="1.3" ry="1.3"/>
					
						<ellipse transform="matrix(2.326877e-003 -1 1 2.326877e-003 140.8592 291.9218)" class="st5" cx="216.7" cy="75.4" rx="1.3" ry="1.3"/>
					
						<ellipse transform="matrix(2.310257e-003 -1 1 2.310257e-003 150.1785 301.3384)" class="st5" cx="226.1" cy="75.4" rx="1.3" ry="1.3"/>
				</g>
				<path class="st5" d="M231,39.8h-54.6c-0.5,0-0.9,0.4-0.9,0.9c0,0.4,0.4,0.9,0.9,0.9H231c0.5,0,0.9-0.4,0.9-0.9
					C231.9,40.3,231.5,39.8,231,39.8z"/>
				<path class="st5" d="M231,43.7h-54.6c-0.5,0-0.9,0.4-0.9,0.9c0,0.5,0.4,0.9,0.9,0.9H231c0.5,0,0.9-0.4,0.9-0.9
					C232,44.2,231.5,43.7,231,43.7z"/>
				<path class="st5" d="M231,47.6h-54.6c-0.5,0-0.9,0.4-0.9,0.9c0,0.5,0.4,0.9,0.9,0.9H231c0.5,0,0.9-0.4,0.9-0.9
					C232,48,231.5,47.6,231,47.6z"/>
			</g>
			<g>
				
					<rect x="202.8" y="65.4" transform="matrix(2.320288e-003 -1 1 2.320288e-003 113.6058 291.8157)" class="st5" width="0.4" height="47.2"/>
				
					<rect x="202.8" y="68" transform="matrix(2.320290e-003 -1 1 2.320290e-003 110.9793 294.3926)" class="st5" width="0.4" height="47.2"/>
				
					<rect x="202.9" y="70.6" transform="matrix(2.320291e-003 -1 1 2.320291e-003 108.4276 297.0444)" class="st5" width="0.4" height="47.2"/>
				
					<rect x="202.8" y="73.1" transform="matrix(2.321219e-003 -1 1 2.321219e-003 105.8758 299.5468)" class="st5" width="0.4" height="47.2"/>
				
					<rect x="202.9" y="75.7" transform="matrix(2.320289e-003 -1 1 2.320289e-003 103.3988 302.1245)" class="st5" width="0.4" height="47.2"/>
				
					<rect x="202.9" y="78.3" transform="matrix(2.321221e-003 -1 1 2.321221e-003 100.7724 304.7013)" class="st5" width="0.4" height="47.2"/>
				
					<rect x="202.8" y="80.8" transform="matrix(2.320288e-003 -1 1 2.320288e-003 98.221 307.2039)" class="st5" width="0.4" height="47.2"/>
				
					<rect x="202.8" y="83.3" transform="matrix(2.320286e-003 -1 1 2.320286e-003 95.6696 309.7065)" class="st5" width="0.4" height="47.2"/>
				
					<rect x="202.8" y="85.9" transform="matrix(2.319358e-003 -1 1 2.319358e-003 93.1185 312.2095)" class="st5" width="0.4" height="47.2"/>
				
					<rect x="202.8" y="88.4" transform="matrix(2.320290e-003 -1 1 2.320290e-003 90.5667 314.7118)" class="st5" width="0.4" height="47.2"/>
				<g>
					
						<rect x="172.8" y="99.9" transform="matrix(2.321221e-003 -1 1 2.321221e-003 81.4252 285.7905)" class="st3" width="22.2" height="4.3"/>
					
						<rect x="203.7" y="100" transform="matrix(2.321221e-003 -1 1 2.321221e-003 112.1833 316.7256)" class="st3" width="22.2" height="4.3"/>
					
						<rect x="183.8" y="103.3" transform="matrix(2.321226e-003 -1 1 2.321226e-003 85.5876 296.7288)" class="st4" width="15.5" height="4.3"/>
					
						<rect x="218.2" y="107" transform="matrix(2.311129e-003 -1 1 2.311129e-003 112.688 331.2597)" class="st4" width="8.2" height="4.3"/>
					
						<rect x="194.4" y="98.4" transform="matrix(2.321245e-003 -1 1 2.321245e-003 106.0568 307.4467)" class="st4" width="25.4" height="4.3"/>
					
						<rect x="190.3" y="102" transform="matrix(2.321221e-003 -1 1 2.321221e-003 94.7868 303.2804)" class="st3" width="18.2" height="4.3"/>
				</g>
			</g>
			<g>
				<g>
					<path class="st7" d="M240.9,41.1h-2.3c-0.1,0-0.3,0.1-0.3,0.3l0,0c0,0.1,0.1,0.3,0.3,0.3h2.3c0.1,0,0.3-0.1,0.3-0.3l0,0
						C241.2,41.2,241.1,41.1,240.9,41.1z"/>
					<path class="st7" d="M240.9,42.1h-2.3c-0.1,0-0.3,0.1-0.3,0.3s0.1,0.3,0.3,0.3h2.3c0.1,0,0.3-0.1,0.3-0.3
						S241.1,42.1,240.9,42.1z"/>
					<path class="st7" d="M240.9,43.3h-2.3c-0.1,0-0.3,0.1-0.3,0.3l0,0c0,0.1,0.1,0.3,0.3,0.3h2.3c0.1,0,0.3-0.1,0.3-0.3l0,0
						C241.2,43.4,241.1,43.3,240.9,43.3z"/>
				</g>
				<path class="st8" d="M290.7,41.1h-37.8c-0.8,0-1.4,0.7-1.4,1.4c0,0.8,0.7,1.4,1.4,1.4h37.8c0.8,0,1.4-0.7,1.4-1.4
					C292.1,41.7,291.4,41.1,290.7,41.1z"/>
				<path class="st3" d="M290.7,41.1h-3.1c-0.8,0-1.4,0.7-1.4,1.4c0,0.8,0.7,1.4,1.4,1.4h3.1c0.8,0,1.4-0.7,1.4-1.4
					C292.1,41.7,291.4,41.1,290.7,41.1z"/>
				<rect x="248.9" y="48.9" class="st9" width="0.4" height="64.9"/>
				<path class="st4" d="M245.1,48.9h-5.8c-1,0-1.8,0.8-1.8,1.8s0.8,1.8,1.8,1.8h5.8c1,0,1.8-0.8,1.8-1.8S246.1,48.9,245.1,48.9z"/>
				<rect x="237.4" y="54.1" class="st10" width="9.4" height="0.5"/>
				<rect x="237.4" y="56.5" class="st10" width="9.4" height="0.5"/>
				<rect x="237.4" y="58.8" class="st10" width="9.4" height="0.5"/>
				<rect x="237.4" y="61.2" class="st10" width="9.4" height="0.5"/>
				<rect x="237.4" y="63.6" class="st10" width="9.4" height="0.5"/>
				<rect x="237.4" y="65.9" class="st10" width="9.4" height="0.5"/>
				<rect x="237.4" y="68.3" class="st10" width="9.4" height="0.5"/>
				<rect x="237.4" y="70.6" class="st10" width="9.4" height="0.5"/>
				<rect x="237.4" y="73.7" class="st8" width="9.4" height="1.5"/>
				<path class="st5" d="M246.1,77.4h-7.9c-0.4,0-0.7,0.3-0.7,0.7s0.3,0.7,0.7,0.7h7.9c0.4,0,0.7-0.3,0.7-0.7S246.6,77.4,246.1,77.4
					z"/>
				<path class="st5" d="M246.1,79.1h-7.9c-0.4,0-0.7,0.3-0.7,0.7s0.3,0.7,0.7,0.7h7.9c0.4,0,0.7-0.3,0.7-0.7
					C246.9,79.5,246.6,79.1,246.1,79.1z"/>
				<path class="st5" d="M246.1,80.9h-7.9c-0.4,0-0.7,0.3-0.7,0.7s0.3,0.7,0.7,0.7h7.9c0.4,0,0.7-0.3,0.7-0.7
					C246.9,81.3,246.6,80.9,246.1,80.9z"/>
				<path class="st5" d="M246.1,82.7h-7.9c-0.4,0-0.7,0.3-0.7,0.7s0.3,0.7,0.7,0.7h7.9c0.4,0,0.7-0.3,0.7-0.7S246.6,82.7,246.1,82.7
					z"/>
				<path class="st5" d="M251.6,55.1h40.6v-3.5h-40.6V55.1z M251.7,51.7H292v3.1h-40.3V51.7z"/>
				<path class="st5" d="M251.6,60h40.6v-3.5h-40.6V60z M251.7,56.6H292v3.1h-40.3V56.6z"/>
				<path class="st5" d="M251.6,64.9h40.6v-3.5h-40.6V64.9z M251.7,61.6H292v3.1h-40.3V61.6z"/>
				<path class="st5" d="M251.6,69.8h40.6v-3.5h-40.6V69.8z M251.7,66.4H292v3.1h-40.3V66.4z"/>
				<path class="st5" d="M251.6,74.7h40.6v-3.5h-40.6V74.7z M251.7,71.4H292v3.1h-40.3V71.4z"/>
				<path class="st5" d="M251.6,79.6h40.6v-3.5h-40.6V79.6z M251.7,76.3H292v3.1h-40.3V76.3z"/>
				<path class="st5" d="M251.6,84.5h40.6V81h-40.6V84.5z M251.7,81.2H292v3.1h-40.3V81.2z"/>
				<path class="st5" d="M251.6,89.4h40.6v-3.5h-40.6V89.4z M251.7,86.1H292v3.1h-40.3V86.1z"/>
				<path class="st5" d="M251.6,94.3h40.6v-3.5h-40.6V94.3z M251.7,91H292v3.1h-40.3V91z"/>
				<path class="st5" d="M251.6,99.3h40.6v-3.5h-40.6V99.3z M251.7,95.9H292V99h-40.3V95.9z"/>
				<path class="st5" d="M251.6,104.1h40.6v-3.5h-40.6V104.1z M251.7,100.8H292v3.1h-40.3V100.8z"/>
				<path class="st5" d="M251.6,109.1h40.6v-3.5h-40.6V109.1z M251.7,105.7H292v3.1h-40.3V105.7z"/>
				<path class="st5" d="M251.6,114h40.6v-3.5h-40.6V114z M251.7,110.6H292v3.1h-40.3V110.6z"/>
				<path class="st8" d="M291.3,45.5H238c-0.5,0-1,0.4-1,1c0,0.5,0.4,1,1,1h53.4c0.5,0,1-0.4,1-1C292.3,46,291.9,45.5,291.3,45.5z"
					/>
			</g>
		</g>
		<g>
			<path class="st1" d="M306.7,17.8H163.8c-3.8,0-7,3.1-7,7s3.1,7,7,7h142.9c3.8,0,7-3.1,7-7S310.5,17.8,306.7,17.8z M306.7,30
				H163.8c-2.8,0-5.2-2.3-5.2-5.2s2.3-5.2,5.2-5.2h142.9c2.8,0,5.2,2.3,5.2,5.2S309.6,30,306.7,30z"/>
		</g>
		<rect x="299.5" y="33" class="st11" width="1.6" height="89.6"/>
	</g>
	<g>
		<g>
			<g>
				<polygon class="st12" points="125.1,220.4 125.1,226.4 143.8,226.4 143.8,223.4 136.2,219.3 				"/>
				<path class="st1" d="M144.7,221.9l-7.6-4.1c-0.2-0.1-0.5-0.2-0.8-0.2c-0.1,0-0.1,0-0.1,0l-11.1,1c-0.9,0.1-1.6,0.8-1.6,1.7v6.1
					c0,1,0.8,1.7,1.7,1.7h18.8c1,0,1.7-0.8,1.7-1.7v-3.1C145.6,222.8,145.3,222.2,144.7,221.9z M143.8,226.4h-18.8v-6.1l11.1-1
					l7.6,4.1V226.4L143.8,226.4z"/>
			</g>
			<g>
				<polygon class="st12" points="104.5,220.4 104.5,226.4 123.3,226.4 123.3,223.4 115.6,219.3 				"/>
				<path class="st1" d="M124.1,221.9l-7.6-4.1c-0.2-0.1-0.5-0.2-0.8-0.2c-0.1,0-0.1,0-0.1,0l-11.1,1c-0.9,0.1-1.6,0.8-1.6,1.7v6.1
					c0,1,0.8,1.7,1.7,1.7h18.8c1,0,1.7-0.8,1.7-1.7v-3.1C125.1,222.8,124.7,222.2,124.1,221.9z M123.3,226.4h-18.8v-6.1l11.1-1
					l7.6,4.1C123.3,223.4,123.3,226.4,123.3,226.4z"/>
			</g>
			<g>
				<polygon class="st3" points="105.3,218.7 118.4,218.7 118.4,155 126,155 126,218.7 138.1,218.7 138.1,135 105.3,135 				"/>
				<path class="st1" d="M105.3,133.3h-1.7v1.7v83.7v1.7h1.7h13.1h1.7v-1.7v-62h4.1v62v1.7h1.7h12.1h1.7v-1.7V135v-1.7h-1.7
					L105.3,133.3L105.3,133.3z M138.1,218.7H126V155h-7.6v63.8h-13.1V135H138L138.1,218.7L138.1,218.7z"/>
			</g>
			<rect x="105.3" y="135" class="st13" width="32.7" height="5"/>
			<g>
				<g>
					<path class="st2" d="M180.8,94.3l-24.7,7l-19.1-13.4c-2.3-1.6-5.5-1-7.1,1.3s-1,5.5,1.3,7.1l21.1,14.7c1.3,0.9,2.8,1.1,4.3,0.7
						l27-7.6c2.2-0.6,3.7-2.5,3.7-4.7c0-0.5-0.1-1-0.2-1.6C186.4,95.1,183.6,93.6,180.8,94.3z"/>
					<path class="st1" d="M182.3,92.4c-0.6,0-1.3,0.1-1.9,0.2l-23.8,6.7l-18.4-12.9c-1.2-0.8-2.5-1.3-4-1.3c-2.2,0-4.3,1.1-5.6,2.9
						c-2.2,3.1-1.4,7.4,1.6,9.6l21.1,14.7c1.2,0.8,2.5,1.3,4,1.3c0.6,0,1.3-0.1,1.9-0.2l27-7.6c2.8-0.8,4.9-3.4,5-6.4
						c0-0.7-0.1-1.4-0.2-2.2C188,94.5,185.3,92.4,182.3,92.4z M187.3,99.5c-0.1,2.2-1.5,4.1-3.7,4.7l-27,7.6
						c-0.4,0.1-0.9,0.2-1.4,0.2c-1,0-2.1-0.3-2.9-0.9l-21-14.9c-2.3-1.6-2.8-4.8-1.3-7.1c1-1.4,2.5-2.2,4.2-2.2c1,0,2,0.3,2.9,0.9
						l19.1,13.4l24.7-7c0.4-0.1,0.9-0.2,1.4-0.2c2.2,0,4.3,1.5,4.9,3.7C187.3,98.4,187.4,99,187.3,99.5z"/>
				</g>
			</g>
			<g>
				<path class="st0" d="M132.5,62.8c0-5.8-4.7-10.5-10.5-10.5c-5.8,0-10.5,4.7-10.5,10.5v2.1H110c-1.8,0-3.3,1.5-3.3,3.3
					c0,1.6,1.3,3,3,3h1.9v16h20.8V72.6h3.7l-3.6-4.5V62.8z"/>
				<path class="st1" d="M134.3,67.5v-4.7c0-6.7-5.5-12.3-12.3-12.3c-6.7,0-12.3,5.5-12.3,12.3v0.4c-2.7,0.1-4.9,2.3-4.9,5
					c0,2.6,2.2,4.8,4.8,4.8h0.1v14.2c0,1,0.8,1.7,1.7,1.7h20.8c1,0,1.7-0.8,1.7-1.7V74.3h1.9c0.7,0,1.3-0.4,1.6-1s0.2-1.3-0.2-1.9
					L134.3,67.5z M132.4,72.6v14.6h-20.8v-16h-1.9c-1.6,0-3-1.3-3-3c0-1.8,1.5-3.3,3.3-3.3h1.6v-2.1c0-5.8,4.7-10.5,10.5-10.5
					c5.8,0,10.5,4.7,10.5,10.5v5.3l3.6,4.5C136.1,72.6,132.4,72.6,132.4,72.6z"/>
			</g>
			<g>
				<path class="st14" d="M109.6,55.1l1.5,8.1h1.6l-0.1,7.8h3.2V60h17.1l4.6-14.4h-19.7C112.8,45.7,108.9,50.1,109.6,55.1z"/>
				<path class="st1" d="M137.5,43.9L137.5,43.9h-19.7c-2.9,0-5.7,1.3-7.6,3.4c-1.9,2.2-2.8,5.1-2.4,7.9v0.1l1.5,8.1
					c0.1,0.8,0.8,1.3,1.6,1.4l-0.1,6c0,0.4,0.1,0.9,0.5,1.3c0.3,0.4,0.7,0.5,1.3,0.5h3.2c1,0,1.7-0.8,1.7-1.7v-9.3h15.3
					c0.7,0,1.4-0.5,1.6-1.2l4.6-14.3c0.1-0.2,0.1-0.4,0.1-0.6C139.3,44.7,138.4,43.9,137.5,43.9z M137.5,45.7L132.8,60h-17.1v11.1
					h-3.1l0.1-7.8h-1.6l-1.5-8.1c-0.7-5,3.2-9.4,8.2-9.4L137.5,45.7L137.5,45.7L137.5,45.7z"/>
			</g>
			<path class="st1" d="M128,65.5h-4.5c-0.4,0-0.9,0.4-0.9,0.9c0,0.4,0.4,0.9,0.9,0.9h4.5c0.4,0,0.9-0.4,0.9-0.9
				S128.5,65.5,128,65.5z"/>
			<path class="st1" d="M126,67.3c-0.4,0-0.9,0.4-0.9,0.9v2.9c0,0.4,0.4,0.9,0.9,0.9c0.4,0,0.9-0.4,0.9-0.9v-2.9
				C126.9,67.6,126.5,67.3,126,67.3z"/>
			<rect x="124.9" y="76.5" class="st1" width="4.9" height="0.9"/>
			<circle class="st1" cx="124.8" cy="77.1" r="0.7"/>
			<g>
				<path class="st2" d="M135.5,87.2h-28.7c-2.2,0-4,1.8-4,4v40c0,2.2,1.8,4,4,4h28.7c2.2,0,4-1.8,4-4v-40
					C139.5,89,137.7,87.2,135.5,87.2z"/>
				<path class="st1" d="M135.5,85.5h-28.7c-3.1,0-5.8,2.5-5.8,5.8v40c0,3.1,2.5,5.8,5.8,5.8h28.7c3.1,0,5.8-2.5,5.8-5.8v-40
					C141.2,88,138.7,85.5,135.5,85.5z M139.5,131.2c0,2.2-1.8,4-4,4h-28.7c-2.2,0-4-1.8-4-4v-40c0-2.2,1.8-4,4-4h28.7
					c2.2,0,4,1.8,4,4C139.5,91.2,139.5,131.2,139.5,131.2z"/>
			</g>
			<path class="st4" d="M127.6,97.5l2.5-3.7l-3.2-5.2l-5,4.3l4.2,4.5l-5,26.5c-0.1,0.5,0.1,1.1,0.4,1.6l5.3,5.2
				c0.4,0.4,0.9,0.3,1.3-0.1l4.2-5.1c0.3-0.4,0.4-0.9,0.4-1.4L127.6,97.5z"/>
			<g>
				<g>
					
						<rect x="86.1" y="125.4" transform="matrix(0.9179 -0.3969 0.3969 0.9179 -45.9113 51.794)" class="st2" width="32.1" height="22.8"/>
					<path class="st1" d="M114,119.3c-0.3-0.7-0.9-1-1.6-1c-0.2,0-0.4,0.1-0.7,0.1l-29.5,12.8c-0.4,0.1-0.7,0.5-1,1
						c-0.1,0.4-0.1,0.9,0,1.3l9,20.9c0.3,0.7,0.9,1,1.6,1c0.2,0,0.4-0.1,0.7-0.1l29.5-12.8c0.4-0.1,0.7-0.5,1-1
						c0.1-0.4,0.1-0.9,0-1.3L114,119.3z M92,153.7l-9-20.9l29.5-12.8l9,20.9L92,153.7z"/>
				</g>
				<g>
					<path class="st11" d="M118.8,133.9c1.9-0.8,2.8-3.1,2-5.1c-0.8-1.9-3.1-2.8-5.1-2c-0.1,0.1-0.2,0.1-0.3,0.1l-3-7l-4.3,1.9
						l9,20.9l4.3-1.9l-3-7C118.6,134,118.7,133.9,118.8,133.9z"/>
					<path class="st1" d="M120.7,134.8c2-1.6,2.8-4.3,1.7-6.7c-0.9-2.1-2.9-3.4-5.2-3.4c-0.3,0-0.6,0-0.9,0.1l-2.4-5.5
						c-0.3-0.7-0.9-1-1.6-1c-0.2,0-0.4,0.1-0.7,0.1l-4.3,1.9c-0.4,0.1-0.7,0.5-1,1c-0.1,0.4-0.1,0.9,0,1.3l9,20.9
						c0.3,0.7,0.9,1,1.6,1c0.2,0,0.4-0.1,0.7-0.1l4.3-1.9c0.4-0.1,0.7-0.5,1-1c0.1-0.4,0.1-0.9,0-1.3L120.7,134.8z M117.2,142.8
						l-9-20.9l4.3-1.9l3,7c0.1-0.1,0.2-0.1,0.3-0.1c0.5-0.2,1-0.3,1.6-0.3c1.5,0,2.9,0.9,3.6,2.3c0.8,1.9-0.1,4.3-2,5.1
						c-0.1,0.1-0.2,0.1-0.4,0.1l3,7L117.2,142.8z"/>
				</g>
				
					<ellipse transform="matrix(0.9179 -0.3969 0.3969 0.9179 -41.9371 57.4708)" class="st1" cx="117.9" cy="130.1" rx="2.1" ry="2.1"/>
				
					<rect x="112.7" y="120.7" transform="matrix(0.9179 -0.3969 0.3969 0.9179 -43.144 55.7409)" class="st15" width="0.9" height="22.8"/>
				<path class="st15" d="M106,127.5c-0.1-0.2-0.4-0.3-0.5-0.2c-0.2,0.1-0.3,0.4-0.2,0.5l5.7,13.2c0.1,0.2,0.4,0.3,0.5,0.2
					c0.2-0.1,0.3-0.4,0.2-0.5L106,127.5z"/>
				<path class="st15" d="M103.2,128.7c-0.1-0.2-0.4-0.3-0.5-0.2c-0.2,0.1-0.3,0.4-0.2,0.5l5.7,13.2c0.1,0.2,0.4,0.3,0.5,0.2
					c0.2-0.1,0.3-0.4,0.2-0.5L103.2,128.7z"/>
				<path class="st15" d="M100.2,130c-0.1-0.2-0.4-0.3-0.5-0.2c-0.2,0.1-0.3,0.4-0.2,0.5l5.7,13.2c0.1,0.2,0.4,0.3,0.5,0.2
					c0.2-0.1,0.3-0.4,0.2-0.5L100.2,130z"/>
				<path class="st15" d="M97.4,131.2c-0.1-0.2-0.4-0.3-0.5-0.2c-0.2,0.1-0.3,0.4-0.2,0.5l5.7,13.2c0.1,0.2,0.4,0.3,0.5,0.2
					c0.2-0.1,0.3-0.4,0.2-0.5L97.4,131.2z"/>
				<path class="st15" d="M94.6,132.5c-0.1-0.2-0.4-0.3-0.5-0.2c-0.2,0.1-0.3,0.4-0.2,0.5l5.7,13.2c0.1,0.2,0.4,0.3,0.5,0.2
					c0.2-0.1,0.3-0.4,0.2-0.5L94.6,132.5z"/>
				<path class="st15" d="M91.7,133.6c-0.1-0.2-0.4-0.3-0.5-0.2c-0.2,0.1-0.3,0.4-0.2,0.5l5.7,13.2c0.1,0.2,0.4,0.3,0.5,0.2
					c0.2-0.1,0.3-0.4,0.2-0.5L91.7,133.6z"/>
				<path class="st15" d="M88.9,134.9c-0.1-0.2-0.4-0.3-0.5-0.2c-0.2,0.1-0.3,0.4-0.2,0.5l5.7,13.2c0.1,0.2,0.4,0.3,0.5,0.2
					c0.2-0.1,0.3-0.4,0.2-0.5L88.9,134.9z"/>
			</g>
			<g>
				<path class="st0" d="M97.4,143.2l3.2,6.1c1,1.9,3.3,2.9,5.5,2.3l1,1l3.5-2l-4.5-10.5L97.4,143.2z"/>
				<path class="st1" d="M107.7,139.3c-0.3-0.7-0.9-1-1.6-1c-0.2,0-0.4,0-0.6,0.1l-8.7,3.2c-0.4,0.1-0.8,0.5-1,1
					c-0.1,0.4-0.1,1,0.1,1.4l3.2,6.1c1.1,2.1,3.4,3.4,5.8,3.4c0.2,0,0.4,0,0.7,0l0.3,0.3c0.4,0.4,0.8,0.5,1.3,0.5
					c0.3,0,0.6-0.1,0.9-0.2l3.5-2c0.7-0.4,1.1-1.4,0.7-2.2L107.7,139.3z M107,152.6l-1-1c-0.4,0.1-0.8,0.1-1.3,0.1
					c-1.7,0-3.4-0.9-4.2-2.5l-3.2-6.1l8.7-3.2l4.5,10.5L107,152.6z"/>
			</g>
			<g>
				<g>
					<path class="st2" d="M109.3,88.1c-2.4-1.6-5.6-0.9-7.1,1.5l-14,21.6c-0.8,1.3-1,2.9-0.6,4.3l8.7,26.7c0.7,2.2,2.7,3.5,4.9,3.5
						c0.6,0,1.2-0.1,1.7-0.3c2.6-1,3.9-3.9,3.1-6.5l-7.8-24.2l0,0l12.5-19.4C112.1,92.9,111.6,89.6,109.3,88.1z"/>
					<path class="st1" d="M110.3,86.6c-1.1-0.7-2.5-1.1-3.8-1.1l0,0c-2.3,0-4.5,1.2-5.8,3.1l-13.9,21.6c-1.1,1.7-1.4,3.9-0.7,5.8
						l8.7,26.7c0.9,2.8,3.5,4.7,6.5,4.7c0.8,0,1.6-0.1,2.3-0.4c3.4-1.3,5.3-5.2,4.1-8.7L100,115l12-18.8
						C114.2,93,113.3,88.7,110.3,86.6z M110.6,95.2l-12.5,19.4l0,0l7.8,24.2c0.9,2.6-0.4,5.6-3.1,6.5c-0.6,0.2-1.2,0.3-1.7,0.3
						c-2.2,0-4.2-1.3-4.9-3.5l-8.7-26.7c-0.4-1.5-0.3-3.1,0.6-4.3l13.9-21.6c1-1.5,2.6-2.3,4.3-2.3c1,0,1.9,0.3,2.8,0.8
						C111.6,89.6,112.1,92.9,110.6,95.2z"/>
				</g>
			</g>
			<g>
				<circle class="st0" cx="184.5" cy="98.3" r="5.2"/>
				<path class="st1" d="M184.5,91.3c-3.9,0-7,3.1-7,7s3.1,7,7,7s7-3.1,7-7C191.5,94.5,188.4,91.3,184.5,91.3z M184.5,103.5
					c-2.9,0-5.2-2.3-5.2-5.2c0-2.9,2.3-5.2,5.2-5.2c2.9,0,5.2,2.3,5.2,5.2C189.7,101.2,187.4,103.5,184.5,103.5z"/>
			</g>
			<g>
				<path class="st2" d="M203.5,61.7c-1-0.5-2.2-0.1-2.8,0.8l-19.3,36.1c-0.5,1-0.1,2.2,0.8,2.8c0.3,0.1,0.6,0.2,1,0.2
					c0.7,0,1.4-0.4,1.8-1l19.3-36.1C204.8,63.4,204.5,62.2,203.5,61.7z"/>
				<path class="st1" d="M203.9,60.9c-1.4-0.7-3.1-0.2-4,1.2l-19.3,36.1c-0.4,0.7-0.4,1.5-0.2,2.2s0.7,1.3,1.4,1.7
					c0.4,0.2,0.9,0.4,1.3,0.4c1,0,2-0.6,2.5-1.6L205,64.9C205.8,63.4,205.3,61.7,203.9,60.9z M203.5,64l-19.3,36.1
					c-0.3,0.5-1,0.7-1.6,0.4c-0.5-0.3-0.7-1-0.4-1.6l19.3-36.1c0.2-0.4,0.6-0.6,1-0.6c0.1,0,0.4,0.1,0.5,0.1
					C203.6,62.7,203.8,63.4,203.5,64z"/>
			</g>
			<g>
				<path class="st0" d="M185.8,94.2l-2.2-1.1l-3.8,4.5l4.6,0.8c1,0.1,1.9-0.3,2.3-1.1C187.3,96.2,186.9,94.8,185.8,94.2z"/>
				<path class="st1" d="M186.1,93.5l-2.2-1.1c-0.4-0.2-1-0.1-1.2,0.4c-0.2,0.4-0.1,1,0.4,1.2l2.2,1.1c0.3,0.1,0.5,0.4,0.7,0.8
					c0.1,0.4,0.1,0.7-0.1,1c-0.3,0.5-0.8,0.7-1.4,0.7l-4.6-0.8c-0.4-0.1-0.9,0.2-1,0.7c-0.1,0.4,0.2,0.9,0.7,1l4.6,0.8
					c0.1,0,0.4,0.1,0.5,0.1c1.1,0,2.2-0.6,2.7-1.6c0.4-0.7,0.4-1.6,0.2-2.4C187.5,94.5,186.9,93.9,186.1,93.5z"/>
			</g>
		</g>
		<path class="st16" d="M130,54.7c-0.6,1.6-2,2.6-3.7,2.6h-9.7c-1,0-1.8,0.8-1.8,1.8v12h1V60h17.1l4.6-14.4h-4.2L130,54.7z"/>
		<path class="st1" d="M127.4,86.6l-6.2,6.2l-7-6.9c-0.4-0.4-0.9-0.3-1.3,0c-0.4,0.4-0.3,0.9,0,1.3l7.6,7.5c0.1,0.1,0.4,0.2,0.6,0.2
			s0.4-0.1,0.6-0.2l6.9-6.8c0.4-0.4,0.4-0.9,0-1.3C128.3,86.2,127.8,86.2,127.4,86.6z"/>
		<path class="st1" d="M136.6,86.3c-0.4-0.3-1-0.1-1.2,0.2l-4,5.8l-2.9-5.1c-0.2-0.4-0.7-0.6-1.2-0.3c-0.4,0.2-0.6,0.7-0.3,1.2
			l3.6,6.3c0.1,0.3,0.4,0.4,0.7,0.4l0,0c0.3,0,0.6-0.1,0.7-0.4l4.8-7C137.1,87.1,137,86.5,136.6,86.3z"/>
	</g>
	<g>
		<g>
			<path class="st0" d="M262.3,121.7c-1.7,0-3.1,1.4-3.2,3.1c0,2.4,0.5,5.4,3.4,5.8c4.9,0.7,2.8-9,2.8-9H262.3z"/>
			<path class="st1" d="M265.2,120.8h-2.9c-2.2,0-4,1.8-4,4c-0.1,3.9,1.4,6.3,4.1,6.7c0.2,0,0.4,0.1,0.7,0.1c1.1,0,1.9-0.5,2.2-1
				c2.2-2.4,1-8.4,0.9-9.1C265.9,121.1,265.6,120.8,265.2,120.8z M263.9,129.5c-0.2,0.2-0.6,0.5-1.3,0.4c-1.8-0.3-2.6-1.9-2.6-4.9
				c0-1.3,1-2.3,2.3-2.3h2.2C264.9,124.9,265,128.3,263.9,129.5z"/>
		</g>
		<g>
			<path class="st0" d="M286.7,121.7h-2.9c0,0-2.1,9.7,2.8,9c2.8-0.4,3.4-3.4,3.4-5.8C289.8,123.1,288.4,121.7,286.7,121.7z"/>
			<path class="st1" d="M286.7,120.8h-2.9c-0.4,0-0.7,0.3-0.8,0.7c-0.1,0.7-1.3,6.8,0.9,9.1c0.4,0.4,1.1,1,2.2,1
				c0.2,0,0.4,0,0.7-0.1c2.7-0.4,4.1-2.8,4.1-6.7C290.7,122.6,288.9,120.8,286.7,120.8z M286.4,129.8c-0.8,0.1-1.1-0.1-1.3-0.4
				c-1.1-1.1-1-4.6-0.5-6.9h2.2c1.3,0,2.3,1,2.3,2.3C289.1,127.9,288.2,129.5,286.4,129.8z"/>
		</g>
		<g>
			<path class="st0" d="M274.4,115.8c-5.4,0-9.7,4.3-9.7,9.7v19.1H284v-19.2C284.1,120.1,279.7,115.8,274.4,115.8z"/>
			<path class="st1" d="M274.4,114.9c-5.8,0-10.5,4.7-10.5,10.5v19.1c0,0.4,0.4,0.9,0.9,0.9h19.4c0.4,0,0.9-0.4,0.9-0.9v-19.1
				C285,119.6,280.2,114.9,274.4,114.9z M283.2,143.7h-17.6v-18.2c0-4.9,4-8.8,8.8-8.8s8.8,4,8.8,8.8V143.7L283.2,143.7z"/>
		</g>
		<g>
			<path class="st14" d="M277.6,110.1l-13.8-1.7v23.1l3.4,5.2h14.8l3-5.2l1.3-10.4C286.8,115.7,283,110.8,277.6,110.1z"/>
			<path class="st1" d="M277.8,108.3l-13.8-1.7c-0.1,0-0.1,0-0.2,0c-0.4,0-0.8,0.1-1.2,0.4s-0.6,0.8-0.6,1.3v23.1
				c0,0.4,0.1,0.7,0.3,1l3.4,5.2c0.3,0.5,0.9,0.8,1.5,0.8h14.8c0.6,0,1.2-0.4,1.5-0.9l3-5.2c0.1-0.2,0.2-0.4,0.2-0.7l1.3-10.4
				C288.7,115,284.2,109.1,277.8,108.3z M286.2,121.1l-1.3,10.4l-3,5.2h-14.8l-3.4-5.2v-23.1l13.8,1.7
				C283,110.8,286.8,115.7,286.2,121.1z"/>
		</g>
		<path class="st16" d="M263.8,128v3.4l3.4,5.2h14.8l3-5.2l0.5-4.6c-2.3,2.3-5.8,4.2-10.5,5.1C269.5,133,265.9,130.5,263.8,128z"/>
		<g>
			<path class="st2" d="M286.5,144.7h-25.2c-4.6,0-8.1,3.8-7.8,8.4l1.9,30h38.1l1-30.3C294.5,148.4,290.9,144.7,286.5,144.7z"/>
			<path class="st1" d="M286.5,143h-25.2c-2.6,0-5.2,1.1-7,3.1c-1.8,1.9-2.8,4.6-2.6,7.2l1.9,30c0.1,0.9,0.8,1.6,1.7,1.6h38.1
				c1,0,1.7-0.7,1.7-1.7l1-30.3c0.1-2.6-0.9-5.1-2.7-7C291.6,144,289.1,143,286.5,143z M293.4,183.1h-38l-1.9-30
				c-0.3-4.6,3.3-8.4,7.8-8.4h25.2c4.4,0,8,3.7,7.8,8.1L293.4,183.1z"/>
		</g>
		<g>
			<path class="st3" d="M279.7,151.1h-10.5c-4.5,0-8.1,3.6-8.1,8.1v25.1c0,4.5,3.6,8.1,8.1,8.1h10.5c4.5,0,8.1-3.6,8.1-8.1v-25.1
				C287.7,154.7,284.2,151.1,279.7,151.1z"/>
			<path class="st1" d="M279.7,149.3h-10.5c-5.4,0-9.8,4.4-9.8,9.8v25.1c0,5.4,4.4,9.8,9.8,9.8h10.5c5.4,0,9.8-4.4,9.8-9.8v-25.1
				C289.5,153.8,285.1,149.3,279.7,149.3z M287.7,184.3c0,4.5-3.6,8.1-8.1,8.1h-10.5c-4.5,0-8.1-3.6-8.1-8.1v-25.1
				c0-4.5,3.6-8.1,8.1-8.1h10.5c4.5,0,8.1,3.6,8.1,8.1V184.3z"/>
		</g>
		<g>
			<path class="st17" d="M279.7,151.1h-10.5c-4.5,0-8.1,3.6-8.1,8.1v3c0-4.5,3.6-8.1,8.1-8.1h10.5c4.5,0,8.1,3.6,8.1,8.1v-3
				C287.7,154.7,284.2,151.1,279.7,151.1z"/>
		</g>
	</g>
	<g>
		<g>
			<path class="st0" d="M208.5,128.7c0.5,3.6,4.7,4.4,4.7,4.4l-0.9-8.1C212.3,125,208,125,208.5,128.7z"/>
			<path class="st1" d="M212.3,123.2L212.3,123.2c-0.4,0-3,0.1-4.6,1.9c-0.6,0.7-1.3,1.9-1,3.7c0.7,4.9,5.9,5.8,6.1,5.9
				c0.1,0,0.2,0,0.3,0c0.4,0,0.9-0.1,1.2-0.4c0.4-0.4,0.6-0.9,0.5-1.5l-0.9-8.1C214,123.9,213.2,123.2,212.3,123.2z M208.5,128.7
				c-0.5-3.6,3.8-3.7,3.8-3.7l0.9,8.1C213.2,133,209,132.3,208.5,128.7z"/>
		</g>
		<g>
			<path class="st0" d="M231.7,125l-0.9,8.1c0,0,4.2-0.7,4.7-4.4C236,125,231.7,125,231.7,125z"/>
			<path class="st1" d="M231.7,123.2C231.7,123.2,231.7,123.2,231.7,123.2c-1,0-1.7,0.7-1.8,1.6l-0.9,8.1c-0.1,0.5,0.1,1.1,0.5,1.5
				c0.3,0.3,0.7,0.4,1.2,0.4c0.1,0,0.2,0,0.3,0c0.2-0.1,5.5-1,6.1-5.9c0.2-1.9-0.4-3.1-1-3.7C234.7,123.3,232,123.3,231.7,123.2z
				 M235.5,128.7c-0.5,3.6-4.7,4.4-4.7,4.4l0.9-8.1C231.7,125,236,125,235.5,128.7z"/>
		</g>
		<g>
			<path class="st0" d="M222.1,123.9c-4.2,0-7.6,3.4-7.6,7.6v12.2h15.1v-12.2C229.7,127.3,226.3,123.9,222.1,123.9z"/>
			<path class="st1" d="M222.1,123c-4.6,0-8.4,3.8-8.4,8.4v12.2c0,0.4,0.4,0.9,0.9,0.9h15.1c0.4,0,0.9-0.4,0.9-0.9v-12.2
				C230.6,126.8,226.7,123,222.1,123z M228.8,142.8h-13.4v-11.3c0-3.7,3-6.7,6.7-6.7c3.7,0,6.7,3,6.7,6.7L228.8,142.8L228.8,142.8z"
				/>
		</g>
		<g>
			<path class="st2" d="M234.7,144.7h-25.2c-4.6,0-8.1,3.8-7.8,8.4l1.9,30h38.1l1-30.3C242.7,148.4,239.1,144.7,234.7,144.7z"/>
			<path class="st1" d="M234.7,143h-25.2c-2.6,0-5.2,1.1-7,3.1c-1.8,1.9-2.8,4.6-2.6,7.2l1.9,30c0.1,0.9,0.8,1.6,1.7,1.6h38.1
				c1,0,1.7-0.7,1.7-1.7l1-30.3c0.1-2.6-0.9-5.1-2.7-7C239.7,144,237.3,143,234.7,143z M241.5,183.1h-38.1l-1.9-30
				c-0.3-4.6,3.3-8.4,7.8-8.4h25.2c4.4,0,8,3.7,7.8,8.1L241.5,183.1z"/>
		</g>
		<g>
			<path class="st3" d="M227.9,151.1h-10.6c-4.5,0-8.1,3.6-8.1,8.1v25.1c0,4.5,3.6,8.1,8.1,8.1h10.5c4.5,0,8.1-3.6,8.1-8.1v-25.1
				C235.9,154.7,232.3,151.1,227.9,151.1z"/>
			<path class="st1" d="M227.9,149.3h-10.6c-5.4,0-9.8,4.4-9.8,9.8v25.1c0,5.4,4.4,9.8,9.8,9.8h10.5c5.4,0,9.8-4.4,9.8-9.8v-25.1
				C237.7,153.8,233.2,149.3,227.9,149.3z M235.9,184.3c0,4.5-3.6,8.1-8.1,8.1h-10.6c-4.5,0-8.1-3.6-8.1-8.1v-25.1
				c0-4.5,3.6-8.1,8.1-8.1h10.5c4.5,0,8.1,3.6,8.1,8.1L235.9,184.3L235.9,184.3L235.9,184.3z"/>
		</g>
		<g>
			<path class="st17" d="M227.9,151.1h-10.6c-4.5,0-8.1,3.6-8.1,8.1v3c0-4.5,3.6-8.1,8.1-8.1h10.5c4.5,0,8.1,3.6,8.1,8.1v-3
				C235.9,154.7,232.3,151.1,227.9,151.1z"/>
		</g>
		<g>
			<path class="st12" d="M225.4,110.8c-1-0.1-2.1-0.1-3.4-0.1c-2.1,0.1-3.7,0.5-5.1,1c-3.1,1.2-5.1,4.3-5.1,7.6v8l3.8,7.8
				c1.2,2.5,3.8,4.1,6.6,4.1c2.8,0,5.5-1.6,6.7-4.3l3.6-7.8v-8.4C232.5,114.7,229.5,111.2,225.4,110.8z"/>
			<path class="st1" d="M225.6,109c-0.7-0.1-1.4-0.1-2.2-0.1c-0.4,0-1,0-1.5,0.1c-2.1,0.1-4,0.5-5.6,1.2c-3.7,1.4-6.2,5.2-6.2,9.2v8
				c0,0.3,0.1,0.5,0.1,0.7l3.8,7.8c1.5,3.1,4.7,5.1,8.1,5.1c3.5,0,6.7-2.1,8.2-5.2l3.6-7.8c0.1-0.2,0.1-0.5,0.1-0.7v-8.4
				C234.3,113.8,230.6,109.6,225.6,109z M232.5,127.4l-3.6,7.8c-1.2,2.6-3.8,4.3-6.7,4.3s-5.4-1.6-6.6-4.1l-3.8-7.8v-8
				c0-3.4,2-6.4,5.1-7.6c1.3-0.5,3-0.9,5.1-1c0.4,0,1-0.1,1.3-0.1c0.7,0,1.3,0.1,1.9,0.1c4.1,0.5,7.2,4,7.2,8.1V127.4L232.5,127.4z"
				/>
		</g>
		<path class="st18" d="M212.1,127.9l3.5,7.3c1.2,2.5,3.8,4.1,6.6,4.1l0,0c2.8,0,5.5-1.6,6.7-4.3l3.4-7.4
			C221.7,135.7,214.8,130.7,212.1,127.9z"/>
	</g>
	<g>
		<g>
			<path class="st2" d="M330.9,144.7h-12c-8.1,0-14.7,6.9-14.1,15.1l-0.7,23.3h42.4l-1.4-23.8C345.3,151.4,338.9,144.7,330.9,144.7z
				"/>
			<path class="st1" d="M342.3,147.9c-3-3.1-7.1-4.9-11.4-4.9h-12c-4.4,0-8.6,1.8-11.6,5s-4.6,7.4-4.3,11.8l-0.7,23.2
				c0,0.4,0.1,1,0.5,1.3c0.3,0.4,0.8,0.5,1.3,0.5h42.4c0.4,0,1-0.2,1.3-0.5c0.3-0.4,0.5-0.8,0.4-1.3l-1.4-23.7
				C346.9,155,345.3,150.9,342.3,147.9z M304,183.1l0.7-23.3c-0.5-8.1,6-15.1,14.1-15.1h12c8,0,14.4,6.7,14.2,14.7l1.4,23.8
				L304,183.1L304,183.1z"/>
		</g>
		<g>
			<path class="st0" d="M325.3,119.4c-5.4,0-9.7,4.3-9.7,9.7v15.6h19.4v-15.6C335,123.8,330.7,119.4,325.3,119.4z"/>
			<path class="st1" d="M325.3,118.5c-5.8,0-10.5,4.7-10.5,10.5v15.6c0,0.4,0.4,0.9,0.9,0.9H335c0.4,0,0.9-0.4,0.9-0.9v-15.6
				C335.9,123.3,331.1,118.5,325.3,118.5z M334.1,143.9h-17.6v-14.7c0-4.9,4-8.8,8.8-8.8s8.8,4,8.8,8.8V143.9L334.1,143.9z"/>
		</g>
		<g>
			<path class="st19" d="M341.2,139.3c0-4.2,2.2-28-14.7-27c-1,0.1-2.1,0.1-3.1,0.1c-2.9-0.1-9.3,0.4-11.4,5.7
				c-2.8,7,0.1,25.2-5.4,29.2c0,0,7.9,10.1,18.2,9.2c10.3-0.9,20.5-10.7,20.5-10.7S341.2,143.6,341.2,139.3z"/>
			<path class="st1" d="M346.1,144.1c-0.1-0.1-3.1-1.7-3.1-4.9c0-0.3,0-0.7,0-1.3c0.1-5.2,0.5-17.2-5.7-23.6
				c-2.5-2.6-5.8-3.9-9.8-3.9c-0.4,0-0.7,0-1.1,0c-0.7,0.1-1.5,0.1-2.3,0.1c-0.2,0-0.4,0-0.7,0s-0.4,0-0.7,0
				c-3.7,0-10.1,0.9-12.4,6.8c-1.2,3.1-1.4,7.8-1.6,12.8c-0.2,6.1-0.5,13.7-3.2,15.6c-0.4,0.3-0.7,0.7-0.7,1.2
				c-0.1,0.4,0.1,1,0.4,1.3c0.3,0.4,7.9,9.9,18.3,9.9c0.5,0,1,0,1.5-0.1c10.8-1,21.1-10.8,21.5-11.1c0.4-0.4,0.6-1,0.5-1.5
				C346.9,144.9,346.6,144.4,346.1,144.1z M324.8,156.4c-0.4,0.1-0.9,0.1-1.3,0.1c-9.6,0-17-9.3-17-9.3c5.5-4,2.7-22.2,5.4-29.2
				c1.9-5,7.7-5.7,10.8-5.7c0.2,0,0.4,0,0.6,0c0.2,0,0.4,0,0.7,0c0.8,0,1.6,0,2.4-0.1c0.4,0,0.7,0,1,0c15.8,0,13.7,23,13.7,27.1
				c0,4.3,4,6.4,4,6.4S335.1,155.5,324.8,156.4z"/>
		</g>
		<g>
			<path class="st20" d="M336.6,143.1c0-4,1.5-27-10.3-26c-0.7,0.1-1.4,0.1-2.2,0.1c-2-0.1-6.5,0.3-8,5.5
				c-1.9,6.7,0.1,24.3-3.8,28.1c0,0,0.8,1.5,2.3,3.2c2.8,1.6,6.4,2.8,10.2,2.4c4.6-0.4,9-2.5,12.7-4.8c1.2-1.3,1.9-2.3,1.9-2.3
				S336.6,147.3,336.6,143.1z"/>
		</g>
		<g>
			<g>
				<path class="st3" d="M330.6,151.1H320c-4.5,0-8.1,3.6-8.1,8.1v25.1c0,4.5,3.6,8.1,8.1,8.1h10.5c4.5,0,8.1-3.6,8.1-8.1v-25.1
					C338.7,154.7,335.1,151.1,330.6,151.1z"/>
				<path class="st1" d="M330.6,149.3H320c-5.4,0-9.8,4.4-9.8,9.8v25.1c0,5.4,4.4,9.8,9.8,9.8h10.5c5.4,0,9.8-4.4,9.8-9.8v-25.1
					C340.4,153.8,336,149.3,330.6,149.3z M338.7,184.3c0,4.5-3.6,8.1-8.1,8.1H320c-4.5,0-8.1-3.6-8.1-8.1v-25.1
					c0-4.5,3.6-8.1,8.1-8.1h10.5c4.5,0,8.1,3.6,8.1,8.1V184.3z"/>
			</g>
			<g>
				<path class="st17" d="M330.6,151.1H320c-4.5,0-8.1,3.6-8.1,8.1v3c0-4.5,3.6-8.1,8.1-8.1h10.5c4.5,0,8.1,3.6,8.1,8.1v-3
					C338.7,154.7,335.1,151.1,330.6,151.1z"/>
			</g>
		</g>
	</g>
	<g>
		<path class="st2" d="M329.9,74.7c-6.2,0-11.2,4.1-11.2,9.3c0,4.3,3.6,7.9,8.4,9v6.7l2.6-2.5c2.4-2.2,5-4.3,7.6-6.3
			c2.2-1.7,3.7-4.1,3.7-6.9C341.2,78.8,336.1,74.7,329.9,74.7z"/>
		<path class="st1" d="M329.9,72.9c-7.2,0-13,4.9-13,11c0,4.6,3.4,8.7,8.4,10.3v5.3c0,0.7,0.4,1.3,1,1.6c0.2,0.1,0.4,0.1,0.7,0.1
			c0.4,0,0.9-0.1,1.2-0.4l2.6-2.5c2.4-2.2,5-4.3,7.5-6.1c2.8-2.1,4.4-5.1,4.4-8.2C342.9,77.9,337.1,72.9,329.9,72.9z M337.5,90.7
			c-2.6,1.9-5.2,4-7.6,6.3l-2.6,2.5v-6.7c-4.9-1-8.4-4.6-8.4-9c0-5.1,5-9.3,11.2-9.3s11.2,4.1,11.2,9.3
			C341.2,86.6,339.8,89.1,337.5,90.7z"/>
	</g>
	<path class="st1" d="M199.4,151.8c-0.4-0.1-1,0-1.1,0.4l-4.6,11.4c-0.1,0.4,0,1,0.4,1.1c0.1,0.1,0.2,0.1,0.3,0.1
		c0.4,0,0.7-0.2,0.8-0.5l4.6-11.4C200,152.5,199.8,152,199.4,151.8z"/>
	<g>
		<path class="st2" d="M332.4,51.7h-11.7c-0.4,0-0.9,0.4-0.9,0.9c0,0.5,0.4,0.9,0.9,0.9h11.7c0.4,0,0.9-0.4,0.9-0.9
			C333.3,52.1,332.9,51.7,332.4,51.7z"/>
		<path class="st2" d="M339.3,55.7h-18.5c-0.4,0-0.9,0.4-0.9,0.9c0,0.4,0.4,0.9,0.9,0.9h18.5c0.4,0,0.9-0.4,0.9-0.9
			C340.2,56.1,339.8,55.7,339.3,55.7z"/>
		<path class="st2" d="M336.2,59.7h-15.5c-0.4,0-0.9,0.4-0.9,0.9c0,0.4,0.4,0.9,0.9,0.9h15.5c0.4,0,0.9-0.4,0.9-0.9
			C337.1,60.1,336.7,59.7,336.2,59.7z"/>
		<path class="st2" d="M355.9,51.7h-11.7c-0.4,0-0.9,0.4-0.9,0.9c0,0.5,0.4,0.9,0.9,0.9h11.7c0.4,0,0.9-0.4,0.9-0.9
			C356.8,52.1,356.4,51.7,355.9,51.7z"/>
		<path class="st2" d="M340.1,51.7h-3.4c-0.4,0-0.9,0.4-0.9,0.9c0,0.5,0.4,0.9,0.9,0.9h3.4c0.4,0,0.9-0.4,0.9-0.9
			C341,52.1,340.5,51.7,340.1,51.7z"/>
		<path class="st2" d="M342.8,59.6h-3.4c-0.4,0-0.9,0.4-0.9,0.9c0,0.5,0.4,0.9,0.9,0.9h3.4c0.4,0,0.9-0.4,0.9-0.9
			C343.7,60,343.4,59.6,342.8,59.6z"/>
		<path class="st2" d="M352.3,59.6h-6c-0.4,0-0.9,0.4-0.9,0.9c0,0.5,0.4,0.9,0.9,0.9h6c0.4,0,0.9-0.4,0.9-0.9
			C353.2,60,352.8,59.6,352.3,59.6z"/>
	</g>
	<g>
		<path class="st2" d="M95.8,58.6H84.2c-0.4,0-0.9,0.4-0.9,0.9c0,0.4,0.4,0.9,0.9,0.9h11.7c0.4,0,0.9-0.4,0.9-0.9
			C96.7,59,96.3,58.6,95.8,58.6z"/>
		<path class="st2" d="M95.8,62.5H77.2c-0.4,0-0.9,0.4-0.9,0.9c0,0.4,0.4,0.9,0.9,0.9h18.5c0.4,0,0.9-0.4,0.9-0.9
			C96.7,63,96.3,62.5,95.8,62.5z"/>
		<path class="st2" d="M95.8,66.6H80.4c-0.4,0-0.9,0.4-0.9,0.9c0,0.5,0.4,0.9,0.9,0.9h15.5c0.4,0,0.9-0.4,0.9-0.9
			C96.7,67,96.3,66.6,95.8,66.6z"/>
		<path class="st2" d="M72.3,58.6h-5.5c-0.4,0-0.9,0.4-0.9,0.9c0,0.4,0.4,0.9,0.9,0.9h5.5c0.4,0,0.9-0.4,0.9-0.9
			C73.2,59,72.7,58.6,72.3,58.6z"/>
		<path class="st2" d="M80,58.6h-3.4c-0.4,0-0.9,0.4-0.9,0.9c0,0.4,0.4,0.9,0.9,0.9H80c0.4,0,0.9-0.4,0.9-0.9
			C80.8,59,80.4,58.6,80,58.6z"/>
		<path class="st2" d="M77.1,66.5h-3.4c-0.4,0-0.9,0.4-0.9,0.9s0.4,0.9,0.9,0.9h3.4c0.4,0,0.9-0.4,0.9-0.9S77.7,66.5,77.1,66.5z"/>
		<path class="st2" d="M70.2,66.5h-6c-0.4,0-0.9,0.4-0.9,0.9s0.4,0.9,0.9,0.9h6c0.4,0,0.9-0.4,0.9-0.9S70.7,66.5,70.2,66.5z"/>
		<path class="st2" d="M73.7,62.6H62c-0.4,0-0.9,0.4-0.9,0.9s0.4,0.9,0.9,0.9h11.7c0.4,0,0.9-0.4,0.9-0.9S74.2,62.6,73.7,62.6z"/>
	</g>
	<g>
		<path class="st2" d="M178.4,128h-8.8c-0.4,0-0.9,0.4-0.9,0.9c0,0.4,0.4,0.9,0.9,0.9h8.8c0.4,0,0.9-0.4,0.9-0.9
			C179.3,128.5,178.9,128,178.4,128z"/>
		<path class="st2" d="M178.4,132.1h-22.8c-0.4,0-0.9,0.4-0.9,0.9c0,0.4,0.4,0.9,0.9,0.9h22.8c0.4,0,0.9-0.4,0.9-0.9
			C179.3,132.5,178.9,132.1,178.4,132.1z"/>
		<path class="st2" d="M178.4,136h-16.1c-0.4,0-0.9,0.4-0.9,0.9c0,0.4,0.4,0.9,0.9,0.9h16.1c0.4,0,0.9-0.4,0.9-0.9
			C179.3,136.4,178.9,136,178.4,136z"/>
		<path class="st2" d="M160.7,128h-8.8c-0.4,0-0.9,0.4-0.9,0.9c0,0.4,0.4,0.9,0.9,0.9h8.8c0.4,0,0.9-0.4,0.9-0.9
			C161.5,128.5,161.1,128,160.7,128z"/>
		<path class="st2" d="M166.4,128h-2.6c-0.4,0-0.9,0.4-0.9,0.9c0,0.4,0.4,0.9,0.9,0.9h2.6c0.4,0,0.9-0.4,0.9-0.9
			C167.3,128.5,166.9,128,166.4,128z"/>
		<path class="st2" d="M159.9,136h-2.6c-0.4,0-0.9,0.4-0.9,0.9c0,0.4,0.4,0.9,0.9,0.9h2.6c0.4,0,0.9-0.4,0.9-0.9
			S160.4,136,159.9,136z"/>
	</g>
	<g>
		<path class="st2" d="M354.4,124.2h-6.1c-0.4,0-0.9,0.4-0.9,0.9c0,0.4,0.4,0.9,0.9,0.9h6.1c0.4,0,0.9-0.4,0.9-0.9
			C355.2,124.6,354.8,124.2,354.4,124.2z"/>
		<path class="st2" d="M363.7,124.1H357c-0.4,0-0.9,0.4-0.9,0.9c0,0.4,0.4,0.9,0.9,0.9h6.7c0.4,0,0.9-0.4,0.9-0.9
			C364.5,124.5,364.1,124.1,363.7,124.1z"/>
		<path class="st2" d="M369,124.1h-2.9c-0.4,0-0.9,0.4-0.9,0.9c0,0.4,0.4,0.9,0.9,0.9h2.9c0.4,0,0.9-0.4,0.9-0.9
			C369.8,124.5,369.5,124.1,369,124.1z"/>
		<path class="st2" d="M369.5,127.4h-21.2c-0.4,0-0.9,0.4-0.9,0.9c0,0.5,0.4,0.9,0.9,0.9h21.2c0.4,0,0.9-0.4,0.9-0.9
			C370.4,127.7,369.9,127.4,369.5,127.4z"/>
		<path class="st2" d="M358.2,131h-10c-0.4,0-0.9,0.4-0.9,0.9c0,0.5,0.4,0.9,0.9,0.9h10c0.4,0,0.9-0.4,0.9-0.9
			C359.1,131.4,358.7,131,358.2,131z"/>
	</g>
	<g>
		<g>
			<polygon class="st2" points="223.7,219.1 223.7,195.7 221.1,195.7 221.1,219.1 212.4,219.1 209.8,219.1 209.8,222.2 209.8,225.5 
				212.4,225.5 212.4,222.2 221.1,222.2 221.1,225.5 223.7,225.5 223.7,222.2 232.2,222.2 232.2,225.5 234.8,225.5 234.8,222.2 
				234.8,219.1 232.2,219.1 			"/>
			<path class="st1" d="M234.8,217.5h-2.6h-7v-21.8c0-0.9-0.7-1.6-1.6-1.6h-2.6c-0.9,0-1.6,0.7-1.6,1.6v21.8h-7.1h-2.6
				c-0.9,0-1.6,0.7-1.6,1.6v3.1v3.3c0,0.9,0.7,1.6,1.6,1.6h2.6c0.9,0,1.6-0.7,1.6-1.6v-1.7h5.5v1.7c0,0.9,0.7,1.6,1.6,1.6h2.6
				c0.9,0,1.6-0.7,1.6-1.6v-1.7h5.3v1.7c0,0.9,0.7,1.6,1.6,1.6h2.6c0.9,0,1.6-0.7,1.6-1.6v-3.3V219
				C236.4,218.2,235.7,217.5,234.8,217.5z M234.8,222.2v3.3h-2.6v-3.3h-8.5v3.3h-2.6v-3.3h-8.7v3.3h-2.6v-3.3v-3.1h2.6h8.7v-23.4
				h2.6v23.4h8.5h2.6V222.2z"/>
		</g>
		<rect x="221.1" y="195.7" class="st10" width="2.6" height="4.5"/>
		<g>
			<circle class="st10" cx="210.6" cy="228.3" r="2.2"/>
			<path class="st1" d="M210.6,224.6c-2.1,0-3.7,1.6-3.7,3.7s1.6,3.7,3.7,3.7s3.7-1.6,3.7-3.7C214.3,226.3,212.7,224.6,210.6,224.6z
				 M210.6,230.5c-1.2,0-2.2-1-2.2-2.2s1-2.2,2.2-2.2s2.2,1,2.2,2.2S211.8,230.5,210.6,230.5z"/>
		</g>
		<g>
			<circle class="st10" cx="222" cy="228.3" r="2.2"/>
			<path class="st1" d="M222,224.6c-2.1,0-3.7,1.6-3.7,3.7s1.6,3.7,3.7,3.7c2.1,0,3.7-1.6,3.7-3.7C225.7,226.3,224,224.6,222,224.6z
				 M222,230.5c-1.2,0-2.2-1-2.2-2.2s1-2.2,2.2-2.2c1.2,0,2.2,1,2.2,2.2C224.1,229.5,223.2,230.5,222,230.5z"/>
		</g>
		<g>
			<circle class="st10" cx="233.5" cy="228.3" r="2.2"/>
			<path class="st1" d="M233.5,224.6c-2.1,0-3.7,1.6-3.7,3.7s1.6,3.7,3.7,3.7s3.7-1.6,3.7-3.7C237.2,226.3,235.6,224.6,233.5,224.6z
				 M233.5,230.5c-1.2,0-2.2-1-2.2-2.2s1-2.2,2.2-2.2s2.2,1,2.2,2.2C235.6,229.5,234.7,230.5,233.5,230.5z"/>
		</g>
		<g>
			<rect x="219.4" y="205.6" class="st2" width="6" height="6.8"/>
			<path class="st1" d="M225.4,204h-6c-0.9,0-1.6,0.7-1.6,1.6v6.8c0,0.9,0.7,1.6,1.6,1.6h6c0.9,0,1.6-0.7,1.6-1.6v-6.8
				C227,204.7,226.3,204,225.4,204z M225.4,212.4h-6v-6.8h6V212.4z"/>
		</g>
	</g>
	<g>
		<g>
			<polygon class="st2" points="276,219.1 276,195.7 273.4,195.7 273.4,219.1 264.7,219.1 262.1,219.1 262.1,222.2 262.1,225.5 
				264.7,225.5 264.7,222.2 273.4,222.2 273.4,225.5 276,225.5 276,222.2 284.5,222.2 284.5,225.5 287.1,225.5 287.1,222.2 
				287.1,219.1 284.5,219.1 			"/>
			<path class="st1" d="M287.1,217.5h-2.6h-7v-21.8c0-0.9-0.7-1.6-1.6-1.6h-2.6c-0.9,0-1.6,0.7-1.6,1.6v21.8h-7.1h-2.6
				c-0.9,0-1.6,0.7-1.6,1.6v3.1v3.3c0,0.9,0.7,1.6,1.6,1.6h2.6c0.9,0,1.6-0.7,1.6-1.6v-1.7h5.5v1.7c0,0.9,0.7,1.6,1.6,1.6h2.6
				c0.9,0,1.6-0.7,1.6-1.6v-1.7h5.3v1.7c0,0.9,0.7,1.6,1.6,1.6h2.6c0.9,0,1.6-0.7,1.6-1.6v-3.3V219
				C288.7,218.2,288,217.5,287.1,217.5z M287.1,222.2v3.3h-2.6v-3.3H276v3.3h-2.6v-3.3h-8.7v3.3h-2.6v-3.3v-3.1h2.6h8.7v-23.4h2.6
				v23.4h8.5h2.6V222.2z"/>
		</g>
		<rect x="273.4" y="195.7" class="st10" width="2.6" height="4.5"/>
		<g>
			<circle class="st10" cx="262.9" cy="228.3" r="2.2"/>
			<path class="st1" d="M262.9,224.6c-2.1,0-3.7,1.6-3.7,3.7s1.6,3.7,3.7,3.7s3.7-1.6,3.7-3.7C266.7,226.3,265,224.6,262.9,224.6z
				 M262.9,230.5c-1.2,0-2.2-1-2.2-2.2s1-2.2,2.2-2.2s2.2,1,2.2,2.2S264.1,230.5,262.9,230.5z"/>
		</g>
		<g>
			<circle class="st10" cx="274.3" cy="228.3" r="2.2"/>
			<path class="st1" d="M274.3,224.6c-2.1,0-3.7,1.6-3.7,3.7s1.6,3.7,3.7,3.7s3.7-1.6,3.7-3.7C278,226.3,276.4,224.6,274.3,224.6z
				 M274.3,230.5c-1.2,0-2.2-1-2.2-2.2s1-2.2,2.2-2.2s2.2,1,2.2,2.2C276.5,229.5,275.5,230.5,274.3,230.5z"/>
		</g>
		<g>
			<circle class="st10" cx="285.8" cy="228.3" r="2.2"/>
			<path class="st1" d="M285.8,224.6c-2.1,0-3.7,1.6-3.7,3.7s1.6,3.7,3.7,3.7c2.1,0,3.7-1.6,3.7-3.7
				C289.5,226.3,287.9,224.6,285.8,224.6z M285.8,230.5c-1.2,0-2.2-1-2.2-2.2s1-2.2,2.2-2.2c1.2,0,2.2,1,2.2,2.2
				S287,230.5,285.8,230.5z"/>
		</g>
		<g>
			<rect x="271.7" y="205.6" class="st2" width="6" height="6.8"/>
			<path class="st1" d="M277.7,204h-6c-0.9,0-1.6,0.7-1.6,1.6v6.8c0,0.9,0.7,1.6,1.6,1.6h6c0.9,0,1.6-0.7,1.6-1.6v-6.8
				C279.3,204.7,278.6,204,277.7,204z M277.7,212.4h-6v-6.8h6V212.4z"/>
		</g>
	</g>
	<g>
		<g>
			<polygon class="st2" points="326.9,219.1 326.9,195.7 324.3,195.7 324.3,219.1 315.6,219.1 313,219.1 313,222.2 313,225.5 
				315.6,225.5 315.6,222.2 324.3,222.2 324.3,225.5 326.9,225.5 326.9,222.2 335.4,222.2 335.4,225.5 338.1,225.5 338.1,222.2 
				338.1,219.1 335.4,219.1 			"/>
			<path class="st1" d="M338.1,217.5h-2.6h-7v-21.8c0-0.9-0.7-1.6-1.6-1.6h-2.6c-0.9,0-1.6,0.7-1.6,1.6v21.8h-7.1H313
				c-0.9,0-1.6,0.7-1.6,1.6v3.1v3.3c0,0.9,0.7,1.6,1.6,1.6h2.6c0.9,0,1.6-0.7,1.6-1.6v-1.7h5.5v1.7c0,0.9,0.7,1.6,1.6,1.6h2.6
				c0.9,0,1.6-0.7,1.6-1.6v-1.7h5.3v1.7c0,0.9,0.7,1.6,1.6,1.6h2.6c0.9,0,1.6-0.7,1.6-1.6v-3.3V219
				C339.6,218.2,339,217.5,338.1,217.5z M338.1,222.2v3.3h-2.6v-3.3h-8.5v3.3h-2.6v-3.3h-8.7v3.3H313v-3.3v-3.1h2.6h8.7v-23.4h2.6
				v23.4h8.5h2.6V222.2z"/>
		</g>
		<rect x="324.3" y="195.7" class="st10" width="2.6" height="4.5"/>
		<g>
			<circle class="st10" cx="313.8" cy="228.3" r="2.2"/>
			<path class="st1" d="M313.8,224.6c-2.1,0-3.7,1.6-3.7,3.7s1.6,3.7,3.7,3.7s3.7-1.6,3.7-3.7C317.6,226.3,315.9,224.6,313.8,224.6z
				 M313.8,230.5c-1.2,0-2.2-1-2.2-2.2s1-2.2,2.2-2.2s2.2,1,2.2,2.2S315,230.5,313.8,230.5z"/>
		</g>
		<g>
			<circle class="st10" cx="325.2" cy="228.3" r="2.2"/>
			<path class="st1" d="M325.2,224.6c-2.1,0-3.7,1.6-3.7,3.7s1.6,3.7,3.7,3.7s3.7-1.6,3.7-3.7C328.9,226.3,327.3,224.6,325.2,224.6z
				 M325.2,230.5c-1.2,0-2.2-1-2.2-2.2s1-2.2,2.2-2.2s2.2,1,2.2,2.2S326.4,230.5,325.2,230.5z"/>
		</g>
		<g>
			<circle class="st10" cx="336.7" cy="228.3" r="2.2"/>
			<path class="st1" d="M336.7,224.6c-2.1,0-3.7,1.6-3.7,3.7s1.6,3.7,3.7,3.7s3.7-1.6,3.7-3.7C340.5,226.3,338.8,224.6,336.7,224.6z
				 M336.7,230.5c-1.2,0-2.2-1-2.2-2.2s1-2.2,2.2-2.2s2.2,1,2.2,2.2S337.9,230.5,336.7,230.5z"/>
		</g>
		<g>
			<rect x="322.7" y="205.6" class="st2" width="6" height="6.8"/>
			<path class="st1" d="M328.6,204h-6c-0.9,0-1.6,0.7-1.6,1.6v6.8c0,0.9,0.7,1.6,1.6,1.6h6c0.9,0,1.6-0.7,1.6-1.6v-6.8
				C330.2,204.7,329.5,204,328.6,204z M328.6,212.4h-6v-6.8h6V212.4z"/>
		</g>
	</g>
</g>
<g class="st21">
	<g class="st22">
		<path class="st2" d="M397.3,59.6c-7.5,0-13.6,5-13.6,11.2c0,5.2,4.4,9.6,10.2,10.8v8l3.2-3c2.9-2.7,6.1-5.2,9.3-7.6
			c2.7-2,4.5-5,4.5-8.3C410.9,64.6,404.8,59.6,397.3,59.6z"/>
		<path class="st1" d="M397.3,57.5c-8.7,0-15.7,6-15.7,13.3c0,5.6,4.1,10.6,10.2,12.5v6.4c0,0.8,0.5,1.6,1.3,1.9
			c0.3,0.1,0.6,0.2,0.8,0.2c0.5,0,1.1-0.2,1.5-0.6l3.2-3c2.9-2.7,6.1-5.2,9.1-7.4c3.4-2.5,5.3-6.2,5.3-10
			C413,63.4,406,57.5,397.3,57.5z M406.5,79c-3.2,2.4-6.4,4.8-9.3,7.6l-3.2,3v-8c-5.9-1.2-10.2-5.6-10.2-10.8
			c0-6.2,6.1-11.2,13.6-11.2s13.6,5,13.6,11.2C410.9,74,409.2,77,406.5,79z"/>
	</g>
	<g class="st22">
		<g>
			<polygon class="st2" points="63,226.1 63,194.9 59.5,194.9 59.5,226.1 47.9,226.1 44.4,226.1 44.4,230.4 44.4,234.8 47.9,234.8 
				47.9,230.4 59.5,230.4 59.5,234.8 63,234.8 63,230.4 74.4,230.4 74.4,234.8 78,234.8 78,230.4 78,226.1 74.4,226.1 			"/>
			<path class="st1" d="M78,224h-3.5h-9.3v-29.1c0-1.2-1-2.1-2.1-2.1h-3.6c-1.2,0-2.1,1-2.1,2.1V224h-9.5h-3.5c-1.2,0-2.1,1-2.1,2.1
				v4.2v4.4c0,1.2,1,2.1,2.1,2.1h3.5c1.2,0,2.1-1,2.1-2.1v-2.3h7.4v2.3c0,1.2,1,2.1,2.1,2.1H63c1.2,0,2.1-1,2.1-2.1v-2.3h7.1v2.3
				c0,1.2,1,2.1,2.1,2.1h3.5c1.2,0,2.1-1,2.1-2.1v-4.4v-4.2C80.1,225,79.1,224,78,224z M78,230.4v4.4h-3.5v-4.4H63v4.4h-3.5v-4.4
				H47.9v4.4h-3.5v-4.4v-4.2h3.5h11.6v-31.3H63v31.3h11.4h3.5L78,230.4L78,230.4z"/>
		</g>
		<rect x="59.5" y="194.9" class="st10" width="3.5" height="6"/>
		<g>
			<path class="st2" d="M82.7,188.9H48.8l-9.3-64.1c-0.2-1.9-2-3.2-3.8-3c-1.9,0.2-3.2,2-3,3.8l9.7,67.1c0.2,1.7,1.7,3,3.4,3h37
				c1.9,0,3.5-1.5,3.5-3.4C86.2,190.4,84.6,188.9,82.7,188.9z"/>
			<path class="st1" d="M82.7,186.7h-32l-9-62.2c-0.4-2.8-2.7-4.9-5.5-4.9c-0.2,0-0.5,0-0.7,0c-1.5,0.2-2.8,0.9-3.7,2.1
				c-0.9,1.2-1.3,2.6-1.1,4.1l0,0l9.7,67.1c0.4,2.8,2.7,4.9,5.5,4.9h37c3.1,0,5.6-2.5,5.6-5.6C88.3,189.2,85.8,186.7,82.7,186.7z
				 M82.7,195.8h-37c-1.7,0-3.2-1.3-3.4-3l-9.7-67.1c-0.2-1.9,1.1-3.6,3-3.8c0.1,0,0.3,0,0.4,0c1.7,0,3.2,1.3,3.4,3l9.3,64.1h33.9
				c1.9,0,3.5,1.5,3.5,3.5C86.2,194.2,84.6,195.8,82.7,195.8z"/>
		</g>
		<g>
			<circle class="st10" cx="45.6" cy="238.5" r="2.9"/>
			<path class="st1" d="M45.6,233.5c-2.8,0-5,2.2-5,5s2.2,5,5,5s5-2.2,5-5S48.3,233.5,45.6,233.5z M45.6,241.3
				c-1.6,0-2.9-1.3-2.9-2.9s1.3-2.9,2.9-2.9s2.9,1.3,2.9,2.9C48.4,240.1,47.2,241.3,45.6,241.3z"/>
		</g>
		<g>
			<circle class="st10" cx="60.8" cy="238.5" r="2.9"/>
			<path class="st1" d="M60.8,233.5c-2.8,0-5,2.2-5,5s2.2,5,5,5s5-2.2,5-5S63.6,233.5,60.8,233.5z M60.8,241.3
				c-1.6,0-2.9-1.3-2.9-2.9s1.3-2.9,2.9-2.9s2.9,1.3,2.9,2.9C63.7,240.1,62.4,241.3,60.8,241.3z"/>
		</g>
		<g>
			<circle class="st10" cx="76.2" cy="238.5" r="2.9"/>
			<path class="st1" d="M76.2,233.5c-2.8,0-5,2.2-5,5s2.2,5,5,5s5-2.2,5-5S79,233.5,76.2,233.5z M76.2,241.3c-1.6,0-2.9-1.3-2.9-2.9
				s1.3-2.9,2.9-2.9s2.9,1.3,2.9,2.9C79.1,240.1,77.8,241.3,76.2,241.3z"/>
		</g>
		<g>
			<rect x="57.4" y="208.1" class="st2" width="8" height="9.1"/>
			<path class="st1" d="M65.3,206h-8c-1.2,0-2.1,1-2.1,2.1v9.1c0,1.2,1,2.1,2.1,2.1h8c1.2,0,2.1-1,2.1-2.1v-9.1
				C67.5,206.9,66.5,206,65.3,206z M65.3,217.3h-8v-9.1h8V217.3z"/>
		</g>
	</g>
	<g class="st22">
		<g>
			<polygon class="st2" points="370.4,226.1 370.4,194.9 366.9,194.9 366.9,226.1 355.5,226.1 352,226.1 352,230.4 352,234.8 
				355.5,234.8 355.5,230.4 366.9,230.4 366.9,234.8 370.4,234.8 370.4,230.4 382,230.4 382,234.8 385.6,234.8 385.6,230.4 
				385.6,226.1 382,226.1 			"/>
			<path class="st1" d="M385.6,224h-3.5h-9.5v-29.1c0-1.2-1-2.1-2.1-2.1H367c-1.2,0-2.1,1-2.1,2.1V224h-9.4H352
				c-1.2,0-2.1,1-2.1,2.1v4.2v4.4c0,1.2,1,2.1,2.1,2.1h3.5c1.2,0,2.1-1,2.1-2.1v-2.3h7.1v2.3c0,1.2,1,2.1,2.1,2.1h3.5
				c1.2,0,2.1-1,2.1-2.1v-2.3h7.4v2.3c0,1.2,1,2.1,2.1,2.1h3.5c1.2,0,2.1-1,2.1-2.1v-4.4v-4.2C387.7,225,386.7,224,385.6,224z
				 M385.6,230.4v4.4h-3.5v-4.4h-11.6v4.4H367v-4.4h-11.5v4.4H352v-4.4v-4.2h3.5h11.4v-31.3h3.5v31.3H382h3.5v4.2H385.6z"/>
		</g>
		<rect x="366.9" y="194.9" class="st10" width="3.5" height="6"/>
		<g>
			<path class="st2" d="M394.3,121.8c-1.9-0.2-3.6,1.1-3.8,3l-9.3,64.1h-33.9c-1.9,0-3.4,1.5-3.4,3.5c0,1.9,1.5,3.4,3.4,3.4h37
				c1.7,0,3.2-1.3,3.4-3l9.7-67.1C397.5,123.8,396.2,122,394.3,121.8z"/>
			<path class="st1" d="M394.6,119.7c-0.2,0-0.5,0-0.7,0c-2.8,0-5.2,2.1-5.5,4.9l-9,62.2h-32.1c-3.1,0-5.6,2.5-5.6,5.6
				s2.5,5.6,5.6,5.6h37c2.8,0,5.2-2.1,5.5-4.9l9.7-67.1l0,0C399.8,122.9,397.6,120.1,394.6,119.7z M397.3,125.7l-9.7,67.1
				c-0.2,1.7-1.7,3-3.4,3h-37c-1.9,0-3.4-1.5-3.4-3.4s1.5-3.5,3.4-3.5h33.9l9.3-64.1c0.2-1.7,1.7-3,3.4-3c0.1,0,0.3,0,0.4,0
				C396.2,122,397.5,123.8,397.3,125.7z"/>
		</g>
		<g>
			<circle class="st10" cx="384.4" cy="238.5" r="2.9"/>
			<path class="st1" d="M384.4,233.5c-2.8,0-5,2.2-5,5s2.2,5,5,5s5-2.2,5-5S387.2,233.5,384.4,233.5z M384.4,241.3
				c-1.6,0-2.9-1.3-2.9-2.9s1.3-2.9,2.9-2.9s2.9,1.3,2.9,2.9C387.3,240.1,386,241.3,384.4,241.3z"/>
		</g>
		<g>
			<circle class="st10" cx="369.2" cy="238.5" r="2.9"/>
			<path class="st1" d="M369.2,233.5c-2.8,0-5,2.2-5,5s2.2,5,5,5s5-2.2,5-5S371.9,233.5,369.2,233.5z M369.2,241.3
				c-1.6,0-2.9-1.3-2.9-2.9s1.3-2.9,2.9-2.9s2.9,1.3,2.9,2.9C372.1,240.1,370.8,241.3,369.2,241.3z"/>
		</g>
		<g>
			<circle class="st10" cx="353.8" cy="238.5" r="2.9"/>
			<path class="st1" d="M353.8,233.5c-2.8,0-5,2.2-5,5s2.2,5,5,5s5-2.2,5-5S356.5,233.5,353.8,233.5z M353.8,241.3
				c-1.6,0-2.9-1.3-2.9-2.9s1.3-2.9,2.9-2.9s2.9,1.3,2.9,2.9C356.7,240.1,355.4,241.3,353.8,241.3z"/>
		</g>
		<g>
			<rect x="364.7" y="208.1" class="st2" width="8" height="9.1"/>
			<path class="st1" d="M372.6,206h-8c-1.2,0-2.1,1-2.1,2.1v9.1c0,1.2,1,2.1,2.1,2.1h8c1.2,0,2.1-1,2.1-2.1v-9.1
				C374.8,206.9,373.8,206,372.6,206z M372.6,217.3h-8v-9.1h8V217.3z"/>
		</g>
	</g>
	<g class="st22">
		<path class="st1" d="M223,0.5c-0.6,0-1.1,0.5-1.1,1.1v23.9c0,0.6,0.5,1.1,1.1,1.1s1.1-0.5,1.1-1.1V1.6C224.1,1,223.6,0.5,223,0.5z
			"/>
		<polygon class="st4" points="214.5,37.3 116.5,159.1 335.7,159.1 230.1,35.4 		"/>
		<g>
			<g>
				<circle class="st23" cx="223" cy="51" r="8.5"/>
				<path class="st1" d="M223,40.4c-5.9,0-10.7,4.8-10.7,10.7s4.8,10.7,10.7,10.7s10.7-4.8,10.7-10.7S228.9,40.4,223,40.4z
					 M223,59.6c-4.7,0-8.5-3.8-8.5-8.5s3.8-8.5,8.5-8.5s8.5,3.8,8.5,8.5C231.6,55.8,227.7,59.6,223,59.6z"/>
			</g>
			<g>
				<polygon class="st24" points="223.9,35.4 222.1,35.4 215.9,35.4 206.2,47.9 222.1,47.9 223.9,47.9 239.8,47.9 230.1,35.4 				
					"/>
				<path class="st1" d="M231.8,34.1c-0.4-0.5-1-0.8-1.7-0.8h-6.2H222h-6.2c-0.7,0-1.3,0.3-1.7,0.8l-9.6,12.5
					c-0.5,0.6-0.6,1.5-0.2,2.2c0.4,0.7,1.1,1.2,1.9,1.2h15.9h1.9h15.9c0.8,0,1.6-0.5,1.9-1.2c0.4-0.7,0.3-1.6-0.2-2.2L231.8,34.1z
					 M223.9,47.9H222h-15.9l9.7-12.5h6.2h1.9h6.2l9.7,12.5H223.9z"/>
			</g>
			<g>
				<polygon class="st24" points="222.1,26.4 215.9,26.4 215.9,33.9 222.1,33.9 223.9,33.9 230.1,33.9 230.1,26.4 223.9,26.4 				
					"/>
				<path class="st1" d="M230.1,24.3h-6.2H222h-6.2c-1.2,0-2.1,1-2.1,2.1v7.4c0,1.2,1,2.1,2.1,2.1h6.2h1.9h6.2c1.2,0,2.1-1,2.1-2.1
					v-7.4C232.3,25.3,231.3,24.3,230.1,24.3z M230.1,33.9h-6.2H222h-6.2v-7.4h6.2h1.9h6.2L230.1,33.9L230.1,33.9z"/>
			</g>
			<rect x="215.9" y="31.5" class="st25" width="14.2" height="2.3"/>
			<polygon class="st25" points="208.2,45.3 206.2,47.9 222.1,47.9 223.9,47.9 239.8,47.9 237.8,45.3 			"/>
		</g>
	</g>
	<g class="st22">
		<g>
			<polygon class="st12" points="121.9,226.4 121.9,233 142.3,233 142.3,229.7 134,225.2 			"/>
			<path class="st1" d="M143.3,227.8l-8.3-4.5c-0.3-0.2-0.7-0.3-1-0.3c-0.1,0-0.1,0-0.2,0l-12.1,1.2c-1.1,0.1-1.9,1-1.9,2.1v6.6
				c0,1.2,1,2.1,2.1,2.1h20.5c1.2,0,2.1-1,2.1-2.1v-3.3C144.5,228.9,144,228.2,143.3,227.8z M142.3,233h-20.5v-6.6l12.1-1.2l8.3,4.5
				L142.3,233L142.3,233z"/>
		</g>
		<g>
			<polygon class="st12" points="108,233.7 108,240.3 128.5,240.3 128.5,237 120.2,232.5 			"/>
			<path class="st1" d="M129.5,235.1l-8.3-4.5c-0.3-0.2-0.7-0.3-1-0.3c-0.1,0-0.1,0-0.2,0l-12.1,1.2c-1.1,0.1-1.9,1-1.9,2.1v6.6
				c0,1.2,1,2.1,2.1,2.1h20.4c1.2,0,2.1-1,2.1-2.1V237C130.6,236.2,130.2,235.5,129.5,235.1z M128.5,240.3H108v-6.6l12.1-1.2
				l8.3,4.5L128.5,240.3L128.5,240.3z"/>
		</g>
		<g>
			<polygon class="st24" points="89.9,173.7 85.4,178 91.4,178.9 116.5,227.8 130.7,222.9 106.8,173.7 			"/>
			<path class="st1" d="M108.7,172.8c-0.4-0.7-1.1-1.2-1.9-1.2H89.9c-0.6,0-1.1,0.2-1.5,0.6l-4.4,4.3c-0.6,0.6-0.8,1.4-0.5,2.2
				c0.2,0.8,0.9,1.3,1.7,1.5l4.9,0.7l24.5,48c0.4,0.7,1.1,1.2,1.9,1.2c0.2,0,0.5,0,0.7-0.1l14.2-5c0.6-0.2,1-0.6,1.3-1.2
				c0.2-0.6,0.2-1.2-0.1-1.7L108.7,172.8z M116.5,227.8l-25-48.9l-6-0.9l4.4-4.3h16.9l23.9,49.2L116.5,227.8z"/>
		</g>
		<g>
			<path class="st24" d="M89.9,175.8v-10.6L52,166.7v10.8c0,6,4.9,10.9,10.9,10.9h22.9l19.8,48.1l13.4-5.4l-18.9-53.9L89.9,175.8z"
				/>
			<path class="st1" d="M102.1,176.4c-0.3-0.8-0.9-1.3-1.7-1.4l-8.3-1.1v-8.7c0-0.6-0.2-1.1-0.7-1.5c-0.4-0.4-0.9-0.6-1.5-0.6h-0.1
				l-37.9,1.5c-1.1,0-2,1-2,2.1v10.8c0,7.2,5.8,13,13,13h21.5l19.2,46.8c0.3,0.8,1.1,1.3,2,1.3c0.3,0,0.5,0,0.8-0.2l13.4-5.4
				c1.1-0.4,1.6-1.6,1.2-2.7L102.1,176.4z M105.5,236.4l-19.8-48.1H62.9c-6,0-10.9-4.9-10.9-10.9v-10.8l37.9-1.5v10.6l10.2,1.4
				L119,231L105.5,236.4z"/>
		</g>
		<polygon class="st26" points="51.9,170.1 89.9,170.1 89.9,165.2 51.9,166.6 		"/>
		<g>
			<g>
				<path class="st2" d="M132.1,136.5l-28-0.5l-15.6-20c-1.9-2.4-5.4-2.8-7.8-0.9s-2.8,5.4-0.9,7.8l17.3,22c1,1.3,2.6,2.1,4.3,2.1
					l30.6,0.6c2.5,0,4.6-1.5,5.4-3.7c0.2-0.5,0.3-1.1,0.3-1.7C137.6,139.1,135.2,136.5,132.1,136.5z"/>
				<path class="st1" d="M132.1,134.4l-26.9-0.5l-15.1-19.2c-1.5-1.9-3.7-2.9-6-2.9l0,0c-1.7,0-3.4,0.6-4.7,1.6
					c-3.3,2.6-3.9,7.5-1.3,10.8l17.3,22c1.4,1.8,3.6,2.9,5.9,2.9l30.6,0.6h0.1c3.3,0,6.2-2.1,7.3-5.2c0.3-0.8,0.4-1.6,0.4-2.4
					c0-2.1-0.7-4-2.2-5.5C136.1,135.2,134.2,134.4,132.1,134.4z M137.3,143.9c-0.8,2.2-2.8,3.7-5.3,3.7h-0.1l-30.6-0.6
					c-1.7,0-3.2-0.8-4.3-2.1l-17.3-22c-1.9-2.4-1.5-5.9,0.9-7.8c1-0.8,2.2-1.2,3.4-1.2c1.6,0,3.3,0.7,4.4,2.1l15.7,20l28,0.5
					c3.1,0.1,5.5,2.6,5.5,5.7C137.6,142.7,137.4,143.3,137.3,143.9z"/>
			</g>
		</g>
		<g>
			<path class="st0" d="M82.3,93.5V88c0-6.4-5.2-11.8-11.6-11.7c-6.2,0.2-11.2,5.2-11.2,11.4V90h-1.6c-1.6,0-3.1,1-3.6,2.6
				c-0.6,2.2,1,4.3,3.2,4.3h2v17.4h22.7v-13.2h2.9c0.5,0,0.9-0.6,0.7-1.1L82.3,93.5z"/>
			<path class="st1" d="M84.4,93v-5c0-7.6-6.1-13.8-13.5-13.8c-0.1,0-0.2,0-0.3,0c-7.3,0.1-13.3,6.2-13.3,13.5v0.2
				c-2.4,0.2-4.4,1.8-5.1,4.1c-0.5,1.7-0.2,3.4,0.9,4.8c1,1.3,2.6,2.1,4.2,2.2v15.3c0,1.2,1,2.1,2.1,2.1h22.7c1.2,0,2.1-1,2.1-2.1
				v-11.1h0.7c1,0,1.9-0.5,2.4-1.4s0.6-1.9,0.1-2.8L84.4,93z M85,101.2h-2.9v13.2H59.5V97h-2c-2.1,0-3.8-2-3.2-4.3
				c0.4-1.6,1.9-2.6,3.6-2.6h1.6v-2.3c0-6.2,5-11.3,11.2-11.4c0.1,0,0.1,0,0.2,0c6.3,0,11.4,5.3,11.4,11.7v5.5l3.4,6.6
				C85.9,100.6,85.6,101.2,85,101.2z"/>
		</g>
		<g>
			<path class="st14" d="M57.3,79.3l1.6,8.9h1.8l-0.2,8.5H64v-12h18.6l5-15.6H66.2C60.8,69.1,56.6,73.9,57.3,79.3z"/>
			<path class="st1" d="M87.7,66.9L87.7,66.9H66.3c-3.2,0-6.3,1.4-8.4,3.8s-3.1,5.6-2.7,8.8v0.1l1.6,8.9c0.2,0.9,0.9,1.6,1.7,1.7
				l-0.2,6.4c0,0.6,0.2,1.1,0.6,1.5s0.9,0.6,1.5,0.6h3.5c1.2,0,2.1-1,2.1-2.1v-9.9h16.5c0.9,0,1.7-0.6,2-1.5l5-15.5
				c0.1-0.2,0.1-0.5,0.1-0.7C89.8,67.9,88.9,66.9,87.7,66.9z M87.7,69.1l-5,15.6H64v12h-3.5l0.2-8.5h-1.8l-1.6-8.9
				c-0.7-5.4,3.5-10.2,9-10.2H87.7L87.7,69.1L87.7,69.1z"/>
		</g>
		<path class="st1" d="M77.4,90.6h-4.9c-0.6,0-1.1,0.5-1.1,1.1s0.5,1.1,1.1,1.1h4.9c0.6,0,1.1-0.5,1.1-1.1S77.9,90.6,77.4,90.6z"/>
		<path class="st1" d="M75.2,92.5c-0.6,0-1.1,0.5-1.1,1.1v3.2c0,0.6,0.5,1.1,1.1,1.1s1.1-0.5,1.1-1.1v-3.2
			C76.3,92.9,75.8,92.5,75.2,92.5z"/>
		<rect x="74" y="102.7" class="st1" width="5.3" height="1"/>
		<circle class="st1" cx="73.9" cy="103.2" r="0.8"/>
		<g>
			<path class="st2" d="M85.5,114.4H54.3c-2.4,0-4.3,1.9-4.3,4.3v43.6c0,2.4,1.9,4.3,4.3,4.3h31.2c2.4,0,4.3-1.9,4.3-4.3v-43.6
				C89.9,116.3,87.9,114.4,85.5,114.4z"/>
			<path class="st1" d="M85.5,112.2H54.3c-3.6,0-6.5,2.9-6.5,6.5v43.6c0,3.6,2.9,6.5,6.5,6.5h31.2c3.6,0,6.5-2.9,6.5-6.5v-43.6
				C92,115.1,89.1,112.2,85.5,112.2z M89.9,162.3c0,2.4-1.9,4.3-4.3,4.3H54.3c-2.4,0-4.3-1.9-4.3-4.3v-43.6c0-2.4,1.9-4.3,4.3-4.3
				h31.2c2.4,0,4.3,1.9,4.3,4.3L89.9,162.3L89.9,162.3z"/>
		</g>
		<g>
			
				<ellipse transform="matrix(0.2895 -0.9572 0.9572 0.2895 -40.0043 229.6407)" class="st0" cx="134.7" cy="141.8" rx="5.7" ry="5.7"/>
			<path class="st1" d="M136.9,134.3c-0.7-0.2-1.5-0.3-2.3-0.3l0,0c-3.5,0-6.5,2.2-7.5,5.6c-1.3,4.1,1.1,8.5,5.2,9.8
				c0.7,0.2,1.5,0.3,2.3,0.3c3.5,0,6.5-2.2,7.5-5.6C143.4,139.9,141.1,135.5,136.9,134.3z M140.1,143.4c-0.7,2.5-3,4.1-5.5,4.1
				c-0.5,0-1.1-0.1-1.7-0.2c-3-0.9-4.7-4.1-3.8-7.1c0.7-2.5,3-4.1,5.5-4.1c0.5,0,1.1,0.1,1.7,0.2C139.3,137.2,141,140.4,140.1,143.4
				z"/>
		</g>
		<path class="st16" d="M79.6,78.9c-0.6,1.7-2.2,2.8-4,2.8H64.9c-1.1,0-2,0.9-2,2v13h1v-12h18.6l5-15.6H83L79.6,78.9z"/>
		<g>
			<g>
				<path class="st2" d="M102.9,137l-28-0.5l-15.7-20c-1.9-2.4-5.4-2.8-7.8-0.9c-2.4,1.9-2.8,5.4-0.9,7.8l17.3,22
					c1,1.3,2.6,2.1,4.3,2.1l30.6,0.6c2.5,0,4.6-1.5,5.4-3.7c0.2-0.5,0.3-1.1,0.3-1.7C108.4,139.6,105.9,137,102.9,137z"/>
				<path class="st1" d="M102.9,134.8L76,134.3l-15.1-19.2c-1.5-1.9-3.7-2.9-6-2.9l0,0c-1.7,0-3.4,0.6-4.7,1.6
					c-3.3,2.6-3.9,7.5-1.3,10.8l17.3,22c1.4,1.8,3.6,2.9,5.9,2.9l30.6,0.6h0.1c3.3,0,6.2-2.1,7.3-5.2c0.3-0.8,0.4-1.6,0.4-2.4
					c0-2.1-0.7-4-2.2-5.5C106.9,135.7,104.9,134.9,102.9,134.8z M108,144.3c-0.8,2.2-2.8,3.7-5.3,3.7h-0.1L72,147.4
					c-1.7,0-3.2-0.8-4.3-2.1l-17.3-22c-1.9-2.4-1.5-5.9,0.9-7.8c1-0.8,2.2-1.2,3.4-1.2c1.6,0,3.3,0.7,4.4,2.1l15.7,20l28,0.5
					c3.1,0.1,5.5,2.6,5.5,5.7C108.3,143.2,108.2,143.8,108,144.3z"/>
			</g>
		</g>
		<g>
			
				<ellipse transform="matrix(0.2895 -0.9572 0.9572 0.2895 -61.2131 201.8528)" class="st0" cx="105.4" cy="142.2" rx="5.7" ry="5.7"/>
			<path class="st1" d="M107.7,134.7c-0.7-0.2-1.5-0.3-2.3-0.3l0,0c-3.5,0-6.5,2.2-7.5,5.6c-0.6,2-0.4,4.1,0.6,6
				c1,1.8,2.6,3.2,4.6,3.8c0.7,0.2,1.5,0.3,2.3,0.3c3.5,0,6.5-2.2,7.5-5.6c0.6-2,0.4-4.1-0.6-6C111.3,136.7,109.7,135.3,107.7,134.7
				z M110.9,143.9c-0.7,2.5-3,4.1-5.5,4.1c-0.5,0-1.1-0.1-1.7-0.2c-3-0.9-4.7-4.1-3.8-7.1c0.7-2.5,3-4.1,5.5-4.1
				c0.5,0,1.1,0.1,1.7,0.2C110.1,137.7,111.8,140.9,110.9,143.9z"/>
		</g>
	</g>
	<g class="st22">
		<g>
			<path class="st16" d="M368.8,84.5l3.3,22c0,0,6.3-2.4,6.3-17.4S368.8,84.5,368.8,84.5z"/>
			<path class="st1" d="M374.8,78.9c-3.5,0-6.9,3.5-7.5,4.2c-0.4,0.5-0.6,1.1-0.5,1.8l3.3,22c0.1,0.6,0.5,1.2,1,1.5
				c0.3,0.2,0.7,0.3,1.1,0.3c0.3,0,0.5,0,0.7-0.1c0.8-0.3,7.7-3.4,7.7-19.4C380.6,80.6,377.4,78.9,374.8,78.9z M372.2,106.5l-3.3-22
				c0,0,3.2-3.5,6-3.5c2,0,3.7,1.8,3.7,8.1C378.5,104.1,372.2,106.5,372.2,106.5z"/>
		</g>
		<g>
			<polygon class="st12" points="289.1,229.7 289.1,233 309.6,233 309.6,226.4 297.5,225.2 			"/>
			<path class="st1" d="M309.8,224.3l-12.1-1.2c-0.1,0-0.1,0-0.2,0c-0.3,0-0.7,0.1-1,0.3l-8.3,4.5c-0.7,0.4-1.1,1.1-1.1,1.9v3.3
				c0,1.2,1,2.1,2.1,2.1h20.5c1.2,0,2.1-1,2.1-2.1v-6.6C311.7,225.3,310.9,224.4,309.8,224.3z M309.6,233h-20.5v-3.3l8.3-4.5
				l12.1,1.2v6.6H309.6z"/>
		</g>
		<g>
			<polygon class="st12" points="303,237 303,240.3 323.4,240.3 323.4,233.7 311.3,232.5 			"/>
			<path class="st1" d="M323.6,231.6l-12.1-1.2c-0.1,0-0.1,0-0.2,0c-0.3,0-0.7,0.1-1,0.3l-8.3,4.5c-0.7,0.4-1.1,1.1-1.1,1.9v3.3
				c0,1.2,1,2.1,2.1,2.1h20.5c1.2,0,2.1-1,2.1-2.1v-6.6C325.5,232.6,324.7,231.7,323.6,231.6z M323.4,240.3h-20.5V237l8.3-4.5
				l12.1,1.2v6.6H323.4z"/>
		</g>
		<g>
			<polygon class="st24" points="324.7,173.7 300.8,222.9 315,227.8 340,178.9 346,178 341.6,173.7 			"/>
			<path class="st1" d="M343.1,172.2c-0.4-0.4-0.9-0.6-1.5-0.6h-16.9c-0.8,0-1.6,0.5-1.9,1.2L298.9,222c-0.3,0.5-0.3,1.2-0.1,1.7
				c0.2,0.6,0.7,1,1.3,1.2l14.2,5c0.2,0.1,0.5,0.1,0.7,0.1c0.8,0,1.5-0.4,1.9-1.2l24.5-48l4.9-0.7c0.8-0.1,1.5-0.7,1.7-1.5
				s0-1.6-0.5-2.2L343.1,172.2z M340,178.9l-25,48.9l-14.2-5l23.9-49.2h16.9l4.4,4.3L340,178.9z"/>
		</g>
		<g>
			<path class="st24" d="M341.6,175.8l-10.2,1.4L312.5,231l13.4,5.4l19.8-48.1h22.9c6,0,10.9-4.9,10.9-10.9v-10.8l-37.9-1.5
				L341.6,175.8L341.6,175.8z"/>
			<path class="st1" d="M379.6,164.5l-37.9-1.5h-0.1c-0.5,0-1.1,0.2-1.5,0.6c-0.4,0.4-0.7,1-0.7,1.5v8.7l-8.3,1.1
				c-0.8,0.1-1.5,0.6-1.7,1.4l-18.9,54c-0.4,1.1,0.2,2.2,1.2,2.7l13.4,5.4c0.3,0.1,0.5,0.2,0.8,0.2c0.8,0,1.6-0.5,2-1.3l19.2-46.8
				h21.5c7.2,0,13-5.8,13-13v-10.8C381.6,165.5,380.7,164.5,379.6,164.5z M379.5,177.4c0,6-4.9,10.9-10.9,10.9h-22.9l-19.8,48.1
				l-13.4-5.4l18.9-53.9l10.2-1.4v-10.6l37.9,1.5L379.5,177.4L379.5,177.4z"/>
		</g>
		<polygon class="st26" points="341.6,170.1 379.5,170.1 379.5,166.6 341.6,165.2 		"/>
		<g>
			<g>
				<path class="st2" d="M350.8,115.1c-2.4-1.9-5.9-1.5-7.8,0.9l-15.7,20l-28,0.5c-3.1,0.1-5.5,2.6-5.5,5.7c0,0.6,0.1,1.2,0.3,1.7
					c0.8,2.2,2.9,3.8,5.4,3.7l30.6-0.6c1.7,0,3.2-0.8,4.3-2.1l17.3-22C353.6,120.4,353.2,117,350.8,115.1z"/>
				<path class="st1" d="M352.1,113.4c-1.3-1.1-3-1.6-4.7-1.6c-2.4,0-4.6,1.1-6,2.9l-15.1,19.2l-26.9,0.5c-2.1,0-4,0.9-5.4,2.4
					s-2.2,3.4-2.2,5.5c0,0.8,0.2,1.6,0.4,2.4c1.1,3.1,4,5.2,7.3,5.2h0.1l30.6-0.6c2.3,0,4.5-1.1,5.9-2.9l17.3-22
					C356,120.8,355.5,116,352.1,113.4z M351.7,122.9l-17.3,22c-1,1.3-2.6,2.1-4.3,2.1l-30.6,0.6h-0.1c-2.4,0-4.5-1.6-5.3-3.7
					c-0.2-0.5-0.3-1.1-0.3-1.7c-0.1-3.1,2.4-5.6,5.5-5.7l28-0.5l15.7-20c1.1-1.4,2.7-2.1,4.4-2.1c1.2,0,2.4,0.4,3.4,1.2
					C353.2,117,353.6,120.4,351.7,122.9z"/>
			</g>
		</g>
		<g>
			<path class="st0" d="M373.6,90.1H372v-2.3c0-6.2-5-11.3-11.2-11.4c-6.4-0.1-11.6,5.3-11.6,11.7v5.5l-3.4,6.6
				c-0.3,0.5,0.1,1.1,0.7,1.1h2.9v13.2h22.7V97.1h2c2.1,0,3.8-2,3.2-4.3C376.7,91.1,375.2,90.1,373.6,90.1z"/>
			<path class="st1" d="M374.1,88v-0.2c0-7.3-6-13.4-13.3-13.5c-0.1,0-0.2,0-0.3,0l0,0c-7.5,0-13.5,6.2-13.5,13.8v5l-3.1,6.1
				c-0.5,0.9-0.4,1.9,0.1,2.8s1.4,1.4,2.4,1.4h0.7v11.1c0,1.2,1,2.1,2.1,2.1h22.7c1.2,0,2.1-1,2.1-2.1V99c1.7,0,3.2-0.8,4.2-2.2
				c1-1.4,1.4-3.1,0.9-4.8C378.6,89.8,376.5,88.2,374.1,88z M374,96.9h-2v17.4h-22.7v-13.2h-2.8c-0.5,0-0.9-0.6-0.7-1.1l3.4-6.6V88
				c0-6.3,5.1-11.7,11.4-11.7c0.1,0,0.1,0,0.2,0c6.2,0.1,11.2,5.2,11.2,11.4V90h1.6c1.6,0,3.1,1,3.6,2.6
				C377.8,94.9,376.2,96.9,374,96.9z"/>
		</g>
		<rect x="352.2" y="102.7" class="st1" width="5.3" height="1"/>
		<circle class="st1" cx="357.6" cy="103.2" r="0.8"/>
		<g>
			<path class="st2" d="M377.2,114.4h-31.3c-2.4,0-4.3,1.9-4.3,4.3v43.6c0,2.4,1.9,4.3,4.3,4.3h31.3c2.4,0,4.3-1.9,4.3-4.3v-43.6
				C381.5,116.3,379.6,114.4,377.2,114.4z"/>
			<path class="st1" d="M377.2,112.2h-31.3c-3.6,0-6.5,2.9-6.5,6.5v43.6c0,3.6,2.9,6.5,6.5,6.5h31.3c3.6,0,6.5-2.9,6.5-6.5v-43.6
				C383.7,115.1,380.8,112.2,377.2,112.2z M381.5,162.3c0,2.4-1.9,4.3-4.3,4.3h-31.3c-2.4,0-4.3-1.9-4.3-4.3v-43.6
				c0-2.4,1.9-4.3,4.3-4.3h31.3c2.4,0,4.3,1.9,4.3,4.3V162.3z"/>
		</g>
		<g>
			
				<ellipse transform="matrix(0.9572 -0.2895 0.2895 0.9572 -28.3433 91.9941)" class="st0" cx="296.8" cy="141.8" rx="5.7" ry="5.7"/>
			<path class="st1" d="M296.8,133.9c-0.8,0-1.5,0.1-2.3,0.3c-4.1,1.3-6.5,5.6-5.2,9.8c1,3.3,4,5.6,7.5,5.6c0.8,0,1.5-0.1,2.3-0.3
				c4.1-1.3,6.5-5.6,5.2-9.8C303.3,136.2,300.3,133.9,296.8,133.9z M298.5,147.2c-0.6,0.2-1.1,0.2-1.7,0.2c-2.5,0-4.7-1.6-5.5-4.1
				c-0.9-3,0.8-6.2,3.8-7.1c0.6-0.2,1.1-0.2,1.7-0.2c2.5,0,4.7,1.6,5.5,4.1C303.2,143.1,301.5,146.3,298.5,147.2z"/>
		</g>
		<g>
			<g>
				<path class="st2" d="M380.1,115.5c-2.4-1.9-5.9-1.5-7.8,0.9l-15.7,20l-28,0.5c-3.1,0.1-5.5,2.6-5.5,5.7c0,0.6,0.1,1.2,0.3,1.7
					c0.8,2.2,2.9,3.8,5.4,3.7l30.6-0.6c1.7,0,3.2-0.8,4.3-2.1l17.3-22C382.9,120.9,382.5,117.4,380.1,115.5z"/>
				<path class="st1" d="M381.4,113.9c-1.3-1.1-3-1.6-4.7-1.6c-2.4,0-4.6,1.1-6,2.9l-15.2,19.1l-26.9,0.5c-2.1,0-4,0.9-5.4,2.4
					s-2.2,3.4-2.2,5.5c0,0.8,0.2,1.6,0.4,2.4c1.1,3.1,4,5.2,7.3,5.2h0.1l30.6-0.6c2.3,0,4.5-1.1,5.9-2.9l17.3-22
					C385.3,121.3,384.7,116.5,381.4,113.9z M381,123.3l-17.3,22c-1,1.3-2.6,2.1-4.3,2.1l-30.6,0.6h-0.1c-2.4,0-4.5-1.6-5.3-3.7
					c-0.2-0.5-0.3-1.1-0.3-1.7c-0.1-3.1,2.4-5.6,5.5-5.7l28-0.5l15.7-20c1.1-1.4,2.7-2.1,4.4-2.1c1.2,0,2.4,0.4,3.4,1.2
					C382.5,117.4,382.9,120.9,381,123.3z"/>
			</g>
		</g>
		<g>
			
				<ellipse transform="matrix(0.9572 -0.2895 0.2895 0.9572 -27.2021 100.4936)" class="st0" cx="326.1" cy="142.2" rx="5.7" ry="5.7"/>
			<path class="st1" d="M326.1,134.4c-0.8,0-1.5,0.1-2.3,0.3c-2,0.6-3.7,2-4.6,3.8c-1,1.8-1.2,4-0.6,6c1,3.3,4,5.6,7.5,5.6
				c0.8,0,1.5-0.1,2.3-0.3c2-0.6,3.7-2,4.6-3.8c1-1.8,1.2-4,0.6-6C332.6,136.6,329.6,134.4,326.1,134.4z M327.7,147.7
				c-0.6,0.2-1.1,0.2-1.7,0.2c-2.5,0-4.7-1.6-5.5-4.1c-0.9-3,0.8-6.2,3.8-7.1c0.6-0.2,1.1-0.2,1.7-0.2c2.5,0,4.7,1.6,5.5,4.1
				C332.5,143.6,330.8,146.8,327.7,147.7z"/>
		</g>
		<g>
			<path class="st14" d="M360.6,72.4c-13.9,0-12.9,12.5-12.9,12.5h18.9v20.9h5.4V90.1c2.9-2.7,5.9-0.2,5.9-0.2
				C378.8,79.4,374.4,72.4,360.6,72.4z"/>
			<path class="st1" d="M360.6,70.2c-4.9,0-8.8,1.4-11.4,4.3c-4,4.3-3.6,10.2-3.6,10.5c0.1,1.1,1,2,2.1,2h16.8v18.8
				c0,1.2,1,2.1,2.1,2.1h5.4c1.2,0,2.1-1,2.1-2.1V91.1c0.3-0.1,0.6-0.2,0.9-0.2c0.8,0,1.5,0.5,1.5,0.5c0.4,0.3,0.9,0.5,1.4,0.5
				c0.3,0,0.6-0.1,0.8-0.2c0.7-0.3,1.2-1,1.3-1.8c0.6-6.2-0.7-11-3.8-14.4C372.9,72.1,367.7,70.2,360.6,70.2z M377.9,89.8
				c0,0-1.2-1-2.9-1c-0.9,0-2,0.3-3,1.3v15.7h-5.4V84.9h-18.9c0,0-0.9-12.5,12.9-12.5S378.8,79.4,377.9,89.8z"/>
		</g>
		<path class="st16" d="M347.7,82.9c-0.1,1.2-0.1,2-0.1,2h18.9v20.9h5.4V90.1c2.9-2.7,5.9-0.2,5.9-0.2c0.2-2.5,0.1-4.8-0.3-6.9
			L347.7,82.9L347.7,82.9z"/>
	</g>
	<g class="st22">
		<polygon class="st2" points="345.7,95.7 346.8,93.1 350.1,93.1 350.1,98.3 354.4,98.3 354.4,91.3 345.7,91.3 		"/>
		<path class="st1" d="M354.4,89.2h-8.7c-1.2,0-2.1,1-2.1,2.1v4.4c0,1,0.7,1.9,1.7,2.1c0.1,0,0.3,0,0.4,0c0.8,0,1.6-0.5,2-1.3
			l0.2-0.6v2.4c0,1.2,1,2.1,2.1,2.1h4.3c1.2,0,2.1-1,2.1-2.1v-7C356.5,90.1,355.6,89.2,354.4,89.2z M354.4,98.3h-4.3v-5.2h-3.2
			l-1.1,2.6v-4.4h8.7v7H354.4z"/>
	</g>
	<path class="st27" d="M352.6,92.5c-0.6,0-1.1,0.5-1.1,1.1v3.2c0,0.6,0.5,1.1,1.1,1.1s1.1-0.5,1.1-1.1v-3.2
		C353.6,92.9,353.1,92.5,352.6,92.5z"/>
	<path class="st27" d="M373.3,91.2h-17.5c-0.6,0-1.1,0.5-1.1,1.1s0.5,1.1,1.1,1.1h17.5c0.6,0,1.1-0.5,1.1-1.1S373.9,91.2,373.3,91.2
		z"/>
	<g class="st22">
		<g>
			<rect x="94.6" y="160.6" class="st2" width="10.9" height="64.6"/>
			<path class="st1" d="M105.5,158.5H94.6c-1.2,0-2.1,1-2.1,2.1v64.6c0,1.2,1,2.1,2.1,2.1h10.9c1.2,0,2.1-1,2.1-2.1v-64.6
				C107.6,159.4,106.7,158.5,105.5,158.5z M105.5,225.2H94.6v-64.6h10.9V225.2z"/>
		</g>
		<g>
			<rect x="94.6" y="160.6" class="st28" width="10.9" height="7"/>
		</g>
		<g>
			<rect x="330.2" y="160.6" class="st2" width="10.9" height="64.6"/>
			<path class="st1" d="M341.1,158.5h-10.9c-1.2,0-2.1,1-2.1,2.1v64.6c0,1.2,1,2.1,2.1,2.1h10.9c1.2,0,2.1-1,2.1-2.1v-64.6
				C343.3,159.4,342.3,158.5,341.1,158.5z M341.1,225.2h-10.9v-64.6h10.9V225.2z"/>
		</g>
		<g>
			<rect x="330.2" y="160.6" class="st28" width="10.9" height="7"/>
		</g>
		<g>
			<rect x="89.2" y="156.7" class="st2" width="257.1" height="4.7"/>
			<path class="st1" d="M346.3,154.6H89.2c-1.2,0-2.1,1-2.1,2.1v4.7c0,1.2,1,2.1,2.1,2.1h257.1c1.2,0,2.1-1,2.1-2.1v-4.7
				C348.4,155.5,347.5,154.6,346.3,154.6z M346.3,161.4H89.2v-4.7h257.1V161.4z"/>
		</g>
	</g>
	<g class="st22">
		<g>
			<path class="st7" d="M286.4,125.6c-0.6-1-1.8-1.3-2.8-0.8c-1,0.6-1.3,1.8-0.8,2.8l14.9,25.9c0.6,1,1.8,1.3,2.8,0.8
				c1-0.6,1.3-1.8,0.8-2.8L286.4,125.6z"/>
			<path class="st1" d="M288.2,124.5c-0.7-1.3-2.1-2.1-3.6-2.1c-0.7,0-1.5,0.2-2.1,0.6c-1,0.6-1.7,1.5-2,2.5
				c-0.3,1.1-0.1,2.2,0.4,3.2l14.9,25.9c0.7,1.3,2.1,2.1,3.6,2.1c0.7,0,1.4-0.2,2.1-0.6c1-0.6,1.7-1.5,2-2.5
				c0.3-1.1,0.1-2.2-0.4-3.2L288.2,124.5z M300.5,154.3c-0.3,0.2-0.7,0.3-1,0.3c-0.7,0-1.4-0.4-1.8-1l-14.9-25.9
				c-0.6-1-0.2-2.2,0.8-2.8c0.3-0.2,0.7-0.3,1-0.3c0.7,0,1.4,0.4,1.8,1l14.9,25.9C301.8,152.4,301.5,153.7,300.5,154.3z"/>
		</g>
		<g>
			<path class="st7" d="M329.4,150.4h-29.9c-1.1,0-2.1,0.9-2.1,2.1c0,1.1,0.9,2.1,2.1,2.1h29.9c1.1,0,2.1-0.9,2.1-2.1
				C331.4,151.3,330.5,150.4,329.4,150.4z"/>
			<path class="st1" d="M329.4,148.3h-29.9c-2.3,0-4.2,1.9-4.2,4.2s1.9,4.2,4.2,4.2h29.9c2.3,0,4.2-1.9,4.2-4.2
				C333.6,150.1,331.7,148.3,329.4,148.3z M329.4,154.5h-29.9c-1.1,0-2.1-0.9-2.1-2.1c0-1.1,0.9-2.1,2.1-2.1h29.9
				c1.1,0,2.1,0.9,2.1,2.1C331.4,153.6,330.5,154.5,329.4,154.5z"/>
		</g>
		<rect x="305.8" y="151.7" class="st29" width="5.9" height="1.2"/>
		<rect x="312.5" y="151.7" class="st29" width="5.9" height="1.2"/>
		<circle class="st29" cx="299.5" cy="152.4" r="2.1"/>
		<circle class="st2" cx="299.5" cy="152.4" r="1"/>
	</g>
	<g class="st22">
		<rect x="231.6" y="138.6" class="st9" width="38.4" height="13.9"/>
		<path class="st1" d="M270.8,139.9h-39.2c-0.6,0-1.1,0.5-1.1,1.1s0.5,1.1,1.1,1.1h39.2c0.6,0,1.1-0.5,1.1-1.1
			S271.4,139.9,270.8,139.9z"/>
		<path class="st1" d="M270.8,143.1h-39.2c-0.6,0-1.1,0.5-1.1,1.1s0.5,1.1,1.1,1.1h39.2c0.6,0,1.1-0.5,1.1-1.1
			C271.9,143.5,271.4,143.1,270.8,143.1z"/>
		<path class="st1" d="M270.8,146.2h-39.2c-0.6,0-1.1,0.5-1.1,1.1s0.5,1.1,1.1,1.1h39.2c0.6,0,1.1-0.5,1.1-1.1
			S271.4,146.2,270.8,146.2z"/>
		<path class="st1" d="M270.8,149.4h-39.2c-0.6,0-1.1,0.5-1.1,1.1s0.5,1.1,1.1,1.1h39.2c0.6,0,1.1-0.5,1.1-1.1
			S271.4,149.4,270.8,149.4z"/>
		<path class="st1" d="M270,136.5h-38.4c-1.2,0-2.1,1-2.1,2.1v13.9c0,1.2,1,2.1,2.1,2.1H270c1.2,0,2.1-1,2.1-2.1v-13.9
			C272.1,137.5,271.1,136.5,270,136.5z M270,152.5h-38.4v-13.9H270V152.5z"/>
	</g>
	<g class="st22">
		<g>
			<path class="st7" d="M150.9,124.8c-1-0.6-2.2-0.2-2.8,0.8l-14.9,25.9c-0.6,1-0.2,2.2,0.8,2.8s2.2,0.2,2.8-0.8l14.9-25.9
				C152.2,126.6,151.9,125.4,150.9,124.8z"/>
			<path class="st1" d="M151.9,123c-0.6-0.4-1.4-0.6-2.1-0.6l0,0c-1.5,0-2.9,0.8-3.6,2.1l-14.9,25.9c-0.6,1-0.7,2.1-0.4,3.2
				c0.3,1.1,1,2,2,2.5c0.6,0.4,1.4,0.6,2.1,0.6c1.5,0,2.9-0.8,3.6-2.1l14.9-25.9c0.6-1,0.7-2.1,0.4-3.2
				C153.6,124.4,152.9,123.5,151.9,123z M151.6,127.6l-14.9,25.9c-0.4,0.7-1.1,1-1.8,1c-0.3,0-0.7-0.1-1-0.3c-1-0.6-1.3-1.8-0.8-2.8
				l14.9-25.9c0.4-0.7,1.1-1,1.8-1c0.3,0,0.7,0.1,1,0.3C151.9,125.4,152.2,126.6,151.6,127.6z"/>
		</g>
		<g>
			<path class="st7" d="M134.9,150.4H105c-1.1,0-2.1,0.9-2.1,2.1c0,1.1,0.9,2.1,2.1,2.1h29.9c1.1,0,2.1-0.9,2.1-2.1
				C137,151.3,136,150.4,134.9,150.4z"/>
			<path class="st1" d="M134.9,148.3H105c-2.3,0-4.2,1.9-4.2,4.2s1.9,4.2,4.2,4.2h29.9c2.3,0,4.2-1.9,4.2-4.2
				C139.1,150.1,137.2,148.3,134.9,148.3z M134.9,154.5H105c-1.1,0-2.1-0.9-2.1-2.1c0-1.1,0.9-2.1,2.1-2.1h29.9
				c1.1,0,2.1,0.9,2.1,2.1S136,154.5,134.9,154.5z"/>
		</g>
		<rect x="122.7" y="151.7" class="st29" width="5.9" height="1.2"/>
		<rect x="116" y="151.7" class="st29" width="5.9" height="1.2"/>
		<circle class="st29" cx="134.9" cy="152.4" r="2.1"/>
		<circle class="st2" cx="134.9" cy="152.4" r="1"/>
	</g>
	<g class="st22">
		<g>
			<g>
				<polygon class="st0" points="222.4,176.4 210.1,181.1 211.5,211.6 210.1,222.4 225.6,222.4 218.7,211.1 				"/>
				<path class="st1" d="M220.9,210.6l3.6-33.9c0-0.1,0-0.2,0-0.3c0-1.2-0.9-2.1-2.1-2.1l0,0h-0.1c-0.3,0-0.5,0.1-0.7,0.2l-12.2,4.7
					c-0.8,0.3-1.4,1.2-1.4,2.1l1.3,30.3l-1.3,10.6c-0.1,0.6,0.1,1.2,0.5,1.7s1,0.7,1.6,0.7h15.5c0.8,0,1.5-0.4,1.9-1.1
					c0.4-0.7,0.4-1.5,0-2.1L220.9,210.6z M210.1,222.4l1.4-10.8l-1.4-30.5l12.2-4.7l0,0l0,0l-3.7,34.7l6.9,11.3H210.1z"/>
			</g>
			<g>
				<path class="st0" d="M232.5,165.7h-3l-9.1,45.9l-0.7,10.8H239l-8.4-11.7l10.1-33.8C242.5,171.3,238.3,165.7,232.5,165.7z"/>
				<path class="st1" d="M232.5,163.6h-3c-1,0-1.9,0.7-2.1,1.7l-9.1,45.9c0,0.1,0,0.2,0,0.3l-0.7,10.8c0,0.6,0.2,1.2,0.6,1.6
					c0.4,0.4,1,0.7,1.5,0.7H239c0.8,0,1.5-0.4,1.9-1.2c0.4-0.7,0.3-1.6-0.2-2.2l-7.8-10.9l9.8-32.8c1-3.3,0.4-6.8-1.7-9.5
					C239.1,165.2,235.9,163.6,232.5,163.6z M240.8,176.9l-10.1,33.8l8.4,11.7h-19.3l0.7-10.8l9.1-45.9h3
					C238.3,165.7,242.5,171.3,240.8,176.9z"/>
			</g>
			<g>
				<g>
					<path class="st30" d="M229.2,165.7h-0.9c-2.9,0-5.2-2.4-5-5.3l0.8-16c0.1-2.9-2.1-5.3-5-5.3l0,0c-2.9,0-5.2-2.5-5-5.4l0.9-5.7
						c0.2-2.4-1.4-4.6-3.8-5.2c-6.5-1.6-16.1-0.4-21.9,0.6c-2.8,0.5-4.6,3.2-4,6L198,181c0.5,2.3,2.5,4,4.9,4H230c2,0,3.8-1.2,4.6-3
						c1.9-4.4,0.6-9.8-0.6-13.1C233.2,167,231.3,165.7,229.2,165.7z"/>
					<path class="st1" d="M229.2,163.6h-0.9c-0.8,0-1.6-0.3-2.1-0.9c-0.6-0.6-0.8-1.3-0.8-2.2l0.8-16c0.1-2-0.6-3.9-2-5.3
						c-1.4-1.4-3.2-2.2-5.2-2.2c-0.8,0-1.6-0.3-2.1-0.9c-0.5-0.6-0.8-1.3-0.8-2.1l0.9-5.6c0-0.1,0-0.1,0-0.2
						c0.2-3.5-2.1-6.6-5.4-7.4c-2.3-0.6-5-0.9-8.2-0.9v2.1v-2.1l0,0c-5.3,0-10.8,0.8-14.6,1.5c-1.9,0.3-3.6,1.4-4.7,3.1
						c-1.1,1.6-1.5,3.6-1.1,5.5c0,0,0,0,0,0.1l12.7,51.6c0.7,3.3,3.6,5.6,7,5.6h27.1c2.8,0,5.4-1.7,6.6-4.3
						c2.2-4.9,0.9-10.7-0.6-14.7C234.9,165.5,232.2,163.6,229.2,163.6z M234.6,182.1c-0.8,1.8-2.6,3-4.6,3h-27.1
						c-2.4,0-4.4-1.7-4.9-4l-12.7-51.6c-0.6-2.8,1.2-5.5,4-6c3.8-0.7,9.1-1.4,14.2-1.4c2.7,0,5.4,0.2,7.7,0.8c2.4,0.6,4,2.8,3.8,5.2
						l-0.9,5.7c-0.2,2.9,2.1,5.4,5,5.4l0,0c2.9,0,5.2,2.4,5,5.3l-0.8,16c-0.1,2.9,2.1,5.3,5,5.3h0.9c2.1,0,4,1.3,4.7,3.3
						C235.2,172.4,236.5,177.7,234.6,182.1z"/>
				</g>
			</g>
			<g>
				<path class="st0" d="M197.6,86.5v30.4h6.5c7.2,0,13.1-5.8,13.1-13.1l0,0h3.3l-6.6-11.9L197.6,86.5z"/>
				<path class="st1" d="M215.7,90.9c-0.3-0.5-0.7-0.8-1.2-1l-16.3-5.4c-0.2-0.1-0.4-0.1-0.7-0.1c-0.4,0-0.9,0.1-1.2,0.4
					c-0.6,0.4-0.9,1-0.9,1.7v30.4c0,1.2,1,2.1,2.1,2.1h6.5c7.7,0,14-5.7,15-13.1h1.3c0.8,0,1.4-0.4,1.8-1s0.4-1.5,0-2.1L215.7,90.9z
					 M217.2,103.8c0,7.2-5.8,13.1-13.1,13.1h-6.5V86.5l16.3,5.4l6.6,11.9H217.2z"/>
			</g>
			<g>
				<path class="st19" d="M209.8,77.5c-0.1,0-0.3,0-0.4,0c0,0-15.5-4.8-23.9,5c-8.3,9.7,0,30.3-10.9,38s12.8,15.5,24.9,10
					c12.1-5.6,9.6-38.5,9.6-38.5h0.1C218.5,91.9,219,78.3,209.8,77.5z"/>
				<path class="st1" d="M210,75.4c-0.1,0-0.1,0-0.2,0c-1-0.3-4.6-1.2-9-1.2c-7.2,0-13,2.4-16.8,6.9c-4.4,5.1-4.6,12.4-4.9,19.5
					c-0.3,7.5-0.6,14.6-5.6,18.1c-4.1,2.9-3.9,5.9-3.4,7.4c1.7,5.2,11.3,8.3,19.7,8.3c4.1,0,7.8-0.7,10.7-2.1
					c5.8-2.6,9.3-10.4,10.6-23.1c0.6-6.4,0.5-12.4,0.4-15.5c4.5-1,7-4.8,7.1-8.7C218.7,80.7,215.9,75.9,210,75.4z M209.3,91.9
					L209.3,91.9c-0.1,0,2.5,33-9.6,38.5c-2.8,1.3-6.3,1.9-9.9,1.9c-11.5,0-23.4-6-15.1-11.9c10.9-7.7,2.5-28.2,10.9-38
					c4.2-4.9,10.3-6.1,15.2-6.1s8.7,1.2,8.7,1.2c0.1,0,0.3,0,0.4,0C219,78.3,218.5,91.9,209.3,91.9z"/>
			</g>
			<g>
				<path class="st31" d="M209.8,77.5c-0.1,0-0.3,0-0.4,0c0,0-13.6-4.2-22.2,3.3l0,0c7.6-2.2,15.5,0.3,15.5,0.3l0,0
					c0.1,0,0.2,0,0.3,0c9.2,0.8,8.6,14.4-0.6,14.4c0,0,2.1,26.8-6.4,36.2l0,0c1.2-0.3,2.4-0.7,3.5-1.2c12.1-5.6,9.6-38.5,9.6-38.5
					h0.1C218.5,91.9,219,78.3,209.8,77.5z"/>
			</g>
		</g>
		<g>
			<path class="st9" d="M224.5,186.7h-38.7c-2.6,0-4.6,2.1-4.6,4.6s2.1,4.6,4.6,4.6h38.7c2.6,0,4.6-2.1,4.6-4.6
				S227.1,186.7,224.5,186.7z"/>
			<path class="st1" d="M224.5,184.6h-38.7c-3.7,0-6.8,3-6.8,6.8s3,6.8,6.8,6.8h38.7c3.7,0,6.8-3,6.8-6.8S228.3,184.6,224.5,184.6z
				 M224.5,196h-38.7c-2.6,0-4.6-2.1-4.6-4.6s2.1-4.6,4.6-4.6h38.7c2.6,0,4.6,2.1,4.6,4.6S227.1,196,224.5,196z"/>
		</g>
		<g>
			<polygon class="st2" points="199.8,226.1 199.8,194.9 196.3,194.9 196.3,226.1 184.7,226.1 181.2,226.1 181.2,230.4 181.2,234.8 
				184.7,234.8 184.7,230.4 196.3,230.4 196.3,234.8 199.8,234.8 199.8,230.4 211.2,230.4 211.2,234.8 214.7,234.8 214.7,230.4 
				214.7,226.1 211.2,226.1 			"/>
			<path class="st1" d="M214.7,224h-3.5h-9.3v-29.1c0-1.2-1-2.1-2.1-2.1h-3.5c-1.2,0-2.1,1-2.1,2.1V224h-9.5h-3.5
				c-1.2,0-2.1,1-2.1,2.1v4.2v4.4c0,1.2,1,2.1,2.1,2.1h3.5c1.2,0,2.1-1,2.1-2.1v-2.3h7.4v2.3c0,1.2,1,2.1,2.1,2.1h3.5
				c1.2,0,2.1-1,2.1-2.1v-2.3h7.1v2.3c0,1.2,1,2.1,2.1,2.1h3.5c1.2,0,2.1-1,2.1-2.1v-4.4v-4.2C216.8,225,215.9,224,214.7,224z
				 M214.7,230.4v4.4h-3.5v-4.4h-11.4v4.4h-3.5v-4.4h-11.6v4.4h-3.5v-4.4v-4.2h3.5h11.6v-31.3h3.5v31.3h11.4h3.5V230.4z"/>
		</g>
		<rect x="196.3" y="194.9" class="st10" width="3.5" height="6"/>
		<g>
			<circle class="st10" cx="182.3" cy="238.5" r="2.9"/>
			<path class="st1" d="M182.3,233.5c-2.8,0-5,2.2-5,5s2.2,5,5,5s5-2.2,5-5S185.1,233.5,182.3,233.5z M182.3,241.3
				c-1.6,0-2.9-1.3-2.9-2.9s1.3-2.9,2.9-2.9s2.9,1.3,2.9,2.9C185.2,240.1,183.9,241.3,182.3,241.3z"/>
		</g>
		<g>
			<circle class="st10" cx="197.5" cy="238.5" r="2.9"/>
			<path class="st1" d="M197.5,233.5c-2.8,0-5,2.2-5,5s2.2,5,5,5s5-2.2,5-5S200.3,233.5,197.5,233.5z M197.5,241.3
				c-1.6,0-2.9-1.3-2.9-2.9s1.3-2.9,2.9-2.9c1.6,0,2.9,1.3,2.9,2.9C200.4,240.1,199.1,241.3,197.5,241.3z"/>
		</g>
		<g>
			<circle class="st10" cx="212.9" cy="238.5" r="2.9"/>
			<path class="st1" d="M212.9,233.5c-2.8,0-5,2.2-5,5s2.2,5,5,5s5-2.2,5-5S215.7,233.5,212.9,233.5z M212.9,241.3
				c-1.6,0-2.9-1.3-2.9-2.9s1.3-2.9,2.9-2.9c1.6,0,2.9,1.3,2.9,2.9C215.8,240.1,214.5,241.3,212.9,241.3z"/>
		</g>
		<g>
			<rect x="194.1" y="208.1" class="st2" width="8" height="9.1"/>
			<path class="st1" d="M202.1,206h-8c-1.2,0-2.1,1-2.1,2.1v9.1c0,1.2,1,2.1,2.1,2.1h8c1.2,0,2.1-1,2.1-2.1v-9.1
				C204.2,206.9,203.3,206,202.1,206z M202.1,217.3h-8v-9.1h8V217.3z"/>
		</g>
		<g>
			<path class="st2" d="M188.1,126h-17.7c-5.8,0-10,5.5-8.5,11.1l13.8,51c1.3,4.7,5.5,7.9,10.3,7.9h32.5l-16-58.9
				C200.8,130.5,194.8,126,188.1,126z"/>
			<path class="st1" d="M204.6,136.5c-2-7.5-8.8-12.7-16.5-12.7h-17.7c-3.4,0-6.6,1.6-8.7,4.3c-2.1,2.7-2.8,6.2-1.9,9.5l13.8,51
				c1.5,5.6,6.6,9.5,12.4,9.5h32.5c0.7,0,1.3-0.3,1.7-0.8s0.5-1.2,0.4-1.8L204.6,136.5z M185.9,196c-4.8,0-9.1-3.2-10.3-7.9
				l-13.8-51c-1.5-5.6,2.7-11.1,8.5-11.1H188c6.8,0,12.7,4.5,14.5,11.1l15.9,58.9H185.9z"/>
		</g>
		<path class="st8" d="M188.1,126h-17.7c-3.3,0-6.1,1.8-7.6,4.3c1-0.4,2.2-0.7,3.4-0.7h17.7c6.8,0,12.7,4.5,14.5,11.1l14.9,55.3h5.1
			l-15.9-58.9C200.8,130.5,194.8,126,188.1,126z"/>
	</g>
	<g class="st22">
		<g>
			<path class="st24" d="M264.7,153.9l-1-4.7l-8.2-14.5l-3.6,2.1l8.4,14.3l3.6,3.2C264.2,154.6,264.8,154.3,264.7,153.9z"/>
			<path class="st1" d="M258.9,152.7l3.6,3.2c0.8,0.7,2.1,0.9,3,0.3c1-0.6,1.5-1.7,1.2-2.8l-1-4.7c0-0.2-0.1-0.4-0.2-0.6l-8.2-14.5
				c-0.3-0.5-0.7-0.9-1.3-1c-0.5-0.1-1.1-0.1-1.6,0.2l-3.6,2.1c-1,0.6-1.3,1.9-0.8,2.9l8.4,14.3
				C258.6,152.4,258.7,152.5,258.9,152.7z M251.9,136.8l3.6-2.1l8.2,14.5l1,4.7c0,0.2-0.1,0.4-0.2,0.5c-0.2,0.1-0.4,0.1-0.5-0.1
				l-3.6-3.2L251.9,136.8z"/>
		</g>
		<path class="st32" d="M260.6,151.4l3.3,3c0.3,0.3,0.8,0,0.7-0.4l-1-4.4L260.6,151.4z"/>
		<polygon class="st2" points="257.9,139 255.4,134.7 251.9,136.8 254.4,141 		"/>
	</g>
	<g class="st22">
		<path class="st0" d="M253.8,146.1l-1.1-4.9l-3.2,1.4l-1.1,4.8l-20.9,5l-8.8-24.7c-0.8-2.3-3.4-3.6-5.8-2.7
			c-2.3,0.8-3.6,3.4-2.7,5.8l9.2,25.7c0.7,1.8,2,3.3,3.7,4.3l0,0c1.7,0.9,3.7,1.2,5.6,0.7l26.6-6.3c2.3-0.6,4-2.8,3.6-5.2
			C258.3,147.4,256.1,145.9,253.8,146.1z"/>
		<path class="st1" d="M255.6,144.1l-0.7-3.3c-0.1-0.6-0.5-1.1-1.1-1.4c-0.3-0.2-0.6-0.2-1-0.2c-0.3,0-0.6,0.1-0.8,0.2l-3.2,1.4
			c-0.6,0.3-1.1,0.8-1.2,1.5l-0.8,3.5L229,150l-8.2-22.9c-0.9-2.6-3.5-4.4-6.2-4.4v2.1c1.9,0,3.6,1.1,4.2,3l8.8,24.7l20.9-5l1.1-4.8
			l3.2-1.4l1.1,4.9c0.1,0,0.3,0,0.4,0c2.1,0,4.1,1.5,4.4,3.8c0.4,2.4-1.2,4.6-3.6,5.2l-26.6,6.3c-0.6,0.1-1.2,0.2-1.8,0.2
			c-1.3,0-2.6-0.3-3.8-1l0,0c-1.7-0.9-3-2.4-3.7-4.3l-9.2-25.7c-0.8-2.3,0.4-4.9,2.7-5.8c0.5-0.2,1-0.3,1.5-0.3v-2.1
			c-0.8,0-1.5,0.1-2.2,0.4c-1.7,0.6-3,1.8-3.8,3.4c-0.8,1.6-0.8,3.4-0.2,5.1l9.2,25.7c0.8,2.3,2.5,4.2,4.6,5.4
			c1.5,0.8,3.1,1.2,4.8,1.2c0.8,0,1.6-0.1,2.3-0.3l26.6-6.3c3.5-0.8,5.7-4.2,5.2-7.6C260.3,146.7,258.2,144.6,255.6,144.1z"/>
	</g>
	<g class="st22">
		<path class="st1" d="M250,98.1h-12.7c-0.6,0-1.1,0.5-1.1,1.1s0.5,1.1,1.1,1.1H250c0.6,0,1.1-0.5,1.1-1.1S250.6,98.1,250,98.1z"/>
		<path class="st1" d="M257.6,102.5h-20.2c-0.6,0-1.1,0.5-1.1,1.1s0.5,1.1,1.1,1.1h20.2c0.6,0,1.1-0.5,1.1-1.1
			C258.6,102.9,258.2,102.5,257.6,102.5z"/>
		<path class="st1" d="M254.2,106.8h-16.8c-0.6,0-1.1,0.5-1.1,1.1s0.5,1.1,1.1,1.1h16.8c0.6,0,1.1-0.5,1.1-1.1
			S254.8,106.8,254.2,106.8z"/>
		<path class="st1" d="M275.7,98.1H263c-0.6,0-1.1,0.5-1.1,1.1s0.5,1.1,1.1,1.1h12.7c0.6,0,1.1-0.5,1.1-1.1S276.3,98.1,275.7,98.1z"
			/>
		<path class="st1" d="M258.4,98.1h-3.8c-0.6,0-1.1,0.5-1.1,1.1s0.5,1.1,1.1,1.1h3.8c0.6,0,1.1-0.5,1.1-1.1S259,98.1,258.4,98.1z"/>
		<path class="st1" d="M261.5,106.8h-3.8c-0.6,0-1.1,0.5-1.1,1.1s0.5,1.1,1.1,1.1h3.8c0.6,0,1.1-0.5,1.1-1.1
			C262.5,107.3,262,106.8,261.5,106.8z"/>
		<path class="st1" d="M271.8,106.8h-6.5c-0.6,0-1.1,0.5-1.1,1.1s0.5,1.1,1.1,1.1h6.5c0.6,0,1.1-0.5,1.1-1.1
			C272.8,107.3,272.4,106.8,271.8,106.8z"/>
	</g>
	<g class="st22">
		<path class="st2" d="M110.3,76.7H97.6c-0.6,0-1.1,0.5-1.1,1.1s0.5,1.1,1.1,1.1h12.7c0.6,0,1.1-0.5,1.1-1.1
			C111.3,77.2,110.9,76.7,110.3,76.7z"/>
		<path class="st2" d="M117.8,81H97.6c-0.6,0-1.1,0.5-1.1,1.1s0.5,1.1,1.1,1.1h20.2c0.6,0,1.1-0.5,1.1-1.1S118.4,81,117.8,81z"/>
		<path class="st2" d="M114.4,85.4H97.6c-0.6,0-1.1,0.5-1.1,1.1s0.5,1.1,1.1,1.1h16.8c0.6,0,1.1-0.5,1.1-1.1S115,85.4,114.4,85.4z"
			/>
		<path class="st2" d="M129.3,76.7h-6.1c-0.6,0-1.1,0.5-1.1,1.1s0.5,1.1,1.1,1.1h6.1c0.6,0,1.1-0.5,1.1-1.1
			C130.3,77.2,129.9,76.7,129.3,76.7z"/>
		<path class="st2" d="M118.6,76.7h-3.8c-0.6,0-1.1,0.5-1.1,1.1s0.5,1.1,1.1,1.1h3.8c0.6,0,1.1-0.5,1.1-1.1S119.2,76.7,118.6,76.7z"
			/>
		<path class="st2" d="M121.7,85.4h-3.8c-0.6,0-1.1,0.5-1.1,1.1s0.5,1.1,1.1,1.1h3.8c0.6,0,1.1-0.5,1.1-1.1S122.3,85.4,121.7,85.4z"
			/>
		<path class="st2" d="M132,85.4h-6.5c-0.6,0-1.1,0.5-1.1,1.1s0.5,1.1,1.1,1.1h6.5c0.6,0,1.1-0.5,1.1-1.1S132.6,85.4,132,85.4z"/>
		<path class="st2" d="M134.3,81.1h-12.7c-0.6,0-1.1,0.5-1.1,1.1s0.5,1.1,1.1,1.1h12.7c0.6,0,1.1-0.5,1.1-1.1S134.9,81.1,134.3,81.1
			z"/>
	</g>
	<g class="st22">
		<path class="st2" d="M107.2,95h-9.6c-0.6,0-1.1,0.5-1.1,1.1s0.5,1.1,1.1,1.1h9.6c0.6,0,1.1-0.5,1.1-1.1S107.8,95,107.2,95z"/>
		<path class="st2" d="M122.5,99.4H97.6c-0.6,0-1.1,0.5-1.1,1.1s0.5,1.1,1.1,1.1h24.9c0.6,0,1.1-0.5,1.1-1.1
			C123.5,99.9,123.1,99.4,122.5,99.4z"/>
		<path class="st2" d="M115.1,103.7H97.6c-0.6,0-1.1,0.5-1.1,1.1s0.5,1.1,1.1,1.1h17.5c0.6,0,1.1-0.5,1.1-1.1
			S115.7,103.7,115.1,103.7z"/>
		<path class="st2" d="M126.6,95H117c-0.6,0-1.1,0.5-1.1,1.1s0.5,1.1,1.1,1.1h9.6c0.6,0,1.1-0.5,1.1-1.1S127.2,95,126.6,95z"/>
		<path class="st2" d="M113.5,95h-2.9c-0.6,0-1.1,0.5-1.1,1.1s0.5,1.1,1.1,1.1h2.9c0.6,0,1.1-0.5,1.1-1.1S114.1,95,113.5,95z"/>
		<path class="st2" d="M120.6,103.7h-2.9c-0.6,0-1.1,0.5-1.1,1.1s0.5,1.1,1.1,1.1h2.9c0.6,0,1.1-0.5,1.1-1.1
			S121.2,103.7,120.6,103.7z"/>
	</g>
	<g class="st22">
		<path class="st2" d="M359.8,46.9h-9.6c-0.6,0-1.1,0.5-1.1,1.1s0.5,1.1,1.1,1.1h9.6c0.6,0,1.1-0.5,1.1-1.1
			C360.8,47.3,360.3,46.9,359.8,46.9z"/>
		<path class="st2" d="M375,51.2h-24.9c-0.6,0-1.1,0.5-1.1,1.1s0.5,1.1,1.1,1.1H375c0.6,0,1.1-0.5,1.1-1.1S375.6,51.2,375,51.2z"/>
		<path class="st2" d="M367.7,55.6h-17.5c-0.6,0-1.1,0.5-1.1,1.1s0.5,1.1,1.1,1.1h17.5c0.6,0,1.1-0.5,1.1-1.1
			C368.7,56.1,368.3,55.6,367.7,55.6z"/>
		<path class="st2" d="M379.1,46.9h-9.6c-0.6,0-1.1,0.5-1.1,1.1s0.5,1.1,1.1,1.1h9.6c0.6,0,1.1-0.5,1.1-1.1
			C380.2,47.3,379.7,46.9,379.1,46.9z"/>
		<path class="st2" d="M366.1,46.9h-2.9c-0.6,0-1.1,0.5-1.1,1.1s0.5,1.1,1.1,1.1h2.9c0.6,0,1.1-0.5,1.1-1.1
			C367.1,47.3,366.7,46.9,366.1,46.9z"/>
		<path class="st2" d="M373.2,55.5h-2.9c-0.6,0-1.1,0.5-1.1,1.1s0.5,1.1,1.1,1.1h2.9c0.6,0,1.1-0.5,1.1-1.1
			C374.2,56,373.8,55.5,373.2,55.5z"/>
	</g>
	<g class="st22">
		<path class="st1" d="M244,116.3h-6.6c-0.6,0-1.1,0.5-1.1,1.1s0.5,1.1,1.1,1.1h6.6c0.6,0,1.1-0.5,1.1-1.1
			C245.1,116.7,244.6,116.3,244,116.3z"/>
		<path class="st1" d="M254.2,116.1h-7.3c-0.6,0-1.1,0.5-1.1,1.1s0.5,1.1,1.1,1.1h7.3c0.6,0,1.1-0.5,1.1-1.1
			S254.8,116.1,254.2,116.1z"/>
		<path class="st1" d="M260,116.1h-3.2c-0.6,0-1.1,0.5-1.1,1.1s0.5,1.1,1.1,1.1h3.2c0.6,0,1.1-0.5,1.1-1.1
			C261,116.6,260.6,116.1,260,116.1z"/>
		<path class="st1" d="M260.5,119.7h-23.1c-0.6,0-1.1,0.5-1.1,1.1s0.5,1.1,1.1,1.1h23.1c0.6,0,1.1-0.5,1.1-1.1
			C261.5,120.2,261.1,119.7,260.5,119.7z"/>
		<path class="st1" d="M248.3,123.7h-10.9c-0.6,0-1.1,0.5-1.1,1.1s0.5,1.1,1.1,1.1h10.9c0.6,0,1.1-0.5,1.1-1.1
			C249.3,124.1,248.8,123.7,248.3,123.7z"/>
	</g>
	<g class="st22">
		<path class="st2" d="M172.2,54.4C172.2,54.4,172.1,54.4,172.2,54.4l-4.2,0.1c-0.6,0-1,0.5-1,1.1s0.5,1,1.1,1l0,0l4.2-0.1
			c0.6,0,1-0.5,1-1.1C173.2,54.9,172.7,54.4,172.2,54.4z"/>
		<g>
			<path class="st2" d="M159.9,49.5c-3.5,0-6.4,2.9-6.4,6.4s2.9,6.4,6.4,6.4s6.4-2.9,6.4-6.4C166.3,52.4,163.4,49.5,159.9,49.5z
				 M159.9,60.2c-2.3,0-4.3-1.9-4.3-4.3s1.9-4.3,4.3-4.3c2.3,0,4.3,1.9,4.3,4.3S162.2,60.2,159.9,60.2z"/>
			<path class="st2" d="M159.9,42.6c-0.6,0-1.1,0.5-1.1,1.1v4.2c0,0.6,0.5,1.1,1.1,1.1s1.1-0.5,1.1-1.1v-4.2
				C161,43,160.5,42.6,159.9,42.6z"/>
			<path class="st2" d="M167.7,46.3l-2.9,3c-0.4,0.4-0.4,1.1,0,1.5c0.2,0.2,0.5,0.3,0.7,0.3c0.3,0,0.6-0.1,0.8-0.3l2.9-3
				c0.4-0.4,0.4-1.1,0-1.5S168.1,45.9,167.7,46.3z"/>
			<path class="st2" d="M166.6,60.6c-0.4-0.4-1.1-0.4-1.5,0.1c-0.4,0.4-0.4,1.1,0.1,1.5l3.1,2.8c0.2,0.2,0.5,0.3,0.7,0.3
				c0.3,0,0.6-0.1,0.8-0.3c0.4-0.4,0.4-1.1-0.1-1.5L166.6,60.6z"/>
			<path class="st2" d="M160.3,62.9c-0.6,0-1,0.5-1,1.1l0.3,4.2c0,0.6,0.5,1,1.1,1c0,0,0,0,0.1,0c0.6,0,1-0.5,1-1.1l-0.3-4.2
				C161.4,63.3,160.9,62.9,160.3,62.9z"/>
			<path class="st2" d="M153.8,61.4l-2.7,3.2c-0.4,0.4-0.3,1.1,0.1,1.5c0.2,0.2,0.4,0.3,0.7,0.3s0.6-0.1,0.8-0.4l2.7-3.2
				c0.4-0.4,0.3-1.1-0.1-1.5S154.2,60.9,153.8,61.4z"/>
			<path class="st2" d="M151.7,55.6l-4.2,0.4c-0.6,0.1-1,0.6-1,1.2c0.1,0.5,0.5,1,1.1,1h0.1l4.2-0.4c0.6-0.1,1-0.6,1-1.2
				C152.8,56,152.3,55.6,151.7,55.6z"/>
			<path class="st2" d="M154.2,50l-3.3-2.6c-0.5-0.4-1.1-0.3-1.5,0.2s-0.3,1.1,0.2,1.5l3.3,2.6c0.2,0.2,0.4,0.2,0.7,0.2
				s0.6-0.1,0.8-0.4C154.7,51.1,154.7,50.4,154.2,50z"/>
		</g>
	</g>
	<g class="st22">
		<path class="st1" d="M249.6,74.9l-4.2,0.1c-0.6,0-1,0.5-1,1.1s0.5,1,1.1,1l0,0l4.2-0.1c0.6,0,1-0.5,1-1.1S250.2,74.9,249.6,74.9z"
			/>
		<path class="st1" d="M237.3,70c-3.5,0-6.4,2.9-6.4,6.4s2.9,6.4,6.4,6.4s6.4-2.9,6.4-6.4C243.7,72.8,240.9,70,237.3,70z
			 M237.3,80.6c-2.3,0-4.3-1.9-4.3-4.3s1.9-4.3,4.3-4.3s4.3,1.9,4.3,4.3S239.7,80.6,237.3,80.6z"/>
		<path class="st1" d="M241.9,65.7c-0.5-0.2-1.2,0-1.4,0.6c-0.2,0.5,0,1.2,0.6,1.4c2.2,1,4,2.7,5,5c0.2,0.4,0.6,0.6,1,0.6
			c0.1,0,0.3,0,0.4-0.1c0.5-0.2,0.8-0.9,0.6-1.4C246.8,69,244.6,66.9,241.9,65.7z"/>
		<path class="st1" d="M232.8,65.7c-3.2,1.4-5.7,4.2-6.6,7.5c-0.2,0.6,0.2,1.2,0.7,1.3c0.1,0,0.2,0,0.3,0c0.5,0,0.9-0.3,1-0.8
			c0.8-2.7,2.8-5,5.4-6.1c0.5-0.2,0.8-0.9,0.6-1.4S233.4,65.5,232.8,65.7z"/>
		<path class="st1" d="M234.5,85.4c-2.7-0.8-4.8-2.8-5.9-5.3c-0.2-0.5-0.9-0.8-1.4-0.6c-0.5,0.2-0.8,0.9-0.6,1.4
			c1.3,3.1,4,5.5,7.2,6.5c0.1,0,0.2,0,0.3,0c0.5,0,0.9-0.3,1-0.7C235.4,86.1,235.1,85.5,234.5,85.4z"/>
		<path class="st1" d="M247.8,78.1c-0.6-0.2-1.1,0.2-1.3,0.7c-0.8,2.8-2.8,5.1-5.4,6.2c-0.5,0.2-0.8,0.9-0.6,1.4
			c0.2,0.4,0.6,0.6,1,0.6c0.1,0,0.3,0,0.4-0.1c3.2-1.4,5.7-4.2,6.6-7.6C248.7,78.8,248.3,78.3,247.8,78.1z"/>
		<path class="st1" d="M237.3,63c-0.6,0-1.1,0.5-1.1,1.1v4.2c0,0.6,0.5,1.1,1.1,1.1s1.1-0.5,1.1-1.1v-4.2
			C238.4,63.5,237.9,63,237.3,63z"/>
		<path class="st1" d="M237.8,83.4c-0.6,0-1,0.5-1,1.1l0.3,4.2c0,0.6,0.5,1,1.1,1c0,0,0,0,0.1,0c0.6,0,1-0.5,1-1.1l-0.3-4.2
			C238.9,83.8,238.4,83.3,237.8,83.4z"/>
		<path class="st1" d="M229.2,76.1l-4.2,0.4c-0.6,0.1-1,0.6-1,1.2c0.1,0.5,0.5,1,1.1,1h0.1l4.2-0.4c0.6-0.1,1-0.6,1-1.2
			C230.3,76.4,229.8,76,229.2,76.1z"/>
	</g>
	<g class="st22">
		<g>
			<path class="st1" d="M397.3,63.1c-3.5,0-6.4,2.9-6.4,6.4s2.9,6.4,6.4,6.4s6.4-2.9,6.4-6.4C403.7,65.9,400.9,63.1,397.3,63.1z
				 M397.3,73.7c-2.3,0-4.3-1.9-4.3-4.3s1.9-4.3,4.3-4.3c2.3,0,4.3,1.9,4.3,4.3S399.7,73.7,397.3,73.7z"/>
			<path class="st1" d="M397.3,66.2c-1.8,0-3.3,1.5-3.3,3.3s1.5,3.3,3.3,3.3s3.3-1.5,3.3-3.3C400.6,67.7,399.1,66.2,397.3,66.2z
				 M397.3,70.6c-0.6,0-1.1-0.5-1.1-1.1s0.5-1.1,1.1-1.1s1.1,0.5,1.1,1.1C398.5,70.1,398,70.6,397.3,70.6z"/>
		</g>
	</g>
	<g class="st22">
		<path class="st2" d="M318.4,84.6L318.4,84.6l-4.2,0.1c-0.6,0-1,0.5-1,1.1s0.5,1,1.1,1l0,0l4.2-0.1c0.6,0,1-0.5,1-1.1
			C319.4,85.1,319,84.6,318.4,84.6z"/>
		<g>
			<path class="st2" d="M306.1,72.7c-0.6,0-1.1,0.5-1.1,1.1V78c0,0.6,0.5,1.1,1.1,1.1s1.1-0.5,1.1-1.1v-4.2
				C307.2,73.2,306.7,72.7,306.1,72.7z"/>
			<path class="st2" d="M313.9,76.5l-2.9,3c-0.4,0.4-0.4,1.1,0,1.5c0.2,0.2,0.5,0.3,0.7,0.3c0.3,0,0.6-0.1,0.8-0.3l2.9-3
				c0.4-0.4,0.4-1.1,0-1.5S314.3,76.1,313.9,76.5z"/>
			<path class="st2" d="M312.8,90.7c-0.4-0.4-1.1-0.4-1.5,0.1c-0.4,0.4-0.4,1.1,0.1,1.5l3.1,2.8c0.2,0.2,0.5,0.3,0.7,0.3
				c0.3,0,0.6-0.1,0.8-0.3c0.4-0.4,0.4-1.1-0.1-1.5L312.8,90.7z"/>
			<path class="st2" d="M306.6,93.1c-0.6,0-1,0.5-1,1.1l0.3,4.2c0,0.6,0.5,1,1.1,1c0,0,0,0,0.1,0c0.6,0,1-0.5,1-1.1l-0.3-4.2
				C307.7,93.5,307.2,93.1,306.6,93.1z"/>
			<path class="st2" d="M300.1,91.5l-2.7,3.2c-0.4,0.4-0.3,1.1,0.1,1.5c0.2,0.2,0.4,0.3,0.7,0.3c0.3,0,0.6-0.1,0.8-0.4l2.7-3.2
				c0.4-0.4,0.3-1.1-0.1-1.5C301.1,91,300.4,91.1,300.1,91.5z"/>
			<path class="st2" d="M298,85.8l-4.2,0.4c-0.6,0.1-1,0.6-1,1.2c0.1,0.5,0.5,1,1.1,1h0.1l4.2-0.4c0.6-0.1,1-0.6,1-1.2
				C299.1,86.2,298.5,85.7,298,85.8z"/>
			<path class="st2" d="M300.4,80.2l-3.3-2.6c-0.5-0.4-1.1-0.3-1.5,0.2s-0.3,1.1,0.2,1.5l3.3,2.6c0.2,0.2,0.4,0.2,0.7,0.2
				c0.3,0,0.6-0.1,0.8-0.4C301,81.2,300.9,80.5,300.4,80.2z"/>
		</g>
	</g>
	<g class="st22">
		<path class="st2" d="M283.9,61.5h-17.8c-0.6,0-1.1,0.5-1.1,1.1s0.5,1.1,1.1,1.1h17.8c0.6,0,1.1-0.5,1.1-1.1S284.5,61.5,283.9,61.5
			z"/>
		<path class="st2" d="M283.7,55c-0.4-0.4-1.1-0.4-1.5,0s-0.4,1.1,0,1.5l6.2,6.1l-5.2,5c-0.4,0.4-0.4,1.1,0,1.5
			c0.2,0.2,0.5,0.3,0.8,0.3s0.5-0.1,0.7-0.3l6-5.8c0.2-0.2,0.3-0.5,0.3-0.8s-0.1-0.6-0.3-0.8L283.7,55z"/>
	</g>
	<g class="st22">
		<path class="st2" d="M157.8,97.8H140c-0.6,0-1.1,0.5-1.1,1.1s0.5,1.1,1.1,1.1h17.8c0.6,0,1.1-0.5,1.1-1.1S158.4,97.8,157.8,97.8z"
			/>
		<path class="st2" d="M157.5,91.3c-0.4-0.4-1.1-0.4-1.5,0s-0.4,1.1,0,1.5l6.2,6.1l-5.2,5c-0.4,0.4-0.4,1.1,0,1.5
			c0.2,0.2,0.5,0.3,0.8,0.3s0.5-0.1,0.7-0.3l6-5.8c0.2-0.2,0.3-0.5,0.3-0.8s-0.1-0.6-0.3-0.8L157.5,91.3z"/>
	</g>
	<g class="st22">
		<g>
			<rect x="63" y="40.9" class="st24" width="2.6" height="17.4"/>
			<rect x="65.6" y="48" class="st4" width="2.6" height="10.3"/>
		</g>
		<g>
			<rect x="71.3" y="44.3" class="st24" width="2.6" height="14"/>
			<rect x="73.9" y="46.4" class="st4" width="2.6" height="11.8"/>
		</g>
		<g>
			<rect x="79.7" y="50.3" class="st24" width="2.6" height="7.9"/>
			<rect x="82.3" y="45" class="st4" width="2.6" height="13.2"/>
		</g>
	</g>
	<circle class="st33" cx="323.2" cy="51.5" r="10.6"/>
	<path class="st34" d="M327.3,41.7l-4.1,9.8l10.6-0.8C333.4,46.6,330.9,43.2,327.3,41.7z"/>
	<path class="st35" d="M257.4,27.6c-2.2,0-4,1.8-4,4s1.8,4,4,4c2.2,0,4-1.8,4-4C261.4,29.4,259.6,27.6,257.4,27.6z M257.4,33.5
		c-1.1,0-1.9-0.9-1.9-1.9s0.9-1.9,1.9-1.9c1.1,0,1.9,0.9,1.9,1.9S258.4,33.5,257.4,33.5z"/>
	<path class="st35" d="M263.3,38.5l-3.1-4.9c-0.3-0.5-1-0.6-1.5-0.3s-0.6,1-0.3,1.5l3,4.8c0.1,0.3,0,0.5-0.1,0.5
		c-0.1,0.1-0.2,0.3-0.6,0.3h-7.3c-0.3,0-0.5-0.2-0.6-0.3s-0.2-0.3-0.1-0.6l3.4-5.2c0.3-0.5,0.2-1.1-0.3-1.5
		c-0.5-0.3-1.1-0.2-1.5,0.3l-3.4,5.3c0,0.1-0.1,0.1-0.1,0.2c-0.4,0.9-0.3,1.8,0.3,2.6c0.5,0.8,1.4,1.2,2.3,1.2h7.3
		c0.9,0,1.8-0.5,2.3-1.2C263.5,40.4,263.6,39.5,263.3,38.5C263.4,38.6,263.3,38.6,263.3,38.5z"/>
	<path class="st35" d="M123.7,44.2l-11.5,8.7l-5.4-6.5c-0.4-0.4-1-0.5-1.5-0.1c-0.4,0.4-0.5,1-0.1,1.5l6.1,7.2
		c0.2,0.2,0.5,0.4,0.8,0.4c0.2,0,0.4-0.1,0.6-0.2l12.3-9.3c0.5-0.4,0.6-1,0.2-1.5C124.9,43.9,124.2,43.8,123.7,44.2z"/>
	<g class="st22">
		<path class="st2" d="M33.7,44.6c-7.5,0-13.6,5-13.6,11.2c0,3.3,1.7,6.2,4.5,8.3c3.2,2.4,6.4,4.8,9.3,7.6l3.2,3v-8
			c5.9-1.2,10.2-5.6,10.2-10.8C47.3,49.6,41.2,44.6,33.7,44.6z"/>
		<path class="st1" d="M33.7,42.4c-8.7,0-15.7,6-15.7,13.3c0,3.8,1.9,7.5,5.3,10c3,2.2,6.2,4.7,9.1,7.4l3.2,3
			c0.4,0.4,0.9,0.6,1.5,0.6c0.3,0,0.6-0.1,0.8-0.2c0.8-0.3,1.3-1.1,1.3-1.9v-6.4c6.1-1.9,10.2-6.8,10.2-12.5
			C49.4,48.4,42.3,42.4,33.7,42.4z M37,66.6v8l-3.2-3c-2.9-2.7-6.1-5.2-9.3-7.6c-2.7-2-4.5-5-4.5-8.3c0-6.2,6.1-11.2,13.6-11.2
			s13.6,5,13.6,11.2C47.3,61,42.9,65.3,37,66.6z"/>
	</g>
</g>
</svg>
