<?xml version="1.0" encoding="utf-8"?>
<!-- Generator: Adobe Illustrator 19.2.1, SVG Export Plug-In . SVG Version: 6.00 Build 0)  -->
<svg version="1.1" id="Capa_1" xmlns="http://www.w3.org/2000/svg" xmlns:xlink="http://www.w3.org/1999/xlink" x="0px" y="0px"
	 viewBox="0 0 200 200" style="enable-background:new 0 0 200 200;" xml:space="preserve">
<style type="text/css">
	.st0{fill:#FFFFFF;}
	.st1{fill:#5EB4E7;}
	.st2{fill:#020C16;}
	.st3{fill:#282D33;}
	.st4{fill:#F8C44F;}
	.st5{fill:none;}
</style>
<g>
	<g>
		<g>
			<path class="st0" d="M143.9,180.1L56,180c-7.8,0-14.1-6.3-14.1-14.1L42,46.7c0-7.8,6.3-14.1,14.1-14.1h15v5.8h-15
				c-4.6,0-8.3,3.7-8.4,8.4L47.6,166c0,4.6,3.7,8.4,8.4,8.4h87.9c4.6,0,8.4-3.7,8.4-8.4l0.1-119.2c0-4.6-3.7-8.4-8.4-8.4h-19.7v-5.8
				H144c7.8,0,14.1,6.3,14.1,14.1L158,166C158,173.8,151.7,180.1,143.9,180.1z"/>
		</g>
		<path class="st1" d="M146.5,166c0,1.4-1.2,2.6-2.6,2.6H56c-1.4,0-2.6-1.2-2.6-2.6l0.1-119.2c0-1.4,1.2-2.6,2.6-2.6H144
			c1.4,0,2.6,1.2,2.6,2.6L146.5,166z"/>
		<g>
			<g>
				<rect x="62.4" y="51.9" class="st0" width="75.9" height="107.3"/>
				<path class="st2" d="M141.1,162.1H59.5l0.1-113h81.6L141.1,162.1z M65.2,156.3h70.1l0.1-101.5H65.3L65.2,156.3z"/>
			</g>
		</g>
		<g>
			<g>
				<path class="st0" d="M103,36.9l-2.1-3.6c0.9-0.8,1.5-2,1.5-3.3c0-2.4-2-4.4-4.4-4.4s-4.4,2-4.4,4.4c0,1.3,0.6,2.5,1.5,3.3
					L93,36.9l-5,8.6h10h10L103,36.9z M98,32.2c-1.2,0-2.1-0.9-2.1-2.1S96.8,28,98,28s2.1,0.9,2.1,2.1C100.1,31.2,99.2,32.2,98,32.2z
					"/>
				<path class="st3" d="M113,48.4H83.1l8.6-14.9c-0.6-1.1-0.9-2.3-0.9-3.5c0-4,3.3-7.3,7.3-7.3c1.9,0,3.8,0.8,5.2,2.1
					c1.4,1.4,2.1,3.2,2.1,5.1c0,1.2-0.3,2.4-0.9,3.5L113,48.4z M93.1,42.7h9.9L98.6,35c-0.4,0-0.7,0-1.1,0L93.1,42.7z M98,29.3
					c-0.4,0-0.8,0.4-0.8,0.8c0,0.2,0.1,0.4,0.2,0.6c0.5,0.5,1.4,0.1,1.3-0.6C98.8,29.6,98.5,29.3,98,29.3z"/>
			</g>
			<g>
				<g>
					<path class="st4" d="M80.6,54.2V35.7h9.6l1.3-2.2c-0.6-1.1-0.9-2.3-0.9-3.5c0-4,3.3-7.3,7.3-7.3c2,0,3.8,0.8,5.2,2.1
						c1.4,1.4,2.1,3.2,2.1,5.1c0,1.2-0.3,2.4-0.9,3.5l1.3,2.2h10.6V54H80.6V54.2z"/>
				</g>
				<g>
					<path class="st2" d="M97.8,25.7L97.8,25.7c2.4,0,4.4,2,4.4,4.4c0,1.3-0.6,2.5-1.5,3.3l2.1,3.6l1,1.7h9.3v12.7H83.5V38.7h8.4
						l1-1.7l2.1-3.6c-0.9-0.8-1.5-2-1.5-3.3C93.4,27.6,95.4,25.7,97.8,25.7 M97.8,32.2c1.2,0,2.1-0.9,2.1-2.1S99,28,97.8,28
						s-2.1,0.9-2.1,2.1C95.8,31.2,96.7,32.2,97.8,32.2 M97.8,19.9L97.8,19.9c-5.6,0-10.2,4.6-10.2,10.2c0,1,0.1,1.9,0.4,2.8h-4.6
						h-5.8v5.8v12.7v5.8h5.8h29.7h5.8v-5.8V38.7v-5.8h-5.8h-5.6c0.3-0.9,0.4-1.9,0.4-2.8c0-2.7-1.1-5.3-3-7.2
						C103.1,21,100.6,19.9,97.8,19.9L97.8,19.9z"/>
				</g>
			</g>
		</g>
	</g>
	<g>
		<circle class="st4" cx="110.7" cy="131.8" r="16.5"/>
		<g>
			<g>
				<line class="st5" x1="117.3" y1="125.2" x2="104.2" y2="138.4"/>
				
					<rect x="101.4" y="128.9" transform="matrix(0.7071 -0.7071 0.7071 0.7071 -60.7986 116.8889)" class="st2" width="18.6" height="5.8"/>
			</g>
			<g>
				<line class="st5" x1="104.2" y1="125.2" x2="117.3" y2="138.4"/>
				
					<rect x="107.9" y="122.5" transform="matrix(0.7071 -0.7071 0.7071 0.7071 -60.7342 116.9202)" class="st2" width="5.8" height="18.6"/>
			</g>
		</g>
	</g>
	<g>
		<circle class="st0" cx="83.8" cy="86.5" r="8.9"/>
		<path class="st2" d="M83.8,98.3C77.3,98.3,72,93,72,86.5s5.3-11.8,11.8-11.8S95.6,80,95.6,86.5C95.6,93,90.3,98.3,83.8,98.3z
			 M83.8,80.4c-3.3,0-6,2.7-6,6s2.7,6,6,6s6-2.7,6-6C89.9,83.1,87.2,80.4,83.8,80.4z"/>
	</g>
	<g>
		<g>
			<polyline class="st0" points="125.8,79.1 114.9,68.2 104,79.1 			"/>
			<polygon class="st2" points="123.8,81.1 114.9,72.3 106,81.1 102,77 114.9,64.1 127.8,77 			"/>
		</g>
		<g>
			<path class="st0" d="M70.8,118.5c24.5,0,44.4-19.6,44.4-43.8c0-1.5-0.1-3-0.2-4.5"/>
			<path class="st2" d="M70.8,121.4v-5.8c22.9,0,41.5-18.3,41.5-40.9c0-1.4-0.1-2.8-0.2-4.2l5.7-0.6c0.2,1.6,0.2,3.2,0.2,4.8
				C118.1,100.4,96.9,121.4,70.8,121.4z"/>
		</g>
	</g>
</g>
</svg>
