<?xml version="1.0" encoding="utf-8"?>
<!-- Generator: Adobe Illustrator 19.2.1, SVG Export Plug-In . SVG Version: 6.00 Build 0)  -->
<svg version="1.1" id="Capa_1" xmlns="http://www.w3.org/2000/svg" xmlns:xlink="http://www.w3.org/1999/xlink" x="0px" y="0px"
	 viewBox="0 0 143.7 68.5" style="enable-background:new 0 0 143.7 68.5;" xml:space="preserve">
<style type="text/css">
	.st0{fill:#EB2E2A;}
	.st1{fill:#FFFFFF;}
</style>
<g>
	<g>
		<polygon class="st0" points="0,0 30.8,0 30.8,30.8 25.6,30.8 25.6,11.1 20.5,11.1 20.5,30.8 0,30.8 		"/>
		<path class="st1" d="M39.7,30.6V15.2h4.2c1.5,0,2.5,0.2,2.9,0.7c0.3,0.4,0.5,1.3,0.5,2.8v11.8h5.3V18.1c0-2.6-0.6-4.5-1.9-5.6
			c-1.4-1.1-3.5-1.6-6.4-1.6h-9.8v19.7H39.7z"/>
		<path class="st1" d="M64.2,26.6c-1,0-1.7-0.1-2.1-0.4c-0.4-0.3-0.6-0.8-0.6-1.6c0-0.9,0.3-1.5,1-1.8c0.4-0.2,1.2-0.3,2.1-0.3h6.1
			v4.1H64.2z M66,14.9c1.8,0,3.1,0.3,3.7,0.8c0.7,0.5,1,1.5,1,2.9h-6.9c-2.5,0-4.4,0.4-5.6,1.1c-1.5,0.9-2.3,2.6-2.3,5
			c0,1.8,0.6,3.2,1.6,4.3c1.1,1,2.6,1.6,4.5,1.6h13.9V18.2c0-4.9-2.7-7.4-8.1-7.4H57.3v4.1H66z"/>
		<path class="st1" d="M91.4,26.3c-2.6,0-4.4-0.6-5.4-1.8c-0.7-0.8-1-2.1-1-3.8c0-2.4,0.6-3.9,1.9-4.7c0.9-0.6,2.4-0.9,4.6-0.9H97
			v-4.2h-7c-4.1,0-7,1.2-8.6,3.4c-1.2,1.6-1.8,3.8-1.8,6.5c0,3,0.9,5.4,2.7,7.1c1.8,1.8,4.3,2.6,7.7,2.6h7v-4.2
			C97,26.3,91.4,26.3,91.4,26.3z"/>
		<path class="st1" d="M107.7,26.6c-1,0-1.7-0.1-2.1-0.4c-0.4-0.3-0.6-0.8-0.6-1.6c0-0.9,0.3-1.5,1-1.8c0.5-0.2,1.2-0.3,2.1-0.3h6.1
			v4.1H107.7z M109.4,14.9c1.8,0,3.1,0.3,3.7,0.8c0.7,0.5,1,1.5,1,2.9h-6.9c-2.5,0-4.4,0.4-5.6,1.1c-1.5,0.9-2.3,2.6-2.3,5
			c0,1.8,0.6,3.2,1.6,4.3c1.1,1,2.6,1.6,4.5,1.6h13.9V18.2c0-4.9-2.7-7.4-8.1-7.4h-10.7v4.1H109.4z"/>
		<path class="st1" d="M138.2,20.8c0,2.5-0.6,4.1-1.8,4.9c-0.8,0.4-2.5,0.7-5.2,0.7h-1.9V15.2h1.9c2.7,0,4.4,0.3,5.3,0.8
			C137.6,16.7,138.2,18.3,138.2,20.8 M129.3,37.6v-7.1h4.5c3.9,0,6.7-1.2,8.3-3.5c1.1-1.6,1.6-3.6,1.6-6.1c0-3.2-0.9-5.7-2.5-7.4
			c-1.7-1.8-4-2.6-7.1-2.6h-10v26.8h5.2V37.6z"/>
	</g>
</g>
</svg>
