<?xml version="1.0" encoding="utf-8"?>
<!-- Generator: Adobe Illustrator 19.2.1, SVG Export Plug-In . SVG Version: 6.00 Build 0)  -->
<svg version="1.1" id="Capa_1" xmlns="http://www.w3.org/2000/svg" xmlns:xlink="http://www.w3.org/1999/xlink" x="0px" y="0px"
	 viewBox="0 0 421.6 106.1" style="enable-background:new 0 0 421.6 106.1;" xml:space="preserve">
<style type="text/css">
	.st0{fill:#EB2E2A;}
	.st1{fill:#FFFFFF;}
</style>
<g>
	<g>
		<polygon class="st0" points="30.8,33.1 61.6,33.1 61.6,63.9 56.4,63.9 56.4,44.2 51.3,44.2 51.3,63.9 30.8,63.9 		"/>
		<path class="st1" d="M70.5,63.7V48.3h4.2c1.5,0,2.5,0.2,2.9,0.7c0.3,0.4,0.5,1.3,0.5,2.8v11.8h5.3V51.2c0-2.6-0.6-4.5-1.9-5.6
			C80.1,44.5,78,44,75.1,44h-9.8v19.7H70.5z"/>
		<path class="st1" d="M95,59.7c-1,0-1.7-0.1-2.1-0.4c-0.4-0.3-0.6-0.8-0.6-1.6c0-0.9,0.3-1.5,1-1.8c0.4-0.2,1.2-0.3,2.1-0.3h6.1
			v4.1H95z M96.8,48c1.8,0,3.1,0.3,3.7,0.8c0.7,0.5,1,1.5,1,2.9h-6.9c-2.5,0-4.4,0.4-5.6,1.1c-1.5,0.9-2.3,2.6-2.3,5
			c0,1.8,0.6,3.2,1.6,4.3c1.1,1,2.6,1.6,4.5,1.6h13.9V51.3c0-4.9-2.7-7.4-8.1-7.4H88.1V48H96.8z"/>
		<path class="st1" d="M122.2,59.4c-2.6,0-4.4-0.6-5.4-1.8c-0.7-0.8-1-2.1-1-3.8c0-2.4,0.6-3.9,1.9-4.7c0.9-0.6,2.4-0.9,4.6-0.9h5.5
			V44h-7c-4.1,0-7,1.2-8.6,3.4c-1.2,1.6-1.8,3.8-1.8,6.5c0,3,0.9,5.4,2.7,7.1c1.8,1.8,4.3,2.6,7.7,2.6h7v-4.2H122.2z"/>
		<path class="st1" d="M138.5,59.7c-1,0-1.7-0.1-2.1-0.4c-0.4-0.3-0.6-0.8-0.6-1.6c0-0.9,0.3-1.5,1-1.8c0.5-0.2,1.2-0.3,2.1-0.3h6.1
			v4.1H138.5z M140.2,48c1.8,0,3.1,0.3,3.7,0.8c0.7,0.5,1,1.5,1,2.9h-6.9c-2.5,0-4.4,0.4-5.6,1.1c-1.5,0.9-2.3,2.6-2.3,5
			c0,1.8,0.6,3.2,1.6,4.3c1.1,1,2.6,1.6,4.5,1.6h13.9V51.3c0-4.9-2.7-7.4-8.1-7.4h-10.7V48H140.2z"/>
		<path class="st1" d="M169,53.9c0,2.5-0.6,4.1-1.8,4.9c-0.8,0.4-2.5,0.7-5.2,0.7h-1.9V48.3l1.9,0c2.7,0,4.4,0.3,5.3,0.8
			C168.4,49.8,169,51.4,169,53.9 M160.1,70.7v-7.1h4.5c3.9,0,6.7-1.2,8.3-3.5c1.1-1.6,1.6-3.6,1.6-6.1c0-3.2-0.9-5.7-2.5-7.4
			c-1.7-1.8-4-2.6-7.1-2.6h-10v26.8H160.1z"/>
	</g>
	<g>
		<rect x="189.2" y="30.8" class="st1" width="1.6" height="44.5"/>
	</g>
	<g>
		<path class="st1" d="M207.9,61.9l7.7-19h2l7.7,19h-2.5l-2.3-5.7h-7.9l-2.3,5.7H207.9z M216.6,45.9c-0.8,2.4-1.7,4.5-2.4,6.4
			l-0.7,1.8h6.3l-0.7-1.8C218.2,50.3,217.4,48.2,216.6,45.9L216.6,45.9z"/>
		<path class="st1" d="M237.1,44.6c-1.1,0-2.1,0.2-3,0.5c-0.9,0.3-1.7,0.8-2.4,1.5c-0.7,0.7-1.2,1.5-1.6,2.5c-0.4,1-0.6,2.1-0.6,3.5
			c0,1.3,0.2,2.4,0.5,3.4c0.4,1,0.9,1.8,1.6,2.4c0.7,0.6,1.5,1.1,2.4,1.4c0.9,0.3,2,0.5,3.2,0.5c0.3,0,0.7,0,1,0
			c0.4,0,0.7-0.1,1.1-0.1c0.4-0.1,0.7-0.1,1-0.2c0.3-0.1,0.6-0.2,0.9-0.3v2c-0.6,0.2-1.2,0.4-1.9,0.5c-0.7,0.1-1.5,0.2-2.3,0.2
			c-1.6,0-3-0.2-4.2-0.7c-1.2-0.4-2.2-1.1-3.1-1.9c-0.8-0.8-1.5-1.8-1.9-3c-0.4-1.2-0.6-2.5-0.6-4c0-1.5,0.2-2.8,0.7-4.1
			s1.1-2.3,1.9-3.2c0.8-0.9,1.9-1.6,3.1-2.1c1.2-0.5,2.6-0.7,4.1-0.7c0.4,0,0.8,0,1.2,0c0.4,0,0.8,0.1,1.1,0.1
			c0.4,0.1,0.7,0.1,1,0.2s0.6,0.2,0.8,0.3v2c-0.6-0.2-1.2-0.3-1.9-0.5C238.5,44.7,237.8,44.6,237.1,44.6z"/>
		<path class="st1" d="M243.2,61.9l7.7-19h2l7.7,19h-2.5l-2.3-5.7h-7.9l-2.3,5.7H243.2z M251.9,45.9c-0.8,2.4-1.7,4.5-2.4,6.4
			l-0.7,1.8h6.3l-0.7-1.8C253.6,50.3,252.8,48.2,251.9,45.9L251.9,45.9z"/>
		<path class="st1" d="M279,52.3c0,1.1-0.1,2.2-0.4,3.1c-0.3,1-0.7,1.9-1.2,2.6c-0.6,0.8-1.2,1.5-2.1,2s-1.8,1-2.9,1.3
			c-0.6,0.2-1.3,0.3-2.1,0.4c-0.7,0.1-1.5,0.1-2.4,0.1h-4.3v-19h4.3c0.9,0,1.7,0,2.4,0.1c0.7,0.1,1.4,0.2,2.1,0.4
			c1.1,0.3,2.1,0.7,2.9,1.3c0.8,0.6,1.5,1.2,2.1,2c0.5,0.8,1,1.6,1.2,2.6C278.8,50.2,279,51.2,279,52.3z M276.7,52.3
			c0-1.8-0.4-3.3-1.2-4.4s-2-1.9-3.5-2.4c-0.6-0.2-1.2-0.3-1.9-0.4c-0.7-0.1-1.5-0.1-2.4-0.1h-1.8v14.8h1.8c0.9,0,1.7,0,2.4-0.1
			c0.7-0.1,1.4-0.2,1.9-0.4c1.5-0.5,2.7-1.3,3.5-2.5S276.7,54.2,276.7,52.3z"/>
		<path class="st1" d="M285.4,59.8h9.7v2.1h-12.1v-19h11.5V45h-9.2v6.1h8.2v2.1h-8.2V59.8z"/>
		<path class="st1" d="M309.2,61.9h-1.1l-4.8-11.3c-0.7-1.6-1.3-3.3-2-5.1h-0.1c0.1,2.6,0.2,5.1,0.2,7.3v9.2h-2.3v-19h3.3l4.5,10.8
			c0.5,1.2,1.1,2.7,1.7,4.4h0.1c0.7-1.9,1.2-3.4,1.7-4.4l4.5-10.8h3.3v19h-2.3v-9.2c0-2.1,0.1-4.6,0.2-7.3H316
			c-0.7,1.9-1.4,3.6-2,5.1L309.2,61.9z"/>
		<path class="st1" d="M323,61.9v-19h2.3v19H323z"/>
		<path class="st1" d="M328.3,61.9l7.7-19h2l7.7,19h-2.5l-2.3-5.7H333l-2.3,5.7H328.3z M337,45.9c-0.8,2.4-1.7,4.5-2.4,6.4l-0.7,1.8
			h6.3l-0.7-1.8C338.6,50.3,337.8,48.2,337,45.9L337,45.9z"/>
		<path class="st1" d="M350.5,47.9c0,0.6,0.1,1,0.3,1.4c0.2,0.4,0.5,0.7,0.9,0.9c0.4,0.2,0.8,0.4,1.3,0.6c0.5,0.2,1,0.3,1.6,0.4
			c0.7,0.2,1.5,0.4,2.2,0.6c0.7,0.2,1.3,0.5,1.9,0.9c0.6,0.4,1,0.9,1.4,1.5c0.3,0.6,0.5,1.4,0.5,2.4c0,1-0.2,1.8-0.6,2.5
			c-0.4,0.7-0.9,1.3-1.5,1.8c-0.7,0.5-1.4,0.8-2.3,1c-0.9,0.2-1.9,0.3-3,0.3c-0.5,0-1,0-1.5-0.1c-0.5-0.1-1-0.1-1.5-0.2
			c-0.5-0.1-0.9-0.2-1.3-0.4c-0.4-0.1-0.7-0.3-0.9-0.4V59c0.3,0.2,0.7,0.3,1.2,0.5c0.4,0.1,0.9,0.3,1.3,0.4c0.5,0.1,0.9,0.2,1.4,0.2
			c0.5,0.1,0.9,0.1,1.3,0.1c0.7,0,1.3-0.1,1.9-0.2c0.6-0.1,1.1-0.3,1.6-0.6c0.5-0.3,0.8-0.6,1.1-1.1s0.4-1,0.4-1.7
			c0-0.6-0.1-1-0.3-1.4c-0.2-0.4-0.5-0.7-0.9-0.9c-0.4-0.2-0.8-0.4-1.3-0.6c-0.5-0.2-1-0.3-1.6-0.4c-0.7-0.2-1.5-0.4-2.2-0.6
			c-0.7-0.2-1.3-0.5-1.9-0.9c-0.6-0.4-1-0.9-1.3-1.5c-0.3-0.6-0.5-1.4-0.5-2.3c0-1,0.2-1.8,0.5-2.5c0.4-0.7,0.8-1.3,1.4-1.7
			c0.6-0.5,1.3-0.8,2.1-1c0.8-0.2,1.6-0.3,2.5-0.3c1,0,2,0.1,2.8,0.3c0.9,0.2,1.7,0.4,2.4,0.8v2.1c-0.8-0.3-1.6-0.6-2.4-0.8
			c-0.8-0.2-1.7-0.3-2.7-0.3c-0.7,0-1.3,0.1-1.9,0.2c-0.5,0.2-1,0.4-1.3,0.7c-0.4,0.3-0.6,0.6-0.8,1.1
			C350.6,47,350.5,47.4,350.5,47.9z"/>
		<path class="st1" d="M370.5,61.9v-19h2.3v19H370.5z"/>
		<path class="st1" d="M384.5,61.9h-2.3V45h-6.3v-2.1h15V45h-6.3V61.9z"/>
	</g>
</g>
</svg>
