<?xml version="1.0" encoding="utf-8"?>
<!-- Generator: Adobe Illustrator 19.2.1, SVG Export Plug-In . SVG Version: 6.00 Build 0)  -->
<svg version="1.1" id="Capa_1" xmlns="http://www.w3.org/2000/svg" xmlns:xlink="http://www.w3.org/1999/xlink" x="0px" y="0px"
	 viewBox="0 0 200 200" style="enable-background:new 0 0 200 200;" xml:space="preserve">
<style type="text/css">
	.st0{fill:#F8C44F;}
	.st1{fill:#FFFFFF;}
	.st2{fill:#282D33;}
	.st3{fill:#5EB4E7;}
</style>
<g>
	<path class="st0" d="M80.6,134.6h38.8c0.3-3.7,1.1-8.4,3.4-11.5c14.3-18.4,15.2-36,15.2-37.2c0-21-17-38-38-38s-38,17-38,38
		c0,1.2,0.9,18.8,15.2,37.2C79.5,126.1,80.3,130.9,80.6,134.6z"/>
	<g>
		<path class="st1" d="M75,85.7h-5.8C69.2,68.8,83,55,100,55v5.8C86.2,60.8,75,72,75,85.7z"/>
	</g>
	<g>
		<g>
			
				<rect x="83.3" y="92.4" transform="matrix(0.9842 -0.1773 0.1773 0.9842 -18.7741 17.0823)" class="st2" width="5.8" height="42.4"/>
		</g>
		<g>
			
				<rect x="92.7" y="110.8" transform="matrix(0.1773 -0.9842 0.9842 0.1773 -18.1853 205.5854)" class="st2" width="42.4" height="5.8"/>
		</g>
	</g>
	<g>
		<polygon class="st2" points="112.9,100.8 110.3,100.8 105.8,98.6 101.3,100.8 98.7,100.8 94.2,98.6 89.7,100.8 87.1,100.8 
			81.3,98 83.9,92.8 88.4,95 92.9,92.8 95.5,92.8 100,95 104.5,92.8 107.1,92.8 111.6,95 116.1,92.8 118.7,98 		"/>
	</g>
	<g>
		<g>
			<rect x="75.3" y="132.2" class="st3" width="49.4" height="5.8"/>
		</g>
		<g>
			<rect x="75.3" y="141.8" class="st3" width="49.4" height="5.8"/>
		</g>
		<g>
			<rect x="75.3" y="151.4" class="st3" width="49.4" height="5.8"/>
		</g>
		<g>
			<rect x="82" y="161" class="st3" width="36" height="5.8"/>
		</g>
		<g>
			<rect x="78.1" y="135.5" class="st3" width="5.8" height="18.2"/>
		</g>
	</g>
	<g>
		<g>
			<rect x="97.1" y="33.3" class="st1" width="5.8" height="7.5"/>
		</g>
		<g>
			
				<rect x="84.6" y="34.9" transform="matrix(0.9659 -0.2588 0.2588 0.9659 -7.0177 23.9574)" class="st1" width="5.8" height="7.5"/>
		</g>
		<g>
			
				<rect x="72.8" y="39.8" transform="matrix(0.8661 -0.4999 0.4999 0.8661 -11.6395 43.6775)" class="st1" width="5.8" height="7.5"/>
		</g>
		<g>
			<rect x="62.8" y="47.5" transform="matrix(0.7072 -0.707 0.707 0.7072 -16.99 61.4322)" class="st1" width="5.8" height="7.5"/>
		</g>
		<g>
			<rect x="55.1" y="57.5" transform="matrix(0.5 -0.866 0.866 0.5 -24.0819 80.8637)" class="st1" width="5.8" height="7.5"/>
		</g>
		<g>
			
				<rect x="50.2" y="69.3" transform="matrix(0.2588 -0.9659 0.9659 0.2588 -31.1831 105.4192)" class="st1" width="5.8" height="7.5"/>
		</g>
		<g>
			<rect x="47.7" y="82.7" class="st1" width="7.5" height="5.8"/>
		</g>
		<g>
			
				<rect x="49.3" y="95.3" transform="matrix(0.9659 -0.2588 0.2588 0.9659 -23.6095 17.0767)" class="st1" width="7.5" height="5.8"/>
		</g>
		<g>
			
				<rect x="54.2" y="107" transform="matrix(0.8662 -0.4997 0.4997 0.8662 -47.1616 43.6625)" class="st1" width="7.5" height="5.8"/>
		</g>
		<g>
			
				<rect x="61.9" y="117.1" transform="matrix(0.7071 -0.7071 0.7071 0.7071 -65.607 81.5914)" class="st1" width="7.5" height="5.8"/>
		</g>
		<g>
			
				<rect x="131.5" y="116.1" transform="matrix(0.7072 -0.707 0.707 0.7072 -45.4248 130.1123)" class="st1" width="5.8" height="7.5"/>
		</g>
		<g>
			
				<rect x="139.1" y="106.1" transform="matrix(0.5001 -0.866 0.866 0.5001 -24.1017 177.913)" class="st1" width="5.8" height="7.5"/>
		</g>
		<g>
			<rect x="144" y="94.4" transform="matrix(0.2587 -0.966 0.966 0.2587 14.0258 214.6533)" class="st1" width="5.8" height="7.5"/>
		</g>
		<g>
			<rect x="144.8" y="82.7" class="st1" width="7.5" height="5.8"/>
		</g>
		<g>
			
				<rect x="143.1" y="70.2" transform="matrix(0.9659 -0.2588 0.2588 0.9659 -13.9183 40.5001)" class="st1" width="7.5" height="5.8"/>
		</g>
		<g>
			
				<rect x="138.3" y="58.4" transform="matrix(0.8661 -0.4999 0.4999 0.8661 -11.6288 79.2152)" class="st1" width="7.5" height="5.8"/>
		</g>
		<g>
			
				<rect x="130.6" y="48.4" transform="matrix(0.707 -0.7072 0.7072 0.707 3.0957 110.0555)" class="st1" width="7.5" height="5.8"/>
		</g>
		<g>
			<rect x="120.6" y="40.7" transform="matrix(0.5 -0.866 0.866 0.5 24.3873 129.4525)" class="st1" width="7.5" height="5.8"/>
		</g>
		<g>
			
				<rect x="108.8" y="35.8" transform="matrix(0.2588 -0.9659 0.9659 0.2588 46.0273 137.4361)" class="st1" width="7.5" height="5.8"/>
		</g>
	</g>
</g>
</svg>
